<svg xmlns="http://www.w3.org/2000/svg" xmlns:xlink="http://www.w3.org/1999/xlink" viewBox="0 0 400 400"><defs><style>.cls-1{isolation:isolate;}.cls-2{fill:url(#linear-gradient);}.cls-3{fill:#fff;}.cls-4{fill:#b59450;}.cls-5{fill:#345f41;}.cls-6{fill:#c9a565;}.cls-11,.cls-7{fill:#a5c63b;}.cls-8{fill:#4d9959;}.cls-9{fill:#5f8417;}.cls-10{fill:#789b23;}.cls-11{opacity:0.5;mix-blend-mode:multiply;}.cls-12{fill:#ffcd02;}.cls-13{fill:#ffb703;}.cls-14{fill:#8e725e;}</style><linearGradient id="linear-gradient" y1="200.39" x2="400.78" y2="200.39" gradientUnits="userSpaceOnUse"><stop offset="0" stop-color="#f8a03f"/><stop offset="1" stop-color="#ed7a23"/></linearGradient></defs><title>NIVEL 1 copy</title><g class="cls-1"><g id="Ñëîé_1" data-name="Ñëîé 1"><rect class="cls-2" width="400.78" height="400.78"/><path d="M175.32,312.63h2.61v15h-2.2L167.5,317V327.6h-2.61v-15h2.43l8,10.35Z"/><path d="M181.52,314.58v-2.46h2.8v2.46Zm.11,13V316.31h2.61V327.6Z"/><path d="M195.39,316.31h2.72l-4.62,11.37h-2.33l-4.64-11.37h2.78l3,8.29Z"/><path d="M202.75,325a3.19,3.19,0,0,0,2.13.74,3.74,3.74,0,0,0,1.67-.35,5.32,5.32,0,0,0,1.39-1l1.52,1.35a6.33,6.33,0,0,1-1.94,1.54,5.83,5.83,0,0,1-2.68.57,6,6,0,0,1-2.28-.43,5.51,5.51,0,0,1-1.83-1.19,5.65,5.65,0,0,1-1.23-1.85,6.61,6.61,0,0,1,0-4.69,5.63,5.63,0,0,1,1.14-1.87,5.53,5.53,0,0,1,1.74-1.28,5.23,5.23,0,0,1,2.22-.47,5.29,5.29,0,0,1,2.36.5,4.72,4.72,0,0,1,1.69,1.32,5.85,5.85,0,0,1,1,1.95,7.77,7.77,0,0,1,.34,2.33c0,.11,0,.22,0,.34s0,.23,0,.36h-8.3A3.4,3.4,0,0,0,202.75,325Zm4.66-3.84a4.8,4.8,0,0,0-.28-1.16,2.87,2.87,0,0,0-.58-.94,2.55,2.55,0,0,0-.86-.63,2.66,2.66,0,0,0-1.15-.24,2.62,2.62,0,0,0-2,.82,3.78,3.78,0,0,0-.95,2.15Z"/><path d="M212.73,327.6V312h2.61V327.6Z"/><path d="M228.16,312.63v15h-2.61v-15Z"/><path d="M51.29,334.89h18.4v5.39H57.57v3.46h11v5h-11v3.63H69.85v5.39H51.29Z"/><path d="M72.85,333.91h6.21v23.85H72.85Z"/><path d="M90.92,349v-.06c0-5.75,3.59-9.25,7.78-9.25a6.77,6.77,0,0,1,5.42,2.55v-8.33h6.21v23.85h-6.21V355.4a6.54,6.54,0,0,1-5.39,2.75C94.55,358.15,90.92,354.65,90.92,349Zm13.3-.06v-.07a3.63,3.63,0,1,0-7.22,0v.07a3.63,3.63,0,1,0,7.22,0Z"/><path d="M112.94,349v-.06c0-5.17,3.69-9.25,8.92-9.25,6.11,0,8.92,4.48,8.92,9.67,0,.39,0,.85,0,1.27H118.92a3.64,3.64,0,0,0,3.82,2.91,5.32,5.32,0,0,0,3.92-1.79l3.43,2.84a9.28,9.28,0,0,1-7.68,3.59C116.86,358.18,112.94,354.49,112.94,349Zm12-1.53c-.23-2-1.37-3.21-3.07-3.21s-2.74,1.28-3.07,3.21Z"/><path d="M132.08,355.54l2.32-3.76a11.49,11.49,0,0,0,6.08,2c1.08,0,1.57-.32,1.57-.94v-.07c0-.68-1-1-2.85-1.5-3.49-.92-6.27-2.09-6.27-5.65v-.07c0-3.76,3-5.85,7.09-5.85a13.83,13.83,0,0,1,7.29,2.06l-2.13,3.92a12,12,0,0,0-5.22-1.63c-1,0-1.44.36-1.44.85V345c0,.69,1,1,2.87,1.57,3.5,1,6.28,2.19,6.28,5.62v.07c0,3.88-2.91,5.91-7.22,5.91A14.29,14.29,0,0,1,132.08,355.54Z"/><path d="M149.49,349v-.06a9.19,9.19,0,0,1,9.48-9.22,8.35,8.35,0,0,1,7.54,4l-4.21,3.13A3.82,3.82,0,0,0,159,345a3.66,3.66,0,0,0-3.46,3.92v.07c0,2.28,1.44,4,3.53,4a4.22,4.22,0,0,0,3.39-1.82l4.15,3a8.75,8.75,0,0,1-7.87,4.05A9.13,9.13,0,0,1,149.49,349Z"/><path d="M168.67,351.65V340.08h6.21v9.58c0,1.92,1,3,2.51,3s2.58-1.05,2.58-3v-9.58h6.21v17.68H180v-2.42a6.49,6.49,0,0,1-5.29,2.81C170.93,358.15,168.67,355.67,168.67,351.65Z"/><path d="M195.72,355.6v2.16h-6.21V333.91h6.21v8.52a6.49,6.49,0,0,1,5.36-2.74c4.21,0,7.84,3.5,7.84,9.15v.06c0,5.75-3.63,9.25-7.81,9.25A6.63,6.63,0,0,1,195.72,355.6Zm7.09-6.66v-.07a3.63,3.63,0,1,0-7.22,0v.07a3.63,3.63,0,1,0,7.22,0Z"/><path d="M211.6,340.08h6.2v3.56c1-2.41,2.65-4,5.59-3.85v6.53h-.52c-3.24,0-5.07,1.86-5.07,5.95v5.49h-6.2Z"/><path d="M225.58,333.91h6.47v4.57h-6.47Zm.13,6.17h6.21v17.68h-6.21Z"/><path d="M235.38,340.08h6.21v2.42a6.47,6.47,0,0,1,5.26-2.81,5.41,5.41,0,0,1,5.09,2.88,7.44,7.44,0,0,1,5.92-2.88c3.75,0,6,2.35,6,6.47v11.6h-6.21v-9.61c0-1.93-.94-2.94-2.41-2.94s-2.55,1-2.55,2.94v9.61h-6.21v-9.61c0-1.93-1-2.94-2.42-2.94s-2.51,1-2.51,2.94v9.61h-6.21Z"/><path d="M267.1,333.91h6.47v4.57H267.1Zm.13,6.17h6.21v17.68h-6.21Z"/><path d="M276.18,349v-.06c0-5.17,3.69-9.25,8.92-9.25,6.11,0,8.92,4.48,8.92,9.67,0,.39,0,.85,0,1.27H282.16a3.65,3.65,0,0,0,3.82,2.91,5.32,5.32,0,0,0,3.92-1.79l3.43,2.84a9.27,9.27,0,0,1-7.67,3.59C280.1,358.18,276.18,354.49,276.18,349Zm12-1.53c-.23-2-1.38-3.21-3.08-3.21s-2.74,1.28-3.07,3.21Z"/><path d="M296.67,340.08h6.2v2.49a6.58,6.58,0,0,1,5.3-2.88c3.75,0,6,2.48,6,6.5v11.57H308v-9.58c0-1.92-1-3-2.48-3s-2.62,1.05-2.62,3v9.58h-6.2Z"/><path d="M318.46,352.27v-7.19h-2.09v-5h2.09v-4.47h6.2v4.47h4.12v5h-4.12v6c0,1.24.56,1.76,1.7,1.76a5.54,5.54,0,0,0,2.35-.58v4.86a8.85,8.85,0,0,1-4.31,1C320.68,358.12,318.46,356.48,318.46,352.27Z"/><path d="M330.25,349v-.06c0-5,4.12-9.25,9.8-9.25s9.74,4.15,9.74,9.18v.07c0,5-4.12,9.24-9.81,9.24S330.25,354,330.25,349Zm13.49,0v-.06a3.83,3.83,0,0,0-3.76-4,3.7,3.7,0,0,0-3.69,3.92v.07a3.83,3.83,0,0,0,3.76,4A3.7,3.7,0,0,0,343.74,349Z"/><g id="concept_1"><path class="cls-3" d="M345.59,167.75h-5.7a7.08,7.08,0,0,0-11.4-5.37,10.11,10.11,0,0,0-19.62.51l-.24,0a6.14,6.14,0,0,0-6,4.88h-3.08a3.71,3.71,0,0,0,0,7.42h46a3.71,3.71,0,0,0,0-7.42Z"/><path class="cls-3" d="M102.74,95.77a7.13,7.13,0,0,0-1.54.18,12.62,12.62,0,0,0-24.09-4.07,9.33,9.33,0,0,0-13.51,8.4,9.06,9.06,0,0,0,.22,2H57.66a3.71,3.71,0,0,0,0,7.42h45.08a6.95,6.95,0,1,0,0-13.89Z"/><path class="cls-3" d="M249.3,69.52a10.15,10.15,0,0,1,2.35.29,19.14,19.14,0,0,1,36.54-6.18,14.16,14.16,0,0,1,20.5,12.74,14.62,14.62,0,0,1-.32,3h9.34a5.63,5.63,0,0,1,0,11.26H249.3a10.55,10.55,0,0,1,0-21.09Z"/><polygon class="cls-4" points="93.49 180.43 102.95 55.66 146.31 34.27 154.63 37.76 195.2 27.72 230.13 27.72 246.28 34.27 242.78 49.55 243.66 77.09 260.4 73.12 267.67 77.09 288.44 84.42 286.05 93.64 286.05 123.76 296.65 121.58 304.64 128.38 311.33 136.42 307.88 144.71 311.33 220.23 93.49 216.72 93.49 180.43"/><polygon class="cls-5" points="102.58 60.53 143.16 42.78 156.04 46.49 197.51 32.74 227.57 32.74 245.05 39.65 246.28 34.27 230.13 27.72 195.2 27.72 154.63 37.76 146.31 34.27 102.95 55.66 102.58 60.53"/><polygon class="cls-5" points="243.66 77.09 243.66 80.76 259.5 77.09 266.66 80.76 287.24 89.07 288.44 84.42 267.67 77.09 260.4 73.12 243.66 77.09"/><polygon class="cls-5" points="286.05 123.76 286.05 129.22 296 126.49 304.29 133.16 311.33 136.42 304.64 128.38 296.65 121.58 286.05 123.76"/><polygon class="cls-6" points="245.05 39.65 242.78 49.55 243.66 80.76 242.41 110.17 236.58 81.09 236.58 58.66 232.66 44.13 223.49 39.65 197.51 32.74 227.57 32.74 245.05 39.65"/><polygon class="cls-6" points="287.24 89.07 286.05 93.64 286.05 129.22 286.05 148.02 281.05 118.54 284.14 95.42 266.66 80.76 287.24 89.07"/><polygon class="cls-6" points="296 126.49 302.06 136.42 300.07 148.02 304.29 149.59 302.72 163.74 309.47 179.44 307.88 144.71 311.33 136.42 304.29 133.16 296 126.49"/><polygon class="cls-6" points="214.28 65.73 212.53 81.09 216.87 97.04 214.28 123.97 212.53 97.04 203.84 84.42 214.28 65.73"/><polygon class="cls-6" points="125.05 65.73 125.05 81.09 115.66 119.21 118.06 84.42 125.05 65.73"/><polygon class="cls-6" points="258.31 101.09 266.05 109.66 263.42 119.21 266.05 144.81 258.31 121.58 262.18 110.17 258.31 101.09"/><polygon class="cls-6" points="214.28 65.73 218.62 52.3 210.36 44.13 192.59 40.63 207.12 48.27 214.28 65.73"/><polygon class="cls-5" points="163.98 58.66 130.46 110.17 197.51 110.17 163.98 58.66"/><polygon class="cls-5" points="163.98 77.09 113.69 154.37 214.28 154.37 163.98 77.09"/><path class="cls-5" d="M156.27,116.65,108.4,190.19a9.21,9.21,0,0,0,7.71,14.23h95.74a9.21,9.21,0,0,0,7.72-14.23L171.7,116.65A9.2,9.2,0,0,0,156.27,116.65Z"/><path class="cls-5" d="M137.2,185.75c-23.85,7.34-57.6,26.41-55,39.87C88.44,258,304.55,255.09,308.32,230c2.05-13.64-58.65-33.39-87.31-40.45C192.12,182.42,167,176.57,137.2,185.75Z"/><polygon class="cls-5" points="91.52 128.38 70.13 161.24 112.91 161.24 91.52 128.38"/><polygon class="cls-5" points="91.52 140.13 59.43 189.44 123.61 189.44 91.52 140.13"/><path class="cls-5" d="M86.59,165.37,56.05,212.3A5.88,5.88,0,0,0,61,221.38h61.09A5.87,5.87,0,0,0,127,212.3L96.44,165.37A5.88,5.88,0,0,0,86.59,165.37Z"/><polygon class="cls-5" points="248.96 133.16 227.57 166.03 270.35 166.03 248.96 133.16"/><polygon class="cls-5" points="248.96 144.92 216.87 194.23 281.05 194.23 248.96 144.92"/><path class="cls-5" d="M244,170.16l-30.55,46.93a5.87,5.87,0,0,0,4.93,9.07H279.5a5.87,5.87,0,0,0,4.92-9.07l-30.54-46.93A5.87,5.87,0,0,0,244,170.16Z"/><polygon class="cls-5" points="290.62 159.5 274.65 184.04 306.6 184.04 290.62 159.5"/><polygon class="cls-5" points="290.62 168.28 266.66 205.1 314.59 205.1 290.62 168.28"/><path class="cls-5" d="M287,187.13l-22.81,35.05a4.39,4.39,0,0,0,3.67,6.78h45.63a4.39,4.39,0,0,0,3.67-6.78L294.3,187.13A4.38,4.38,0,0,0,287,187.13Z"/><polygon class="cls-5" points="316.08 185.13 304.29 203.25 327.87 203.25 316.08 185.13"/><polygon class="cls-5" points="316.08 191.62 298.39 218.79 333.77 218.79 316.08 191.62"/><path class="cls-5" d="M313.37,205.53l-16.84,25.86a3.24,3.24,0,0,0,2.72,5h33.67a3.24,3.24,0,0,0,2.71-5L318.8,205.53A3.23,3.23,0,0,0,313.37,205.53Z"/><path class="cls-7" d="M313.17,250.49h0a9.8,9.8,0,0,0-9.79-9.79H91.62a9.79,9.79,0,0,0-9.79,9.79h0a9.79,9.79,0,0,0,9.79,9.79h39.29a9.79,9.79,0,0,1,9.79,9.79h0a9.79,9.79,0,0,1-9.79,9.79h-3.09a9.79,9.79,0,0,0-9.79,9.79h0a9.79,9.79,0,0,0,9.79,9.79H280.14a9.79,9.79,0,0,0,9.79-9.79h0a9.79,9.79,0,0,0-9.79-9.79H265.39a9.79,9.79,0,0,1-9.79-9.79h0a9.79,9.79,0,0,1,9.79-9.79h38A9.79,9.79,0,0,0,313.17,250.49Z"/><polygon class="cls-8" points="113.69 134.86 92.45 167.49 134.93 167.49 113.69 134.86"/><polygon class="cls-8" points="113.69 146.54 81.82 195.5 145.55 195.5 113.69 146.54"/><path class="cls-8" d="M108.8,171.6,78.47,218.2a5.83,5.83,0,0,0,4.89,9H144a5.83,5.83,0,0,0,4.89-9l-30.33-46.6A5.83,5.83,0,0,0,108.8,171.6Z"/><polygon class="cls-8" points="274.65 139.95 258.31 165.05 290.99 165.05 274.65 139.95"/><polygon class="cls-8" points="274.65 148.93 250.14 186.59 299.16 186.59 274.65 148.93"/><path class="cls-8" d="M270.89,168.21l-23.33,35.84a4.49,4.49,0,0,0,3.76,6.94H298a4.49,4.49,0,0,0,3.76-6.94l-23.33-35.84A4.49,4.49,0,0,0,270.89,168.21Z"/><polygon class="cls-8" points="160.17 127.19 143.84 152.28 176.51 152.28 160.17 127.19"/><polygon class="cls-8" points="160.17 136.17 135.66 173.82 184.68 173.82 160.17 136.17"/><path class="cls-8" d="M156.41,155.44l-23.32,35.84a4.49,4.49,0,0,0,3.76,6.94H183.5a4.49,4.49,0,0,0,3.76-6.94l-23.33-35.84A4.49,4.49,0,0,0,156.41,155.44Z"/><polygon class="cls-8" points="306.6 181.57 295.96 197.92 317.24 197.92 306.6 181.57"/><polygon class="cls-8" points="306.6 187.42 290.63 211.94 322.56 211.94 306.6 187.42"/><path class="cls-8" d="M304.15,200,289,223.32a2.91,2.91,0,0,0,2.44,4.51h30.39a2.92,2.92,0,0,0,2.45-4.51L309.05,200A2.92,2.92,0,0,0,304.15,200Z"/><path class="cls-9" d="M194.7,207.77a7.21,7.21,0,0,1,7.88-9.05,3.9,3.9,0,0,1,2.88-3.67l.17,0a7.67,7.67,0,0,1-.57-1.45,7.24,7.24,0,0,1,13.61-4.8,5.4,5.4,0,0,1,2-1,5.66,5.66,0,0,1,1.47-.16l.19-.1.59-.23a3.45,3.45,0,0,1,1.91-4c.09,0,.18-.06.27-.09A6.06,6.06,0,0,1,236.39,179c.07.15.13.31.19.46a5.11,5.11,0,0,1,9,3.71h.09a5.35,5.35,0,0,1,2.16.45,7.23,7.23,0,1,1,14.21,2.66l.17,0a3.9,3.9,0,0,1,3.73,2.8,7.23,7.23,0,0,1,9.2,9.93,5.26,5.26,0,0,1,1.47,1.09,4.7,4.7,0,0,1,7.92,4.54l.21.08a2.69,2.69,0,0,1,1.49,3.09c.15.06.31.11.46.18a6.29,6.29,0,0,1-2.33,12h0l-9.73,9H206c-2.17-.18-10.8-10.7-11.39-12.92a5.27,5.27,0,0,1,1.64-5.35A7.27,7.27,0,0,1,194.7,207.77Z"/><path class="cls-9" d="M54.51,228.51a7.24,7.24,0,0,1,5.12-8.86,7,7,0,0,1,2.76-.19,3.91,3.91,0,0,1,2.88-3.67l.17,0a8,8,0,0,1-.57-1.46,7.24,7.24,0,0,1,13.61-4.8,5.29,5.29,0,0,1,3.44-1.16l.19-.09a6.07,6.07,0,0,1,.59-.24,3.45,3.45,0,0,1,1.91-4l.27-.09a6.06,6.06,0,0,1,11.32-4.21c.07.15.13.3.19.45a5,5,0,0,1,1.77-1.35,5.11,5.11,0,0,1,7.25,5.07h.09a5.35,5.35,0,0,1,2.16.45A7.23,7.23,0,1,1,121.87,207H122a3.89,3.89,0,0,1,3.73,2.79,7.23,7.23,0,0,1,9.2,9.93,5.26,5.26,0,0,1,1.47,1.09,4.7,4.7,0,0,1,7.92,4.55l.21.07a2.69,2.69,0,0,1,1.49,3.09l.46.19a6.28,6.28,0,0,1-2.33,12H59.13v0a5.27,5.27,0,0,1-3-9.24A7.2,7.2,0,0,1,54.51,228.51Z"/><path class="cls-9" d="M121.87,211.3a5.59,5.59,0,0,1,3.95-6.85,5.77,5.77,0,0,1,2.14-.15,3,3,0,0,1,2.22-2.82.61.61,0,0,1,.13,0,5.8,5.8,0,0,1-.44-1.12,5.59,5.59,0,0,1,10.51-3.71,4.41,4.41,0,0,1,1.53-.77,4,4,0,0,1,1.13-.12l.14-.08c.15-.07.31-.12.46-.18a2.68,2.68,0,0,1,1.47-3.07l.22-.07a4.68,4.68,0,0,1,8.74-3.26,3.19,3.19,0,0,1,.14.35,4,4,0,0,1,6.63.9,3.92,3.92,0,0,1,.35,2h.06a4.06,4.06,0,0,1,1.67.35,5.59,5.59,0,0,1,11.11.85,5.88,5.88,0,0,1-.13,1.2H174a3,3,0,0,1,2.88,2.16,5.47,5.47,0,0,1,2.1-.42,5.6,5.6,0,0,1,5.59,5.6,5.5,5.5,0,0,1-.59,2.49,4.11,4.11,0,0,1,1.14.84,3.63,3.63,0,0,1,6.12,3.51,1,1,0,0,1,.16.06,2.08,2.08,0,0,1,1.15,2.39,2.13,2.13,0,0,1,.35.14,4.86,4.86,0,0,1-1.79,9.26h-65.7v0a4.08,4.08,0,0,1-2.36-7.14A5.57,5.57,0,0,1,121.87,211.3Z"/><path class="cls-9" d="M263.22,231.72a5.59,5.59,0,0,1,3.95-6.85,5.77,5.77,0,0,1,2.14-.15,3,3,0,0,1,2.22-2.83l.13,0a6.06,6.06,0,0,1-.44-1.12A5.59,5.59,0,0,1,281.73,217a4.09,4.09,0,0,1,1.53-.77,4,4,0,0,1,1.13-.12l.14-.08a4.37,4.37,0,0,1,.46-.18,2.67,2.67,0,0,1,1.48-3.07,1.8,1.8,0,0,1,.21-.08,4.68,4.68,0,0,1,8.74-3.25,2.55,2.55,0,0,1,.14.35,4.21,4.21,0,0,1,1.37-1.05,4,4,0,0,1,5.26,2,3.9,3.9,0,0,1,.35,2h.06a4.19,4.19,0,0,1,1.67.35,5.59,5.59,0,0,1,11.11.86,6,6,0,0,1-.13,1.2h.13a3,3,0,0,1,2.88,2.15,5.65,5.65,0,0,1,2.1-.41,5.59,5.59,0,0,1,5.59,5.59,5.47,5.47,0,0,1-.59,2.49,4.19,4.19,0,0,1,1.15.85,3.63,3.63,0,0,1,6.11,3.51,1,1,0,0,1,.16.06,2.05,2.05,0,0,1,1.15,2.38l.36.15a4.85,4.85,0,0,1-1.8,9.25h-65.7v0a4.06,4.06,0,0,1-2.35-7.13A5.54,5.54,0,0,1,263.22,231.72Z"/><path class="cls-10" d="M245.15,233.59a4.47,4.47,0,0,1,3.16-5.48A4.53,4.53,0,0,1,250,228a2.4,2.4,0,0,1,1.78-2.26l.11,0a4.47,4.47,0,1,1,8.06-3.87,3.42,3.42,0,0,1,1.22-.61,3.14,3.14,0,0,1,.91-.1l.11-.06c.12-.06.24-.1.37-.15a2.13,2.13,0,0,1,1.18-2.46l.17-.06a3.74,3.74,0,0,1,7-2.6c0,.09.08.19.11.28a3.08,3.08,0,0,1,1.1-.84,3.17,3.17,0,0,1,4.21,1.56,3.13,3.13,0,0,1,.28,1.58h.05a3.3,3.3,0,0,1,1.33.28,4.48,4.48,0,0,1,8.9.69,4.35,4.35,0,0,1-.11,1h.11a2.42,2.42,0,0,1,2.31,1.72,4.47,4.47,0,0,1,5.68,6.14,3.24,3.24,0,0,1,.91.68,2.91,2.91,0,0,1,4.9,2.81l.13.05a1.66,1.66,0,0,1,.92,1.91l.28.11a3.89,3.89,0,0,1-1.44,7.42H248v0a3.26,3.26,0,0,1-1.88-5.71A4.35,4.35,0,0,1,245.15,233.59Z"/><path class="cls-10" d="M136.39,233.59a4.46,4.46,0,0,0-3.16-5.48,4.52,4.52,0,0,0-1.71-.12,2.4,2.4,0,0,0-1.78-2.26l-.1,0a5.1,5.1,0,0,0,.35-.9,4.48,4.48,0,0,0-8.42-3,3.42,3.42,0,0,0-1.22-.61,3.07,3.07,0,0,0-.9-.1l-.12-.06-.36-.15a2.15,2.15,0,0,0-1.19-2.46l-.17-.06a3.74,3.74,0,0,0-7-2.6c0,.09-.08.19-.11.28a3.08,3.08,0,0,0-1.1-.84,3.17,3.17,0,0,0-4.21,1.56,3.12,3.12,0,0,0-.27,1.58h0a3.31,3.31,0,0,0-1.34.28,4.48,4.48,0,0,0-8.9.69,4.35,4.35,0,0,0,.11,1h-.11a2.41,2.41,0,0,0-2.3,1.72,4.47,4.47,0,0,0-6.16,4.15,4.42,4.42,0,0,0,.47,2,3.38,3.38,0,0,0-.91.68,2.91,2.91,0,0,0-4.9,2.81l-.13.05a1.66,1.66,0,0,0-.92,1.91l-.28.11a3.89,3.89,0,0,0,1.44,7.42h52.6v0a3.26,3.26,0,0,0,1.88-5.71A4.35,4.35,0,0,0,136.39,233.59Z"/><path class="cls-10" d="M179.68,224.68a4.46,4.46,0,0,0-4.88-5.6,2.41,2.41,0,0,0-1.78-2.27l-.1,0a5.1,5.1,0,0,0,.35-.9,4.47,4.47,0,0,0-8.41-3,3.28,3.28,0,0,0-1.22-.62,3.58,3.58,0,0,0-.91-.1l-.12-.06-.36-.15a2.14,2.14,0,0,0-1.18-2.46l-.18-.06a3.74,3.74,0,0,0-7-2.6c0,.09-.07.19-.11.28a3.38,3.38,0,0,0-1.09-.84,3.19,3.19,0,0,0-4.22,1.56,3.23,3.23,0,0,0-.27,1.58h0a3.49,3.49,0,0,0-1.34.28,4.48,4.48,0,0,0-8.9.69,4.35,4.35,0,0,0,.11,1h-.11a2.41,2.41,0,0,0-2.3,1.73,4.47,4.47,0,0,0-5.69,6.14,3.35,3.35,0,0,0-.91.67,2.9,2.9,0,0,0-4.89,2.81l-.14.05a1.66,1.66,0,0,0-.92,1.91c-.09,0-.19.07-.28.12a3.89,3.89,0,0,0,1.44,7.41h52.6v0a3.25,3.25,0,0,0,1.88-5.71A4.45,4.45,0,0,0,179.68,224.68Z"/><rect class="cls-11" x="127.76" y="240.62" width="149.3" height="12.31" rx="3.52"/><path class="cls-12" d="M173,203.65c-5.46-16.9-12.87-52.31-12.87-52.31s-7.4,35.41-12.86,52.31-19.55,43.13-19.55,43.13,12.1-2.54,32.41-2.54,32.42,2.54,32.42,2.54S178.49,220.54,173,203.65Z"/><path class="cls-13" d="M244.64,151.34s-6.09,2.54-37.74,2.54-46.73-2.54-46.73-2.54S165,179,173,203.65c5.5,16.87,19.55,43.13,19.55,43.13a353.7,353.7,0,0,1,41.16-2.32,420.75,420.75,0,0,1,43.31,2.32s-13.78-26.35-19.55-43.13C249.24,179.64,244.64,151.34,244.64,151.34Z"/><path class="cls-14" d="M149.44,244.49c3.26-.15,6.84-.25,10.73-.25s7.48.1,10.74.25l-10.74-49Z"/><path class="cls-14" d="M127.76,247.65a.87.87,0,0,1-.86-.73l-2.06-12.13a.87.87,0,0,1,1.72-.3l2.06,12.14a.87.87,0,0,1-.71,1Z"/><path class="cls-14" d="M192.59,247.65h-.15a.87.87,0,0,1-.71-1l2.05-12.14a.88.88,0,0,1,1.73.3l-2.06,12.13A.87.87,0,0,1,192.59,247.65Z"/><path class="cls-14" d="M277.06,247.65h-.15a.87.87,0,0,1-.71-1l2.05-12.14a.88.88,0,0,1,1.73.3l-2.06,12.13A.87.87,0,0,1,277.06,247.65Z"/></g><path d="M205.93,195.87l.52-.58c7.49-.65,10.14-2.39,10.14-5.17v-.06c0-2.2-1.75-3.55-4.85-3.55s-6.39,1.55-9.42,4.26l-6.46-8.53a22.71,22.71,0,0,1,16.72-6.78c9.5,0,16.15,5.17,16.15,13.56v.13c0,8.14-5.43,11.63-12.6,13.37l-.77,4.13h-7.81Zm-1,14.53h12.72v11H204.9Z"/></g></g></svg>