<svg xmlns="http://www.w3.org/2000/svg" xmlns:xlink="http://www.w3.org/1999/xlink" viewBox="0 0 400 400"><defs><style>.cls-1{fill:none;}.cls-2{isolation:isolate;}.cls-3{fill:url(#linear-gradient);}.cls-4{fill:#5f8417;}.cls-5{fill:#345f41;}.cls-6{fill:#8e725e;}.cls-7{fill:#27ae60;}.cls-24,.cls-25,.cls-8{mix-blend-mode:screen;}.cls-9{fill:#2ecc71;}.cls-10{fill:#a5c63b;}.cls-11{fill:#8eb021;}.cls-12,.cls-29{fill:#d6e6ea;}.cls-13{fill:#72bbcc;}.cls-14{fill:#68a8ba;}.cls-15{fill:#c5d5d8;}.cls-16{fill:#3a6f81;}.cls-17{fill:url(#linear-gradient-2);}.cls-18{fill:url(#linear-gradient-3);}.cls-19{fill:url(#linear-gradient-5);}.cls-20{fill:url(#linear-gradient-6);}.cls-21{fill:url(#linear-gradient-7);}.cls-22{fill:#a3bbc1;}.cls-23{fill:#bad2d8;}.cls-24{fill:#ffeb99;opacity:0.3;}.cls-25{fill:#ffe164;opacity:0.5;}.cls-26{fill:#ffcd02;}.cls-27{fill:#97d6ef;}.cls-28{fill:#fff;}.cls-29{mix-blend-mode:multiply;}.cls-30{fill:#394c81;}.cls-31{fill:#d35400;}.cls-32{fill:#34495e;}.cls-33{fill:#3498db;}.cls-34{fill:#e74c3c;}.cls-35{clip-path:url(#clip-path);}.cls-36{fill:url(#linear-gradient-8);}</style><linearGradient id="linear-gradient" y1="200.39" x2="400.78" y2="200.39" gradientUnits="userSpaceOnUse"><stop offset="0" stop-color="#f8a03f"/><stop offset="1" stop-color="#ed7a23"/></linearGradient><linearGradient id="linear-gradient-2" x1="95.9" y1="228.19" x2="112.82" y2="228.19" gradientUnits="userSpaceOnUse"><stop offset="0" stop-color="#4d4e4e"/><stop offset="1" stop-color="#221f1f"/></linearGradient><linearGradient id="linear-gradient-3" x1="299.31" y1="228.19" x2="316.45" y2="228.19" xlink:href="#linear-gradient-2"/><linearGradient id="linear-gradient-5" x1="83.47" y1="231.5" x2="91.29" y2="231.5" xlink:href="#linear-gradient-2"/><linearGradient id="linear-gradient-6" x1="66.14" y1="258.98" x2="346.09" y2="258.98" xlink:href="#linear-gradient-2"/><linearGradient id="linear-gradient-7" x1="319.95" y1="231.21" x2="327.79" y2="231.21" xlink:href="#linear-gradient-2"/><clipPath id="clip-path"><circle id="SVGID" class="cls-1" cx="206.14" cy="168.98" r="63.18"/></clipPath><linearGradient id="linear-gradient-8" x1="85.1" y1="168.57" x2="280.9" y2="168.57" xlink:href="#linear-gradient"/></defs><title>NIVEL 2 copy</title><g class="cls-2"><g id="Ñëîé_1" data-name="Ñëîé 1"><rect class="cls-3" width="400.78" height="400.78"/><path class="cls-4" d="M342,196.58H251.79v12.33H354.35A12.32,12.32,0,0,0,342,196.58Z"/><path class="cls-5" d="M272,187a5.69,5.69,0,0,1,4-7,5.58,5.58,0,0,1,2.18-.15,3.07,3.07,0,0,1,2.27-2.89l.13,0a6.11,6.11,0,0,1-.45-1.15A5.7,5.7,0,0,1,290.87,172a4.38,4.38,0,0,1,1.55-.79,4.2,4.2,0,0,1,1.16-.12l.15-.08.46-.19a2.73,2.73,0,0,1,1.51-3.13l.22-.08a4.77,4.77,0,0,1,8.92-3.31,3.65,3.65,0,0,1,.14.35,3.91,3.91,0,0,1,1.4-1.06,4,4,0,0,1,5.36,2,4,4,0,0,1,.36,2h.06a4.25,4.25,0,0,1,1.71.35,5.7,5.7,0,0,1,11.33.87,6.18,6.18,0,0,1-.13,1.23h.13a3.07,3.07,0,0,1,2.94,2.2,5.7,5.7,0,0,1,7.25,7.82,4.12,4.12,0,0,1,1.16.86,3.71,3.71,0,0,1,6.24,3.59l.17,0a2.13,2.13,0,0,1,1.17,2.44l.36.15a4.95,4.95,0,0,1-1.83,9.44h-67v0a4.15,4.15,0,0,1-2.4-7.28A5.64,5.64,0,0,1,272,187Z"/><path class="cls-6" d="M317.84,199.28a2.53,2.53,0,0,0,2.53-2.53V165.81a2.54,2.54,0,1,0-5.07,0v30.94A2.54,2.54,0,0,0,317.84,199.28Z"/><circle class="cls-7" cx="316.94" cy="164.32" r="15.47" transform="translate(-38.69 133.02) rotate(-22.37)"/><g class="cls-8"><path class="cls-9" d="M319.43,155.15a1.28,1.28,0,0,0,1.23-1,1.26,1.26,0,0,0-.94-1.52,11.75,11.75,0,0,0-2.78-.33,1.27,1.27,0,1,0,0,2.53,9.44,9.44,0,0,1,2.19.26A1.54,1.54,0,0,0,319.43,155.15Z"/></g><g class="cls-8"><path class="cls-9" d="M316.94,176.33a12,12,0,0,0,6.6-22,1.27,1.27,0,0,0-1.4,2.12,9.46,9.46,0,0,1-5.2,17.37,1.27,1.27,0,1,0,0,2.54Z"/></g><path class="cls-6" d="M294.75,199.28a2.54,2.54,0,0,0,2.54-2.53V143.38a2.54,2.54,0,0,0-5.07,0v53.37A2.53,2.53,0,0,0,294.75,199.28Z"/><circle class="cls-9" cx="294.76" cy="143.38" r="25.18"/><g class="cls-8"><path class="cls-9" d="M301.52,163.94a1.23,1.23,0,0,0,.42-.07,21.71,21.71,0,0,0-7.18-42.2,1.27,1.27,0,1,0,0,2.53,19.18,19.18,0,0,1,6.34,37.28,1.27,1.27,0,0,0,.42,2.46Z"/></g><g class="cls-8"><path class="cls-9" d="M294.76,165.09a21.83,21.83,0,0,0,3.43-.27,1.27,1.27,0,0,0-.4-2.5,19.24,19.24,0,0,1-3,.24,1.27,1.27,0,1,0,0,2.53Z"/></g><path class="cls-6" d="M294.76,181.07a1.17,1.17,0,0,0,.47-.1l14.23-5.75a1.27,1.27,0,1,0-.95-2.35l-14.23,5.75a1.27,1.27,0,0,0,.48,2.45Z"/><circle class="cls-9" cx="308.98" cy="174.05" r="6.28"/><path class="cls-7" d="M299.8,133.21a2.91,2.91,0,1,1,2.91,2.91A2.9,2.9,0,0,1,299.8,133.21Z"/><path class="cls-7" d="M282.23,136.12a2.91,2.91,0,1,1,2.91,2.91A2.91,2.91,0,0,1,282.23,136.12Z"/><path class="cls-7" d="M299,152.88a2.91,2.91,0,1,1,2.91,2.91A2.9,2.9,0,0,1,299,152.88Z"/><path class="cls-10" d="M295.07,173.26a12.83,12.83,0,1,0-12.83,12.83A12.84,12.84,0,0,0,295.07,173.26Z"/><path class="cls-6" d="M282.24,200.42a1.14,1.14,0,0,1-1.14-1.14v-26a1.14,1.14,0,0,1,2.27,0v26A1.14,1.14,0,0,1,282.24,200.42Z"/><path class="cls-11" d="M327.46,153.1l-9.66,17.37a1.31,1.31,0,0,0,1.14,1.94h19.32a1.3,1.3,0,0,0,1.13-1.94l-9.65-17.37A1.31,1.31,0,0,0,327.46,153.1Z"/><path class="cls-6" d="M328.6,200.42a1.14,1.14,0,0,1-1.14-1.14V178.74a1.14,1.14,0,1,1,2.27,0v20.54A1.14,1.14,0,0,1,328.6,200.42Z"/><path class="cls-11" d="M327.46,163.84,315.68,185a1.3,1.3,0,0,0,1.13,1.94h23.57a1.31,1.31,0,0,0,1.14-1.94l-11.78-21.19A1.31,1.31,0,0,0,327.46,163.84Z"/><polygon class="cls-12" points="119.16 139.37 130.87 139.37 116.2 104.87 107.58 134.18 104.36 138.92 110.94 144.04 119.16 139.37"/><polygon class="cls-13" points="184.98 183.22 151.46 151.48 143.14 137.39 132.32 142.79 130.87 139.37 119.16 139.37 110.94 144.04 104.36 138.92 74.39 183.22 184.98 183.22"/><polygon class="cls-14" points="112.78 150.13 120.01 148.24 120.01 156.53 129.69 172.4 114.35 161.92 112.78 150.13"/><polygon class="cls-15" points="117.61 119.58 119.16 139.37 126.81 139.37 117.61 119.58"/><polygon class="cls-12" points="75.39 161.99 87 168.42 83.48 159.93 74.09 145.71 65.63 160.36 71.05 165.78 75.39 161.99"/><path class="cls-14" d="M97.1,172.82,85.73,158.21l-2.25,1.72L87,168.42,75.39,162l-4.34,3.78-5.42-5.41L54.5,179.64a2.39,2.39,0,0,0,2.07,3.58h56.21Z"/><path class="cls-12" d="M103.87,171.13c-.28,2,1.61,3,1.14,4.53-1,3.33-11.63,4.07-12.85,1.32-.51-1.16,1-2.2.57-3.59s-2.11-2-4.31-2.36l8.5-8.49a2.1,2.1,0,0,1,3,0l5.88,5.88A4.36,4.36,0,0,0,103.87,171.13Z"/><path class="cls-16" d="M73,186.47l8.29-8.29L88.42,171c2.2.4,3.93,1.11,4.31,2.36s-1.08,2.43-.57,3.59c1.22,2.75,11.83,2,12.85-1.32.47-1.53-1.42-2.56-1.14-4.53a4.36,4.36,0,0,1,1.9-2.71l11.79,11.79a2.11,2.11,0,0,0,3,0l5.92-5.92a2.11,2.11,0,0,1,3,0l15.88,15.89,10.45,11.17a2.11,2.11,0,0,1-1.54,3.55H116.28a2.11,2.11,0,0,1-1.48-3.6l.45-.45a2.1,2.1,0,0,0-1.49-3.59h-32a2.11,2.11,0,0,1-1.49-3.6,2.1,2.1,0,0,0-1.49-3.59h-4.3A2.11,2.11,0,0,1,73,186.47Z"/><path class="cls-17" d="M104.36,219.73a8.46,8.46,0,1,0,8.46,8.46A8.46,8.46,0,0,0,104.36,219.73Zm0,12.26a3.8,3.8,0,1,1,3.8-3.8A3.8,3.8,0,0,1,104.36,232Z"/><path class="cls-18" d="M314.67,236.76a1.76,1.76,0,0,1-1.26-.52l-13.58-13.58a1.77,1.77,0,0,1,0-2.52,1.79,1.79,0,0,1,2.52,0l13.58,13.58a1.78,1.78,0,0,1-1.26,3Z"/><path class="cls-18" d="M301.09,236.76a1.78,1.78,0,0,1-1.26-3l13.58-13.58a1.78,1.78,0,1,1,2.52,2.52l-13.58,13.58A1.78,1.78,0,0,1,301.09,236.76Z"/><path class="cls-19" d="M85.26,234a1.78,1.78,0,0,1-.63-3.45,44.31,44.31,0,0,1,4.44-1.39,1.79,1.79,0,0,1,2.16,1.29A1.76,1.76,0,0,1,90,232.56c-1.42.37-2.79.8-4.07,1.27A1.75,1.75,0,0,1,85.26,234Z"/><path class="cls-20" d="M305.38,284.93h-8.74a1.78,1.78,0,1,1,0-3.56h8.74a1.78,1.78,0,1,1,0,3.56Zm-15.74,0H280.9a1.78,1.78,0,1,1,0-3.56h8.74a1.78,1.78,0,1,1,0,3.56Zm-15.74,0h-8.75a1.78,1.78,0,1,1,0-3.56h8.75a1.78,1.78,0,1,1,0,3.56Zm-15.74,0h-8.75a1.78,1.78,0,1,1,0-3.56h8.75a1.78,1.78,0,0,1,0,3.56Zm-15.74,0h-8.75a1.78,1.78,0,1,1,0-3.56h8.75a1.78,1.78,0,1,1,0,3.56Zm-15.74,0h-8.75a1.78,1.78,0,1,1,0-3.56h8.75a1.78,1.78,0,1,1,0,3.56Zm-15.75,0h-8.74a1.78,1.78,0,1,1,0-3.56h8.74a1.78,1.78,0,1,1,0,3.56Zm-15.74,0h-8.74a1.78,1.78,0,1,1,0-3.56h8.74a1.78,1.78,0,1,1,0,3.56Zm-15.74,0h-8.74a1.78,1.78,0,1,1,0-3.56h8.74a1.78,1.78,0,1,1,0,3.56Zm-15.74,0H155a1.78,1.78,0,1,1,0-3.56h8.74a1.78,1.78,0,1,1,0,3.56Zm-15.74,0h-8.75a1.78,1.78,0,1,1,0-3.56H148a1.78,1.78,0,1,1,0,3.56Zm-15.74,0h-8.75a1.78,1.78,0,1,1,0-3.56h8.75a1.78,1.78,0,1,1,0,3.56Zm-15.74,0h-8.75a1.78,1.78,0,1,1,0-3.56h8.75a1.78,1.78,0,1,1,0,3.56Zm-15.74-.1h-.11a53.94,53.94,0,0,1-8.94-1.26,1.78,1.78,0,0,1,.8-3.47,51.33,51.33,0,0,0,8.36,1.18,1.78,1.78,0,0,1-.11,3.56Zm211.62-.06a1.78,1.78,0,0,1-.13-3.56,50.22,50.22,0,0,0,8.32-1.32,1.78,1.78,0,1,1,.87,3.45,52.26,52.26,0,0,1-8.92,1.42ZM85.44,281.49a1.8,1.8,0,0,1-.68-.14,35,35,0,0,1-8-4.55A1.78,1.78,0,0,1,79,274a31.88,31.88,0,0,0,7.18,4.09,1.78,1.78,0,0,1-.69,3.43Zm242.17-.35a1.78,1.78,0,0,1-.72-3.41,31.59,31.59,0,0,0,7.05-4.27,1.78,1.78,0,0,1,2.25,2.76,34.36,34.36,0,0,1-7.86,4.76A1.71,1.71,0,0,1,327.61,281.14ZM72.9,272.27a1.79,1.79,0,0,1-1.41-.68,25.44,25.44,0,0,1-4.3-8.29,1.78,1.78,0,1,1,3.41-1,21.62,21.62,0,0,0,3.71,7.13,1.78,1.78,0,0,1-1.41,2.87Zm267-.7a1.78,1.78,0,0,1-1.45-2.82,21.62,21.62,0,0,0,3.44-7.26,1.78,1.78,0,0,1,3.45.9,25.09,25.09,0,0,1-4,8.44A1.76,1.76,0,0,1,339.87,271.57ZM67.92,257.67h0a1.78,1.78,0,0,1-1.77-1.79,28.48,28.48,0,0,1,1.5-9.17A1.78,1.78,0,0,1,71,247.88a25,25,0,0,0-1.31,8A1.78,1.78,0,0,1,67.92,257.67Zm276.38-.88a1.78,1.78,0,0,1-1.77-1.72,24.08,24.08,0,0,0-1.6-7.94,1.78,1.78,0,0,1,3.31-1.31,27.28,27.28,0,0,1,1.84,9.13,1.78,1.78,0,0,1-1.71,1.84ZM72.58,242.92a1.77,1.77,0,0,1-1.42-2.85A26.15,26.15,0,0,1,78,233.76a1.78,1.78,0,0,1,1.93,3,22.78,22.78,0,0,0-6,5.45A1.77,1.77,0,0,1,72.58,242.92Zm266.49-.67a1.78,1.78,0,0,1-1.39-.66,23.59,23.59,0,0,0-6.15-5.25,1.78,1.78,0,0,1,1.84-3.05,27.1,27.1,0,0,1,7.07,6.05,1.78,1.78,0,0,1-1.37,2.91Z"/><path class="cls-21" d="M326,233.61a1.69,1.69,0,0,1-.58-.1,40.32,40.32,0,0,0-4.11-1.18,1.78,1.78,0,0,1,.82-3.47c1.55.37,3,.8,4.46,1.29a1.78,1.78,0,0,1-.59,3.46Z"/><path class="cls-22" d="M312.35,292.86a4.5,4.5,0,0,1-2.05-.48c-.2-.11-.2-.11-51.06-32.63l-50.66,32.4a4.55,4.55,0,0,1-4.88,0L153,259.75l-50.67,32.4a4.47,4.47,0,0,1-2.44.71,4.53,4.53,0,0,1-4-6.75l41-73a4.69,4.69,0,0,1,1.51-1.59l32.59-20.85a4.56,4.56,0,0,1,4.89,0L206.14,210l30.15-19.28a4.55,4.55,0,0,1,4.88,0l32.59,20.85a4.51,4.51,0,0,1,1.51,1.59l41,73a4.52,4.52,0,0,1-3.95,6.75Z"/><polygon class="cls-23" points="173.55 194.53 153.03 254.37 153.03 254.37 206.14 288.33 206.14 215.38 173.55 194.53"/><path class="cls-12" d="M173.55,194.53,141,215.37l-23.87,42.46-17.16,30.5,53.11-34,20.52-59.84Z"/><polygon class="cls-12" points="238.73 194.53 206.14 215.38 206.14 288.33 259.24 254.37 238.73 194.53 238.73 194.53"/><polygon class="cls-23" points="312.35 288.33 271.32 215.38 238.73 194.53 259.24 254.37 259.24 254.37 312.35 288.33"/><circle class="cls-24" cx="232.95" cy="85.19" r="25.82"/><circle class="cls-25" cx="232.95" cy="85.19" r="17.88"/><circle class="cls-26" cx="232.95" cy="85.19" r="13.03"/><path class="cls-27" d="M295.87,101.13H291a10.58,10.58,0,0,0,.37-2.77,10.95,10.95,0,0,0-16-9.75A13.6,13.6,0,0,0,251.45,90a11,11,0,0,0-17.76,6,6.78,6.78,0,1,0-2.84,13.23,4.14,4.14,0,0,0,.87.09h64.15a4.1,4.1,0,1,0,0-8.19Z"/><path class="cls-27" d="M226.07,87.35A8.36,8.36,0,0,0,217.71,79a8.27,8.27,0,0,0-2.91.55c0-.18,0-.36,0-.55A16.71,16.71,0,0,0,184,70a13.41,13.41,0,0,0-19,11.2,8.18,8.18,0,0,0-9.41-1.31,11.18,11.18,0,0,0-21.37,4.6,11.06,11.06,0,0,0,.41,2.83H125.2a4.18,4.18,0,0,0,0,8.36h93.43a4.14,4.14,0,0,0,2.1-.59A8.33,8.33,0,0,0,226.07,87.35Z"/><path class="cls-28" d="M229.82,88.68h-7.41a9.23,9.23,0,0,0-9.21-8.88,9.12,9.12,0,0,0-5.58,1.92,13.12,13.12,0,0,0-25.47.66c-.1,0-.2,0-.31,0a8,8,0,0,0-7.8,6.33h-4a4.82,4.82,0,1,0,0,9.63h59.78a4.82,4.82,0,0,0,0-9.63Z"/><path class="cls-28" d="M283.45,107.79h-7.4a9.2,9.2,0,0,0-14.8-7,13.11,13.11,0,0,0-25.46.67l-.31,0a8,8,0,0,0-7.8,6.32h-4a4.82,4.82,0,0,0,0,9.64h59.78a4.82,4.82,0,0,0,0-9.64Z"/><ellipse class="cls-29" cx="206.14" cy="221.7" rx="68.57" ry="37.23"/><rect class="cls-16" x="199.89" y="88.37" width="12.49" height="11.76"/><path class="cls-30" d="M213.43,88.37H198.85a3.66,3.66,0,0,1-3.66-3.66h0a3.66,3.66,0,0,1,3.66-3.66h14.58a3.66,3.66,0,0,1,3.66,3.66h0A3.66,3.66,0,0,1,213.43,88.37Z"/><circle class="cls-31" cx="206.14" cy="168.98" r="76.66"/><circle class="cls-32" cx="206.14" cy="168.98" r="63.18"/><g class="cls-8"><path class="cls-31" d="M141.27,195.58a1.33,1.33,0,0,1-1.24-.85,69.92,69.92,0,0,1-3.06-10,1.34,1.34,0,0,1,2.61-.59,67.94,67.94,0,0,0,2.94,9.58,1.33,1.33,0,0,1-.76,1.73A1.37,1.37,0,0,1,141.27,195.58Z"/></g><g class="cls-8"><path class="cls-31" d="M137,178.1a1.33,1.33,0,0,1-1.32-1.19,72.12,72.12,0,0,1-.44-7.93,71,71,0,0,1,86.3-69.26,1.34,1.34,0,1,1-.58,2.61A68.31,68.31,0,0,0,137.88,169a69.13,69.13,0,0,0,.42,7.63,1.33,1.33,0,0,1-1.18,1.48Z"/></g><g class="cls-8"><path class="cls-31" d="M235.34,107.12a1.38,1.38,0,0,1-.56-.12,67.32,67.32,0,0,0-7.36-2.9,1.33,1.33,0,0,1-.85-1.68,1.35,1.35,0,0,1,1.69-.86,72.53,72.53,0,0,1,7.64,3,1.36,1.36,0,0,1,.66,1.78A1.34,1.34,0,0,1,235.34,107.12Z"/></g><path class="cls-33" d="M214.24,169H198l7.32-35.47a.8.8,0,0,1,1.57,0Z"/><path class="cls-34" d="M214.24,169H198l7.32,35.46a.8.8,0,0,0,1.57,0Z"/><circle class="cls-28" cx="206.14" cy="168.98" r="12.07"/><path class="cls-28" d="M199.93,125.69a.89.89,0,0,1-.89-.89V112.62a.89.89,0,1,1,1.78,0V124.8A.89.89,0,0,1,199.93,125.69Z"/><path class="cls-28" d="M212.35,125.92a.85.85,0,0,1-.63-.26L199.3,113.25a.89.89,0,0,1,1.26-1.26L213,124.4a.91.91,0,0,1,0,1.26A.89.89,0,0,1,212.35,125.92Z"/><path class="cls-28" d="M212.35,125.92a.88.88,0,0,1-.89-.89V112.62a.89.89,0,1,1,1.78,0V125A.89.89,0,0,1,212.35,125.92Z"/><g class="cls-8"><path class="cls-32" d="M226.05,223.49a1.78,1.78,0,0,1-.63-3.45A54.86,54.86,0,0,0,260.71,169a1.78,1.78,0,1,1,3.56,0,58.43,58.43,0,0,1-37.59,54.39A1.76,1.76,0,0,1,226.05,223.49Z"/></g><g class="cls-8"><path class="cls-32" d="M206.14,227.11a1.79,1.79,0,0,1,0-3.57,55.21,55.21,0,0,0,10.37-1,1.78,1.78,0,0,1,.67,3.5A59,59,0,0,1,206.14,227.11Z"/></g><path class="cls-28" d="M206.14,227.11a1.78,1.78,0,0,1-1.78-1.79V214.13a1.78,1.78,0,0,1,3.56,0v11.19A1.79,1.79,0,0,1,206.14,227.11Z"/><path class="cls-28" d="M262.49,170.76H251.3a1.79,1.79,0,0,1,0-3.57h11.19a1.79,1.79,0,0,1,0,3.57Z"/><path class="cls-28" d="M161,170.76H149.79a1.79,1.79,0,0,1,0-3.57H161a1.79,1.79,0,0,1,0,3.57Z"/><g class="cls-35"><path class="cls-28" d="M166.07,218.72a.86.86,0,0,1-.44-.12.89.89,0,0,1-.33-1.22l10.23-17.8-17.8,10.24a.89.89,0,0,1-.89-1.55l23.52-13.52-13.52,23.52A.87.87,0,0,1,166.07,218.72Z"/></g><path d="M175.32,316.64h2.61v15h-2.2L167.5,321V331.6h-2.61v-15h2.43l8,10.34Z"/><path d="M181.52,318.58v-2.45h2.8v2.45Zm.11,13V320.32h2.61V331.6Z"/><path d="M195.39,320.32h2.72l-4.62,11.37h-2.33l-4.64-11.37h2.78l3,8.29Z"/><path d="M202.75,329a3.14,3.14,0,0,0,2.13.74,3.74,3.74,0,0,0,1.67-.34,5.56,5.56,0,0,0,1.39-1l1.52,1.34a6.18,6.18,0,0,1-1.94,1.54,5.7,5.7,0,0,1-2.68.58,6,6,0,0,1-2.28-.43,5.39,5.39,0,0,1-1.83-1.2,5.55,5.55,0,0,1-1.23-1.85,6.61,6.61,0,0,1,0-4.69,5.84,5.84,0,0,1,1.14-1.87,5.5,5.5,0,0,1,1.74-1.27,5.23,5.23,0,0,1,2.22-.47,5.37,5.37,0,0,1,2.37.49,4.8,4.8,0,0,1,1.68,1.33,5.71,5.71,0,0,1,1,1.94,7.82,7.82,0,0,1,.34,2.33c0,.12,0,.23,0,.34l0,.37h-8.29A3.34,3.34,0,0,0,202.75,329Zm4.66-3.83a4.88,4.88,0,0,0-.28-1.17,3.1,3.1,0,0,0-.58-.94,2.85,2.85,0,0,0-.86-.63,2.66,2.66,0,0,0-1.15-.23,2.62,2.62,0,0,0-2,.82,3.75,3.75,0,0,0-.95,2.15Z"/><path d="M212.73,331.6V316h2.61v15.6Z"/><path d="M228.16,316.64v15h-2.61v-15Z"/><path d="M234.94,316.64v15h-2.61v-15Z"/><path d="M118.66,338.89H125v17.32h11.08v5.55H118.66Z"/><path d="M137.54,356.7v-.07c0-3.66,2.77-5.55,6.92-5.55a13.5,13.5,0,0,1,4.25.69v-.3c0-1.83-1.14-2.87-3.53-2.87a12.49,12.49,0,0,0-4.87,1L139,345.2a17.71,17.71,0,0,1,7.16-1.37c3.16,0,5.32.75,6.73,2.15s1.89,3.14,1.89,5.62v10.16h-6.14v-1.83a6.68,6.68,0,0,1-5.2,2.22C140.12,362.15,137.54,360.23,137.54,356.7Zm11.24-1.34v-.82a6.57,6.57,0,0,0-2.42-.45c-1.8,0-2.84.88-2.84,2.18v.07a2,2,0,0,0,2.19,1.93A2.85,2.85,0,0,0,148.78,355.36Z"/><path d="M167.4,338.89h11.73c2.87,0,4.9.72,6.24,2.06a5.05,5.05,0,0,1,1.47,3.69v.07a5.31,5.31,0,0,1-3.53,5.1c2.77.91,4.54,2.48,4.54,5.58v.07c0,3.92-3.2,6.3-8.66,6.3H167.4ZM177.56,348c1.93,0,3-.65,3-2V346c0-1.24-1-2-2.87-2h-4.12v4Zm.91,8.66c1.93,0,3-.76,3-2.1v-.06c0-1.24-1-2.06-3.1-2.06h-4.84v4.22Z"/><path d="M190.4,344.09h6.2v3.56c1-2.42,2.65-4,5.59-3.86v6.54h-.52c-3.24,0-5.07,1.86-5.07,5.94v5.49h-6.2Z"/><path d="M204.25,355.65V344.09h6.2v9.57c0,1.93,1,3,2.52,3s2.58-1,2.58-3v-9.57h6.21v17.67h-6.21v-2.42a6.48,6.48,0,0,1-5.29,2.81C206.5,362.15,204.25,359.67,204.25,355.65Zm9.31-19.11,5.78,1.86-4.8,4.19h-4.38Z"/><path d="M222.57,366.86v-4.12a7.58,7.58,0,0,0,.82,0c1.21,0,1.83-.52,1.83-2V344.09h6.21V361c0,4.47-2.29,6.11-6.31,6.11A18.26,18.26,0,0,1,222.57,366.86Zm2.52-28.95h6.47v4.58h-6.47Z"/><path d="M234.82,355.65V344.09H241v9.57c0,1.93,1,3,2.52,3s2.58-1,2.58-3v-9.57h6.21v17.67h-6.21v-2.42a6.49,6.49,0,0,1-5.29,2.81C237.08,362.15,234.82,359.67,234.82,355.65Z"/><path d="M255.8,337.91H262v23.85H255.8Z"/><path d="M264.59,356.7v-.07c0-3.66,2.77-5.55,6.92-5.55a13.5,13.5,0,0,1,4.25.69v-.3c0-1.83-1.14-2.87-3.53-2.87a12.49,12.49,0,0,0-4.87,1l-1.27-4.38a17.7,17.7,0,0,1,7.15-1.37c3.17,0,5.33.75,6.73,2.15s1.9,3.14,1.9,5.62v10.16h-6.14v-1.83a6.68,6.68,0,0,1-5.2,2.22C267.17,362.15,264.59,360.23,264.59,356.7Zm11.23-1.34v-.82a6.51,6.51,0,0,0-2.41-.45c-1.8,0-2.85.88-2.85,2.18v.07a2,2,0,0,0,2.19,1.93A2.84,2.84,0,0,0,275.82,355.36Z"/><circle class="cls-28" cx="206.14" cy="168.56" r="13.51"/><path class="cls-36" d="M215.07,175.09a10.34,10.34,0,0,1-4,3.27,12.66,12.66,0,0,1-5.06.92,10.46,10.46,0,0,1-4.31-.86,9.73,9.73,0,0,1-3.23-2.3,10,10,0,0,1-2-3.4,12,12,0,0,1-.7-4.18,11.7,11.7,0,0,1,.79-4.33,10.11,10.11,0,0,1,2.19-3.39,9.81,9.81,0,0,1,3.32-2.19,11,11,0,0,1,4.18-.77,10.6,10.6,0,0,1,3.92.73,8.37,8.37,0,0,1,3.06,2.1,9.48,9.48,0,0,1,2,3.36,13.44,13.44,0,0,1,.68,4.51v1.09l-16.46-.05a7.51,7.51,0,0,0,2,4.6,6.67,6.67,0,0,0,2,1.42,6.42,6.42,0,0,0,2.57.53,8.19,8.19,0,0,0,3.75-.77,8.58,8.58,0,0,0,2.75-2.3Zm-2.89-8.33a5.84,5.84,0,0,0-1.68-4.18,6.07,6.07,0,0,0-4.44-1.58,6.27,6.27,0,0,0-6.68,5.72Z"/></g></g></svg>