<svg xmlns="http://www.w3.org/2000/svg" xmlns:xlink="http://www.w3.org/1999/xlink" viewBox="0 0 400 400"><defs><style>.cls-1{mask:url(#mask);filter:url(#luminosity-noclip-2);}.cls-2{mix-blend-mode:multiply;fill:url(#linear-gradient);}.cls-3{fill:none;}.cls-4{isolation:isolate;}.cls-5{fill:url(#linear-gradient-2);}.cls-6{fill:#59822e;}.cls-7{fill:#e4e1ce;}.cls-8{fill:#ef5854;}.cls-9{fill:#a2c63e;}.cls-10{clip-path:url(#clip-path);}.cls-11{fill:#e0ce77;}.cls-12{fill:#21aace;}.cls-13{fill:#353535;opacity:0.25;}.cls-14{fill:#266000;}.cls-15{fill:#323232;}.cls-16{mask:url(#mask-2);}.cls-17{fill:url(#linear-gradient-3);}.cls-18{fill:url(#linear-gradient-4);}.cls-19{fill:#efb03c;}.cls-20{fill:#fff;}.cls-21{fill:#8ed13f;}.cls-22{fill:#3a6f81;}.cls-23{fill:#394c81;}.cls-24{fill:#d35400;}.cls-25{fill:#34495e;}.cls-26{mix-blend-mode:screen;}.cls-27{fill:#3498db;}.cls-28{fill:#e74c3c;}.cls-29{clip-path:url(#clip-path-2);}.cls-30{filter:url(#luminosity-noclip);}</style><filter id="luminosity-noclip" x="199.41" y="-9540.79" width="51.5" height="32766" filterUnits="userSpaceOnUse" color-interpolation-filters="sRGB"><feFlood flood-color="#fff" result="bg"/><feBlend in="SourceGraphic" in2="bg"/></filter><mask id="mask" x="199.41" y="-9540.79" width="51.5" height="32766" maskUnits="userSpaceOnUse"><g class="cls-30"/></mask><linearGradient id="linear-gradient" x1="240.79" y1="132.91" x2="204.69" y2="119.86" gradientUnits="userSpaceOnUse"><stop offset="0"/><stop offset="1" stop-color="#fff"/></linearGradient><linearGradient id="linear-gradient-2" x1="-0.39" y1="200" x2="400.39" y2="200" gradientUnits="userSpaceOnUse"><stop offset="0" stop-color="#f8a03f"/><stop offset="1" stop-color="#ed7a23"/></linearGradient><clipPath id="clip-path"><polygon id="SVGID" class="cls-3" points="250.72 118.04 199.31 108.37 199.31 108.34 199.26 108.36 199.2 108.34 199.2 108.37 146.77 117.99 105.37 108.34 105.37 228.98 146.77 238.63 199.26 228.99 250.7 238.68 293.13 229.02 293.13 108.39 250.72 118.04"/></clipPath><filter id="luminosity-noclip-2" x="199.41" y="97.84" width="51.5" height="65.05" filterUnits="userSpaceOnUse" color-interpolation-filters="sRGB"><feFlood flood-color="#fff" result="bg"/><feBlend in="SourceGraphic" in2="bg"/></filter><mask id="mask-2" x="199.41" y="97.84" width="51.5" height="65.05" maskUnits="userSpaceOnUse"><g class="cls-1"><polygon class="cls-2" points="199.41 149.01 233.95 162.89 250.91 104.12 224.1 97.84 199.41 149.01"/></g></mask><linearGradient id="linear-gradient-3" x1="240.79" y1="132.91" x2="204.69" y2="119.86" gradientUnits="userSpaceOnUse"><stop offset="0" stop-color="#744740"/><stop offset="1" stop-color="#003f00"/></linearGradient><linearGradient id="linear-gradient-4" x1="159.83" y1="94.7" x2="238.98" y2="94.7" gradientUnits="userSpaceOnUse"><stop offset="0" stop-color="#4d4e4e"/><stop offset="1" stop-color="#221f1f"/></linearGradient><clipPath id="clip-path-2"><circle id="SVGID-2" data-name="SVGID" class="cls-3" cx="301.19" cy="250.51" r="44.97"/></clipPath></defs><title>NIVEL 4 copy</title><g class="cls-4"><g id="Ñëîé_1" data-name="Ñëîé 1"><rect class="cls-5" x="-0.39" y="-0.39" width="400.78" height="400.78"/><path d="M170.7,316.64h2.6v15h-2.19L162.87,321V331.6h-2.61v-15h2.44l8,10.34Z"/><path d="M176.89,318.58v-2.45h2.8v2.45Zm.11,13V320.32h2.61V331.6Z"/><path d="M190.77,320.32h2.71l-4.62,11.37h-2.33l-4.63-11.37h2.77l3,8.29Z"/><path d="M198.12,329a3.17,3.17,0,0,0,2.14.74,3.73,3.73,0,0,0,1.66-.34,5.39,5.39,0,0,0,1.39-1l1.52,1.34a6.26,6.26,0,0,1-1.93,1.54,5.77,5.77,0,0,1-2.69.58,5.88,5.88,0,0,1-2.27-.43,5.33,5.33,0,0,1-1.84-1.2,5.55,5.55,0,0,1-1.23-1.85,6.18,6.18,0,0,1-.45-2.4,6.42,6.42,0,0,1,.41-2.29,5.84,5.84,0,0,1,1.14-1.87,5.5,5.5,0,0,1,1.74-1.27,5.24,5.24,0,0,1,2.23-.47,5.35,5.35,0,0,1,2.36.49A4.93,4.93,0,0,1,204,321.9a5.87,5.87,0,0,1,1,1.94,7.82,7.82,0,0,1,.34,2.33c0,.12,0,.23,0,.34s0,.24,0,.37H197A3.34,3.34,0,0,0,198.12,329Zm4.66-3.83a4.45,4.45,0,0,0-.28-1.17,2.91,2.91,0,0,0-.58-.94,2.85,2.85,0,0,0-.86-.63,2.66,2.66,0,0,0-1.15-.23,2.6,2.6,0,0,0-2,.82,3.68,3.68,0,0,0-.95,2.15Z"/><path d="M208.1,331.6V316h2.61v15.6Z"/><path d="M223.53,316.64v15h-2.61v-15Z"/><path d="M238.17,316.64H241l-6.22,15.07h-2.31l-6.22-15.07h2.91l4.51,11.5Z"/><path d="M40.32,338.89H58.71v5.39H46.59v3.47h11v5h-11v3.62H58.87v5.39H40.32Z"/><path d="M61.75,344.09H68v2.48a6.57,6.57,0,0,1,5.3-2.87c3.75,0,6,2.48,6,6.5v11.56H73.05v-9.57c0-1.93-1-3-2.48-3s-2.62,1-2.62,3v9.57h-6.2Z"/><path d="M81.74,353v-.07a9.18,9.18,0,0,1,9.47-9.21,8.36,8.36,0,0,1,7.55,3.95l-4.21,3.14a3.8,3.8,0,0,0-3.3-1.86,3.66,3.66,0,0,0-3.47,3.92v.06c0,2.29,1.44,4,3.53,4a4.25,4.25,0,0,0,3.4-1.83l4.15,3A8.78,8.78,0,0,1,91,362.19,9.12,9.12,0,0,1,81.74,353Z"/><path d="M100.92,355.65V344.09h6.2v9.57c0,1.93,1,3,2.52,3s2.58-1,2.58-3v-9.57h6.21v17.67h-6.21v-2.42a6.48,6.48,0,0,1-5.29,2.81C103.17,362.15,100.92,359.67,100.92,355.65Z"/><path d="M121,353v-.07c0-5.16,3.69-9.24,8.92-9.24,6.11,0,8.92,4.47,8.92,9.67,0,.39,0,.85,0,1.27H127a3.64,3.64,0,0,0,3.82,2.91,5.34,5.34,0,0,0,3.92-1.8l3.43,2.84a9.26,9.26,0,0,1-7.68,3.6C125,362.19,121,358.5,121,353Zm12-1.54c-.23-2-1.37-3.2-3.07-3.2s-2.74,1.27-3.07,3.2Z"/><path d="M141.52,344.09h6.21v2.48A6.55,6.55,0,0,1,153,343.7c3.76,0,6,2.48,6,6.5v11.56h-6.2v-9.57c0-1.93-1-3-2.49-3s-2.61,1-2.61,3v9.57h-6.21Z"/><path d="M163.31,356.27v-7.18h-2.09v-5h2.09v-4.48h6.21v4.48h4.12v5h-4.12v6c0,1.24.56,1.76,1.7,1.76a5.41,5.41,0,0,0,2.35-.59v4.87a8.85,8.85,0,0,1-4.31,1C165.54,362.12,163.31,360.49,163.31,356.27Z"/><path d="M176.32,344.09h6.2v3.56c1-2.42,2.65-4,5.59-3.86v6.54h-.52c-3.24,0-5.07,1.86-5.07,5.94v5.49h-6.2Z"/><path d="M188.6,356.7v-.07c0-3.66,2.78-5.55,6.93-5.55a13.48,13.48,0,0,1,4.24.69v-.3c0-1.83-1.14-2.87-3.53-2.87a12.4,12.4,0,0,0-4.86,1l-1.28-4.38a17.71,17.71,0,0,1,7.16-1.37c3.17,0,5.32.75,6.73,2.15s1.89,3.14,1.89,5.62v10.16h-6.14v-1.83a6.66,6.66,0,0,1-5.2,2.22C191.18,362.15,188.6,360.23,188.6,356.7Zm11.24-1.34v-.82a6.57,6.57,0,0,0-2.42-.45c-1.8,0-2.84.88-2.84,2.18v.07a2,2,0,0,0,2.19,1.93A2.85,2.85,0,0,0,199.84,355.36Z"/><path d="M217.38,353v-.07c0-5.16,3.69-9.24,8.92-9.24,6.11,0,8.92,4.47,8.92,9.67,0,.39,0,.85,0,1.27H223.36a3.64,3.64,0,0,0,3.82,2.91,5.34,5.34,0,0,0,3.92-1.8l3.43,2.84a9.26,9.26,0,0,1-7.68,3.6C221.3,362.19,217.38,358.5,217.38,353Zm12-1.54c-.23-2-1.37-3.2-3.07-3.2s-2.74,1.27-3.07,3.2Z"/><path d="M238,337.91h6.21v23.85H238Z"/><path d="M257.79,356.27v-7.18H255.7v-5h2.09v-4.48H264v4.48h4.11v5H264v6c0,1.24.55,1.76,1.7,1.76a5.45,5.45,0,0,0,2.35-.59v4.87a8.85,8.85,0,0,1-4.31,1C260,362.12,257.79,360.49,257.79,356.27Z"/><path d="M269.58,353v-.07c0-5.16,3.7-9.24,8.92-9.24,6.11,0,8.92,4.47,8.92,9.67,0,.39,0,.85,0,1.27H275.56a3.65,3.65,0,0,0,3.82,2.91,5.34,5.34,0,0,0,3.92-1.8l3.44,2.84a9.26,9.26,0,0,1-7.68,3.6C273.5,362.19,269.58,358.5,269.58,353Zm12-1.54c-.23-2-1.38-3.2-3.07-3.2s-2.75,1.27-3.08,3.2Z"/><path d="M288.73,359.54l2.32-3.76a11.45,11.45,0,0,0,6.07,2c1.08,0,1.57-.33,1.57-.95v-.06c0-.69-1-1-2.84-1.51-3.5-.91-6.27-2.09-6.27-5.65v-.06c0-3.76,3-5.85,7.09-5.85a13.76,13.76,0,0,1,7.28,2.06l-2.12,3.92a11.87,11.87,0,0,0-5.23-1.64c-1,0-1.44.36-1.44.85V349c0,.68,1,1,2.88,1.57,3.49,1,6.27,2.19,6.27,5.62v.06c0,3.89-2.91,5.91-7.22,5.91A14.21,14.21,0,0,1,288.73,359.54Z"/><path d="M306.14,353v-.07c0-5,4.12-9.24,9.8-9.24s9.74,4.15,9.74,9.18v.06c0,5-4.12,9.25-9.8,9.25S306.14,358,306.14,353Zm13.49,0v-.07a3.82,3.82,0,0,0-3.75-4,3.7,3.7,0,0,0-3.7,3.92v.06a3.83,3.83,0,0,0,3.76,4A3.7,3.7,0,0,0,319.63,353Z"/><path d="M328.29,344.09h6.21v3.56c1-2.42,2.64-4,5.58-3.86v6.54h-.52c-3.23,0-5.06,1.86-5.06,5.94v5.49h-6.21Z"/><path d="M341.23,353v-.07c0-5,4.11-9.24,9.8-9.24s9.73,4.15,9.73,9.18v.06c0,5-4.11,9.25-9.8,9.25S341.23,358,341.23,353Zm13.49,0v-.07a3.83,3.83,0,0,0-3.76-4,3.7,3.7,0,0,0-3.69,3.92v.06a3.83,3.83,0,0,0,3.76,4A3.7,3.7,0,0,0,354.72,353Z"/><path class="cls-6" d="M108.59,148.6c4.5,1.89,2.76,16.26-3.89,32.09S89,207.82,84.51,205.93s-2.76-16.26,3.89-32.09S104.09,146.71,108.59,148.6Z"/><path class="cls-6" d="M85.41,200.89c-8.19-3.33-17.47-.39-23.07,4.53,6.86-11.34,12.44-11,20.48-12-9.62-3.6-19-1.7-29.5,3.59,14.09-12.82,27.43-10.74,32.4-10-10.17-1-27.1-7.64-46.3-22.54C61.75,175.63,71.81,177.65,87,178.75c-11.37-3.12-19.61-8.68-21.21-21.92,4.35,9.32,17.94,16.58,24.18,13.8C76.34,163.47,74.45,148.79,76.05,144c5,12.56,8.58,15.51,18.84,17.84-3.53-1-11.89-11.83-10.23-22.6,3.13,8,6.72,14.18,15.56,14.91-3.68-2.53-9-10-6.09-14.9,1,9.55,10.05,11.5,12.91,14.13,4.67,4.31-3.49,15.4-6,20.75-1.76,3.67-6.36,31.94-13.5,25.85Z"/><polygon class="cls-7" points="250.66 251.13 302.63 239.37 302.63 92.36 250.66 104.12 250.66 251.13"/><polygon class="cls-7" points="146.82 251.13 198.8 239.37 198.8 92.36 146.82 104.12 146.82 251.13"/><polygon class="cls-7" points="146.79 251.13 94.81 239.37 94.81 92.36 146.79 104.12 146.79 251.13"/><polygon class="cls-7" points="250.62 251.13 198.65 239.37 198.65 92.36 250.62 104.12 250.62 251.13"/><path class="cls-8" d="M110.5,167.56h-1.86c0-2.36.09-3.75.09-3.75l1.86.1S110.52,165.26,110.5,167.56Z"/><path class="cls-8" d="M133.48,225v-1.86a21.19,21.19,0,0,0,6.18-1.05l.83-.27.59,1.77-.87.28A23.41,23.41,0,0,1,133.48,225Zm-7.59-1.74a18.8,18.8,0,0,1-6-4.92l1.43-1.19a17.25,17.25,0,0,0,5.41,4.46ZM148,220.48l-.91-1.61a36.51,36.51,0,0,0,5.89-4.2l1.22,1.4A37.15,37.15,0,0,1,148,220.48Zm-32.19-8.66a52.34,52.34,0,0,1-2.74-7.08l1.78-.55a50.51,50.51,0,0,0,2.63,6.83Zm152.42-.68c-2-.18-4.22-1.36-7-3.7l1.21-1.41c2.41,2.05,4.35,3.11,5.93,3.26Zm-108.79-.59L158,209.39a66.35,66.35,0,0,0,4.23-6l1.57,1A67.88,67.88,0,0,1,159.45,210.55Zm96.39-8.36q-1.49-1.56-3.08-3.27l-2-2.16,1.35-1.28,2,2.17c1.06,1.13,2.09,2.22,3.08,3.25Zm-88.22-4.27L166,197l.48-.84c1.08-1.89,2.16-3.78,3.28-5.63l1.59,1c-1.12,1.83-2.18,3.7-3.26,5.58Zm-56.4-.49c-.48-2.33-.9-4.83-1.26-7.43l1.85-.24c.34,2.55.76,5,1.23,7.29Zm134.31-6c-1.9-1.87-3.67-3.52-5.42-5l1.22-1.4c1.78,1.55,3.58,3.22,5.5,5.12Zm-70.06-6L174,184.27a40.8,40.8,0,0,1,5.13-5.62l1.24,1.39A37.64,37.64,0,0,0,175.47,185.4Zm-66.31-2.87c-.19-2.44-.34-5-.42-7.49l1.85-.07c.09,2.51.23,5,.43,7.41Zm125.19-.74a64.14,64.14,0,0,0-6.17-4l.91-1.62a65.87,65.87,0,0,1,6.35,4.09Zm-48.12-5.91-.88-1.63a34.25,34.25,0,0,1,7.07-2.84l.5,1.79A32.46,32.46,0,0,0,186.23,175.88Zm35.34-1.21a45.29,45.29,0,0,0-7-2.1l.39-1.81a46.8,46.8,0,0,1,7.27,2.18Zm-21.51-2.78-.18-1.85a55.27,55.27,0,0,1,7.56-.23l-.07,1.86A54.91,54.91,0,0,0,200.06,171.89Z"/><path class="cls-8" d="M275.08,206.51l-1.61-.93a24.22,24.22,0,0,0,1.52-3.24l1.73.69A27.91,27.91,0,0,1,275.08,206.51Z"/><polygon class="cls-9" points="250.72 117.81 199.31 108.14 199.31 108.12 199.26 108.13 199.2 108.12 199.2 108.14 146.77 117.77 105.37 108.12 105.37 228.75 146.77 238.41 199.26 228.76 250.7 238.45 293.13 228.8 293.13 108.17 250.72 117.81"/><g class="cls-10"><path class="cls-11" d="M98,134.48C168,120.73,127.49,239.6,267.58,198s41.4,28.22,38.92,44.47c-1.84,12-21.74,9.91-145.84,32.52-21,3.83-42.93,8-58-4.69-3.54-3-11.61-11-15.76-45.59C83.69,197.85,77.12,143.09,98,134.48Z"/><path class="cls-12" d="M94.81,145.55c63.12-12.56,33,104.46,173,62.82s38,28.88,35.49,45.13c-1.83,12-21.74,9.91-145.83,32.52-21,3.83-42.93,8-58-4.69-3.54-3-11.6-11-15.75-45.59C80.53,208.92,74,154.16,94.81,145.55Z"/></g><polygon class="cls-13" points="198.76 92.36 146.79 104.12 146.79 251.13 198.76 239.37 198.76 92.36"/><polygon class="cls-13" points="302.89 92.36 250.91 104.12 250.91 251.13 302.89 239.37 302.89 92.36"/><path class="cls-14" d="M284.63,148.4a10.62,10.62,0,1,1-21.23,0c0-5.86,4.76-21.05,10.62-21.05S284.63,142.54,284.63,148.4Z"/><path class="cls-15" d="M274.22,177.46a.93.93,0,0,1-.93-.93V154.39a.93.93,0,0,1,1.86,0v22.14A.93.93,0,0,1,274.22,177.46Z"/><path class="cls-14" d="M136.91,102.53a10.62,10.62,0,0,1-21.23,0c0-5.87,4.75-21,10.61-21S136.91,96.66,136.91,102.53Z"/><path class="cls-15" d="M126.5,131.58a.92.92,0,0,1-.93-.92V108.52a.93.93,0,1,1,1.85,0v22.14A.92.92,0,0,1,126.5,131.58Z"/><g class="cls-16"><polygon class="cls-17" points="199.41 149.01 233.95 162.89 250.91 104.12 224.1 97.84 199.41 149.01"/></g><path class="cls-18" d="M199.41,40.39A39.57,39.57,0,0,0,159.83,80c0,21.85,39.58,69.05,39.58,69.05S239,101.81,239,80A39.57,39.57,0,0,0,199.41,40.39Zm0,59.56a20,20,0,1,1,20-20A20,20,0,0,1,199.41,100Z"/><circle class="cls-19" cx="148.98" cy="137.26" r="6.04"/><path class="cls-20" d="M149,131.22a6,6,0,1,1-6,6,6,6,0,0,1,6-6Zm0-1.85a7.9,7.9,0,1,0,7.9,7.89,7.9,7.9,0,0,0-7.9-7.89Z"/><circle class="cls-19" cx="199.95" cy="183.53" r="6.04"/><path class="cls-20" d="M200,177.49a6,6,0,1,1-6,6,6,6,0,0,1,6-6Zm0-1.86a7.9,7.9,0,1,0,7.89,7.9,7.91,7.91,0,0,0-7.89-7.9Z"/><circle class="cls-19" cx="252.28" cy="145.13" r="6.04"/><path class="cls-20" d="M252.28,139.09a6,6,0,1,1-6,6,6,6,0,0,1,6-6Zm0-1.85a7.9,7.9,0,1,0,7.9,7.89,7.91,7.91,0,0,0-7.9-7.89Z"/><path class="cls-21" d="M135.54,278.4c-8.56-13-34.23-16.24-34.23-16.24s22.49-7.48,37.59,5.85C153.74,281.09,144.09,291.39,135.54,278.4Z"/><path class="cls-21" d="M135.49,264.81c-3.41-15.18-26.27-27.3-26.27-27.3s23.68,1,33.1,18.77C151.57,273.76,138.91,280,135.49,264.81Z"/><path class="cls-21" d="M143.42,267.35c3-15.28-13.11-35.54-13.11-35.54s21.3,10.38,22.78,30.46C154.55,282,140.45,282.62,143.42,267.35Z"/><path class="cls-6" d="M67.38,174.06C62.16,159.4,38,150.13,38,150.13s23.62-1.9,35.12,14.64C84.41,181,72.6,188.72,67.38,174.06Z"/><path class="cls-6" d="M66.8,168.82c1.11-15.52-16.14-14.63-17.3-33.7,9.06,19.17,22.4,7.74,26.29,27.5C79.61,182,65.7,184.34,66.8,168.82Z"/><rect class="cls-22" x="296.74" y="193.13" width="8.89" height="8.37"/><path class="cls-23" d="M306.38,193.13H296a2.6,2.6,0,0,1-2.61-2.6h0a2.61,2.61,0,0,1,2.61-2.61h10.38a2.61,2.61,0,0,1,2.6,2.61h0A2.6,2.6,0,0,1,306.38,193.13Z"/><circle class="cls-24" cx="301.19" cy="250.51" r="54.57"/><circle class="cls-25" cx="301.19" cy="250.51" r="44.97"/><g class="cls-26"><path class="cls-24" d="M255,269.44a.94.94,0,0,1-.88-.6,50.06,50.06,0,0,1-2.18-7.09.95.95,0,1,1,1.85-.42,49.29,49.29,0,0,0,2.1,6.82,1,1,0,0,1-.54,1.23A1.07,1.07,0,0,1,255,269.44Z"/></g><g class="cls-26"><path class="cls-24" d="M252,257a.94.94,0,0,1-.94-.85,50.52,50.52,0,0,1,61.11-54.94,1,1,0,0,1-.41,1.86,48.61,48.61,0,0,0-59.12,47.44,51.7,51.7,0,0,0,.3,5.43,1,1,0,0,1-.84,1.05Z"/></g><g class="cls-26"><path class="cls-24" d="M322,206.48a1,1,0,0,1-.4-.09,48.94,48.94,0,0,0-5.23-2.06,1,1,0,0,1,.59-1.81,50,50,0,0,1,5.44,2.15.95.95,0,0,1-.4,1.81Z"/></g><path class="cls-27" d="M307,250.51H295.42l5.21-25.24a.57.57,0,0,1,1.12,0Z"/><path class="cls-28" d="M307,250.51H295.42l5.21,25.24a.57.57,0,0,0,1.12,0Z"/><circle class="cls-20" cx="301.19" cy="250.51" r="8.59"/><path class="cls-20" d="M296.77,219.7a.64.64,0,0,1-.64-.64v-8.67a.64.64,0,0,1,.64-.63.63.63,0,0,1,.63.63v8.67A.64.64,0,0,1,296.77,219.7Z"/><path class="cls-20" d="M305.61,219.86a.63.63,0,0,1-.45-.18l-8.84-8.84a.63.63,0,0,1,0-.9.65.65,0,0,1,.9,0l8.83,8.84a.63.63,0,0,1,0,.9A.62.62,0,0,1,305.61,219.86Z"/><path class="cls-20" d="M305.61,219.86a.64.64,0,0,1-.64-.63v-8.84a.64.64,0,0,1,.64-.63.63.63,0,0,1,.63.63v8.84A.63.63,0,0,1,305.61,219.86Z"/><g class="cls-26"><path class="cls-25" d="M315.36,289.31a1.28,1.28,0,0,1-1.19-.82,1.27,1.27,0,0,1,.74-1.64A39,39,0,0,0,340,250.51a1.27,1.27,0,1,1,2.53,0,41.58,41.58,0,0,1-26.75,38.71A1.2,1.2,0,0,1,315.36,289.31Z"/></g><g class="cls-26"><path class="cls-25" d="M301.19,291.88a1.27,1.27,0,1,1,0-2.53,39.6,39.6,0,0,0,7.38-.7,1.25,1.25,0,0,1,1.48,1,1.28,1.28,0,0,1-1,1.49A42.11,42.11,0,0,1,301.19,291.88Z"/></g><path class="cls-20" d="M301.19,291.88a1.27,1.27,0,0,1-1.27-1.27v-8a1.27,1.27,0,1,1,2.53,0v8A1.26,1.26,0,0,1,301.19,291.88Z"/><path class="cls-20" d="M341.29,251.77h-8a1.27,1.27,0,1,1,0-2.53h8a1.27,1.27,0,1,1,0,2.53Z"/><path class="cls-20" d="M269,251.77h-8a1.27,1.27,0,1,1,0-2.53h8a1.27,1.27,0,1,1,0,2.53Z"/><g class="cls-29"><path class="cls-20" d="M272.67,285.91a.64.64,0,0,1-.55-1l7.28-12.67-12.67,7.28a.63.63,0,0,1-.63-1.09l16.74-9.63-9.62,16.74A.63.63,0,0,1,272.67,285.91Z"/></g></g></g></svg>