<svg id="Ñëîé_1" data-name="Ñëîé 1" xmlns="http://www.w3.org/2000/svg" xmlns:xlink="http://www.w3.org/1999/xlink" viewBox="0 0 400 400"><defs><style>.cls-1{mask:url(#mask);filter:url(#luminosity-noclip-4);}.cls-2,.cls-4,.cls-6{mix-blend-mode:multiply;}.cls-2{fill:url(#linear-gradient);}.cls-3{mask:url(#mask-2);filter:url(#luminosity-noclip-5);}.cls-4{fill:url(#linear-gradient-2);}.cls-5{mask:url(#mask-3);filter:url(#luminosity-noclip-6);}.cls-6{fill:url(#linear-gradient-3);}.cls-7{fill:none;}.cls-8{fill:#c2e5ff;}.cls-9{fill:url(#linear-gradient-4);}.cls-10{fill:url(#linear-gradient-5);}.cls-11{clip-path:url(#clip-path);}.cls-12{fill:#f79d3d;}.cls-13{fill:#f79c3c;}.cls-14{fill:#f79b3c;}.cls-15{fill:#f69a3b;}.cls-16{fill:#f6993a;}.cls-17{fill:#f69839;}.cls-18{fill:#f69739;}.cls-19{fill:#f59638;}.cls-20{fill:#f59537;}.cls-21{fill:#f59436;}.cls-22{fill:#f49336;}.cls-23{fill:#f49235;}.cls-24{fill:#f49134;}.cls-25{fill:#f39033;}.cls-26{fill:#f38f33;}.cls-27{fill:#f38e32;}.cls-28{fill:#f38d31;}.cls-29{fill:#f28c30;}.cls-30{fill:#f28b30;}.cls-31{fill:#f28a2f;}.cls-32{fill:#f1892e;}.cls-33{fill:#f1882d;}.cls-34{fill:#f1872c;}.cls-35{fill:#f0862c;}.cls-36{fill:#f0852b;}.cls-37{fill:#f0842a;}.cls-38{fill:#ef8329;}.cls-39{fill:#ef8229;}.cls-40{fill:#ef8028;}.cls-41{fill:#ef7f27;}.cls-42{fill:#ee7e26;}.cls-43{fill:#ee7d25;}.cls-44{fill:#ee7c25;}.cls-45{fill:#f8a03f;}.cls-46{fill:#f89f3e;}.cls-47{fill:#f79e3e;}.cls-48{fill:#ed7b24;}.cls-49{fill:#ed7a23;}.cls-50{fill:url(#linear-gradient-6);}.cls-51{fill:url(#linear-gradient-7);}.cls-52{fill:url(#linear-gradient-8);}.cls-53{fill:url(#linear-gradient-9);}.cls-54{clip-path:url(#clip-path-2);}.cls-55{fill:#5ac7e5;}.cls-56{fill:#3bb7cc;}.cls-57{fill:#59822e;}.cls-58{fill:#c0ca51;}.cls-59{fill:#fff;}.cls-60{fill:#331722;}.cls-61{fill:#c97f09;}.cls-62{fill:#efb03c;}.cls-63{fill:#ee4948;}.cls-64{mask:url(#mask-4);}.cls-65{fill:url(#linear-gradient-10);}.cls-66{fill:#e4e1ce;}.cls-67{clip-path:url(#clip-path-3);}.cls-68{mask:url(#mask-5);}.cls-69{fill:url(#linear-gradient-11);}.cls-70{fill:#aa706a;}.cls-71{clip-path:url(#clip-path-4);}.cls-72{mask:url(#mask-6);}.cls-73{fill:url(#linear-gradient-12);}.cls-74{fill:#76c8ce;}.cls-75{fill:#231f20;}.cls-76{fill:#f76148;}.cls-77{fill:#e4ea68;}.cls-78{filter:url(#luminosity-noclip-3);}.cls-79{filter:url(#luminosity-noclip-2);}.cls-80{filter:url(#luminosity-noclip);}</style><filter id="luminosity-noclip" x="76.67" y="-9540.79" width="109.67" height="32766" filterUnits="userSpaceOnUse" color-interpolation-filters="sRGB"><feFlood flood-color="#fff" result="bg"/><feBlend in="SourceGraphic" in2="bg"/></filter><mask id="mask" x="76.67" y="-9540.79" width="109.67" height="32766" maskUnits="userSpaceOnUse"><g class="cls-80"/></mask><linearGradient id="linear-gradient" x1="131.5" y1="210.73" x2="131.5" y2="150.32" gradientUnits="userSpaceOnUse"><stop offset="0"/><stop offset="1" stop-color="#fff"/></linearGradient><filter id="luminosity-noclip-2" x="151.92" y="-9540.79" width="12.13" height="32766" filterUnits="userSpaceOnUse" color-interpolation-filters="sRGB"><feFlood flood-color="#fff" result="bg"/><feBlend in="SourceGraphic" in2="bg"/></filter><mask id="mask-2" x="151.92" y="-9540.79" width="12.13" height="32766" maskUnits="userSpaceOnUse"><g class="cls-79"/></mask><linearGradient id="linear-gradient-2" x1="-3251.1" y1="2685.44" x2="-3238.96" y2="2685.44" gradientTransform="translate(3403.02 -2421.75)" gradientUnits="userSpaceOnUse"><stop offset="0"/><stop offset="1" stop-color="#b3b3b3"/></linearGradient><filter id="luminosity-noclip-3" x="97.5" y="-9540.79" width="12.13" height="32766" filterUnits="userSpaceOnUse" color-interpolation-filters="sRGB"><feFlood flood-color="#fff" result="bg"/><feBlend in="SourceGraphic" in2="bg"/></filter><mask id="mask-3" x="97.5" y="-9540.79" width="12.13" height="32766" maskUnits="userSpaceOnUse"><g class="cls-78"/></mask><linearGradient id="linear-gradient-3" x1="97.5" y1="259.68" x2="109.64" y2="259.68" gradientTransform="matrix(1, 0, 0, 1, 0, 0)" xlink:href="#linear-gradient-2"/><linearGradient id="linear-gradient-4" x1="-0.39" y1="200" x2="400.39" y2="200" gradientUnits="userSpaceOnUse"><stop offset="0" stop-color="#f8a03f"/><stop offset="1" stop-color="#ed7a23"/></linearGradient><linearGradient id="linear-gradient-5" x1="258.52" y1="250.98" x2="297.4" y2="250.98" gradientTransform="translate(-95.52 -37.76) rotate(-3.08)" gradientUnits="userSpaceOnUse"><stop offset="0" stop-color="#4d4e4e"/><stop offset="1" stop-color="#221f1f"/></linearGradient><clipPath id="clip-path"><path class="cls-7" d="M192.56,204.91a.26.26,0,0,1-.17,0,.31.31,0,0,1-.17-.27l-.7-13a.32.32,0,0,1,.47-.3l11.42,5.88a.34.34,0,0,1,.18.27.31.31,0,0,1-.15.29l-10.72,7.08A.33.33,0,0,1,192.56,204.91Zm-.36-12.74.63,11.84,9.8-6.46Z"/></clipPath><linearGradient id="linear-gradient-6" x1="271.58" y1="275.12" x2="279.62" y2="259.89" gradientTransform="translate(-95.52 -37.76) rotate(-3.08)" xlink:href="#linear-gradient-4"/><linearGradient id="linear-gradient-7" x1="279.83" y1="247.72" x2="275.28" y2="253.39" gradientTransform="translate(-95.52 -37.76) rotate(-3.08)" xlink:href="#linear-gradient-4"/><linearGradient id="linear-gradient-8" x1="285.42" y1="247.74" x2="280.09" y2="247.74" gradientTransform="translate(-95.52 -37.76) rotate(-3.08)" xlink:href="#linear-gradient-4"/><linearGradient id="linear-gradient-9" x1="258.9" y1="247.74" x2="297.49" y2="247.74" xlink:href="#linear-gradient-5"/><clipPath id="clip-path-2"><circle id="SVGID" class="cls-8" cx="203.34" cy="162.57" r="120.04" transform="translate(-55.4 191.4) rotate(-45)"/></clipPath><filter id="luminosity-noclip-4" x="76.67" y="116.23" width="109.67" height="70.67" filterUnits="userSpaceOnUse" color-interpolation-filters="sRGB"><feFlood flood-color="#fff" result="bg"/><feBlend in="SourceGraphic" in2="bg"/></filter><mask id="mask-4" x="76.67" y="116.23" width="109.67" height="70.67" maskUnits="userSpaceOnUse"><g class="cls-1"><path class="cls-2" d="M186.32,128c0-6.52-4.12-11.81-9.21-11.81H85.94c-5.09,0-9.22,5.29-9.22,11.81,0,0-3.9,58.86,54.08,58.86S186.32,128,186.32,128Z"/></g></mask><linearGradient id="linear-gradient-10" x1="131.5" y1="210.73" x2="131.5" y2="150.32" gradientUnits="userSpaceOnUse"><stop offset="0" stop-color="#efb03c"/><stop offset="1" stop-color="#c54300"/></linearGradient><clipPath id="clip-path-3"><path id="SVGID-2" data-name="SVGID" class="cls-7" d="M176.76,240.94a21.57,21.57,0,0,1,21.55,22.64,21.55,21.55,0,0,1-31.46,18.1,41.34,41.34,0,0,0-19.25-4.32H131.92V247.69H147.6a42.71,42.71,0,0,0,19.38-4.4A21.63,21.63,0,0,1,176.76,240.94Zm0,33.17h.44a11.79,11.79,0,0,0,11.14-11,11.57,11.57,0,0,0-11.57-12.16,11.36,11.36,0,0,0-5.23,1.25,52.79,52.79,0,0,1-23.93,5.49h-5.68v9.69h5.68a51.18,51.18,0,0,1,23.86,5.45A11.45,11.45,0,0,0,176.75,274.11Z"/></clipPath><filter id="luminosity-noclip-5" x="151.92" y="244.54" width="12.13" height="38.32" filterUnits="userSpaceOnUse" color-interpolation-filters="sRGB"><feFlood flood-color="#fff" result="bg"/><feBlend in="SourceGraphic" in2="bg"/></filter><mask id="mask-5" x="151.92" y="244.54" width="12.13" height="38.32" maskUnits="userSpaceOnUse"><g class="cls-3"><rect class="cls-4" x="151.92" y="244.54" width="12.13" height="38.32" transform="translate(315.98 527.4) rotate(180)"/></g></mask><linearGradient id="linear-gradient-11" x1="-3251.1" y1="2685.44" x2="-3238.96" y2="2685.44" gradientTransform="translate(3403.02 -2421.75)" gradientUnits="userSpaceOnUse"><stop offset="0" stop-color="#744740"/><stop offset="1" stop-color="#331722"/></linearGradient><clipPath id="clip-path-4"><path id="SVGID-3" data-name="SVGID" class="cls-7" d="M84.8,282.44A21.59,21.59,0,0,1,63.25,259.8a21.55,21.55,0,0,1,31.46-18.1A41.34,41.34,0,0,0,114,246h15.68v29.67H114a42.68,42.68,0,0,0-19.38,4.4A21.63,21.63,0,0,1,84.8,282.44Zm0-33.17h-.44a11.79,11.79,0,0,0-11.14,11A11.57,11.57,0,0,0,84.8,272.44,11.39,11.39,0,0,0,90,271.19,52.79,52.79,0,0,1,114,265.7h5.68V256H114a51.18,51.18,0,0,1-23.86-5.45A11.45,11.45,0,0,0,84.81,249.27Z"/></clipPath><filter id="luminosity-noclip-6" x="97.5" y="240.52" width="12.13" height="38.32" filterUnits="userSpaceOnUse" color-interpolation-filters="sRGB"><feFlood flood-color="#fff" result="bg"/><feBlend in="SourceGraphic" in2="bg"/></filter><mask id="mask-6" x="97.5" y="240.52" width="12.13" height="38.32" maskUnits="userSpaceOnUse"><g class="cls-5"><rect class="cls-6" x="97.5" y="240.52" width="12.13" height="38.32"/></g></mask><linearGradient id="linear-gradient-12" x1="97.5" y1="259.68" x2="109.64" y2="259.68" gradientTransform="matrix(1, 0, 0, 1, 0, 0)" xlink:href="#linear-gradient-11"/></defs><title>NIVEL 5 copy</title><rect class="cls-9" x="-0.39" y="-0.39" width="400.78" height="400.78"/><path d="M175.32,316.64h2.61v15h-2.2L167.5,321V331.6h-2.61v-15h2.43l8,10.34Z"/><path d="M181.52,318.58v-2.45h2.8v2.45Zm.11,13V320.32h2.61V331.6Z"/><path d="M195.39,320.32h2.72l-4.62,11.37h-2.33l-4.64-11.37h2.78l3,8.29Z"/><path d="M202.75,329a3.14,3.14,0,0,0,2.13.74,3.74,3.74,0,0,0,1.67-.34,5.56,5.56,0,0,0,1.39-1l1.52,1.34a6.18,6.18,0,0,1-1.94,1.54,5.7,5.7,0,0,1-2.68.58,6,6,0,0,1-2.28-.43,5.39,5.39,0,0,1-1.83-1.2,5.55,5.55,0,0,1-1.23-1.85,6.15,6.15,0,0,1-.45-2.4,6.24,6.24,0,0,1,.41-2.29,5.84,5.84,0,0,1,1.14-1.87,5.5,5.5,0,0,1,1.74-1.27,5.23,5.23,0,0,1,2.22-.47,5.29,5.29,0,0,1,2.36.49,4.74,4.74,0,0,1,1.69,1.33,5.71,5.71,0,0,1,1,1.94,7.82,7.82,0,0,1,.34,2.33c0,.12,0,.23,0,.34l0,.37h-8.3A3.4,3.4,0,0,0,202.75,329Zm4.66-3.83a4.88,4.88,0,0,0-.28-1.17,3.1,3.1,0,0,0-.58-.94,2.85,2.85,0,0,0-.86-.63,2.81,2.81,0,0,0-1.15-.23,2.6,2.6,0,0,0-2,.82,3.75,3.75,0,0,0-.95,2.15Z"/><path d="M212.73,331.6V316h2.61v15.6Z"/><path d="M236,316.64h2.84l-6.22,15.07h-2.31l-6.22-15.07H227l4.51,11.5Z"/><path d="M43,358.37l3.53-4.22A11.74,11.74,0,0,0,54,356.89c1.7,0,2.61-.58,2.61-1.56v-.07c0-.95-.75-1.47-3.85-2.19-4.87-1.11-8.62-2.48-8.62-7.18v-.07c0-4.25,3.36-7.32,8.85-7.32a14.42,14.42,0,0,1,9.41,3L59.2,346a11.48,11.48,0,0,0-6.4-2.26c-1.54,0-2.29.66-2.29,1.47v.07c0,1,.78,1.5,4,2.22,5.26,1.14,8.53,2.84,8.53,7.12v.07c0,4.67-3.69,7.44-9.25,7.44A16,16,0,0,1,43,358.37Z"/><path d="M65.57,355.65V344.09h6.21v9.57c0,1.93,1,3,2.51,3s2.58-1,2.58-3v-9.57h6.21v17.67H76.87v-2.42a6.46,6.46,0,0,1-5.29,2.81C67.82,362.15,65.57,359.67,65.57,355.65Z"/><path d="M92.62,359.61v2.15H86.41V337.91h6.21v8.53A6.49,6.49,0,0,1,98,343.7c4.21,0,7.84,3.49,7.84,9.14v.07c0,5.75-3.63,9.24-7.81,9.24A6.62,6.62,0,0,1,92.62,359.61Zm7.09-6.67v-.06a3.63,3.63,0,1,0-7.22,0v.06a3.63,3.63,0,1,0,7.22,0Z"/><path d="M108.5,337.91H115v4.58H108.5Zm.13,6.18h6.2v17.67h-6.2Z"/><path d="M117.58,353v-.07c0-5.16,3.69-9.24,8.92-9.24,6.11,0,8.92,4.47,8.92,9.67,0,.39,0,.85,0,1.27H123.56a3.64,3.64,0,0,0,3.82,2.91,5.35,5.35,0,0,0,3.92-1.8l3.43,2.84a9.26,9.26,0,0,1-7.68,3.6C121.5,362.19,117.58,358.5,117.58,353Zm12-1.54c-.23-2-1.37-3.2-3.07-3.2s-2.75,1.27-3.07,3.2Z"/><path d="M138.06,344.09h6.21v2.48a6.53,6.53,0,0,1,5.29-2.87c3.76,0,6,2.48,6,6.5v11.56h-6.21v-9.57c0-1.93-1-3-2.48-3s-2.61,1-2.61,3v9.57h-6.21Z"/><path d="M158.12,353v-.07c0-5.75,3.59-9.24,7.77-9.24a6.77,6.77,0,0,1,5.43,2.55v-8.34h6.2v23.85h-6.2v-2.35a6.56,6.56,0,0,1-5.39,2.74C161.74,362.15,158.12,358.66,158.12,353Zm13.29-.07v-.06a3.63,3.63,0,1,0-7.22,0v.06a3.63,3.63,0,1,0,7.22,0Z"/><path d="M180.14,353v-.07c0-5,4.11-9.24,9.8-9.24s9.73,4.15,9.73,9.18v.06c0,5-4.11,9.25-9.8,9.25S180.14,358,180.14,353Zm13.49,0v-.07a3.83,3.83,0,0,0-3.76-4,3.7,3.7,0,0,0-3.69,3.92v.06a3.83,3.83,0,0,0,3.76,4A3.7,3.7,0,0,0,193.63,353Z"/><path d="M211.47,337.91h6.2v23.85h-6.2Z"/><path d="M220.25,356.7v-.07c0-3.66,2.78-5.55,6.93-5.55a13.6,13.6,0,0,1,4.25.69v-.3c0-1.83-1.15-2.87-3.53-2.87a12.49,12.49,0,0,0-4.87,1l-1.27-4.38a17.66,17.66,0,0,1,7.15-1.37c3.17,0,5.33.75,6.73,2.15s1.9,3.14,1.9,5.62v10.16h-6.15v-1.83a6.64,6.64,0,0,1-5.19,2.22C222.83,362.15,220.25,360.23,220.25,356.7Zm11.24-1.34v-.82a6.53,6.53,0,0,0-2.42-.45c-1.79,0-2.84.88-2.84,2.18v.07a2,2,0,0,0,2.19,1.93A2.84,2.84,0,0,0,231.49,355.36Z"/><path d="M249,353v-.07a9.17,9.17,0,0,1,9.47-9.21,8.38,8.38,0,0,1,7.55,3.95l-4.22,3.14a3.8,3.8,0,0,0-3.3-1.86,3.66,3.66,0,0,0-3.46,3.92v.06c0,2.29,1.44,4,3.53,4a4.23,4.23,0,0,0,3.39-1.83l4.15,3a8.77,8.77,0,0,1-7.87,4.05A9.12,9.12,0,0,1,249,353Z"/><path d="M268.21,355.65V344.09h6.21v9.57c0,1.93,1,3,2.51,3s2.58-1,2.58-3v-9.57h6.21v17.67h-6.21v-2.42a6.46,6.46,0,0,1-5.29,2.81C270.47,362.15,268.21,359.67,268.21,355.65Z"/><path d="M288.33,353v-.07c0-5.16,3.7-9.24,8.92-9.24,6.11,0,8.92,4.47,8.92,9.67,0,.39,0,.85,0,1.27H294.31a3.65,3.65,0,0,0,3.83,2.91,5.35,5.35,0,0,0,3.92-1.8l3.43,2.84a9.26,9.26,0,0,1-7.68,3.6C292.26,362.19,288.33,358.5,288.33,353Zm12-1.54c-.23-2-1.37-3.2-3.07-3.2s-2.75,1.27-3.07,3.2Z"/><path d="M307.48,359.54l2.32-3.76a11.48,11.48,0,0,0,6.08,2c1.07,0,1.56-.33,1.56-.95v-.06c0-.69-1-1-2.84-1.51-3.49-.91-6.27-2.09-6.27-5.65v-.06c0-3.76,3-5.85,7.09-5.85a13.76,13.76,0,0,1,7.28,2.06l-2.12,3.92a12,12,0,0,0-5.23-1.64c-.94,0-1.43.36-1.43.85V349c0,.68,1,1,2.87,1.57,3.5,1,6.27,2.19,6.27,5.62v.06c0,3.89-2.91,5.91-7.22,5.91A14.21,14.21,0,0,1,307.48,359.54Z"/><path d="M326.36,356.27v-7.18h-2.09v-5h2.09v-4.48h6.21v4.48h4.11v5h-4.11v6c0,1.24.55,1.76,1.7,1.76a5.45,5.45,0,0,0,2.35-.59v4.87a8.85,8.85,0,0,1-4.31,1C328.58,362.12,326.36,360.49,326.36,356.27Z"/><path d="M338.48,356.7v-.07c0-3.66,2.78-5.55,6.93-5.55a13.48,13.48,0,0,1,4.24.69v-.3c0-1.83-1.14-2.87-3.52-2.87a12.45,12.45,0,0,0-4.87,1L340,345.2a17.75,17.75,0,0,1,7.16-1.37c3.17,0,5.32.75,6.73,2.15s1.89,3.14,1.89,5.62v10.16h-6.14v-1.83a6.65,6.65,0,0,1-5.19,2.22C341.06,362.15,338.48,360.23,338.48,356.7Zm11.24-1.34v-.82a6.53,6.53,0,0,0-2.42-.45c-1.8,0-2.84.88-2.84,2.18v.07a2,2,0,0,0,2.19,1.93A2.84,2.84,0,0,0,349.72,355.36Z"/><polygon class="cls-10" points="192.54 204.59 191.84 191.62 203.27 197.51 192.54 204.59"/><g class="cls-11"><rect class="cls-12" x="202.36" y="191.62" width="0.27" height="11.86" transform="translate(-10.32 11.17) rotate(-3.08)"/><rect class="cls-13" x="202.05" y="191.64" width="0.31" height="11.86" transform="translate(-10.33 11.15) rotate(-3.08)"/><rect class="cls-14" x="201.74" y="191.66" width="0.31" height="11.86" transform="translate(-10.33 11.14) rotate(-3.08)"/><rect class="cls-15" x="201.43" y="191.67" width="0.31" height="11.86" transform="translate(-10.33 11.12) rotate(-3.08)"/><rect class="cls-16" x="201.12" y="191.69" width="0.31" height="11.86" transform="translate(-10.33 11.1) rotate(-3.08)"/><rect class="cls-17" x="200.81" y="191.71" width="0.31" height="11.86" transform="translate(-10.33 11.09) rotate(-3.08)"/><rect class="cls-18" x="200.5" y="191.72" width="0.31" height="11.86" transform="translate(-10.33 11.07) rotate(-3.08)"/><rect class="cls-19" x="200.2" y="191.74" width="0.31" height="11.86" transform="translate(-10.33 11.05) rotate(-3.08)"/><rect class="cls-20" x="199.89" y="191.76" width="0.31" height="11.86" transform="translate(-10.34 11.04) rotate(-3.08)"/><rect class="cls-21" x="199.58" y="191.77" width="0.31" height="11.86" transform="translate(-10.34 11.02) rotate(-3.08)"/><rect class="cls-22" x="199.27" y="191.79" width="0.31" height="11.86" transform="translate(-10.34 11) rotate(-3.08)"/><rect class="cls-23" x="198.96" y="191.81" width="0.31" height="11.86" transform="translate(-10.34 10.99) rotate(-3.08)"/><rect class="cls-24" x="198.65" y="191.82" width="0.31" height="11.86" transform="translate(-10.34 10.97) rotate(-3.08)"/><rect class="cls-25" x="198.35" y="191.84" width="0.31" height="11.86" transform="translate(-10.34 10.95) rotate(-3.08)"/><rect class="cls-26" x="198.04" y="191.86" width="0.31" height="11.86" transform="translate(-10.34 10.94) rotate(-3.08)"/><rect class="cls-27" x="197.73" y="191.87" width="0.31" height="11.86" transform="translate(-10.34 10.92) rotate(-3.08)"/><rect class="cls-28" x="197.42" y="191.89" width="0.31" height="11.86" transform="translate(-10.35 10.9) rotate(-3.08)"/><rect class="cls-29" x="197.11" y="191.91" width="0.31" height="11.86" transform="translate(-10.35 10.89) rotate(-3.08)"/><rect class="cls-30" x="196.8" y="191.92" width="0.31" height="11.86" transform="translate(-10.35 10.87) rotate(-3.08)"/><rect class="cls-31" x="196.49" y="191.94" width="0.31" height="11.86" transform="translate(-10.35 10.85) rotate(-3.08)"/><rect class="cls-32" x="196.19" y="191.96" width="0.31" height="11.86" transform="translate(-10.35 10.84) rotate(-3.08)"/><rect class="cls-33" x="195.88" y="191.97" width="0.31" height="11.86" transform="translate(-10.35 10.82) rotate(-3.08)"/><rect class="cls-34" x="195.57" y="191.99" width="0.31" height="11.86" transform="translate(-10.35 10.81) rotate(-3.08)"/><rect class="cls-35" x="195.26" y="192.01" width="0.31" height="11.86" transform="translate(-10.36 10.79) rotate(-3.08)"/><rect class="cls-36" x="194.95" y="192.02" width="0.31" height="11.86" transform="translate(-10.36 10.77) rotate(-3.08)"/><rect class="cls-37" x="194.64" y="192.04" width="0.31" height="11.86" transform="translate(-10.36 10.76) rotate(-3.08)"/><rect class="cls-38" x="194.34" y="192.06" width="0.31" height="11.86" transform="translate(-10.36 10.74) rotate(-3.08)"/><rect class="cls-39" x="194.03" y="192.07" width="0.31" height="11.86" transform="translate(-10.36 10.72) rotate(-3.08)"/><rect class="cls-40" x="193.72" y="192.09" width="0.31" height="11.86" transform="translate(-10.36 10.71) rotate(-3.08)"/><rect class="cls-41" x="193.41" y="192.11" width="0.31" height="11.86" transform="translate(-10.36 10.69) rotate(-3.08)"/><rect class="cls-42" x="193.1" y="192.12" width="0.31" height="11.86" transform="translate(-10.36 10.67) rotate(-3.08)"/><rect class="cls-43" x="192.79" y="192.14" width="0.31" height="11.86" transform="translate(-10.37 10.66) rotate(-3.08)"/><rect class="cls-44" x="192.51" y="192.15" width="0.28" height="11.86" transform="translate(-10.37 10.64) rotate(-3.08)"/><path class="cls-45" d="M204,204.3l-.74-13.63Z"/><rect class="cls-45" x="203.28" y="190.67" width="0.31" height="13.65" transform="translate(-10.32 11.22) rotate(-3.08)"/><rect class="cls-46" x="202.97" y="190.69" width="0.31" height="13.65" transform="translate(-10.32 11.2) rotate(-3.08)"/><rect class="cls-47" x="202.66" y="190.7" width="0.31" height="13.65" transform="translate(-10.32 11.19) rotate(-3.08)"/><rect class="cls-12" x="202.36" y="190.72" width="0.31" height="13.65" transform="translate(-10.32 11.17) rotate(-3.08)"/><rect class="cls-13" x="202.05" y="190.74" width="0.31" height="13.65" transform="translate(-10.33 11.15) rotate(-3.08)"/><rect class="cls-14" x="201.74" y="190.75" width="0.31" height="13.65" transform="translate(-10.33 11.14) rotate(-3.08)"/><rect class="cls-15" x="201.43" y="190.77" width="0.31" height="13.65" transform="translate(-10.33 11.12) rotate(-3.08)"/><rect class="cls-16" x="201.12" y="190.79" width="0.31" height="13.65" transform="translate(-10.33 11.1) rotate(-3.08)"/><rect class="cls-17" x="200.81" y="190.8" width="0.31" height="13.65" transform="translate(-10.33 11.09) rotate(-3.08)"/><rect class="cls-18" x="200.5" y="190.82" width="0.31" height="13.65" transform="translate(-10.33 11.07) rotate(-3.08)"/><rect class="cls-19" x="200.2" y="190.84" width="0.31" height="13.65" transform="translate(-10.33 11.05) rotate(-3.08)"/><rect class="cls-20" x="199.89" y="190.85" width="0.31" height="13.65" transform="translate(-10.33 11.04) rotate(-3.08)"/><rect class="cls-21" x="199.58" y="190.87" width="0.31" height="13.65" transform="translate(-10.34 11.02) rotate(-3.08)"/><rect class="cls-22" x="199.27" y="190.89" width="0.31" height="13.65" transform="translate(-10.34 11) rotate(-3.08)"/><rect class="cls-23" x="198.96" y="190.9" width="0.31" height="13.65" transform="translate(-10.34 10.99) rotate(-3.08)"/><rect class="cls-24" x="198.65" y="190.92" width="0.31" height="13.65" transform="translate(-10.34 10.97) rotate(-3.08)"/><rect class="cls-25" x="198.35" y="190.94" width="0.31" height="13.65" transform="translate(-10.34 10.95) rotate(-3.08)"/><rect class="cls-26" x="198.04" y="190.95" width="0.31" height="13.65" transform="translate(-10.34 10.94) rotate(-3.08)"/><rect class="cls-27" x="197.73" y="190.97" width="0.31" height="13.65" transform="translate(-10.34 10.92) rotate(-3.08)"/><rect class="cls-28" x="197.42" y="190.99" width="0.31" height="13.65" transform="translate(-10.35 10.9) rotate(-3.08)"/><rect class="cls-29" x="197.11" y="191" width="0.31" height="13.65" transform="translate(-10.35 10.89) rotate(-3.08)"/><rect class="cls-30" x="196.8" y="191.02" width="0.31" height="13.65" transform="translate(-10.35 10.87) rotate(-3.08)"/><rect class="cls-31" x="196.49" y="191.04" width="0.31" height="13.65" transform="translate(-10.35 10.85) rotate(-3.08)"/><rect class="cls-32" x="196.19" y="191.05" width="0.31" height="13.65" transform="translate(-10.35 10.84) rotate(-3.08)"/><rect class="cls-33" x="195.88" y="191.07" width="0.31" height="13.65" transform="translate(-10.35 10.82) rotate(-3.08)"/><rect class="cls-34" x="195.57" y="191.09" width="0.31" height="13.65" transform="translate(-10.35 10.81) rotate(-3.08)"/><rect class="cls-35" x="195.26" y="191.1" width="0.31" height="13.65" transform="translate(-10.36 10.79) rotate(-3.08)"/><rect class="cls-36" x="194.95" y="191.12" width="0.31" height="13.65" transform="translate(-10.36 10.77) rotate(-3.08)"/><rect class="cls-37" x="194.64" y="191.13" width="0.31" height="13.65" transform="translate(-10.36 10.76) rotate(-3.08)"/><rect class="cls-38" x="194.34" y="191.15" width="0.31" height="13.65" transform="translate(-10.36 10.74) rotate(-3.08)"/><rect class="cls-39" x="194.03" y="191.17" width="0.31" height="13.65" transform="translate(-10.36 10.72) rotate(-3.08)"/><rect class="cls-40" x="193.72" y="191.18" width="0.31" height="13.65" transform="translate(-10.36 10.71) rotate(-3.08)"/><rect class="cls-41" x="193.41" y="191.2" width="0.31" height="13.65" transform="translate(-10.36 10.69) rotate(-3.08)"/><rect class="cls-42" x="193.1" y="191.22" width="0.31" height="13.65" transform="translate(-10.36 10.67) rotate(-3.08)"/><rect class="cls-43" x="192.79" y="191.23" width="0.31" height="13.65" transform="translate(-10.37 10.66) rotate(-3.08)"/><rect class="cls-44" x="192.48" y="191.25" width="0.31" height="13.65" transform="translate(-10.37 10.64) rotate(-3.08)"/><rect class="cls-48" x="192.18" y="191.27" width="0.31" height="13.65" transform="translate(-10.37 10.62) rotate(-3.08)"/><rect class="cls-49" x="191.87" y="191.28" width="0.31" height="13.65" transform="translate(-10.37 10.61) rotate(-3.08)"/><path class="cls-49" d="M191.5,191.3l.73,13.63Z"/></g><circle class="cls-50" cx="199.34" cy="203.11" r="1.32"/><path class="cls-51" d="M196.14,199l.14,2.53-1.21.06-.13-2.52-2.48-3.51,1.27-.07,1.75,2.54,1.47-2.72,1.27-.06Z"/><circle class="cls-52" cx="200.14" cy="194.43" r="2.66"/><path class="cls-53" d="M202,195.62a2.13,2.13,0,0,1-.76.69,2.66,2.66,0,0,1-1,.23,2,2,0,0,1-.86-.12,1.87,1.87,0,0,1-.66-.42,2.13,2.13,0,0,1-.44-.65,2.39,2.39,0,0,1-.18-.81,2.19,2.19,0,0,1,.11-.86,1.94,1.94,0,0,1,.4-.7,1.89,1.89,0,0,1,.62-.46,2.2,2.2,0,0,1,.82-.2,2,2,0,0,1,.78.11,1.47,1.47,0,0,1,.62.38,1.85,1.85,0,0,1,.43.64,2.86,2.86,0,0,1,.18.88v.21l-3.24.17a1.48,1.48,0,0,0,.45.88,1.29,1.29,0,0,0,.42.26,1.19,1.19,0,0,0,.51.07,1.49,1.49,0,0,0,.73-.19,1.65,1.65,0,0,0,.51-.48Zm-.66-1.61a1.14,1.14,0,0,0-.37-.8,1.19,1.19,0,0,0-.89-.27,1.29,1.29,0,0,0-.89.36,1.26,1.26,0,0,0-.37.84Z"/><circle id="SVGID-4" data-name="SVGID" class="cls-8" cx="203.34" cy="162.57" r="120.04" transform="translate(-55.4 191.4) rotate(-45)"/><g class="cls-54"><rect class="cls-55" x="267.24" y="112.23" width="65.88" height="60.79" transform="translate(188.77 -170.48) rotate(45)"/><path class="cls-56" d="M71,174.41S115.4,156.64,134.83,160c11.81,2,48.3-58.57,48.3-58.57l48.3-36.78,79.11,75.5s57.73-7.07,56.35-5.41-13.33,38.86-19.43,42.75-264,48-269.26,48-8.32-51.07-8.32-51.07Z"/><path class="cls-57" d="M241.6,157.51a6.48,6.48,0,0,0-11.46-4.16,10.16,10.16,0,0,0-16.72-7.27,15.25,15.25,0,0,0-29.35,5.84c0,.19,0,.39,0,.59a5.3,5.3,0,0,0-7.64,5.14c.28,2.81,2.6,6.39,8.29,6.39h32c.16,0,.31,0,.47,0h18A6.48,6.48,0,0,0,241.6,157.51Z"/><path class="cls-57" d="M355.55,150.16A6.49,6.49,0,0,0,344.08,146a10.14,10.14,0,0,0-16.71-7.26A15.25,15.25,0,0,0,298,144.56c0,.2,0,.39,0,.59a5.3,5.3,0,0,0-7.64,5.14c.29,2.81,2.61,6.4,8.29,6.4h32l.48,0h18A6.49,6.49,0,0,0,355.55,150.16Z"/><path class="cls-58" d="M67.93,195.92c1.64-10.59,30.49-14.4,35-15,25.64-3.39,30.44,6.1,56.21,3.75,20.18-1.85-33.29-6-26-9.16,13.74-6,98.68-29.57,220.68-24.15,13.78.61-4.13,62.08-11.94,71.61-10,12.28-25.95,14.19-46.63,15.82-39.9,3.15-59.85,4.73-92.85,2.92-58-3.18-77.75-9.88-84.94-12.49C114,228,65.74,210.13,67.93,195.92Z"/><path class="cls-57" d="M321.92,271.84c0,33.65-3.12,37.75-117.61,37.75s-192.17-26.31-192.17-60C73.76,169.41,242,176.9,314.7,223S321.92,238.18,321.92,271.84Z"/><polygon class="cls-59" points="231.43 64.62 203.53 85.72 213.21 82.37 216.54 85.68 224.19 80.17 230.91 87.66 236.94 80.38 244.07 86.88 246.73 82.2 252.66 84.9 231.43 64.62"/></g><path class="cls-60" d="M76.3,95.06H189.4a7.63,7.63,0,0,1,7.63,7.63v24.49a7.63,7.63,0,0,1-7.62,7.63H76.3a7.62,7.62,0,0,1-7.62-7.62V102.68A7.62,7.62,0,0,1,76.3,95.06Z"/><path class="cls-61" d="M77,233.79v-63H66.21a5.58,5.58,0,0,0-5.58,5.58v51.87a5.57,5.57,0,0,0,5.58,5.57Z"/><path class="cls-60" d="M77,195.1V169.85H62.69a5.57,5.57,0,0,0-5.57,5.58v14.1a5.57,5.57,0,0,0,5.57,5.57Z"/><path class="cls-62" d="M131.62,104.79A12.39,12.39,0,0,1,144,117.12h6.25a18.65,18.65,0,0,0-37.29,0h6.26A12.38,12.38,0,0,1,131.62,104.79Z"/><rect class="cls-62" x="76.82" y="115.81" width="109.6" height="149.4" rx="9.22"/><rect class="cls-63" x="89.2" y="90.17" width="13.68" height="34.53" rx="2.63"/><rect class="cls-62" x="89.2" y="90.17" width="13.68" height="34.53" rx="2.63"/><path class="cls-62" d="M164.79,89.85h8.43a2.63,2.63,0,0,1,2.63,2.63v29.28a2.63,2.63,0,0,1-2.62,2.63h-8.43a2.62,2.62,0,0,1-2.62-2.62V92.47A2.62,2.62,0,0,1,164.79,89.85Z"/><path class="cls-61" d="M186.33,234.21v-63H197.1a5.58,5.58,0,0,1,5.58,5.58v51.86a5.58,5.58,0,0,1-5.58,5.58Z"/><path class="cls-60" d="M186.33,195.52V170.27h14.29a5.58,5.58,0,0,1,5.58,5.58v14.09a5.58,5.58,0,0,1-5.58,5.58Z"/><g class="cls-64"><path class="cls-65" d="M186.32,128c0-6.52-4.12-11.81-9.21-11.81H85.94c-5.09,0-9.22,5.29-9.22,11.81,0,0-3.9,58.86,54.08,58.86S186.32,128,186.32,128Z"/></g><path class="cls-62" d="M186.74,125a9.22,9.22,0,0,0-9.22-9.22H86.36A9.22,9.22,0,0,0,77.14,125S73.24,171,131.22,171,186.74,125,186.74,125Z"/><path class="cls-60" d="M102.52,128.86h0a5.47,5.47,0,0,0-5.46,5.46V206l5.66,4.08L108,206V134.32A5.46,5.46,0,0,0,102.52,128.86Z"/><path class="cls-66" d="M110.26,190.09V177.76a2.19,2.19,0,0,0-2.18-2.18H96.68a2.18,2.18,0,0,0-2.18,2.18v12.33A2.51,2.51,0,0,0,97,192.27V178h11l0,14.26A2.26,2.26,0,0,0,110.26,190.09Z"/><rect class="cls-66" x="100.76" y="175.61" width="3.32" height="7.7" rx="1.64"/><path class="cls-60" d="M161.15,128.86h0a5.46,5.46,0,0,0-5.46,5.46V206l5.66,4.08L166.6,206V134.32A5.46,5.46,0,0,0,161.15,128.86Z"/><path class="cls-66" d="M168.89,190.09V177.76a2.19,2.19,0,0,0-2.19-2.18H155.31a2.19,2.19,0,0,0-2.19,2.18v12.33a2.52,2.52,0,0,0,2.54,2.18V178h11l0,14.26A2.26,2.26,0,0,0,168.89,190.09Z"/><rect class="cls-66" x="159.39" y="175.61" width="3.32" height="7.7" rx="1.64"/><rect class="cls-61" x="98.76" y="214.37" width="61.29" height="44.89" rx="4.99"/><rect class="cls-60" x="98.76" y="214.37" width="61.29" height="22.29" rx="4.99"/><path class="cls-66" d="M134.16,229.44a3.22,3.22,0,1,0-3.22,3.22A3.22,3.22,0,0,0,134.16,229.44Z"/><path class="cls-60" d="M176.62,240.94a21.57,21.57,0,0,1,21.55,22.64,21.55,21.55,0,0,1-31.46,18.1,41.34,41.34,0,0,0-19.25-4.32H131.78V247.69h15.68a42.68,42.68,0,0,0,19.38-4.4A21.66,21.66,0,0,1,176.62,240.94Zm0,33.17h.44a11.79,11.79,0,0,0,11.14-11,11.57,11.57,0,0,0-11.57-12.16,11.39,11.39,0,0,0-5.23,1.25,52.79,52.79,0,0,1-23.93,5.49h-5.68v9.69h5.68a51.18,51.18,0,0,1,23.86,5.45A11.45,11.45,0,0,0,176.61,274.11Z"/><g class="cls-67"><g class="cls-68"><rect class="cls-69" x="151.92" y="244.54" width="12.13" height="38.32" transform="translate(315.98 527.4) rotate(180)"/></g></g><path class="cls-60" d="M84.94,282.44A21.59,21.59,0,0,1,63.39,259.8a21.55,21.55,0,0,1,31.46-18.1A41.34,41.34,0,0,0,114.1,246h15.68v29.67H114.1a42.68,42.68,0,0,0-19.38,4.4A21.66,21.66,0,0,1,84.94,282.44Zm0-33.17h-.44a11.79,11.79,0,0,0-11.14,11,11.57,11.57,0,0,0,11.57,12.16,11.39,11.39,0,0,0,5.23-1.25,52.79,52.79,0,0,1,23.93-5.49h5.68V256H114.1a51.18,51.18,0,0,1-23.86-5.45A11.45,11.45,0,0,0,85,249.27Z"/><path class="cls-60" d="M85.06,305.07a4.17,4.17,0,0,1,0-8.33,24.86,24.86,0,0,0,24.84-24.83,4.16,4.16,0,0,1,8.32,0A33.19,33.19,0,0,1,85.06,305.07Z"/><path class="cls-60" d="M177.08,304.33a33.19,33.19,0,0,1-33.15-33.16,4.16,4.16,0,0,1,8.32,0A24.86,24.86,0,0,0,177.08,296a4.17,4.17,0,1,1,0,8.33Z"/><path class="cls-70" d="M146.17,240.4a7.17,7.17,0,0,0-7.12,6.7,7.13,7.13,0,0,0-14.25-.28,7.16,7.16,0,0,0-14.31.19v40.76a7.14,7.14,0,0,0,14.27.5,7.14,7.14,0,0,0,14.27.28,7.15,7.15,0,0,0,14.3-.22V247.57A7.19,7.19,0,0,0,146.17,240.4Z"/><g class="cls-71"><g class="cls-72"><rect class="cls-73" x="97.5" y="240.52" width="12.13" height="38.32"/></g></g><path class="cls-60" d="M125,290.78a1.67,1.67,0,0,1-1.66-1.67V246.78a1.67,1.67,0,0,1,3.33,0v42.33A1.67,1.67,0,0,1,125,290.78Z"/><path class="cls-60" d="M139.35,291a1.66,1.66,0,0,1-1.67-1.66V247a1.67,1.67,0,0,1,3.34,0v42.33A1.66,1.66,0,0,1,139.35,291Z"/><path class="cls-74" d="M205.85,247.15a13.07,13.07,0,0,0-.28,11.69h0L221.51,293a13.17,13.17,0,0,0,24.2-.79l8.08-18.75c.09-.21.18-.43.26-.66a13.07,13.07,0,0,0-.5-9.9,12.9,12.9,0,0,0-1.83-2.88l-1-1.34-7.93,6.07,1.18,1.56a2.87,2.87,0,0,1,.54.81,3.14,3.14,0,0,1,.12,2.39l-8.17,19a3.18,3.18,0,0,1-5.88.3l-15.93-34.12h0a3.18,3.18,0,0,1,2.35-4.48l11.16-1.87a3.2,3.2,0,0,1,2.86,1l1.46,1.92,7.94-6.07-1.45-1.9a7.93,7.93,0,0,0-.59-.71,13.1,13.1,0,0,0-11.88-4.08l-11.15,1.87A13.07,13.07,0,0,0,205.85,247.15Z"/><path class="cls-60" d="M244.88,250.6l1.6,2.1a1.63,1.63,0,0,1-.25,2.29l-5.87,4.43a1.63,1.63,0,0,1-2.27-.36l-1.6-2.09a1.63,1.63,0,0,1,.24-2.29l5.87-4.43A1.63,1.63,0,0,1,244.88,250.6Z"/><path class="cls-62" d="M242.67,248.07l-2.24-2.93-7.93,6.06,2.24,2.93a1.67,1.67,0,0,0,2.34.31l5.27-4A1.67,1.67,0,0,0,242.67,248.07Z"/><path class="cls-62" d="M240.39,261.51l2.45,3.2,7.92-6.06-2.45-3.2a1.66,1.66,0,0,0-2.33-.31l-5.28,4A1.66,1.66,0,0,0,240.39,261.51Z"/><path class="cls-59" d="M332.28,71.41c-.42-5.27-3.9-8.1-7.87-8.25a23.58,23.58,0,0,0-45.54,8.59c0,.3,0,.61,0,.91A8.18,8.18,0,0,0,267.1,80.6c.43,4.35,4,9.88,12.8,9.88h49.44c7.53-.22,13.54-4.47,13.54-9.68C342.88,76.28,338.38,72.5,332.28,71.41Z"/><path class="cls-59" d="M151,75.14a6.83,6.83,0,0,0-12.07-4.39,10.7,10.7,0,0,0-17.61-7.65,16.06,16.06,0,0,0-30.91,6.15c0,.2,0,.41,0,.62a5.59,5.59,0,0,0-8.05,5.41c.3,3,2.75,6.74,8.73,6.74h33.71l.49,0h19A6.84,6.84,0,0,0,151,75.14Z"/><path class="cls-75" d="M278.94,240.85a.83.83,0,0,1-.83-.83,27.62,27.62,0,0,0-.44-5,.83.83,0,1,1,1.63-.31,28.44,28.44,0,0,1,.48,5.34A.84.84,0,0,1,278.94,240.85Zm-2.63-11.42a.84.84,0,0,1-.73-.43,19.9,19.9,0,0,0-3.88-5,.84.84,0,0,1,0-1.18.82.82,0,0,1,1.17,0A22,22,0,0,1,277,228.2a.83.83,0,0,1-.33,1.13A.82.82,0,0,1,276.31,229.43Zm-9.36-9.2a.81.81,0,0,1-.42-.12,52,52,0,0,0-5.85-3,.83.83,0,0,1,.66-1.53,52.84,52.84,0,0,1,6,3.05.82.82,0,0,1,.29,1.14A.84.84,0,0,1,267,220.23Zm-12.14-5.47a1,1,0,0,1-.29,0l-2.73-1-3.53-1.31a.83.83,0,0,1,.59-1.56c1.16.44,2.34.87,3.52,1.3l2.74,1a.83.83,0,0,1-.3,1.61Zm-12.42-4.86a.84.84,0,0,1-.35-.07,43.08,43.08,0,0,1-5.95-3.27.83.83,0,0,1,.92-1.38,42,42,0,0,0,5.72,3.13.83.83,0,0,1-.34,1.59Zm-10.82-7.57a.84.84,0,0,1-.64-.3,18.57,18.57,0,0,1-3.38-6,.83.83,0,1,1,1.58-.53,16.62,16.62,0,0,0,3.08,5.46.84.84,0,0,1-.1,1.18A.85.85,0,0,1,231.57,202.33Zm-4.3-12.24a.83.83,0,0,1-.83-.82v-.51a17.53,17.53,0,0,1,1.06-6.29.83.83,0,0,1,1.55.59,15.88,15.88,0,0,0-.94,5.7v.48a.83.83,0,0,1-.81.85Zm4.89-11.7a.84.84,0,0,1-.66-.32.83.83,0,0,1,.16-1.17,18.93,18.93,0,0,1,6.21-3,.84.84,0,0,1,1,.57.83.83,0,0,1-.56,1,17.22,17.22,0,0,0-5.67,2.74A.87.87,0,0,1,232.16,178.39Zm12.48-4.15a.83.83,0,0,1-.1-1.66c1.93-.23,4.13-.4,6.72-.51a.87.87,0,0,1,.87.8.84.84,0,0,1-.8.87c-2.55.11-4.71.27-6.59.49Zm13.33-.68a.83.83,0,0,1,0-1.66h.25c2.15,0,4.31-.08,6.41-.15a.84.84,0,0,1,.87.8.83.83,0,0,1-.8.86c-2.12.08-4.29.12-6.45.16H258ZM271.3,173a.82.82,0,0,1-.82-.74.83.83,0,0,1,.73-.92,40.35,40.35,0,0,0,6.43-1.16.83.83,0,0,1,.44,1.6,41.08,41.08,0,0,1-6.69,1.22ZM283.87,169a.81.81,0,0,1-.67-.34.83.83,0,0,1,.18-1.16,10.53,10.53,0,0,0,3.72-4.75.83.83,0,0,1,1.55.61,12.32,12.32,0,0,1-4.29,5.49A.88.88,0,0,1,283.87,169Zm5-11.59a.83.83,0,0,1-.83-.81,14,14,0,0,0-1.38-6,.84.84,0,0,1,.37-1.12.83.83,0,0,1,1.12.37,15.56,15.56,0,0,1,1.55,6.73.84.84,0,0,1-.81.86ZM283,146.26a.78.78,0,0,1-.46-.14,24.87,24.87,0,0,0-5.84-2.64.83.83,0,0,1,.52-1.58,26.18,26.18,0,0,1,6.23,2.83.83.83,0,0,1-.45,1.53Zm-12.48-4.48a.62.62,0,0,1-.19,0l-2.37-.55c-1.35-.32-2.74-.64-4.13-1a.83.83,0,0,1,.4-1.62c1.38.34,2.76.66,4.11,1l2.37.56a.83.83,0,0,1,.62,1A.82.82,0,0,1,270.52,141.78Zm-12.91-3.33a.75.75,0,0,1-.26,0,51.39,51.39,0,0,1-6.3-2.48.83.83,0,0,1,.72-1.5,51.23,51.23,0,0,0,6.09,2.39.84.84,0,0,1,.54,1.05A.83.83,0,0,1,257.61,138.45Zm-11.93-5.79a.82.82,0,0,1-.49-.16A32.6,32.6,0,0,1,240.1,128a.84.84,0,0,1,.05-1.18.82.82,0,0,1,1.17,0,31.82,31.82,0,0,0,4.84,4.27.83.83,0,0,1-.48,1.51ZM236.75,123a.82.82,0,0,1-.71-.4,40.31,40.31,0,0,1-3-6.07.83.83,0,1,1,1.55-.61,38.39,38.39,0,0,0,2.86,5.82.83.83,0,0,1-.28,1.14A.85.85,0,0,1,236.75,123Zm-4.92-12.26a.82.82,0,0,1-.81-.63c-.51-2.07-.94-4.29-1.27-6.6a.84.84,0,0,1,.71-.94.83.83,0,0,1,.94.71,64.9,64.9,0,0,0,1.24,6.43.84.84,0,0,1-.61,1ZM229.91,97.6a.84.84,0,0,1-.83-.78c-.13-2.14-.2-4.39-.2-6.7a.83.83,0,0,1,.83-.83.84.84,0,0,1,.84.83c0,2.28.06,4.49.19,6.59a.82.82,0,0,1-.78.88Z"/><path class="cls-76" d="M231.66,33.39a12.43,12.43,0,0,0-12.43,12.44c0,6.86,12.43,21.69,12.43,21.69S244.1,52.69,244.1,45.83A12.44,12.44,0,0,0,231.66,33.39Zm0,18.72a6.29,6.29,0,1,1,6.28-6.28A6.28,6.28,0,0,1,231.66,52.11Z"/><circle class="cls-62" cx="279.75" cy="240.03" r="5.41"/><path class="cls-59" d="M279.75,234.62a5.41,5.41,0,1,1-5.41,5.41,5.41,5.41,0,0,1,5.41-5.41Zm0-1.67a7.08,7.08,0,1,0,7.08,7.08,7.09,7.09,0,0,0-7.08-7.08Z"/><circle class="cls-62" cx="227.29" cy="192.56" r="5.41"/><path class="cls-59" d="M227.29,187.15a5.42,5.42,0,1,1-5.41,5.41,5.41,5.41,0,0,1,5.41-5.41Zm0-1.66a7.08,7.08,0,1,0,7.08,7.07,7.08,7.08,0,0,0-7.08-7.07Z"/><circle class="cls-62" cx="288.08" cy="150.51" r="5.41"/><path class="cls-59" d="M288.08,145.1a5.41,5.41,0,1,1-5.41,5.41,5.41,5.41,0,0,1,5.41-5.41Zm0-1.67a7.08,7.08,0,1,0,7.08,7.08,7.09,7.09,0,0,0-7.08-7.08Z"/><path class="cls-59" d="M192.17,54.48a5.67,5.67,0,0,0-1.38.18,9,9,0,0,0-17,4.28c0,.12,0,.23,0,.35a3.14,3.14,0,0,0-4.52,3.05c.16,1.66,1.54,3.79,4.91,3.79h17.9v0h.06a5.82,5.82,0,1,0,0-11.64Z"/><ellipse class="cls-77" cx="274.52" cy="185.2" rx="3.75" ry="1.77"/><ellipse class="cls-77" cx="302.26" cy="174.43" rx="3.03" ry="1.43"/><path class="cls-77" d="M299.19,194.42c0,.79-1.36,1.43-3,1.43s-3-.64-3-1.43,1.36-1.44,3-1.44S299.19,193.63,299.19,194.42Z"/><path class="cls-77" d="M262.72,163.6c0,.5-.86.91-1.92.91s-1.93-.41-1.93-.91.86-.91,1.93-.91S262.72,163.1,262.72,163.6Z"/><path class="cls-77" d="M222.23,171.72c0,.5-.86.91-1.93.91s-1.92-.41-1.92-.91.86-.91,1.92-.91S222.23,171.22,222.23,171.72Z"/></svg>