<svg xmlns="http://www.w3.org/2000/svg" xmlns:xlink="http://www.w3.org/1999/xlink" viewBox="0 0 39.9 42.91"><defs><style>.a{fill:none;}.b{clip-path:url(#a);}</style><clipPath id="a" transform="translate(-0.05)"><rect class="a" width="40" height="42.91"/></clipPath></defs><title>Ico_RUTA_3</title><g class="b"><path d="M17.05,6.05a2.57,2.57,0,0,0-4.33,1.23L9.65,19.2l-7.2,7.12a1.27,1.27,0,0,0,0,1.78l.67.67L.42,31.43a1.26,1.26,0,0,0,0,1.78l6.13,6.2a1.27,1.27,0,0,0,1.78,0L11,36.76l.66.67a1.26,1.26,0,0,0,1.78,0l1-1,6,6.07a1.25,1.25,0,0,0,1.78,0l3.68-3.64a1.25,1.25,0,0,0,0-1.78l-6-6.08.74-.73,12-2.94a2.57,2.57,0,0,0,1.27-4.32Zm-9.6,30.7L3.08,32.34l1.8-1.78L9.24,35ZM5.12,27.23l5.66-5.6,7.46,7.53s-5.6,5.54-5.66,5.61ZM23.25,38l-1.9,1.88-5.12-5.18,1.89-1.88Zm8.82-13.08L20.41,27.78l-8.23-8.31,3-11.63a.05.05,0,0,1,.09,0l16.83,17s0,.08,0,.09Z" transform="translate(-0.05)"/><path d="M36,4.15A13.72,13.72,0,0,0,26.27,0,1.25,1.25,0,0,0,25,1.24a1.24,1.24,0,0,0,1.24,1.27A11.32,11.32,0,0,1,37.44,14a1.26,1.26,0,0,0,1.24,1.27h0A1.26,1.26,0,0,0,40,14a13.72,13.72,0,0,0-4-9.83Z" transform="translate(-0.05)"/></g><path d="M26.21,5h0a1.26,1.26,0,1,0,0,2.51A6.28,6.28,0,0,1,32.4,13.9a1.26,1.26,0,0,0,1.24,1.27h0a1.26,1.26,0,0,0,1.25-1.25A8.79,8.79,0,0,0,26.21,5Z" transform="translate(-0.05)"/></svg>