<svg xmlns="http://www.w3.org/2000/svg" xmlns:xlink="http://www.w3.org/1999/xlink" viewBox="0 0 40 40"><defs><style>.a{fill:none;}.b{clip-path:url(#a);}</style><clipPath id="a"><rect class="a" width="40" height="40"/></clipPath></defs><title>Ico_RUTA_1</title><g class="b"><path d="M16.73,15.74a1.17,1.17,0,0,0,1.17-1.17A7.55,7.55,0,0,1,25.44,7a1.17,1.17,0,0,0,0-2.34,9.89,9.89,0,0,0-9.88,9.88,1.17,1.17,0,0,0,1.17,1.17Z"/><path d="M3.66,39.66a1.18,1.18,0,0,0,1.65,0l9.22-9.22a1.16,1.16,0,0,0,0-1.65L13.7,28l2.3-2.3A14.57,14.57,0,1,0,14.34,24L12,26.3l-.83-.83a1.16,1.16,0,0,0-1.65,0L.34,34.69a1.18,1.18,0,0,0,0,1.65Zm9.55-25.1A12.23,12.23,0,1,1,25.44,26.79,12.25,12.25,0,0,1,13.21,14.56ZM10.39,28,12,29.61,4.49,37.17,2.83,35.51Z"/></g></svg>