<svg xmlns="http://www.w3.org/2000/svg" xmlns:xlink="http://www.w3.org/1999/xlink" viewBox="0 0 40 40"><defs><style>.a{fill:none;}.b{clip-path:url(#a);}</style><clipPath id="a" transform="translate(0 0)"><rect class="a" width="40" height="40"/></clipPath></defs><title>Ico_RUTA_5</title><g class="b"><path d="M29.25,1.06a16.61,16.61,0,0,0-7-1,1.17,1.17,0,0,0-1.09,1.17V17.64a1.17,1.17,0,0,0,1.17,1.17H38.79A1.17,1.17,0,0,0,40,17.72,16.58,16.58,0,0,0,29.25,1.06ZM23.53,16.47V2.34A14.27,14.27,0,0,1,37.66,16.47Z" transform="translate(0 0)"/></g><path d="M32,21.19H18.81V8a1.16,1.16,0,0,0-1.09-1.16A16.61,16.61,0,0,0,4.87,35.13,16.6,16.6,0,0,0,33.19,22.28,1.16,1.16,0,0,0,32,21.19ZM7.39,34.27l9.08-9.08V37.66a14.17,14.17,0,0,1-9.08-3.39Zm-.87-21a14.16,14.16,0,0,1,10-4.18V21.87L5.73,32.61a14.26,14.26,0,0,1,.79-19.32Zm12.29,24.2v-14H30.89a14.27,14.27,0,0,1-12.08,14Z" transform="translate(0 0)"/></svg>