<svg xmlns="http://www.w3.org/2000/svg" xmlns:xlink="http://www.w3.org/1999/xlink" viewBox="0 0 40 40"><defs><style>.a{fill:none;}.b{clip-path:url(#a);}</style><clipPath id="a"><rect class="a" width="40" height="40"/></clipPath></defs><title>Ico_RUTA_7</title><g class="b"><path d="M.34,25.91,14.09,39.66a1.19,1.19,0,0,0,1.66,0L32.92,22.48a5.47,5.47,0,0,0,1.34-2.18l2.19-6.79a2.92,2.92,0,0,0-.72-3l-2.3-2.3L39.66,2a1.19,1.19,0,0,0,0-1.66A1.19,1.19,0,0,0,38,.34L31.78,6.57l-2.3-2.3a2.92,2.92,0,0,0-3-.72L19.7,5.74a5.54,5.54,0,0,0-2.18,1.34L.34,24.25a1.19,1.19,0,0,0,0,1.66ZM19.17,8.73A3.22,3.22,0,0,1,20.42,8l6.79-2.19a.6.6,0,0,1,.61.14l2.3,2.3L28.32,10A3.51,3.51,0,1,0,30,11.68l1.8-1.8,2.3,2.3a.6.6,0,0,1,.14.61L32,19.58a3.22,3.22,0,0,1-.76,1.25L14.92,37.17,2.83,25.08ZM27.63,14a1.17,1.17,0,1,1,0-1.65,1.16,1.16,0,0,1,0,1.65Z"/></g></svg>