<svg xmlns="http://www.w3.org/2000/svg" xmlns:xlink="http://www.w3.org/1999/xlink" viewBox="0 0 40 40"><defs><style>.a{fill:none;}.b{clip-path:url(#a);}</style><clipPath id="a"><rect class="a" width="40" height="40"/></clipPath></defs><title>Ico_RUTA_Ico_RUTA_8</title><g class="b"><path d="M25.92,0l-12.13,3L1.46,0A1.17,1.17,0,0,0,0,1.17V35.74a1.18,1.18,0,0,0,.89,1.14c12.86,3.2,12.7,3.21,13.19,3.08l12.13-3,12.33,3A1.17,1.17,0,0,0,40,38.83V4.26a1.17,1.17,0,0,0-.89-1.13C25.78-.19,26.32-.06,25.92,0ZM2.34,2.67,12.62,5.18V37.33L2.34,34.82ZM37.66,37.33,27.38,34.82V29.13a1.18,1.18,0,0,0-2.35,0v5.69L15,37.33V5.18L25,2.67V7.78a1.18,1.18,0,0,0,2.35,0V2.67L37.66,5.18Z"/></g><path d="M26.21,11.3a5.57,5.57,0,0,0-4.39,2.15A5.34,5.34,0,0,0,21,18.61a12,12,0,0,0,1.86,3.16c.5.68.29.38,2.35,3.34a1.18,1.18,0,0,0,1.93,0c2.06-2.95,1.85-2.66,2.35-3.34a12,12,0,0,0,1.86-3.16,5.32,5.32,0,0,0-.79-5.16,5.56,5.56,0,0,0-4.38-2.15Zm2.95,6.54a9.87,9.87,0,0,1-1.53,2.54c-.5.68-.43.59-1.42,2-1-1.41-.92-1.32-1.43-2a9.87,9.87,0,0,1-1.53-2.54,3.06,3.06,0,0,1,.42-3,3.21,3.21,0,0,1,5.07,0,3,3,0,0,1,.42,3Z"/><path d="M27.38,16.89a1.18,1.18,0,1,1-1.17-1.17,1.17,1.17,0,0,1,1.17,1.17Z"/></svg>