<svg xmlns="http://www.w3.org/2000/svg" xmlns:xlink="http://www.w3.org/1999/xlink" viewBox="0 0 40 40"><defs><style>.a{fill:none;}.b{clip-path:url(#a);}</style><clipPath id="a"><rect class="a" width="40" height="40"/></clipPath></defs><title>Ico_RUTA_6</title><g class="b"><path d="M3.42,39.81c.45.27-1.72.17,31.89.17A4.69,4.69,0,0,0,40,35.3V31.78a1.17,1.17,0,0,0-1.17-1.17H36.09V4.9A4.9,4.9,0,0,0,31.19,0h-30A1.17,1.17,0,0,0,0,1.17V35.3a4.68,4.68,0,0,0,3.42,4.51ZM37.66,35.3a2.35,2.35,0,0,1-2.35,2.34H8.75a4.65,4.65,0,0,0,.62-2.34V33H37.66ZM2.34,2.34H31.19A2.56,2.56,0,0,1,33.75,4.9V30.61H8.2A1.18,1.18,0,0,0,7,31.78v3.46a2.35,2.35,0,1,1-4.69.06Z"/></g><path d="M8.49,9.45H27.6a1.17,1.17,0,1,0,0-2.34H8.49a1.17,1.17,0,1,0,0,2.34Z"/><path d="M8.49,14.92H27.6a1.18,1.18,0,1,0,0-2.35H8.49a1.18,1.18,0,0,0,0,2.35Z"/><path d="M8.49,20.38H27.6a1.17,1.17,0,1,0,0-2.34H8.49a1.17,1.17,0,0,0,0,2.34Z"/><path d="M8.49,25.85H27.6a1.18,1.18,0,1,0,0-2.35H8.49a1.18,1.18,0,0,0,0,2.35Z"/></svg>