<svg xmlns="http://www.w3.org/2000/svg" viewBox="0 0 40 40"><title>Ico_RUTA_4</title><path d="M20,12.09A7.91,7.91,0,1,0,27.91,20,7.92,7.92,0,0,0,20,12.09Zm0,13.47A5.56,5.56,0,1,1,25.56,20,5.56,5.56,0,0,1,20,25.56Z"/><path d="M39,15.31,33.4,14.7l-.19-.45L36.7,9.87a1.18,1.18,0,0,0-.09-1.56l-5-5a1.17,1.17,0,0,0-1.56-.08L25.69,6.77,25.3,6.6,24.69,1a1.18,1.18,0,0,0-1.17-1h-7a1.18,1.18,0,0,0-1.17,1L14.7,6.6l-.45.19L9.87,3.3a1.18,1.18,0,0,0-1.56.09l-5,5A1.17,1.17,0,0,0,3.26,10l3.51,4.36-.17.39L1,15.31a1.18,1.18,0,0,0-1,1.17v7a1.18,1.18,0,0,0,1,1.17l5.56.61.19.45L3.3,30.13a1.18,1.18,0,0,0,.09,1.56l5,5a1.17,1.17,0,0,0,1.56.08l4.36-3.51.39.17L15.31,39a1.18,1.18,0,0,0,1.17,1h7a1.18,1.18,0,0,0,1.17-1l.61-5.56.45-.19,4.38,3.49a1.18,1.18,0,0,0,1.56-.09l5-5a1.17,1.17,0,0,0,.08-1.56l-3.51-4.36.17-.39L39,24.69a1.18,1.18,0,0,0,1-1.17v-7a1.18,1.18,0,0,0-1-1.17Zm-1.3,7.16-5.24.58a1.16,1.16,0,0,0-1,.79,13.14,13.14,0,0,1-.62,1.5A1.16,1.16,0,0,0,31,26.59l3.31,4.11-3.49,3.51-4.13-3.29a1.18,1.18,0,0,0-1.25-.13,11,11,0,0,1-1.55.64,1.18,1.18,0,0,0-.79,1l-.58,5.24H17.53L17,32.42a1.16,1.16,0,0,0-.79-1,13.14,13.14,0,0,1-1.5-.62A1.18,1.18,0,0,0,13.4,31L9.3,34.26,5.79,30.77l3.29-4.13a1.18,1.18,0,0,0,.13-1.25,11,11,0,0,1-.64-1.55,1.18,1.18,0,0,0-1-.79l-5.24-.58V17.53L7.58,17a1.16,1.16,0,0,0,1-.79,13.14,13.14,0,0,1,.62-1.5,1.16,1.16,0,0,0-.13-1.25L5.74,9.3,9.23,5.79l4.13,3.29a1.18,1.18,0,0,0,1.25.13,11,11,0,0,1,1.55-.64,1.18,1.18,0,0,0,.79-1l.58-5.24h4.94l.58,5.24a1.16,1.16,0,0,0,.79,1,13.14,13.14,0,0,1,1.5.62,1.16,1.16,0,0,0,1.25-.13L30.7,5.74l3.51,3.49-3.29,4.13a1.18,1.18,0,0,0-.13,1.25,11,11,0,0,1,.64,1.55,1.18,1.18,0,0,0,1,.79l5.24.58Z"/><path d="M21.17,20A1.17,1.17,0,1,1,20,18.83,1.17,1.17,0,0,1,21.17,20Z"/></svg>