<svg xmlns="http://www.w3.org/2000/svg" xmlns:xlink="http://www.w3.org/1999/xlink" viewBox="0 0 39.84 44.91"><defs><style>.a{fill:none;}.b{clip-path:url(#a);}</style><clipPath id="a" transform="translate(-0.08)"><rect class="a" width="40" height="44.91"/></clipPath></defs><title>Ico_RUTA_2</title><path d="M.08,43.6A1.32,1.32,0,0,0,1.4,44.91H6.66A1.32,1.32,0,0,0,8,43.6V37.46a1.32,1.32,0,0,0-1.32-1.32H1.4A1.32,1.32,0,0,0,.08,37.46Zm2.63-4.83H5.34v3.51H2.71Z" transform="translate(-0.08)"/><path d="M18.5,43.6V31a1.31,1.31,0,0,0-1.31-1.31H11.92A1.31,1.31,0,0,0,10.61,31V43.6a1.31,1.31,0,0,0,1.31,1.31h5.27A1.31,1.31,0,0,0,18.5,43.6Zm-2.63-1.32H13.24v-10h2.63Z" transform="translate(-0.08)"/><path d="M29,43.6V21.2a1.32,1.32,0,0,0-1.32-1.32H22.45a1.32,1.32,0,0,0-1.32,1.32V43.6a1.32,1.32,0,0,0,1.32,1.31h5.26A1.32,1.32,0,0,0,29,43.6ZM26.4,42.28H23.76V22.51H26.4Z" transform="translate(-0.08)"/><g class="b"><path d="M39.55,43.6V11.49a1.31,1.31,0,0,0-1.31-1.31H33a1.31,1.31,0,0,0-1.31,1.31V43.6A1.31,1.31,0,0,0,33,44.91h5.27a1.31,1.31,0,0,0,1.31-1.31Zm-2.63-1.32H34.29V12.81h2.63Z" transform="translate(-0.08)"/><path d="M39.34.23a1.31,1.31,0,0,0-1.82.35l-3,4.34h-4.5a1.3,1.3,0,0,0-1.16.7l-4.71,9H19.82a1.32,1.32,0,0,0-1.16.68l-5,9.07H9.29a1.32,1.32,0,0,0-1.08.57L4.13,30.88H1.4a1.32,1.32,0,1,0,0,2.63H4.82a1.3,1.3,0,0,0,1.08-.57L10,27h4.49a1.31,1.31,0,0,0,1.15-.68l5-9.07H25a1.32,1.32,0,0,0,1.17-.71l4.71-9h4.39A1.31,1.31,0,0,0,36.35,7l3.34-4.91A1.32,1.32,0,0,0,39.34.23Z" transform="translate(-0.08)"/></g></svg>