<svg xmlns="http://www.w3.org/2000/svg" viewBox="0 0 154.05 141.77"><defs><style>.a{fill:#ccc;}.b{fill:#fff;}.c{fill:#2f2e41;}.d{fill:#03c;}.e{fill:#a0616a;}.f{fill:#3f3d56;}.g{fill:#e6e6e6;}.h{fill:#b3b3b3;}.i{fill:#ffb8b8;}</style></defs><title>Recurso 1</title><path class="a" d="M144.34,36.53c.33.54.65,1.08,1,1.63A8.93,8.93,0,0,1,144,36.77Z" transform="translate(-0.25 -0.25)"/><path class="a" d="M145.73,38.89l-.42-.73a2.91,2.91,0,0,1,.49.62Z" transform="translate(-0.25 -0.25)"/><path class="b" d="M72.74,32.52A10.72,10.72,0,0,0,70.87,35a18.56,18.56,0,0,1-8.3-10.87c0-.15-.09-.3-.13-.46a18.2,18.2,0,0,1-.57-4.53,18.47,18.47,0,0,1,36.93.05,18.27,18.27,0,0,1-.56,4.48l-.12.46A18.34,18.34,0,0,1,90.3,34.67a10.68,10.68,0,0,0-1.71-2.19A11.2,11.2,0,0,0,72.74,32.52Zm16.3-17A9.28,9.28,0,1,0,74.21,23h0a6.69,6.69,0,0,0,2.17,1.87A6.88,6.88,0,0,0,85,23.18,9.22,9.22,0,0,0,89,15.55Z" transform="translate(-0.25 -0.25)"/><path class="b" d="M133,137.5a11.13,11.13,0,0,0-15.65,1.67,3.62,3.62,0,0,1-.33-.2l-.2-.12a18.54,18.54,0,0,1-7.15-8.13c-.07-.15-.14-.3-.2-.45a18.48,18.48,0,0,1,17-25.6c.31,0,.62,0,.92,0s.31,0,.46,0a18.48,18.48,0,0,1,17,19.82,20.17,20.17,0,0,1-.27,2,18.5,18.5,0,0,1-2,5.44l0,.09a18.48,18.48,0,0,1-7.66,7.41,10.4,10.4,0,0,0-1.06-1.23A8.66,8.66,0,0,0,133,137.5Zm3.7-21.29a7.82,7.82,0,0,0-.2-3l-.2.65a1.85,1.85,0,0,0-2.37-1.37,2.66,2.66,0,0,0-1.58,1.52,9.21,9.21,0,0,0-9.66-.74,13.49,13.49,0,0,0-.24-1.55l-.2.65a1.85,1.85,0,0,0-2.37-1.37,3,3,0,0,0-1.86,2.35,3.38,3.38,0,0,0,.46,2.54,2.29,2.29,0,0,0,.65.63,9.24,9.24,0,0,0-1.43,4.94,9.12,9.12,0,0,0,2,5.73,5.77,5.77,0,0,0,.35.76,6.85,6.85,0,0,0,9.31,2.73,6.61,6.61,0,0,0,1-.69,9.23,9.23,0,0,0,5.73-8.53,9.12,9.12,0,0,0-.63-3.36A3,3,0,0,0,136.66,116.21Z" transform="translate(-0.25 -0.25)"/><path class="b" d="M32.86,72.32a18.47,18.47,0,0,1,0,24.64l-.46.48a18.49,18.49,0,0,1-3.32,2.73,11.22,11.22,0,0,0-19.44.31A18.46,18.46,0,0,1,28.55,68.77a18.07,18.07,0,0,1,3.85,3.06C32.56,72,32.71,72.15,32.86,72.32Zm-3,5.16a4.66,4.66,0,0,0-1.07-3.15,3.1,3.1,0,0,0-2.79-1A4.84,4.84,0,0,0,21.56,71a9.42,9.42,0,0,0-2.73.76l-.16.06h-.13a9.28,9.28,0,0,0-3.49,17.87,6.61,6.61,0,0,0,1,.69,6.89,6.89,0,0,0,9.36-2.75,7,7,0,0,0,.37-.78,9,9,0,0,0,1.44-2.55c0,.21,0,.43,0,.64a25,25,0,0,0,1.91-4.1A10.11,10.11,0,0,0,29.89,77.48Z" transform="translate(-0.25 -0.25)"/><path class="b" d="M68.65,51.41h34.86a1.63,1.63,0,0,0,0-3.26H68.65a1.63,1.63,0,1,0,0,3.26Zm0,24.66h34.86a1.63,1.63,0,0,0,0-3.26H68.65a1.63,1.63,0,0,0,0,3.26Zm0,24.66h34.86a1.63,1.63,0,1,0,0-3.26H68.65a1.63,1.63,0,0,0,0,3.26ZM110.23,103H68.65a1.63,1.63,0,0,0,0,3.26h41.58a1.63,1.63,0,0,0,0-3.26Zm0-24.67H68.65A1.63,1.63,0,0,0,67,80a1.62,1.62,0,0,0,1.63,1.62h41.59a1.63,1.63,0,1,0,0-3.26Zm0-24.66H68.65a1.63,1.63,0,1,0,0,3.26h41.59a1.63,1.63,0,1,0,0-3.26Zm17-17.17a1,1,0,0,1,.12.52v67.28c-.3,0-.61,0-.92,0a18.9,18.9,0,0,0-17.49,26H39.15a6.31,6.31,0,0,1-6.29-6.3V97.58a18.89,18.89,0,0,0,0-25.88V30.41a6.29,6.29,0,0,1,6.29-6.29h23a18.88,18.88,0,0,0,36.42,0h12.76a1.34,1.34,0,0,1,.4.06.51.51,0,0,0,0,.13v8.75a3.49,3.49,0,0,0,3.49,3.49H127A.42.42,0,0,0,127.26,36.48ZM59.9,52.53a5.76,5.76,0,1,0-5.76,5.76A5.76,5.76,0,0,0,59.9,52.53Zm0,24.66A5.76,5.76,0,1,0,54.14,83,5.76,5.76,0,0,0,59.9,77.19Zm0,24.66a5.76,5.76,0,1,0-5.76,5.77A5.76,5.76,0,0,0,59.9,101.85Z" transform="translate(-0.25 -0.25)"/><path class="a" d="M154.26,69c0,.4,0,.79,0,1.19h-.46c0-.39,0-.79,0-1.18s0-1-.07-1.53l.45,0C154.21,68,154.24,68.5,154.26,69Z" transform="translate(-0.25 -0.25)"/><path class="a" d="M153.85,72.93h.45c0,.91-.05,1.83-.11,2.73l-.45,0C153.79,74.74,153.83,73.83,153.85,72.93Z" transform="translate(-0.25 -0.25)"/><path class="a" d="M153.52,78.34l.45,0c-.09.9-.2,1.81-.33,2.71l-.45-.07C153.32,80.14,153.43,79.24,153.52,78.34Z" transform="translate(-0.25 -0.25)"/><path class="a" d="M154,64.75l-.45,0c-.09-.9-.21-1.8-.34-2.69l.45-.07C153.74,62.94,153.86,63.85,154,64.75Z" transform="translate(-0.25 -0.25)"/><path class="a" d="M152.75,83.71l.44.08c-.16.89-.35,1.79-.55,2.68l-.44-.1C152.4,85.49,152.58,84.6,152.75,83.71Z" transform="translate(-0.25 -0.25)"/><path class="a" d="M153.16,59.35l-.44.08c-.17-.88-.36-1.78-.56-2.66l.44-.1C152.81,57.56,153,58.46,153.16,59.35Z" transform="translate(-0.25 -0.25)"/><path class="a" d="M151.54,89l.44.12c-.24.87-.5,1.75-.78,2.62l-.43-.14C151,90.74,151.3,89.87,151.54,89Z" transform="translate(-0.25 -0.25)"/><path class="a" d="M151.94,54l-.44.12c-.24-.87-.5-1.74-.77-2.6l.43-.14C151.44,52.27,151.7,53.15,151.94,54Z" transform="translate(-0.25 -0.25)"/><path class="a" d="M149.9,94.17l.42.15c-.31.85-.64,1.71-1,2.55l-.42-.17C149.26,95.87,149.59,95,149.9,94.17Z" transform="translate(-0.25 -0.25)"/><path class="a" d="M150.28,48.82l-.43.15c-.3-.84-.63-1.7-1-2.53l.43-.17C149.64,47.11,150,48,150.28,48.82Z" transform="translate(-0.25 -0.25)"/><path class="a" d="M148.25,99.38c-.13.29-.26.57-.4.85l-.32.13-.1-.3c.14-.29.28-.58.41-.87Z" transform="translate(-0.25 -0.25)"/><path class="a" d="M148.21,43.76l-.42.19c-.37-.82-.77-1.64-1.18-2.44l.41-.21C147.43,42.11,147.83,42.94,148.21,43.76Z" transform="translate(-0.25 -0.25)"/><path class="a" d="M147.85,100.23l-.18.39-.41-.2c.06-.12.12-.24.17-.36l.1.3Z" transform="translate(-0.25 -0.25)"/><path class="a" d="M147.67,100.62l.18-.39,1.75-.72.17.42-2.52,1-.86-2.59.44-.14.6,1.83c-.05.12-.11.24-.17.36Z" transform="translate(-0.25 -0.25)"/><path class="a" d="M142.86,34.24l-.38.25c-.5-.75-1-1.49-1.56-2.22l.36-.27C141.82,32.73,142.35,33.48,142.86,34.24Z" transform="translate(-0.25 -0.25)"/><path class="a" d="M139.62,29.83l-.36.29c-.56-.71-1.15-1.41-1.74-2.09l.34-.29C138.46,28.42,139.05,29.13,139.62,29.83Z" transform="translate(-0.25 -0.25)"/><path class="c" d="M136.46,113.21a7.82,7.82,0,0,1,.2,3,3,3,0,0,1-1.2,1.89,9.37,9.37,0,0,0-3.15-4.09,2.66,2.66,0,0,1,1.58-1.52,1.85,1.85,0,0,1,2.37,1.37Z" transform="translate(-0.25 -0.25)"/><path class="a" d="M136,25.71l-.33.31c-.62-.65-1.26-1.3-1.9-1.93l.31-.33C134.75,24.4,135.4,25.05,136,25.71Z" transform="translate(-0.25 -0.25)"/><path class="d" d="M135.17,139.88h0c-.32.17-.66.33-1,.48.33-.15.66-.32,1-.49Z" transform="translate(-0.25 -0.25)"/><path class="c" d="M132.49,117.38a3.34,3.34,0,0,1-.45-2.54,3.66,3.66,0,0,1,.27-.83,9.37,9.37,0,0,1,3.15,4.09,2,2,0,0,1-.67.28A2.33,2.33,0,0,1,132.49,117.38Z" transform="translate(-0.25 -0.25)"/><path class="c" d="M133.24,120.35l-.84.75a1.28,1.28,0,0,0,.19-.34C132.81,120.63,133,120.5,133.24,120.35Z" transform="translate(-0.25 -0.25)"/><path class="d" d="M133.1,140.36l-.36.14a18.7,18.7,0,0,1-2.46.7c-.62.13-1.25.23-1.88.3-.39,0-.78.07-1.18.08l-.76,0a18.66,18.66,0,0,1-3.41-.32,17.75,17.75,0,0,1-5-1.68l-.33-.17-.45-.26h0A11.13,11.13,0,0,1,133,137.5a8.66,8.66,0,0,1,.9.81,10.4,10.4,0,0,1,1.06,1.23c-.32.17-.65.32-1,.47S133.39,140.25,133.1,140.36Z" transform="translate(-0.25 -0.25)"/><path class="e" d="M132.05,121.38a6.85,6.85,0,0,1-1.69,8.61,9.22,9.22,0,0,1-10.69-2.8,6.82,6.82,0,0,1,.33-5.76,2,2,0,0,0,.89,1,4.82,4.82,0,0,0,1.61.56,18.75,18.75,0,0,0,7.68,0,5.66,5.66,0,0,1-2.27-.93,9.25,9.25,0,0,0,4-.88Z" transform="translate(-0.25 -0.25)"/><path class="a" d="M132.1,21.9l-.3.34c-.67-.6-1.37-1.2-2.06-1.77l.29-.35C130.73,20.69,131.43,21.29,132.1,21.9Z" transform="translate(-0.25 -0.25)"/><path class="c" d="M122.75,118.65a6.83,6.83,0,0,1,9.14,2.47,9.25,9.25,0,0,1-4,.88,5.66,5.66,0,0,0,2.27.93,18.75,18.75,0,0,1-7.68,0,4.82,4.82,0,0,1-1.61-.56,2,2,0,0,1-.89-1A6.81,6.81,0,0,1,122.75,118.65Z" transform="translate(-0.25 -0.25)"/><path class="e" d="M130.36,130a6.61,6.61,0,0,1-1,.69A6.85,6.85,0,0,1,120,128a5.77,5.77,0,0,1-.35-.76,9.22,9.22,0,0,0,10.69,2.8Z" transform="translate(-0.25 -0.25)"/><path class="a" d="M127.88,18.42l-.28.36c-.71-.54-1.45-1.07-2.19-1.59l.26-.37C126.41,17.34,127.16,17.87,127.88,18.42Z" transform="translate(-0.25 -0.25)"/><path class="f" d="M144.87,124.55a18.48,18.48,0,0,0-17-19.82v-.43a18.88,18.88,0,0,1,15.13,28l0,.05a19,19,0,0,1-7.77,7.54h0a2.62,2.62,0,0,0-.24-.34,18.48,18.48,0,0,0,7.66-7.41l0-.09a18.5,18.5,0,0,0,2-5.44A20.17,20.17,0,0,0,144.87,124.55Z" transform="translate(-0.25 -0.25)"/><path class="f" d="M127.84,37v67.3l-.46,0V37a1,1,0,0,0-.12-.52l.1-.09a.44.44,0,0,0,0-.54A1.62,1.62,0,0,1,127.84,37Z" transform="translate(-0.25 -0.25)"/><path class="f" d="M127.38,104.28l.46,0v.43c-.15,0-.3,0-.46,0Z" transform="translate(-0.25 -0.25)"/><path class="f" d="M127.35,35.84h0Z" transform="translate(-0.25 -0.25)"/><path class="g" d="M127,36.1H115.18a3,3,0,0,1-3-3V24.37l.09.06Z" transform="translate(-0.25 -0.25)"/><path class="a" d="M123.39,15.31l-.24.38c-.76-.48-1.54-.95-2.33-1.41l.23-.39C121.84,14.35,122.63,14.82,123.39,15.31Z" transform="translate(-0.25 -0.25)"/><path class="c" d="M122.6,114.72a2.67,2.67,0,0,1-1.86,2.17,2.12,2.12,0,0,1-1.65-.37,9.28,9.28,0,0,1,3.56-3.25A4.71,4.71,0,0,1,122.6,114.72Z" transform="translate(-0.25 -0.25)"/><path class="c" d="M122.21,112.37l.2-.65a13.49,13.49,0,0,1,.24,1.55,9.28,9.28,0,0,0-3.56,3.25,2.29,2.29,0,0,1-.65-.63,3.38,3.38,0,0,1-.46-2.54,3,3,0,0,1,1.86-2.35A1.85,1.85,0,0,1,122.21,112.37Z" transform="translate(-0.25 -0.25)"/><path class="c" d="M132.59,120.76c-.23.13-.46.25-.7.36a6.84,6.84,0,0,0-11.89.31,1.8,1.8,0,0,1-.1-.33,2.74,2.74,0,0,1,1.36-2.43A10,10,0,0,1,129.7,117a4.63,4.63,0,0,1,2.49,1.42A2.33,2.33,0,0,1,132.59,120.76Z" transform="translate(-0.25 -0.25)"/><path class="c" d="M117.66,121.46a9.24,9.24,0,0,1,1.43-4.94,2.12,2.12,0,0,0,1.65.37,2.67,2.67,0,0,0,1.86-2.17,4.71,4.71,0,0,0,.05-1.45,9.21,9.21,0,0,1,9.66.74,3.66,3.66,0,0,0-.27.83,3.34,3.34,0,0,0,.45,2.54,2.33,2.33,0,0,0,2.3,1,2,2,0,0,0,.67-.28,9.12,9.12,0,0,1,.63,3.36,9.23,9.23,0,0,1-5.73,8.53,6.85,6.85,0,0,0,1.69-8.61l-.16-.26c.24-.11.47-.23.7-.36a1.28,1.28,0,0,1-.19.34l.84-.75c-.21.15-.43.28-.65.41a2.33,2.33,0,0,0-.4-2.36A4.63,4.63,0,0,0,129.7,117a10,10,0,0,0-8.44,1.69,2.74,2.74,0,0,0-1.36,2.43,1.8,1.8,0,0,0,.1.33,6.82,6.82,0,0,0-.33,5.76A9.12,9.12,0,0,1,117.66,121.46Z" transform="translate(-0.25 -0.25)"/><path class="g" d="M118.66,12.57l-.21.4-.86-.44-.1-.29.35-.09Z" transform="translate(-0.25 -0.25)"/><path class="a" d="M117.44,11.94l.4.21-.35.09.1.29-.35-.18Z" transform="translate(-0.25 -0.25)"/><path class="a" d="M116.9,11.93l2.63-.72.12.44-1.81.5-.4-.21-.2.41.35.18.65,1.82-.43.15Z" transform="translate(-0.25 -0.25)"/><path class="f" d="M122.05,141.5a19,19,0,0,1-4.13-1.52l-.35-.19c-.18-.09-.35-.19-.52-.29l.26-.33h0l.45.26.33.17a17.75,17.75,0,0,0,5,1.68,18.66,18.66,0,0,0,3.41.32l.76,0c.4,0,.79,0,1.18-.08.63-.07,1.26-.17,1.88-.3a18.7,18.7,0,0,0,2.46-.7l.36-.14c.29-.11.57-.23.84-.35s.66-.3,1-.47a2.62,2.62,0,0,1,.24.34c-.32.17-.65.34-1,.49s-.62.27-.94.39l-.35.13a18.49,18.49,0,0,1-2.85.79c-.48.09-1,.17-1.46.22s-.82.08-1.23.1l-.89,0a18.9,18.9,0,0,1-3.52-.33Z" transform="translate(-0.25 -0.25)"/><path class="f" d="M112.39,24l.15.12a2,2,0,0,0-.31-.19A.33.33,0,0,1,112.39,24Z" transform="translate(-0.25 -0.25)"/><path class="g" d="M112.23,24.43l-.09-.06h0Z" transform="translate(-0.25 -0.25)"/><path class="f" d="M127.15,36a.21.21,0,0,1,0,.29.1.1,0,0,1,0,0,.81.81,0,0,0-.18-.19L112.23,24.43l-.09-.07h0l-.21-.11a.19.19,0,0,1,.19-.15.2.2,0,0,1,.13,0Z" transform="translate(-0.25 -0.25)"/><path class="f" d="M127,36.32H115.18a3.26,3.26,0,0,1-3.26-3.26V24.31a.09.09,0,0,1,0,0l.21.11v8.69a3,3,0,0,0,3,3H127a.81.81,0,0,1,.18.19A.2.2,0,0,1,127,36.32Z" transform="translate(-0.25 -0.25)"/><path class="f" d="M127.36,35.85a.44.44,0,0,1,0,.54l-.1.09a1,1,0,0,0-.12-.19.1.1,0,0,0,0,0,.21.21,0,0,0,0-.29l-14.9-11.81a.2.2,0,0,0-.13,0,.19.19,0,0,0-.19.15.83.83,0,0,0-.22-.08.42.42,0,0,1,.41-.3.2.2,0,0,1,.11,0,2,2,0,0,1,.31.19l14.75,11.69.06.06Z" transform="translate(-0.25 -0.25)"/><path class="f" d="M115.18,36.32H127a.2.2,0,0,0,.11,0,1,1,0,0,1,.12.19.42.42,0,0,1-.23.07H115.18a3.49,3.49,0,0,1-3.49-3.49V24.31a.51.51,0,0,1,0-.13.83.83,0,0,1,.22.08.09.09,0,0,0,0,0v8.75A3.26,3.26,0,0,0,115.18,36.32Z" transform="translate(-0.25 -0.25)"/><path class="f" d="M111.71,24.18a1.34,1.34,0,0,0-.4-.06H98.55c0-.15.08-.3.12-.46h12.64a1.86,1.86,0,0,1,.92.24.2.2,0,0,0-.11,0A.42.42,0,0,0,111.71,24.18Z" transform="translate(-0.25 -0.25)"/><path class="h" d="M111.87,55.28a1.63,1.63,0,0,1-1.63,1.63H68.65a1.63,1.63,0,1,1,0-3.26h41.58A1.64,1.64,0,0,1,111.87,55.28Z" transform="translate(-0.25 -0.25)"/><path class="a" d="M111.87,79.94a1.63,1.63,0,0,1-1.63,1.63H68.65A1.62,1.62,0,0,1,67,80a1.63,1.63,0,0,1,1.63-1.64h41.58A1.64,1.64,0,0,1,111.87,79.94Z" transform="translate(-0.25 -0.25)"/><path class="a" d="M110.23,103a1.63,1.63,0,0,1,0,3.26H68.65a1.63,1.63,0,0,1,0-3.26Z" transform="translate(-0.25 -0.25)"/><path class="f" d="M117,139a3.62,3.62,0,0,0,.33.2l-.26.33-.3-.17-.12-.07a19,19,0,0,1-7.46-8.54h.46a18.54,18.54,0,0,0,7.15,8.13Z" transform="translate(-0.25 -0.25)"/><path class="f" d="M109.43,130.27c.06.15.13.3.2.45h-.46c-.07-.15-.14-.3-.2-.45Z" transform="translate(-0.25 -0.25)"/><path class="f" d="M126.46,104.67a18.48,18.48,0,0,0-17,25.6H109a18.9,18.9,0,0,1,17.49-26c.31,0,.62,0,.92,0v.42C127.08,104.68,126.77,104.67,126.46,104.67Z" transform="translate(-0.25 -0.25)"/><path class="h" d="M103.51,48.15a1.63,1.63,0,0,1,0,3.26H68.65a1.63,1.63,0,1,1,0-3.26Z" transform="translate(-0.25 -0.25)"/><path class="a" d="M103.51,72.81a1.63,1.63,0,0,1,0,3.26H68.65a1.63,1.63,0,0,1,0-3.26Z" transform="translate(-0.25 -0.25)"/><path class="a" d="M103.51,97.47a1.63,1.63,0,1,1,0,3.26H68.65a1.63,1.63,0,0,1,0-3.26Z" transform="translate(-0.25 -0.25)"/><path class="f" d="M98.67,23.66c0,.16-.07.31-.12.46h-.43l.12-.46Z" transform="translate(-0.25 -0.25)"/><path class="d" d="M88.59,32.48a10.68,10.68,0,0,1,1.71,2.19,18.38,18.38,0,0,1-15,2.24A18.62,18.62,0,0,1,70.87,35a10.72,10.72,0,0,1,1.87-2.47A11.2,11.2,0,0,1,88.59,32.48Z" transform="translate(-0.25 -0.25)"/><path class="c" d="M86.14,16.28a2.62,2.62,0,0,1-.34.24,5,5,0,0,1-1.62.56,19,19,0,0,1-7.74,0,5.87,5.87,0,0,0,2.28-.94A9.3,9.3,0,0,1,74,14.86a6.9,6.9,0,0,1,12.11,1.42Z" transform="translate(-0.25 -0.25)"/><path class="i" d="M79.77,24.82A9.13,9.13,0,0,0,85,23.18a6.88,6.88,0,0,1-8.63,1.66A6.69,6.69,0,0,1,74.22,23,9.23,9.23,0,0,0,79.77,24.82Z" transform="translate(-0.25 -0.25)"/><path class="c" d="M86.14,16.28A6.9,6.9,0,0,0,74,14.86h0a2.41,2.41,0,0,1,.4-2.38,4.65,4.65,0,0,1,2.52-1.42,10.09,10.09,0,0,1,8.49,1.69,2.77,2.77,0,0,1,1.37,2.45A2,2,0,0,1,86.14,16.28Z" transform="translate(-0.25 -0.25)"/><path class="c" d="M74.2,15.19,74,15l.07-.09A1.92,1.92,0,0,0,74.2,15.19Z" transform="translate(-0.25 -0.25)"/><path class="c" d="M74,14.86s0,0,0,0,0,0,0,0Z" transform="translate(-0.25 -0.25)"/><path class="i" d="M84.18,17.08a5,5,0,0,0,1.62-.56,2.62,2.62,0,0,0,.34-.24,6.87,6.87,0,0,1-.38,5.81A6.33,6.33,0,0,1,85,23.18a9.13,9.13,0,0,1-5.25,1.64A9.23,9.23,0,0,1,74.22,23h0a6.89,6.89,0,0,1-.56-7.49c.09-.17.2-.34.3-.5l.25.22a1.92,1.92,0,0,1-.18-.31s0,0,0,0a9.3,9.3,0,0,0,4.69,1.24,5.87,5.87,0,0,1-2.28.94A19,19,0,0,0,84.18,17.08Z" transform="translate(-0.25 -0.25)"/><path class="c" d="M74,14.85s0,0,0,0L74,15l-.59-.53C73.57,14.59,73.79,14.72,74,14.85Z" transform="translate(-0.25 -0.25)"/><path class="c" d="M70.49,15.55A9.28,9.28,0,1,1,85,23.18a6.33,6.33,0,0,0,.74-1.09,6.87,6.87,0,0,0,.38-5.81,2,2,0,0,0,.65-1.09,2.77,2.77,0,0,0-1.37-2.45,10.09,10.09,0,0,0-8.49-1.69,4.65,4.65,0,0,0-2.52,1.42,2.41,2.41,0,0,0-.4,2.38c-.22-.13-.44-.26-.65-.41L74,15c-.1.16-.21.33-.3.5A6.89,6.89,0,0,0,74.21,23,9.2,9.2,0,0,1,70.49,15.55Z" transform="translate(-0.25 -0.25)"/><path class="f" d="M90.41,34.86a18.7,18.7,0,0,1-19.65.31,1.74,1.74,0,0,1,.11-.18,18.62,18.62,0,0,0,4.47,1.92,18.38,18.38,0,0,0,15-2.24l0,.06Z" transform="translate(-0.25 -0.25)"/><path class="f" d="M70.76,35.17a18.7,18.7,0,0,0,19.65-.31l-.07-.13,0-.06a18.34,18.34,0,0,0,7.82-10.55h.43a18.88,18.88,0,0,1-36.42,0h.44A18.56,18.56,0,0,0,70.87,35,1.74,1.74,0,0,0,70.76,35.17Z" transform="translate(-0.25 -0.25)"/><path class="f" d="M62.44,23.66c0,.16.08.31.13.46h-.44L62,23.66Z" transform="translate(-0.25 -0.25)"/><path class="f" d="M61.45,19.13a18.88,18.88,0,1,1,37.22,4.53h-.43a18.27,18.27,0,0,0,.56-4.48,18.47,18.47,0,0,0-36.93-.05,18.2,18.2,0,0,0,.57,4.53H62A18.67,18.67,0,0,1,61.45,19.13Z" transform="translate(-0.25 -0.25)"/><path class="d" d="M56.37,50.47a.6.6,0,0,0-.84.11l-2.07,2.7-.88-.67a.6.6,0,0,0-.73,1l1.35,1h0a.58.58,0,0,0,.36.12.61.61,0,0,0,.48-.24l2.44-3.18A.6.6,0,0,0,56.37,50.47Zm-2.23-3.7a5.76,5.76,0,1,1-5.76,5.76A5.76,5.76,0,0,1,54.14,46.77Z" transform="translate(-0.25 -0.25)"/><path class="g" d="M56.37,75.13a.6.6,0,0,0-.84.11L53.46,78l-.88-.68a.6.6,0,0,0-.84.12.59.59,0,0,0,.11.84l1.35,1h0a.58.58,0,0,0,.36.12.61.61,0,0,0,.48-.24L56.49,76A.61.61,0,0,0,56.37,75.13Zm-2.23-3.7a5.77,5.77,0,1,1-5.76,5.76A5.76,5.76,0,0,1,54.14,71.43Z" transform="translate(-0.25 -0.25)"/><path class="g" d="M56.37,99.79a.6.6,0,0,0-.84.12l-2.07,2.7-.88-.67a.6.6,0,0,0-.84.11.59.59,0,0,0,.11.84l1.35,1h0a.58.58,0,0,0,.36.12.6.6,0,0,0,.48-.23l2.44-3.18A.61.61,0,0,0,56.37,99.79Zm-2.23-3.7a5.77,5.77,0,1,1-5.76,5.76A5.76,5.76,0,0,1,54.14,96.09Z" transform="translate(-0.25 -0.25)"/><path class="b" d="M56.37,50.47a.6.6,0,0,1,.12.84l-2.44,3.18a.61.61,0,0,1-.48.24.58.58,0,0,1-.36-.12h0l-1.35-1a.6.6,0,0,1,.73-1l.88.67,2.07-2.7A.6.6,0,0,1,56.37,50.47Z" transform="translate(-0.25 -0.25)"/><path class="b" d="M56.37,75.13a.61.61,0,0,1,.12.85l-2.44,3.17a.61.61,0,0,1-.48.24.58.58,0,0,1-.36-.12h0l-1.35-1a.59.59,0,0,1-.11-.84.6.6,0,0,1,.84-.12l.88.68,2.07-2.71A.6.6,0,0,1,56.37,75.13Z" transform="translate(-0.25 -0.25)"/><path class="b" d="M56.37,99.79a.61.61,0,0,1,.12.85l-2.44,3.18a.6.6,0,0,1-.48.23.58.58,0,0,1-.36-.12h0l-1.35-1a.59.59,0,0,1-.11-.84.6.6,0,0,1,.84-.11l.88.67,2.07-2.7A.6.6,0,0,1,56.37,99.79Z" transform="translate(-0.25 -0.25)"/><path class="a" d="M50.34,6.4l2,1.81-2,1.91-.32-.33L51.5,8.45h.4V8h-.44L50,6.74Z" transform="translate(-0.25 -0.25)"/><path class="a" d="M51.89,8v.46h-.4l.22-.22L51.45,8Z" transform="translate(-0.25 -0.25)"/><path class="g" d="M51.45,8l.27.24-.22.22-1,0,0-.46Z" transform="translate(-0.25 -0.25)"/><path class="a" d="M47.88,8.23l0,.45c-.86.09-1.72.22-2.57.36l-.08-.44C46.14,8.45,47,8.32,47.88,8.23Z" transform="translate(-0.25 -0.25)"/><path class="a" d="M42.7,9.13l.11.45c-.84.2-1.68.43-2.51.69l-.13-.43C41,9.58,41.85,9.34,42.7,9.13Z" transform="translate(-0.25 -0.25)"/><path class="a" d="M37.69,10.7l.16.43c-.8.31-1.61.65-2.39,1l-.19-.41C36.06,11.36,36.87,11,37.69,10.7Z" transform="translate(-0.25 -0.25)"/><path class="f" d="M39.15,130.27H109c.06.15.13.3.2.45h-70A6.75,6.75,0,0,1,32.4,124V98c.16-.15.31-.31.46-.46V124A6.31,6.31,0,0,0,39.15,130.27Z" transform="translate(-0.25 -0.25)"/><path class="f" d="M32.86,71.7a18.89,18.89,0,0,1,0,25.88V97a18.47,18.47,0,0,0,0-24.64Z" transform="translate(-0.25 -0.25)"/><path class="a" d="M32.92,12.9l.21.4c-.76.41-1.51.86-2.24,1.32l-.24-.39C31.39,13.77,32.15,13.32,32.92,12.9Z" transform="translate(-0.25 -0.25)"/><path class="f" d="M32.4,30.41a6.77,6.77,0,0,1,6.75-6.75H62l.12.46h-23a6.29,6.29,0,0,0-6.29,6.29V71.7c-.15-.16-.3-.32-.46-.47Z" transform="translate(-0.25 -0.25)"/><path class="f" d="M32.86,97.58c-.15.15-.3.31-.46.46v-.6l.46-.48Z" transform="translate(-0.25 -0.25)"/><path class="f" d="M32.4,71.83v-.6c.16.15.31.31.46.47v.62C32.71,72.15,32.56,72,32.4,71.83Z" transform="translate(-0.25 -0.25)"/><path class="d" d="M29.08,100.17h0a18.44,18.44,0,0,1-19.42.31h0a11.22,11.22,0,0,1,19.44-.31Z" transform="translate(-0.25 -0.25)"/><path class="a" d="M28.47,15.7l.26.37c-.7.51-1.39,1-2.06,1.59l-.29-.35C27.06,16.75,27.76,16.21,28.47,15.7Z" transform="translate(-0.25 -0.25)"/><path class="c" d="M28.82,74.33a4.66,4.66,0,0,1,1.07,3.15,10.11,10.11,0,0,1-.71,3.31,25,25,0,0,1-1.91,4.1c0-.21,0-.43,0-.64A9.22,9.22,0,0,0,27.82,81V81a9.23,9.23,0,0,0-9.15-9.18l.16-.06A9.42,9.42,0,0,1,21.56,71,4.84,4.84,0,0,1,26,73.3a1.27,1.27,0,0,0-.28.06l.31,0,0,0A3.1,3.1,0,0,1,28.82,74.33Z" transform="translate(-0.25 -0.25)"/><path class="c" d="M27.82,81V81a9.22,9.22,0,0,1-.57,3.21A15.91,15.91,0,0,0,27,81.87a5.3,5.3,0,0,0-1.36-2.66,6.78,6.78,0,0,0-4.37-1.58A6.9,6.9,0,0,0,13.33,81a7.19,7.19,0,0,0-.58,1.42L11.66,79a4.88,4.88,0,0,1-.24-3.37c.51-1.14,1.78-1.69,2.94-2.15l4.31-1.68A9.23,9.23,0,0,1,27.82,81Z" transform="translate(-0.25 -0.25)"/><path class="e" d="M22.7,78.22a6.91,6.91,0,0,1,3.11,8.58,9.28,9.28,0,0,1-10.76,2.84,6.89,6.89,0,0,1-2.3-7.26l.58,1.82a16.32,16.32,0,0,1,.95-3.45A5.37,5.37,0,0,1,16.6,78.1a7.6,7.6,0,0,1,3.85-.52l.8,0a6.78,6.78,0,0,1,1.44.58S22.69,78.22,22.7,78.22Z" transform="translate(-0.25 -0.25)"/><path class="c" d="M25.75,73.36A1.27,1.27,0,0,1,26,73.3l0,0Z" transform="translate(-0.25 -0.25)"/><path class="a" d="M24.41,19.05l.31.33c-.63.59-1.25,1.21-1.84,1.84l-.33-.31C23.14,20.27,23.77,19.64,24.41,19.05Z" transform="translate(-0.25 -0.25)"/><path class="c" d="M27,81.87a15.91,15.91,0,0,1,.27,2.38,9,9,0,0,1-1.44,2.55,6.91,6.91,0,0,0-3.11-8.58s0,0,0,0a6.78,6.78,0,0,0-1.44-.58,6.78,6.78,0,0,1,4.37,1.58A5.3,5.3,0,0,1,27,81.87Z" transform="translate(-0.25 -0.25)"/><path class="a" d="M20.81,22.88l.35.29c-.55.67-1.08,1.36-1.59,2.06L19.2,25C19.71,24.26,20.25,23.56,20.81,22.88Z" transform="translate(-0.25 -0.25)"/><path class="e" d="M18.54,90.32a9.28,9.28,0,0,0,7.27-3.52,7,7,0,0,1-.37.78,6.89,6.89,0,0,1-9.36,2.75,6.61,6.61,0,0,1-1-.69A9.23,9.23,0,0,0,18.54,90.32Z" transform="translate(-0.25 -0.25)"/><path class="a" d="M17.73,27.15l.38.24c-.46.73-.9,1.49-1.31,2.25l-.4-.22C16.82,28.65,17.26,27.89,17.73,27.15Z" transform="translate(-0.25 -0.25)"/><path class="c" d="M16.6,78.1a5.37,5.37,0,0,0-2.32,2.65,16.32,16.32,0,0,0-.95,3.45l-.58-1.82A7.19,7.19,0,0,1,13.33,81a6.9,6.9,0,0,1,7.92-3.33l-.8,0A7.6,7.6,0,0,0,16.6,78.1Z" transform="translate(-0.25 -0.25)"/><path class="a" d="M15.22,31.77l.41.19c-.36.79-.7,1.6-1,2.4l-.42-.16Q14.67,33,15.22,31.77Z" transform="translate(-0.25 -0.25)"/><path class="a" d="M13.33,36.69l.43.13c-.25.83-.49,1.67-.69,2.51l-.44-.11C12.83,38.37,13.07,37.52,13.33,36.69Z" transform="translate(-0.25 -0.25)"/><path class="a" d="M12.09,41.8l.45.08c-.15.85-.27,1.71-.37,2.57l-.45-.05C11.82,43.53,11.94,42.66,12.09,41.8Z" transform="translate(-0.25 -0.25)"/><path class="a" d="M12,47.05l0,1-.22.23L11.49,48l0-.94Z" transform="translate(-0.25 -0.25)"/><path class="a" d="M11.94,48c0,.13,0,.27,0,.4h-.45c0-.14,0-.29,0-.43l.23.26Z" transform="translate(-0.25 -0.25)"/><path class="c" d="M18.67,71.77l-4.31,1.68c-1.16.46-2.43,1-2.94,2.15A4.88,4.88,0,0,0,11.66,79l1.09,3.41a6.89,6.89,0,0,0,2.3,7.26,9.28,9.28,0,0,1,3.49-17.87Z" transform="translate(-0.25 -0.25)"/><path class="a" d="M11.93,48.4c0-.13,0-.27,0-.4l1.35-1.38.32.32-1.9,2-1.81-2,.34-.3L11.49,48c0,.14,0,.29,0,.43Z" transform="translate(-0.25 -0.25)"/><path class="f" d="M9.65,100.48a18.44,18.44,0,0,0,19.42-.31h0l0,.06s0,.08.07.12a18.68,18.68,0,0,1-19.65.31,1.62,1.62,0,0,1,.1-.18Z" transform="translate(-0.25 -0.25)"/><path class="f" d="M29.3,100.53a18.88,18.88,0,1,1,3.1-29.3v.6a18.07,18.07,0,0,0-3.85-3.06A18.46,18.46,0,0,0,9.64,100.48a1.62,1.62,0,0,0-.1.18,18.68,18.68,0,0,0,19.65-.31s-.05-.09-.07-.12l0-.06a18.49,18.49,0,0,0,3.32-2.73V98A18.59,18.59,0,0,1,29.3,100.53Z" transform="translate(-0.25 -0.25)"/></svg>