<svg xmlns="http://www.w3.org/2000/svg" viewBox="0 0 328.5 35.63"><defs><style>.a{opacity:0.75;}.b{fill:#fff;}.c{fill:#275584;}</style></defs><title>Sec. Challenge - Titulo Challenge</title><g class="a"><path class="b" d="M7.6,28.74H4V21.31H8.9l.87-5.18H5.52V8.7h5.55l1-6h6.7l-1.06,6h5.86l1-6h6.7l-1,6h3.6v7.43H29l-.88,5.18h4.25v7.43h-5.5L25.75,35H19.06l1.11-6.24H14.3L13.24,35H6.54Zm14-7.25L22.48,16H16.33l-1,5.54Z"/><path class="b" d="M36.89,18.91v-.1A16.61,16.61,0,0,1,53.93,2c6.6,0,10.85,2.77,13.72,6.74L60.9,14c-1.84-2.31-4-3.78-7.06-3.78-4.53,0-7.72,3.83-7.72,8.54v.09c0,4.85,3.19,8.64,7.72,8.64,3.37,0,5.35-1.57,7.29-3.93l6.75,4.81c-3,4.2-7.16,7.3-14.32,7.3A16.42,16.42,0,0,1,36.89,18.91Z"/><path class="b" d="M71.49,2.65h9v12.1H92V2.65h9V35H92V22.69H80.45V35h-9Z"/><path class="b" d="M117.54,2.42h8.64L139.94,35h-9.6L128,29.21H115.51L113.2,35h-9.42Zm7.85,19.81L121.79,13l-3.65,9.19Z"/><path class="b" d="M142.83,2.65h9V27.13h15.66V35H142.83Z"/><path class="b" d="M170.64,2.65h9V27.13h15.66V35H170.64Z"/><path class="b" d="M198.45,2.65h26v7.62H207.32v4.89h15.52v7.07H207.32v5.13h17.37V35H198.45Z"/><path class="b" d="M229.92,2.65h8.36l13.3,17.09V2.65h8.87V35H252.6L238.79,17.24V35h-8.87Z"/><path class="b" d="M265.11,18.91v-.1C265.11,9.39,272.5,2,282.53,2a18.83,18.83,0,0,1,13.11,4.71L290.38,13a11.41,11.41,0,0,0-7.81-3c-4.66,0-8.27,3.93-8.27,8.87V19c0,5.22,3.65,9,8.78,9a9.11,9.11,0,0,0,5.17-1.34V22.65h-6.37V16.09h14.87V30.64a21.89,21.89,0,0,1-14,5C272.64,35.63,265.11,28.7,265.11,18.91Z"/><path class="b" d="M302.27,2.65h26v7.62H311.14v4.89h15.52v7.07H311.14v5.13H328.5V35H302.27Z"/></g><path class="c" d="M3.6,26.74H0V19.31H4.9l.87-5.18H1.52V6.7H7.07l1-6h6.7L13.72,6.7h5.86l1-6h6.7l-1,6.05h3.6v7.43H25l-.88,5.18h4.25v7.43h-5.5L21.75,33H15.06l1.11-6.24H10.3L9.24,33H2.54Zm14-7.25L18.48,14H12.33l-1,5.54Z"/><path class="c" d="M32.89,16.91v-.1A16.61,16.61,0,0,1,49.93,0c6.6,0,10.85,2.77,13.72,6.74L56.9,12c-1.84-2.31-4-3.78-7.06-3.78-4.53,0-7.72,3.83-7.72,8.54v.09c0,4.85,3.19,8.64,7.72,8.64,3.37,0,5.35-1.57,7.29-3.93l6.75,4.81c-3.05,4.2-7.16,7.3-14.32,7.3A16.42,16.42,0,0,1,32.89,16.91Z"/><path class="c" d="M67.49.65h9v12.1H88V.65h9V33H88V20.69H76.45V33h-9Z"/><path class="c" d="M113.54.42h8.64L135.94,33h-9.6L124,27.21H111.51L109.2,33H99.78Zm7.85,19.81L117.79,11l-3.65,9.19Z"/><path class="c" d="M138.83.65h9V25.13h15.66V33H138.83Z"/><path class="c" d="M166.64.65h9V25.13h15.66V33H166.64Z"/><path class="c" d="M194.45.65h26V8.27H203.32v4.89h15.52v7.07H203.32v5.13h17.37V33H194.45Z"/><path class="c" d="M225.92.65h8.36l13.3,17.09V.65h8.87V33H248.6L234.79,15.24V33h-8.87Z"/><path class="c" d="M261.11,16.91v-.1C261.11,7.39,268.5,0,278.53,0a18.83,18.83,0,0,1,13.11,4.71L286.38,11a11.41,11.41,0,0,0-7.81-3c-4.66,0-8.27,3.93-8.27,8.87V17c0,5.22,3.65,9,8.78,9a9.11,9.11,0,0,0,5.17-1.34V20.65h-6.37V14.09h14.87V28.64a21.89,21.89,0,0,1-14,5C268.64,33.63,261.11,26.7,261.11,16.91Z"/><path class="c" d="M298.27.65h26V8.27H307.14v4.89h15.52v7.07H307.14v5.13H324.5V33H298.27Z"/></svg>