<svg xmlns="http://www.w3.org/2000/svg" viewBox="0 0 455.34 168.66"><defs><style>.a{fill:#fcb912;}.b{fill:#008f93;}.c{fill:#5ccaf2;}.d{fill:#f68f1e;}.e{fill:#34b678;}.f{fill:#fcfbfa;}.g{fill:#275584;}</style></defs><title>Titulo mas logo_Banner</title><circle class="a" cx="45.79" cy="38.63" r="29.47"/><circle class="b" cx="45.79" cy="38.63" r="26.2"/><circle class="c" cx="77.97" cy="64.83" r="7.78"/><circle class="d" cx="7.78" cy="48.74" r="7.78"/><circle class="e" cx="24.58" cy="5.54" r="5.54"/><path class="f" d="M42.59,45,28.88,21.09h7.29l9.6,16.78L55.4,21.09h7.29L48.93,45V63.09H42.59Z"/><circle class="a" cx="75.26" cy="22.43" r="13.28"/><path class="g" d="M70.29,12.63,74.62,12l.06,16,8-1.15,0,4.07L70.37,32.66Z"/><path class="a" d="M22.6,153.67l.42-.92a.36.36,0,0,1,.23-.14l.31,0a1.41,1.41,0,0,1,.44,0,.22.22,0,0,1,.13.22.44.44,0,0,1,0,.1s0,.07,0,.08h0c-.2.48-.4,1-.61,1.45l-.6,1.45,1.47,3.59c.49,1.21,1,2.41,1.47,3.58l.61-1.48c.22-.54.45-1.11.7-1.71l.74-1.84c.25-.63.51-1.26.76-1.87s.48-1.2.71-1.77.45-1.09.64-1.58a.24.24,0,0,1,.14-.12.9.9,0,0,1,.23-.08l.26,0h.26a.28.28,0,0,1,.22.08.25.25,0,0,1,.08.18.44.44,0,0,1,0,.1l0,.07-4.82,11.7a.27.27,0,0,1-.13.13.52.52,0,0,1-.23,0h-.32a.33.33,0,0,1-.23-.07.21.21,0,0,1-.1-.17L23.8,161c-.5-1.2-1-2.42-1.51-3.63-.22.53-.45,1.08-.68,1.65s-.47,1.14-.71,1.71-.47,1.15-.7,1.72l-.68,1.66-.24.58a.4.4,0,0,1-.38.18h-.32a.41.41,0,0,1-.23-.07.24.24,0,0,1-.1-.17L13.42,153a.54.54,0,0,1,0-.17.2.2,0,0,1,.17-.22,1.74,1.74,0,0,1,.43,0,1.29,1.29,0,0,1,.35,0,.28.28,0,0,1,.22.17c.19.48.4,1,.64,1.58l.72,1.77c.25.61.51,1.23.76,1.87l.76,1.86c.25.6.49,1.17.71,1.72s.43,1,.62,1.49c.41-1,.91-2.22,1.48-3.64l1.95-4.87h0C22.33,154.28,22.46,154,22.6,153.67Z"/><path class="a" d="M41.82,149a.67.67,0,0,1,0-.3.24.24,0,0,1,.22-.13h.71c.12,0,.2,0,.23.14a.84.84,0,0,1,0,.29v.37q0,.29-.09.36a.59.59,0,0,1-.36.08h-.35a.65.65,0,0,1-.36-.07.26.26,0,0,1-.1-.24Zm.06,3.9c0-.21.1-.31.3-.31h.52a.27.27,0,0,1,.31.31v11.67c0,.21-.1.31-.3.31h-.5c-.23,0-.33-.1-.33-.31Z"/><path class="a" d="M59.19,164.44a.71.71,0,0,1,0,.14v.21a.17.17,0,0,1-.07.14A.6.6,0,0,1,59,165l-.2,0h-.16a4.09,4.09,0,0,1-1-.13,2.27,2.27,0,0,1-.83-.43,2,2,0,0,1-.56-.75,2.78,2.78,0,0,1-.21-1.13v-9H54.33a.37.37,0,0,1-.25-.07.29.29,0,0,1-.07-.23v-.46a.26.26,0,0,1,.07-.22.44.44,0,0,1,.25-.06H56v-3.06a.19.19,0,0,1,.08-.16l.09-.05.06,0,.19-.07.21-.07a.49.49,0,0,1,.17,0c.13,0,.22,0,.26.1a.48.48,0,0,1,.06.26v3.12h2.18a.28.28,0,0,1,.32.31v.39c0,.23-.11.34-.32.34H57.13v8.22c0,.28,0,.55,0,.8a2.13,2.13,0,0,0,.15.67,1.09,1.09,0,0,0,.3.46.81.81,0,0,0,.54.17h.22a2.69,2.69,0,0,1,.46,0,.67.67,0,0,1,.24.1.23.23,0,0,1,.1.17,1.4,1.4,0,0,1,0,.23Z"/><path class="a" d="M79.55,157.53a4.43,4.43,0,0,0-.29-1.48,4,4,0,0,0-.74-1.29,3.61,3.61,0,0,0-1.16-.91,3.32,3.32,0,0,0-1.54-.34,4.25,4.25,0,0,0-1.49.26,4.4,4.4,0,0,0-1.31.76,3.93,3.93,0,0,0-.94,1.19,3.42,3.42,0,0,0-.4,1.54v7.36c0,.21-.1.31-.29.31h-.52a.27.27,0,0,1-.31-.31V149a.27.27,0,0,1,.3-.3h.52a.27.27,0,0,1,.3.3v5.51h0a4.32,4.32,0,0,1,.76-.9,5.11,5.11,0,0,1,1-.68,4.63,4.63,0,0,1,1.16-.44,5.4,5.4,0,0,1,1.28-.15,4.53,4.53,0,0,1,2,.41,4.62,4.62,0,0,1,1.51,1.11,5.21,5.21,0,0,1,1,1.66,5.83,5.83,0,0,1,.34,2v6.93a.4.4,0,0,1-.11.32.37.37,0,0,1-.27.11h-.36a.35.35,0,0,1-.3-.1.51.51,0,0,1-.08-.32Z"/><path class="a" d="M111.76,153.61a.4.4,0,0,1,.26.08.36.36,0,0,1,.09.26v.31a.38.38,0,0,1-.09.28.33.33,0,0,1-.26.1h-2.11v9.9a.34.34,0,0,1-.1.28.41.41,0,0,1-.25.08h-.45c-.21,0-.32-.12-.32-.36v-9.9H107a.3.3,0,0,1-.25-.1.38.38,0,0,1-.1-.28V154a.36.36,0,0,1,.1-.26.37.37,0,0,1,.25-.08h1.5v-2a3.89,3.89,0,0,1,.26-1.44,3.35,3.35,0,0,1,.71-1.11,3.22,3.22,0,0,1,1.08-.71,3.78,3.78,0,0,1,1.36-.24.37.37,0,0,1,.28.1.38.38,0,0,1,.1.26v.42a.3.3,0,0,1-.1.24.37.37,0,0,1-.25.09,2.3,2.3,0,0,0-.91.17,2,2,0,0,0-.74.51,2.6,2.6,0,0,0-.49.87,3.88,3.88,0,0,0-.18,1.25v1.55Z"/><path class="a" d="M132.35,163.52l0-.6a5.33,5.33,0,0,1-.73.89,4.24,4.24,0,0,1-.91.68,4.7,4.7,0,0,1-1.08.44,5.06,5.06,0,0,1-1.26.15,5.11,5.11,0,0,1-3.7-1.52,5.08,5.08,0,0,1-1.06-1.65,5.26,5.26,0,0,1-.38-2v-6.95a.44.44,0,0,1,.1-.32.4.4,0,0,1,.29-.11H124a.35.35,0,0,1,.3.1.54.54,0,0,1,.07.32v7a4.51,4.51,0,0,0,.31,1.5,4.35,4.35,0,0,0,.82,1.29,3.9,3.9,0,0,0,3,1.23,3.89,3.89,0,0,0,1.47-.29,4.18,4.18,0,0,0,1.24-.8,3.94,3.94,0,0,0,.88-1.23,4.05,4.05,0,0,0,.35-1.57v-7.24a.27.27,0,0,1,.3-.31h.51a.28.28,0,0,1,.32.31v11.67c0,.28-.12.41-.36.41h-.39c-.26,0-.38-.11-.38-.35Z"/><path class="a" d="M145.39,149.18a.27.27,0,0,1,.31-.3h.51c.22,0,.32.1.32.3V164.6c0,.2-.1.3-.31.3h-.51c-.21,0-.32-.1-.32-.3Z"/><path class="a" d="M158.58,149.18c0-.2.11-.3.32-.3h.5c.22,0,.32.1.32.3V164.6c0,.2-.1.3-.31.3h-.5q-.33,0-.33-.3Z"/><path class="a" d="M186.87,152.94a.28.28,0,0,1,.32-.31h.54a.28.28,0,0,1,.31.31v2.35c.13-.21.27-.43.42-.65a2.94,2.94,0,0,1,.48-.56,6,6,0,0,1,4.25-1.69,6.25,6.25,0,0,1,1.68.22,6.63,6.63,0,0,1,1.52.65,6.34,6.34,0,0,1,1.3,1,7,7,0,0,1,1,1.29,6.63,6.63,0,0,1,.65,1.52,6.39,6.39,0,0,1,.22,1.7,6.32,6.32,0,0,1-.22,1.69,6.41,6.41,0,0,1-1.65,2.82,6.34,6.34,0,0,1-1.3,1,6.63,6.63,0,0,1-1.52.65,6.25,6.25,0,0,1-1.68.22A6,6,0,0,1,192,165a7.09,7.09,0,0,1-1.13-.36,6.09,6.09,0,0,1-1-.55,7.84,7.84,0,0,1-.91-.7,6.83,6.83,0,0,1-.45-.55c-.13-.19-.28-.4-.46-.64v6.25a.15.15,0,0,1-.05.12.16.16,0,0,1-.12,0l-.69,0a.24.24,0,0,1-.27-.27Zm11.5,5.83a5.4,5.4,0,0,0-.4-2,5.52,5.52,0,0,0-1.11-1.68,5.31,5.31,0,0,0-1.64-1.16,4.85,4.85,0,0,0-2-.42,5.07,5.07,0,0,0-2.05.41,5.23,5.23,0,0,0-1.68,1.13,5.22,5.22,0,0,0-1.16,5.76,5.46,5.46,0,0,0,1.12,1.7,5.4,5.4,0,0,0,1.66,1.16,5.08,5.08,0,0,0,4.07,0,5.2,5.2,0,0,0,1.66-1.15,5.39,5.39,0,0,0,1.11-1.69A5,5,0,0,0,198.37,158.77Z"/><path class="a" d="M210.44,158.77a6.4,6.4,0,0,1,.23-1.7,6.63,6.63,0,0,1,.65-1.52,6.34,6.34,0,0,1,2.3-2.3,6.2,6.2,0,0,1,1.52-.64,6.29,6.29,0,0,1,3.37,0,6.2,6.2,0,0,1,1.52.64,6.47,6.47,0,0,1,2.31,2.3,6.63,6.63,0,0,1,.65,1.52,6.39,6.39,0,0,1,.22,1.7,6.32,6.32,0,0,1-.22,1.69,6.9,6.9,0,0,1-.65,1.53,6.61,6.61,0,0,1-1,1.29,6.34,6.34,0,0,1-1.3,1,6.63,6.63,0,0,1-1.52.65,6.56,6.56,0,0,1-3.37,0,6.63,6.63,0,0,1-1.52-.65,6.34,6.34,0,0,1-1.3-1,6.56,6.56,0,0,1-1-1.29,6.9,6.9,0,0,1-.65-1.53A6.32,6.32,0,0,1,210.44,158.77Zm1.17,0a4.89,4.89,0,0,0,.19,1.38,5.08,5.08,0,0,0,.52,1.25,5.59,5.59,0,0,0,.8,1.08,6,6,0,0,0,1,.84,5.48,5.48,0,0,0,1.24.54,4.84,4.84,0,0,0,1.38.19,5,5,0,0,0,2-.41,5.37,5.37,0,0,0,1.68-1.12,5.5,5.5,0,0,0,1.14-1.67,5.09,5.09,0,0,0,.42-2.06,5.27,5.27,0,0,0-.41-2,5.9,5.9,0,0,0-1.11-1.69,5.4,5.4,0,0,0-1.66-1.16,4.8,4.8,0,0,0-2-.43,5,5,0,0,0-2,.42,5.14,5.14,0,0,0-1.67,1.15,5.42,5.42,0,0,0-1.12,1.69A5,5,0,0,0,211.61,158.76Z"/><path class="a" d="M237.58,164.44v.35a.2.2,0,0,1-.06.14l-.17.08a.69.69,0,0,1-.2,0H237a4.09,4.09,0,0,1-1-.13,2.27,2.27,0,0,1-.83-.43,2,2,0,0,1-.56-.75,2.78,2.78,0,0,1-.21-1.13v-9h-1.68a.33.33,0,0,1-.24-.07.29.29,0,0,1-.08-.23v-.46a.27.27,0,0,1,.08-.22.38.38,0,0,1,.24-.06h1.68v-3.06a.19.19,0,0,1,.08-.16l.09-.05.06,0,.19-.07.21-.07a.49.49,0,0,1,.17,0c.13,0,.22,0,.26.1a.48.48,0,0,1,.06.26v3.12h2.18a.28.28,0,0,1,.32.31v.39c0,.23-.11.34-.32.34h-2.18v8.22a6.8,6.8,0,0,0,0,.8,2.47,2.47,0,0,0,.14.67,1.09,1.09,0,0,0,.3.46.83.83,0,0,0,.54.17h.22a2.69,2.69,0,0,1,.46,0,.54.54,0,0,1,.24.1.23.23,0,0,1,.1.17.75.75,0,0,1,0,.23Z"/><path class="a" d="M248.88,159.17a3.82,3.82,0,0,1,.05.45,3,3,0,0,0,.08.52,5.68,5.68,0,0,0,.72,1.58,5.12,5.12,0,0,0,1.12,1.24,5.41,5.41,0,0,0,1.45.81,5.06,5.06,0,0,0,1.7.29,5.83,5.83,0,0,0,1-.08,4.78,4.78,0,0,0,.83-.22,4.43,4.43,0,0,0,.73-.34,5.74,5.74,0,0,0,.66-.43,1.13,1.13,0,0,0,.2-.13l.2-.16.18-.13a.3.3,0,0,1,.15,0s.11,0,.17.12a3.06,3.06,0,0,1,.24.37.41.41,0,0,1,.08.19s0,.05,0,.08a.14.14,0,0,1,.05.09,2.38,2.38,0,0,1-.27.29,3.19,3.19,0,0,1-.37.29,6.66,6.66,0,0,1-1.7.87,5.81,5.81,0,0,1-2,.32,6.11,6.11,0,0,1-2.48-.5,6.44,6.44,0,0,1-2-1.37,6.52,6.52,0,0,1-1.38-2,6,6,0,0,1-.51-2.46,6.47,6.47,0,0,1,.22-1.71,6.58,6.58,0,0,1,.63-1.52,6.66,6.66,0,0,1,1-1.3,6.34,6.34,0,0,1,1.3-1,6.11,6.11,0,0,1,1.53-.64,6.18,6.18,0,0,1,1.73-.23,6.38,6.38,0,0,1,3.13.79,6.3,6.3,0,0,1,1.28,1,5.86,5.86,0,0,1,1,1.27,7.06,7.06,0,0,1,.67,1.56,7.77,7.77,0,0,1,.27,1.83h0v0a0,0,0,0,1,0,0c0,.23-.1.33-.31.33Zm3.82-5.49a4.51,4.51,0,0,0-1.38.61,5.18,5.18,0,0,0-1.14,1,5.46,5.46,0,0,0-.83,1.27,5.61,5.61,0,0,0-.47,1.47h10.41a4.93,4.93,0,0,0-.58-1.81,5,5,0,0,0-1.16-1.43,5.36,5.36,0,0,0-1.59-1,5.07,5.07,0,0,0-1.86-.34c-.22,0-.44,0-.65,0A5.13,5.13,0,0,0,252.7,153.68Z"/><path class="a" d="M272.18,153a.33.33,0,0,1,.1-.27.4.4,0,0,1,.27-.09h.39a.33.33,0,0,1,.27.1.37.37,0,0,1,.09.26v1.43a4.32,4.32,0,0,1,.94-1,5,5,0,0,1,1.08-.63,5.2,5.2,0,0,1,1.1-.31,6,6,0,0,1,1-.08,4.91,4.91,0,0,1,2,.41,4.66,4.66,0,0,1,1.57,1.11,5.28,5.28,0,0,1,1,1.66,5.6,5.6,0,0,1,.36,2v6.94a.42.42,0,0,1-.1.32.36.36,0,0,1-.28.11h-.36a.35.35,0,0,1-.3-.1.52.52,0,0,1-.07-.32v-7A5,5,0,0,0,281,156a4.21,4.21,0,0,0-.77-1.29,3.65,3.65,0,0,0-2.86-1.25,4.16,4.16,0,0,0-1.47.27,4.35,4.35,0,0,0-1.27.78,4,4,0,0,0-.93,1.2,3.77,3.77,0,0,0-.38,1.55v7.31c0,.21-.09.31-.29.31h-.51a.27.27,0,0,1-.31-.31V161.9a.31.31,0,0,1,0-.11Z"/><path class="a" d="M303.57,154.85l-.05,0a.1.1,0,0,1-.08,0,.28.28,0,0,1-.18-.1l-.37-.34a3.43,3.43,0,0,0-.69-.45,4.52,4.52,0,0,0-1-.4,5.1,5.1,0,0,0-1.43-.17,4.9,4.9,0,0,0-2,.41A5.63,5.63,0,0,0,296.1,155a5.43,5.43,0,0,0-1.14,1.68,5,5,0,0,0-.43,2.05,5,5,0,0,0,.41,2,5.46,5.46,0,0,0,2.77,2.85,4.69,4.69,0,0,0,2,.43,5.83,5.83,0,0,0,1-.08,5.18,5.18,0,0,0,.82-.22,4.08,4.08,0,0,0,.73-.34,6.9,6.9,0,0,0,.67-.43.77.77,0,0,0,.17-.12l.21-.16.18-.13a.37.37,0,0,1,.15-.05.31.31,0,0,1,.2.11c.1.15.19.28.23.36a.48.48,0,0,1,.08.2.1.1,0,0,1,0,.08.16.16,0,0,1,0,.09,2.56,2.56,0,0,1-.63.58,6.6,6.6,0,0,1-1.69.87,5.83,5.83,0,0,1-2,.32,6.13,6.13,0,0,1-3.2-.87,6.62,6.62,0,0,1-1.3-1,6.38,6.38,0,0,1-1-1.3,6.66,6.66,0,0,1-.66-1.52,6.25,6.25,0,0,1-.23-1.68,6.4,6.4,0,0,1,.23-1.7,6.66,6.66,0,0,1,.66-1.52,6.38,6.38,0,0,1,1-1.3,6.62,6.62,0,0,1,1.3-1,6.2,6.2,0,0,1,1.52-.64,5.88,5.88,0,0,1,1.68-.23,5.38,5.38,0,0,1,1.14.11,6.64,6.64,0,0,1,1.08.3,6.21,6.21,0,0,1,1,.47,7.33,7.33,0,0,1,.84.58h0v0l.17.14a.24.24,0,0,1,.07.18.41.41,0,0,1-.13.24Z"/><path class="a" d="M315.16,149a.67.67,0,0,1,.06-.3.22.22,0,0,1,.21-.13h.71c.13,0,.2,0,.23.14a.65.65,0,0,1,.05.29v.37q0,.29-.09.36a.58.58,0,0,1-.35.08h-.35a.65.65,0,0,1-.36-.07.25.25,0,0,1-.11-.24Zm.06,3.9a.27.27,0,0,1,.31-.31H316a.28.28,0,0,1,.32.31v11.67a.27.27,0,0,1-.31.31h-.5c-.22,0-.33-.1-.33-.31Z"/><path class="a" d="M339.86,163l0-.74a5.81,5.81,0,0,1-.93,1.21,5.9,5.9,0,0,1-2.65,1.5,5.83,5.83,0,0,1-1.57.21,6.32,6.32,0,0,1-1.69-.23,6.63,6.63,0,0,1-1.52-.65,7.08,7.08,0,0,1-1.3-1,6.56,6.56,0,0,1-1-1.29,6.46,6.46,0,0,1-.65-1.53,6.25,6.25,0,0,1-.23-1.68,6.32,6.32,0,0,1,.23-1.69,6.22,6.22,0,0,1,.65-1.52,6.71,6.71,0,0,1,1-1.3,7.38,7.38,0,0,1,1.3-1,6.22,6.22,0,0,1,1.52-.65,6.26,6.26,0,0,1,3.25,0,6,6,0,0,1,1.43.59,6.12,6.12,0,0,1,2.19,2.14V152.9c0-.21.1-.31.3-.31h.51c.22,0,.33.1.33.31v11.69a.28.28,0,0,1-.11.24.41.41,0,0,1-.25.07h-.4c-.25,0-.38-.11-.38-.35Zm.06-4.21a4.75,4.75,0,0,0-.43-2,5.61,5.61,0,0,0-1.14-1.68,5.49,5.49,0,0,0-1.68-1.16,5.07,5.07,0,0,0-2-.44h0a4.83,4.83,0,0,0-2,.43A5.76,5.76,0,0,0,331,155a5.84,5.84,0,0,0-1.13,1.68,5.12,5.12,0,0,0-.41,2,5.18,5.18,0,0,0,.4,2,5.72,5.72,0,0,0,1.1,1.7,5.26,5.26,0,0,0,1.64,1.16,4.75,4.75,0,0,0,2,.44,5,5,0,0,0,2.05-.43,5.43,5.43,0,0,0,1.68-1.14,5.62,5.62,0,0,0,1.15-1.69A5,5,0,0,0,339.92,158.75Z"/><path class="a" d="M352.87,149.18a.27.27,0,0,1,.31-.3h.51c.21,0,.32.1.32.3V164.6c0,.2-.1.3-.31.3h-.51c-.21,0-.32-.1-.32-.3Z"/><rect class="a" x="13.4" y="132.67" width="441.94" height="2.77"/><path class="a" d="M27.64,111.58v10.83H22.25V111.84L13.4,93.2h5.91l5.55,11.68,5.5-11.68h5.92Zm0,0L36.28,93.2Z"/><path class="a" d="M70.09,96.55a15.56,15.56,0,1,1-11-4.55A15.3,15.3,0,0,1,70.09,96.55Zm-11,.79a10.21,10.21,0,0,0,0,20.42A10.21,10.21,0,0,0,69.3,107.55a10.15,10.15,0,0,0-3-7.17A10,10,0,0,0,59.09,97.34Z"/><path class="a" d="M90.29,92.94v17.12a11.17,11.17,0,0,0,.52,4.55,5,5,0,0,0,1.88,2.15,4.76,4.76,0,0,0,5.08.11A4.84,4.84,0,0,0,99.66,115c.78-1.25.68-3,.68-4.71V92.94h5.39v17.38c0,2.46,0,4.92-1.47,7.44a10.61,10.61,0,0,1-3.82,3.77,10.12,10.12,0,0,1-5.13,1.35,9.85,9.85,0,0,1-5.55-1.62,10.29,10.29,0,0,1-3.82-4.34c-1.15-2.36-1-4.66-1-6.91A8.52,8.52,0,0,0,85,108.8V92.94Zm0,0h0Z"/><path class="a" d="M136.66,93v29.31L132,117.44l-11-11.36v16.18h-5.34V93l4.65,4.86,11,11.36V93Zm-5.34,0h0Z"/><path class="a" d="M159.9,107.39h16.23v0a15,15,0,0,1-4.3,11,15.82,15.82,0,0,1-11.3,4.66,15,15,0,0,1-11-4.55,15.56,15.56,0,0,1,0-22,15.61,15.61,0,0,1,18.06-2.87,14.81,14.81,0,0,1,5.55,4.76l-4.34,3.14a10.35,10.35,0,0,0-3.62-3.09,9.76,9.76,0,0,0-4.65-1.15,10,10,0,0,0-7.17,3,10.19,10.19,0,0,0,7.17,17.38,10.61,10.61,0,0,0,7.48-3.09,11.86,11.86,0,0,0,1.47-1.84l-9.58-.1Zm0,0v0Z"/><path class="a" d="M206,92.94v24h9.84v5.39H206v0h-5.34V92.94Zm0,0h0Z"/><path class="a" d="M229.61,105.14h8v5.34h-8V117h10.68v5.39h-16V92.89h16v5.34H229.61Zm0-6.91v0Z"/><path class="a" d="M269.39,115.71H259l-3.14,6.7H250l11.56-24.49L264,92.84l2.46,5,12.09,24.55h-5.86Zm-8-5h5.45L264.11,105Zm2.68-5.71-2.68,5.71Z"/><path class="a" d="M285.3,92.94V93h3.41a14.7,14.7,0,0,1,10.41,4.29,14.54,14.54,0,0,1,4.3,10.41,14.66,14.66,0,0,1-14.71,14.71H280V92.94Zm-5.34,0h0Zm5.34,5.39v18.75h3.41a9.33,9.33,0,0,0,6.59-16,9.15,9.15,0,0,0-6.59-2.78Z"/><path class="a" d="M318.54,105.14h8v5.34h-8V117h10.68v5.39h-16V92.89h16v5.34H318.54Zm0-6.91v0Z"/><path class="a" d="M356.8,122.41h-6.23l-6-10h-.78v10h-5.34V92.94h5.34V93h2.51a9.41,9.41,0,0,1,6.86,2.82,9.86,9.86,0,0,1,2.88,6.86,9.38,9.38,0,0,1-2.88,6.86,9.61,9.61,0,0,1-2.88,2Zm-13-15.38h2.51a4.3,4.3,0,0,0,4.35-4.35,4.4,4.4,0,0,0-1.26-3.09,4.22,4.22,0,0,0-3.09-1.26h-2.51Z"/><path class="a" d="M378.31,100.12a4,4,0,0,0-1.52-1.42,4.45,4.45,0,0,0-2.41-.42,3.11,3.11,0,0,0-1.72.89,2.71,2.71,0,0,0-.79,1.73,2.2,2.2,0,0,0,.21,1.31,3.68,3.68,0,0,0,.95,1.2,5.67,5.67,0,0,0,1.15.63,16,16,0,0,0,1.62.52,19.19,19.19,0,0,1,2.2.69,8.11,8.11,0,0,1,2.46,1.46,8.68,8.68,0,0,1,2.67,3.35,8.32,8.32,0,0,1,.73,4.14,8.94,8.94,0,0,1-2.41,5.33,8.35,8.35,0,0,1-5.23,2.62,10.1,10.1,0,0,1-5.76-.89,8.86,8.86,0,0,1-4.19-3.92,11.13,11.13,0,0,1-.68-1.57,10.2,10.2,0,0,1-.36-1.73l5.28-.74a4,4,0,0,0,.21.79,3,3,0,0,0,.26.68,4,4,0,0,0,1.78,1.68,4.78,4.78,0,0,0,2.78.42,3.72,3.72,0,0,0,2-1.05,3.38,3.38,0,0,0,.94-2,3.55,3.55,0,0,0-.26-1.52,2.81,2.81,0,0,0-1.15-1.36,2.75,2.75,0,0,0-1.1-.68c-.58-.21-1.05-.37-1.63-.53a12.17,12.17,0,0,1-2.19-.68,9.21,9.21,0,0,1-2.51-1.46,8.82,8.82,0,0,1-2.47-3.14,8.2,8.2,0,0,1-.73-3.93,8.62,8.62,0,0,1,2.3-5A8.34,8.34,0,0,1,373.71,93a9.55,9.55,0,0,1,5.39.83A8.93,8.93,0,0,1,383,97.55Zm0,0L383,97.55Z"/></svg>