<svg xmlns="http://www.w3.org/2000/svg" viewBox="0 0 152.88 125.39"><defs><style>.a{fill:#fcb912;}.b{fill:#008f93;}.c{fill:#5ccaf2;}.d{fill:#f68f1e;}.e{fill:#34b678;}.f{fill:#275584;}.g{fill:#fff;}</style></defs><title>Sec. Iconografia general  -Sec. Iconografia general  - jovenes</title><circle class="a" cx="79.06" cy="66.71" r="50.89"/><circle class="b" cx="79.06" cy="66.71" r="45.24"/><circle class="c" cx="134.63" cy="111.95" r="13.44"/><circle class="d" cx="13.44" cy="84.16" r="13.44"/><circle class="e" cx="42.44" cy="9.57" r="9.57"/><circle class="a" cx="129.95" cy="38.73" r="22.93"/><path class="f" d="M121.38,21.8l7.47-1.07.1,27.56,13.84-2,0,7L121.5,56.4Z"/><path class="g" d="M98.33,66.7H92.89a8.3,8.3,0,0,0-2.13.29,8.16,8.16,0,0,0-7.26-4.46H73.89A8.16,8.16,0,0,0,66.63,67a8.3,8.3,0,0,0-2.13-.29H59.06a8.15,8.15,0,0,0-8.14,8.14v8.69a4.89,4.89,0,0,0,4.88,4.89h45.79a4.89,4.89,0,0,0,4.88-4.89V74.84A8.15,8.15,0,0,0,98.33,66.7Zm-32.58,4V85.16h-10a1.63,1.63,0,0,1-1.62-1.63V74.84A4.89,4.89,0,0,1,59.06,70H64.5a4.86,4.86,0,0,1,1.27.17C65.76,70.31,65.75,70.49,65.75,70.67ZM88.38,85.16H69V70.67a4.89,4.89,0,0,1,4.88-4.88H83.5a4.89,4.89,0,0,1,4.88,4.88Zm14.83-1.63a1.63,1.63,0,0,1-1.62,1.63h-10V70.67c0-.18,0-.36,0-.54A4.86,4.86,0,0,1,92.89,70h5.44a4.89,4.89,0,0,1,4.88,4.88Z"/><path class="g" d="M61.78,51.34A7.23,7.23,0,1,0,69,58.57,7.23,7.23,0,0,0,61.78,51.34Zm0,11.2a4,4,0,1,1,4-4A4,4,0,0,1,61.78,62.54Z"/><path class="g" d="M78.69,42.36A9.66,9.66,0,1,0,88.35,52,9.67,9.67,0,0,0,78.69,42.36Zm0,16.06A6.41,6.41,0,1,1,85.1,52,6.41,6.41,0,0,1,78.69,58.42Z"/><path class="g" d="M95.61,51.34a7.23,7.23,0,1,0,7.23,7.23A7.24,7.24,0,0,0,95.61,51.34Zm0,11.2a4,4,0,1,1,4-4A4,4,0,0,1,95.61,62.54Z"/></svg>