<svg xmlns="http://www.w3.org/2000/svg" viewBox="0 0 152.88 125.39"><defs><style>.a{fill:#fcb912;}.b{fill:#008f93;}.c{fill:#5ccaf2;}.d{fill:#f68f1e;}.e{fill:#34b678;}.f{fill:#275584;}.g{fill:#fff;}</style></defs><title>Sec. Iconografia general  -Sec. Iconografia general  - modulos formativos</title><circle class="a" cx="79.06" cy="66.71" r="50.89"/><circle class="b" cx="79.06" cy="66.71" r="45.24"/><circle class="c" cx="134.63" cy="111.95" r="13.44"/><circle class="d" cx="13.44" cy="84.16" r="13.44"/><circle class="e" cx="42.44" cy="9.57" r="9.57"/><circle class="a" cx="129.95" cy="38.73" r="22.93"/><path class="f" d="M121.38,21.8l7.47-1.07.1,27.56,13.84-2,0,7L121.5,56.4Z"/><path class="g" d="M78.83,64.71A10.37,10.37,0,0,0,68.47,75.08v10a8.43,8.43,0,0,0,2.13,5.63A5,5,0,0,0,69,94.46v2.07a.83.83,0,0,0,.83.83h18a.83.83,0,0,0,.83-.83V94.46A5,5,0,0,0,87,90.81a8.43,8.43,0,0,0,2.19-5.68v-10A10.38,10.38,0,0,0,78.83,64.71Zm8.09,31H70.62V94.46a3.28,3.28,0,0,1,2-3l3.87-1.63a3.19,3.19,0,0,0,4.52,0l3.87,1.63a3.28,3.28,0,0,1,2,3v1.23ZM79,85.56a5.42,5.42,0,0,1-5.41-5.41V74.21h5.81a.84.84,0,0,0,.66-.32l.86-1.09.93,1.11a.82.82,0,0,0,.64.3h1.91v5.94A5.41,5.41,0,0,1,79,85.56Zm1.31,1.54v.45a1.52,1.52,0,0,1-3,0V87a6.93,6.93,0,0,0,1.72.22,7.18,7.18,0,0,0,1.31-.13Zm7.23-2a6.73,6.73,0,0,1-2,4.76h0l-3.68-1.55a3.33,3.33,0,0,0,.1-.78v-1a7.11,7.11,0,0,0,4.1-6.42V74a1.43,1.43,0,0,0-1.42-1.42H82.86l-1-1.22a1.28,1.28,0,0,0-1-.45,1.24,1.24,0,0,0-1,.48L79,72.54H73.32A1.43,1.43,0,0,0,71.9,74v6.19a7.09,7.09,0,0,0,3.69,6.21v1.19a3.33,3.33,0,0,0,.09.78l-3.63,1.53a6.74,6.74,0,0,1-1.91-4.73v-10a8.69,8.69,0,1,1,17.38,0v10Z"/><circle class="g" cx="75.88" cy="77.02" r="0.91"/><circle class="g" cx="81.77" cy="77.02" r="0.91"/><circle class="g" cx="91" cy="76.94" r="0.63"/><circle class="g" cx="95.08" cy="76.94" r="0.63"/><circle class="g" cx="66.32" cy="76.94" r="0.63"/><circle class="g" cx="62.24" cy="76.94" r="0.63"/><path class="g" d="M98.21,40.41H59.54A7.6,7.6,0,0,0,52,48V65a7.55,7.55,0,0,0,5,7.13,5.17,5.17,0,0,0-.14,1.19v2.91a2.36,2.36,0,0,0-.44,1.38A2.41,2.41,0,0,0,58.76,80h.34a5.15,5.15,0,0,0,2.76,3.72v.52a2.56,2.56,0,0,0,0,.39l-2.36,1A3.68,3.68,0,0,0,57.26,89v1.43a.84.84,0,0,0,.84.83h9.52a.83.83,0,0,0,.83-.83.84.84,0,0,0-.83-.84H58.93V89a2,2,0,0,1,1.25-1.87l2.52-1.06a2.46,2.46,0,0,0,3.24,0l.86.36a.87.87,0,0,0,.32.06.84.84,0,0,0,.77-.51.83.83,0,0,0-.45-1.09l-.69-.29a2.56,2.56,0,0,0,0-.39v-.67a5,5,0,0,0,.71-.5.83.83,0,0,0-1.07-1.28,3.48,3.48,0,0,1-5.73-2.67V75.25h5a.84.84,0,0,0,.83-.84.83.83,0,0,0-.83-.83H60.26A1.24,1.24,0,0,0,59,74.82v.35h-.26l-.29,0V73.28a3.58,3.58,0,0,1,3.58-3.57H67A.84.84,0,1,0,67,68h-4.9a5.24,5.24,0,0,0-4.47,2.5,5.88,5.88,0,0,1-4-5.58V48a5.92,5.92,0,0,1,5.92-5.91H98.21A5.92,5.92,0,0,1,104.13,48V65a5.91,5.91,0,0,1-4.71,5.79A7.92,7.92,0,0,0,90.18,68a.84.84,0,1,0,.6,1.56,6.26,6.26,0,0,1,8.51,5.83v3.51h-1V74.82a1.24,1.24,0,0,0-1.24-1.24H96l-.62-.75a1.15,1.15,0,0,0-.88-.41,1.17,1.17,0,0,0-.87.43l-.56.73H90.84a.84.84,0,0,0-.84.83.85.85,0,0,0,.84.84h2.58a.84.84,0,0,0,.66-.32l.4-.51.44.53a.82.82,0,0,0,.64.3h1.07V79.1a3.5,3.5,0,0,1-3.49,3.49,3.43,3.43,0,0,1-2-.64.84.84,0,0,0-1,1.37,3.17,3.17,0,0,0,.36.23v.67a2.56,2.56,0,0,0,0,.39l-.23.1a.83.83,0,0,0,.32,1.6.87.87,0,0,0,.32-.06l.4-.17a2.46,2.46,0,0,0,1.62.61,2.42,2.42,0,0,0,1.61-.61l2.53,1.06A2,2,0,0,1,98.38,89v.59h-8.6a.84.84,0,0,0-.83.84.83.83,0,0,0,.83.83h9.44a.84.84,0,0,0,.84-.83V89a3.7,3.7,0,0,0-2.27-3.41l-2.36-1a2.56,2.56,0,0,0,0-.39V83.7a5.14,5.14,0,0,0,2.61-3.09h1.44A1.45,1.45,0,0,0,101,79.16V75.43a7.88,7.88,0,0,0-.67-3.18A7.6,7.6,0,0,0,105.8,65V48a7.59,7.59,0,0,0-7.59-7.58ZM65.11,84.17v0a.79.79,0,1,1-1.58,0h0a4.62,4.62,0,0,0,.65.05,4.88,4.88,0,0,0,.93-.09ZM59,76.84v1.47h-.26a.74.74,0,0,1,0-1.47Zm34.77,7.38a.79.79,0,0,1-1.58,0v0a4.81,4.81,0,0,0,.93.09,4.62,4.62,0,0,0,.65-.05Z"/><path class="g" d="M99.49,67.19a.84.84,0,0,0-.3,1.14.82.82,0,0,0,.72.42.91.91,0,0,0,.42-.11A4.28,4.28,0,0,0,102.46,65V48a4.25,4.25,0,0,0-4.25-4.24h-4a.83.83,0,0,0-.83.83.84.84,0,0,0,.83.84h4A2.58,2.58,0,0,1,100.79,48V65a2.59,2.59,0,0,1-1.3,2.23Z"/><path class="g" d="M59.54,45.42H90.8a.85.85,0,0,0,.84-.84.84.84,0,0,0-.84-.83H59.54A4.25,4.25,0,0,0,55.29,48V65a4.26,4.26,0,0,0,1.88,3.52.83.83,0,0,0,.94-1.38A2.6,2.6,0,0,1,57,65V48a2.58,2.58,0,0,1,2.58-2.57Z"/><path class="g" d="M77.31,50.78a2.26,2.26,0,0,0-3.44,1.91V59.8a2.23,2.23,0,0,0,1.16,2,2.28,2.28,0,0,0,1.09.29,2.25,2.25,0,0,0,1.19-.35L83,58.16a2.25,2.25,0,0,0,0-3.82Zm4.83,6-5.71,3.55a.56.56,0,0,1-.59,0,.57.57,0,0,1-.3-.51V52.69a.57.57,0,0,1,.3-.5.59.59,0,0,1,.29-.08.54.54,0,0,1,.3.09l5.71,3.56a.55.55,0,0,1,.27.49A.56.56,0,0,1,82.14,56.74Z"/></svg>