<svg xmlns="http://www.w3.org/2000/svg" viewBox="0 0 152.88 125.39"><defs><style>.a{fill:#fcb912;}.b{fill:#008f93;}.c{fill:#5ccaf2;}.d{fill:#f68f1e;}.e{fill:#34b678;}.f{fill:#275584;}.g{fill:#fff;}</style></defs><title>Sec. Iconografia general  - Icono Workshop</title><circle class="a" cx="79.06" cy="66.71" r="50.89"/><circle class="b" cx="79.06" cy="66.71" r="45.24"/><circle class="c" cx="134.63" cy="111.95" r="13.44"/><circle class="d" cx="13.44" cy="84.16" r="13.44"/><circle class="e" cx="42.44" cy="9.57" r="9.57"/><circle class="a" cx="129.95" cy="38.73" r="22.93"/><path class="f" d="M121.38,21.8l7.47-1.07.1,27.56,13.84-2,0,7L121.5,56.4Z"/><path class="g" d="M68.17,47.18a5,5,0,0,0-1.33.18,7.07,7.07,0,0,0-12,5.13.88.88,0,0,0,.89.88H72.59a.87.87,0,0,0,.88-.88A5.31,5.31,0,0,0,68.17,47.18ZM56.73,51.61h0A5.31,5.31,0,0,1,65.93,49a.86.86,0,0,0,1,.23,3.54,3.54,0,0,1,4.69,2.42Z"/><rect class="g" x="68.17" y="55.14" width="1.77" height="1.77" rx="0.88" ry="0.88"/><rect class="g" x="71.7" y="55.14" width="1.77" height="1.77" rx="0.88" ry="0.88"/><rect class="g" x="75.24" y="55.14" width="1.77" height="1.77" rx="0.88" ry="0.88"/><path class="g" d="M96.48,71.69a2.64,2.64,0,0,0-2.22-2.62l-2.93-.49.57-2.82h7.24v5.31h1.77V53.92l6.59-3.29a.89.89,0,0,0,0-1.59l-7.08-3.54a.9.9,0,0,0-.86,0,.89.89,0,0,0-.42.75V60.45H92.46a5.26,5.26,0,0,0,1.37-3.54,5.31,5.31,0,1,0-8.81,4L77.4,67.68l-5,2.47-2.54-.42a5.3,5.3,0,1,0-7,.07.43.43,0,0,0,0,.07L60.17,77a4.43,4.43,0,0,0,.37,3.93,4.88,4.88,0,0,0,.48.62l-2.41,4L55.15,89a.88.88,0,0,0,0,1.25l2.66,2.66a.87.87,0,0,0,.62.26.91.91,0,0,0,.63-.26l4.42-4.43.11-.13,3.4-5.1,1.18.1V87h-.89a.88.88,0,0,0-.88.89v6.37l-10.82,2.5a.89.89,0,0,0-.69.86v.88h1.77v-.18l10.82-2.49a.89.89,0,0,0,.69-.86v-6.2H81.44a.92.92,0,0,0,.66-.29l7.7-8.56H108V78.15H96.48Zm4.43-24,4.21,2.1-4.21,2.11ZM85,56.91a3.54,3.54,0,1,1,3.54,3.54A3.55,3.55,0,0,1,85,56.91Zm-1.25,7.51-1.35,3.5-2.5,1.88-.82-1.23ZM62.86,65.76A3.54,3.54,0,1,1,66.4,69.3,3.54,3.54,0,0,1,62.86,65.76Zm-.69,21.56-3.74,3.74L57,89.66l2.91-2.92a.7.7,0,0,0,.13-.17l2.38-4A4.45,4.45,0,0,0,63.9,83l1.08.1ZM72.59,87H69.93V82.58a.87.87,0,0,0-.8-.88l-5.07-.47a2.58,2.58,0,0,1-2-1.24,2.61,2.61,0,0,1-.23-2.35l2.53-6.57h2.86l5.23.88a.87.87,0,0,0,.55-.09l4.61-2.3.81,1.21-5.17,3H69.05a.88.88,0,0,0-.86.67l-.88,3.54a.87.87,0,0,0,.12.7A.88.88,0,0,0,68,79l3.83.64a.88.88,0,0,1,.74.88V87Zm17.7-8.85H89.4a.88.88,0,0,0-.65.29L81.05,87H74.36V80.54a2.64,2.64,0,0,0-2.22-2.62l-2.88-.48.48-1.94h3.73a.83.83,0,0,0,.44-.12l6.2-3.54,0,0,.06,0,1.85-1.39a4.44,4.44,0,0,0,.62,1.69,4.21,4.21,0,0,0,.47.62l-2.4,4-3.47,3.46a.89.89,0,0,0,0,1.25l2.66,2.66a.88.88,0,0,0,1.25,0l4.42-4.43a.45.45,0,0,0,.11-.13l3.4-5.1,1.18.11Zm-5.72-4.39a4.45,4.45,0,0,0,1.45.39l1.09.1-2.82,4.22-3.74,3.74-1.4-1.4,2.91-2.92a.75.75,0,0,0,.14-.17Zm10.14,4.39H92.06V73.73a.88.88,0,0,0-.81-.88l-5.07-.47A2.65,2.65,0,0,1,84,68.79l2.52-6.57H99.14V64h-8a.88.88,0,0,0-.86.71l-.89,4.43a.87.87,0,0,0,.14.68.93.93,0,0,0,.58.37l3.83.64a.87.87,0,0,1,.74.87Z"/></svg>