<svg xmlns="http://www.w3.org/2000/svg" viewBox="0 0 152.88 125.39"><defs><style>.a{fill:#fcb912;}.b{fill:#008f93;}.c{fill:#5ccaf2;}.d{fill:#f68f1e;}.e{fill:#34b678;}.f{fill:#275584;}.g{fill:#fff;}</style></defs><title>Sec. Iconografia general  - Icono Capital Semilla</title><circle class="a" cx="79.06" cy="66.71" r="50.89"/><circle class="b" cx="79.06" cy="66.71" r="45.24"/><circle class="c" cx="134.63" cy="111.95" r="13.44"/><circle class="d" cx="13.44" cy="84.16" r="13.44"/><circle class="e" cx="42.44" cy="9.57" r="9.57"/><circle class="a" cx="129.95" cy="38.73" r="22.93"/><path class="f" d="M121.38,21.8l7.47-1.07.1,27.56,13.84-2,0,7L121.5,56.4Z"/><path class="g" d="M98.3,43.05a1.47,1.47,0,0,0-1.48-1.47A18.85,18.85,0,0,0,79.47,53.1,18.82,18.82,0,0,0,62.12,41.58a1.47,1.47,0,0,0-1.47,1.47A18.86,18.86,0,0,0,78,61.82v9.62a1.48,1.48,0,0,0,3,0V61.82A18.86,18.86,0,0,0,98.3,43.05ZM63.67,44.6A15.91,15.91,0,0,1,77.93,58.85,15.9,15.9,0,0,1,63.67,44.6ZM81,58.85A15.9,15.9,0,0,1,95.28,44.6,15.91,15.91,0,0,1,81,58.85Z"/><path class="g" d="M70.26,71.19a4.82,4.82,0,0,0-6.67-.14V65.13a7.78,7.78,0,0,0-7.78-7.78h0a1.47,1.47,0,0,0-1.47,1.47V77.75a1.44,1.44,0,0,0,.43,1l9,9v2.54a1.47,1.47,0,0,0,1.48,1.47h11a1.47,1.47,0,0,0,1.47-1.47V81.94a7.72,7.72,0,0,0-2.28-5.5ZM74.85,88.9h-8.1V87.22a1.48,1.48,0,0,0-.43-1l-9-9V60.53a4.84,4.84,0,0,1,3.37,4.6V74.6a1.46,1.46,0,0,0,.43,1L67.39,82a1.48,1.48,0,0,0,2.08,0,1.46,1.46,0,0,0,0-2.08l-3.94-4a1.87,1.87,0,0,1,2.65-2.65l5.25,5.25a4.84,4.84,0,0,1,1.42,3.42v7Z"/><path class="g" d="M103.14,57.35h0a7.79,7.79,0,0,0-7.78,7.78v5.92a4.8,4.8,0,0,0-6.66.14l-5.25,5.25a7.72,7.72,0,0,0-2.28,5.5v8.43a1.47,1.47,0,0,0,1.47,1.47h11a1.47,1.47,0,0,0,1.47-1.47V87.83l9-9a1.48,1.48,0,0,0,.43-1V58.82A1.47,1.47,0,0,0,103.14,57.35Zm-1.48,19.79-9,9a1.44,1.44,0,0,0-.43,1V88.9H84.1v-7a4.8,4.8,0,0,1,1.42-3.42l5.25-5.25a1.87,1.87,0,0,1,2.65,2.65l-4,4A1.47,1.47,0,0,0,91.56,82l6.31-6.31a1.5,1.5,0,0,0,.43-1V65.13a4.85,4.85,0,0,1,3.36-4.6V77.14Z"/></svg>