<svg xmlns="http://www.w3.org/2000/svg" xmlns:xlink="http://www.w3.org/1999/xlink" viewBox="0 0 225.23 52.59"><defs><style>.cls-1{fill:url(#Black_grade);}.cls-2{fill:url(#linear-gradient);}.cls-3{fill:url(#linear-gradient-2);}.cls-4{fill:url(#linear-gradient-3);}.cls-5{fill:url(#linear-gradient-4);}.cls-6{fill:url(#linear-gradient-5);}.cls-7{fill:url(#linear-gradient-6);}.cls-8{fill:url(#linear-gradient-7);}.cls-9{fill:url(#linear-gradient-8);}.cls-10{fill:url(#linear-gradient-9);}</style><linearGradient id="Black_grade" y1="26.29" x2="225.23" y2="26.29" gradientUnits="userSpaceOnUse"><stop offset="0" stop-color="#4d4e4e"/><stop offset="1" stop-color="#221f1f"/></linearGradient><linearGradient id="linear-gradient" x1="32.13" y1="24.65" x2="47.83" y2="24.65" gradientUnits="userSpaceOnUse"><stop offset="0" stop-color="#f8a03f"/><stop offset="1" stop-color="#ed7a23"/></linearGradient><linearGradient id="linear-gradient-2" x1="49.69" y1="27.12" x2="64.21" y2="27.12" xlink:href="#linear-gradient"/><linearGradient id="linear-gradient-3" x1="67.14" y1="26.97" x2="80.78" y2="26.97" xlink:href="#linear-gradient"/><linearGradient id="linear-gradient-4" x1="83.6" y1="27.12" x2="98.12" y2="27.12" xlink:href="#linear-gradient"/><linearGradient id="linear-gradient-5" x1="100.34" y1="27.12" x2="112.15" y2="27.12" xlink:href="#linear-gradient"/><linearGradient id="linear-gradient-6" x1="114.04" y1="27.12" x2="127.68" y2="27.12" xlink:href="#linear-gradient"/><linearGradient id="linear-gradient-7" x1="138.01" y1="26.97" x2="160.65" y2="26.97" xlink:href="#linear-gradient"/><linearGradient id="linear-gradient-8" x1="163.47" y1="23.66" x2="176.21" y2="23.66" xlink:href="#linear-gradient"/><linearGradient id="linear-gradient-9" x1="179.31" y1="27.11" x2="190.49" y2="27.11" xlink:href="#linear-gradient"/></defs><title>boton_ye</title><g id="Capa_2" data-name="Capa 2"><g id="Young_Entrepreneur" data-name="Young Entrepreneur"><rect class="cls-1" width="225.23" height="52.59" rx="26.29"/><path class="cls-2" d="M41.68,35a9.06,9.06,0,0,1-7-2.76,10.8,10.8,0,0,1-2.58-7.65,10.3,10.3,0,0,1,2.69-7.43,9.34,9.34,0,0,1,7-2.8,10.46,10.46,0,0,1,6,1.63l-1.17,2.81A8.91,8.91,0,0,0,42,17.33a5.34,5.34,0,0,0-4.37,2A8.24,8.24,0,0,0,36,24.67a8.3,8.3,0,0,0,1.55,5.39A5.39,5.39,0,0,0,42,32a10.93,10.93,0,0,0,5-1.26l.49,2.9A11,11,0,0,1,41.68,35Z"/><path class="cls-3" d="M56.87,35a6.67,6.67,0,0,1-5.26-2.16,8.26,8.26,0,0,1-1.92-5.7,8.18,8.18,0,0,1,1.92-5.74A6.93,6.93,0,0,1,57,19.26a6.73,6.73,0,0,1,5.28,2.15,8.27,8.27,0,0,1,1.91,5.7,8.19,8.19,0,0,1-1.93,5.73A6.93,6.93,0,0,1,56.87,35ZM57,32.25a3.09,3.09,0,0,0,2.74-1.33,6.7,6.7,0,0,0,.92-3.81,6.67,6.67,0,0,0-.92-3.82,3.53,3.53,0,0,0-5.51,0,6.59,6.59,0,0,0-.92,3.82,6.58,6.58,0,0,0,.93,3.8A3.14,3.14,0,0,0,57,32.25Z"/><path class="cls-4" d="M67.14,34.69V19.63H70l.4,1.91a7.11,7.11,0,0,1,5.11-2.28,4.94,4.94,0,0,1,3.94,1.52,6.54,6.54,0,0,1,1.3,4.39v9.52h-3.6V25.6a5.16,5.16,0,0,0-.59-2.72A2.26,2.26,0,0,0,74.52,22a4,4,0,0,0-2.13.6,3.65,3.65,0,0,0-1.4,1.5,15.36,15.36,0,0,0-.26,3.29v7.33Z"/><path class="cls-5" d="M90.78,35a6.67,6.67,0,0,1-5.26-2.16,8.26,8.26,0,0,1-1.92-5.7,8.18,8.18,0,0,1,1.92-5.74,6.93,6.93,0,0,1,5.41-2.11,6.7,6.7,0,0,1,5.28,2.15,8.22,8.22,0,0,1,1.91,5.7,8.19,8.19,0,0,1-1.93,5.73A6.93,6.93,0,0,1,90.78,35Zm.1-2.72a3.11,3.11,0,0,0,2.74-1.33,6.7,6.7,0,0,0,.92-3.81,6.67,6.67,0,0,0-.92-3.82,3.54,3.54,0,0,0-5.52,0,6.67,6.67,0,0,0-.92,3.82,6.58,6.58,0,0,0,.93,3.8A3.15,3.15,0,0,0,90.88,32.25Z"/><path class="cls-6" d="M107.64,35a7,7,0,0,1-5.37-2A8.25,8.25,0,0,1,100.34,27a7.84,7.84,0,0,1,2-5.74,7.17,7.17,0,0,1,5.33-2,8.23,8.23,0,0,1,4.46,1.14L111.3,23a7.53,7.53,0,0,0-3.46-1,3.46,3.46,0,0,0-2.87,1.3,5.92,5.92,0,0,0-1,3.79,6.12,6.12,0,0,0,1,3.84,3.5,3.5,0,0,0,2.93,1.31,6.9,6.9,0,0,0,3.79-1.16L112,33.8a6.59,6.59,0,0,1-2,.9A9.5,9.5,0,0,1,107.64,35Z"/><path class="cls-7" d="M121.71,35a7.47,7.47,0,0,1-5.65-2.09,7.92,7.92,0,0,1-2-5.77,8.29,8.29,0,0,1,1.9-5.71,6.66,6.66,0,0,1,5.2-2.14A6.08,6.08,0,0,1,126,21.21a7.48,7.48,0,0,1,1.72,5.16v.75c0,.35,0,.61,0,.77h-10a4.73,4.73,0,0,0,1.15,3.27,4,4,0,0,0,3,1.16A9.5,9.5,0,0,0,126.59,31l.5,2.55A10,10,0,0,1,121.71,35Zm-4-9.34h6.57a4.24,4.24,0,0,0-.84-2.82,2.84,2.84,0,0,0-2.31-1,3.18,3.18,0,0,0-2.34,1A4.37,4.37,0,0,0,117.73,25.63Z"/><path class="cls-8" d="M138,34.69V19.63h2.9l.42,1.92c.18-.23.35-.43.52-.61a5.18,5.18,0,0,1,.7-.6,4.56,4.56,0,0,1,.95-.56,6.49,6.49,0,0,1,1.23-.37,7.82,7.82,0,0,1,1.57-.15,5,5,0,0,1,2.87.73,4.11,4.11,0,0,1,1.51,1.7,5.39,5.39,0,0,1,2.1-1.8,6.39,6.39,0,0,1,2.86-.63,4.64,4.64,0,0,1,3.8,1.47,6.67,6.67,0,0,1,1.21,4.34v9.62h-3.6V26.14a7.58,7.58,0,0,0-.49-3.19,1.87,1.87,0,0,0-1.85-1,3.13,3.13,0,0,0-3,1.89,6.84,6.84,0,0,0-.52,2v8.81h-3.59V26a6.49,6.49,0,0,0-.53-3,2,2,0,0,0-1.93-1,3.35,3.35,0,0,0-2,.57,3.76,3.76,0,0,0-1.25,1.51,15.14,15.14,0,0,0-.31,3.31v7.31Z"/><path class="cls-9" d="M168.16,35a4.89,4.89,0,0,1-3.39-1.15,4.25,4.25,0,0,1-1.3-3.34A4,4,0,0,1,165,27a9.27,9.27,0,0,1,4.63-1.43l.91-.11c.33,0,.7-.08,1.11-.11l1-.1v-.79a2.73,2.73,0,0,0-.63-2,2.65,2.65,0,0,0-1.92-.62,13.1,13.1,0,0,0-4.53,1l-.46-1.25-.45-1.23a14.43,14.43,0,0,1,5.75-1.14,6.26,6.26,0,0,1,4.43,1.32,5.73,5.73,0,0,1,1.38,4.28v9.83h-2.66s-.1-.35-.3-.92-.28-.88-.28-.92a8.52,8.52,0,0,1-2.2,1.61A6.07,6.07,0,0,1,168.16,35Zm1-2.54a3.88,3.88,0,0,0,2.17-.6,3.43,3.43,0,0,0,1.32-1.45v-2.9l-.72.06-.73.05a7.56,7.56,0,0,0-3.19.82,2.2,2.2,0,0,0-1,2,1.86,1.86,0,0,0,.56,1.47A2.3,2.3,0,0,0,169.13,32.43Zm-.34-14.84,2.34-5.24h4.1l-4.32,5.24Z"/><path class="cls-10" d="M184.64,35a10.73,10.73,0,0,1-5.33-1.14l.37-2.7A11,11,0,0,0,182,32a9.54,9.54,0,0,0,2.55.39,3.26,3.26,0,0,0,1.85-.45,1.48,1.48,0,0,0,.68-1.3,1.45,1.45,0,0,0-.62-1.24,12,12,0,0,0-2.38-1.12l-.78-.29a8.05,8.05,0,0,1-3-1.8,3.82,3.82,0,0,1-.92-2.69,3.68,3.68,0,0,1,1.49-3.15,6.86,6.86,0,0,1,4.14-1.1,11.28,11.28,0,0,1,5.06,1.08l-.89,2.48a9.85,9.85,0,0,0-4.1-1,3.23,3.23,0,0,0-1.69.37,1.19,1.19,0,0,0-.61,1.1,1.25,1.25,0,0,0,.59,1.09,12.74,12.74,0,0,0,2.3,1l.36.12.46.18a7.66,7.66,0,0,1,3,1.8,3.86,3.86,0,0,1,1,2.73,4.29,4.29,0,0,1-1.54,3.5A6.68,6.68,0,0,1,184.64,35Z"/></g></g></svg>