<svg xmlns="http://www.w3.org/2000/svg" xmlns:xlink="http://www.w3.org/1999/xlink" viewBox="0 0 75.63 73.53"><defs><style>.cls-1{fill:#636060;}.cls-2{fill:#030303;}.cls-3{fill:#007dc5;}.cls-4{stroke-linecap:round;stroke-linejoin:round;stroke-width:2px;fill:url(#linear-gradient);stroke:url(#linear-gradient-2);}.cls-5{fill:url(#linear-gradient-3);}.cls-6{fill:#fff;}.cls-7{fill:url(#linear-gradient-4);}</style><linearGradient id="linear-gradient" x1="41.51" y1="12.96" x2="29.12" y2="28.68" gradientUnits="userSpaceOnUse"><stop offset="0" stop-color="#6a9ed4"/><stop offset="1" stop-color="#007dc5"/></linearGradient><linearGradient id="linear-gradient-2" x1="61.15" y1="21.04" x2="24.92" y2="21.04" gradientUnits="userSpaceOnUse"><stop offset="0" stop-color="#4d4d4d"/><stop offset="1" stop-color="#231f20"/></linearGradient><linearGradient id="linear-gradient-3" x1="49.42" y1="33.94" x2="45.29" y2="40.61" xlink:href="#linear-gradient"/><linearGradient id="linear-gradient-4" x1="59.25" y1="11.03" x2="42.81" y2="11.03" xlink:href="#linear-gradient-2"/></defs><title>full inclusion</title><g id="Capa_2" data-name="Capa 2"><g id="LOGOS_CURVA" data-name="LOGOS CURVA"><path class="cls-1" d="M18.74,71.42a.07.07,0,0,1,.06.06v.06a.08.08,0,0,1,0,0,.05.05,0,0,1,0,0h-.39v1.81a.08.08,0,0,1,0,0H18.2s-.05,0-.05-.06V71.61h-.28l0,0s0,0,0,0v-.06s0,0,0,0l0,0h.28v-.36a.75.75,0,0,1,0-.26.69.69,0,0,1,.13-.2.53.53,0,0,1,.2-.13.7.7,0,0,1,.25,0l.05,0s0,0,0,0v.08a.05.05,0,0,1,0,0l-.05,0a.41.41,0,0,0-.16,0,.42.42,0,0,0-.14.09.61.61,0,0,0-.09.16.75.75,0,0,0,0,.23v.28Z"/><path class="cls-1" d="M22.28,73.23v-.11a.7.7,0,0,1-.13.16l-.16.13-.2.08-.23,0a.92.92,0,0,1-.38-.07,1.21,1.21,0,0,1-.3-.2,1.17,1.17,0,0,1-.19-.3.94.94,0,0,1-.07-.37V71.3a.08.08,0,0,1,0-.06l.05,0h.07a.06.06,0,0,1,.05,0,.08.08,0,0,1,0,.06v1.28a.86.86,0,0,0,.05.27.91.91,0,0,0,.15.23.76.76,0,0,0,.23.17.78.78,0,0,0,.31.06.86.86,0,0,0,.27,0,1.14,1.14,0,0,0,.23-.15.86.86,0,0,0,.15-.22.59.59,0,0,0,.07-.29V71.28a.05.05,0,0,1,.06-.06h.09a.05.05,0,0,1,.06.06v2.13a.06.06,0,0,1-.07.07h-.07c-.05,0-.07,0-.07-.06Z"/><path class="cls-1" d="M24.45,70.61a0,0,0,0,1,.05,0h.1s.06,0,.06,0v2.82s0,0-.06,0h-.09s-.06,0-.06,0Z"/><path class="cls-1" d="M26.64,70.61s0,0,.06,0h.09s.06,0,.06,0v2.82s0,0-.06,0H26.7s-.06,0-.06,0Z"/><path class="cls-1" d="M31.33,70.58a.07.07,0,0,1,0,0l0,0h.13s0,0,0,0a.07.07,0,0,1,0,0v.07a.1.1,0,0,1,0,.07h-.19a.06.06,0,0,1,0,0Zm0,.72a.05.05,0,0,1,.06-.06h.09a.05.05,0,0,1,.06.06v2.13s0,0-.06,0H31.4s-.06,0-.06,0Z"/><path class="cls-1" d="M33.62,71.3a.05.05,0,0,1,0,0l0,0h.07l.05,0a.08.08,0,0,1,0,0v.27a.63.63,0,0,1,.17-.19.82.82,0,0,1,.2-.12.46.46,0,0,1,.2-.05.55.55,0,0,1,.18,0,.9.9,0,0,1,.37.07.86.86,0,0,1,.29.21.83.83,0,0,1,.18.3.9.9,0,0,1,.07.37V73.4a.08.08,0,0,1,0,.06.06.06,0,0,1,0,0h-.07s0,0-.05,0a.08.08,0,0,1,0,0V72.13a.86.86,0,0,0-.05-.27.88.88,0,0,0-.14-.23.72.72,0,0,0-.22-.17.73.73,0,0,0-.3-.06.59.59,0,0,0-.27,0,.72.72,0,0,0-.24.14.73.73,0,0,0-.16.22.53.53,0,0,0-.07.28v1.34s0,0-.06,0h-.09s-.06,0-.06,0v-.5h0Z"/><path class="cls-1" d="M39.14,71.65h0a0,0,0,0,1,0,0L39,71.58a.62.62,0,0,0-.12-.08l-.19-.08a1,1,0,0,0-.26,0,.86.86,0,0,0-.36.08,1,1,0,0,0-.31.21,1.21,1.21,0,0,0-.2.3.84.84,0,0,0-.08.38.93.93,0,0,0,.28.68.81.81,0,0,0,.3.21.86.86,0,0,0,.36.08l.18,0,.15,0a.38.38,0,0,0,.13-.06l.12-.08,0,0,0,0,0,0h0l0,0,0,.07a0,0,0,0,1,0,0v0h0a.38.38,0,0,1-.11.11,1.3,1.3,0,0,1-.31.16,1,1,0,0,1-.36.06,1.55,1.55,0,0,1-.31,0,1.39,1.39,0,0,1-.28-.12,1.43,1.43,0,0,1-.24-.19,1.3,1.3,0,0,1-.18-.23,1.39,1.39,0,0,1-.12-.28,1.06,1.06,0,0,1,0-.31,1.05,1.05,0,0,1,.16-.58,1.08,1.08,0,0,1,.18-.24,1.37,1.37,0,0,1,.24-.18,1.39,1.39,0,0,1,.28-.12,1.06,1.06,0,0,1,.31,0,.65.65,0,0,1,.2,0l.2,0,.18.09.15.1h0l0,0a.05.05,0,0,1,0,0s0,0,0,0Z"/><path class="cls-1" d="M41.08,70.61s0,0,.06,0h.09s.06,0,.06,0v2.82s0,0-.06,0h-.09s-.06,0-.06,0Z"/><path class="cls-1" d="M44.93,73.23v-.11a.73.73,0,0,1-.14.16l-.16.13-.2.08-.23,0a1,1,0,0,1-.38-.07,1,1,0,0,1-.29-.2,1,1,0,0,1-.2-.3.94.94,0,0,1-.07-.37V71.3a.08.08,0,0,1,0-.06l0,0h.07l.06,0a.35.35,0,0,1,0,.06v1.28a.66.66,0,0,0,.06.27.68.68,0,0,0,.14.23.81.81,0,0,0,.24.17.73.73,0,0,0,.3.06.76.76,0,0,0,.27,0,.91.91,0,0,0,.23-.15.89.89,0,0,0,.16-.22.72.72,0,0,0,.06-.29V71.28a.05.05,0,0,1,.06-.06h.09a.05.05,0,0,1,.06.06v2.13s0,.07-.07.07H45s-.07,0-.07-.06Z"/><path class="cls-1" d="M47,73h0v0a0,0,0,0,1,0,0l0,0,.07,0h0a.05.05,0,0,1,0,0,.08.08,0,0,1,0,0s0,0,0,0a.31.31,0,0,0,.1.13.42.42,0,0,0,.14.09l.15,0,.14,0,.18,0a.62.62,0,0,0,.19-.07.66.66,0,0,0,.15-.14.32.32,0,0,0,.06-.2.31.31,0,0,0-.06-.19.4.4,0,0,0-.13-.13.66.66,0,0,0-.19-.09.83.83,0,0,0-.21-.06,1.06,1.06,0,0,1-.25-.09.67.67,0,0,1-.22-.13.61.61,0,0,1-.15-.17.43.43,0,0,1-.06-.22.66.66,0,0,1,0-.25.59.59,0,0,1,.15-.2.66.66,0,0,1,.22-.12.82.82,0,0,1,.28,0,.61.61,0,0,1,.24,0,.72.72,0,0,1,.2.09.54.54,0,0,1,.15.15.86.86,0,0,1,.11.19h0s0,0,0,0a0,0,0,0,1,0,0l0,0,0,0h-.06s0,0,0,0l0,0,0,0a.55.55,0,0,0-.2-.2.72.72,0,0,0-.48,0,.48.48,0,0,0-.16.08.43.43,0,0,0-.11.12.53.53,0,0,0,0,.18.23.23,0,0,0,.06.16.37.37,0,0,0,.13.12.91.91,0,0,0,.17.09l.16,0h0l.29.1a.74.74,0,0,1,.23.14.52.52,0,0,1,.14.19.46.46,0,0,1,.06.23.51.51,0,0,1-.07.28.65.65,0,0,1-.17.2,1,1,0,0,1-.25.13,1.54,1.54,0,0,1-.3,0,1,1,0,0,1-.25,0,1.12,1.12,0,0,1-.22-.1.69.69,0,0,1-.17-.17A.5.5,0,0,1,47,73Z"/><path class="cls-1" d="M50.34,70.58a.43.43,0,0,1,0,0l0,0h.13s0,0,0,0a.07.07,0,0,1,0,0v.07s0,.06,0,.07h-.2a.06.06,0,0,1,0,0Zm0,.72a.05.05,0,0,1,.06-.06h.09a.05.05,0,0,1,.06.06v2.13s0,0-.06,0h-.09s-.06,0-.06,0Z"/><path class="cls-1" d="M52.49,72.36a1.05,1.05,0,0,1,.16-.58,1.06,1.06,0,0,1,.42-.42,1.39,1.39,0,0,1,.28-.12,1.06,1.06,0,0,1,.31,0,1,1,0,0,1,.3,0,1.39,1.39,0,0,1,.28.12,1.06,1.06,0,0,1,.42.42,1.05,1.05,0,0,1,.16.58,1.06,1.06,0,0,1,0,.31,1.39,1.39,0,0,1-.12.28,1.06,1.06,0,0,1-.42.42,1.39,1.39,0,0,1-.28.12,1.18,1.18,0,0,1-.61,0,1.39,1.39,0,0,1-.28-.12,1.06,1.06,0,0,1-.42-.42,1.39,1.39,0,0,1-.12-.28A1.06,1.06,0,0,1,52.49,72.36Zm.21,0a1,1,0,0,0,0,.25.92.92,0,0,0,.09.23A1,1,0,0,0,53,73a.9.9,0,0,0,.19.15.94.94,0,0,0,.23.1,1,1,0,0,0,.25,0,1,1,0,0,0,.68-.29.93.93,0,0,0,.2-.3,1,1,0,0,0,.08-.37,1,1,0,0,0-.07-.38,1.06,1.06,0,0,0-.21-.31,1.14,1.14,0,0,0-.3-.21.91.91,0,0,0-.37-.08,1,1,0,0,0-.68.29,1.1,1.1,0,0,0-.2.31A1,1,0,0,0,52.7,72.36Z"/><path class="cls-1" d="M56.71,71.3a.05.05,0,0,1,0,0l.05,0h.07l0,0a.08.08,0,0,1,0,0v.27a.63.63,0,0,1,.17-.19.82.82,0,0,1,.2-.12.46.46,0,0,1,.2-.05.55.55,0,0,1,.18,0,.9.9,0,0,1,.37.07.86.86,0,0,1,.29.21.83.83,0,0,1,.18.3.9.9,0,0,1,.07.37V73.4a.08.08,0,0,1,0,.06s0,0-.05,0h-.07s0,0,0,0a.08.08,0,0,1,0,0V72.13a.86.86,0,0,0,0-.27.68.68,0,0,0-.14-.23.72.72,0,0,0-.22-.17.73.73,0,0,0-.3-.06.62.62,0,0,0-.27,0,.72.72,0,0,0-.24.14.73.73,0,0,0-.16.22.53.53,0,0,0-.07.28v1.34s0,0-.06,0h-.09s-.06,0-.06,0v-.5h0Z"/><path class="cls-2" d="M8.39,61.86H10v1H8.39v1.28h2.1v1.06H7.34V59.46h3.15v1H8.39Zm0-1.35v0Z"/><path class="cls-2" d="M16.64,59.48v5.75l-.92-1-2.16-2.23v3.17H12.51V59.48l.91,1,2.17,2.22V59.48Zm-1.05,0h0Z"/><path class="cls-2" d="M18.66,59.47h3.26v1.05H20.79v4.73H19.74V60.52H18.66Zm0,0v0Z"/><path class="cls-2" d="M27.48,65.25H26.25l-1.17-2h-.15v2H23.88V59.47h1.54a1.86,1.86,0,0,1,1.35.56,1.9,1.9,0,0,1,.56,1.34,1.85,1.85,0,0,1-.56,1.35,2.14,2.14,0,0,1-.57.39Zm-2.55-3h.49a.82.82,0,0,0,.85-.85.89.89,0,0,0-.24-.61.85.85,0,0,0-.61-.24h-.49Z"/><path class="cls-2" d="M30.38,61.86h1.56v1H30.38v1.28h2.09v1.06H29.33V59.46h3.14v1H30.38Zm0-1.35v0Z"/><path class="cls-2" d="M35.54,59.47H36a1.85,1.85,0,0,1,1.35.56A1.91,1.91,0,0,1,36,63.29h-.49v2h-1V59.47Zm-1,0h0Zm1,1.06v1.7H36a.84.84,0,0,0,.61-.24.86.86,0,0,0,.25-.61.9.9,0,0,0-.25-.61.84.84,0,0,0-.61-.24Z"/><path class="cls-2" d="M43.4,65.25H42.17l-1.17-2h-.15v2H39.8V59.47h1.54a1.86,1.86,0,0,1,1.35.56,1.9,1.9,0,0,1,.56,1.34,1.85,1.85,0,0,1-.56,1.35,2.14,2.14,0,0,1-.57.39Zm-2.55-3h.49a.82.82,0,0,0,.85-.85.89.89,0,0,0-.24-.61.85.85,0,0,0-.61-.24h-.49Z"/><path class="cls-2" d="M46.3,61.86h1.56v1H46.3v1.28h2.09v1.06H45.25V59.46h3.14v1H46.3Zm0-1.35v0Z"/><path class="cls-2" d="M54.54,59.48v5.75l-.91-1-2.17-2.23v3.17H50.41V59.48l.92,1,2.16,2.22V59.48Zm-1,0h0Z"/><path class="cls-2" d="M57.61,61.86h1.56v1H57.61v1.28h2.1v1.06H56.56V59.46h3.15v1h-2.1Zm0-1.35v0Z"/><path class="cls-2" d="M62.83,59.47v3.36a2.06,2.06,0,0,0,.11.89.89.89,0,0,0,.37.42,1,1,0,0,0,1.36-.34,1.69,1.69,0,0,0,.14-.92V59.47h1v3.41a2.76,2.76,0,0,1-.28,1.46,2.21,2.21,0,0,1-.75.74,2,2,0,0,1-1,.26A2,2,0,0,1,62.73,65a2.08,2.08,0,0,1-.75-.86,2.93,2.93,0,0,1-.2-1.35,2,2,0,0,0,0-.24V59.47Zm0,0h0Z"/><path class="cls-2" d="M71.4,65.25H70.17l-1.17-2h-.15v2h-1V59.47h1.54a1.85,1.85,0,0,1,1.35.56,1.9,1.9,0,0,1,.56,1.34,1.85,1.85,0,0,1-.56,1.35,2.14,2.14,0,0,1-.57.39Zm-2.55-3h.49a.82.82,0,0,0,.85-.85.89.89,0,0,0-.24-.61.85.85,0,0,0-.61-.24h-.49Z"/><path class="cls-3" d="M12,52.86v4.81H9.56V53L5.62,44.69H8.25l2.47,5.19,2.44-5.19h2.63Zm0,0,3.84-8.17Z"/><path class="cls-3" d="M28.5,46.18A6.91,6.91,0,0,1,18.72,56a6.91,6.91,0,1,1,9.78-9.77Zm-4.89.35a4.59,4.59,0,0,0-4.54,4.53,4.48,4.48,0,0,0,1.35,3.21,4.52,4.52,0,0,0,3.19,1.33,4.54,4.54,0,0,0,4.54-4.54,4.56,4.56,0,0,0-4.54-4.53Z"/><path class="cls-3" d="M35.62,44.57v7.61a5,5,0,0,0,.23,2,2.27,2.27,0,0,0,.84.95,2.08,2.08,0,0,0,1.16.35,2.12,2.12,0,0,0,1.1-.3,2.18,2.18,0,0,0,.83-.82,4,4,0,0,0,.31-2.09V44.57h2.39V52.3a6.08,6.08,0,0,1-.65,3.3,4.72,4.72,0,0,1-1.7,1.68,4.48,4.48,0,0,1-2.28.6,4.32,4.32,0,0,1-2.46-.72,4.53,4.53,0,0,1-1.7-1.93,6.44,6.44,0,0,1-.47-3.07,5.06,5.06,0,0,0,0-.54v-7Zm0,0h0Z"/><path class="cls-3" d="M55.3,44.59v13l-2.07-2.16-4.91-5.05V57.6H46v-13L48,46.76l4.91,5.05V44.59Zm-2.37,0h0Z"/><path class="cls-3" d="M64.24,51h7.21v0a6.66,6.66,0,0,1-1.9,4.88,7,7,0,0,1-5,2.07,6.67,6.67,0,0,1-4.89-2,6.92,6.92,0,0,1,0-9.77,6.92,6.92,0,0,1,10.5.83l-1.93,1.4A4.66,4.66,0,0,0,66.59,47a4.32,4.32,0,0,0-2.07-.51,4.49,4.49,0,0,0-3.19,1.34,4.53,4.53,0,0,0,3.19,7.73,4.72,4.72,0,0,0,3.33-1.37,6.15,6.15,0,0,0,.65-.82l-4.26,0Zm0,0v0Z"/><rect class="cls-3" y="67.66" width="75.63" height="0.45"/><polygon class="cls-4" points="25.92 41.08 25.92 1 60.15 21.04 25.92 41.08"/><circle class="cls-5" cx="47.12" cy="37.66" r="4.08"/><path class="cls-6" d="M37.94,24.45v7.82H34.22V24.45L27.16,13.22h3.95l5,8.13,5-8.13H45Z"/><circle class="cls-7" cx="51.03" cy="11.03" r="8.22"/><path class="cls-6" d="M56.46,15A6.24,6.24,0,0,1,54,17a7.72,7.72,0,0,1-3.07.56A6.45,6.45,0,0,1,48.33,17a5.92,5.92,0,0,1-2-1.4,6.18,6.18,0,0,1-1.24-2.07A7.42,7.42,0,0,1,44.69,11a7.24,7.24,0,0,1,.48-2.63,6.22,6.22,0,0,1,1.34-2.06,5.88,5.88,0,0,1,2-1.33,6.47,6.47,0,0,1,2.55-.47A6.34,6.34,0,0,1,53.45,5a5.16,5.16,0,0,1,1.86,1.28,5.74,5.74,0,0,1,1.2,2A8.36,8.36,0,0,1,56.93,11v.66l-10,0a4.47,4.47,0,0,0,.38,1.52,4.57,4.57,0,0,0,.86,1.28,4,4,0,0,0,1.24.86,3.85,3.85,0,0,0,1.56.32,4.81,4.81,0,0,0,2.28-.47,5.11,5.11,0,0,0,1.68-1.4ZM54.71,9.93a3.57,3.57,0,0,0-1-2.54,3.73,3.73,0,0,0-2.7-1,4,4,0,0,0-2.78,1,4,4,0,0,0-1.28,2.54Z"/></g></g></svg>