<svg xmlns="http://www.w3.org/2000/svg" xmlns:xlink="http://www.w3.org/1999/xlink" viewBox="0 0 62 71.24"><defs><style>.cls-1{fill:url(#linear-gradient);}.cls-2{fill:url(#linear-gradient-2);}.cls-3{fill:url(#linear-gradient-3);}.cls-4{fill:#275584;}.cls-5{fill:#fff;}.cls-6{fill:#636060;}.cls-7{fill:#bfd630;}.cls-8{fill:#444;}</style><linearGradient id="linear-gradient" x1="38.37" y1="3.78" x2="30.5" y2="17.41" gradientUnits="userSpaceOnUse"><stop offset="0" stop-color="#cfde6d"/><stop offset="0.82" stop-color="#c2d83c"/><stop offset="1" stop-color="#bfd630"/></linearGradient><linearGradient id="linear-gradient-2" x1="30.01" y1="2.03" x2="30.01" y2="34.46" gradientUnits="userSpaceOnUse"><stop offset="0" stop-color="#62759c"/><stop offset="0.84" stop-color="#315a88"/><stop offset="1" stop-color="#275584"/></linearGradient><linearGradient id="linear-gradient-3" x1="52.03" y1="4.7" x2="48.71" y2="10.18" xlink:href="#linear-gradient"/></defs><title>girle</title><g id="Capa_2" data-name="Capa 2"><g id="LOGOS_CURVA" data-name="LOGOS CURVA"><circle class="cls-1" cx="30.01" cy="18.24" r="18.24"/><circle class="cls-2" cx="30.01" cy="18.24" r="16.21"/><circle class="cls-3" cx="48.88" cy="9.91" r="7.19"/><path class="cls-4" d="M54.05,12.64a5.56,5.56,0,0,1-1.87,2,6.6,6.6,0,0,1-2.59.87,5.62,5.62,0,0,1-2.33-.12,5.08,5.08,0,0,1-1.88-1A5.35,5.35,0,0,1,44,12.84a6.38,6.38,0,0,1-.69-2.15,6.28,6.28,0,0,1,.08-2.34,5.4,5.4,0,0,1,.89-2A5.33,5.33,0,0,1,45.9,5,5.6,5.6,0,0,1,48,4.26a5.54,5.54,0,0,1,2.12.08,4.43,4.43,0,0,1,1.78.87,4.83,4.83,0,0,1,1.29,1.61,7,7,0,0,1,.71,2.33l.08.57L45.35,11a3.78,3.78,0,0,0,.53,1.28,3.89,3.89,0,0,0,.9,1,3.36,3.36,0,0,0,1.18.59,3.27,3.27,0,0,0,1.4.08,4.33,4.33,0,0,0,1.91-.69,4.54,4.54,0,0,0,1.27-1.43ZM51.88,8.48a3.13,3.13,0,0,0-1.21-2.07,3.26,3.26,0,0,0-2.46-.49,3.33,3.33,0,0,0-3.07,3.53Z"/><path class="cls-5" d="M29.47,17.91h13.4v0A12.45,12.45,0,0,1,39.33,27,13.1,13.1,0,0,1,30,30.87a12.34,12.34,0,0,1-9.07-3.76A12.83,12.83,0,0,1,20.92,9a12.86,12.86,0,0,1,14.9-2.37,12.23,12.23,0,0,1,4.59,3.93l-3.59,2.59a8.57,8.57,0,0,0-3-2.55,8.16,8.16,0,0,0-3.85-1,8.24,8.24,0,0,0-5.92,2.51A8.41,8.41,0,0,0,30,26.47a8.77,8.77,0,0,0,6.18-2.55,9.38,9.38,0,0,0,1.21-1.52l-7.91-.08Zm0,0v0Z"/><path class="cls-6" d="M7,68.6H6.94l-.07-.07-.12-.08-.19-.07a1,1,0,0,0-.26,0,.86.86,0,0,0-.36.07,1,1,0,0,0-.31.21,1.13,1.13,0,0,0-.21.31.9.9,0,0,0,0,.74,1,1,0,0,0,.21.31.81.81,0,0,0,.3.21.86.86,0,0,0,.36.08h.17l.15,0,.14-.06.12-.08,0,0,0,0,0,0H7l0,0,0,.07a0,0,0,0,1,0,0v0a.55.55,0,0,1-.11.1,1.3,1.3,0,0,1-.31.16,1.06,1.06,0,0,1-.37.06,1,1,0,0,1-.3,0,1.39,1.39,0,0,1-.28-.12,1.06,1.06,0,0,1-.42-.42,1.18,1.18,0,0,1-.12-.28,1,1,0,0,1,0-.3,1.06,1.06,0,0,1,0-.31,1.18,1.18,0,0,1,.12-.28,1.06,1.06,0,0,1,.42-.42A1.39,1.39,0,0,1,6,68.19a1,1,0,0,1,.3,0l.21,0a.66.66,0,0,1,.2.06l.18.08.15.11H7l0,0s0,0,0,0,0,0,0,0Z"/><path class="cls-6" d="M10.33,68.56h-.05s0,0,0,0l-.09,0-.11,0-.11,0-.12,0a.7.7,0,0,0-.25,0,.6.6,0,0,0-.21.14.66.66,0,0,0-.15.21.87.87,0,0,0,0,.28v1.33a.05.05,0,0,1-.06.06H9a.05.05,0,0,1-.06-.06V68.25a0,0,0,0,1,.05,0h.1l0,0s0,0,0,0v.29a.71.71,0,0,1,.1-.14.53.53,0,0,1,.14-.12l.18-.09a.78.78,0,0,1,.22,0H10l.15,0a.42.42,0,0,1,.14.06l.13.09,0,0s0,0,0,0l0,0Z"/><path class="cls-6" d="M12.33,69.39v.08s0,.07,0,.1a1.08,1.08,0,0,0,.13.29,1,1,0,0,0,.2.22,1.17,1.17,0,0,0,.27.15,1.06,1.06,0,0,0,.31,0h.18l.15,0,.13-.06.12-.08,0,0,0,0,0,0h0l0,0,.05.07a0,0,0,0,1,0,0v0l0,0-.07.05a1.3,1.3,0,0,1-.31.16,1.1,1.1,0,0,1-.37.06,1.13,1.13,0,0,1-.45-.09,1.17,1.17,0,0,1-.62-.62,1.13,1.13,0,0,1-.09-.45,1.06,1.06,0,0,1,0-.31.86.86,0,0,1,.11-.28,1.06,1.06,0,0,1,.42-.42,1.39,1.39,0,0,1,.28-.12,1.06,1.06,0,0,1,.31,0,1,1,0,0,1,.3,0,1.33,1.33,0,0,1,.28.1,1.3,1.3,0,0,1,.23.18,1,1,0,0,1,.18.23,1.26,1.26,0,0,1,.12.29,1.14,1.14,0,0,1,0,.33h0s0,.06,0,.06Zm.69-1a.8.8,0,0,0-.25.11.91.91,0,0,0-.21.18,1.14,1.14,0,0,0-.15.23.92.92,0,0,0-.08.27h1.89a.75.75,0,0,0-.1-.33,1.09,1.09,0,0,0-.21-.26,1.41,1.41,0,0,0-.29-.18,1,1,0,0,0-.34-.06h-.12Z"/><path class="cls-6" d="M18.37,70.08V70a1.18,1.18,0,0,1-.17.22,1.12,1.12,0,0,1-.22.16.85.85,0,0,1-.26.11.92.92,0,0,1-.29,0,1.55,1.55,0,0,1-.31,0,1.2,1.2,0,0,1-.51-.31,1.3,1.3,0,0,1-.18-.23.77.77,0,0,1-.12-.28,1.06,1.06,0,0,1-.05-.31A1.12,1.12,0,0,1,16.3,69a.72.72,0,0,1,.12-.27,1.06,1.06,0,0,1,.42-.42,1.11,1.11,0,0,1,.27-.12,1.06,1.06,0,0,1,.31,0,1.43,1.43,0,0,1,.29,0,1.19,1.19,0,0,1,.26.11,1.18,1.18,0,0,1,.22.17,1.24,1.24,0,0,1,.18.22v-.43s0-.06.05-.06h.09a.05.05,0,0,1,.06.06v2.13s0,0,0,0l0,0h-.07a.06.06,0,0,1-.07-.07Zm0-.77A.86.86,0,0,0,18.3,69a1,1,0,0,0-.52-.52.86.86,0,0,0-.36-.08h0a.78.78,0,0,0-.36.08,1,1,0,0,0-.3.21,1,1,0,0,0-.2.3,1,1,0,0,0-.08.37.93.93,0,0,0,.28.68.86.86,0,0,0,.29.21,1,1,0,0,0,.37.08.77.77,0,0,0,.37-.08,1,1,0,0,0,.31-.21.9.9,0,0,0,.21-.3A1,1,0,0,0,18.38,69.31Z"/><path class="cls-6" d="M21.23,70.35v.05h0a0,0,0,0,1,0,0h-.1l-.18,0a.44.44,0,0,1-.15-.08.36.36,0,0,1-.1-.14.4.4,0,0,1,0-.2V68.38h-.31l0,0s0,0,0,0v-.08s0,0,0,0h.35v-.56s0,0,0,0h.14s0,0,0,0a.07.07,0,0,1,0,.05v.57h.4s.06,0,.06,0v.07s0,.07-.06.07h-.4v1.5c0,.05,0,.1,0,.14a.28.28,0,0,0,0,.13.22.22,0,0,0,.05.08.17.17,0,0,0,.1,0h.17s0,0,0,0v0Z"/><path class="cls-6" d="M23,67.54s0,0,0-.06a.05.05,0,0,1,0,0h.13s0,0,0,0a.13.13,0,0,1,0,.06v.07s0,0,0,.06H23a.05.05,0,0,1,0,0Zm0,.71a.05.05,0,0,1,.06-.06h.09a.05.05,0,0,1,.06.06v2.13s0,.06-.05.06h-.1a.05.05,0,0,1-.06-.06Z"/><path class="cls-6" d="M25.31,68.26a.07.07,0,0,1,0-.05l.05,0h.07a.06.06,0,0,1,0,0,.08.08,0,0,1,0,.05v.26a.79.79,0,0,1,.17-.19,1.06,1.06,0,0,1,.2-.12l.2,0,.18,0a.87.87,0,0,1,.37.08.84.84,0,0,1,.29.2.92.92,0,0,1,.18.3.94.94,0,0,1,.07.37v1.27a.14.14,0,0,1,0,.06l0,0H27l-.05,0s0,0,0-.06V69.08a1.31,1.31,0,0,0-.06-.27.79.79,0,0,0-.14-.23.62.62,0,0,0-.22-.17.73.73,0,0,0-.3-.06.86.86,0,0,0-.27.05.68.68,0,0,0-.23.14.72.72,0,0,0-.17.22.68.68,0,0,0-.07.28v1.34s0,.06-.05.06h-.1s-.05,0-.05-.06V68.26Z"/><path class="cls-6" d="M31.16,68.68v-.05a.13.13,0,0,1,0-.06v-.32s0,0,0,0l0,0h.08l.05,0s0,0,0,0V70.1h0a1.38,1.38,0,0,1-.05.37,1.1,1.1,0,0,1-.12.29.82.82,0,0,1-.41.36,1.06,1.06,0,0,1-.25.09,1.27,1.27,0,0,1-.28,0,1.29,1.29,0,0,1-.35,0,1.18,1.18,0,0,1-.28-.12l0,0a0,0,0,0,1,0,0v0a0,0,0,0,1,0,0l0,0,.05-.06s0,0,0,0h0s0,0,.07.05l.13,0,.16,0,.18,0a1,1,0,0,0,.36-.06.79.79,0,0,0,.29-.18.82.82,0,0,0,.19-.28.94.94,0,0,0,.07-.39v-.19a1.28,1.28,0,0,1-.17.22.91.91,0,0,1-.23.17.85.85,0,0,1-.26.11,1,1,0,0,1-.29,0,1.65,1.65,0,0,1-.31,0,1.31,1.31,0,0,1-.27-.12,1.08,1.08,0,0,1-.24-.18,1.37,1.37,0,0,1-.18-.24,1.39,1.39,0,0,1-.12-.28,1.06,1.06,0,0,1,0-.31,1.1,1.1,0,0,1,0-.31,1.39,1.39,0,0,1,.12-.28,1.3,1.3,0,0,1,.18-.23,1.08,1.08,0,0,1,.24-.18,1.12,1.12,0,0,1,.58-.16,1.43,1.43,0,0,1,.29,0l.26.11a1.84,1.84,0,0,1,.22.17A1.18,1.18,0,0,1,31.16,68.68Zm-1.89.63a1,1,0,0,0,0,.25.94.94,0,0,0,.1.23,1.43,1.43,0,0,0,.14.2.9.9,0,0,0,.19.15.67.67,0,0,0,.23.1.69.69,0,0,0,.25,0,1,1,0,0,0,.35-.06,1.12,1.12,0,0,0,.29-.19,1.09,1.09,0,0,0,.21-.26,1,1,0,0,0,.11-.34V69.2a.92.92,0,0,0-.11-.33.79.79,0,0,0-.21-.27,1.07,1.07,0,0,0-.28-.19,1,1,0,0,0-.35-.06,1,1,0,0,0-.25,0l-.23.1a.9.9,0,0,0-.19.15,1.08,1.08,0,0,0-.25.43A1.07,1.07,0,0,0,29.27,69.31Z"/><path class="cls-6" d="M38.11,70.38a.05.05,0,0,1-.06.06H38a.05.05,0,0,1-.06-.06V70l-.08.12a.43.43,0,0,1-.09.1,1,1,0,0,1-.35.23,1.16,1.16,0,0,1-.42.08,1.06,1.06,0,0,1-.31,0,1.39,1.39,0,0,1-.28-.12,1.3,1.3,0,0,1-.23-.18A1.55,1.55,0,0,1,36,69.9a.86.86,0,0,1-.11-.28,1,1,0,0,1-.05-.3,1.06,1.06,0,0,1,.05-.31.86.86,0,0,1,.11-.28,1.55,1.55,0,0,1,.19-.24,1.3,1.3,0,0,1,.23-.18,1.39,1.39,0,0,1,.28-.12,1.06,1.06,0,0,1,.31,0l.22,0,.2.07.19.1a1.09,1.09,0,0,1,.17.13.39.39,0,0,1,.08.1,1,1,0,0,1,.08.11V67.54s0,0,0,0h.15a0,0,0,0,1,0,0ZM36,69.32a1,1,0,0,0,.08.37,1,1,0,0,0,.2.3.81.81,0,0,0,.3.21.86.86,0,0,0,.36.08,1,1,0,0,0,.38-.07.9.9,0,0,0,.3-.21,1,1,0,0,0,.21-.31.91.91,0,0,0,.08-.37,1,1,0,0,0-.08-.37.92.92,0,0,0-.2-.31,1,1,0,0,0-.3-.21.8.8,0,0,0-.37-.08.87.87,0,0,0-.37.07,1.41,1.41,0,0,0-.31.21,1.27,1.27,0,0,0-.2.31A1,1,0,0,0,36,69.32Z"/><path class="cls-6" d="M40.17,69.39v.08s0,.07,0,.1a1.08,1.08,0,0,0,.13.29,1,1,0,0,0,.2.22,1.17,1.17,0,0,0,.27.15,1.06,1.06,0,0,0,.31,0h.17l.16,0,.13-.06.12-.08,0,0,0,0,0,0h0l0,0,0,.07a0,0,0,0,1,0,0v0l0,0s0,0-.06.05a1.3,1.3,0,0,1-.31.16,1.1,1.1,0,0,1-.37.06,1.13,1.13,0,0,1-.45-.09,1.34,1.34,0,0,1-.37-.25,1.15,1.15,0,0,1-.25-.37,1.13,1.13,0,0,1-.09-.45A1.06,1.06,0,0,1,40,69a.86.86,0,0,1,.11-.28,1.06,1.06,0,0,1,.42-.42,1.18,1.18,0,0,1,.28-.12,1.06,1.06,0,0,1,.31,0,1,1,0,0,1,.3,0,1,1,0,0,1,.51.28,1,1,0,0,1,.18.23,1.26,1.26,0,0,1,.12.29,1.14,1.14,0,0,1,.05.33h0a.05.05,0,0,1-.06.06Zm.69-1a.8.8,0,0,0-.25.11.91.91,0,0,0-.21.18,1.14,1.14,0,0,0-.15.23.92.92,0,0,0-.08.27h1.89a.91.91,0,0,0-.1-.33,1.09,1.09,0,0,0-.21-.26,1.75,1.75,0,0,0-.29-.18,1,1,0,0,0-.34-.06H41Z"/><path class="cls-6" d="M44,70v0h0s0,0,0,0l0,0,.07,0h0s0,0,0,0a.08.08,0,0,1,0,0l0,0a.05.05,0,0,0,0,0,.3.3,0,0,0,.09.13.55.55,0,0,0,.14.09l.15.05.15,0,.18,0,.18-.08a.4.4,0,0,0,.15-.14.32.32,0,0,0,.06-.2.41.41,0,0,0-.05-.19.58.58,0,0,0-.14-.13.56.56,0,0,0-.19-.09l-.2-.06a1.14,1.14,0,0,1-.26-.09.72.72,0,0,1-.21-.12.43.43,0,0,1-.15-.18.4.4,0,0,1-.06-.22.66.66,0,0,1,0-.25.56.56,0,0,1,.14-.2.78.78,0,0,1,.22-.12.92.92,0,0,1,.29,0,.88.88,0,0,1,.24,0,.72.72,0,0,1,.2.09,1.06,1.06,0,0,1,.15.15,1.14,1.14,0,0,1,.1.19h0v0s0,0,0,0,0,0,0,0a.05.05,0,0,1,0,0h0s0,0,0,0a0,0,0,0,1,0,0l0,0,0,0a.52.52,0,0,0-.2-.19.48.48,0,0,0-.3-.08l-.18,0a.48.48,0,0,0-.16.08.35.35,0,0,0-.11.13.48.48,0,0,0,0,.18.2.2,0,0,0,.06.15.37.37,0,0,0,.13.12.56.56,0,0,0,.17.09l.16,0h0l.29.1a1.28,1.28,0,0,1,.23.14.62.62,0,0,1,.14.19.47.47,0,0,1,.05.24.6.6,0,0,1-.06.27.55.55,0,0,1-.17.2.79.79,0,0,1-.26.13.92.92,0,0,1-.29,0,1.09,1.09,0,0,1-.26,0,.88.88,0,0,1-.22-.1.81.81,0,0,1-.16-.16A.65.65,0,0,1,44,70Z"/><path class="cls-6" d="M48.15,70.35v.05h0a0,0,0,0,1,0,0h-.09l-.19,0a.55.55,0,0,1-.15-.08.5.5,0,0,1-.1-.14.4.4,0,0,1,0-.2V68.38h-.3l-.05,0s0,0,0,0v-.08s0,0,0,0h.35v-.56l0,0h.13l.05,0a.43.43,0,0,1,0,.05v.57h.39s.06,0,.06,0v.07s0,.07-.06.07h-.39V70l0,.13a.22.22,0,0,0,0,.08.17.17,0,0,0,.1,0h.17s0,0,0,0v0Z"/><path class="cls-6" d="M49.93,67.54s0,0,0-.06a.05.05,0,0,1,0,0h.13a.06.06,0,0,1,0,0s0,0,0,.06v.07a.08.08,0,0,1,0,.06H50a.05.05,0,0,1,0,0Zm0,.71s0-.06,0-.06h.1s0,0,0,.06v2.13s0,.06,0,.06H50a.05.05,0,0,1-.06-.06Z"/><path class="cls-6" d="M52.23,68.26s0,0,0-.05l0,0h.08a.05.05,0,0,1,0,0s0,0,0,.05v.26a.79.79,0,0,1,.17-.19,1.06,1.06,0,0,1,.2-.12l.2,0,.18,0a.87.87,0,0,1,.37.08.75.75,0,0,1,.29.2,1.17,1.17,0,0,1,.19.3,1.15,1.15,0,0,1,.06.37v1.27a.07.07,0,0,1,0,.06l0,0H54l-.06,0s0,0,0-.06V69.08a.88.88,0,0,0-.06-.27.79.79,0,0,0-.14-.23.62.62,0,0,0-.22-.17.73.73,0,0,0-.3-.06.86.86,0,0,0-.27.05.79.79,0,0,0-.23.14.72.72,0,0,0-.17.22.68.68,0,0,0-.07.28v1.34s0,.06,0,.06h-.09a.05.05,0,0,1-.06-.06V68.26Z"/><path class="cls-6" d="M56.62,71.07a.07.07,0,0,1,0,0h-.15a0,0,0,0,1,0,0h0v0l.27-.68-.86-2.07v0s0,0,0,0H56a.1.1,0,0,1,0,0l0,.1.11.27.12.3c0,.11.08.21.13.32l.12.31a2.34,2.34,0,0,1,.12.3c0,.09.08.17.11.25l.11-.27L57,69.5c0-.11.08-.22.13-.33s.09-.22.13-.33.09-.22.13-.32.08-.2.12-.28,0,0,.07,0h.09s.07,0,.07,0v0Z"/><path class="cls-7" d="M7,60H8.21v.84H7v1H8.63v.84H6.14V58.05H8.63v.83H7Zm0-1.07v0Z"/><path class="cls-7" d="M13.51,58.06v4.57l-.72-.76L11.07,60.1v2.52h-.83V58.06l.72.76,1.72,1.77V58.06Zm-.83,0h0Z"/><path class="cls-7" d="M15.12,58.06h2.59v.83h-.9v3.75H16V58.89h-.86Zm0,0v0Z"/><path class="cls-7" d="M22.12,62.64h-1l-.93-1.55H20.1v1.55h-.83V58.06h1.22a1.49,1.49,0,0,1,1.07.44A1.6,1.6,0,0,1,22,59.57a1.48,1.48,0,0,1-.45,1.07,1.45,1.45,0,0,1-.45.31Zm-2-2.39h.39a.68.68,0,0,0,.68-.68.69.69,0,0,0-.2-.48.65.65,0,0,0-.48-.19H20.1Z"/><path class="cls-7" d="M24.43,60h1.24v.84H24.43v1h1.66v.84H23.6V58.05h2.49v.83H24.43Zm0-1.07v0Z"/><path class="cls-7" d="M28.53,58.06h.39A1.5,1.5,0,0,1,30,58.5a1.59,1.59,0,0,1,.44,1.07A1.5,1.5,0,0,1,30,60.64a1.53,1.53,0,0,1-1.07.45h-.39v1.55H27.7V58.06Zm-.83,0h0Zm.83.84v1.35h.39a.66.66,0,0,0,.48-.2.65.65,0,0,0,.19-.48.68.68,0,0,0-.19-.48.65.65,0,0,0-.48-.19Z"/><path class="cls-7" d="M34.76,62.64h-1l-.93-1.55h-.12v1.55h-.83V58.06h1.22a1.49,1.49,0,0,1,1.07.44,1.55,1.55,0,0,1,.45,1.07,1.48,1.48,0,0,1-.45,1.07,1.45,1.45,0,0,1-.45.31Zm-2-2.39h.39a.68.68,0,0,0,.68-.68.69.69,0,0,0-.2-.48.65.65,0,0,0-.48-.19h-.39Z"/><path class="cls-7" d="M37.07,60h1.24v.84H37.07v1h1.66v.84H36.24V58.05h2.49v.83H37.07Zm0-1.07v0Z"/><path class="cls-7" d="M43.61,58.06v4.57l-.72-.76L41.17,60.1v2.52h-.83V58.06l.72.76,1.72,1.77V58.06Zm-.83,0h0Z"/><path class="cls-7" d="M46.05,60h1.24v.84H46.05v1h1.66v.84H45.22V58.05h2.49v.83H46.05Zm0-1.07v0Z"/><path class="cls-7" d="M50.2,58.06v2.66a1.76,1.76,0,0,0,.08.71.8.8,0,0,0,.3.33.66.66,0,0,0,.4.13.82.82,0,0,0,.39-.11.74.74,0,0,0,.29-.29,1.41,1.41,0,0,0,.11-.73v-2.7h.83v2.7a2.21,2.21,0,0,1-.22,1.16,1.59,1.59,0,0,1-.6.58,1.52,1.52,0,0,1-.8.22,1.48,1.48,0,0,1-.86-.26,1.62,1.62,0,0,1-.6-.67,2.43,2.43,0,0,1-.16-1.08,1.15,1.15,0,0,0,0-.18V58.06Zm0,0h0Z"/><path class="cls-7" d="M57,62.64H56l-.93-1.55H55v1.55h-.83V58.06h1.22a1.5,1.5,0,0,1,1.07.44,1.59,1.59,0,0,1,.44,1.07,1.47,1.47,0,0,1-.44,1.07A1.45,1.45,0,0,1,56,61Zm-2-2.39h.39a.68.68,0,0,0,.68-.68.69.69,0,0,0-.2-.48.65.65,0,0,0-.48-.19H55Z"/><path class="cls-4" d="M13.16,48.22h8.38v0a7.77,7.77,0,0,1-2.22,5.68,8.2,8.2,0,0,1-5.84,2.4A7.73,7.73,0,0,1,7.81,54a8,8,0,0,1,0-11.35,7.81,7.81,0,0,1,5.67-2.35,7.89,7.89,0,0,1,3.65.86A7.78,7.78,0,0,1,20,43.6l-2.25,1.62a5.42,5.42,0,0,0-1.86-1.59A5.11,5.11,0,0,0,13.48,43a5.18,5.18,0,0,0-3.7,1.56,5.26,5.26,0,0,0,3.7,9A5.5,5.5,0,0,0,17.35,52,6,6,0,0,0,18.1,51L13.16,51Zm0,0v0Z"/><path class="cls-4" d="M28.32,40.77V56H25.56V40.77Zm-2.76,0h0Z"/><path class="cls-4" d="M44.12,56H40.91l-3.08-5.16h-.41V56H34.67V40.77h2.75v0h1.3a4.88,4.88,0,0,1,3.54,1.46,5.08,5.08,0,0,1,1.48,3.54,5.05,5.05,0,0,1-3,4.57ZM37.42,48h1.3A2.2,2.2,0,0,0,41,45.79a2.24,2.24,0,0,0-.65-1.59,2.18,2.18,0,0,0-1.59-.65h-1.3Z"/><path class="cls-4" d="M51.77,40.77v12.4h5.08V56H51.77v0H49V40.77Zm0,0h0Z"/><rect class="cls-8" y="64.61" width="62" height="0.45"/><rect class="cls-7" x="50.23" y="15.77" width="2.53" height="9.49" rx="0.71" transform="translate(-3.34 12.42) rotate(-13.32)"/><rect class="cls-7" x="50.23" y="15.77" width="2.53" height="9.49" rx="0.71" transform="translate(43.41 75.35) rotate(-103.32)"/><circle class="cls-4" cx="26.89" cy="37.27" r="2.53"/></g></g></svg>