<svg xmlns="http://www.w3.org/2000/svg" xmlns:xlink="http://www.w3.org/1999/xlink" viewBox="0 0 70.63 72.02"><defs><style>.cls-1{fill:url(#linear-gradient);}.cls-2{fill:url(#linear-gradient-2);}.cls-3{fill:url(#linear-gradient-3);}.cls-4{fill:#ed2249;}.cls-5{fill:#fff;}.cls-6{fill:#636060;}.cls-7{fill:#009ce0;}.cls-8{fill:#444;}</style><linearGradient id="linear-gradient" x1="44.12" y1="3.47" x2="22.71" y2="33.01" gradientUnits="userSpaceOnUse"><stop offset="0" stop-color="#4fc9ff"/><stop offset="0.64" stop-color="#1eadec"/><stop offset="1" stop-color="#009ce0"/></linearGradient><linearGradient id="linear-gradient-2" x1="44.88" y1="6.78" x2="21.95" y2="29.71" gradientUnits="userSpaceOnUse"><stop offset="0" stop-color="#ed516f"/><stop offset="1" stop-color="#ed2249"/></linearGradient><linearGradient id="linear-gradient-3" x1="54.88" y1="7.27" x2="45.24" y2="20.58" xlink:href="#linear-gradient"/></defs><title>kidse</title><g id="Capa_2" data-name="Capa 2"><g id="LOGOS_CURVA" data-name="LOGOS CURVA"><circle class="cls-1" cx="33.42" cy="18.24" r="18.24"/><circle class="cls-2" cx="33.42" cy="18.24" r="16.21"/><circle class="cls-3" cx="50.06" cy="13.92" r="8.22"/><path class="cls-4" d="M54.19,19.37a6.4,6.4,0,0,1-2.92,1.2,7.81,7.81,0,0,1-3.1-.36A6.28,6.28,0,0,1,45.81,19a5.84,5.84,0,0,1-2.06-4.25,7.36,7.36,0,0,1,.32-2.56A7.17,7.17,0,0,1,45.3,9.76a6.09,6.09,0,0,1,1.87-1.58,5.74,5.74,0,0,1,2.32-.69,6.58,6.58,0,0,1,2.57.29,6.27,6.27,0,0,1,2.15,1.11,5.24,5.24,0,0,1,1.42,1.76A5.94,5.94,0,0,1,56.18,13a8.34,8.34,0,0,1-.4,2.74l-.19.64L46,13.4A4.36,4.36,0,0,0,45.94,15a4.27,4.27,0,0,0,.45,1.47,3.87,3.87,0,0,0,2.34,1.95A5,5,0,0,0,51,18.6a5.17,5.17,0,0,0,2-.85ZM54,14a3.53,3.53,0,0,0-.24-2.73,3.69,3.69,0,0,0-2.31-1.7,3.8,3.8,0,0,0-4.89,2.15Z"/><path class="cls-5" d="M26.3,8.16l3.15,9L32.62,5.94l5.09-1.79-4,14.33,12.6,8.21L41,28.54,32.42,23,32,24.38l2.29,6.53-4.15,1.46-8-22.75ZM22.14,9.62,26.3,8.16Z"/><path class="cls-4" d="M52.33,37.46l-5.54-3.34a.52.52,0,0,0-.51,0,.51.51,0,0,0-.26.44v6.69a.5.5,0,0,0,.51.5.48.48,0,0,0,.26-.07l5.54-3.34a.5.5,0,0,0,0-.87Z"/><path class="cls-6" d="M6.14,71.12v.07s0,0,0,0l0,0H6a.55.55,0,0,1-.18,0,.36.36,0,0,1-.15-.08A.24.24,0,0,1,5.6,71a.4.4,0,0,1,0-.2V69.15H5.21a.08.08,0,0,1,0,0V69a.05.05,0,0,1,0,0h.35V68.4a0,0,0,0,1,0,0h0l0,0H5.7a.06.06,0,0,1,0,0,.07.07,0,0,1,0,0V69h.4a.05.05,0,0,1,.06.06v.07a.05.05,0,0,1-.06.06h-.4v1.5a.76.76,0,0,0,0,.15.5.5,0,0,0,0,.12.24.24,0,0,0,.06.08A.15.15,0,0,0,6,71h.12l0,0s0,0,0,0,0,0,0,0Z"/><path class="cls-6" d="M9.21,69.86a.82.82,0,0,0-.18-.5.6.6,0,0,0-.5-.23.65.65,0,0,0-.27.05.72.72,0,0,0-.24.14.58.58,0,0,0-.17.21.55.55,0,0,0-.07.28v1.35s0,0-.06,0H7.63s-.06,0-.06,0V68.31s0,0,.06,0h.09s.06,0,.06,0v1h0a1.15,1.15,0,0,1,.14-.17A.71.71,0,0,1,8.1,69,.76.76,0,0,1,8.31,69a.85.85,0,0,1,.23,0A1,1,0,0,1,8.9,69a.83.83,0,0,1,.28.21,1.26,1.26,0,0,1,.18.3,1.1,1.1,0,0,1,.06.37v1.26a.08.08,0,0,1,0,.06s0,0-.05,0H9.23a.14.14,0,0,1,0-.06Z"/><path class="cls-6" d="M10.9,68.31a.13.13,0,0,1,0-.06.05.05,0,0,1,0,0h.13s0,0,0,0a.07.07,0,0,1,0,0v.07s0,.05,0,.06a.08.08,0,0,1-.06,0h-.13a.08.08,0,0,1,0,0Zm0,.71A.05.05,0,0,1,11,69h.09a.05.05,0,0,1,.06.06v2.13a.05.05,0,0,1-.06.06H11a.05.05,0,0,1-.06-.06Z"/><path class="cls-6" d="M12.77,69s0,0,0,0a.05.05,0,0,1,0,0h.08L13,69a.09.09,0,0,1,0,0v.26a.79.79,0,0,1,.17-.19.66.66,0,0,1,.2-.11.76.76,0,0,1,.2-.06l.18,0a.94.94,0,0,1,.66.28,1.17,1.17,0,0,1,.19.3,1.15,1.15,0,0,1,.06.37v1.27s0,.05,0,.06l0,0H14.5l-.06,0s0,0,0-.06V69.86a.82.82,0,0,0-.06-.27.72.72,0,0,0-.14-.24.6.6,0,0,0-.22-.16.6.6,0,0,0-.3-.07.86.86,0,0,0-.27,0,.83.83,0,0,0-.23.15.87.87,0,0,0-.17.21.88.88,0,0,0-.07.29v1.33s0,.06-.05.06h-.09a.05.05,0,0,1-.06-.06V69Z"/><path class="cls-6" d="M16.62,69.82l.29-.29.29-.28.26-.27h.24s0,0,0,0a.08.08,0,0,1,0,0c-.13.14-.27.27-.41.4s-.27.27-.41.41L18,71.13a.08.08,0,0,1,0,0,0,0,0,0,1,0,0h-.2a0,0,0,0,1,0,0l-.09-.1L16.73,70l-.38.36v.8s0,.06-.05.06h-.1s-.05,0-.05-.06V68.34s0-.06.05-.06h.1l0,0s0,0,0,0v1.74Z"/><path class="cls-6" d="M19.35,68.31a.13.13,0,0,1,0-.06.05.05,0,0,1,0,0h.13s0,0,0,0a.07.07,0,0,1,0,0v.07s0,.05,0,.06l-.07,0h-.13a.08.08,0,0,1,0,0Zm0,.71a.05.05,0,0,1,.06-.06h.09a.05.05,0,0,1,.06.06v2.13a.05.05,0,0,1-.06.06h-.09a.05.05,0,0,1-.06-.06Z"/><path class="cls-6" d="M21.22,69s0,0,0,0a.05.05,0,0,1,0,0h.08l.05,0a.09.09,0,0,1,0,0v.26a.79.79,0,0,1,.17-.19.66.66,0,0,1,.2-.11.76.76,0,0,1,.2-.06l.18,0a.89.89,0,0,1,.66.28,1.17,1.17,0,0,1,.19.3,1.15,1.15,0,0,1,.06.37v1.27s0,.05,0,.06l0,0H23l-.06,0s0,0,0-.06V69.86a.63.63,0,0,0-.06-.27.72.72,0,0,0-.14-.24.6.6,0,0,0-.22-.16.6.6,0,0,0-.3-.07.86.86,0,0,0-.27,0,.83.83,0,0,0-.23.15.87.87,0,0,0-.17.21.88.88,0,0,0-.07.29v1.33s0,.06-.05.06h-.09a.05.05,0,0,1-.06-.06V69Z"/><path class="cls-6" d="M26.65,69.45V69a.08.08,0,0,1,0,0l0,0h.07a.06.06,0,0,1,.05,0,.06.06,0,0,1,0,0v1.85h0a1.38,1.38,0,0,1-.05.37,1.1,1.1,0,0,1-.12.29,1.42,1.42,0,0,1-.18.22,1.14,1.14,0,0,1-.23.15A1.12,1.12,0,0,1,26,72a1.24,1.24,0,0,1-.27,0,1.29,1.29,0,0,1-.35,0,1,1,0,0,1-.29-.12,0,0,0,0,1,0,0,0,0,0,0,1,0,0v0s0,0,0,0,0,0,0,0l0-.06h.06l.07,0,.13,0,.16,0a.52.52,0,0,0,.17,0,1.15,1.15,0,0,0,.37-.06.88.88,0,0,0,.28-.17.84.84,0,0,0,.2-.29,1.13,1.13,0,0,0,.07-.39v-.19a1.3,1.3,0,0,1-.18.23,1.84,1.84,0,0,1-.22.17,1.25,1.25,0,0,1-.27.1.86.86,0,0,1-.28,0,1.06,1.06,0,0,1-.31,0,1.39,1.39,0,0,1-.28-.12,1.3,1.3,0,0,1-.23-.18,1.12,1.12,0,0,1-.19-.24.86.86,0,0,1-.11-.28,1.06,1.06,0,0,1-.05-.31,1,1,0,0,1,.05-.3.86.86,0,0,1,.11-.28,1.55,1.55,0,0,1,.19-.24,1.08,1.08,0,0,1,.24-.18A1.11,1.11,0,0,1,25.4,69a1.06,1.06,0,0,1,.31,0A.86.86,0,0,1,26,69a.9.9,0,0,1,.27.11,1.12,1.12,0,0,1,.22.16A1.18,1.18,0,0,1,26.65,69.45Zm-1.9.64a1.17,1.17,0,0,0,.13.48.9.9,0,0,0,.15.19l.19.16.23.1a1,1,0,0,0,.25,0A1,1,0,0,0,26,71a1.49,1.49,0,0,0,.3-.18,1.39,1.39,0,0,0,.21-.27,1,1,0,0,0,.1-.33V70a1,1,0,0,0-.1-.33,1.39,1.39,0,0,0-.21-.27.79.79,0,0,0-.29-.18.77.77,0,0,0-.34-.07,1,1,0,0,0-.25,0l-.23.1a1.49,1.49,0,0,0-.2.15l-.15.2a.92.92,0,0,0-.09.23A1.09,1.09,0,0,0,24.75,70.09Z"/><path class="cls-6" d="M30.39,70.09a1.55,1.55,0,0,1,0-.31,1.39,1.39,0,0,1,.12-.28,1.06,1.06,0,0,1,.19-.24,1,1,0,0,1,.23-.18,1.39,1.39,0,0,1,.28-.12,1.55,1.55,0,0,1,.31,0,1.45,1.45,0,0,1,.3,0,1.18,1.18,0,0,1,.28.12,1.08,1.08,0,0,1,.24.18,1.37,1.37,0,0,1,.18.24,1.39,1.39,0,0,1,.12.28,1.06,1.06,0,0,1,0,.31,1.1,1.1,0,0,1,0,.31,1.39,1.39,0,0,1-.12.28,1.3,1.3,0,0,1-.18.23,1.08,1.08,0,0,1-.24.18.88.88,0,0,1-.28.12,1,1,0,0,1-.3,0,1.06,1.06,0,0,1-.31,0,1,1,0,0,1-.28-.12,1.37,1.37,0,0,1-.42-.41,1.39,1.39,0,0,1-.12-.28A1.65,1.65,0,0,1,30.39,70.09Zm.22,0a1.07,1.07,0,0,0,0,.25,1.09,1.09,0,0,0,.09.23,1.39,1.39,0,0,0,.15.19l.19.16.23.1a1,1,0,0,0,.25,0,.93.93,0,0,0,.68-.28,1.25,1.25,0,0,0,.21-.3,1,1,0,0,0,.07-.38.93.93,0,0,0-.28-.68.81.81,0,0,0-.3-.21.91.91,0,0,0-.37-.08,1,1,0,0,0-.37.08.81.81,0,0,0-.3.21.9.9,0,0,0-.21.3A1,1,0,0,0,30.61,70.09Z"/><path class="cls-6" d="M34.19,69s0,0,0,0l0,0h.07l.05,0a.09.09,0,0,1,0,0v.26a.79.79,0,0,1,.17-.19.66.66,0,0,1,.2-.11l.2-.06.18,0a.89.89,0,0,1,.66.28,1.17,1.17,0,0,1,.19.3,1.15,1.15,0,0,1,.06.37v1.27s0,.05,0,.06l-.05,0h-.06a.08.08,0,0,1-.06,0s0,0,0-.06V69.86a.63.63,0,0,0-.06-.27.72.72,0,0,0-.14-.24.6.6,0,0,0-.22-.16.6.6,0,0,0-.3-.07.86.86,0,0,0-.27,0,.83.83,0,0,0-.23.15.87.87,0,0,0-.17.21.88.88,0,0,0-.07.29v1.33s0,.06,0,.06h-.09a.05.05,0,0,1-.06-.06V69Z"/><path class="cls-6" d="M40.37,71.12v.07a0,0,0,0,1,0,0l0,0h-.07a.55.55,0,0,1-.18,0,.36.36,0,0,1-.15-.08.31.31,0,0,1-.11-.14.56.56,0,0,1,0-.2V69.15h-.31s0,0,0,0a.08.08,0,0,1,0,0V69a.05.05,0,0,1,0,0s0,0,0,0h.31V68.4a0,0,0,0,1,0,0h0l0,0h.07a.06.06,0,0,1,0,0,.07.07,0,0,1,0,0V69h.4a.05.05,0,0,1,.06.06v.07a.05.05,0,0,1-.06.06H40v1.5a.76.76,0,0,0,0,.15.5.5,0,0,0,0,.12.24.24,0,0,0,.06.08.15.15,0,0,0,.1,0h.12s0,0,0,0,0,0,0,0,0,0,0,0Z"/><path class="cls-6" d="M43.44,69.86a.82.82,0,0,0-.18-.5.62.62,0,0,0-.22-.17.61.61,0,0,0-.28-.06.65.65,0,0,0-.27.05.72.72,0,0,0-.24.14.58.58,0,0,0-.17.21.55.55,0,0,0-.07.28v1.35s0,0-.06,0h-.09s-.06,0-.06,0V68.31s0,0,.06,0H42s.06,0,.06,0v1h0a1.15,1.15,0,0,1,.14-.17.57.57,0,0,1,.18-.12.66.66,0,0,1,.21-.08.85.85,0,0,1,.23,0,1,1,0,0,1,.36.07.83.83,0,0,1,.28.21,1.26,1.26,0,0,1,.18.3,1.1,1.1,0,0,1,.06.37v1.26a.08.08,0,0,1,0,.06s0,0-.05,0h-.12a.14.14,0,0,1,0-.06Z"/><path class="cls-6" d="M45.27,70.16a.19.19,0,0,1,0,.08.3.3,0,0,0,0,.1,1,1,0,0,0,.33.51.89.89,0,0,0,.27.15.78.78,0,0,0,.31,0h.17l.15,0,.14-.06.12-.08,0,0,0,0,0,0h0s0,0,0,0a.15.15,0,0,1,0,.06s0,0,0,0h0s0,0,0,0,0,0,0,0a.18.18,0,0,1-.07,0,1.14,1.14,0,0,1-.31.16,1,1,0,0,1-.36.06,1.13,1.13,0,0,1-.45-.09,1.05,1.05,0,0,1-.37-.25,1.15,1.15,0,0,1-.25-.37,1,1,0,0,1-.1-.45,1.55,1.55,0,0,1,0-.31,1.39,1.39,0,0,1,.12-.28,1.37,1.37,0,0,1,.18-.24,1.3,1.3,0,0,1,.23-.18A1.39,1.39,0,0,1,45.9,69a1.65,1.65,0,0,1,.32,0,1,1,0,0,1,.3,0,.9.9,0,0,1,.27.11.76.76,0,0,1,.23.17,1.37,1.37,0,0,1,.19.23,1.48,1.48,0,0,1,.12.29,1.75,1.75,0,0,1,.05.33h0a.05.05,0,0,1-.06.06Zm.7-1a.71.71,0,0,0-.25.11.91.91,0,0,0-.21.18,1,1,0,0,0-.15.24,1.14,1.14,0,0,0-.09.26h1.9a1,1,0,0,0-.1-.33,1.09,1.09,0,0,0-.22-.26.92.92,0,0,0-.29-.17,1,1,0,0,0-.34-.07h-.11Z"/><path class="cls-6" d="M51.72,69.15h.05a.07.07,0,0,1,0,0v.06a.07.07,0,0,1,0,0l-.05,0h-.38v1.8a.08.08,0,0,1,0,0l0,0h-.08s-.06,0-.06-.07v-1.8h-.27l0,0a.08.08,0,0,1,0,0v-.06a.08.08,0,0,1,0,0h.32v-.36a.71.71,0,0,1,0-.26.57.57,0,0,1,.13-.21.56.56,0,0,1,.2-.12.47.47,0,0,1,.24,0,.06.06,0,0,1,0,0s0,0,0,0v.07s0,0,0,0h0a.47.47,0,0,0-.17,0,.41.41,0,0,0-.13.1.35.35,0,0,0-.09.16.73.73,0,0,0,0,.22v.29Z"/><path class="cls-6" d="M54.84,71v-.11a1,1,0,0,1-.13.16.61.61,0,0,1-.16.12.84.84,0,0,1-.2.08.85.85,0,0,1-.23,0,.92.92,0,0,1-.38-.08.75.75,0,0,1-.3-.2,1,1,0,0,1-.26-.67V69a.08.08,0,0,1,0-.06s0,0,.05,0h.12a.14.14,0,0,1,0,.06V70.3a.76.76,0,0,0,0,.27,1,1,0,0,0,.15.24.73.73,0,0,0,.23.16.78.78,0,0,0,.31.06.65.65,0,0,0,.27,0,.54.54,0,0,0,.22-.15.6.6,0,0,0,.16-.22.57.57,0,0,0,.07-.29V69s0,0,.06,0H55s.06,0,.06,0v2.13a.07.07,0,0,1-.07.08h-.07s-.07,0-.07-.07Z"/><path class="cls-6" d="M57.28,71.12v.07a0,0,0,0,1,0,0s0,0,0,0h-.06a.5.5,0,0,1-.18,0,.48.48,0,0,1-.16-.08.39.39,0,0,1-.1-.14.54.54,0,0,1,0-.2V69.15h-.35a.07.07,0,0,1,0,0V69s0,0,0,0h.35V68.4s0,0,0,0h0l0,0h.07l0,0a.43.43,0,0,1,0,0V69h.4s0,0,0,.06v.07s0,.06,0,.06h-.4V70.8l0,.12A.16.16,0,0,0,57,71a.12.12,0,0,0,.09,0h.13a.05.05,0,0,1,0,0s0,0,0,0v0Z"/><path class="cls-6" d="M60.34,71v-.11a1,1,0,0,1-.13.16.66.66,0,0,1-.17.12.64.64,0,0,1-.19.08.91.91,0,0,1-.23,0,.92.92,0,0,1-.38-.08.69.69,0,0,1-.3-.2.77.77,0,0,1-.19-.3.9.9,0,0,1-.07-.37V69s0,0,0-.06,0,0,.05,0h.12a.13.13,0,0,1,0,.06V70.3a1.07,1.07,0,0,0,.06.27,1,1,0,0,0,.15.24.63.63,0,0,0,.23.16.75.75,0,0,0,.31.06.65.65,0,0,0,.27,0,.54.54,0,0,0,.22-.15.6.6,0,0,0,.16-.22.88.88,0,0,0,.07-.29V69a0,0,0,0,1,0,0h.1a0,0,0,0,1,0,0v2.13c0,.05,0,.08-.06.08h-.07s-.07,0-.07-.07Z"/><path class="cls-6" d="M63.47,69.33h0l0,0-.09-.06-.11,0-.11,0H63a.71.71,0,0,0-.26,0,.77.77,0,0,0-.21.14.8.8,0,0,0-.15.21.88.88,0,0,0-.05.29v1.32s0,.06,0,.06h-.1a.05.05,0,0,1-.06-.06V69a0,0,0,0,1,.05,0h.1l.05,0a.07.07,0,0,1,0,.05v.29l.1-.14.14-.12a.76.76,0,0,1,.18-.09.78.78,0,0,1,.22,0h.17l.15,0,.14.06.13.09,0,0s0,0,0,0a.09.09,0,0,1,0,0Z"/><path class="cls-6" d="M65,70.16s0,0,0,.08,0,.07,0,.1a1.51,1.51,0,0,0,.13.29,1.1,1.1,0,0,0,.21.22,1,1,0,0,0,.26.15.81.81,0,0,0,.31,0h.18l.15,0,.13-.06a.62.62,0,0,0,.12-.08l0,0,0,0,0,0h0s0,0,0,0l0,.06s0,0,0,0h0s0,0,0,0l0,0a.18.18,0,0,1-.07,0,1.14,1.14,0,0,1-.31.16,1,1,0,0,1-.36.06,1.13,1.13,0,0,1-.45-.09,1.05,1.05,0,0,1-.37-.25,1.37,1.37,0,0,1-.26-.37,1.13,1.13,0,0,1-.09-.45,1.06,1.06,0,0,1,0-.31A1.39,1.39,0,0,1,65,69.5a1.37,1.37,0,0,1,.18-.24,1.3,1.3,0,0,1,.23-.18,1.39,1.39,0,0,1,.28-.12,1.65,1.65,0,0,1,.32,0,1.17,1.17,0,0,1,.57.15.91.91,0,0,1,.23.17,1.3,1.3,0,0,1,.18.23,1.08,1.08,0,0,1,.13.29,1.75,1.75,0,0,1,.05.33h0a.05.05,0,0,1-.06.06Zm.7-1a.85.85,0,0,0-.26.11,1.12,1.12,0,0,0-.2.18,1.43,1.43,0,0,0-.16.24A1.12,1.12,0,0,0,65,70h1.9a1,1,0,0,0-.11-.33.86.86,0,0,0-.21-.26.92.92,0,0,0-.29-.17,1,1,0,0,0-.34-.07h-.12Z"/><path class="cls-7" d="M10.37,60.73h1.24v.83H10.37v1H12v.84H9.54v-4.6H12v.83H10.37Zm0-1.08v0Z"/><path class="cls-7" d="M16.92,58.84V63.4l-.73-.76-1.72-1.77v2.52h-.83V58.84l.73.75,1.72,1.77V58.84Zm-.83,0h0Z"/><path class="cls-7" d="M18.53,58.83h2.59v.83h-.9v3.76h-.83V59.66h-.86Zm0,0v0Z"/><path class="cls-7" d="M25.53,63.42h-1l-.93-1.56h-.12v1.56h-.84V58.83H23.9a1.43,1.43,0,0,1,1.06.44,1.51,1.51,0,0,1,.45,1.06A1.44,1.44,0,0,1,25,61.41a1.31,1.31,0,0,1-.44.31Zm-2-2.4h.39a.67.67,0,0,0,.48-.2.65.65,0,0,0,.19-.48.68.68,0,0,0-.19-.48.66.66,0,0,0-.48-.19h-.39Z"/><path class="cls-7" d="M27.83,60.73h1.24v.83H27.83v1H29.5v.84H27v-4.6h2.5v.83H27.83Zm0-1.08v0Z"/><path class="cls-7" d="M31.93,58.83h.39a1.45,1.45,0,0,1,1.07.44,1.51,1.51,0,0,1,.45,1.06,1.54,1.54,0,0,1-1.52,1.52h-.39v1.56H31.1V58.83Zm-.83,0h0Zm.83.84V61h.39a.7.7,0,0,0,.49-.2.65.65,0,0,0,.19-.48.65.65,0,0,0-.68-.67Z"/><path class="cls-7" d="M38.17,63.42h-1l-.93-1.56h-.12v1.56h-.83V58.83h1.22a1.46,1.46,0,0,1,1.07.44,1.54,1.54,0,0,1,.44,1.06,1.47,1.47,0,0,1-.44,1.07,1.45,1.45,0,0,1-.45.31Zm-2-2.4h.39a.68.68,0,0,0,.68-.68.69.69,0,0,0-.2-.48.65.65,0,0,0-.48-.19h-.39Z"/><path class="cls-7" d="M40.48,60.73h1.23v.83H40.48v1h1.66v.84h-2.5v-4.6h2.5v.83H40.48Zm0-1.08v0Z"/><path class="cls-7" d="M47,58.84V63.4l-.72-.76-1.72-1.77v2.52h-.84V58.84l.73.75,1.72,1.77V58.84Zm-.83,0h0Z"/><path class="cls-7" d="M49.46,60.73H50.7v.83H49.46v1h1.66v.84H48.63v-4.6h2.49v.83H49.46Zm0-1.08v0Z"/><path class="cls-7" d="M53.61,58.83v2.66a1.76,1.76,0,0,0,.08.71.79.79,0,0,0,.29.34.73.73,0,0,0,.41.12.67.67,0,0,0,.38-.11.73.73,0,0,0,.3-.28,1.47,1.47,0,0,0,.1-.74v-2.7H56v2.7a2.11,2.11,0,0,1-.23,1.16,1.67,1.67,0,0,1-.59.59,1.57,1.57,0,0,1-.8.21,1.52,1.52,0,0,1-.86-.25,1.58,1.58,0,0,1-.6-.68,2.26,2.26,0,0,1-.16-1.07,1.34,1.34,0,0,0,0-.19V58.83Zm0,0h0Z"/><path class="cls-7" d="M60.41,63.42h-1l-.93-1.56h-.13v1.56h-.83V58.83h1.23a1.43,1.43,0,0,1,1.06.44,1.51,1.51,0,0,1,.45,1.06,1.44,1.44,0,0,1-.45,1.07,1.35,1.35,0,0,1-.45.31Zm-2-2.4h.4a.67.67,0,0,0,.48-.2.65.65,0,0,0,.19-.48.68.68,0,0,0-.19-.48.66.66,0,0,0-.48-.19h-.4Z"/><path class="cls-4" d="M13.66,40.55v5.94l4.19-5.94h3.38l-5.35,7.62,5.72,7.46H18.12L14.2,50.55l-.54.75v4.33H10.9V40.55Zm-2.76,0h0Z"/><path class="cls-4" d="M28.85,40.41V55.63H26.09V40.41Zm-2.76,0h0Z"/><path class="cls-4" d="M36.87,40.41v0h1.76A7.57,7.57,0,0,1,44,42.66,7.48,7.48,0,0,1,46.22,48a7.58,7.58,0,0,1-7.59,7.6H34.11V40.41Zm-2.76,0h0Zm2.76,2.79v9.67h1.76A4.82,4.82,0,0,0,42,44.63a4.73,4.73,0,0,0-3.4-1.43Z"/><path class="cls-4" d="M56.41,44.11a2,2,0,0,0-.79-.72,2.33,2.33,0,0,0-1.24-.22,1.57,1.57,0,0,0-.89.46,1.35,1.35,0,0,0-.41.89,1.11,1.11,0,0,0,.11.68,1.81,1.81,0,0,0,.49.62,3.42,3.42,0,0,0,.59.32c.3.11.54.19.84.27a9.21,9.21,0,0,1,1.13.35,4.2,4.2,0,0,1,1.27.76,4.41,4.41,0,0,1,1.38,1.73,4.24,4.24,0,0,1,.38,2.13A4.61,4.61,0,0,1,58,54.14a4.33,4.33,0,0,1-2.71,1.35,5.16,5.16,0,0,1-3-.46,4.62,4.62,0,0,1-2.16-2,6.19,6.19,0,0,1-.35-.81,5.62,5.62,0,0,1-.19-.9l2.73-.37a2.1,2.1,0,0,0,.11.4,1.18,1.18,0,0,0,.13.35,2.07,2.07,0,0,0,.92.87,2.48,2.48,0,0,0,1.43.21A1.87,1.87,0,0,0,56,52.22a1.71,1.71,0,0,0,.48-1,1.85,1.85,0,0,0-.13-.79,1.45,1.45,0,0,0-.6-.7,1.35,1.35,0,0,0-.56-.35c-.3-.11-.54-.19-.84-.27a7.6,7.6,0,0,1-1.14-.35A4.65,4.65,0,0,1,52,48a4.33,4.33,0,0,1-1.27-1.62,4.06,4.06,0,0,1-.38-2,4.4,4.4,0,0,1,1.19-2.59A4.26,4.26,0,0,1,54,40.44a5,5,0,0,1,2.78.43,4.68,4.68,0,0,1,2,1.92Zm0,0,2.43-1.32Z"/><rect class="cls-8" y="65.38" width="70.63" height="0.45"/></g></g></svg>