<svg xmlns="http://www.w3.org/2000/svg" xmlns:xlink="http://www.w3.org/1999/xlink" viewBox="0 0 69 77.05"><defs><style>.cls-1{fill:#636060;}.cls-2{fill:#fbcc0a;}.cls-3{fill:#231f20;}.cls-4{fill:#444;}.cls-5{fill:url(#linear-gradient);}.cls-6{fill:url(#linear-gradient-2);}.cls-7{fill:#fcd204;}.cls-8{fill:url(#linear-gradient-3);}.cls-9{fill:url(#linear-gradient-4);}</style><linearGradient id="linear-gradient" x1="41.87" y1="14.21" x2="35.18" y2="24.26" gradientUnits="userSpaceOnUse"><stop offset="0" stop-color="#fddc63"/><stop offset="0.54" stop-color="#fcd732"/><stop offset="1" stop-color="#fcd204"/></linearGradient><linearGradient id="linear-gradient-2" x1="40" y1="14.42" x2="32.21" y2="30.01" gradientUnits="userSpaceOnUse"><stop offset="0" stop-color="#333131"/><stop offset="1" stop-color="#030303"/></linearGradient><linearGradient id="linear-gradient-3" x1="56.22" y1="12.24" x2="53.28" y2="18.13" xlink:href="#linear-gradient"/><linearGradient id="linear-gradient-4" x1="37.86" y1="9.76" x2="46.33" y2="3.46" gradientUnits="userSpaceOnUse"><stop offset="0" stop-color="#373635"/><stop offset="0.21" stop-color="#2f2d2d"/><stop offset="0.56" stop-color="#43403f"/><stop offset="1" stop-color="#030303"/></linearGradient></defs><title>yes camp</title><g id="Capa_2" data-name="Capa 2"><g id="LOGOS_CURVA" data-name="LOGOS CURVA"><path class="cls-1" d="M.3,75.2a.19.19,0,0,1,0,.08.36.36,0,0,0,0,.1,1.08,1.08,0,0,0,.13.29.83.83,0,0,0,.2.22A1.17,1.17,0,0,0,.93,76a1,1,0,0,0,.31,0h.17l.15,0L1.7,76l.12-.08,0,0,0,0,0,0H2l0,0,0,.07v0s0,0,0,0L2,76l-.07,0a1,1,0,0,1-.31.16,1,1,0,0,1-.36.06A1.13,1.13,0,0,1,.8,76.2,1.21,1.21,0,0,1,.43,76a1.15,1.15,0,0,1-.25-.37,1,1,0,0,1-.1-.45,1.55,1.55,0,0,1,0-.31,1.18,1.18,0,0,1,.12-.28,1.06,1.06,0,0,1,.42-.42A1.18,1.18,0,0,1,.94,74a1.06,1.06,0,0,1,.31,0,1,1,0,0,1,.3,0,1.08,1.08,0,0,1,.27.1,1.37,1.37,0,0,1,.24.18,1.3,1.3,0,0,1,.18.23,1.26,1.26,0,0,1,.12.29,1.63,1.63,0,0,1,.05.33h0a.05.05,0,0,1-.06.06Zm.7-1a.71.71,0,0,0-.25.11.91.91,0,0,0-.21.18,1.14,1.14,0,0,0-.15.23A1.43,1.43,0,0,0,.3,75H2.2a.91.91,0,0,0-.1-.33.92.92,0,0,0-.22-.26,1.19,1.19,0,0,0-.29-.18.93.93,0,0,0-.34-.06H1.14Z"/><path class="cls-1" d="M5.17,74.18a.67.67,0,0,0-.24,0,.82.82,0,0,0-.2.12.45.45,0,0,0-.14.19.61.61,0,0,0-.07.24v.9h0v.5a.05.05,0,0,1-.06.06H4.37a.05.05,0,0,1-.06-.06V74.06a.08.08,0,0,1,0,0h.13a.05.05,0,0,1,0,0,0,0,0,0,1,0,0v.27l.13-.15.15-.11A.58.58,0,0,1,5,74l.2,0a.85.85,0,0,1,.46.12.91.91,0,0,1,.29.35.57.57,0,0,1,.13-.21.55.55,0,0,1,.17-.14A1,1,0,0,1,6.44,74a1,1,0,0,1,.24,0A.81.81,0,0,1,7,74a.79.79,0,0,1,.25.15.81.81,0,0,1,.17.24.7.7,0,0,1,.09.29.49.49,0,0,1,0,.12s0,.08,0,.13v1.21a.14.14,0,0,1,0,.06l-.06,0H7.38a.08.08,0,0,1-.06,0,.35.35,0,0,1,0-.06V74.84a.7.7,0,0,0,0-.25.72.72,0,0,0-.12-.21,1,1,0,0,0-.2-.15.6.6,0,0,0-.27-.06.85.85,0,0,0-.23,0,1.18,1.18,0,0,0-.19.11.79.79,0,0,0-.14.17.68.68,0,0,0-.07.2A2.11,2.11,0,0,0,6,75v1.22a.14.14,0,0,1,0,.06l0,0H5.88s0,0,0,0a.08.08,0,0,1,0-.06V74.83s0-.07,0-.11a.65.65,0,0,0-.07-.21.55.55,0,0,0-.13-.17.76.76,0,0,0-.19-.12A.64.64,0,0,0,5.17,74.18Z"/><path class="cls-1" d="M9.46,74.06s0,0,0,0h.1s.06,0,.06,0v.43l.08-.12a.39.39,0,0,1,.08-.1,1.13,1.13,0,0,1,.78-.31,1.65,1.65,0,0,1,.31,0,1.31,1.31,0,0,1,.27.12,1.08,1.08,0,0,1,.24.18,1.37,1.37,0,0,1,.18.24,1.39,1.39,0,0,1,.12.28,1.06,1.06,0,0,1,0,.31,1,1,0,0,1,0,.3,1.18,1.18,0,0,1-.12.28,1.06,1.06,0,0,1-.42.42,1.31,1.31,0,0,1-.27.12,1.1,1.1,0,0,1-.31,0l-.22,0-.21-.07a.64.64,0,0,1-.18-.1A1.09,1.09,0,0,1,9.83,76a.39.39,0,0,1-.08-.1l-.09-.11v1.16s0,0,0,0H9.5s0,0,0-.05Zm2.09,1.07a.9.9,0,0,0-.07-.37,1.1,1.1,0,0,0-.2-.31,1,1,0,0,0-.3-.21.91.91,0,0,0-.37-.08,1,1,0,0,0-.37.08.92.92,0,0,0-.31.2,1.13,1.13,0,0,0-.21.31,1,1,0,0,0,0,.74.85.85,0,0,0,.21.31,1,1,0,0,0,.3.22.94.94,0,0,0,.37.07A.9.9,0,0,0,11,76a.81.81,0,0,0,.3-.21.93.93,0,0,0,.28-.68Z"/><path class="cls-1" d="M13.54,75.13a1.06,1.06,0,0,1,.05-.31.86.86,0,0,1,.11-.28,1.55,1.55,0,0,1,.19-.24,1.3,1.3,0,0,1,.23-.18A1.39,1.39,0,0,1,14.4,74,1.22,1.22,0,0,1,15,74a1.11,1.11,0,0,1,.27.12,1.06,1.06,0,0,1,.42.42.7.7,0,0,1,.12.28,1.06,1.06,0,0,1,0,.31,1,1,0,0,1,0,.3.7.7,0,0,1-.12.28,1.06,1.06,0,0,1-.42.42,1.11,1.11,0,0,1-.27.12,1.22,1.22,0,0,1-.62,0,1.39,1.39,0,0,1-.28-.12,1.3,1.3,0,0,1-.23-.18,1.55,1.55,0,0,1-.19-.24.86.86,0,0,1-.11-.28A1,1,0,0,1,13.54,75.13Zm.22,0a1.15,1.15,0,0,0,0,.26.88.88,0,0,0,.1.22,1,1,0,0,0,.14.2.75.75,0,0,0,.2.15.62.62,0,0,0,.22.1.69.69,0,0,0,.25,0,.91.91,0,0,0,.37-.08,1.1,1.1,0,0,0,.31-.2,1,1,0,0,0,.21-.31,1,1,0,0,0,0-.74,1.1,1.1,0,0,0-.2-.31,1,1,0,0,0-.31-.21.75.75,0,0,0-.37-.08.94.94,0,0,0-.37.07,1.34,1.34,0,0,0-.3.21.93.93,0,0,0-.28.68Z"/><path class="cls-1" d="M19.08,74.2c0-.06.05-.12.07-.17s0,0,0,0h.14s0,0,0,0v0h0l-.11.26c0,.09-.08.18-.11.27s.17.43.27.65.18.44.26.66c0-.08.07-.17.11-.27l.13-.32L20,75a3.45,3.45,0,0,1,.14-.34l.13-.33.11-.28,0,0h.18a.06.06,0,0,1,0,0v0h0l-.88,2.13s0,0,0,0h-.1l0,0s0,0,0,0c-.09-.22-.18-.44-.28-.66L19,74.88l-.12.3c0,.1-.09.21-.13.31l-.13.31c0,.11-.09.21-.13.31l0,.1s0,0-.07,0h-.06l0,0s0,0,0,0l-.88-2.12v0s0,0,0,0h.14s0,0,0,0,.08.18.12.29.08.21.13.32.09.23.14.34a3.45,3.45,0,0,0,.14.34c0,.11.09.22.13.31s.07.2.11.28c.07-.19.16-.41.27-.67s.22-.55.36-.89h0S19.05,74.25,19.08,74.2Z"/><path class="cls-1" d="M22.4,75.2a.19.19,0,0,1,0,.08s0,.07,0,.1a1.11,1.11,0,0,0,.14.29.83.83,0,0,0,.2.22A1.17,1.17,0,0,0,23,76a1,1,0,0,0,.3,0h.18l.15,0L23.8,76l.12-.08,0,0,0,0,0,0h0l0,0s0,0,0,.07l0,0s0,0,0,0,0,0,0,0l-.05,0-.07,0a1.14,1.14,0,0,1-.31.16,1,1,0,0,1-.36.06,1.13,1.13,0,0,1-.45-.09,1.21,1.21,0,0,1-.37-.25,1.37,1.37,0,0,1-.26-.37,1.13,1.13,0,0,1-.09-.45,1.55,1.55,0,0,1,0-.31,1.18,1.18,0,0,1,.12-.28,1.08,1.08,0,0,1,.18-.24,1.3,1.3,0,0,1,.23-.18A1.39,1.39,0,0,1,23,74a1.12,1.12,0,0,1,.32,0,1,1,0,0,1,.3,0,1.25,1.25,0,0,1,.27.1,1,1,0,0,1,.23.18,1.37,1.37,0,0,1,.19.23,1.26,1.26,0,0,1,.12.29,1.63,1.63,0,0,1,.05.33h0a.05.05,0,0,1-.06.06Zm.7-1a.71.71,0,0,0-.25.11.91.91,0,0,0-.21.18,1.14,1.14,0,0,0-.15.23,1.43,1.43,0,0,0-.09.27h1.9A1,1,0,0,0,24,74.4a1.19,1.19,0,0,0-.29-.18,1,1,0,0,0-.34-.06h-.11Z"/><path class="cls-1" d="M27.79,74.37h-.05l0,0-.09,0-.1-.05-.12,0-.11,0a.75.75,0,0,0-.26,0,.64.64,0,0,0-.35.35.66.66,0,0,0-.05.28v1.33a.05.05,0,0,1-.06.06h-.09a.05.05,0,0,1-.06-.06V74.06s0,0,.05,0h.09l.05,0a.08.08,0,0,1,0,0v.29a.42.42,0,0,1,.09-.14.44.44,0,0,1,.15-.12A.51.51,0,0,1,27,74a.71.71,0,0,1,.21,0h.17l.15,0a.35.35,0,0,1,.14.06.38.38,0,0,1,.13.09s0,0,0,0a.05.05,0,0,1,0,0l0,0A.23.23,0,0,1,27.79,74.37Z"/><path class="cls-1" d="M29.71,73.35a.13.13,0,0,1,0-.06s0,0,0,0h.13a.05.05,0,0,1,0,0,.13.13,0,0,1,0,.06v.07a.08.08,0,0,1,0,.06h-.19s0,0,0,0Zm0,.71s0-.06.05-.06h.1a.05.05,0,0,1,.06.06v2.13a.05.05,0,0,1-.06.06h-.09a.05.05,0,0,1-.06-.06Z"/><path class="cls-1" d="M32,74.07a.08.08,0,0,1,0,0l0,0h.07l0,0a.07.07,0,0,1,0,0v.26a.82.82,0,0,1,.18-.19,1,1,0,0,1,.19-.12l.2,0L33,74a.91.91,0,0,1,.37.08.84.84,0,0,1,.29.2,1.14,1.14,0,0,1,.18.3,1.16,1.16,0,0,1,.07.37v1.27a.14.14,0,0,1,0,.06l-.06,0h-.06a.06.06,0,0,1,0,0,.08.08,0,0,1,0-.06V74.89a.86.86,0,0,0,0-.27,1.09,1.09,0,0,0-.14-.23.66.66,0,0,0-.23-.17.67.67,0,0,0-.3-.06.75.75,0,0,0-.26,0,.72.72,0,0,0-.24.14.92.92,0,0,0-.17.22.89.89,0,0,0-.07.28v1.34s0,.06-.05.06h-.09a.05.05,0,0,1-.06-.06V74.07Z"/><path class="cls-1" d="M37.86,74.49v-.43a.08.08,0,0,1,0,0l0,0H38l0,0s0,0,0,0v1.85h0a1.38,1.38,0,0,1,0,.37,1.1,1.1,0,0,1-.12.29,1,1,0,0,1-.19.22.74.74,0,0,1-.22.14,1.14,1.14,0,0,1-.26.09,1.23,1.23,0,0,1-.27,0,1.25,1.25,0,0,1-.35,0,1.48,1.48,0,0,1-.29-.12l0,0s0,0,0,0a0,0,0,0,1,0,0v0s0,0,0,0a.61.61,0,0,1,0-.06s0,0,0,0h0l.08,0,.13.05.16,0,.17,0a1,1,0,0,0,.36-.06.79.79,0,0,0,.29-.18.84.84,0,0,0,.2-.28,1.13,1.13,0,0,0,.07-.39v-.19a1,1,0,0,1-.18.22.76.76,0,0,1-.23.17.85.85,0,0,1-.26.11.9.9,0,0,1-.28,0,1.55,1.55,0,0,1-.31,0,1.39,1.39,0,0,1-.28-.12A1.3,1.3,0,0,1,36.1,76a1.06,1.06,0,0,1-.19-.24,1.39,1.39,0,0,1-.12-.28,1.55,1.55,0,0,1,0-.31,1.65,1.65,0,0,1,0-.31,1.39,1.39,0,0,1,.12-.28,1.37,1.37,0,0,1,.19-.23,1.3,1.3,0,0,1,.23-.18,1,1,0,0,1,.28-.12,1.06,1.06,0,0,1,.31,0,1.33,1.33,0,0,1,.28,0,1.56,1.56,0,0,1,.26.11,1.37,1.37,0,0,1,.23.17A1.84,1.84,0,0,1,37.86,74.49Zm-1.9.63a.69.69,0,0,0,0,.25.92.92,0,0,0,.09.23,1,1,0,0,0,.15.2.9.9,0,0,0,.19.15.6.6,0,0,0,.23.1.69.69,0,0,0,.25,0,.86.86,0,0,0,.63-.25.92.92,0,0,0,.22-.26,1,1,0,0,0,.1-.34V75a.91.91,0,0,0-.1-.33,1.15,1.15,0,0,0-.21-.27.86.86,0,0,0-.63-.25,1.15,1.15,0,0,0-.26,0l-.22.1a1,1,0,0,0-.2.15l-.15.2a.92.92,0,0,0-.09.23A.73.73,0,0,0,36,75.12Z"/><path class="cls-1" d="M42.57,73.37s0-.05,0-.05h.15v1.16l.09-.11a.39.39,0,0,1,.08-.1,1.09,1.09,0,0,1,.17-.13l.19-.1.2-.07.22,0A1.06,1.06,0,0,1,44,74a1.39,1.39,0,0,1,.28.12,1.3,1.3,0,0,1,.23.18,1.08,1.08,0,0,1,.18.24.88.88,0,0,1,.12.28,1.06,1.06,0,0,1,0,.31,1,1,0,0,1,0,.3.88.88,0,0,1-.12.28,1.08,1.08,0,0,1-.18.24,1.3,1.3,0,0,1-.23.18,1.39,1.39,0,0,1-.28.12,1.06,1.06,0,0,1-.31,0,1.13,1.13,0,0,1-.78-.31.39.39,0,0,1-.08-.1.83.83,0,0,1-.08-.12v.43s0,.06-.05.06h-.09a.05.05,0,0,1-.06-.06Zm2.1,1.76a1,1,0,0,0-.08-.38,1.27,1.27,0,0,0-.2-.31,1.41,1.41,0,0,0-.31-.21.9.9,0,0,0-.37-.07.8.8,0,0,0-.37.08,1,1,0,0,0-.3.21.93.93,0,0,0-.28.68.91.91,0,0,0,.08.37,1.1,1.1,0,0,0,.2.31,1.06,1.06,0,0,0,.31.21,1,1,0,0,0,.38.07.86.86,0,0,0,.36-.08.81.81,0,0,0,.3-.21,1,1,0,0,0,.2-.3A1,1,0,0,0,44.67,75.13Z"/><path class="cls-1" d="M48.43,76v-.11a1.09,1.09,0,0,1-.13.17,1,1,0,0,1-.17.12.6.6,0,0,1-.2.08.8.8,0,0,1-.23,0,.91.91,0,0,1-.37-.08A.79.79,0,0,1,47,76a1,1,0,0,1-.2-.3,1.16,1.16,0,0,1-.07-.37V74.06a.14.14,0,0,1,0-.06.11.11,0,0,1,.06,0h.07L47,74s0,0,0,.06v1.28a.66.66,0,0,0,.06.27.61.61,0,0,0,.15.24.79.79,0,0,0,.23.16A.77.77,0,0,0,48,76a.61.61,0,0,0,.23-.15.6.6,0,0,0,.16-.22.68.68,0,0,0,.06-.29V74a.05.05,0,0,1,.06-.06h.09a.05.05,0,0,1,.06.06v2.13s0,.08-.06.08H48.5a.07.07,0,0,1-.07-.07Z"/><path class="cls-1" d="M50.47,75.78v0h0a.05.05,0,0,1,0,0l0,0,.07,0h.05s0,0,0,0,0,0,0,.05l0,0a.45.45,0,0,0,.1.13.42.42,0,0,0,.14.09l.15,0,.14,0,.18,0,.19-.08a.4.4,0,0,0,.15-.14.32.32,0,0,0,.06-.2.41.41,0,0,0,0-.19.86.86,0,0,0-.14-.13.66.66,0,0,0-.19-.09l-.21-.06a1.25,1.25,0,0,1-.25-.09.94.94,0,0,1-.22-.12.65.65,0,0,1-.15-.18.4.4,0,0,1,0-.22.51.51,0,0,1,0-.25.56.56,0,0,1,.14-.2.66.66,0,0,1,.22-.12.88.88,0,0,1,.29,0,1,1,0,0,1,.24,0,.66.66,0,0,1,.19.09.54.54,0,0,1,.15.15,1.18,1.18,0,0,1,.11.19h0a0,0,0,0,0,0,0s0,0,0,0l0,0,0,0h-.06l0,0s0,0,0,0a.05.05,0,0,1,0,0,.61.61,0,0,0-.2-.19.52.52,0,0,0-.3-.08l-.19,0a.36.36,0,0,0-.15.08.28.28,0,0,0-.11.13.34.34,0,0,0,0,.18.25.25,0,0,0,0,.15.49.49,0,0,0,.13.12.7.7,0,0,0,.17.09l.17,0h0l.3.1a1.18,1.18,0,0,1,.22.14.66.66,0,0,1,.15.19.6.6,0,0,1,0,.24.6.6,0,0,1-.06.27.58.58,0,0,1-.18.2.66.66,0,0,1-.25.13,1,1,0,0,1-.3,0,1,1,0,0,1-.25,0,.88.88,0,0,1-.22-.1,1.29,1.29,0,0,1-.17-.16A.62.62,0,0,1,50.47,75.78Z"/><path class="cls-1" d="M53.85,73.35v-.06a.06.06,0,0,1,0,0H54a.06.06,0,0,1,0,0s0,0,0,.06v.07a.08.08,0,0,1,0,.06h-.2s0,0,0,0Zm0,.71s0-.06,0-.06H54s.05,0,.05.06v2.13s0,.06-.05.06h-.09a.05.05,0,0,1-.06-.06Z"/><path class="cls-1" d="M56.14,74.07s0,0,0,0l.05,0h.07l0,0a.07.07,0,0,1,0,0v.26a.79.79,0,0,1,.17-.19,1.06,1.06,0,0,1,.2-.12l.2,0,.18,0a1,1,0,0,1,.38.08.8.8,0,0,1,.28.2,1.17,1.17,0,0,1,.19.3,1.15,1.15,0,0,1,.06.37v1.27a.07.07,0,0,1,0,.06l0,0h-.06l-.06,0s0,0,0-.06V74.89a.66.66,0,0,0-.06-.27.79.79,0,0,0-.14-.23.62.62,0,0,0-.22-.17.73.73,0,0,0-.3-.06.86.86,0,0,0-.27,0,.79.79,0,0,0-.23.14.92.92,0,0,0-.17.22.89.89,0,0,0-.07.28v1.34s0,.06-.05.06H56.2a.05.05,0,0,1-.06-.06V74.07Z"/><path class="cls-1" d="M60,75.2v.08a.36.36,0,0,0,0,.1,1.08,1.08,0,0,0,.13.29,1,1,0,0,0,.2.22,1.17,1.17,0,0,0,.27.15,1.06,1.06,0,0,0,.31,0h.17l.16,0,.13-.06.12-.08,0,0,0,0,0,0h0l0,0,0,.07a0,0,0,0,1,0,0v0s0,0,0,0l-.05,0s0,0-.06,0a1.3,1.3,0,0,1-.31.16,1.1,1.1,0,0,1-.37.06,1.13,1.13,0,0,1-.45-.09,1.34,1.34,0,0,1-.37-.25,1.15,1.15,0,0,1-.25-.37,1.14,1.14,0,0,1-.1-.45,1.06,1.06,0,0,1,0-.31.86.86,0,0,1,.11-.28,1.06,1.06,0,0,1,.42-.42,1.18,1.18,0,0,1,.28-.12A1.06,1.06,0,0,1,61,74a1,1,0,0,1,.3,0,1,1,0,0,1,.51.28,1.3,1.3,0,0,1,.18.23,1.26,1.26,0,0,1,.12.29,1.14,1.14,0,0,1,0,.33h0a.05.05,0,0,1-.06.06Zm.69-1a.8.8,0,0,0-.25.11.91.91,0,0,0-.21.18,1.14,1.14,0,0,0-.15.23A.92.92,0,0,0,60,75h1.89a.91.91,0,0,0-.1-.33,1.09,1.09,0,0,0-.21-.26,1.75,1.75,0,0,0-.29-.18,1,1,0,0,0-.34-.06h-.12Z"/><path class="cls-1" d="M63.9,75.78v0h0s0,0,0,0l0,0,.07,0h0l0,0,0,.05a.05.05,0,0,0,0,0,.3.3,0,0,0,.09.13.55.55,0,0,0,.14.09l.15,0,.15,0,.18,0L65,76a.4.4,0,0,0,.15-.14.32.32,0,0,0,.06-.2.41.41,0,0,0,0-.19.58.58,0,0,0-.14-.13.56.56,0,0,0-.19-.09l-.2-.06a1.14,1.14,0,0,1-.26-.09.72.72,0,0,1-.21-.12.43.43,0,0,1-.15-.18.4.4,0,0,1-.06-.22.66.66,0,0,1,.05-.25.56.56,0,0,1,.14-.2.78.78,0,0,1,.22-.12.92.92,0,0,1,.29,0,.88.88,0,0,1,.24,0,.56.56,0,0,1,.19.09.75.75,0,0,1,.16.15,1.14,1.14,0,0,1,.1.19h0v0s0,0,0,0,0,0,0,0a.05.05,0,0,1,0,0h0s0,0,0,0a0,0,0,0,1,0,0l0,0s0,0,0,0a.52.52,0,0,0-.2-.19.48.48,0,0,0-.3-.08l-.18,0a.48.48,0,0,0-.16.08.35.35,0,0,0-.11.13.48.48,0,0,0,0,.18.2.2,0,0,0,.06.15.3.3,0,0,0,.13.12.56.56,0,0,0,.17.09l.16,0h0l.3.1a1.28,1.28,0,0,1,.23.14.62.62,0,0,1,.14.19.47.47,0,0,1,.05.24.6.6,0,0,1-.06.27.55.55,0,0,1-.17.2.79.79,0,0,1-.26.13.92.92,0,0,1-.29,0,1.09,1.09,0,0,1-.26,0,.88.88,0,0,1-.22-.1A1.29,1.29,0,0,1,64,76,.88.88,0,0,1,63.9,75.78Z"/><path class="cls-1" d="M67.19,75.78v0h0s0,0,0,0l0,0,.07,0h0s0,0,0,0l0,0s0,0,0,.05,0,0,0,0a.26.26,0,0,0,.1.13.42.42,0,0,0,.14.09l.15,0,.14,0,.18,0L68.3,76a.47.47,0,0,0,.14-.14.37.37,0,0,0,0-.39.44.44,0,0,0-.14-.13.51.51,0,0,0-.18-.09l-.21-.06a1.06,1.06,0,0,1-.25-.09.65.65,0,0,1-.37-.3.4.4,0,0,1-.06-.22.66.66,0,0,1,.05-.25.59.59,0,0,1,.15-.2.66.66,0,0,1,.22-.12.82.82,0,0,1,.28,0,.88.88,0,0,1,.24,0,.72.72,0,0,1,.2.09.54.54,0,0,1,.15.15.69.69,0,0,1,.1.19h0v0s0,0,0,0,0,0,0,0l0,0h0s0,0,0,0a0,0,0,0,1,0,0l0,0s0,0,0,0a.52.52,0,0,0-.2-.19.48.48,0,0,0-.3-.08l-.18,0a.48.48,0,0,0-.16.08.37.37,0,0,0-.15.31.2.2,0,0,0,.06.15.37.37,0,0,0,.13.12.56.56,0,0,0,.17.09L68,75h0l.29.1a1,1,0,0,1,.23.14.62.62,0,0,1,.14.19.48.48,0,0,1,.06.24.6.6,0,0,1-.07.27.55.55,0,0,1-.17.2.75.75,0,0,1-.25.13,1,1,0,0,1-.3,0,1,1,0,0,1-.25,0,.74.74,0,0,1-.22-.1.66.66,0,0,1-.17-.16A.62.62,0,0,1,67.19,75.78Z"/><path class="cls-2" d="M23.53,67.21a3.92,3.92,0,0,1-1.46,1.31,4,4,0,0,1-1.9.45,4,4,0,1,1,0-8,4.07,4.07,0,0,1,1.82.43,4.18,4.18,0,0,1,1.42,1.23l-1.12.8a2.71,2.71,0,0,0-.92-.79,2.54,2.54,0,0,0-1.2-.3A2.66,2.66,0,0,0,17.54,65a2.65,2.65,0,0,0,2.63,2.62,2.61,2.61,0,0,0,1.26-.31,2.56,2.56,0,0,0,1-.85Zm-1.13-.77,1.13.77Z"/><path class="cls-2" d="M31.22,67.08H28.56l-.81,1.72H26.24l3-6.3.62-1.3.63,1.29,3.11,6.31H32.07Zm-2-1.3h1.4l-.72-1.46Zm.68-1.46-.68,1.46Z"/><path class="cls-2" d="M36,68.8l2.14-6,.55-1.56.71,1.48L41,66l1.62-3.32.71-1.48.55,1.56,2.14,6H44.59l-1.44-4L41,68.8l-2.12-4-1.43,4Zm0,0h0Z"/><path class="cls-2" d="M49.91,61.22v0h.65a2.42,2.42,0,0,1,1.76.72,2.54,2.54,0,0,1,.74,1.77,2.53,2.53,0,0,1-2.5,2.5h-.65V68.8H48.54V61.22Zm-1.37,0h0Zm1.37,1.39v2.23h.65a1,1,0,0,0,.79-.32,1.06,1.06,0,0,0,.32-.79,1.12,1.12,0,0,0-.32-.8,1.09,1.09,0,0,0-.79-.32Z"/><path class="cls-3" d="M21.43,54.2v5.59H18.64V54.33l-4.56-9.62h3l2.86,6,2.84-6h3.06Zm0,0,4.46-9.49Z"/><path class="cls-3" d="M33.48,50.87h4.1v2.76h-4.1V57H39v2.78H30.72V44.55H39V47.3H33.48Zm0-3.57v0Z"/><path class="cls-3" d="M51.07,48.28a2,2,0,0,0-.79-.73A2.31,2.31,0,0,0,49,47.33a1.63,1.63,0,0,0-.89.46,1.4,1.4,0,0,0-.41.89,1.17,1.17,0,0,0,.11.68,1.81,1.81,0,0,0,.49.62,2.85,2.85,0,0,0,.59.32c.3.11.54.19.84.28a7.1,7.1,0,0,1,1.14.35,4.2,4.2,0,0,1,1.27.75,4.45,4.45,0,0,1,1.37,1.73,4.17,4.17,0,0,1,.38,2.14,4.61,4.61,0,0,1-1.24,2.75A4.33,4.33,0,0,1,50,59.65a5.26,5.26,0,0,1-3-.45,4.7,4.7,0,0,1-2.16-2,5.66,5.66,0,0,1-.35-.81,6.79,6.79,0,0,1-.19-.89L47,55.09a1.9,1.9,0,0,0,.11.4,1.56,1.56,0,0,0,.13.35,2,2,0,0,0,.92.87,2.44,2.44,0,0,0,1.44.22,2,2,0,0,0,1-.55A1.62,1.62,0,0,0,51,54.55a1.45,1.45,0,0,0-.59-.71,1.57,1.57,0,0,0-.57-.35c-.3-.11-.54-.19-.84-.27a6.48,6.48,0,0,1-1.13-.35,4.91,4.91,0,0,1-1.3-.75,4.47,4.47,0,0,1-1.27-1.63,4.16,4.16,0,0,1-.38-2,4.4,4.4,0,0,1,1.19-2.6,4.35,4.35,0,0,1,2.54-1.27,4.93,4.93,0,0,1,2.78.44,4.55,4.55,0,0,1,2,1.91Zm0,0L53.5,47Z"/><rect class="cls-4" y="70.42" width="69" height="0.45"/><circle class="cls-5" cx="34.8" cy="24.82" r="18"/><circle class="cls-6" cx="34.8" cy="24.82" r="16"/><path class="cls-7" d="M32.36,29.89,23.57,14.6h4.67L34.4,25.36,40.57,14.6h4.67L36.42,29.89V41.52H32.36Z"/><circle class="cls-8" cx="53.65" cy="17.39" r="7.73"/><path class="cls-3" d="M56.74,14.44a3.7,3.7,0,0,0-1.28-1,3.49,3.49,0,0,0-1.52-.33,4,4,0,0,0-1.64.32,3.1,3.1,0,0,0-1.18.89,3.83,3.83,0,0,0-.7,1.31,5.21,5.21,0,0,0-.25,1.6,4.73,4.73,0,0,0,.27,1.61,4.11,4.11,0,0,0,.76,1.32,3.31,3.31,0,0,0,1.17.89,3.51,3.51,0,0,0,1.54.33A3.27,3.27,0,0,0,56.74,20l1.38,1.31a4.78,4.78,0,0,1-1.91,1.35,6.38,6.38,0,0,1-2.3.42,6.15,6.15,0,0,1-2.35-.44,5.09,5.09,0,0,1-1.82-1.21,5.71,5.71,0,0,1-1.15-1.86,6.18,6.18,0,0,1-.41-2.35,6.31,6.31,0,0,1,.42-2.33,5.35,5.35,0,0,1,3-3.07,6.13,6.13,0,0,1,2.34-.43,6.28,6.28,0,0,1,2.34.44,5,5,0,0,1,1.93,1.33Z"/><path class="cls-9" d="M40.66,0s2.39,0,4.75,3,6.18,2.68,8.65,1.91c0,0-3.52,4.76-9,3.91a11.35,11.35,0,0,0-8.52,2.35Z"/></g></g></svg>