<svg xmlns="http://www.w3.org/2000/svg" xmlns:xlink="http://www.w3.org/1999/xlink" viewBox="0 0 75.63 74.29"><defs><style>.cls-1{fill:#636060;}.cls-2{fill:#030303;}.cls-3{fill:#ef7a22;}.cls-4{stroke-linecap:round;stroke-linejoin:round;stroke-width:2px;fill:url(#linear-gradient);stroke:url(#linear-gradient-2);}.cls-5{fill:url(#linear-gradient-3);}.cls-6{fill:url(#linear-gradient-4);}.cls-7{fill:#fff;}</style><linearGradient id="linear-gradient" x1="44.17" y1="9.46" x2="22.86" y2="38.86" gradientUnits="userSpaceOnUse"><stop offset="0" stop-color="#ffa23b"/><stop offset="1" stop-color="#ef7a22"/></linearGradient><linearGradient id="linear-gradient-2" x1="61.15" y1="21.04" x2="24.92" y2="21.04" gradientUnits="userSpaceOnUse"><stop offset="0" stop-color="#4d4d4d"/><stop offset="1" stop-color="#231f20"/></linearGradient><linearGradient id="linear-gradient-3" x1="42" y1="10.97" x2="27.95" y2="28.48" xlink:href="#linear-gradient-2"/><linearGradient id="linear-gradient-4" x1="59.25" y1="11.03" x2="42.81" y2="11.03" xlink:href="#linear-gradient-2"/></defs><title>young entrepreneur</title><g id="Capa_2" data-name="Capa 2"><g id="LOGOS_CURVA" data-name="LOGOS CURVA"><path class="cls-1" d="M12.36,72.44v.08a.29.29,0,0,0,0,.09,1,1,0,0,0,.13.29,1.1,1.1,0,0,0,.2.23.87.87,0,0,0,.27.14.81.81,0,0,0,.31.06l.17,0,.16,0a.38.38,0,0,0,.13-.06l.12-.08,0,0,0,0,0,0h0l0,0,.05.07a0,0,0,0,1,0,0s0,0,0,0a0,0,0,0,1,0,0l-.05,0-.06.06a1.3,1.3,0,0,1-.31.16,1.1,1.1,0,0,1-.37.06,1.13,1.13,0,0,1-.45-.09,1.6,1.6,0,0,1-.37-.25,1.15,1.15,0,0,1-.25-.37,1.22,1.22,0,0,1-.09-.46,1.1,1.1,0,0,1,0-.31.81.81,0,0,1,.11-.27,1.06,1.06,0,0,1,.42-.42,1.18,1.18,0,0,1,.28-.12,1.06,1.06,0,0,1,.31,0,1.39,1.39,0,0,1,.3,0,1.09,1.09,0,0,1,.27.11,1.08,1.08,0,0,1,.24.18.84.84,0,0,1,.18.23,1.18,1.18,0,0,1,.12.28,1.27,1.27,0,0,1,.05.34h0a.05.05,0,0,1-.06.06Zm.69-1a.82.82,0,0,0-.25.12,1,1,0,0,0-.36.41.77.77,0,0,0-.08.27h1.89a.91.91,0,0,0-.1-.33,1.09,1.09,0,0,0-.21-.26,1,1,0,0,0-.29-.18,1,1,0,0,0-.34-.06h-.12Z"/><path class="cls-1" d="M16.79,71.41a.59.59,0,0,0-.23,0,.41.41,0,0,0-.2.12.65.65,0,0,0-.15.18.54.54,0,0,0-.06.25v.9h0v.5s0,0-.06,0H16s-.06,0-.06,0V71.3a.08.08,0,0,1,0,0l.05,0h.07l.05,0s0,0,0,0v.27a.64.64,0,0,1,.13-.15.44.44,0,0,1,.15-.12l.17-.07a.68.68,0,0,1,.21,0,.82.82,0,0,1,.45.12.83.83,0,0,1,.29.35,1.07,1.07,0,0,1,.13-.21.65.65,0,0,1,.18-.15.67.67,0,0,1,.21-.09l.23,0a.83.83,0,0,1,.32.05.78.78,0,0,1,.24.16.8.8,0,0,1,.18.23,1.4,1.4,0,0,1,.09.29s0,.09,0,.13V73.4a.08.08,0,0,1,0,.06s0,0-.05,0H19s0,0-.05,0a.07.07,0,0,1,0,0V72.07a1,1,0,0,0-.05-.24.57.57,0,0,0-.13-.21.62.62,0,0,0-.2-.15.6.6,0,0,0-.27-.06.62.62,0,0,0-.23,0,.7.7,0,0,0-.32.27.58.58,0,0,0-.07.21,1.09,1.09,0,0,0,0,.26V73.4s0,0,0,.06,0,0-.06,0h-.06s-.05,0-.06,0a.07.07,0,0,1,0,0V72.19a8532362765208,8532362765208,0,0,1,0-.24.83.83,0,0,0-.06-.21.75.75,0,0,0-.14-.17.45.45,0,0,0-.19-.11A.6.6,0,0,0,16.79,71.41Z"/><path class="cls-1" d="M20.66,71.3s0-.06.05-.06h.1a.05.05,0,0,1,.06.06v.43a.83.83,0,0,1,.08-.12.39.39,0,0,1,.08-.1,1.13,1.13,0,0,1,.78-.31,1.1,1.1,0,0,1,.31,0,1.31,1.31,0,0,1,.27.12,1.06,1.06,0,0,1,.42.42,1.05,1.05,0,0,1,.16.58,1.06,1.06,0,0,1,0,.31,1.39,1.39,0,0,1-.12.28,1.37,1.37,0,0,1-.18.24,1.08,1.08,0,0,1-.24.18,1.31,1.31,0,0,1-.27.12,1.65,1.65,0,0,1-.31,0l-.22,0-.21-.07a1,1,0,0,1-.18-.1,1.09,1.09,0,0,1-.17-.13l-.08-.1a.62.62,0,0,1-.09-.12v1.15a0,0,0,0,1,0,0H20.7s0,0,0,0Zm2.09,1.06a.94.94,0,0,0-.07-.37,1,1,0,0,0-.2-.3,1,1,0,0,0-.3-.21.77.77,0,0,0-.37-.08.93.93,0,0,0-.68.28,1.25,1.25,0,0,0-.21.3,1,1,0,0,0-.07.38.93.93,0,0,0,.28.68.81.81,0,0,0,.3.21.8.8,0,0,0,.37.08.77.77,0,0,0,.37-.08.81.81,0,0,0,.3-.21,1,1,0,0,0,.21-.31A.9.9,0,0,0,22.75,72.36Z"/><path class="cls-1" d="M24.32,72.36a1.05,1.05,0,0,1,.16-.58,1.06,1.06,0,0,1,.42-.42,1.18,1.18,0,0,1,.28-.12,1,1,0,0,1,.3,0,1.06,1.06,0,0,1,.31,0,1.39,1.39,0,0,1,.28.12,1.37,1.37,0,0,1,.24.18,1.08,1.08,0,0,1,.18.24,1.05,1.05,0,0,1,.16.58,1.06,1.06,0,0,1,0,.31,1.39,1.39,0,0,1-.12.28,1.06,1.06,0,0,1-.42.42,1.39,1.39,0,0,1-.28.12,1.55,1.55,0,0,1-.31,0,1.45,1.45,0,0,1-.3,0,1.18,1.18,0,0,1-.28-.12,1.08,1.08,0,0,1-.24-.18,1.37,1.37,0,0,1-.18-.24,1.39,1.39,0,0,1-.12-.28A1.06,1.06,0,0,1,24.32,72.36Zm.21,0a.69.69,0,0,0,0,.25.92.92,0,0,0,.09.23,1,1,0,0,0,.15.2.9.9,0,0,0,.19.15.89.89,0,0,0,.85.06.9.9,0,0,0,.3-.21.81.81,0,0,0,.21-.3,1,1,0,0,0,.08-.38,1,1,0,0,0-.08-.37,1,1,0,0,0-.2-.31,1.61,1.61,0,0,0-.3-.21,1,1,0,0,0-.37-.08.91.91,0,0,0-.37.08,1,1,0,0,0-.31.21,1.1,1.1,0,0,0-.2.31A1,1,0,0,0,24.53,72.36Z"/><path class="cls-1" d="M29.43,71.43c0-.05.05-.11.07-.17a.05.05,0,0,1,0,0h.14s0,0,0,0v0h0l-.11.26-.11.26c.08.22.17.44.26.66l.27.65c0-.08.07-.17.11-.27l.13-.31c.05-.11.09-.22.14-.34l.13-.33.14-.33c0-.1.08-.2.11-.29l0,0h.13s0,0,0,0,0,0,0,0v0l-.88,2.13,0,0h-.15a0,0,0,0,1,0,0l-.28-.66-.27-.67-.13.31-.13.31L29,73l-.13.31,0,.1a.08.08,0,0,1-.07,0h-.1s0,0,0,0l-.88-2.12v0s0,0,0,0h.14l0,0a2.93,2.93,0,0,0,.12.28l.13.33c0,.11.09.22.14.34s.09.23.14.34l.12.31c.05.1.08.19.12.27l.27-.66.35-.89h0Z"/><path class="cls-1" d="M32.32,72.44a.17.17,0,0,1,0,.08.29.29,0,0,0,0,.09,1,1,0,0,0,.13.29,1.1,1.1,0,0,0,.2.23.87.87,0,0,0,.27.14.81.81,0,0,0,.31.06l.17,0,.16,0a.38.38,0,0,0,.13-.06l.12-.08,0,0,0,0,0,0h0l0,0,0,.07a0,0,0,0,1,0,0s0,0,0,0a0,0,0,0,1,0,0l-.05,0-.06.06a1.3,1.3,0,0,1-.31.16,1.15,1.15,0,0,1-.37.06,1.13,1.13,0,0,1-.45-.09,1.6,1.6,0,0,1-.37-.25,1.15,1.15,0,0,1-.25-.37,1.23,1.23,0,0,1-.1-.46,1.12,1.12,0,0,1,0-.31.81.81,0,0,1,.11-.27,1.06,1.06,0,0,1,.42-.42,1.18,1.18,0,0,1,.28-.12,1.06,1.06,0,0,1,.31,0,1.53,1.53,0,0,1,.3,0,1.09,1.09,0,0,1,.27.11,1.08,1.08,0,0,1,.24.18.84.84,0,0,1,.18.23,1.18,1.18,0,0,1,.12.28,1.27,1.27,0,0,1,0,.34h0a.05.05,0,0,1-.06.06Zm.7-1a.82.82,0,0,0-.25.12,1,1,0,0,0-.36.41,1.07,1.07,0,0,0-.09.27h1.9a.91.91,0,0,0-.1-.33,1.09,1.09,0,0,0-.21-.26,1,1,0,0,0-.29-.18,1,1,0,0,0-.34-.06h-.12Z"/><path class="cls-1" d="M37.29,71.6h0l0,0-.09,0L37,71.47a.35.35,0,0,0-.11,0l-.11,0a.75.75,0,0,0-.26,0,.74.74,0,0,0-.21.13.55.55,0,0,0-.14.22.64.64,0,0,0-.06.28v1.33a0,0,0,0,1,0,0H36s-.06,0-.06,0V71.3s0,0,.05,0h.1a.06.06,0,0,1,.05,0s0,0,0,0v.29a1.13,1.13,0,0,1,.1-.13.86.86,0,0,1,.14-.13l.18-.08a.54.54,0,0,1,.22,0h.17l.15,0,.14.07a.51.51,0,0,1,.13.09s0,0,0,0l0,0a.09.09,0,0,1,0,.05Z"/><path class="cls-1" d="M38.78,70.58a.07.07,0,0,1,0,0s0,0,0,0H39l0,0a.07.07,0,0,1,0,0v.07a.1.1,0,0,1,0,.07H38.8s0,0,0,0Zm0,.72a.05.05,0,0,1,.06-.06h.09a.05.05,0,0,1,.06.06v2.13s0,0-.06,0h-.09s-.06,0-.06,0Z"/><path class="cls-1" d="M40.65,71.3s0,0,0,0a.06.06,0,0,1,.05,0h.07s0,0,0,0a.08.08,0,0,1,0,0v.27a.79.79,0,0,1,.17-.19,1.06,1.06,0,0,1,.2-.12.76.76,0,0,1,.2-.06h.18a.87.87,0,0,1,.37.07.86.86,0,0,1,.29.21.75.75,0,0,1,.18.3.9.9,0,0,1,.07.37V73.4a.08.08,0,0,1,0,.06s0,0-.05,0h-.07s0,0,0,0a.07.07,0,0,1,0,0V72.13a1.31,1.31,0,0,0-.06-.27.59.59,0,0,0-.14-.23.62.62,0,0,0-.22-.17.73.73,0,0,0-.3-.06.65.65,0,0,0-.27,0,.68.68,0,0,0-.23.14.62.62,0,0,0-.17.22.64.64,0,0,0-.07.28v1.34a0,0,0,0,1-.05,0h-.1a0,0,0,0,1-.05,0V71.3Z"/><path class="cls-1" d="M46.08,71.73v-.44a.05.05,0,0,1,0,0s0,0,0,0h.07s0,0,.05,0a.08.08,0,0,1,0,0v1.84h0a2.07,2.07,0,0,1,0,.37,1,1,0,0,1-.13.29.74.74,0,0,1-.18.21,1.07,1.07,0,0,1-.22.15.87.87,0,0,1-.26.08,1.39,1.39,0,0,1-.62,0,1.48,1.48,0,0,1-.29-.12l0,0s0,0,0,0v0l0,0,0-.07h.05l.08,0,.13.06.16,0,.17,0a1,1,0,0,0,.36-.06.79.79,0,0,0,.29-.18.77.77,0,0,0,.19-.28,1,1,0,0,0,.07-.39V73a.76.76,0,0,1-.17.23,1,1,0,0,1-.23.17,1.19,1.19,0,0,1-.26.11,1.35,1.35,0,0,1-.28,0,1.06,1.06,0,0,1-.31,0,1,1,0,0,1-.28-.12,1.37,1.37,0,0,1-.24-.18,1.3,1.3,0,0,1-.18-.23,1.39,1.39,0,0,1-.12-.28,1.06,1.06,0,0,1,0-.31,1.55,1.55,0,0,1,0-.31,1.39,1.39,0,0,1,.12-.28,1.57,1.57,0,0,1,.42-.42,1.39,1.39,0,0,1,.28-.12,1.55,1.55,0,0,1,.31,0,1.35,1.35,0,0,1,.28,0,1.19,1.19,0,0,1,.26.11,1.24,1.24,0,0,1,.23.17A1.28,1.28,0,0,1,46.08,71.73Zm-1.9.63a.69.69,0,0,0,0,.25.92.92,0,0,0,.09.23,1,1,0,0,0,.15.2.9.9,0,0,0,.19.15.88.88,0,0,0,.22.1.73.73,0,0,0,.25,0,.81.81,0,0,0,.35-.07.79.79,0,0,0,.29-.18.84.84,0,0,0,.22-.27.91.91,0,0,0,.1-.33v-.23a.91.91,0,0,0-.1-.33,1.21,1.21,0,0,0-.21-.28,1.41,1.41,0,0,0-.29-.18,1,1,0,0,0-.34-.06,1.09,1.09,0,0,0-.26,0,.62.62,0,0,0-.22.1.75.75,0,0,0-.2.15.9.9,0,0,0-.15.19,1,1,0,0,0-.09.24A.69.69,0,0,0,44.18,72.36Z"/><path class="cls-1" d="M49.89,70.58a.07.07,0,0,1,0,0s0,0,0,0h.12l0,0a.43.43,0,0,1,0,0v.07a.1.1,0,0,1,0,.07h-.19s0,0,0,0Zm0,.72s0-.06.05-.06h.1s.05,0,.05.06v2.13s0,0-.05,0H50s-.06,0-.06,0Z"/><path class="cls-1" d="M54,73.43s0,0-.06,0h-.09s-.05,0-.05,0V73a1,1,0,0,0-.08.11,1,1,0,0,1-.08.11,1.38,1.38,0,0,1-.36.23,1.16,1.16,0,0,1-.42.08,1.06,1.06,0,0,1-.31,0,1,1,0,0,1-.28-.11,1.37,1.37,0,0,1-.23-.19,1.3,1.3,0,0,1-.18-.23,1,1,0,0,1-.12-.28,1.06,1.06,0,0,1,0-.31,1.1,1.1,0,0,1,0-.31.83.83,0,0,1,.12-.27,1.08,1.08,0,0,1,.18-.24,1.3,1.3,0,0,1,.23-.18,1.39,1.39,0,0,1,.28-.12,1.06,1.06,0,0,1,.31,0,.82.82,0,0,1,.22,0,1.17,1.17,0,0,1,.2.06l.19.1.17.13.08.1a.94.94,0,0,0,.09.12V70.57h.15s.05,0,.05,0Zm-2.1-1.07a.91.91,0,0,0,.08.37.92.92,0,0,0,.2.31.81.81,0,0,0,.3.21.86.86,0,0,0,.36.08,1,1,0,0,0,.38-.08,1.27,1.27,0,0,0,.31-.2,1.1,1.1,0,0,0,.2-.31,1,1,0,0,0,.08-.37A1.22,1.22,0,0,0,53.7,72a1.06,1.06,0,0,0-.21-.31,1.34,1.34,0,0,0-.3-.21,1,1,0,0,0-.37-.08.91.91,0,0,0-.37.08,1,1,0,0,0-.31.21,1.1,1.1,0,0,0-.2.31A1,1,0,0,0,51.86,72.36Z"/><path class="cls-1" d="M55.59,72.44s0,0,0,.08,0,.06,0,.09a1.28,1.28,0,0,0,.13.29,1.15,1.15,0,0,0,.21.23.94.94,0,0,0,.26.14.81.81,0,0,0,.31.06l.18,0,.15,0a.31.31,0,0,0,.13-.06.36.36,0,0,0,.12-.08l0,0,0,0,0,0h0l0,0,0,.07s0,0,0,0,0,0,0,0h0l0,0-.07.06a1.14,1.14,0,0,1-.31.16,1,1,0,0,1-.36.06,1.13,1.13,0,0,1-.45-.09,1.41,1.41,0,0,1-.37-.25,1.37,1.37,0,0,1-.26-.37,1.22,1.22,0,0,1-.09-.46,1.05,1.05,0,0,1,.16-.58,1.08,1.08,0,0,1,.18-.24,1.3,1.3,0,0,1,.23-.18,1.39,1.39,0,0,1,.28-.12,1.12,1.12,0,0,1,.32,0,1,1,0,0,1,.57.14,1.3,1.3,0,0,1,.23.18.84.84,0,0,1,.18.23.9.9,0,0,1,.13.28,1.86,1.86,0,0,1,.05.34h0a.05.05,0,0,1-.06.06Zm.7-1a.88.88,0,0,0-.26.12,1.12,1.12,0,0,0-.2.18,1.34,1.34,0,0,0-.16.23,1.07,1.07,0,0,0-.08.27h1.9a.92.92,0,0,0-.11-.33.75.75,0,0,0-.21-.26.79.79,0,0,0-.29-.18,1,1,0,0,0-.34-.06h-.12Z"/><path class="cls-1" d="M61.21,73.13V73a.92.92,0,0,1-.17.22,1.18,1.18,0,0,1-.22.17,1.19,1.19,0,0,1-.26.11,1.45,1.45,0,0,1-.29,0,1.06,1.06,0,0,1-.31,0,1,1,0,0,1-.28-.12,1.3,1.3,0,0,1-.23-.18,1.12,1.12,0,0,1-.19-.24.81.81,0,0,1-.11-.27,1,1,0,0,1,0-.62,1,1,0,0,1,.11-.28,2.11,2.11,0,0,1,.19-.23,1.37,1.37,0,0,1,.23-.19,1.39,1.39,0,0,1,.28-.12,1.55,1.55,0,0,1,.31,0,1.26,1.26,0,0,1,.28,0,.9.9,0,0,1,.27.11.87.87,0,0,1,.22.17,1,1,0,0,1,.18.22v-.44s0-.06,0-.06h.09a.05.05,0,0,1,.06.06v2.14a0,0,0,0,1,0,0h-.12a.05.05,0,0,1-.06-.06Zm0-.77a1,1,0,0,0-.08-.37.9.9,0,0,0-.21-.3,1,1,0,0,0-.31-.21.73.73,0,0,0-.36-.08h0a.92.92,0,0,0-.36.07,1.61,1.61,0,0,0-.3.21.92.92,0,0,0-.2.31.8.8,0,0,0-.08.37,1,1,0,0,0,.07.37,1.27,1.27,0,0,0,.2.31,1,1,0,0,0,.3.21,1,1,0,0,0,1.26-.52A.91.91,0,0,0,61.22,72.36Z"/><path class="cls-1" d="M62.81,73h0v0s0,0,0,0l0,0,.07,0H63s0,0,0,0a.43.43,0,0,1,0,0s0,0,0,0a.41.41,0,0,0,.1.13l.14.09.15,0,.14,0,.18,0a.62.62,0,0,0,.19-.07.5.5,0,0,0,.15-.14.32.32,0,0,0,.06-.2.31.31,0,0,0-.06-.19.4.4,0,0,0-.13-.13.66.66,0,0,0-.19-.09.83.83,0,0,0-.21-.06,1.06,1.06,0,0,1-.25-.09.8.8,0,0,1-.22-.13.61.61,0,0,1-.15-.17.43.43,0,0,1-.06-.22.66.66,0,0,1,0-.25.5.5,0,0,1,.15-.2.66.66,0,0,1,.22-.12.84.84,0,0,1,.29,0,.59.59,0,0,1,.23,0,.61.61,0,0,1,.2.09.54.54,0,0,1,.15.15.86.86,0,0,1,.11.19h0a0,0,0,0,1,0,.06l0,0,0,0h-.06l0,0,0,0,0,0a.52.52,0,0,0-.19-.2.62.62,0,0,0-.31-.07.55.55,0,0,0-.18,0,.48.48,0,0,0-.16.08.29.29,0,0,0-.1.12.34.34,0,0,0,0,.18.24.24,0,0,0,.05.16.37.37,0,0,0,.13.12l.17.08.17.06h0a1.24,1.24,0,0,1,.29.1.74.74,0,0,1,.23.14.58.58,0,0,1,.15.19.59.59,0,0,1,0,.23.51.51,0,0,1-.07.28.65.65,0,0,1-.17.2.72.72,0,0,1-.25.12,1,1,0,0,1-.3,0,.69.69,0,0,1-.25,0,.73.73,0,0,1-.22-.09.69.69,0,0,1-.17-.17A.5.5,0,0,1,62.81,73Z"/><path class="cls-2" d="M8.39,61.86H10v1H8.39v1.28h2.1v1.06H7.34V59.46h3.15v1H8.39Zm0-1.35v0Z"/><path class="cls-2" d="M16.64,59.48v5.75l-.92-1-2.16-2.23v3.17H12.51V59.48l.91,1,2.17,2.22V59.48Zm-1.05,0h0Z"/><path class="cls-2" d="M18.66,59.47h3.26v1.05H20.79v4.73H19.74V60.52H18.66Zm0,0v0Z"/><path class="cls-2" d="M27.48,65.25H26.25l-1.17-2h-.15v2H23.88V59.47h1.54a1.88,1.88,0,0,1,1.35.55,1.94,1.94,0,0,1,.56,1.35,1.85,1.85,0,0,1-.56,1.35,2.14,2.14,0,0,1-.57.39Zm-2.55-3h.49a.82.82,0,0,0,.85-.85.89.89,0,0,0-.24-.61.85.85,0,0,0-.61-.24h-.49Z"/><path class="cls-2" d="M30.38,61.86h1.56v1H30.38v1.28h2.09v1.06H29.33V59.46h3.14v1H30.38Zm0-1.35v0Z"/><path class="cls-2" d="M35.54,59.47H36a1.88,1.88,0,0,1,1.35.55,1.94,1.94,0,0,1,.56,1.35,1.88,1.88,0,0,1-.56,1.35,1.91,1.91,0,0,1-1.35.56h-.49v2h-1V59.47Zm-1,0h0Zm1,1.06v1.7H36a.84.84,0,0,0,.61-.24.86.86,0,0,0,.25-.61.9.9,0,0,0-.25-.61.84.84,0,0,0-.61-.24Z"/><path class="cls-2" d="M43.4,65.25H42.17l-1.17-2h-.15v2H39.8V59.47h1.54a1.9,1.9,0,0,1,1.35.55,1.94,1.94,0,0,1,.56,1.35,1.85,1.85,0,0,1-.56,1.35,2.14,2.14,0,0,1-.57.39Zm-2.55-3h.49a.82.82,0,0,0,.85-.85.89.89,0,0,0-.24-.61.85.85,0,0,0-.61-.24h-.49Z"/><path class="cls-2" d="M46.3,61.86h1.56v1H46.3v1.28h2.09v1.06H45.25V59.46h3.14v1H46.3Zm0-1.35v0Z"/><path class="cls-2" d="M54.54,59.48v5.75l-.91-1-2.17-2.23v3.17H50.41V59.48l.92,1,2.16,2.22V59.48Zm-1,0h0Z"/><path class="cls-2" d="M57.61,61.86h1.56v1H57.61v1.28h2.1v1.06H56.56V59.46h3.15v1h-2.1Zm0-1.35v0Z"/><path class="cls-2" d="M62.83,59.47v3.36a2.08,2.08,0,0,0,.11.89.89.89,0,0,0,.37.42.86.86,0,0,0,.51.16.84.84,0,0,0,.48-.14.86.86,0,0,0,.37-.36,1.69,1.69,0,0,0,.14-.92V59.47h1v3.41a2.76,2.76,0,0,1-.28,1.46,2.12,2.12,0,0,1-.75.74,2,2,0,0,1-1,.26A2,2,0,0,1,62.73,65a2.08,2.08,0,0,1-.75-.86,2.93,2.93,0,0,1-.2-1.35,2,2,0,0,0,0-.24V59.47Zm0,0h0Z"/><path class="cls-2" d="M71.4,65.25H70.17l-1.17-2h-.15v2h-1V59.47h1.54a1.88,1.88,0,0,1,1.35.55,1.94,1.94,0,0,1,.56,1.35,1.85,1.85,0,0,1-.56,1.35,2.14,2.14,0,0,1-.57.39Zm-2.55-3h.49A.85.85,0,0,0,70,62a.86.86,0,0,0,.25-.61.9.9,0,0,0-.25-.61.85.85,0,0,0-.61-.24h-.49Z"/><path class="cls-3" d="M12,52.86v4.81H9.56V53L5.62,44.69H8.25l2.47,5.19,2.44-5.19h2.63Zm0,0,3.84-8.17Z"/><path class="cls-3" d="M28.5,46.18A6.91,6.91,0,0,1,18.72,56a6.91,6.91,0,1,1,9.78-9.77Zm-4.89.35a4.54,4.54,0,0,0,0,9.07,4.54,4.54,0,0,0,4.54-4.54,4.58,4.58,0,0,0-4.54-4.53Z"/><path class="cls-3" d="M35.62,44.57v7.61a4.92,4.92,0,0,0,.23,2,2.24,2.24,0,0,0,.84,1,2.08,2.08,0,0,0,1.16.35,2.22,2.22,0,0,0,1.1-.3,2.18,2.18,0,0,0,.83-.82,4,4,0,0,0,.31-2.09V44.57h2.39V52.3a6.08,6.08,0,0,1-.65,3.3,4.72,4.72,0,0,1-1.7,1.68,4.48,4.48,0,0,1-2.28.6,4.32,4.32,0,0,1-2.46-.72,4.53,4.53,0,0,1-1.7-1.93,6.56,6.56,0,0,1-.47-3.07,5.15,5.15,0,0,0,0-.54v-7Zm0,0h0Z"/><path class="cls-3" d="M55.3,44.59v13l-2.07-2.17-4.91-5.05V57.6H46v-13L48,46.76l4.91,5.05V44.59Zm-2.37,0h0Z"/><path class="cls-3" d="M64.24,51h7.21v0a6.66,6.66,0,0,1-1.9,4.88,7,7,0,0,1-5,2.07,6.67,6.67,0,0,1-4.89-2,6.92,6.92,0,0,1,0-9.77,6.92,6.92,0,0,1,8-1.28A6.65,6.65,0,0,1,70.13,47l-1.93,1.4A4.66,4.66,0,0,0,66.59,47a4.32,4.32,0,0,0-2.07-.51,4.46,4.46,0,0,0-3.19,1.35,4.53,4.53,0,0,0,3.19,7.72,4.72,4.72,0,0,0,3.33-1.37,6.15,6.15,0,0,0,.65-.82l-4.26,0Zm0,0v0Z"/><rect class="cls-3" y="67.66" width="75.63" height="0.45"/><polygon class="cls-4" points="25.92 41.08 25.92 1 60.15 21.04 25.92 41.08"/><circle class="cls-3" cx="47.12" cy="37.66" r="4.08"/><path class="cls-5" d="M37.94,24.45v7.82H34.22V24.45L27.16,13.22h3.95l5,8.13,5-8.13H45Z"/><circle class="cls-6" cx="51.03" cy="11.03" r="8.22"/><path class="cls-7" d="M56.46,15A6.24,6.24,0,0,1,54,17a7.72,7.72,0,0,1-3.07.56A6.29,6.29,0,0,1,48.33,17a5.76,5.76,0,0,1-2-1.39,6.18,6.18,0,0,1-1.24-2.07A7.42,7.42,0,0,1,44.69,11a7.24,7.24,0,0,1,.48-2.63,6.22,6.22,0,0,1,1.34-2.06,5.79,5.79,0,0,1,2-1.33,6.47,6.47,0,0,1,2.55-.47A6.34,6.34,0,0,1,53.45,5a5.25,5.25,0,0,1,1.86,1.28,5.74,5.74,0,0,1,1.2,2A8.36,8.36,0,0,1,56.93,11v.66l-10,0a4.47,4.47,0,0,0,.38,1.52,4.38,4.38,0,0,0,.86,1.27,3.76,3.76,0,0,0,1.24.87,3.85,3.85,0,0,0,1.56.32,4.81,4.81,0,0,0,2.28-.47,5.11,5.11,0,0,0,1.68-1.4ZM54.71,9.93a3.57,3.57,0,0,0-1-2.54,3.73,3.73,0,0,0-2.7-1,4,4,0,0,0-2.78,1,4,4,0,0,0-1.28,2.54Z"/></g></g></svg>