<svg xmlns="http://www.w3.org/2000/svg" xmlns:xlink="http://www.w3.org/1999/xlink" viewBox="0 0 36.23 42.08"><defs><style>.cls-1{stroke-linecap:round;stroke-linejoin:round;stroke-width:2px;fill:url(#linear-gradient);stroke:url(#linear-gradient-2);}.cls-2{fill:url(#linear-gradient-3);}.cls-3{fill:#fff;}.cls-4{fill:url(#linear-gradient-4);}</style><linearGradient id="linear-gradient" x1="16.15" y1="14.58" x2="6.15" y2="32.68" gradientUnits="userSpaceOnUse"><stop offset="0" stop-color="#6a9ed4"/><stop offset="1" stop-color="#007dc5"/></linearGradient><linearGradient id="linear-gradient-2" x1="0.32" y1="41.84" x2="18.68" y2="10.05" gradientUnits="userSpaceOnUse"><stop offset="0" stop-color="#4d4d4d"/><stop offset="1" stop-color="#231f20"/></linearGradient><linearGradient id="linear-gradient-3" x1="23.92" y1="35.11" x2="20.26" y2="40.51" xlink:href="#linear-gradient"/><linearGradient id="linear-gradient-4" x1="34.33" y1="11.03" x2="17.89" y2="11.03" xlink:href="#linear-gradient-2"/></defs><title>FULL</title><g id="Capa_2" data-name="Capa 2"><g id="LOGOS_CURVA" data-name="LOGOS CURVA"><polygon class="cls-1" points="1 41.08 1 1 35.23 21.04 1 41.08"/><circle class="cls-2" cx="22.19" cy="37.66" r="4.08"/><path class="cls-3" d="M13,24.45v7.82H9.3V24.45L2.24,13.22h4l5,8.13,5-8.13h3.93Z"/><circle class="cls-4" cx="26.11" cy="11.03" r="8.22"/><path class="cls-3" d="M31.54,15a6.24,6.24,0,0,1-2.44,2,7.72,7.72,0,0,1-3.07.56A6.45,6.45,0,0,1,23.41,17a5.92,5.92,0,0,1-2-1.4,6.18,6.18,0,0,1-1.24-2.07A7.42,7.42,0,0,1,19.77,11a7.24,7.24,0,0,1,.48-2.63,6.22,6.22,0,0,1,1.34-2.06A5.88,5.88,0,0,1,23.6,5a6.47,6.47,0,0,1,2.55-.47A6.34,6.34,0,0,1,28.53,5a5.25,5.25,0,0,1,1.86,1.28,5.74,5.74,0,0,1,1.2,2A8.36,8.36,0,0,1,32,11v.66l-10,0a4.47,4.47,0,0,0,.38,1.52,4.57,4.57,0,0,0,.86,1.28A3.86,3.86,0,0,0,26,15.64a4.81,4.81,0,0,0,2.28-.47A5.11,5.11,0,0,0,30,13.77ZM29.79,9.93a3.57,3.57,0,0,0-1-2.54,3.73,3.73,0,0,0-2.7-1,4,4,0,0,0-2.78,1A4,4,0,0,0,22,9.91Z"/></g></g></svg>