<svg xmlns="http://www.w3.org/2000/svg" xmlns:xlink="http://www.w3.org/1999/xlink" viewBox="0 0 44.49 36.48"><defs><style>.cls-1{fill:url(#linear-gradient);}.cls-2{fill:url(#linear-gradient-2);}.cls-3{fill:url(#linear-gradient-3);}.cls-4{fill:#275584;}.cls-5{fill:#fff;}.cls-6{fill:#bfd630;}</style><linearGradient id="linear-gradient" x1="26.6" y1="3.78" x2="18.73" y2="17.41" gradientUnits="userSpaceOnUse"><stop offset="0" stop-color="#cfde6d"/><stop offset="0.82" stop-color="#c2d83c"/><stop offset="1" stop-color="#bfd630"/></linearGradient><linearGradient id="linear-gradient-2" x1="18.24" y1="2.03" x2="18.24" y2="34.46" gradientUnits="userSpaceOnUse"><stop offset="0" stop-color="#62759c"/><stop offset="0.84" stop-color="#315a88"/><stop offset="1" stop-color="#275584"/></linearGradient><linearGradient id="linear-gradient-3" x1="40.26" y1="4.7" x2="36.94" y2="10.18" xlink:href="#linear-gradient"/></defs><title>GIRL</title><g id="Capa_2" data-name="Capa 2"><g id="LOGOS_CURVA" data-name="LOGOS CURVA"><circle class="cls-1" cx="18.24" cy="18.24" r="18.24"/><circle class="cls-2" cx="18.24" cy="18.24" r="16.21"/><circle class="cls-3" cx="37.11" cy="9.91" r="7.19"/><path class="cls-4" d="M42.28,12.64a5.56,5.56,0,0,1-1.87,2,6.6,6.6,0,0,1-2.59.87,5.62,5.62,0,0,1-2.33-.12,5.08,5.08,0,0,1-1.88-1,5.23,5.23,0,0,1-1.34-1.63,6.38,6.38,0,0,1-.69-2.15,6.28,6.28,0,0,1,.08-2.34,5.57,5.57,0,0,1,.89-2A5.33,5.33,0,0,1,34.13,5a5.6,5.6,0,0,1,2.14-.73,5.54,5.54,0,0,1,2.12.08,4.43,4.43,0,0,1,1.78.87,5,5,0,0,1,1.3,1.62,7.1,7.1,0,0,1,.7,2.32l.09.57L33.58,11a3.78,3.78,0,0,0,.53,1.28,3.89,3.89,0,0,0,.9,1,3.36,3.36,0,0,0,1.18.59,3.44,3.44,0,0,0,1.4.08,4.33,4.33,0,0,0,1.91-.69,4.54,4.54,0,0,0,1.27-1.43ZM40.11,8.48A3.13,3.13,0,0,0,38.9,6.41a3.25,3.25,0,0,0-2.46-.49,3.33,3.33,0,0,0-3.07,3.53Z"/><path class="cls-5" d="M17.7,17.91H31.1v0A12.45,12.45,0,0,1,27.56,27a13.1,13.1,0,0,1-9.34,3.84,12.34,12.34,0,0,1-9.07-3.76A12.82,12.82,0,0,1,9.15,9a12.48,12.48,0,0,1,9.07-3.76,12.42,12.42,0,0,1,5.83,1.38,12.23,12.23,0,0,1,4.59,3.93l-3.59,2.59a8.57,8.57,0,0,0-3-2.55,8.16,8.16,0,0,0-3.85-1,8.24,8.24,0,0,0-5.92,2.51,8.41,8.41,0,0,0,5.92,14.35,8.77,8.77,0,0,0,6.18-2.55,9.38,9.38,0,0,0,1.21-1.52l-7.91-.08Zm0,0v0Z"/><rect class="cls-6" x="38.46" y="15.77" width="2.53" height="9.49" rx="0.71" transform="translate(-3.66 9.71) rotate(-13.32)"/><rect class="cls-6" x="38.46" y="15.77" width="2.53" height="9.49" rx="0.71" transform="translate(28.92 63.9) rotate(-103.32)"/><circle class="cls-4" cx="5.43" cy="33.04" r="2.53"/></g></g></svg>