<svg xmlns="http://www.w3.org/2000/svg" xmlns:xlink="http://www.w3.org/1999/xlink" viewBox="0 0 43.1 41.6"><defs><style>.cls-1{fill:url(#linear-gradient);}.cls-2{fill:url(#linear-gradient-2);}.cls-3{fill:url(#linear-gradient-3);}.cls-4{fill:#ed2249;}.cls-5{fill:#fff;}</style><linearGradient id="linear-gradient" x1="28.95" y1="8.59" x2="7.54" y2="38.12" gradientUnits="userSpaceOnUse"><stop offset="0" stop-color="#4fc9ff"/><stop offset="0.64" stop-color="#1eadec"/><stop offset="1" stop-color="#009ce0"/></linearGradient><linearGradient id="linear-gradient-2" x1="29.71" y1="11.89" x2="6.78" y2="34.82" gradientUnits="userSpaceOnUse"><stop offset="0" stop-color="#ed516f"/><stop offset="1" stop-color="#ed2249"/></linearGradient><linearGradient id="linear-gradient-3" x1="39.71" y1="12.38" x2="30.06" y2="25.69" xlink:href="#linear-gradient"/></defs><title>KIDS</title><g id="Capa_2" data-name="Capa 2"><g id="LOGOS_CURVA" data-name="LOGOS CURVA"><circle class="cls-1" cx="18.24" cy="23.35" r="18.24"/><circle class="cls-2" cx="18.24" cy="23.35" r="16.21"/><circle class="cls-3" cx="34.88" cy="19.03" r="8.22"/><path class="cls-4" d="M39,24.48a6.31,6.31,0,0,1-2.91,1.2A7.68,7.68,0,0,1,33,25.32a6.24,6.24,0,0,1-2.35-1.26,5.64,5.64,0,0,1-1.48-1.91,6,6,0,0,1-.59-2.34,7.63,7.63,0,0,1,1.56-4.94A6,6,0,0,1,32,13.29a5.7,5.7,0,0,1,2.31-.69,6.54,6.54,0,0,1,2.57.29A6.32,6.32,0,0,1,39,14a5.33,5.33,0,0,1,1.41,1.76A5.77,5.77,0,0,1,41,18.07a8.06,8.06,0,0,1-.39,2.74l-.2.64-9.57-2.93a4.3,4.3,0,0,0-.08,1.56,4.5,4.5,0,0,0,.45,1.47,4,4,0,0,0,.94,1.19,3.87,3.87,0,0,0,1.4.76,5,5,0,0,0,2.32.21,5.3,5.3,0,0,0,2-.85Zm-.21-5.36a3.58,3.58,0,0,0-.25-2.73,3.67,3.67,0,0,0-2.3-1.7,4,4,0,0,0-2.94.09,4.07,4.07,0,0,0-2,2.06Z"/><path class="cls-5" d="M11.12,13.27l3.15,9,3.17-11.19,5.1-1.79-4,14.33L31.1,31.81l-5.26,1.84-8.6-5.58-.41,1.43L19.12,36,15,37.48,7,14.73ZM7,14.73l4.16-1.46Z"/><path class="cls-4" d="M36.36,3.41,30.81.07a.52.52,0,0,0-.51,0A.5.5,0,0,0,30,.51V7.19a.51.51,0,0,0,.26.44.54.54,0,0,0,.25.06.48.48,0,0,0,.26-.07l5.55-3.34a.51.51,0,0,0,0-.87Z"/></g></g></svg>