<svg xmlns="http://www.w3.org/2000/svg" xmlns:xlink="http://www.w3.org/1999/xlink" viewBox="0 0 17.02 17.02"><defs><style>.cls-1{fill:url(#linear-gradient);}.cls-2{fill:#275584;}</style><linearGradient id="linear-gradient" x1="-40.53" y1="99.05" x2="-44.45" y2="105.54" gradientTransform="matrix(0.94, -0.35, 0.35, 0.94, 12.74, -105.56)" gradientUnits="userSpaceOnUse"><stop offset="0" stop-color="#cfde6d"/><stop offset="0.82" stop-color="#c2d83c"/><stop offset="1" stop-color="#bfd630"/></linearGradient></defs><title>Letters_E_GR</title><g id="Capa_2" data-name="Capa 2"><g id="LOGOS_CURVA" data-name="LOGOS CURVA"><circle class="cls-1" cx="8.51" cy="8.51" r="8.51"/><path class="cls-2" d="M15.41,9.37a6.5,6.5,0,0,1-1.21,3,7.85,7.85,0,0,1-2.5,2,6.46,6.46,0,0,1-2.64.84A6,6,0,0,1,6.58,15a6.38,6.38,0,0,1-2.16-1.25,7.66,7.66,0,0,1-1.67-2.09,7.24,7.24,0,0,1-.88-2.63A6.07,6.07,0,0,1,3.19,4.3,7,7,0,0,1,5.26,2.59,6.62,6.62,0,0,1,7.64,1.8,5.24,5.24,0,0,1,10,2a5.84,5.84,0,0,1,2.11,1.25,8.5,8.5,0,0,1,1.76,2.27l.33.6-9.08,5A4.19,4.19,0,0,0,6.2,12.33a4.52,4.52,0,0,0,1.41.73,4.07,4.07,0,0,0,1.56.15,3.92,3.92,0,0,0,1.58-.49,5.1,5.1,0,0,0,1.82-1.57A5.27,5.27,0,0,0,13.39,9Zm-4.14-3.7a3.65,3.65,0,0,0-2.2-1.79,3.86,3.86,0,0,0-2.93.48,4.21,4.21,0,0,0-2,2.26,4.16,4.16,0,0,0,.12,2.94Z"/></g></g></svg>