<svg xmlns="http://www.w3.org/2000/svg" xmlns:xlink="http://www.w3.org/1999/xlink" viewBox="0 0 19.43 19.43"><defs><style>.cls-1{fill:url(#linear-gradient);}.cls-2{fill:#fff;}</style><linearGradient id="linear-gradient" x1="19.43" y1="9.71" x2="0" y2="9.71" gradientUnits="userSpaceOnUse"><stop offset="0" stop-color="#4d4d4d"/><stop offset="1" stop-color="#231f20"/></linearGradient></defs><title>Letters_E_BL</title><g id="Capa_2" data-name="Capa 2"><g id="LOGOS_CURVA" data-name="LOGOS CURVA"><circle class="cls-1" cx="9.71" cy="9.71" r="9.71"/><path class="cls-2" d="M16.1,14.37a7.45,7.45,0,0,1-2.89,2.35,9,9,0,0,1-3.63.66,7.49,7.49,0,0,1-3.1-.62,6.93,6.93,0,0,1-2.33-1.65,7.1,7.1,0,0,1-1.46-2.45,8.75,8.75,0,0,1-.51-3,8.33,8.33,0,0,1,.57-3.12A7.25,7.25,0,0,1,4.33,4.11,7.08,7.08,0,0,1,6.71,2.53a8,8,0,0,1,3-.55,7.52,7.52,0,0,1,2.81.52A6.18,6.18,0,0,1,14.74,4a6.81,6.81,0,0,1,1.41,2.42,9.59,9.59,0,0,1,.49,3.24v.78l-11.83,0a5.18,5.18,0,0,0,.45,1.8,4.89,4.89,0,0,0,1,1.5,4.69,4.69,0,0,0,1.47,1,4.45,4.45,0,0,0,1.84.38,5.8,5.8,0,0,0,2.7-.56,6,6,0,0,0,2-1.65ZM14,8.38a4.22,4.22,0,0,0-1.21-3A4.44,4.44,0,0,0,9.62,4.23,4.72,4.72,0,0,0,6.33,5.35a4.73,4.73,0,0,0-1.52,3Z"/></g></g></svg>