<svg xmlns="http://www.w3.org/2000/svg" xmlns:xlink="http://www.w3.org/1999/xlink" viewBox="0 0 18.74 18.74"><defs><style>.cls-1{fill:url(#linear-gradient);}.cls-2{fill:#fff;}</style><linearGradient id="linear-gradient" x1="14.87" y1="1.78" x2="3.87" y2="16.96" gradientUnits="userSpaceOnUse"><stop offset="0" stop-color="#4fc9ff"/><stop offset="0.64" stop-color="#1eadec"/><stop offset="1" stop-color="#009ce0"/></linearGradient></defs><title>Letters_E_BL2</title><g id="Capa_2" data-name="Capa 2"><g id="LOGOS_CURVA" data-name="LOGOS CURVA"><circle class="cls-1" cx="9.37" cy="9.37" r="9.37"/><path class="cls-2" d="M14.05,15.56a7.16,7.16,0,0,1-3.32,1.37,9,9,0,0,1-3.54-.41A7.24,7.24,0,0,1,4.5,15.08a6.69,6.69,0,0,1-1.68-2.17,6.83,6.83,0,0,1-.67-2.67,8.41,8.41,0,0,1,.37-2.92A8.24,8.24,0,0,1,3.92,4.6,7.29,7.29,0,0,1,6.05,2.79,6.8,6.8,0,0,1,8.7,2a7.46,7.46,0,0,1,2.93.33,7.22,7.22,0,0,1,2.45,1.27,5.9,5.9,0,0,1,1.61,2,6.57,6.57,0,0,1,.64,2.63,9.46,9.46,0,0,1-.46,3.13l-.22.72L4.73,8.76a5.31,5.31,0,0,0-.09,1.78,4.92,4.92,0,0,0,.52,1.68,4.47,4.47,0,0,0,1.07,1.35,4.35,4.35,0,0,0,1.6.87,5.63,5.63,0,0,0,2.64.24,5.91,5.91,0,0,0,2.29-1Zm-.24-6.11a4.09,4.09,0,0,0-.28-3.12A4.2,4.2,0,0,0,10.9,4.39a4.56,4.56,0,0,0-3.35.11A4.58,4.58,0,0,0,5.32,6.85Z"/></g></g></svg>