<svg xmlns="http://www.w3.org/2000/svg" xmlns:xlink="http://www.w3.org/1999/xlink" viewBox="0 0 16.96 16.96"><defs><style>.cls-1{fill:url(#linear-gradient);}.cls-2{fill:#231f20;}</style><linearGradient id="linear-gradient" x1="11.3" y1="2.83" x2="8.07" y2="9.29" gradientUnits="userSpaceOnUse"><stop offset="0" stop-color="#fddc63"/><stop offset="0.54" stop-color="#fcd732"/><stop offset="1" stop-color="#fcd204"/></linearGradient></defs><title>Letters_C</title><g id="Capa_2" data-name="Capa 2"><g id="LOGOS_CURVA" data-name="LOGOS CURVA"><circle class="cls-1" cx="8.48" cy="8.48" r="8.48"/><path class="cls-2" d="M11.78,5.16A4.2,4.2,0,0,0,10.38,4a4.13,4.13,0,0,0-1.67-.36A4.4,4.4,0,0,0,6.92,4a3.45,3.45,0,0,0-1.3,1,4.29,4.29,0,0,0-.77,1.45,5.83,5.83,0,0,0-.27,1.75,5,5,0,0,0,.3,1.76,4.61,4.61,0,0,0,.83,1.45,3.62,3.62,0,0,0,1.28,1,3.92,3.92,0,0,0,1.7.36,3.62,3.62,0,0,0,3.1-1.5l1.51,1.44a5.42,5.42,0,0,1-2.09,1.48,6.92,6.92,0,0,1-2.53.46,7.14,7.14,0,0,1-2.58-.48,5.64,5.64,0,0,1-2-1.34,6.13,6.13,0,0,1-1.27-2A6.92,6.92,0,0,1,2.4,8.18a6.84,6.84,0,0,1,.46-2.55,5.94,5.94,0,0,1,1.3-2,5.87,5.87,0,0,1,2-1.34,6.68,6.68,0,0,1,2.57-.47,6.85,6.85,0,0,1,2.56.48A5.5,5.5,0,0,1,13.4,3.73Z"/></g></g></svg>