<svg xmlns="http://www.w3.org/2000/svg" xmlns:xlink="http://www.w3.org/1999/xlink" viewBox="0 0 47.14 45.28"><defs><style>.cls-1{fill:url(#linear-gradient);}.cls-2{fill:url(#linear-gradient-2);}.cls-3{fill:#fcd204;}.cls-4{fill:url(#linear-gradient-3);}.cls-5{fill:#231f20;}.cls-6{fill:url(#linear-gradient-4);}</style><linearGradient id="linear-gradient" x1="26.52" y1="15.03" x2="19.43" y2="25.65" gradientUnits="userSpaceOnUse"><stop offset="0" stop-color="#fddc63"/><stop offset="0.54" stop-color="#fcd732"/><stop offset="1" stop-color="#fcd204"/></linearGradient><linearGradient id="linear-gradient-2" x1="24.54" y1="15.25" x2="16.3" y2="31.73" gradientUnits="userSpaceOnUse"><stop offset="0" stop-color="#333131"/><stop offset="1" stop-color="#030303"/></linearGradient><linearGradient id="linear-gradient-3" x1="41.69" y1="12.94" x2="38.57" y2="19.17" xlink:href="#linear-gradient"/><linearGradient id="linear-gradient-4" x1="22.27" y1="10.32" x2="31.23" y2="3.66" gradientUnits="userSpaceOnUse"><stop offset="0" stop-color="#373635"/><stop offset="0.21" stop-color="#2f2d2d"/><stop offset="0.56" stop-color="#43403f"/><stop offset="1" stop-color="#030303"/></linearGradient></defs><title>YESCAMP</title><g id="Capa_2" data-name="Capa 2"><g id="LOGOS_CURVA" data-name="LOGOS CURVA"><circle class="cls-1" cx="19.04" cy="26.24" r="19.03"/><circle class="cls-2" cx="19.04" cy="26.24" r="16.92"/><path class="cls-3" d="M16.46,31.61,7.17,15.44h4.94l6.5,11.37,6.53-11.37h4.94L20.75,31.61V43.9H16.46Z"/><circle class="cls-4" cx="38.97" cy="18.39" r="8.17"/><path class="cls-5" d="M42.19,15.22a3.87,3.87,0,0,0-1.35-1.09,3.72,3.72,0,0,0-1.61-.35,4.11,4.11,0,0,0-1.73.34,3.34,3.34,0,0,0-1.25.93,4.46,4.46,0,0,0-.74,1.4,5.44,5.44,0,0,0-.26,1.69,5,5,0,0,0,.28,1.7,4.64,4.64,0,0,0,.8,1.39,3.71,3.71,0,0,0,1.24.95,3.78,3.78,0,0,0,1.63.34,3.46,3.46,0,0,0,3-1.44l1.45,1.38a5.13,5.13,0,0,1-2,1.43,7,7,0,0,1-4.93,0,5.31,5.31,0,0,1-1.91-1.28,5.87,5.87,0,0,1-1.23-2,6.85,6.85,0,0,1-.43-2.49,6.64,6.64,0,0,1,.45-2.46,5.68,5.68,0,0,1,1.25-1.95,5.8,5.8,0,0,1,1.92-1.29A6.41,6.41,0,0,1,39.24,12a7,7,0,0,1,2.47.46,5.42,5.42,0,0,1,2,1.42Z"/><path class="cls-6" d="M25.23,0s2.53,0,5,3.19S36.79,6,39.4,5.2c0,0-3.72,5-9.5,4.14a12,12,0,0,0-9,2.48Z"/></g></g></svg>