<svg xmlns="http://www.w3.org/2000/svg" viewBox="0 0 186.67 130.08"><defs><style>.a{fill:#e6e6e6;}.b{fill:#fff;}.c{fill:#03c;}.d{fill:#ccc;}.e{fill:#3f3d56;}.f{fill:#a0616a;}.g{fill:#2f2e41;}.h{fill:#ffb8b8;}</style></defs><title>Recurso 2</title><path class="a" d="M165.35,105.21H10.19a4,4,0,0,1-4-4V5.54A2.93,2.93,0,0,1,9.12,2.62H166.36a3,3,0,0,1,3,3v95.63A4,4,0,0,1,165.35,105.21Z"/><path class="b" d="M159.69,100.28H15.08a3.73,3.73,0,0,1-3.84-3.6V13.37a2.75,2.75,0,0,1,2.84-2.67H160.63a2.81,2.81,0,0,1,2.9,2.71V96.68A3.73,3.73,0,0,1,159.69,100.28Z"/><path class="c" d="M169.29,6H6.13V4a4,4,0,0,1,4-4H165.28a4,4,0,0,1,4,4Z"/><circle class="b" cx="13.42" cy="3.03" r="1.04"/><circle class="b" cx="17.36" cy="3.03" r="1.04"/><circle class="b" cx="21.29" cy="3.03" r="1.04"/><path class="d" d="M83.11,89.53H32.78a4.23,4.23,0,0,1-4.23-4.24V24.49a3.17,3.17,0,0,1,3.16-3.17H84.12a3.22,3.22,0,0,1,3.22,3.22V85.29A4.24,4.24,0,0,1,83.11,89.53ZM31.71,21.8A2.68,2.68,0,0,0,29,24.49v60.8a3.75,3.75,0,0,0,3.75,3.76H83.11a3.75,3.75,0,0,0,3.75-3.76V24.54a2.74,2.74,0,0,0-2.74-2.74Z"/><path class="d" d="M36.66,85.29H79.23a3.88,3.88,0,0,0,3.88-3.87V29.47a3.88,3.88,0,0,0-3.88-3.87H36.66a3.88,3.88,0,0,0-3.88,3.87v52A3.88,3.88,0,0,0,36.66,85.29Z"/><path class="b" d="M69.69,36.2H46.2a1.58,1.58,0,0,1,0-3.15H69.69a1.58,1.58,0,0,1,0,3.15Z"/><path class="b" d="M69.69,70.34H46.2a1.58,1.58,0,0,1,0-3.15H69.69a1.58,1.58,0,0,1,0,3.15Z"/><path class="b" d="M69.69,77.84H46.2a1.57,1.57,0,1,1,0-3.14H69.69a1.57,1.57,0,1,1,0,3.14Z"/><circle class="b" cx="58.07" cy="49.88" r="9.44"/><path class="d" d="M118.81,41.23l-4.13.87a.23.23,0,0,0-.18.28.14.14,0,0,0,0,.06l.38.76L96.25,52.67a.24.24,0,0,0-.11.32.25.25,0,0,0,.33.11h0l18.65-9.47.39.76a.24.24,0,0,0,.32.11l0,0L119,41.64a.24.24,0,0,0,0-.34A.25.25,0,0,0,118.81,41.23Z"/><path class="d" d="M118.81,64.76l-4.13-.87a.23.23,0,0,1-.18-.28.08.08,0,0,1,0-.06l.38-.76L96.25,53.32a.25.25,0,0,1-.11-.33.24.24,0,0,1,.33-.1l18.65,9.47.39-.76a.24.24,0,0,1,.32-.11.1.1,0,0,1,0,0L119,64.34a.24.24,0,0,1-.21.42Z"/><path class="d" d="M132.41,46.61a5.33,5.33,0,1,1,5.32-5.32A5.32,5.32,0,0,1,132.41,46.61Zm0-10.16a4.84,4.84,0,1,0,4.84,4.84A4.84,4.84,0,0,0,132.41,36.45Z"/><path class="d" d="M132.41,70.1a5.33,5.33,0,1,1,5.32-5.33h0A5.33,5.33,0,0,1,132.41,70.1Zm0-10.17a4.85,4.85,0,1,0,4.84,4.84A4.85,4.85,0,0,0,132.41,59.93Z"/><path class="d" d="M132,43.91a.71.71,0,0,1-.42-.14h0l-1.61-1.23a.73.73,0,0,1-.13-1,.71.71,0,0,1,1-.13h0l1,.8L134.31,39a.72.72,0,0,1,1-.13h0v0a.71.71,0,0,1,.14,1l-2.9,3.77a.69.69,0,0,1-.57.28Z"/><path class="d" d="M130.09,67.08a.36.36,0,0,1,0-.51h0l4.11-4.11a.37.37,0,0,1,.52.52h0l-4.11,4.1a.36.36,0,0,1-.52,0Z"/><path class="d" d="M134.48,67.08a.36.36,0,0,0,0-.51h0l-4.11-4.11a.37.37,0,0,0-.52.52h0l4.11,4.1a.36.36,0,0,0,.52,0Z"/><path class="c" d="M141.6,53.19h0a.38.38,0,0,1-.22-.13l-2-2.65a.08.08,0,0,0-.12,0s0,0,0,0l-1,2.38a.32.32,0,0,1-.42.17.31.31,0,0,1-.18-.22l-2-7.84a.32.32,0,0,1,.23-.39.36.36,0,0,1,.25,0L143,48.73a.31.31,0,0,1,.11.44.31.31,0,0,1-.24.16l-2.56.29s-.08.05-.07.09,0,0,0,0l2,2.65a.32.32,0,0,1-.06.45l-.36.27A.31.31,0,0,1,141.6,53.19Z"/><path class="c" d="M152.87,59h-8.72a2.42,2.42,0,0,1,0-4.84h8.72a2.42,2.42,0,0,1,0,4.84Z"/><path class="e" d="M47.23,42.23,46.87,42a.33.33,0,0,1-.07-.45l2-2.66a.08.08,0,0,0,0-.11h0l-2.57-.3a.32.32,0,0,1-.28-.35.31.31,0,0,1,.16-.24L53,33.66a.32.32,0,0,1,.44.11.31.31,0,0,1,0,.25l-2,7.83a.32.32,0,0,1-.39.24.35.35,0,0,1-.22-.19l-1-2.37a.09.09,0,0,0-.11-.05l0,0-2,2.65a.3.3,0,0,1-.21.13h0A.35.35,0,0,1,47.23,42.23Z"/><path class="e" d="M33.74,45.65a2.44,2.44,0,0,1,2.42-2.43h8.72a2.43,2.43,0,0,1,0,4.85H36.16A2.43,2.43,0,0,1,33.74,45.65Z"/><path class="f" d="M163,89.54a2.43,2.43,0,0,0,.15-3.44,1.7,1.7,0,0,0-.31-.29l2.7-8.22-4.34,1.17-1.9,7.63a2.45,2.45,0,0,0,3.7,3.15Z"/><circle class="f" cx="176.28" cy="42.05" r="5.95"/><polygon class="f" points="170.67 127.2 167.7 127.2 166.29 115.75 170.67 115.75 170.67 127.2"/><path class="g" d="M171.43,130.08h-9.57V130a3.72,3.72,0,0,1,3.72-3.73h5.85Z"/><polygon class="f" points="180.84 127.2 177.87 127.2 176.46 115.75 180.84 115.75 180.84 127.2"/><path class="g" d="M181.6,130.08H172V130a3.73,3.73,0,0,1,3.73-3.73h5.85Z"/><path class="g" d="M170.62,123.85h-3.49a1,1,0,0,1-.83-.25,1.08,1.08,0,0,1-.39-.8l.41-38.59L182.41,84l-.94,38.46a1.08,1.08,0,0,1-1.09,1.07h-3.59a1.09,1.09,0,0,1-1.09-1l-.87-23.09a.11.11,0,0,0-.11-.11h0a.11.11,0,0,0-.12.11l-3,23.43A1.09,1.09,0,0,1,170.62,123.85Z"/><path class="e" d="M173.62,86.83a14.81,14.81,0,0,1-7.15-1.67,1.11,1.11,0,0,1-.58-.94l-.31-17.61-.45-3.77a11.46,11.46,0,0,1,5.71-11.33l.21-.12.58-1.35a.61.61,0,0,1,.57-.37l7.81.22a.61.61,0,0,1,.56.42l.36,1.08a11.44,11.44,0,0,1,5.6,11.67l-3.2,21.18a1.1,1.1,0,0,1-.68.85A26.8,26.8,0,0,1,173.62,86.83Z"/><path class="e" d="M163.34,84.44a.34.34,0,0,1-.14,0L160,83.66a.6.6,0,0,1-.45-.71L164,62.1l.9-5.43a3.14,3.14,0,0,1,4.91-2.07h0a3.15,3.15,0,0,1,1.29,3.21l-3.24,16-4,10.28A.59.59,0,0,1,163.34,84.44Z"/><path class="g" d="M180.91,47.73c-.55.31-2.73.52-2.88-.09v0a4.56,4.56,0,0,1,0-1.38,1.76,1.76,0,0,0-.33-1.31c-.59-.64-1.63-.3-2.48-.46a2.11,2.11,0,0,1-1.64-2.24,2.47,2.47,0,0,1,.06-.29A1.62,1.62,0,0,0,172.41,40a1.29,1.29,0,0,0-.44,0c-.86.05-1.79.31-2.5-.33a2.73,2.73,0,0,1-.44-2.47c.41-1.17,3-1.78,4.14-2.12a9.84,9.84,0,0,1,8.34,1.37,4.51,4.51,0,0,1,1.69,2,2.17,2.17,0,0,1-.53,2.41,4.45,4.45,0,0,1,1,4.31C183.36,46.2,181.73,47.26,180.91,47.73Z"/><path class="h" d="M15.33,80.65A2.43,2.43,0,0,1,13.15,78a3,3,0,0,1,.08-.43l-7.08-5L10.33,71l6.09,5a2.45,2.45,0,0,1-1.09,4.74Z"/><path class="e" d="M11.48,76.88,5.06,73.16a5.37,5.37,0,0,1-2.57-3.45,5.08,5.08,0,0,1,.77-4l5.32-7.84a2.65,2.65,0,0,1,4.59,2.64L9,69.21l4.21,3.7a1.11,1.11,0,0,1,.34,1l-.48,2.21a1.09,1.09,0,0,1-1.61.71Z"/><path class="h" d="M40.57,59.46a2.43,2.43,0,0,1-3.06,1.59,2,2,0,0,1-.4-.17L30.8,66.8,30,62.37l6.11-4.94a2.45,2.45,0,0,1,4.42,2Z"/><circle class="h" cx="14.71" cy="45.75" r="5.95"/><polygon class="h" points="32.22 127.1 35.06 126.26 33.15 114.88 28.95 116.13 32.22 127.1"/><path class="g" d="M31.22,126.39l5.6-1.67h0a3.73,3.73,0,0,1,4.63,2.51h0l0,.12-9.18,2.73Z"/><polygon class="h" points="1.05 126.96 4.02 126.96 5.43 115.51 2.5 115.51 1.05 126.96"/><path class="g" d="M.29,126H6.14a3.73,3.73,0,0,1,3.72,3.72h0v.13H.29Z"/><path class="g" d="M30.09,123,19,91a.36.36,0,0,0-.68,0L5.45,123a1.08,1.08,0,0,1-1.06.69L1,123.55a1.1,1.1,0,0,1-1-1.15,1.52,1.52,0,0,1,0-.21L12.17,74.36l12.17-1,.08.11c.07.1,6.58,9.69,6.58,26.24l4.18,22.73a1.1,1.1,0,0,1-.88,1.27l-.2,0h-3A1.11,1.11,0,0,1,30.09,123Z"/><path class="e" d="M7.83,63.51a7.56,7.56,0,0,1,1.3-7.3,7.45,7.45,0,0,1,6.8-2.72l.3,0h0a7.58,7.58,0,0,1,6.47,6.34L25,74.34l-13,1h-.1Z"/><path class="e" d="M26.75,69.38A5.12,5.12,0,0,1,23,67.59L16.9,60.48a2.67,2.67,0,0,1-.69-1.94,2.61,2.61,0,0,1,1-1.93,2.67,2.67,0,0,1,3.39.06l7.31,6.27,4.5-3.13a1.08,1.08,0,0,1,1.11-.08l2.16,1.09a1.09,1.09,0,0,1,.48,1.46,1.21,1.21,0,0,1-.21.28l-5.35,5.32A5.08,5.08,0,0,1,27,69.38Z"/><path class="g" d="M19.23,44.27a8,8,0,0,0,2.31.51,2.51,2.51,0,0,0,2.08-.88,2.15,2.15,0,0,0,.24-1.8,4.25,4.25,0,0,0-2.36-2.77,5,5,0,0,0-3.85-.13c-.45-1.36-2.13-2.1-3.69-2.14a8.54,8.54,0,0,0-7.42,4.7c-1.39,2.61-1.59,5.6-1.68,8.5a4.09,4.09,0,0,0,.31,2.08,4.82,4.82,0,0,0,2.7,1.87,51.54,51.54,0,0,0,8.64,2.43,3.07,3.07,0,0,1-1-4.2c.44-.65,1.16-1.2,1.27-2,.14-.92-.64-1.72-.93-2.6a2.64,2.64,0,0,1,.76-2.72,3.27,3.27,0,0,1,3-.71"/><circle class="c" cx="57.96" cy="49.81" r="6.87"/><path class="b" d="M62.45,53.14a5.21,5.21,0,0,1-2.05,1.65,6.45,6.45,0,0,1-2.57.44,5.25,5.25,0,0,1-2.19-.45A4.88,4.88,0,0,1,53,51.86a6,6,0,0,1-.34-2.13,5.82,5.82,0,0,1,.42-2.2,5.08,5.08,0,0,1,1.12-1.71,4.84,4.84,0,0,1,1.7-1.1A5.49,5.49,0,0,1,58,44.34a5.39,5.39,0,0,1,2,.39,4.34,4.34,0,0,1,1.55,1.08,4.81,4.81,0,0,1,1,1.71,6.87,6.87,0,0,1,.33,2.3v.55l-8.37-.09a3.75,3.75,0,0,0,.31,1.28,3.57,3.57,0,0,0,.71,1.07,3.16,3.16,0,0,0,1,.73,3.13,3.13,0,0,0,1.3.28,4.1,4.1,0,0,0,1.91-.38,4.25,4.25,0,0,0,1.41-1.16ZM61,48.89a3,3,0,0,0-.84-2.13,3.13,3.13,0,0,0-2.26-.83,3.2,3.2,0,0,0-3.41,2.89Z"/></svg>