<svg xmlns="http://www.w3.org/2000/svg" viewBox="0 0 171.3 132"><defs><style>.a{fill:#a0616a;}.b{fill:#3f3d56;}.c{fill:#575a89;}.d{opacity:0.1;isolation:isolate;}.e{fill:#2f2e41;}.f{fill:#f2f2f2;}.g,.i{fill:#03c;}.h{fill:#d0cde1;}.i{font-size:6.06px;font-family:MyriadPro-Regular, Myriad Pro;}</style></defs><title>Recurso 3</title><path class="a" d="M21.7,92.65a2.23,2.23,0,0,1-.14-3.15,2.44,2.44,0,0,1,.29-.27L19.37,81.7l4,1.08,1.75,7a2.25,2.25,0,0,1-3.4,2.89Z"/><path class="b" d="M21.59,88.42a.56.56,0,0,1-.52-.35l-3.63-9.4L14.47,64a2.87,2.87,0,0,1,1.18-2.94h0a2.89,2.89,0,0,1,4,.72A2.92,2.92,0,0,1,20.15,63L21,68,25.1,87.05a.56.56,0,0,1-.42.66l-3,.7Z"/><path class="a" d="M78.63,55.3s17.22.83,18.26,6.85-20.13.63-20.13.63Z"/><path class="c" d="M51.43,36.21S54.34,37,56.62,42a39.23,39.23,0,0,0,6.85,9.55L82,55.1l-3.12,9.34L61.19,62.15l-11-6.22Z"/><path class="d" d="M51.43,36.21S54.34,37,56.62,42a39.23,39.23,0,0,0,6.85,9.55L82,55.1l-3.12,9.34L61.19,62.15l-11-6.22Z"/><rect class="b" x="84.96" y="19.29" width="69.12" height="0.42"/><rect class="b" x="6.29" y="69.31" width="163.77" height="62.48"/><polygon class="a" points="24.04 26.66 25.9 38.49 38.77 39.11 37.32 21.68 24.04 26.66"/><path class="e" d="M10.44,105.64l-.62,26.15H29.33l2.9-10.38,2.29,10.38H54.86s.41-29.89-1.87-30.1S10.44,105.64,10.44,105.64Z"/><circle class="a" cx="28.19" cy="18.56" r="11.21"/><path class="c" d="M9.3,106.78l5.81-28.64-7.68-38,17.69-6.64,8.67-1,4.36-.81,3.11.81s12.46,3.11,13.08,5.4-2.49,21-2.49,21L48.94,74.19l6.44,27.61s-26.78,9.13-45.67,5Z"/><polygon class="d" points="17.08 50.63 17.08 58.31 41.57 58.35 18.33 55.82 17.08 50.63"/><polygon class="d" points="14.98 71.84 45.73 67.45 14.98 76.16 14.98 71.84"/><polygon class="d" points="63.78 51.67 60.49 63.55 66.07 52.06 63.78 51.67"/><path class="e" d="M37.41,7.32l2.06-.82s-4.31-4.75-10.3-4.33L30.85.31S26.73-1.34,23,3a36.5,36.5,0,0,0-5.67,8h-2.2L16,13,12.8,15l3.31-.37A11.2,11.2,0,0,0,16,18a4.37,4.37,0,0,0,1.6,2.85h0s2.55-5.3,2.55-6.12v2.06s2.06-1.85,2.06-3.09l1.13,1.44.56-2.27,6.93,2.27-1.12-1.85,4.31.61-1.69-2.27s4.87,2.69,5.06,5A11,11,0,0,0,39,21S42.84,10.42,37.41,7.32Z"/><rect class="f" x="48.42" y="48.76" width="79.71" height="83.24"/><rect class="g" x="56.73" y="67.03" width="58.95" height="8.3"/><rect class="g" x="66.86" y="89.03" width="38.61" height="4.15"/><rect class="g" x="66.94" y="96.3" width="38.61" height="4.15"/><rect class="g" x="67.01" y="103.56" width="19.3" height="4.15"/><rect class="g" x="107.79" y="124.53" width="8.93" height="4.15"/><path class="a" d="M42.72,59.25s18.05-2.7,20.75,1.24-19.09,6-19.09,6Z"/><path class="c" d="M9.51,39.94H8.2a2.1,2.1,0,0,0-1.44.57,17.51,17.51,0,0,0-4.93,9.4C.37,57-2.12,70.66,3.49,71.7s42.34-3.94,42.34-3.94l-2.7-9.55-26.57.21a25.65,25.65,0,0,0-.41-7.48C15.32,48,9.51,39.94,9.51,39.94Z"/><circle class="h" cx="84.96" cy="19.5" r="8.51"/><circle class="g" cx="123.77" cy="19.5" r="8.51"/><path class="b" d="M162.59,28.22a8.72,8.72,0,1,1,8.71-8.72A8.72,8.72,0,0,1,162.59,28.22Zm0-17a8.3,8.3,0,1,0,8.3,8.3,8.3,8.3,0,0,0-8.3-8.3Z"/><polygon class="g" points="83.78 23.12 80.09 18.2 81.42 17.2 83.96 20.59 95.64 8.92 96.81 10.09 83.78 23.12"/><text class="i" transform="translate(88.52 128.82)">1.000$</text></svg>