<svg xmlns="http://www.w3.org/2000/svg" viewBox="0 0 128.66 123"><defs><style>.a{fill:none;stroke:#008e92;stroke-miterlimit:10;stroke-width:5px;}.b{fill:#008e92;}.c{fill:#3f2e05;}</style></defs><title>Sec. fases - Icon Convocatoria</title><circle class="a" cx="67.16" cy="61.5" r="59"/><circle class="b" cx="11.86" cy="43.49" r="11.86"/><path class="c" d="M67.16,33.07A28.43,28.43,0,1,0,95.59,61.5,28.43,28.43,0,0,0,67.16,33.07Zm0,52.48a24,24,0,1,1,24-24A24.05,24.05,0,0,1,67.16,85.55Z"/><path class="c" d="M98.87,60.41H76.93a9.82,9.82,0,0,0-8.68-8.68V29.79a1.09,1.09,0,1,0-2.18,0V51.73a9.82,9.82,0,0,0-8.68,8.68H35.45a1.09,1.09,0,0,0,0,2.18H57.39a9.82,9.82,0,0,0,8.68,8.68V93.21a1.09,1.09,0,1,0,2.18,0V71.27a9.82,9.82,0,0,0,8.68-8.68H98.87a1.09,1.09,0,0,0,0-2.18Zm-24.14,0H68.25V53.93A7.67,7.67,0,0,1,74.73,60.41Zm-8.66-6.48v6.48H59.59A7.66,7.66,0,0,1,66.07,53.93Zm-6.48,8.66h6.48v6.48A7.66,7.66,0,0,1,59.59,62.59Zm8.66,6.48V62.59h6.47A7.65,7.65,0,0,1,68.25,69.07Z"/></svg>