<svg xmlns="http://www.w3.org/2000/svg" viewBox="0 0 123 126.25"><defs><style>.a{fill:none;stroke:#008e92;stroke-miterlimit:10;stroke-width:5px;}.b{fill:#008e92;}.c{fill:#3f2e05;}</style></defs><title>Sec. fases - Ico Ciclo de webinars</title><circle class="a" cx="61.5" cy="64.75" r="59"/><circle class="b" cx="37.33" cy="11.86" r="11.86"/><path class="c" d="M41.51,67.84a1.15,1.15,0,0,1-1.15-1.15V65.14h-3.9a1.16,1.16,0,0,1,0-2.31h3.9V61.28a1.16,1.16,0,1,1,2.31,0v1.55H87a1.16,1.16,0,0,1,0,2.31H42.67v1.55A1.16,1.16,0,0,1,41.51,67.84Z"/><path class="c" d="M87,63.23H42.27V61.28a.76.76,0,0,0-.76-.76.75.75,0,0,0-.75.76h0v1.95h-4.3a.74.74,0,0,0-.75.75.75.75,0,0,0,.75.76h4.3v2a.75.75,0,0,0,.75.75.76.76,0,0,0,.76-.75v-2H87a.76.76,0,0,0,.75-.76A.75.75,0,0,0,87,63.23Z"/><path class="c" d="M58.18,57.44A1.45,1.45,0,0,1,56.72,56V43.77a1.43,1.43,0,0,1,.2-.73,1.46,1.46,0,0,1,1.27-.73,1.52,1.52,0,0,1,.72.19l10.58,6.11a1.47,1.47,0,0,1,.54.54,1.46,1.46,0,0,1,.14,1.1,1.42,1.42,0,0,1-.68.89l-1.7,1a1.19,1.19,0,0,1-.58.15,1.16,1.16,0,0,1-1-.58,1.13,1.13,0,0,1-.1-.88,1.15,1.15,0,0,1,.54-.7l.42-.24-8-4.64v9.27l1.83-1a1.13,1.13,0,0,1,.57-.15A1.15,1.15,0,0,1,62,55.46l-3.09,1.79A1.48,1.48,0,0,1,58.18,57.44Z"/><path class="c" d="M57.65,56.9a1.08,1.08,0,0,0,1.07,0l3.09-1.78a.76.76,0,0,0,.28-1,.75.75,0,0,0-1-.27l-2.43,1.4V44.55l9.23,5.33-1,.59a.75.75,0,1,0,.74,1.31h0l1.7-1a1.07,1.07,0,0,0,.39-1.45,1,1,0,0,0-.39-.39L58.72,42.85a1.06,1.06,0,0,0-1.45.39,1,1,0,0,0-.15.53V56A1.08,1.08,0,0,0,57.65,56.9Z"/><path class="c" d="M63.94,54.17a1.16,1.16,0,0,1-1-.58,1.17,1.17,0,0,1-.11-.88,1.2,1.2,0,0,1,.53-.7l1.06-.6a1.14,1.14,0,0,1,.57-.16,1.16,1.16,0,0,1,1,.58,1.19,1.19,0,0,1,.12.87,1.17,1.17,0,0,1-.54.71l-1,.6a1.1,1.1,0,0,1-.58.16Z"/><path class="c" d="M64.62,51.75l-1.06.61a.76.76,0,0,0,.76,1.31l1.05-.61a.75.75,0,0,0-.75-1.31Z"/><path class="c" d="M39.9,84.83a6.11,6.11,0,0,1-6.11-6.12V75.37a4.24,4.24,0,0,1-4.06-4.22V35.83A4.22,4.22,0,0,1,34,31.61H89.47a4.22,4.22,0,0,1,4.22,4.22V71.15a4.23,4.23,0,0,1-2.21,3.71,4,4,0,0,1-3.42,3.67A6.14,6.14,0,0,1,82,84.21h0a6.11,6.11,0,0,1-6.12-6.12V75.37h-8.4v3.34a6.12,6.12,0,1,1-12.24,0V75.37H46v3.34a6.13,6.13,0,0,1-6.12,6.12Zm17.61-6.12a3.81,3.81,0,0,0,7.62,0V74.82a4.66,4.66,0,0,1-3.82-.54,2.27,2.27,0,0,0-1.24-.36,1.72,1.72,0,0,0-.32,0l-2.24.31Zm-21.41,0a3.81,3.81,0,0,0,3.8,3.81,3.81,3.81,0,0,0,3.81-3.81V75.79a3.19,3.19,0,0,1-2-2.1H39.89A3.45,3.45,0,0,1,36.45,77H36.1Zm42.05-.62a3.81,3.81,0,1,0,7.61,0V76.85a4,4,0,0,1-2.06-1.77,9.75,9.75,0,0,1-5.55,1.81Zm9.65-5.28a5.84,5.84,0,0,1,.27,1.81v1.53a1.75,1.75,0,0,0-.27-3.34Zm-51.35,1.9a1.14,1.14,0,0,0,1.13-1.13,2.21,2.21,0,0,1,2.2-2.2h4.41a1.82,1.82,0,0,0-1.42-.67,5.43,5.43,0,0,1-1.59-.24,5.23,5.23,0,0,0-1.28-.27A3.83,3.83,0,0,0,36.09,74v.71ZM82,70.82a3.81,3.81,0,0,0-3.81,3.76,7.33,7.33,0,0,0,5.11-2.15,1.11,1.11,0,0,1,.43-.28,1.32,1.32,0,0,1,.39-.06,1.16,1.16,0,0,1,1.09.76,4.91,4.91,0,0,0,.53,1.05A3.82,3.82,0,0,0,82,70.82Zm-5.91,2.24a6.12,6.12,0,0,1,10.39-2.6h1a4.06,4.06,0,0,1,3.47,2,1.87,1.87,0,0,0,.48-1.26V35.83a1.91,1.91,0,0,0-1.91-1.91H34A1.91,1.91,0,0,0,32,35.83V71.15a1.92,1.92,0,0,0,1.82,1.91,6.09,6.09,0,0,1,6-5.17,7,7,0,0,1,2,.37,3.22,3.22,0,0,0,.93.14,4.14,4.14,0,0,1,4.13,4.13,1.19,1.19,0,0,1-.13.53H55.2V69a1.15,1.15,0,0,1,1.16-1.15h5a6.09,6.09,0,0,1,6,5.17Zm-16-1.45a4.56,4.56,0,0,1,2.49.73,2.27,2.27,0,0,0,1.24.36,2.12,2.12,0,0,0,.79-.14l.22-.08a3.79,3.79,0,0,0-3.49-2.28H57.51v1.72l1.92-.27A4.68,4.68,0,0,1,60.07,71.61Z"/><path class="c" d="M89.47,32H34a3.82,3.82,0,0,0-3.82,3.82V71.15A3.82,3.82,0,0,0,33.94,75h.25v3.74a5.72,5.72,0,0,0,11.43,0h0V75h10v3.74a5.72,5.72,0,0,0,11.44,0V75h9.2v3.12a5.72,5.72,0,0,0,11.43.08,3.65,3.65,0,0,0,3.42-3.56,3.83,3.83,0,0,0,2.2-3.46V35.83A3.82,3.82,0,0,0,89.47,32ZM44.11,78.71a4.21,4.21,0,1,1-8.41,0h0V76.62h.75a3,3,0,0,0,3-3,.29.29,0,0,1,.29-.29h2.29a2.84,2.84,0,0,0,2,2.21Zm-4.33-6.93a1.8,1.8,0,0,0-1.8,1.8,1.52,1.52,0,0,1-1.53,1.53H35.7V74a4.2,4.2,0,0,1,4.2-4.2,5.54,5.54,0,0,1,1.4.29,5.23,5.23,0,0,0,1.47.22,2.24,2.24,0,0,1,2.1,1.47Zm4.33,2.08a1.37,1.37,0,0,1-.47-.57h.47Zm21.42,4.85a4.21,4.21,0,1,1-8.42,0V73.9l2.59-.36a2.7,2.7,0,0,1,1.82.4,4.18,4.18,0,0,0,3.73.41l.28-.1Zm-8.42-6.33V69.8h4.21a4.2,4.2,0,0,1,4,2.92l-.59.22a2.73,2.73,0,0,1-2.39-.26,4.14,4.14,0,0,0-2.85-.63Zm29.05,5.71a4.21,4.21,0,1,1-8.41,0v-1.6h.33a9.24,9.24,0,0,0,5.73-2,3.67,3.67,0,0,0,2.35,2Zm0-3.14a4.25,4.25,0,0,1-1.37-2,.75.75,0,0,0-1-.46.79.79,0,0,0-.29.18A7.72,7.72,0,0,1,78.08,75h-.33v-.36a4.21,4.21,0,0,1,8.41,0Zm1.51,1.71v-2a5.46,5.46,0,0,0-.46-2.25h.22a2.15,2.15,0,0,1,.24,4.29Zm4.11-5.51a2.29,2.29,0,0,1-1,1.9,3.66,3.66,0,0,0-3.35-2.19H86.26a5.72,5.72,0,0,0-9.9,2.6H67a5.72,5.72,0,0,0-5.69-5.17h-5a.75.75,0,0,0-.76.75v4.42h-10v-.17h.14a.76.76,0,0,0,.75-.76,3.73,3.73,0,0,0-3.74-3.73,3.57,3.57,0,0,1-1-.16,7,7,0,0,0-1.84-.35,5.72,5.72,0,0,0-5.69,5.17H34a2.31,2.31,0,0,1-2.31-2.31V35.83A2.3,2.3,0,0,1,34,33.52H89.47a2.3,2.3,0,0,1,2.31,2.31Z"/><path class="c" d="M54.5,95.71a1.16,1.16,0,0,1-1.16-1.16V89.68a5,5,0,0,1,4.93-4.93h6.1a5,5,0,0,1,4.93,4.93v4.87a1.16,1.16,0,0,1-1.16,1.16ZM67,93.4V89.68a2.64,2.64,0,0,0-2.62-2.62h-6.1a2.64,2.64,0,0,0-2.62,2.62V93.4Z"/><path class="c" d="M64.37,85.15h-6.1a4.55,4.55,0,0,0-4.53,4.53v4.87a.76.76,0,0,0,.76.76H68.14a.76.76,0,0,0,.76-.76V89.68A4.55,4.55,0,0,0,64.37,85.15Zm3,8.65H55.25V89.68a3,3,0,0,1,3-3h6.1a3,3,0,0,1,3,3Z"/><path class="c" d="M63.8,91.13a1.16,1.16,0,0,1,0-2.31h1.36a1.16,1.16,0,1,1,0,2.31Z"/><path class="c" d="M65.16,89.22H63.8a.76.76,0,0,0,0,1.51h1.36a.76.76,0,1,0,0-1.51Z"/><path class="c" d="M33.08,95.71a1.15,1.15,0,0,1-1.15-1.16V89.68a4.94,4.94,0,0,1,4.92-4.93H43a5,5,0,0,1,4.93,4.93v4.87a1.16,1.16,0,0,1-1.16,1.16ZM45.57,93.4V89.68A2.63,2.63,0,0,0,43,87.06H36.86a2.62,2.62,0,0,0-2.62,2.62V93.4Z"/><path class="c" d="M43,85.15h-6.1a4.53,4.53,0,0,0-4.52,4.53v4.87a.75.75,0,0,0,.75.76H46.72a.76.76,0,0,0,.76-.76V89.68A4.55,4.55,0,0,0,43,85.15Zm3,8.65H33.83V89.68a3,3,0,0,1,3-3H43a3,3,0,0,1,3,3Z"/><path class="c" d="M42.38,91.13a1.16,1.16,0,0,1,0-2.31h1.36a1.16,1.16,0,1,1,0,2.31Z"/><path class="c" d="M43.74,89.22H42.38a.76.76,0,0,0,0,1.51h1.36a.76.76,0,1,0,0-1.51Z"/><path class="c" d="M75.14,95.72A1.16,1.16,0,0,1,74,94.56v-5.5a5,5,0,0,1,4.93-4.93H85a4.94,4.94,0,0,1,4.92,4.93v5.5a1.15,1.15,0,0,1-1.15,1.16Zm12.49-2.31V89.06A2.64,2.64,0,0,0,85,86.44H78.91a2.64,2.64,0,0,0-2.62,2.62v4.35Z"/><path class="c" d="M85,84.53h-6.1a4.55,4.55,0,0,0-4.53,4.53v5.5a.76.76,0,0,0,.76.76H88.78a.76.76,0,0,0,.76-.76v-5.5A4.55,4.55,0,0,0,85,84.53Zm3,9.28H75.89V89.06a3,3,0,0,1,3-3H85a3,3,0,0,1,3,3Z"/><path class="c" d="M84.44,90.51a1.16,1.16,0,1,1,0-2.31H85.8a1.16,1.16,0,1,1,0,2.31Z"/><path class="c" d="M85.8,88.6H84.44a.76.76,0,1,0,0,1.51H85.8a.76.76,0,1,0,0-1.51Z"/></svg>