<svg xmlns="http://www.w3.org/2000/svg" viewBox="0 0 123 130.27"><defs><style>.a{fill:none;stroke:#008e92;stroke-miterlimit:10;stroke-width:5px;}.b{fill:#008e92;}.c{fill:#3f2e05;}</style></defs><title>Sec. fases - Ico Challenge</title><circle class="a" cx="61.5" cy="68.77" r="59"/><circle class="b" cx="75.29" cy="11.86" r="11.86"/><path class="c" d="M34.2,56.65c.39-.91.83-1.8,1.3-2.65a31,31,0,0,1,2-3.11,1.12,1.12,0,1,1,1.82,1.32,27.38,27.38,0,0,0-1.83,2.88q-.44.77-.81,1.56h4.11a1.12,1.12,0,0,1,1.12,1.12v9.86a7,7,0,0,1-.63,2.93,9.85,9.85,0,0,1,3,1.86A5,5,0,0,1,46,76.06v5.49a1.14,1.14,0,0,1-1.13,1.13h-7c.37.63.76,1.25,1.18,1.85a27.84,27.84,0,0,0,2.55,3.15,1.12,1.12,0,0,1-1.64,1.54,29.77,29.77,0,0,1-4.67-6.54H24.61a1.14,1.14,0,0,1-1.13-1.13V76.06a5,5,0,0,1,1.72-3.62,9.8,9.8,0,0,1,3-1.88,7,7,0,0,1-.63-2.93V61.16a4.51,4.51,0,0,1,4.51-4.51ZM94,65.93l-5.94-2-3.89,1.91v1.8a4.92,4.92,0,0,0,9.83,0Zm-9.83-2.6,3.25-1.59a1.13,1.13,0,0,1,.92-.1L94,63.56v-2.4a2.29,2.29,0,0,0-2.26-2.26H86.46a2.21,2.21,0,0,0-1.59.67,2.24,2.24,0,0,0-.66,1.59v2.17ZM29.81,62h9.83V58.9H32.07a2.23,2.23,0,0,0-1.6.67,2.28,2.28,0,0,0-.66,1.59V62Zm9.83,2.25H29.81v3.4a4.92,4.92,0,0,0,9.83,0v-3.4Zm27.2,22.28a7.87,7.87,0,0,1-6.41-1.72,5.81,5.81,0,0,1-3.42.82v2.73a5,5,0,0,0,4.91,4.92,4.93,4.93,0,0,0,4.92-4.92ZM57,83.36a3.63,3.63,0,0,0,2.79-.85h0l0,0a1.11,1.11,0,0,1,1.58.11,5.59,5.59,0,0,0,5.43,1.64V81.87a2.26,2.26,0,0,0-.66-1.6,2.29,2.29,0,0,0-1.6-.66H59.26a2.3,2.3,0,0,0-1.59.66,2.26,2.26,0,0,0-.66,1.6v1.49ZM40,72.48a7.15,7.15,0,0,1-10.54,0,8.15,8.15,0,0,0-2.71,1.58,2.86,2.86,0,0,0-1,2v4.37h18V76.06a2.85,2.85,0,0,0-1-2A8,8,0,0,0,40,72.48Zm56.29-4.85a7.13,7.13,0,0,1-.63,2.93,9.92,9.92,0,0,1,3,1.87,5,5,0,0,1,1.72,3.63v5.49a1.13,1.13,0,0,1-1.12,1.13H88.54a31.78,31.78,0,0,1-4.72,6.46,1.1,1.1,0,0,1-1.58,0,1.12,1.12,0,0,1-.06-1.59,28.59,28.59,0,0,0,2.59-3.14c.41-.58.8-1.17,1.17-1.78H79a1.14,1.14,0,0,1-1.13-1.13V76.06a5,5,0,0,1,1.74-3.64,9.64,9.64,0,0,1,3-1.85A7.06,7.06,0,0,1,82,67.63V61.16a4.52,4.52,0,0,1,4.51-4.51h.74c-.24-.52-.51-1-.79-1.53a27.25,27.25,0,0,0-1.87-2.92,1.13,1.13,0,0,1,1.82-1.33,31.29,31.29,0,0,1,2,3.16,25.45,25.45,0,0,1,1.29,2.62h2.12a4.51,4.51,0,0,1,4.51,4.51v6.47Zm-1.9,4.85a7.15,7.15,0,0,1-10.54,0,7.81,7.81,0,0,0-2.69,1.58,2.81,2.81,0,0,0-1,2v4.37h18V76.06a2.83,2.83,0,0,0-1-2,8,8,0,0,0-2.7-1.58ZM69.09,88.34a7,7,0,0,1-.63,2.93,10.11,10.11,0,0,1,3,1.87,6,6,0,0,1,1,1.29,25.76,25.76,0,0,0,2.64-1.29,29,29,0,0,0,3.41-2.24,1.12,1.12,0,1,1,1.36,1.78,30.33,30.33,0,0,1-3.68,2.42,27.77,27.77,0,0,1-3.06,1.48,1.21,1.21,0,0,1,0,.19v5.49A1.14,1.14,0,0,1,72,103.39H51.81a1.14,1.14,0,0,1-1.13-1.13V96.77c0-.06,0-.12,0-.18a30.91,30.91,0,0,1-3.13-1.48,29.45,29.45,0,0,1-3.67-2.37A1.12,1.12,0,1,1,45.23,91a27.48,27.48,0,0,0,3.41,2.19,25.89,25.89,0,0,0,2.71,1.29,6.1,6.1,0,0,1,1-1.27,9.74,9.74,0,0,1,3-1.88,7,7,0,0,1-.63-2.94V81.87a4.51,4.51,0,0,1,4.5-4.51h5.32a4.51,4.51,0,0,1,4.51,4.51v6.47Zm-1.9,4.85a7.15,7.15,0,0,1-10.54,0,7.83,7.83,0,0,0-2.71,1.59,2.82,2.82,0,0,0-1,2v4.36h18V96.77a2.8,2.8,0,0,0-1-2,7.83,7.83,0,0,0-2.71-1.59Z"/><path class="c" d="M81.24,29.18H71.47a2.1,2.1,0,0,0-2.1,2.1v1.39a2.8,2.8,0,0,0,0,5.59v3.49H75v-1.4a1.4,1.4,0,0,1,2.79,0v1.4h3.49a2.1,2.1,0,0,0,2.1-2.09V31.28A2.1,2.1,0,0,0,81.24,29.18Zm.7,10.48a.69.69,0,0,1-.7.69H79.15a2.8,2.8,0,0,0-5.59,0H70.77V36.86h-1.4a1.4,1.4,0,0,1,0-2.79h1.4V31.28a.7.7,0,0,1,.7-.7h9.77a.7.7,0,0,1,.7.7Z"/><path class="c" d="M69.37,43.15a2.79,2.79,0,0,0-2.79,2.79H63.79V42.45h-1.4a1.4,1.4,0,1,1,0-2.79h1.4V33.37H61.91A13.49,13.49,0,0,0,53.37,57.3l2.73,2.24v1.89a2.08,2.08,0,0,0,.16,4,2.05,2.05,0,0,0-.16.78,2.1,2.1,0,0,0,1.44,2,4.88,4.88,0,0,0,9.7,0,2.09,2.09,0,0,0,1.43-2,2,2,0,0,0-.15-.78,2.08,2.08,0,0,0,.15-4V59.54l2.74-2.24a13.45,13.45,0,0,0,4.94-10.44v-.92H72.16A2.79,2.79,0,0,0,69.37,43.15Zm-7.46-8.38h.48v3.49a2.8,2.8,0,0,0,0,5.59v2.09H59.6a2.8,2.8,0,0,0-5.59,0H49.85A12.11,12.11,0,0,1,61.91,34.77ZM54.25,56.22a12,12,0,0,1-4.42-8.88h5.58v-1.4a1.4,1.4,0,1,1,2.79,0v1.4h4.19v2.79a2.8,2.8,0,0,0,0,5.59V61.3H57.5V58.88Zm8.14,14.86A3.49,3.49,0,0,1,59,68.29h6.84A3.5,3.5,0,0,1,62.39,71.08Zm4.19-4.19H58.2a.7.7,0,1,1,0-1.4h8.38a.7.7,0,1,1,0,1.4ZM68,64.1H56.8a.7.7,0,0,1,0-1.4H68a.7.7,0,0,1,0,1.4Zm2.54-7.88-3.24,2.66V61.3H63.79v-7h-1.4a1.4,1.4,0,1,1,0-2.79h1.4V47.34H68v-1.4a1.4,1.4,0,1,1,2.79,0v1.4H75A12,12,0,0,1,70.52,56.22Z"/></svg>