<svg xmlns="http://www.w3.org/2000/svg" viewBox="0 0 123 123"><defs><style>.a{fill:none;stroke:#008e92;stroke-miterlimit:10;stroke-width:5px;}.b{fill:#008e92;}.c{fill:#3f2e05;}</style></defs><title>Sec. fases - Ico Workshop</title><circle class="a" cx="61.5" cy="61.5" r="59"/><circle class="b" cx="109.08" cy="26.59" r="11.86"/><path class="c" d="M48.74,34.32a6.69,6.69,0,0,0-1.71.22,9.11,9.11,0,0,0-15.38,6.61,1.14,1.14,0,0,0,1.14,1.14H54.43a1.14,1.14,0,0,0,1.14-1.14A6.83,6.83,0,0,0,48.74,34.32ZM34,40h0A6.83,6.83,0,0,1,45.86,36.6a1.12,1.12,0,0,0,1.25.31,4.54,4.54,0,0,1,6,3.1Z"/><rect class="c" x="48.74" y="44.56" width="2.28" height="2.28" rx="1.14" ry="1.14"/><rect class="c" x="53.29" y="44.56" width="2.28" height="2.28" rx="1.14" ry="1.14"/><rect class="c" x="57.85" y="44.56" width="2.28" height="2.28" rx="1.14" ry="1.14"/><path class="c" d="M85.18,65.85a3.41,3.41,0,0,0-2.85-3.37l-3.77-.62.72-3.63H88.6v6.83h2.28V43l8.48-4.24a1.15,1.15,0,0,0,.63-1,1.16,1.16,0,0,0-.63-1l-9.11-4.55a1.14,1.14,0,0,0-1.65,1V51.4H80a6.83,6.83,0,1,0-9.58.57L60.62,60.7l-6.37,3.18L51,63.34a6.83,6.83,0,1,0-9,.09s0,0-.05.09l-3.53,9.17a5.66,5.66,0,0,0,.48,5.06,6,6,0,0,0,.61.8l-3.1,5.17L32,88.18a1.13,1.13,0,0,0,0,1.61L35.4,93.2a1.13,1.13,0,0,0,1.62,0l5.69-5.69a1.24,1.24,0,0,0,.14-.18l4.38-6.56,1.51.14v4.65H47.6a1.14,1.14,0,0,0-1.14,1.14v8.21L32.54,98.12a1.14,1.14,0,0,0-.89,1.11v1.14h2.28v-.23l13.92-3.22a1.14,1.14,0,0,0,.89-1.11v-8H65.82a1.12,1.12,0,0,0,.85-.38l9.91-11H100V74.18H85.18ZM90.88,35l5.42,2.71-5.42,2.71ZM70.38,46.84a4.56,4.56,0,1,1,4.55,4.56A4.55,4.55,0,0,1,70.38,46.84ZM68.77,56.5,67,61l-3.22,2.43-1.06-1.59ZM41.9,58.23a4.56,4.56,0,1,1,4.56,4.56A4.56,4.56,0,0,1,41.9,58.23ZM41,86l-4.81,4.81L34.4,89l3.75-3.75a.87.87,0,0,0,.17-.22l3.06-5.09a5.87,5.87,0,0,0,1.87.49l1.39.13Zm13.41-.42H51V79.87a1.13,1.13,0,0,0-1-1.13l-6.52-.6a3.41,3.41,0,0,1-2.6-1.6,3.38,3.38,0,0,1-.28-3l3.25-8.45H47.5l6.74,1.13a1.12,1.12,0,0,0,.7-.11l5.93-3,1.05,1.56-6.65,3.8H49.88a1.15,1.15,0,0,0-1.11.86L47.63,73.9a1.15,1.15,0,0,0,.92,1.4l4.93.82a1.13,1.13,0,0,1,1,1.12v8.32ZM77.21,74.18H76.07a1.15,1.15,0,0,0-.85.37l-9.91,11h-8.6V77.24a3.41,3.41,0,0,0-2.86-3.37l-3.71-.62.63-2.49h4.8a1.16,1.16,0,0,0,.57-.15l8-4.56s0,0,0,0l.08,0,2.38-1.79a5.68,5.68,0,0,0,.79,2.18,5.35,5.35,0,0,0,.62.8l-3.1,5.17-4.46,4.46a1.13,1.13,0,0,0,0,1.61l3.42,3.41a1.1,1.1,0,0,0,.8.34,1.14,1.14,0,0,0,.81-.34l5.69-5.69a1.15,1.15,0,0,0,.14-.17l4.38-6.57,1.51.14Zm-7.36-5.65a5.87,5.87,0,0,0,1.87.49l1.4.13-3.63,5.44L64.68,79.4l-1.8-1.81,3.75-3.75a1.28,1.28,0,0,0,.17-.22ZM82.9,74.18H79.49v-5.7a1.13,1.13,0,0,0-1-1.13l-6.52-.6a3.4,3.4,0,0,1-2.88-4.62l3.25-8.45H88.6V56H78.35a1.15,1.15,0,0,0-1.12.92l-1.14,5.69a1.15,1.15,0,0,0,.18.87,1.14,1.14,0,0,0,.75.48l4.93.82a1.14,1.14,0,0,1,1,1.12Z"/></svg>