<svg xmlns="http://www.w3.org/2000/svg" viewBox="0 0 123 123"><defs><style>.a{fill:none;stroke:#008e92;stroke-miterlimit:10;stroke-width:5px;}.b{fill:#008e92;}.c{fill:#3f2e05;}</style></defs><title>Sec. fases - Ico capital semilla</title><circle class="a" cx="61.5" cy="61.5" r="59"/><circle class="b" cx="106.09" cy="99.87" r="11.86"/><path class="c" d="M83.88,33.26a1.76,1.76,0,0,0-1.76-1.76A22.45,22.45,0,0,0,61.45,45.24,22.45,22.45,0,0,0,40.78,31.5,1.76,1.76,0,0,0,39,33.26,22.46,22.46,0,0,0,59.7,55.62V67.09a1.76,1.76,0,0,0,3.51,0V55.62A22.45,22.45,0,0,0,83.88,33.26ZM42.62,35.1a19,19,0,0,1,17,17A19,19,0,0,1,42.62,35.1Zm20.67,17a19,19,0,0,1,17-17A19,19,0,0,1,63.29,52.09Z"/><path class="c" d="M50.47,66.79a5.73,5.73,0,0,0-7.94-.17V59.57a9.28,9.28,0,0,0-9.27-9.27h0a1.75,1.75,0,0,0-1.76,1.75V74.61A1.77,1.77,0,0,0,32,75.85L42.78,86.61v3a1.76,1.76,0,0,0,1.76,1.76H57.69a1.76,1.76,0,0,0,1.76-1.76v-10A9.24,9.24,0,0,0,56.73,73Zm5.47,21.1H46.29v-2a1.8,1.8,0,0,0-.51-1.24L35,73.88V54.08a5.79,5.79,0,0,1,4,5.49V70.85a1.77,1.77,0,0,0,.52,1.24l7.51,7.52a1.76,1.76,0,0,0,2.48,0,1.74,1.74,0,0,0,0-2.48l-4.69-4.7A2.23,2.23,0,1,1,48,69.27l6.26,6.26a5.69,5.69,0,0,1,1.69,4.07v8.29Z"/><path class="c" d="M89.64,50.3h0a9.28,9.28,0,0,0-9.27,9.27v7.05a5.73,5.73,0,0,0-7.94.17L66.17,73a9.24,9.24,0,0,0-2.72,6.56v10a1.76,1.76,0,0,0,1.76,1.76H78.37a1.76,1.76,0,0,0,1.75-1.76v-3L90.88,75.85a1.77,1.77,0,0,0,.52-1.24V52.05A1.75,1.75,0,0,0,89.64,50.3ZM87.89,73.88,77.13,84.64a1.77,1.77,0,0,0-.52,1.24v2H67V79.6a5.69,5.69,0,0,1,1.69-4.07l6.26-6.26a2.23,2.23,0,1,1,3.15,3.16l-4.69,4.7a1.74,1.74,0,0,0,0,2.48,1.76,1.76,0,0,0,2.48,0l7.52-7.52a1.8,1.8,0,0,0,.51-1.24V59.57a5.79,5.79,0,0,1,4-5.49v19.8Z"/></svg>