<svg xmlns="http://www.w3.org/2000/svg" viewBox="0 0 458.96 187.08"><defs><style>.cls-1{fill:#464545;}.cls-2{fill:#030303;}.cls-3{fill:#fff;}</style></defs><title>titulo_ye</title><g id="Capa_2" data-name="Capa 2"><g id="Young_Entrepreneur" data-name="Young Entrepreneur"><path class="cls-1" d="M2.65,175.55a4.87,4.87,0,0,1,.05.51,2.21,2.21,0,0,0,.1.59,6.64,6.64,0,0,0,.8,1.8,6.12,6.12,0,0,0,1.28,1.4,5.76,5.76,0,0,0,1.65.91,5.57,5.57,0,0,0,1.92.33,6.36,6.36,0,0,0,1.1-.09,5.39,5.39,0,0,0,.94-.24,5.62,5.62,0,0,0,.82-.39,5.31,5.31,0,0,0,.75-.48,1.6,1.6,0,0,0,.23-.16l.22-.18.21-.14a.29.29,0,0,1,.17-.06s.12.05.2.15.21.31.26.4a.5.5,0,0,1,.09.22.11.11,0,0,1,0,.09.15.15,0,0,1,.06.11,2.86,2.86,0,0,1-.3.32,3.08,3.08,0,0,1-.42.33,7.66,7.66,0,0,1-1.93,1,6.57,6.57,0,0,1-2.26.37,6.94,6.94,0,0,1-2.8-.57,7.36,7.36,0,0,1-2.31-1.56,7.47,7.47,0,0,1-1.57-2.29,7,7,0,0,1-.58-2.81,7.25,7.25,0,0,1,.26-1.93,7.5,7.5,0,0,1,.71-1.73A7.26,7.26,0,0,1,3.37,170a6.74,6.74,0,0,1,1.47-1.14,7.18,7.18,0,0,1,3.7-1,7.65,7.65,0,0,1,1.86.24,6.7,6.7,0,0,1,1.69.67,6.93,6.93,0,0,1,1.45,1.08,6.65,6.65,0,0,1,1.13,1.45,7.81,7.81,0,0,1,.76,1.77,8.62,8.62,0,0,1,.3,2.07h0a0,0,0,0,0,0,0v0c0,.25-.11.37-.35.37ZM7,169.32a5.34,5.34,0,0,0-1.56.7,6,6,0,0,0-1.29,1.12,6.72,6.72,0,0,0-1,1.45,6.41,6.41,0,0,0-.52,1.66h11.8a5.55,5.55,0,0,0-.65-2,6.08,6.08,0,0,0-3.13-2.72,5.77,5.77,0,0,0-2.11-.39c-.25,0-.49,0-.73,0A7,7,0,0,0,7,169.32Z"/><path class="cls-1" d="M34.22,169.19a4.08,4.08,0,0,0-1.47.27,3.83,3.83,0,0,0-1.26.75,4,4,0,0,0-.9,1.16,3.59,3.59,0,0,0-.4,1.5v5.7a.11.11,0,0,0,0,.05v3.08a.31.31,0,0,1-.34.35h-.58a.32.32,0,0,1-.36-.35V168.46a.33.33,0,0,1,.13-.28.49.49,0,0,1,.3-.09h.45a.42.42,0,0,1,.31.11.44.44,0,0,1,.1.3v1.67a7.68,7.68,0,0,1,.82-.95,5,5,0,0,1,.93-.71,4,4,0,0,1,1.08-.45,4.6,4.6,0,0,1,1.27-.16,4.91,4.91,0,0,1,2.83.79,5.2,5.2,0,0,1,1.82,2.15,4.38,4.38,0,0,1,.79-1.29,4.52,4.52,0,0,1,1.09-.92,5.05,5.05,0,0,1,1.31-.55,5.9,5.9,0,0,1,1.46-.18,5.11,5.11,0,0,1,1.94.36,5,5,0,0,1,2.64,2.43,5.77,5.77,0,0,1,.55,1.81,6.51,6.51,0,0,1,.07.76c0,.26,0,.52,0,.77v7.53a.5.5,0,0,1-.12.37.44.44,0,0,1-.32.12H48a.43.43,0,0,1-.34-.11.64.64,0,0,1-.08-.36v-8.29a5,5,0,0,0-.31-1.51,4,4,0,0,0-.78-1.32,4.12,4.12,0,0,0-1.24-.93,3.91,3.91,0,0,0-1.68-.35,4.09,4.09,0,0,0-1.41.24,4,4,0,0,0-1.17.67,3.9,3.9,0,0,0-.86,1,4,4,0,0,0-.45,1.28,9.18,9.18,0,0,0-.13,1.6v7.57a.49.49,0,0,1-.12.36.44.44,0,0,1-.32.12h-.42a.43.43,0,0,1-.34-.11.56.56,0,0,1-.09-.36V174c0-.23,0-.47,0-.72a6.17,6.17,0,0,0-.07-.74,4,4,0,0,0-.42-1.29,3.86,3.86,0,0,0-.83-1.06,3.84,3.84,0,0,0-2.65-1Z"/><path class="cls-1" d="M62.19,168.49a.32.32,0,0,1,.35-.36h.62a.32.32,0,0,1,.35.36v2.66l.47-.73a3.53,3.53,0,0,1,.55-.64,6.91,6.91,0,0,1,2.21-1.42,6.74,6.74,0,0,1,2.61-.5,7.1,7.1,0,0,1,1.91.25A7.24,7.24,0,0,1,74.45,170a7,7,0,0,1,1.14,1.46,7.32,7.32,0,0,1,.74,1.72,7.14,7.14,0,0,1-.74,5.57,7.06,7.06,0,0,1-1.14,1.47A7.65,7.65,0,0,1,73,181.35a7.23,7.23,0,0,1-3.64,1,6.16,6.16,0,0,1-1.36-.15,6.34,6.34,0,0,1-1.28-.4,7.27,7.27,0,0,1-1.17-.62,8.2,8.2,0,0,1-1-.8c-.19-.21-.36-.42-.52-.63s-.31-.45-.51-.72v7.09a.16.16,0,0,1-.06.13.17.17,0,0,1-.14.06h-.78a.27.27,0,0,1-.3-.3Zm13,6.6a6,6,0,0,0-.45-2.29,6.24,6.24,0,0,0-1.25-1.92,6.11,6.11,0,0,0-1.86-1.3,5.34,5.34,0,0,0-2.28-.49,5.78,5.78,0,0,0-2.31.47,6.15,6.15,0,0,0-1.92,1.28,6,6,0,0,0-1.3,1.9,5.91,5.91,0,0,0-.47,2.33,6,6,0,0,0,.46,2.31A6.12,6.12,0,0,0,67,180.63a5.62,5.62,0,0,0,2.3.49,5.47,5.47,0,0,0,2.31-.49,5.91,5.91,0,0,0,1.88-1.3,6.49,6.49,0,0,0,1.27-1.92A5.86,5.86,0,0,0,75.22,175.09Z"/><path class="cls-1" d="M88.93,175.09a7.23,7.23,0,0,1,.26-1.92,7.14,7.14,0,0,1,.73-1.73A7,7,0,0,1,91.06,170a6.93,6.93,0,0,1,1.46-1.14,7.4,7.4,0,0,1,1.73-.74,7.1,7.1,0,0,1,1.91-.26,7.23,7.23,0,0,1,1.92.26,7.32,7.32,0,0,1,1.72.74,7,7,0,0,1,1.48,1.14,7.35,7.35,0,0,1,1.14,1.46,7.55,7.55,0,0,1,.73,1.73,7.22,7.22,0,0,1-.73,5.57,7.42,7.42,0,0,1-1.14,1.47,7.78,7.78,0,0,1-1.48,1.14,6.9,6.9,0,0,1-1.72.73,7.23,7.23,0,0,1-1.92.26,7.1,7.1,0,0,1-1.91-.26,7,7,0,0,1-1.73-.73,7.65,7.65,0,0,1-1.46-1.14,7.06,7.06,0,0,1-1.14-1.47,6.82,6.82,0,0,1-.73-1.73A7.23,7.23,0,0,1,88.93,175.09Zm1.32,0a5.87,5.87,0,0,0,.21,1.56,6.55,6.55,0,0,0,.59,1.42,6,6,0,0,0,.92,1.22,5.46,5.46,0,0,0,1.19,1,5.86,5.86,0,0,0,1.4.62,5.4,5.4,0,0,0,1.56.22,5.78,5.78,0,0,0,2.31-.46,6.26,6.26,0,0,0,1.9-1.29,5.77,5.77,0,0,0,1.29-1.89,5.68,5.68,0,0,0,.48-2.33,6,6,0,0,0-.46-2.31,6.49,6.49,0,0,0-1.27-1.92,6.21,6.21,0,0,0-1.87-1.32,5.46,5.46,0,0,0-2.3-.49,5.7,5.7,0,0,0-2.32.48A5.94,5.94,0,0,0,92,170.86a6.38,6.38,0,0,0-1.27,1.91A5.87,5.87,0,0,0,90.25,175.09Z"/><path class="cls-1" d="M124.63,169.31c.16-.34.31-.69.47-1a.42.42,0,0,1,.26-.16l.36,0a1.51,1.51,0,0,1,.5,0,.26.26,0,0,1,.14.26.49.49,0,0,1,0,.11.46.46,0,0,1,0,.09h0l-.69,1.64-.68,1.64c.55,1.33,1.1,2.69,1.66,4.07s1.12,2.74,1.67,4.07l.69-1.67c.25-.62.52-1.27.79-2l.85-2.09c.28-.71.57-1.42.85-2.11s.56-1.37.82-2l.72-1.78a.39.39,0,0,1,.16-.15,1.12,1.12,0,0,1,.26-.08,1.57,1.57,0,0,1,.3,0H134a.32.32,0,0,1,.25.09.29.29,0,0,1,.09.21.65.65,0,0,1,0,.11l0,.08-5.47,13.26a.33.33,0,0,1-.14.15.6.6,0,0,1-.27.06h-.37a.45.45,0,0,1-.26-.08.24.24,0,0,1-.1-.19c-.58-1.38-1.15-2.76-1.71-4.12s-1.14-2.74-1.71-4.12l-.77,1.88c-.27.64-.53,1.29-.8,1.94s-.54,1.3-.8,1.95-.53,1.27-.78,1.88l-.27.65a.42.42,0,0,1-.42.21h-.37a.5.5,0,0,1-.26-.08.26.26,0,0,1-.11-.19l-5.48-13.2a.44.44,0,0,1,0-.19.24.24,0,0,1,.2-.26,2.25,2.25,0,0,1,.49,0,1.61,1.61,0,0,1,.39,0,.35.35,0,0,1,.25.2c.22.54.46,1.14.73,1.78s.53,1.32.82,2l.86,2.12c.29.73.57,1.43.86,2.11s.55,1.34.81,2,.48,1.19.7,1.69c.46-1.14,1-2.52,1.67-4.13l2.22-5.52h0Q124.39,169.83,124.63,169.31Z"/><path class="cls-1" d="M146.62,175.55a2.3,2.3,0,0,1,0,.51,2.69,2.69,0,0,0,.1.59,6.37,6.37,0,0,0,.81,1.8,6.08,6.08,0,0,0,1.27,1.4,5.9,5.9,0,0,0,1.65.91,5.63,5.63,0,0,0,1.93.33,6.33,6.33,0,0,0,1.09-.09,5.39,5.39,0,0,0,.94-.24,5.73,5.73,0,0,0,.83-.39,5.21,5.21,0,0,0,.74-.48,1.6,1.6,0,0,0,.23-.16l.23-.18.2-.14a.32.32,0,0,1,.17-.06c.06,0,.12.05.2.15s.22.31.27.4a.59.59,0,0,1,.08.22.12.12,0,0,1,0,.09.18.18,0,0,1,0,.11,2.86,2.86,0,0,1-.3.32,2.56,2.56,0,0,1-.42.33,7.6,7.6,0,0,1-1.92,1,6.62,6.62,0,0,1-2.26.37,7,7,0,0,1-2.81-.57,7.36,7.36,0,0,1-2.31-1.56,7.44,7.44,0,0,1-1.56-2.29,6.83,6.83,0,0,1-.58-2.81,7.25,7.25,0,0,1,.25-1.93,7.52,7.52,0,0,1,.72-1.73,6.91,6.91,0,0,1,1.12-1.46,6.51,6.51,0,0,1,1.47-1.14,7.18,7.18,0,0,1,3.7-1,7.63,7.63,0,0,1,1.85.24,6.77,6.77,0,0,1,1.7.67,6.93,6.93,0,0,1,1.45,1.08,7.33,7.33,0,0,1,1.13,1.45,8.26,8.26,0,0,1,.75,1.77,9.14,9.14,0,0,1,.31,2.07h0v.07c0,.25-.11.37-.34.37Zm4.33-6.23a5.28,5.28,0,0,0-1.57.7,6.57,6.57,0,0,0-1.29,1.12,6.33,6.33,0,0,0-.94,1.45,6.43,6.43,0,0,0-.53,1.66h11.8a5.37,5.37,0,0,0-.65-2,6,6,0,0,0-1.32-1.63,6.1,6.1,0,0,0-1.8-1.09,5.81,5.81,0,0,0-2.11-.39c-.26,0-.5,0-.73,0A6.68,6.68,0,0,0,151,169.32Z"/><path class="cls-1" d="M181.46,170.38a.18.18,0,0,1-.13.06.35.35,0,0,1-.18-.05,1.43,1.43,0,0,1-.27-.16,5.09,5.09,0,0,0-.54-.34c-.22-.11-.43-.22-.67-.32a4.45,4.45,0,0,0-.7-.24,3,3,0,0,0-.7-.1,4.26,4.26,0,0,0-1.6.3,4,4,0,0,0-1.32.85,3.86,3.86,0,0,0-.88,1.33,4.56,4.56,0,0,0-.33,1.76v8.24c0,.23-.11.34-.35.34h-.59c-.24,0-.36-.11-.36-.34V168.46c0-.19.1-.29.31-.29h.58a.38.38,0,0,1,.31.11.41.41,0,0,1,.1.29v1.8a5,5,0,0,1,.61-.85,4.3,4.3,0,0,1,.88-.75,4.74,4.74,0,0,1,1.13-.55,4.18,4.18,0,0,1,1.34-.21,6.93,6.93,0,0,1,1.06.08,5.38,5.38,0,0,1,.94.23,4.65,4.65,0,0,1,.85.39,6.55,6.55,0,0,1,.81.56.91.91,0,0,1,.2.19.32.32,0,0,1,.09.23c0,.06-.06.16-.19.3A3.68,3.68,0,0,1,181.46,170.38Z"/><path class="cls-1" d="M194.68,164a.8.8,0,0,1,.06-.34.31.31,0,0,1,.25-.16h.8a.31.31,0,0,1,.27.16,1.11,1.11,0,0,1,.05.34v.42c0,.21,0,.35-.1.41a.63.63,0,0,1-.4.09h-.4a.82.82,0,0,1-.41-.08.31.31,0,0,1-.12-.28Zm.07,4.42a.31.31,0,0,1,.35-.35h.58a.32.32,0,0,1,.36.35V181.7a.31.31,0,0,1-.35.35h-.57c-.25,0-.37-.12-.37-.35Z"/><path class="cls-1" d="M210.26,168.52a.39.39,0,0,1,.11-.31.49.49,0,0,1,.3-.1h.45a.38.38,0,0,1,.3.12.4.4,0,0,1,.11.29v1.62a4.87,4.87,0,0,1,1.06-1.18,5.5,5.5,0,0,1,1.23-.71,5.38,5.38,0,0,1,1.24-.35,8,8,0,0,1,1.13-.1,5.66,5.66,0,0,1,2.32.47,5.19,5.19,0,0,1,1.78,1.26,5.63,5.63,0,0,1,1.15,1.88,6.36,6.36,0,0,1,.41,2.28v7.88a.49.49,0,0,1-.12.36.44.44,0,0,1-.32.12H221a.43.43,0,0,1-.34-.11.56.56,0,0,1-.09-.36v-7.92a5.13,5.13,0,0,0-.34-1.68,4.76,4.76,0,0,0-.87-1.46,4.17,4.17,0,0,0-3.25-1.43,4.74,4.74,0,0,0-1.66.31,4.88,4.88,0,0,0-1.45.89,4.55,4.55,0,0,0-1,1.36,4.11,4.11,0,0,0-.43,1.75v8.3c0,.23-.11.35-.33.35h-.58a.31.31,0,0,1-.35-.35v-3.06a.35.35,0,0,1,0-.12Z"/><path class="cls-1" d="M248,171.15c0-.11,0-.22,0-.34a2.07,2.07,0,0,1,0-.35v-2a.36.36,0,0,1,.11-.29.41.41,0,0,1,.31-.12h.45a.43.43,0,0,1,.32.13.46.46,0,0,1,.1.29V180a9.92,9.92,0,0,1-.32,2.32,7.1,7.1,0,0,1-.77,1.81,5.7,5.7,0,0,1-1.13,1.34,6,6,0,0,1-1.41.91,7.05,7.05,0,0,1-1.59.52,9.49,9.49,0,0,1-1.69.16,8.49,8.49,0,0,1-2.17-.26,7.31,7.31,0,0,1-1.79-.76.59.59,0,0,1-.17-.13.3.3,0,0,1-.06-.2.66.66,0,0,1,0-.15l.05-.12.15-.21.26-.39a.16.16,0,0,1,.16-.07l.17.05a2.89,2.89,0,0,0,.48.27,7.63,7.63,0,0,0,1.79.58,5,5,0,0,0,1.09.11,6.58,6.58,0,0,0,2.24-.37,4.75,4.75,0,0,0,1.79-1.09,4.91,4.91,0,0,0,1.2-1.76,6.4,6.4,0,0,0,.43-2.44v-1.2a6.51,6.51,0,0,1-1.07,1.43,6.29,6.29,0,0,1-1.42,1,7.15,7.15,0,0,1-1.64.67,6.91,6.91,0,0,1-1.76.23,7.1,7.1,0,0,1-1.91-.26,6.93,6.93,0,0,1-1.72-.74,7,7,0,0,1-1.47-1.13,7.11,7.11,0,0,1-1.15-1.47,7.23,7.23,0,0,1-1-3.65,7.23,7.23,0,0,1,.26-1.92A7.34,7.34,0,0,1,237,170a8,8,0,0,1,1.47-1.13,7.58,7.58,0,0,1,1.73-.74,7,7,0,0,1,1.9-.25,6.64,6.64,0,0,1,1.78.23,7.47,7.47,0,0,1,1.62.67,7.2,7.2,0,0,1,1.39,1.06A6.87,6.87,0,0,1,248,171.15Zm-11.77,3.93a5.87,5.87,0,0,0,.21,1.56,6.55,6.55,0,0,0,.59,1.42,6.4,6.4,0,0,0,.92,1.22,6,6,0,0,0,1.18,1,6.31,6.31,0,0,0,1.4.63,5.45,5.45,0,0,0,1.56.22,5.74,5.74,0,0,0,2.15-.4,6.38,6.38,0,0,0,1.82-1.12,6.22,6.22,0,0,0,1.32-1.68,5.72,5.72,0,0,0,.66-2.06v-1.45a5.91,5.91,0,0,0-.65-2.06,6.2,6.2,0,0,0-1.3-1.69,6,6,0,0,0-1.78-1.14,5.75,5.75,0,0,0-2.15-.41,5.51,5.51,0,0,0-1.57.22,5.77,5.77,0,0,0-1.42.6,6.43,6.43,0,0,0-1.2.95,6.09,6.09,0,0,0-.93,1.21,5.95,5.95,0,0,0-.81,3Z"/><path class="cls-1" d="M279.6,164a.8.8,0,0,1,.06-.34.31.31,0,0,1,.25-.16h.8a.31.31,0,0,1,.27.16.87.87,0,0,1,0,.34v.42c0,.21,0,.35-.1.41a.63.63,0,0,1-.4.09h-.4a.82.82,0,0,1-.41-.08.31.31,0,0,1-.12-.28Zm.07,4.42a.31.31,0,0,1,.35-.35h.58a.32.32,0,0,1,.36.35V181.7a.31.31,0,0,1-.35.35H280c-.25,0-.37-.12-.37-.35Z"/><path class="cls-1" d="M308.91,181.7a.31.31,0,0,1-.35.35H308a.31.31,0,0,1-.35-.35v-1.85l0-.82c-.15.24-.31.49-.48.74a3.87,3.87,0,0,1-.54.64,7,7,0,0,1-4.82,1.92,7.1,7.1,0,0,1-1.91-.26,7,7,0,0,1-1.73-.74,7.23,7.23,0,0,1-1.46-1.13,6.93,6.93,0,0,1-1.14-1.46,7.18,7.18,0,0,1-.74-5.57,7.58,7.58,0,0,1,.74-1.73,6.69,6.69,0,0,1,1.14-1.46,6.93,6.93,0,0,1,1.46-1.14,7.4,7.4,0,0,1,1.73-.74,7.1,7.1,0,0,1,1.91-.26,6.16,6.16,0,0,1,1.36.15,7.93,7.93,0,0,1,1.28.4,6.6,6.6,0,0,1,1.17.63,7.45,7.45,0,0,1,1,.8,5.7,5.7,0,0,1,.52.62l.52.73v-7.1a.18.18,0,0,1,.06-.13.17.17,0,0,1,.14-.06h.78a.27.27,0,0,1,.3.3Zm-13-6.61a5.94,5.94,0,0,0,.46,2.3,6.07,6.07,0,0,0,3.11,3.22,5.48,5.48,0,0,0,2.28.48,5.81,5.81,0,0,0,2.31-.46,6.35,6.35,0,0,0,1.92-1.29,6,6,0,0,0,1.77-4.23,6.1,6.1,0,0,0-.46-2.31,6.49,6.49,0,0,0-1.27-1.92,6.3,6.3,0,0,0-1.89-1.32,5.46,5.46,0,0,0-2.3-.49,5.62,5.62,0,0,0-2.31.48,5.94,5.94,0,0,0-1.88,1.31,6.57,6.57,0,0,0-1.27,1.91A5.9,5.9,0,0,0,295.87,175.09Z"/><path class="cls-1" d="M323,175.55a4.87,4.87,0,0,1,.05.51,2.69,2.69,0,0,0,.1.59,6.37,6.37,0,0,0,.81,1.8,5.86,5.86,0,0,0,1.27,1.4,5.76,5.76,0,0,0,1.65.91,5.62,5.62,0,0,0,1.92.33,6.36,6.36,0,0,0,1.1-.09,5.39,5.39,0,0,0,.94-.24,5.62,5.62,0,0,0,.82-.39,5.31,5.31,0,0,0,.75-.48,1.6,1.6,0,0,0,.23-.16l.22-.18.21-.14a.32.32,0,0,1,.17-.06c.05,0,.12.05.2.15l.27.4a.59.59,0,0,1,.08.22.11.11,0,0,1-.05.09.15.15,0,0,1,.06.11,2.86,2.86,0,0,1-.3.32,3.08,3.08,0,0,1-.42.33,7.66,7.66,0,0,1-1.93,1,6.57,6.57,0,0,1-2.26.37,7,7,0,0,1-2.8-.57,7.36,7.36,0,0,1-2.31-1.56,7.27,7.27,0,0,1-1.56-2.29,6.84,6.84,0,0,1-.59-2.81,7.25,7.25,0,0,1,.26-1.93,8,8,0,0,1,.71-1.73,7.65,7.65,0,0,1,1.12-1.46,6.74,6.74,0,0,1,1.47-1.14,7.18,7.18,0,0,1,3.7-1,7.65,7.65,0,0,1,1.86.24,6.7,6.7,0,0,1,1.69.67,6.63,6.63,0,0,1,2.58,2.53,7.81,7.81,0,0,1,.76,1.77,8.62,8.62,0,0,1,.3,2.07h0a0,0,0,0,0,0,0v0c0,.25-.11.37-.35.37Zm4.33-6.23a5.28,5.28,0,0,0-1.57.7,6,6,0,0,0-1.29,1.12,6.33,6.33,0,0,0-.94,1.45,6.07,6.07,0,0,0-.53,1.66h11.8a5.37,5.37,0,0,0-.65-2,6,6,0,0,0-1.32-1.63,6.1,6.1,0,0,0-1.8-1.09,5.86,5.86,0,0,0-2.12-.39c-.25,0-.49,0-.72,0A6.68,6.68,0,0,0,327.33,169.32Z"/><path class="cls-1" d="M361.88,179.85l0-.84a6.7,6.7,0,0,1-1.06,1.37,6.58,6.58,0,0,1-1.38,1,7.19,7.19,0,0,1-1.62.67,7,7,0,0,1-1.78.23,7.18,7.18,0,0,1-1.92-.26,6.93,6.93,0,0,1-1.72-.74,7.78,7.78,0,0,1-1.48-1.14A7.24,7.24,0,0,1,349,177a7.23,7.23,0,0,1-.26-1.92,7.1,7.1,0,0,1,.26-1.91,7,7,0,0,1,.74-1.73,7.72,7.72,0,0,1,1.14-1.47,7.42,7.42,0,0,1,1.47-1.14,7.32,7.32,0,0,1,1.72-.74,7.17,7.17,0,0,1,1.92-.25,7,7,0,0,1,3.39.89,7,7,0,0,1,2.49,2.43v-2.71c0-.24.11-.35.34-.35h.57c.25,0,.38.11.38.35V181.7a.3.3,0,0,1-.13.27.52.52,0,0,1-.29.08h-.44c-.29,0-.43-.13-.43-.39Zm.06-4.77a5.6,5.6,0,0,0-.48-2.29,6.66,6.66,0,0,0-1.3-1.91,6.42,6.42,0,0,0-1.9-1.3,5.56,5.56,0,0,0-2.27-.5h0a5.23,5.23,0,0,0-2.24.49,6.28,6.28,0,0,0-1.87,1.3,6.18,6.18,0,0,0-1.28,1.9,5.55,5.55,0,0,0-.48,2.28,5.8,5.8,0,0,0,.46,2.3,6.11,6.11,0,0,0,1.25,1.93,5.84,5.84,0,0,0,1.86,1.32,5.34,5.34,0,0,0,2.28.49,5.87,5.87,0,0,0,2.32-.47,6.24,6.24,0,0,0,1.91-1.31,6,6,0,0,0,1.3-1.91A5.7,5.7,0,0,0,361.94,175.08Z"/><path class="cls-1" d="M375.8,179.14l0-.1a.38.38,0,0,1,0-.1.28.28,0,0,1,.07-.21l.2-.12.43-.19h.17a.19.19,0,0,1,.15.1,1.08,1.08,0,0,1,.13.24c0,.09.07.19.1.3a1.82,1.82,0,0,0,.11.28,2.58,2.58,0,0,0,.61.79,4,4,0,0,0,1.8.86,3.7,3.7,0,0,0,.88.11,4.81,4.81,0,0,0,1.12-.15,4,4,0,0,0,1.17-.47,3,3,0,0,0,.92-.83,2.12,2.12,0,0,0,.38-1.27,2,2,0,0,0-.34-1.17,3,3,0,0,0-.84-.83,5.76,5.76,0,0,0-1.17-.56,11.41,11.41,0,0,0-1.29-.36,11.72,11.72,0,0,1-1.58-.53,6,6,0,0,1-1.34-.8,4,4,0,0,1-.95-1.08,2.77,2.77,0,0,1-.34-1.38,3.76,3.76,0,0,1,.31-1.57,3.26,3.26,0,0,1,.89-1.21,3.72,3.72,0,0,1,1.38-.77,5.54,5.54,0,0,1,1.78-.27,5,5,0,0,1,1.48.2,4.37,4.37,0,0,1,1.21.58,3.87,3.87,0,0,1,.94.91,5.2,5.2,0,0,1,.66,1.18h0a.29.29,0,0,1,.07.17.28.28,0,0,1-.09.19,1.2,1.2,0,0,1-.21.17,1.34,1.34,0,0,1-.24.12.49.49,0,0,1-.18,0,.36.36,0,0,1-.19,0,.43.43,0,0,1-.11-.12.67.67,0,0,1-.1-.19l-.13-.25a3.62,3.62,0,0,0-1.24-1.22,3.49,3.49,0,0,0-1.87-.48,4.68,4.68,0,0,0-1.14.15,3.12,3.12,0,0,0-1,.47,2.4,2.4,0,0,0-.68.8,2.46,2.46,0,0,0-.24,1.12,1.57,1.57,0,0,0,.33,1,3.29,3.29,0,0,0,.82.75,6.37,6.37,0,0,0,1.05.51,10.59,10.59,0,0,0,1,.32l.11,0h0a10.07,10.07,0,0,1,1.83.6,5.81,5.81,0,0,1,1.42.88,3.71,3.71,0,0,1,.9,1.16,3.4,3.4,0,0,1,.32,1.49,3.49,3.49,0,0,1-.4,1.69,3.81,3.81,0,0,1-1.07,1.26,5,5,0,0,1-1.57.78,6.34,6.34,0,0,1-1.86.27,5.83,5.83,0,0,1-1.57-.21,4.94,4.94,0,0,1-1.36-.62,4.53,4.53,0,0,1-1.05-1A3.91,3.91,0,0,1,375.8,179.14Z"/><rect class="cls-1" y="152.47" width="458.96" height="2.24"/><path class="cls-2" d="M18.74,64.22v13.1H12.23V64.53L1.53,42H8.68l6.71,14.1L22,42h7.16Zm0,0L29.19,42Z"/><path class="cls-2" d="M71.33,46.06A18.79,18.79,0,1,1,44.74,72.63,18.79,18.79,0,1,1,71.33,46.06ZM58,47a12.35,12.35,0,0,0,0,24.69A12.31,12.31,0,0,0,70.37,59.35a12.26,12.26,0,0,0-3.6-8.67A12.13,12.13,0,0,0,58,47Z"/><path class="cls-2" d="M94.47,41.69v20.7c0,2-.06,4,.64,5.5a6.11,6.11,0,0,0,2.28,2.6,5.65,5.65,0,0,0,3.16.94,5.73,5.73,0,0,0,3-.82,6,6,0,0,0,2.28-2.21c1-1.52.82-3.61.82-5.7v-21h6.52v21c0,3,0,6-1.77,9a12.82,12.82,0,0,1-4.62,4.55,12.11,12.11,0,0,1-6.21,1.65,11.84,11.84,0,0,1-6.7-2,12.41,12.41,0,0,1-4.63-5.26C87.83,67.82,88,65,88,62.32A12.3,12.3,0,0,0,88,60.87V41.69Zm0,0h0Z"/><path class="cls-2" d="M149.27,41.75V77.19l-5.63-5.88L130.28,57.57V77.13h-6.45V41.75l5.63,5.89,13.35,13.73V41.75Zm-6.46,0h0Z"/><path class="cls-2" d="M178.62,59.15h19.62v.07a18.18,18.18,0,0,1-5.18,13.29,19.18,19.18,0,0,1-13.68,5.64,18.08,18.08,0,0,1-13.29-5.52,18.77,18.77,0,0,1,0-26.57,18.9,18.9,0,0,1,21.84-3.49,17.9,17.9,0,0,1,6.7,5.76l-5.25,3.8A12.55,12.55,0,0,0,185,48.4a11.75,11.75,0,0,0-5.63-1.4,12.12,12.12,0,0,0-8.67,3.68,12.31,12.31,0,0,0,8.67,21A12.87,12.87,0,0,0,188.44,68a15.11,15.11,0,0,0,1.77-2.22l-11.59-.13Zm0,0v0Z"/><path class="cls-2" d="M9.79,110.24h10.3v6.92H9.79v8.47H23.62v7H2.88V94.39H23.62v6.91H9.79Zm0-8.94v0Z"/><path class="cls-2" d="M62.85,94.52v38l-6-6.31-14.3-14.7v20.94H35.6V94.52l6,6.31,14.3,14.7v-21Zm-6.92,0h0Z"/><path class="cls-2" d="M74.83,94.46H96.38v6.91H88.92v31.24H82V101.37H74.83Zm0,0v0Z"/><path class="cls-2" d="M131.68,132.61h-8.06l-7.73-12.94h-1v12.94H108V94.46h6.91v.06h3.26A12.16,12.16,0,0,1,127,98.18a12.74,12.74,0,0,1,3.73,8.88,12.09,12.09,0,0,1-3.73,8.88,12.35,12.35,0,0,1-3.72,2.58Zm-16.81-19.92h3.26a5.57,5.57,0,0,0,5.62-5.63,5.7,5.7,0,0,0-1.63-4,5.48,5.48,0,0,0-4-1.63h-3.26Z"/><path class="cls-2" d="M149.49,110.24h10.3v6.92h-10.3v8.47h13.82v7H142.57V94.39h20.74v6.91H149.49Zm0-8.94v0Z"/><path class="cls-2" d="M182.21,94.46v.06h3.26a12.16,12.16,0,0,1,8.87,3.66,12.74,12.74,0,0,1,3.73,8.88,12.74,12.74,0,0,1-12.6,12.61h-3.26v12.94H175.3V94.46Zm-6.91,0h0Zm6.91,7v11.26h3.26a5.55,5.55,0,0,0,5.62-5.63,5.73,5.73,0,0,0-1.62-4,5.5,5.5,0,0,0-4-1.63Z"/><path class="cls-2" d="M232.69,132.61h-8.06l-7.73-12.94h-1v12.94H209V94.46h6.91v.06h3.26A12.16,12.16,0,0,1,228,98.18a12.74,12.74,0,0,1,3.73,8.88,12.09,12.09,0,0,1-3.73,8.88,12.23,12.23,0,0,1-3.72,2.58Zm-16.81-19.92h3.26a5.55,5.55,0,0,0,5.62-5.63,5.73,5.73,0,0,0-1.62-4,5.5,5.5,0,0,0-4-1.63h-3.26Z"/><path class="cls-2" d="M250.5,110.24h10.3v6.92H250.5v8.47h13.83v7H243.59V94.39h20.74v6.91H250.5Zm0-8.94v0Z"/><path class="cls-2" d="M303.56,94.52v38l-6-6.31-14.3-14.7v20.94h-6.92V94.52l6,6.31,14.3,14.7v-21Zm-6.92,0h0Z"/><path class="cls-2" d="M322.45,110.24h10.3v6.92h-10.3v8.47h13.83v7H315.54V94.39h20.74v6.91H322.45Zm0-8.94v0Z"/><path class="cls-2" d="M355.58,94.46v22.16c0,2.16-.07,4.34.67,5.89a6.41,6.41,0,0,0,2.45,2.78,6,6,0,0,0,3.38,1,6.13,6.13,0,0,0,3.19-.88,6.38,6.38,0,0,0,2.44-2.37c1-1.63.88-3.86.88-6.1V94.46h7V117c0,3.18,0,6.37-1.89,9.62a13.77,13.77,0,0,1-4.95,4.88,13,13,0,0,1-6.65,1.76,12.68,12.68,0,0,1-7.18-2.1,13.24,13.24,0,0,1-4.95-5.63c-1.49-3-1.35-6-1.35-8.94a14.18,14.18,0,0,0,.06-1.56V94.46Zm0,0h0Z"/><path class="cls-2" d="M410.73,132.61h-8.06L395,119.67h-1v12.94H387V94.46h6.92v.06h3.25a12.17,12.17,0,0,1,8.88,3.66,12.77,12.77,0,0,1,3.72,8.88,12.12,12.12,0,0,1-3.72,8.88,12.27,12.27,0,0,1-3.73,2.58Zm-16.8-19.92h3.25a5.57,5.57,0,0,0,5.63-5.63,5.74,5.74,0,0,0-1.63-4,5.49,5.49,0,0,0-4-1.63h-3.25Z"/><path class="cls-3" d="M2.88,24.62V0h7.68q4.89,0,7.29,1.43a5.1,5.1,0,0,1,2.41,4.76,9.1,9.1,0,0,1-.07,1,6.68,6.68,0,0,1-.3,1.19,4.89,4.89,0,0,1-.63,1.2,4.65,4.65,0,0,1-1.07,1,5.39,5.39,0,0,1-1.61.8,6,6,0,0,1,3.49,2.13,6.12,6.12,0,0,1,1.21,3.87,6.21,6.21,0,0,1-2.46,5.31A11.21,11.21,0,0,1,12,24.62ZM7.43,10.17h3.9c3,0,4.52-1.15,4.52-3.45a2.76,2.76,0,0,0-1.3-2.65,9,9,0,0,0-4.14-.73h-3Zm0,11.16h4q5.25,0,5.25-4.1a3.36,3.36,0,0,0-1.32-3,7.23,7.23,0,0,0-4.05-.9H7.43Z"/><path class="cls-3" d="M32.69,25a8.18,8.18,0,0,1-6.45-2.66,10.15,10.15,0,0,1-2.36-7,10.06,10.06,0,0,1,2.36-7A8.53,8.53,0,0,1,32.88,5.7a8.23,8.23,0,0,1,6.48,2.63,10.14,10.14,0,0,1,2.34,7,10.05,10.05,0,0,1-2.37,7A8.48,8.48,0,0,1,32.69,25Zm.12-3.35A3.81,3.81,0,0,0,36.17,20a8.18,8.18,0,0,0,1.13-4.67,8.18,8.18,0,0,0-1.13-4.69A3.84,3.84,0,0,0,32.78,9a3.84,3.84,0,0,0-3.37,1.62,8.13,8.13,0,0,0-1.14,4.7A8.07,8.07,0,0,0,29.41,20,3.89,3.89,0,0,0,32.81,21.63Z"/><path class="cls-3" d="M52.93,25a8.18,8.18,0,0,1-6.45-2.66,10.15,10.15,0,0,1-2.36-7,10.06,10.06,0,0,1,2.36-7A8.53,8.53,0,0,1,53.12,5.7,8.23,8.23,0,0,1,59.6,8.33a10.14,10.14,0,0,1,2.34,7,10.05,10.05,0,0,1-2.37,7A8.48,8.48,0,0,1,52.93,25Zm.12-3.35A3.81,3.81,0,0,0,56.41,20a8.18,8.18,0,0,0,1.13-4.67,8.18,8.18,0,0,0-1.13-4.69,4.34,4.34,0,0,0-6.76,0,8.13,8.13,0,0,0-1.14,4.7A8.07,8.07,0,0,0,49.65,20,3.89,3.89,0,0,0,53.05,21.63Z"/><path class="cls-3" d="M72.46,24.88a9.4,9.4,0,0,1-3.14-.45,4.07,4.07,0,0,1-2-1.4,6,6,0,0,1-1-2.26,15.33,15.33,0,0,1-.29-3.22V8.82H63l.17-2.38,3.16-.29,1.41-5h2.69v5h4.59V8.82H70.47v8.81a5.45,5.45,0,0,0,.61,3,2.49,2.49,0,0,0,2.23.89,13.73,13.73,0,0,0,2-.16l.12,3.16-.41.07-.72.14c-.23,0-.53.07-.89.11S72.77,24.88,72.46,24.88Z"/><path class="cls-3" d="M85.92,25a8.62,8.62,0,0,1-6.6-2.52C77.75,20.77,77,18.37,77,15.24a9.59,9.59,0,0,1,2.48-7A8.79,8.79,0,0,1,86,5.7a10.16,10.16,0,0,1,5.48,1.39l-1,3.15A9.21,9.21,0,0,0,86.16,9a4.28,4.28,0,0,0-3.52,1.6,7.27,7.27,0,0,0-1.29,4.66A7.44,7.44,0,0,0,82.62,20a4.29,4.29,0,0,0,3.59,1.61,8.52,8.52,0,0,0,4.65-1.42l.42,3.34a7.89,7.89,0,0,1-2.4,1.11A11.21,11.21,0,0,1,85.92,25Z"/><path class="cls-3" d="M99.2,25A6,6,0,0,1,95,23.56a5.21,5.21,0,0,1-1.59-4.1,5,5,0,0,1,1.89-4.26A11.48,11.48,0,0,1,101,13.45l1.12-.14,1.37-.13,1.19-.12v-1a3.35,3.35,0,0,0-.77-2.45,3.24,3.24,0,0,0-2.36-.77A16.32,16.32,0,0,0,96,10.14s-.2-.55-.56-1.53-.54-1.49-.55-1.52A17.75,17.75,0,0,1,102,5.7q3.74,0,5.43,1.62t1.7,5.25V24.62h-3.27s-.13-.42-.36-1.12-.36-1.08-.36-1.13a10.3,10.3,0,0,1-2.7,2A7.36,7.36,0,0,1,99.2,25Zm1.2-3.13a4.78,4.78,0,0,0,2.66-.73,4.25,4.25,0,0,0,1.62-1.77V15.78l-.88.07-.9.07a9.08,9.08,0,0,0-3.92,1,2.71,2.71,0,0,0-1.24,2.48,2.32,2.32,0,0,0,.69,1.81A2.81,2.81,0,0,0,100.4,21.85Z"/><path class="cls-3" d="M113.25,24.62V6.15h3.56l.51,2.35c.22-.28.44-.52.64-.74a7.1,7.1,0,0,1,.86-.74A5.42,5.42,0,0,1,120,6.34a8,8,0,0,1,1.51-.46,9.81,9.81,0,0,1,1.93-.18,6.22,6.22,0,0,1,3.52.89,5.07,5.07,0,0,1,1.86,2.08,6.61,6.61,0,0,1,2.57-2.2,7.93,7.93,0,0,1,3.51-.77,5.69,5.69,0,0,1,4.66,1.8A8.13,8.13,0,0,1,141,12.82v11.8h-4.42V14.14a9.52,9.52,0,0,0-.59-3.91A2.31,2.31,0,0,0,133.74,9a3.82,3.82,0,0,0-3.7,2.32,8.16,8.16,0,0,0-.64,2.47v10.8H125V13.93a8,8,0,0,0-.66-3.68A2.47,2.47,0,0,0,122,9a4.08,4.08,0,0,0-2.4.71A4.53,4.53,0,0,0,118,11.6a18.41,18.41,0,0,0-.39,4.07v9Z"/><path class="cls-3" d="M145.15,32.31V6.15h3.79l.47,2.59a6.23,6.23,0,0,1,2.41-2.26,7.05,7.05,0,0,1,3.35-.8,6.59,6.59,0,0,1,4,1.26,7.87,7.87,0,0,1,2.62,3.44,13,13,0,0,1,.89,4.92,11.1,11.1,0,0,1-2.08,7A6.71,6.71,0,0,1,155,25a7,7,0,0,1-5.55-2.59c.09,1.61.14,2.52.14,2.72v7ZM154,21.61a3.56,3.56,0,0,0,3.1-1.64,8.24,8.24,0,0,0,1.13-4.71,7.9,7.9,0,0,0-1.14-4.67A3.71,3.71,0,0,0,153.94,9q-4.37,0-4.42,6a8.8,8.8,0,0,0,1.14,5A3.86,3.86,0,0,0,154,21.61Z"/></g></g></svg>