<svg xmlns="http://www.w3.org/2000/svg" xmlns:xlink="http://www.w3.org/1999/xlink" viewBox="0 0 396.97 377.57"><defs><style>.cls-1{fill:none;}.cls-2{fill:url(#linear-gradient);}.cls-3{fill:url(#linear-gradient-2);}.cls-4{fill:url(#linear-gradient-3);}.cls-5{fill:url(#linear-gradient-4);}.cls-6{fill:url(#linear-gradient-5);}.cls-7{fill:url(#linear-gradient-6);}.cls-8{fill:url(#linear-gradient-7);}.cls-9{fill:url(#linear-gradient-8);}.cls-10{fill:url(#linear-gradient-9);}.cls-11{fill:url(#linear-gradient-10);}.cls-12{fill:url(#linear-gradient-11);}.cls-13{fill:url(#linear-gradient-12);}.cls-14{fill:url(#linear-gradient-13);}.cls-15{fill:url(#linear-gradient-14);}.cls-16{fill:url(#linear-gradient-15);}.cls-17{fill:url(#linear-gradient-16);}.cls-18{fill:url(#linear-gradient-17);}.cls-19{fill:url(#linear-gradient-18);}.cls-20{fill:url(#linear-gradient-19);}.cls-21{fill:url(#linear-gradient-20);}.cls-22{fill:url(#linear-gradient-21);}.cls-23{fill:url(#linear-gradient-22);}.cls-24{fill:url(#linear-gradient-23);}.cls-25{fill:url(#linear-gradient-24);}.cls-26{fill:url(#linear-gradient-25);}.cls-27{fill:url(#linear-gradient-26);}.cls-28{fill:url(#linear-gradient-27);}.cls-29{fill:url(#linear-gradient-28);}.cls-30{fill:url(#linear-gradient-29);}.cls-31{fill:url(#linear-gradient-30);}.cls-32{fill:url(#linear-gradient-31);}.cls-33{fill:url(#linear-gradient-32);}.cls-34{fill:url(#linear-gradient-33);}.cls-35{fill:url(#linear-gradient-34);}.cls-36{clip-path:url(#clip-path);}.cls-37{fill:#f8a03f;}.cls-38{fill:#f89f3e;}.cls-39{fill:#f79e3e;}.cls-40{fill:#f79d3d;}.cls-41{fill:#f79c3c;}.cls-42{fill:#f79b3c;}.cls-43{fill:#f69a3b;}.cls-44{fill:#f6993a;}.cls-45{fill:#f69839;}.cls-46{fill:#f69739;}.cls-47{fill:#f59638;}.cls-48{fill:#f59537;}.cls-49{fill:#f59436;}.cls-50{fill:#f49336;}.cls-51{fill:#f49235;}.cls-52{fill:#f49134;}.cls-53{fill:#f39033;}.cls-54{fill:#f38f33;}.cls-55{fill:#f38e32;}.cls-56{fill:#f38d31;}.cls-57{fill:#f28c30;}.cls-58{fill:#f28b30;}.cls-59{fill:#f28a2f;}.cls-60{fill:#f1892e;}.cls-61{fill:#f1882d;}.cls-62{fill:#f1872c;}.cls-63{fill:#f0862c;}.cls-64{fill:#f0852b;}.cls-65{fill:#f0842a;}.cls-66{fill:#ef8329;}.cls-67{fill:#ef8229;}.cls-68{fill:#ef8028;}.cls-69{fill:#ef7f27;}.cls-70{fill:#ee7e26;}.cls-71{fill:#ee7d25;}.cls-72{fill:#ee7c25;}.cls-73{fill:#ed7b24;}.cls-74{fill:#ed7a23;}.cls-75{clip-path:url(#clip-path-2);}.cls-76{fill:#4a4b4b;}.cls-77{fill:#494a4a;}.cls-78{fill:#484949;}.cls-79{fill:#474848;}.cls-80{fill:#464747;}.cls-81{fill:#464646;}.cls-82{fill:#454545;}.cls-83{fill:#444;}.cls-84{fill:#434343;}.cls-85{fill:#424242;}.cls-86{fill:#414141;}.cls-87{fill:#404040;}.cls-88{fill:#3f3f3f;}.cls-89{fill:#3e3e3e;}.cls-90{fill:#3d3d3d;}.cls-91{fill:#3c3c3c;}.cls-92{fill:#3b3b3b;}.cls-93{fill:#3a3a3a;}.cls-94{fill:#393939;}.cls-95{fill:#383838;}.cls-96{fill:#383737;}.cls-97{fill:#373535;}.cls-98{fill:#363434;}.cls-99{fill:#353333;}.cls-100{fill:#343232;}.cls-101{fill:#333131;}.cls-102{fill:#323030;}.cls-103{fill:#312f2f;}.cls-104{fill:#302e2e;}.cls-105{fill:#2f2d2d;}.cls-106{fill:#2e2c2c;}.cls-107{fill:#2d2b2b;}.cls-108{fill:#2c2a2a;}.cls-109{fill:#2b2929;}.cls-110{fill:#2a2828;}.cls-111{fill:#292727;}.cls-112{fill:#292626;}.cls-113{fill:#282525;}.cls-114{fill:#272424;}.cls-115{fill:#262323;}.cls-116{fill:#252222;}.cls-117{fill:#242121;}.cls-118{fill:#4d4e4e;}.cls-119{fill:#4c4d4d;}.cls-120{fill:#4b4c4c;}.cls-121{fill:#232020;}.cls-122{fill:#221f1f;}.cls-123{fill:url(#linear-gradient-35);}.cls-124{fill:url(#linear-gradient-36);}.cls-125{fill:url(#linear-gradient-37);}.cls-126{fill:url(#linear-gradient-38);}</style><linearGradient id="linear-gradient" y1="188.79" x2="396.97" y2="188.79" gradientUnits="userSpaceOnUse"><stop offset="0" stop-color="#f8a03f"/><stop offset="1" stop-color="#ed7a23"/></linearGradient><linearGradient id="linear-gradient-2" x1="77.05" y1="377.67" x2="167.31" y2="206.9" gradientUnits="userSpaceOnUse"><stop offset="0" stop-color="#4d4e4e"/><stop offset="1" stop-color="#221f1f"/></linearGradient><linearGradient id="linear-gradient-3" x1="89.2" y1="384.1" x2="179.46" y2="213.33" xlink:href="#linear-gradient-2"/><linearGradient id="linear-gradient-4" x1="100.76" y1="390.21" x2="191.02" y2="219.43" xlink:href="#linear-gradient-2"/><linearGradient id="linear-gradient-5" x1="111.78" y1="396.03" x2="202.04" y2="225.26" xlink:href="#linear-gradient-2"/><linearGradient id="linear-gradient-6" x1="121.55" y1="401.2" x2="211.81" y2="230.42" xlink:href="#linear-gradient-2"/><linearGradient id="linear-gradient-7" x1="133.77" y1="407.66" x2="224.04" y2="236.89" xlink:href="#linear-gradient-2"/><linearGradient id="linear-gradient-8" x1="142.02" y1="412.02" x2="232.28" y2="241.25" xlink:href="#linear-gradient-2"/><linearGradient id="linear-gradient-9" x1="149.3" y1="415.87" x2="239.57" y2="245.1" xlink:href="#linear-gradient-2"/><linearGradient id="linear-gradient-10" x1="157.49" y1="420.19" x2="247.75" y2="249.42" xlink:href="#linear-gradient-2"/><linearGradient id="linear-gradient-11" x1="168.22" y1="425.86" x2="258.48" y2="255.09" xlink:href="#linear-gradient-2"/><linearGradient id="linear-gradient-12" x1="180.85" y1="432.54" x2="271.12" y2="261.77" xlink:href="#linear-gradient-2"/><linearGradient id="linear-gradient-13" x1="189.98" y1="437.37" x2="280.24" y2="266.6" xlink:href="#linear-gradient-2"/><linearGradient id="linear-gradient-14" x1="199.87" y1="442.59" x2="290.13" y2="271.82" xlink:href="#linear-gradient-2"/><linearGradient id="linear-gradient-15" x1="211.14" y1="448.55" x2="301.4" y2="277.78" xlink:href="#linear-gradient-2"/><linearGradient id="linear-gradient-16" x1="220.02" y1="453.25" x2="310.29" y2="282.48" xlink:href="#linear-gradient-2"/><linearGradient id="linear-gradient-17" x1="49.69" y1="363.21" x2="139.95" y2="192.44" xlink:href="#linear-gradient-2"/><linearGradient id="linear-gradient-18" x1="65.75" y1="371.71" x2="156.02" y2="200.93" xlink:href="#linear-gradient-2"/><linearGradient id="linear-gradient-19" x1="80.4" y1="379.45" x2="170.66" y2="208.67" xlink:href="#linear-gradient-2"/><linearGradient id="linear-gradient-20" x1="97.31" y1="388.38" x2="187.57" y2="217.61" xlink:href="#linear-gradient-2"/><linearGradient id="linear-gradient-21" x1="112.14" y1="396.23" x2="202.41" y2="225.45" xlink:href="#linear-gradient-2"/><linearGradient id="linear-gradient-22" x1="124.7" y1="402.86" x2="214.96" y2="232.09" xlink:href="#linear-gradient-2"/><linearGradient id="linear-gradient-23" x1="142.53" y1="412.29" x2="232.8" y2="241.52" xlink:href="#linear-gradient-2"/><linearGradient id="linear-gradient-24" x1="157.37" y1="420.13" x2="247.63" y2="249.36" xlink:href="#linear-gradient-2"/><linearGradient id="linear-gradient-25" x1="173.43" y1="428.62" x2="263.7" y2="257.85" xlink:href="#linear-gradient-2"/><linearGradient id="linear-gradient-26" x1="189.5" y1="437.11" x2="279.76" y2="266.34" xlink:href="#linear-gradient-2"/><linearGradient id="linear-gradient-27" x1="204.58" y1="445.09" x2="294.85" y2="274.32" xlink:href="#linear-gradient-2"/><linearGradient id="linear-gradient-28" x1="222.08" y1="454.33" x2="312.34" y2="283.56" xlink:href="#linear-gradient-2"/><linearGradient id="linear-gradient-29" x1="32.54" y1="354.15" x2="122.81" y2="183.38" xlink:href="#linear-gradient-2"/><linearGradient id="linear-gradient-30" x1="74.48" y1="376.31" x2="164.74" y2="205.54" xlink:href="#linear-gradient-2"/><linearGradient id="linear-gradient-31" x1="112.58" y1="396.45" x2="202.84" y2="225.68" xlink:href="#linear-gradient-2"/><linearGradient id="linear-gradient-32" x1="151.29" y1="416.92" x2="241.55" y2="246.15" xlink:href="#linear-gradient-2"/><linearGradient id="linear-gradient-33" x1="190.81" y1="437.81" x2="281.07" y2="267.04" xlink:href="#linear-gradient-2"/><linearGradient id="linear-gradient-34" x1="140.08" y1="410.99" x2="230.35" y2="240.22" xlink:href="#linear-gradient-2"/><clipPath id="clip-path"><polygon class="cls-1" points="155.25 203.09 155.25 57.42 279.67 130.25 155.25 203.09"/></clipPath><clipPath id="clip-path-2"><path class="cls-1" d="M155.26,206.72a3.64,3.64,0,0,1-3.64-3.64V57.42a3.64,3.64,0,0,1,5.47-3.14L281.5,127.11a3.64,3.64,0,0,1,0,6.28L157.09,206.22A3.65,3.65,0,0,1,155.26,206.72Zm3.63-143v133l113.58-66.5Z"/></clipPath><linearGradient id="linear-gradient-35" x1="121.11" y1="400.97" x2="211.38" y2="230.2" xlink:href="#linear-gradient-2"/><linearGradient id="linear-gradient-36" x1="213.69" y1="93.64" x2="162.65" y2="157.28" xlink:href="#linear-gradient-2"/><linearGradient id="linear-gradient-37" x1="276.38" y1="93.86" x2="216.64" y2="93.86" xlink:href="#linear-gradient-2"/><linearGradient id="linear-gradient-38" x1="223.47" y1="93.88" x2="267.95" y2="93.88" xlink:href="#linear-gradient"/></defs><title>Asset 49</title><g id="Layer_2" data-name="Layer 2"><g id="Capa_1" data-name="Capa 1"><rect class="cls-2" width="396.97" height="377.57"/><path class="cls-3" d="M106,317.05a2.07,2.07,0,0,1,0,.29,1.86,1.86,0,0,0,.06.34,3.7,3.7,0,0,0,.47,1.05,3.5,3.5,0,0,0,1.71,1.36,3.27,3.27,0,0,0,1.13.19,4.26,4.26,0,0,0,.64,0,2.48,2.48,0,0,0,.55-.15,2.62,2.62,0,0,0,.48-.22,4.08,4.08,0,0,0,.44-.28l.13-.1.13-.1.12-.08a.16.16,0,0,1,.1,0s.07,0,.12.09a2.06,2.06,0,0,1,.15.24.21.21,0,0,1,.05.12.14.14,0,0,1,0,.06.09.09,0,0,1,0,.06l-.17.19-.25.19a4.32,4.32,0,0,1-1.13.58,4,4,0,0,1-1.32.21,4.11,4.11,0,0,1-1.64-.33,4.18,4.18,0,0,1-1.35-.91,4.32,4.32,0,0,1-.92-1.34,4.11,4.11,0,0,1-.33-1.64,4.66,4.66,0,0,1,.14-1.13,4.3,4.3,0,0,1,.42-1,3.94,3.94,0,0,1,.66-.86,3.71,3.71,0,0,1,.86-.66,3.94,3.94,0,0,1,1-.43,4.37,4.37,0,0,1,1.15-.16,4.46,4.46,0,0,1,1.09.14,4.25,4.25,0,0,1,1,.39,4.06,4.06,0,0,1,.84.64,3.82,3.82,0,0,1,.66.84,4,4,0,0,1,.44,1,4.71,4.71,0,0,1,.18,1.21h0v0a.19.19,0,0,1-.21.22Zm2.52-3.65a3.11,3.11,0,0,0-.91.41,3.2,3.2,0,0,0-.76.66,3.69,3.69,0,0,0-.55.84,3.41,3.41,0,0,0-.3,1h6.9a3.27,3.27,0,0,0-.39-1.19,3.43,3.43,0,0,0-.77-1,3.71,3.71,0,0,0-1-.63,3.49,3.49,0,0,0-1.24-.23l-.42,0A3.4,3.4,0,0,0,108.48,313.4Z"/><path class="cls-4" d="M122.09,313.32a2.52,2.52,0,0,0-.86.16,2.26,2.26,0,0,0-.73.44,2.23,2.23,0,0,0-.53.68,2,2,0,0,0-.23.88v3.29a.08.08,0,0,1,0,0v1.83a.18.18,0,0,1-.2.2h-.33c-.15,0-.22-.06-.22-.2V312.9a.21.21,0,0,1,.08-.17.34.34,0,0,1,.17-.05h.27a.19.19,0,0,1,.17.07.21.21,0,0,1,.07.17v1a5.34,5.34,0,0,1,.47-.56,3.2,3.2,0,0,1,.55-.42,2.7,2.7,0,0,1,.63-.26,2.91,2.91,0,0,1,.75-.09,2.88,2.88,0,0,1,1.65.46,3,3,0,0,1,1.06,1.25,3,3,0,0,1,.46-.75A2.66,2.66,0,0,1,126,313a2.61,2.61,0,0,1,.77-.32,3.48,3.48,0,0,1,.85-.11,3,3,0,0,1,1.14.21,2.88,2.88,0,0,1,.9.57,2.68,2.68,0,0,1,.64.85,3.43,3.43,0,0,1,.32,1.06,3.27,3.27,0,0,1,0,.44c0,.15,0,.31,0,.45v4.4a.32.32,0,0,1-.07.22.25.25,0,0,1-.19.07h-.24a.27.27,0,0,1-.2-.06.37.37,0,0,1,0-.21v-4.85a3.15,3.15,0,0,0-.19-.89,2.4,2.4,0,0,0-.45-.77,2.21,2.21,0,0,0-1.71-.74,2.43,2.43,0,0,0-.82.14,2.13,2.13,0,0,0-.69.39,2.42,2.42,0,0,0-.5.6,2.16,2.16,0,0,0-.26.75,5.64,5.64,0,0,0-.08.93v4.43a.27.27,0,0,1-.07.21.25.25,0,0,1-.19.07h-.24a.25.25,0,0,1-.2-.06.3.3,0,0,1,0-.21v-4.44c0-.13,0-.27,0-.42a3,3,0,0,0,0-.42,2.5,2.5,0,0,0-.24-.76,2.28,2.28,0,0,0-.49-.62,2.18,2.18,0,0,0-.69-.43A2.39,2.39,0,0,0,122.09,313.32Z"/><path class="cls-5" d="M136.13,312.91c0-.14.06-.21.2-.21h.36a.19.19,0,0,1,.21.21v1.56c.08-.14.18-.29.28-.43a2.43,2.43,0,0,1,.31-.38,4.24,4.24,0,0,1,1.3-.83,4,4,0,0,1,1.52-.29,4.15,4.15,0,0,1,1.12.15,4.33,4.33,0,0,1,1,.43,4.63,4.63,0,0,1,.86.67,4.51,4.51,0,0,1,.66.85,4.1,4.1,0,0,1,.43,1,4.29,4.29,0,0,1,0,2.25,4.1,4.1,0,0,1-.43,1,4.15,4.15,0,0,1-1.52,1.52,3.94,3.94,0,0,1-1,.43,4.12,4.12,0,0,1-1.91.07,4.69,4.69,0,0,1-.75-.24,4.52,4.52,0,0,1-.69-.36,4,4,0,0,1-.6-.47,2,2,0,0,1-.3-.37l-.31-.42v4.15a.13.13,0,0,1,0,.08.11.11,0,0,1-.08,0h-.46a.15.15,0,0,1-.17-.17Zm7.62,3.86a3.41,3.41,0,0,0-.27-1.34,3.56,3.56,0,0,0-.73-1.12,3.5,3.5,0,0,0-1.09-.76,3.14,3.14,0,0,0-1.33-.28,3.39,3.39,0,0,0-1.35.27,3.44,3.44,0,0,0-1.12.75,3.32,3.32,0,0,0-.76,1.11,3.28,3.28,0,0,0-.28,1.36,3.46,3.46,0,0,0,.27,1.35,3.63,3.63,0,0,0,.74,1.13,3.74,3.74,0,0,0,1.11.77,3.26,3.26,0,0,0,2.69,0,3.39,3.39,0,0,0,1.1-.76,3.7,3.7,0,0,0,.74-1.12A3.31,3.31,0,0,0,143.75,316.77Z"/><path class="cls-6" d="M149.44,316.77a4.2,4.2,0,0,1,.15-1.12,4.34,4.34,0,0,1,1.09-1.87,4.19,4.19,0,0,1,.86-.66,3.94,3.94,0,0,1,1-.43,4,4,0,0,1,2.24,0,4.1,4.1,0,0,1,1,.43,4.19,4.19,0,0,1,.86.66,4.34,4.34,0,0,1,1.09,1.87,4.29,4.29,0,0,1,0,2.25,4.1,4.1,0,0,1-.43,1,4.19,4.19,0,0,1-.66.86,4.57,4.57,0,0,1-.86.66,4.1,4.1,0,0,1-1,.43,4.26,4.26,0,0,1-2.24,0,3.94,3.94,0,0,1-1-.43,4.57,4.57,0,0,1-.86-.66,4.19,4.19,0,0,1-.66-.86,4.1,4.1,0,0,1-.43-1A4.22,4.22,0,0,1,149.44,316.77Zm.77,0a3.44,3.44,0,0,0,.12.91,3.83,3.83,0,0,0,.35.83,4.18,4.18,0,0,0,.53.72,3.82,3.82,0,0,0,.7.56,4,4,0,0,0,.82.36A3.34,3.34,0,0,0,155,320a3.44,3.44,0,0,0,1.12-.75,3.7,3.7,0,0,0,.75-1.1,3.33,3.33,0,0,0,.28-1.37,3.46,3.46,0,0,0-.27-1.35,3.59,3.59,0,0,0-1.84-1.89,3.23,3.23,0,0,0-1.34-.29,3.4,3.4,0,0,0-1.35.28,3.65,3.65,0,0,0-1.11.76,3.75,3.75,0,0,0-.74,1.13A3.23,3.23,0,0,0,150.21,316.77Z"/><path class="cls-7" d="M168,313.39c.09-.2.19-.4.28-.61a.21.21,0,0,1,.15-.09h.21a1,1,0,0,1,.29,0c.06,0,.08.07.08.15v.06l0,.05h0c-.14.32-.27.64-.4,1l-.4,1,1,2.38c.33.81.65,1.6,1,2.38l.4-1c.15-.36.3-.74.46-1.14s.33-.8.5-1.22.33-.83.5-1.23.32-.8.48-1.18l.42-1a.24.24,0,0,1,.09-.08l.15,0a.57.57,0,0,1,.18,0h.16a.21.21,0,0,1,.16.06.16.16,0,0,1,0,.12.13.13,0,0,1,0,.06.2.2,0,0,1,0,.05l-3.19,7.76a.24.24,0,0,1-.09.08.25.25,0,0,1-.16,0H170a.25.25,0,0,1-.15-.05.12.12,0,0,1-.06-.11l-1-2.41c-.34-.8-.67-1.6-1-2.41l-.46,1.1c-.15.38-.31.75-.46,1.14l-.47,1.13c-.15.38-.31.75-.45,1.11l-.16.38a.27.27,0,0,1-.25.12h-.21a.25.25,0,0,1-.15-.05.13.13,0,0,1-.07-.11L161.9,313s0-.06,0-.11,0-.14.11-.15a1.17,1.17,0,0,1,.29,0,.85.85,0,0,1,.23,0,.23.23,0,0,1,.15.12c.12.31.27.66.42,1s.32.77.48,1.17.33.82.5,1.24.34.84.51,1.23.32.79.47,1.15.28.69.41,1c.27-.67.6-1.47,1-2.42l1.29-3.22h0C167.81,313.8,167.9,313.6,168,313.39Z"/><path class="cls-8" d="M178.53,317.05c0,.07,0,.17,0,.29a1.86,1.86,0,0,0,.05.34,3.72,3.72,0,0,0,.48,1.05,3.38,3.38,0,0,0,1.71,1.36,3.21,3.21,0,0,0,1.12.19,4.26,4.26,0,0,0,.64,0,2.34,2.34,0,0,0,.55-.15,3.06,3.06,0,0,0,.49-.22,4,4,0,0,0,.43-.28l.13-.1.14-.1.12-.08a.12.12,0,0,1,.09,0s.08,0,.12.09a2.45,2.45,0,0,1,.16.24.33.33,0,0,1,.05.12.07.07,0,0,0,0,.12,1.37,1.37,0,0,1-.17.19,1.81,1.81,0,0,1-.25.19,4.26,4.26,0,0,1-1.12.58A4.08,4.08,0,0,1,182,321a4.14,4.14,0,0,1-1.64-.33,4.29,4.29,0,0,1-2.26-2.25,4,4,0,0,1-.34-1.64,4.22,4.22,0,0,1,.15-1.13,4.3,4.3,0,0,1,.42-1,4.23,4.23,0,0,1,.65-.86,3.94,3.94,0,0,1,.86-.66,4.17,4.17,0,0,1,1-.43,4.24,4.24,0,0,1,1.14-.16,4.34,4.34,0,0,1,1.09.14,4.25,4.25,0,0,1,1,.39,4.4,4.4,0,0,1,.85.64,3.82,3.82,0,0,1,.66.84,4.85,4.85,0,0,1,.44,1,4.71,4.71,0,0,1,.18,1.21h0s0,0,0,0a.19.19,0,0,1-.21.22Zm2.53-3.65a3.16,3.16,0,0,0-.92.41,3.73,3.73,0,0,0-1.3,1.5,3.78,3.78,0,0,0-.31,1h6.9a3.26,3.26,0,0,0-.38-1.19,3.62,3.62,0,0,0-.77-1,3.77,3.77,0,0,0-1.06-.63,3.4,3.4,0,0,0-1.23-.23l-.43,0A3.31,3.31,0,0,0,181.06,313.4Z"/><path class="cls-9" d="M196.57,314a.09.09,0,0,1-.07,0l-.1,0a.79.79,0,0,1-.16-.1l-.32-.2a3.52,3.52,0,0,0-.39-.18,2.86,2.86,0,0,0-.41-.15,2,2,0,0,0-.41,0,2.6,2.6,0,0,0-.93.17,2.38,2.38,0,0,0-.77.5,2.27,2.27,0,0,0-.52.78,2.58,2.58,0,0,0-.19,1v4.82c0,.14-.07.2-.21.2h-.34c-.14,0-.21-.06-.21-.2V312.9a.16.16,0,0,1,.18-.18h.34a.25.25,0,0,1,.18.07.25.25,0,0,1,.06.17V314a2.61,2.61,0,0,1,.35-.49,2.85,2.85,0,0,1,.52-.45,3.36,3.36,0,0,1,.66-.32,2.45,2.45,0,0,1,.78-.12,4.13,4.13,0,0,1,.63.05,3,3,0,0,1,.54.13,4.52,4.52,0,0,1,.5.23,3.43,3.43,0,0,1,.48.33.57.57,0,0,1,.11.11.17.17,0,0,1,0,.13.3.3,0,0,1-.11.18A1.75,1.75,0,0,1,196.57,314Z"/><path class="cls-10" d="M202,310.31a.56.56,0,0,1,0-.2.18.18,0,0,1,.15-.09h.47a.17.17,0,0,1,.15.09.6.6,0,0,1,0,.2v.25a.35.35,0,0,1-.06.24.39.39,0,0,1-.23.05h-.23a.45.45,0,0,1-.24-.05.17.17,0,0,1-.07-.16Zm0,2.59c0-.14.06-.21.2-.21h.34a.19.19,0,0,1,.21.21v7.74a.18.18,0,0,1-.2.2h-.34c-.14,0-.21-.06-.21-.2Z"/><path class="cls-11" d="M208.77,312.93a.21.21,0,0,1,.07-.18.24.24,0,0,1,.17-.06h.27a.21.21,0,0,1,.17.07.24.24,0,0,1,.06.17v.95a3,3,0,0,1,.63-.69,3.08,3.08,0,0,1,.71-.42,3,3,0,0,1,.73-.2,4,4,0,0,1,.66-.06,3.25,3.25,0,0,1,1.35.27,3.17,3.17,0,0,1,1,.74,3.42,3.42,0,0,1,.67,1.1,3.71,3.71,0,0,1,.24,1.34v4.6a.27.27,0,0,1-.07.21.25.25,0,0,1-.19.07h-.23a.25.25,0,0,1-.2-.06.3.3,0,0,1-.05-.21v-4.64a3.35,3.35,0,0,0-.2-1,2.71,2.71,0,0,0-.51-.85,2.62,2.62,0,0,0-.81-.61,2.53,2.53,0,0,0-1.09-.22,2.79,2.79,0,0,0-1.82.69,2.54,2.54,0,0,0-.61.8,2.49,2.49,0,0,0-.26,1v4.85c0,.14-.06.2-.19.2H209a.18.18,0,0,1-.2-.2v-1.79s0,0,0-.07Z"/><path class="cls-12" d="M228.51,314.47v-.2a1.65,1.65,0,0,1,0-.21v-1.17a.24.24,0,0,1,.06-.17.24.24,0,0,1,.18-.07H229a.22.22,0,0,1,.18.08.26.26,0,0,1,.07.17v6.71a0,0,0,0,1,0,0v0a5.51,5.51,0,0,1-.18,1.35,4.9,4.9,0,0,1-.45,1.06,3.37,3.37,0,0,1-.66.78,3.16,3.16,0,0,1-.83.53,4.07,4.07,0,0,1-.93.31,5.36,5.36,0,0,1-1,.1,4.82,4.82,0,0,1-1.26-.16,4.09,4.09,0,0,1-1-.44.29.29,0,0,1-.1-.08.15.15,0,0,1,0-.11.22.22,0,0,1,0-.09.13.13,0,0,1,0-.08.48.48,0,0,0,.08-.12,1.83,1.83,0,0,0,.16-.22.07.07,0,0,1,.09,0,.17.17,0,0,1,.1,0l.28.15a3.05,3.05,0,0,0,.47.19,4.45,4.45,0,0,0,.58.15,2.7,2.7,0,0,0,.63.07,3.71,3.71,0,0,0,1.31-.22,2.8,2.8,0,0,0,1.05-.64,2.9,2.9,0,0,0,.7-1,3.71,3.71,0,0,0,.26-1.42V319a4.23,4.23,0,0,1-.63.83,3.78,3.78,0,0,1-.83.61,4,4,0,0,1-1,.39,3.94,3.94,0,0,1-1,.14,4.07,4.07,0,0,1-1.11-.15,4.8,4.8,0,0,1-1-.43,4.05,4.05,0,0,1-.86-.67,3.69,3.69,0,0,1-.67-.86,3.8,3.8,0,0,1-.43-1,4.26,4.26,0,0,1,0-2.24,5.12,5.12,0,0,1,.43-1,4.56,4.56,0,0,1,.67-.85,4.63,4.63,0,0,1,.86-.67,4.49,4.49,0,0,1,1-.42,3.77,3.77,0,0,1,1.11-.16,3.94,3.94,0,0,1,2,.54,3.74,3.74,0,0,1,.81.61A4,4,0,0,1,228.51,314.47Zm-6.89,2.3a3.69,3.69,0,0,0,.47,1.74,3.7,3.7,0,0,0,.54.71,3.32,3.32,0,0,0,.69.56,3.38,3.38,0,0,0,.82.37,3.08,3.08,0,0,0,.91.13,3.36,3.36,0,0,0,1.26-.24,3.48,3.48,0,0,0,1.06-.65,3.67,3.67,0,0,0,.77-1,3.37,3.37,0,0,0,.39-1.21v-.84a3.64,3.64,0,0,0-.38-1.21,3.53,3.53,0,0,0-.76-1,3.46,3.46,0,0,0-1-.66,3.24,3.24,0,0,0-1.25-.24,3.57,3.57,0,0,0-.92.12,4.09,4.09,0,0,0-.83.36,3.33,3.33,0,0,0-.7.55,3.41,3.41,0,0,0-.54.71,3.47,3.47,0,0,0-.35.84A3.6,3.6,0,0,0,221.62,316.77Z"/><path class="cls-13" d="M242.35,310.31a.54.54,0,0,1,0-.2.16.16,0,0,1,.14-.09H243c.09,0,.14,0,.16.09a.6.6,0,0,1,0,.2v.25a.35.35,0,0,1-.06.24.43.43,0,0,1-.24.05h-.23a.48.48,0,0,1-.24-.05.19.19,0,0,1-.07-.16Zm0,2.59a.19.19,0,0,1,.21-.21h.34a.19.19,0,0,1,.21.21v7.74a.18.18,0,0,1-.2.2h-.34c-.14,0-.22-.06-.22-.2Z"/><path class="cls-14" d="M257.17,320.64c0,.14-.07.2-.21.2h-.34a.18.18,0,0,1-.2-.2v-1.09l0-.47c-.08.14-.18.28-.27.43a2.37,2.37,0,0,1-.32.37,4.22,4.22,0,0,1-1.29.84,4.21,4.21,0,0,1-3.66-.3,4.19,4.19,0,0,1-.86-.66,5,5,0,0,1-.66-.85,4.52,4.52,0,0,1-.43-1,4.29,4.29,0,0,1,0-2.25,4.33,4.33,0,0,1,.43-1,4.67,4.67,0,0,1,.66-.86,4.19,4.19,0,0,1,.86-.66,4.1,4.1,0,0,1,1-.43,4.15,4.15,0,0,1,1.12-.16,3.42,3.42,0,0,1,.79.09,4.66,4.66,0,0,1,.75.23,5.7,5.7,0,0,1,.69.37,4,4,0,0,1,.6.47,3.31,3.31,0,0,1,.31.36c.08.13.18.27.3.43v-4.15a.1.1,0,0,1,.11-.11H257a.16.16,0,0,1,.18.18Zm-7.63-3.87a3.43,3.43,0,0,0,.27,1.35,3.49,3.49,0,0,0,1.82,1.88,3.14,3.14,0,0,0,1.33.28,3.47,3.47,0,0,0,1.36-.27,3.86,3.86,0,0,0,1.12-.75,3.68,3.68,0,0,0,.75-1.11,3.31,3.31,0,0,0,.28-1.36,3.47,3.47,0,0,0-.27-1.36,3.7,3.7,0,0,0-.74-1.12,3.62,3.62,0,0,0-1.11-.77,3.23,3.23,0,0,0-1.34-.29,3.4,3.4,0,0,0-1.35.28,3.59,3.59,0,0,0-1.84,1.89A3.3,3.3,0,0,0,249.54,316.77Z"/><path class="cls-15" d="M263.09,317.05c0,.07,0,.17,0,.29a1.27,1.27,0,0,0,.05.34,4,4,0,0,0,.47,1.05,3.5,3.5,0,0,0,1.71,1.36,3.27,3.27,0,0,0,1.13.19,4.26,4.26,0,0,0,.64,0,2.34,2.34,0,0,0,.55-.15,2.62,2.62,0,0,0,.48-.22,4.08,4.08,0,0,0,.44-.28l.13-.1.13-.1.12-.08a.16.16,0,0,1,.1,0s.07,0,.12.09l.16.24a.27.27,0,0,1,0,.12.07.07,0,0,1,0,.06.09.09,0,0,1,0,.06l-.17.19a1.81,1.81,0,0,1-.25.19,4.32,4.32,0,0,1-1.13.58,4,4,0,0,1-1.32.21,4.11,4.11,0,0,1-1.64-.33,4.29,4.29,0,0,1-2.26-2.25,4,4,0,0,1-.34-1.64,4.22,4.22,0,0,1,.15-1.13,3.89,3.89,0,0,1,.41-1,4.27,4.27,0,0,1,.66-.86,3.94,3.94,0,0,1,.86-.66,3.86,3.86,0,0,1,1-.43,4.24,4.24,0,0,1,1.14-.16,4.4,4.4,0,0,1,1.09.14,4.25,4.25,0,0,1,1,.39,4.4,4.4,0,0,1,.85.64,4.53,4.53,0,0,1,.66.84,4.38,4.38,0,0,1,.43,1,5.19,5.19,0,0,1,.19,1.21h0v0c0,.14-.07.22-.2.22Zm2.52-3.65a3.11,3.11,0,0,0-.91.41,3.2,3.2,0,0,0-.76.66,3.69,3.69,0,0,0-.55.84,3.76,3.76,0,0,0-.3,1H270a3.09,3.09,0,0,0-.39-1.19,3.43,3.43,0,0,0-.77-1,3.71,3.71,0,0,0-1.05-.63,3.45,3.45,0,0,0-1.24-.23l-.42,0A3.4,3.4,0,0,0,265.61,313.4Z"/><path class="cls-16" d="M283.49,319.55l0-.49a3.49,3.49,0,0,1-.62.81,3.89,3.89,0,0,1-.8.6,4.07,4.07,0,0,1-2,.53,4.15,4.15,0,0,1-1.12-.15,4.35,4.35,0,0,1-1-.44,3.94,3.94,0,0,1-.86-.66,4.24,4.24,0,0,1-.67-.86,3.94,3.94,0,0,1-.43-1,4.26,4.26,0,0,1,0-2.24,4.52,4.52,0,0,1,.43-1,4.63,4.63,0,0,1,.67-.86,4.27,4.27,0,0,1,.86-.66,3.94,3.94,0,0,1,1-.43,3.79,3.79,0,0,1,1.12-.16,4,4,0,0,1,1,.14,3.8,3.8,0,0,1,1,.39,4.48,4.48,0,0,1,.82.61,3.53,3.53,0,0,1,.63.81v-1.58a.18.18,0,0,1,.2-.21H284a.19.19,0,0,1,.22.21v7.75a.18.18,0,0,1-.07.15.26.26,0,0,1-.17,0h-.26c-.17,0-.26-.07-.26-.23Zm0-2.78a3.22,3.22,0,0,0-.28-1.34,3.64,3.64,0,0,0-.76-1.12,3.71,3.71,0,0,0-1.11-.76,3.22,3.22,0,0,0-1.33-.29h0a3.08,3.08,0,0,0-1.31.28,3.7,3.7,0,0,0-1.1.77,3.54,3.54,0,0,0-.74,1.11,3.17,3.17,0,0,0-.28,1.33,3.46,3.46,0,0,0,.27,1.35,3.67,3.67,0,0,0,.73,1.12,3.37,3.37,0,0,0,1.09.77,3,3,0,0,0,1.33.29,3.27,3.27,0,0,0,1.35-.28,3.52,3.52,0,0,0,1.12-.76,3.47,3.47,0,0,0,.76-1.12A3.27,3.27,0,0,0,283.53,316.77Z"/><path class="cls-17" d="M289.32,319.14a.14.14,0,0,1,0-.06.11.11,0,0,1,0-.05.17.17,0,0,1,0-.13l.11-.07.25-.11h.1a.1.1,0,0,1,.09.06.46.46,0,0,1,.07.14l.06.17a1.26,1.26,0,0,0,.07.16,1.23,1.23,0,0,0,.36.46,1.81,1.81,0,0,0,.5.33,2.72,2.72,0,0,0,.55.18,2.58,2.58,0,0,0,.51.07,2.8,2.8,0,0,0,.66-.09,2.38,2.38,0,0,0,.68-.28,1.68,1.68,0,0,0,.54-.49,1.18,1.18,0,0,0,.22-.74,1.26,1.26,0,0,0-.19-.68,1.94,1.94,0,0,0-.5-.49,2.84,2.84,0,0,0-.68-.32c-.26-.09-.51-.16-.76-.22a4.74,4.74,0,0,1-.92-.31,3.56,3.56,0,0,1-.79-.46,2.49,2.49,0,0,1-.55-.63,1.7,1.7,0,0,1-.2-.81,2.25,2.25,0,0,1,.18-.92,2,2,0,0,1,.52-.71,2.43,2.43,0,0,1,.81-.45,3.39,3.39,0,0,1,1-.16,3,3,0,0,1,.87.12,2.91,2.91,0,0,1,.71.34,2.26,2.26,0,0,1,.54.53,2.8,2.8,0,0,1,.39.7h0a.16.16,0,0,1,0,.1.15.15,0,0,1-.05.11.58.58,0,0,1-.12.1l-.14.07-.11,0a.2.2,0,0,1-.11,0s-.05,0-.06-.07l-.06-.11a1.09,1.09,0,0,0-.08-.15,2.05,2.05,0,0,0-1.82-1,2.39,2.39,0,0,0-.66.09,1.67,1.67,0,0,0-.57.27,1.19,1.19,0,0,0-.39.47,1.33,1.33,0,0,0-.15.65.93.93,0,0,0,.2.58,1.78,1.78,0,0,0,.47.43,4.48,4.48,0,0,0,.62.31l.6.18h.08a5.47,5.47,0,0,1,1.08.35,3.17,3.17,0,0,1,.82.51,2.28,2.28,0,0,1,.53.68,1.92,1.92,0,0,1,.19.87,2,2,0,0,1-.24,1,2.31,2.31,0,0,1-.62.74,3,3,0,0,1-.92.45A3.6,3.6,0,0,1,292,321a3.44,3.44,0,0,1-.91-.12,2.58,2.58,0,0,1-1.42-.95A2.16,2.16,0,0,1,289.32,319.14Z"/><path class="cls-18" d="M91.55,278.61h5.68v3.81H91.55v4.67h7.62v3.84H87.75V269.88H99.17v3.81H91.55Zm0-4.92v0Z"/><path class="cls-19" d="M121.52,270v20.9l-3.33-3.47-7.87-8.1v11.54h-3.81V270l3.32,3.47,7.88,8.1V270Zm-3.81,0h0Z"/><path class="cls-20" d="M128.86,269.92h11.86v3.8h-4.1v17.21h-3.81V273.72h-3.95Zm0,0v0Z"/><path class="cls-21" d="M160.91,290.93h-4.44l-4.26-7.13h-.56v7.13h-3.81v-21h3.81v0h1.79a6.68,6.68,0,0,1,4.89,2,7,7,0,0,1,2,4.89,6.66,6.66,0,0,1-2,4.89,6.81,6.81,0,0,1-2.05,1.42Zm-9.26-11h1.79a3.06,3.06,0,0,0,3.1-3.1,3.15,3.15,0,0,0-.89-2.2,3,3,0,0,0-2.21-.9h-1.79Z"/><path class="cls-22" d="M171.46,278.61h5.67v3.81h-5.67v4.67h7.61v3.84H167.65V269.88h11.42v3.81h-7.61Zm0-4.92v0Z"/><path class="cls-23" d="M190.22,269.92v0H192a6.66,6.66,0,0,1,4.88,2,7,7,0,0,1,2.06,4.89A7,7,0,0,1,192,283.8h-1.8v7.13h-3.8v-21Zm-3.8,0h0Zm3.8,3.84V280H192a3.06,3.06,0,0,0,3.09-3.1,3.15,3.15,0,0,0-.89-2.2,3,3,0,0,0-2.2-.9Z"/><path class="cls-24" d="M218.77,290.93h-4.45l-4.25-7.13h-.56v7.13H205.7v-21h3.81v0h1.79a6.7,6.7,0,0,1,4.89,2,7,7,0,0,1,2.05,4.89,6.66,6.66,0,0,1-2.05,4.89,6.94,6.94,0,0,1-2.05,1.42Zm-9.26-11h1.79a3.07,3.07,0,0,0,3.1-3.1,3.12,3.12,0,0,0-.9-2.2,3,3,0,0,0-2.2-.9h-1.79Z"/><path class="cls-25" d="M229.32,278.61H235v3.81h-5.67v4.67h7.61v3.84H225.51V269.88h11.42v3.81h-7.61Zm0-4.92v0Z"/><path class="cls-26" d="M259.28,270v20.9L256,287.38l-7.88-8.1v11.54h-3.8V270l3.32,3.47,7.87,8.1V270Zm-3.81,0h0Z"/><path class="cls-27" d="M270.43,278.61h5.67v3.81h-5.67v4.67H278v3.84H266.62V269.88H278v3.81h-7.61Zm0-4.92v0Z"/><path class="cls-28" d="M289.42,269.92v12.2a8.07,8.07,0,0,0,.37,3.25,3.61,3.61,0,0,0,1.34,1.53,3.36,3.36,0,0,0,1.87.56,3.32,3.32,0,0,0,1.75-.49,3.51,3.51,0,0,0,1.35-1.3,6.48,6.48,0,0,0,.48-3.36V269.92h3.85v12.39a9.7,9.7,0,0,1-1.05,5.3,7.51,7.51,0,0,1-2.72,2.68,7.13,7.13,0,0,1-3.66,1,7.05,7.05,0,0,1-4-1.15,7.29,7.29,0,0,1-2.72-3.1,10.5,10.5,0,0,1-.75-4.93,6.34,6.34,0,0,0,0-.85V269.92Zm0,0h0Z"/><path class="cls-29" d="M320.53,290.93h-4.44l-4.25-7.13h-.56v7.13h-3.81v-21h3.81v0h1.79a6.7,6.7,0,0,1,4.89,2,7,7,0,0,1,2.05,4.89,6.7,6.7,0,0,1-2.05,4.89,7,7,0,0,1-2.06,1.42Zm-9.25-11h1.79a3.06,3.06,0,0,0,3.09-3.1,3.11,3.11,0,0,0-.89-2.2,3,3,0,0,0-2.2-.9h-1.79Z"/><path class="cls-30" d="M104.49,245.88v17.5H95.78V246.3L81.49,216.19h9.56l9,18.86,8.88-18.86h9.56Zm0,0,14-29.69Z"/><path class="cls-31" d="M164.62,221.61a25.11,25.11,0,1,1-17.76-7.36A24.62,24.62,0,0,1,164.62,221.61Zm-17.76,1.26a16.49,16.49,0,0,0,0,33,16.46,16.46,0,0,0,16.49-16.49,16.43,16.43,0,0,0-4.82-11.58A16.19,16.19,0,0,0,146.86,222.87Z"/><path class="cls-32" d="M190.5,215.77v27.65c0,2.71-.08,5.42.85,7.36a8,8,0,0,0,3,3.47,7.58,7.58,0,0,0,4.23,1.27,7.68,7.68,0,0,0,4-1.1,7.92,7.92,0,0,0,3-3c1.27-2,1.1-4.82,1.1-7.61V215.77h8.71v28.08c0,4,0,8-2.37,12a16.82,16.82,0,0,1-6.17,6.09,16.17,16.17,0,0,1-8.29,2.2,15.83,15.83,0,0,1-9-2.62,16.54,16.54,0,0,1-6.18-7c-1.86-3.8-1.69-7.53-1.69-11.16a14.73,14.73,0,0,0,.09-2V215.77Zm0,0h0Z"/><path class="cls-33" d="M262.05,215.85v47.36l-7.53-7.86L236.68,237v26.13h-8.63V215.85l7.53,7.87,17.84,18.35V215.85Zm-8.63,0h0Z"/><path class="cls-34" d="M294.52,239.11h26.22v.08c0,7-2.28,13.11-6.93,17.76a25.63,25.63,0,0,1-18.27,7.53,24.16,24.16,0,0,1-17.76-7.36,25.1,25.1,0,0,1,0-35.51A25.25,25.25,0,0,1,307,217a24,24,0,0,1,9,7.7l-7,5.07a16.79,16.79,0,0,0-5.83-5,15.75,15.75,0,0,0-7.53-1.86A16.16,16.16,0,0,0,284,227.78a16.45,16.45,0,0,0,11.59,28.07,17.12,17.12,0,0,0,12.09-5,20.1,20.1,0,0,0,2.37-3l-15.48-.17Zm0,0v0Z"/><rect class="cls-35" x="61.05" y="299.67" width="274.87" height="1.65"/><g class="cls-36"><polygon class="cls-37" points="279.67 130.25 179.18 57.42 279.67 57.42 279.67 130.25"/><polygon class="cls-37" points="279.67 134.54 173.26 57.42 179.18 57.42 279.67 130.25 279.67 134.54"/><polygon class="cls-38" points="279.67 138.83 167.34 57.42 173.26 57.42 279.67 134.54 279.67 138.83"/><polygon class="cls-39" points="279.67 143.12 161.43 57.42 167.34 57.42 279.67 138.83 279.67 143.12"/><polygon class="cls-40" points="279.67 147.41 155.51 57.42 161.43 57.42 279.67 143.12 279.67 147.41"/><polygon class="cls-41" points="279.67 151.7 155.25 61.52 155.25 57.42 155.51 57.42 279.67 147.41 279.67 151.7"/><polygon class="cls-42" points="279.67 151.81 277.68 154.55 155.25 65.81 155.25 61.52 279.67 151.7 279.67 151.81"/><polygon class="cls-43" points="277.68 154.55 275.64 157.37 155.25 70.1 155.25 65.81 277.68 154.55"/><polygon class="cls-44" points="275.64 157.37 273.6 160.18 155.25 74.39 155.25 70.1 275.64 157.37"/><polygon class="cls-45" points="273.6 160.18 271.57 162.99 155.25 78.68 155.25 74.39 273.6 160.18"/><polygon class="cls-46" points="271.57 162.99 269.53 165.8 155.25 82.97 155.25 78.68 271.57 162.99"/><polygon class="cls-47" points="269.53 165.8 267.49 168.61 155.25 87.26 155.25 82.97 269.53 165.8"/><polygon class="cls-48" points="267.49 168.61 265.45 171.43 155.25 91.55 155.25 87.26 267.49 168.61"/><polygon class="cls-49" points="265.45 171.43 263.41 174.24 155.25 95.84 155.25 91.55 265.45 171.43"/><polygon class="cls-50" points="263.41 174.24 261.37 177.05 155.25 100.13 155.25 95.84 263.41 174.24"/><polygon class="cls-51" points="261.37 177.05 259.34 179.86 155.25 104.42 155.25 100.13 261.37 177.05"/><polygon class="cls-52" points="259.34 179.86 257.3 182.68 155.25 108.71 155.25 104.42 259.34 179.86"/><polygon class="cls-53" points="257.3 182.68 255.26 185.49 155.25 113 155.25 108.71 257.3 182.68"/><polygon class="cls-54" points="255.26 185.49 253.22 188.3 155.25 117.29 155.25 113 255.26 185.49"/><polygon class="cls-55" points="253.22 188.3 251.18 191.11 155.25 121.58 155.25 117.29 253.22 188.3"/><polygon class="cls-56" points="251.18 191.11 249.14 193.92 155.25 125.87 155.25 121.58 251.18 191.11"/><polygon class="cls-57" points="249.14 193.92 247.1 196.74 155.25 130.16 155.25 125.87 249.14 193.92"/><polygon class="cls-58" points="247.1 196.74 245.07 199.55 155.25 134.45 155.25 130.16 247.1 196.74"/><polygon class="cls-59" points="245.07 199.55 243.03 202.36 155.25 138.74 155.25 134.45 245.07 199.55"/><polygon class="cls-60" points="243.03 202.36 242.5 203.09 238.11 203.09 155.25 143.03 155.25 138.74 243.03 202.36"/><polygon class="cls-61" points="232.19 203.09 155.25 147.32 155.25 143.03 238.11 203.09 232.19 203.09"/><polygon class="cls-62" points="226.27 203.09 155.25 151.61 155.25 147.32 232.19 203.09 226.27 203.09"/><polygon class="cls-63" points="220.36 203.09 155.25 155.9 155.25 151.61 226.27 203.09 220.36 203.09"/><polygon class="cls-64" points="214.44 203.09 155.25 160.19 155.25 155.9 220.36 203.09 214.44 203.09"/><polygon class="cls-65" points="208.52 203.09 155.25 164.48 155.25 160.19 214.44 203.09 208.52 203.09"/><polygon class="cls-66" points="202.6 203.09 155.25 168.77 155.25 164.48 208.52 203.09 202.6 203.09"/><polygon class="cls-67" points="196.68 203.09 155.25 173.06 155.25 168.77 202.6 203.09 196.68 203.09"/><polygon class="cls-68" points="190.76 203.09 155.25 177.35 155.25 173.06 196.68 203.09 190.76 203.09"/><polygon class="cls-69" points="184.85 203.09 155.25 181.64 155.25 177.35 190.76 203.09 184.85 203.09"/><polygon class="cls-70" points="178.93 203.09 155.25 185.93 155.25 181.64 184.85 203.09 178.93 203.09"/><polygon class="cls-71" points="173.01 203.09 155.25 190.22 155.25 185.93 178.93 203.09 173.01 203.09"/><polygon class="cls-72" points="167.09 203.09 155.25 194.51 155.25 190.22 173.01 203.09 167.09 203.09"/><polygon class="cls-73" points="161.17 203.09 155.25 198.8 155.25 194.51 167.09 203.09 161.17 203.09"/><polygon class="cls-74" points="155.25 203.09 155.25 203.09 155.25 198.8 161.17 203.09 155.25 203.09"/><polygon class="cls-74" points="155.25 203.09 155.25 203.09 155.25 57.42 279.67 57.42 279.67 203.09 155.25 203.09"/></g><g class="cls-75"><rect class="cls-76" x="272.09" y="63.76" width="0.38" height="132.98"/><rect class="cls-77" x="269.29" y="63.76" width="2.8" height="132.98"/><rect class="cls-78" x="266.49" y="63.76" width="2.8" height="132.98"/><rect class="cls-79" x="263.69" y="63.76" width="2.8" height="132.98"/><rect class="cls-80" x="260.88" y="63.76" width="2.8" height="132.98"/><rect class="cls-81" x="258.08" y="63.76" width="2.8" height="132.98"/><rect class="cls-82" x="255.28" y="63.76" width="2.8" height="132.98"/><rect class="cls-83" x="252.48" y="63.76" width="2.8" height="132.98"/><rect class="cls-84" x="249.68" y="63.76" width="2.8" height="132.98"/><rect class="cls-85" x="246.88" y="63.76" width="2.8" height="132.98"/><rect class="cls-86" x="244.08" y="63.76" width="2.8" height="132.98"/><rect class="cls-87" x="241.27" y="63.76" width="2.8" height="132.98"/><rect class="cls-88" x="238.47" y="63.76" width="2.8" height="132.98"/><rect class="cls-89" x="235.67" y="63.76" width="2.8" height="132.98"/><rect class="cls-90" x="232.87" y="63.76" width="2.8" height="132.98"/><rect class="cls-91" x="230.07" y="63.76" width="2.8" height="132.98"/><rect class="cls-92" x="227.27" y="63.76" width="2.8" height="132.98"/><rect class="cls-93" x="224.46" y="63.76" width="2.8" height="132.98"/><rect class="cls-94" x="221.66" y="63.76" width="2.8" height="132.98"/><rect class="cls-95" x="218.86" y="63.76" width="2.8" height="132.98"/><rect class="cls-96" x="216.06" y="63.76" width="2.8" height="132.98"/><rect class="cls-97" x="213.26" y="63.76" width="2.8" height="132.98"/><rect class="cls-98" x="210.46" y="63.76" width="2.8" height="132.98"/><rect class="cls-99" x="207.65" y="63.76" width="2.8" height="132.98"/><rect class="cls-100" x="204.85" y="63.76" width="2.8" height="132.98"/><rect class="cls-101" x="202.05" y="63.76" width="2.8" height="132.98"/><rect class="cls-102" x="199.25" y="63.76" width="2.8" height="132.98"/><rect class="cls-103" x="196.45" y="63.76" width="2.8" height="132.98"/><rect class="cls-104" x="193.65" y="63.76" width="2.8" height="132.98"/><rect class="cls-105" x="190.84" y="63.76" width="2.8" height="132.98"/><rect class="cls-106" x="188.04" y="63.76" width="2.8" height="132.98"/><rect class="cls-107" x="185.24" y="63.76" width="2.8" height="132.98"/><rect class="cls-108" x="182.44" y="63.76" width="2.8" height="132.98"/><rect class="cls-109" x="179.64" y="63.76" width="2.8" height="132.98"/><rect class="cls-110" x="176.84" y="63.76" width="2.8" height="132.98"/><rect class="cls-111" x="174.04" y="63.76" width="2.8" height="132.98"/><rect class="cls-112" x="171.23" y="63.76" width="2.8" height="132.98"/><rect class="cls-113" x="168.43" y="63.76" width="2.8" height="132.98"/><rect class="cls-114" x="165.63" y="63.76" width="2.8" height="132.98"/><rect class="cls-115" x="162.83" y="63.76" width="2.8" height="132.98"/><rect class="cls-116" x="160.03" y="63.76" width="2.8" height="132.98"/><rect class="cls-117" x="158.89" y="63.76" width="1.14" height="132.98"/><path class="cls-118" d="M283.3,206.72v0Z"/><rect class="cls-118" x="280.5" y="53.62" width="2.8" height="153.1"/><rect class="cls-119" x="277.69" y="53.62" width="2.8" height="153.1"/><rect class="cls-120" x="274.89" y="53.62" width="2.8" height="153.1"/><rect class="cls-76" x="272.09" y="53.62" width="2.8" height="153.1"/><rect class="cls-77" x="269.29" y="53.62" width="2.8" height="153.1"/><rect class="cls-78" x="266.49" y="53.62" width="2.8" height="153.1"/><rect class="cls-79" x="263.69" y="53.62" width="2.8" height="153.1"/><rect class="cls-80" x="260.88" y="53.62" width="2.8" height="153.1"/><rect class="cls-81" x="258.08" y="53.62" width="2.8" height="153.1"/><rect class="cls-82" x="255.28" y="53.62" width="2.8" height="153.1"/><rect class="cls-83" x="252.48" y="53.62" width="2.8" height="153.1"/><rect class="cls-84" x="249.68" y="53.62" width="2.8" height="153.1"/><rect class="cls-85" x="246.88" y="53.62" width="2.8" height="153.1"/><rect class="cls-86" x="244.08" y="53.62" width="2.8" height="153.1"/><rect class="cls-87" x="241.27" y="53.62" width="2.8" height="153.1"/><rect class="cls-88" x="238.47" y="53.62" width="2.8" height="153.1"/><rect class="cls-89" x="235.67" y="53.62" width="2.8" height="153.1"/><rect class="cls-90" x="232.87" y="53.62" width="2.8" height="153.1"/><rect class="cls-91" x="230.07" y="53.62" width="2.8" height="153.1"/><rect class="cls-92" x="227.27" y="53.62" width="2.8" height="153.1"/><rect class="cls-93" x="224.46" y="53.62" width="2.8" height="153.1"/><rect class="cls-94" x="221.66" y="53.62" width="2.8" height="153.1"/><rect class="cls-95" x="218.86" y="53.62" width="2.8" height="153.1"/><rect class="cls-96" x="216.06" y="53.62" width="2.8" height="153.1"/><rect class="cls-97" x="213.26" y="53.62" width="2.8" height="153.1"/><rect class="cls-98" x="210.46" y="53.62" width="2.8" height="153.1"/><rect class="cls-99" x="207.65" y="53.62" width="2.8" height="153.1"/><rect class="cls-100" x="204.85" y="53.62" width="2.8" height="153.1"/><rect class="cls-101" x="202.05" y="53.62" width="2.8" height="153.1"/><rect class="cls-102" x="199.25" y="53.62" width="2.8" height="153.1"/><rect class="cls-103" x="196.45" y="53.62" width="2.8" height="153.1"/><rect class="cls-104" x="193.65" y="53.62" width="2.8" height="153.1"/><rect class="cls-105" x="190.84" y="53.62" width="2.8" height="153.1"/><rect class="cls-106" x="188.04" y="53.62" width="2.8" height="153.1"/><rect class="cls-107" x="185.24" y="53.62" width="2.8" height="153.1"/><rect class="cls-108" x="182.44" y="53.62" width="2.8" height="153.1"/><rect class="cls-109" x="179.64" y="53.62" width="2.8" height="153.1"/><rect class="cls-110" x="176.84" y="53.62" width="2.8" height="153.1"/><rect class="cls-111" x="174.04" y="53.62" width="2.8" height="153.1"/><rect class="cls-112" x="171.23" y="53.62" width="2.8" height="153.1"/><rect class="cls-113" x="168.43" y="53.62" width="2.8" height="153.1"/><rect class="cls-114" x="165.63" y="53.62" width="2.8" height="153.1"/><rect class="cls-115" x="162.83" y="53.62" width="2.8" height="153.1"/><rect class="cls-116" x="160.03" y="53.62" width="2.8" height="153.1"/><rect class="cls-117" x="157.23" y="53.62" width="2.8" height="153.1"/><rect class="cls-121" x="154.42" y="53.62" width="2.8" height="153.1"/><rect class="cls-122" x="151.62" y="53.62" width="2.8" height="153.1"/><path class="cls-122" d="M151.62,53.62v0Z"/></g><circle class="cls-123" cx="232.28" cy="190.64" r="14.82"/><path class="cls-124" d="M198.94,142.66v28.39h-13.5V142.66l-25.67-40.82h14.34l18,29.53,18.08-29.53h14.29Z"/><circle class="cls-125" cx="246.51" cy="93.86" r="29.86"/><path class="cls-126" d="M266.26,108.29a22.74,22.74,0,0,1-8.88,7.24,28.08,28.08,0,0,1-11.17,2,23.41,23.41,0,0,1-9.52-1.91,21.44,21.44,0,0,1-7.16-5.08,22.14,22.14,0,0,1-4.5-7.52,26.66,26.66,0,0,1-1.56-9.25,25.86,25.86,0,0,1,1.76-9.57,22.29,22.29,0,0,1,4.84-7.5,21.48,21.48,0,0,1,7.33-4.83,24.13,24.13,0,0,1,9.25-1.71,22.94,22.94,0,0,1,8.66,1.62,18.66,18.66,0,0,1,6.77,4.64,20.72,20.72,0,0,1,4.36,7.43,30.14,30.14,0,0,1,1.51,10v2.4l-36.39-.11a15.74,15.74,0,0,0,1.38,5.54,16.23,16.23,0,0,0,3.11,4.63,14.55,14.55,0,0,0,4.52,3.14,13.63,13.63,0,0,0,5.67,1.17,17.94,17.94,0,0,0,8.29-1.7,18.8,18.8,0,0,0,6.08-5.09Zm-6.39-18.41a12.94,12.94,0,0,0-3.72-9.25q-3.55-3.48-9.81-3.5t-10.12,3.44a14.57,14.57,0,0,0-4.65,9.22Z"/></g></g></svg>