<svg xmlns="http://www.w3.org/2000/svg" xmlns:xlink="http://www.w3.org/1999/xlink" viewBox="0 0 399.5 375.59"><defs><style>.cls-1{fill:none;}.cls-2{fill:url(#linear-gradient);}.cls-3{fill:url(#linear-gradient-2);}.cls-4{fill:url(#linear-gradient-3);}.cls-5{fill:url(#linear-gradient-4);}.cls-6{fill:url(#linear-gradient-5);}.cls-7{fill:url(#linear-gradient-6);}.cls-8{fill:url(#linear-gradient-7);}.cls-9{fill:url(#linear-gradient-8);}.cls-10{fill:url(#linear-gradient-9);}.cls-11{fill:url(#linear-gradient-10);}.cls-12{fill:url(#linear-gradient-11);}.cls-13{fill:url(#linear-gradient-12);}.cls-14{fill:url(#linear-gradient-13);}.cls-15{fill:url(#linear-gradient-14);}.cls-16{fill:url(#linear-gradient-15);}.cls-17{fill:url(#linear-gradient-16);}.cls-18{fill:url(#linear-gradient-17);}.cls-19{fill:url(#linear-gradient-18);}.cls-20{fill:url(#linear-gradient-19);}.cls-21{fill:url(#linear-gradient-20);}.cls-22{fill:url(#linear-gradient-21);}.cls-23{fill:url(#linear-gradient-22);}.cls-24{fill:url(#linear-gradient-23);}.cls-25{fill:url(#linear-gradient-24);}.cls-26{fill:url(#linear-gradient-25);}.cls-27{fill:url(#linear-gradient-26);}.cls-28{fill:url(#linear-gradient-27);}.cls-29{fill:url(#linear-gradient-28);}.cls-30{fill:url(#linear-gradient-29);}.cls-31{fill:url(#linear-gradient-30);}.cls-32{fill:url(#linear-gradient-31);}.cls-33{fill:url(#linear-gradient-32);}.cls-34{fill:url(#linear-gradient-33);}.cls-35{fill:url(#linear-gradient-34);}.cls-36{clip-path:url(#clip-path);}.cls-37{fill:#f8a03f;}.cls-38{fill:#f89f3e;}.cls-39{fill:#f79e3e;}.cls-40{fill:#f79d3d;}.cls-41{fill:#f79c3c;}.cls-42{fill:#f79b3c;}.cls-43{fill:#f69a3b;}.cls-44{fill:#f6993a;}.cls-45{fill:#f69839;}.cls-46{fill:#f69739;}.cls-47{fill:#f59638;}.cls-48{fill:#f59537;}.cls-49{fill:#f59436;}.cls-50{fill:#f49336;}.cls-51{fill:#f49235;}.cls-52{fill:#f49134;}.cls-53{fill:#f39033;}.cls-54{fill:#f38f33;}.cls-55{fill:#f38e32;}.cls-56{fill:#f38d31;}.cls-57{fill:#f28c30;}.cls-58{fill:#f28b30;}.cls-59{fill:#f28a2f;}.cls-60{fill:#f1892e;}.cls-61{fill:#f1882d;}.cls-62{fill:#f1872c;}.cls-63{fill:#f0862c;}.cls-64{fill:#f0852b;}.cls-65{fill:#f0842a;}.cls-66{fill:#ef8329;}.cls-67{fill:#ef8229;}.cls-68{fill:#ef8028;}.cls-69{fill:#ef7f27;}.cls-70{fill:#ee7e26;}.cls-71{fill:#ee7d25;}.cls-72{fill:#ee7c25;}.cls-73{fill:#ed7b24;}.cls-74{fill:#ed7a23;}.cls-75{clip-path:url(#clip-path-2);}.cls-76{fill:#494a4a;}.cls-77{fill:#484949;}.cls-78{fill:#474848;}.cls-79{fill:#464747;}.cls-80{fill:#464646;}.cls-81{fill:#454545;}.cls-82{fill:#444;}.cls-83{fill:#434343;}.cls-84{fill:#424242;}.cls-85{fill:#414141;}.cls-86{fill:#404040;}.cls-87{fill:#3f3f3f;}.cls-88{fill:#3e3e3e;}.cls-89{fill:#3d3d3d;}.cls-90{fill:#3c3c3c;}.cls-91{fill:#3b3b3b;}.cls-92{fill:#3a3a3a;}.cls-93{fill:#393939;}.cls-94{fill:#383838;}.cls-95{fill:#383737;}.cls-96{fill:#373535;}.cls-97{fill:#363434;}.cls-98{fill:#353333;}.cls-99{fill:#343232;}.cls-100{fill:#333131;}.cls-101{fill:#323030;}.cls-102{fill:#312f2f;}.cls-103{fill:#302e2e;}.cls-104{fill:#2f2d2d;}.cls-105{fill:#2e2c2c;}.cls-106{fill:#2d2b2b;}.cls-107{fill:#2c2a2a;}.cls-108{fill:#2b2929;}.cls-109{fill:#2a2828;}.cls-110{fill:#292727;}.cls-111{fill:#292626;}.cls-112{fill:#282525;}.cls-113{fill:#272424;}.cls-114{fill:#262323;}.cls-115{fill:#252222;}.cls-116{fill:#242121;}.cls-117{fill:#4d4e4e;}.cls-118{fill:#4c4d4d;}.cls-119{fill:#4b4c4c;}.cls-120{fill:#4a4b4b;}.cls-121{fill:#232020;}.cls-122{fill:#221f1f;}.cls-123{fill:url(#linear-gradient-35);}.cls-124{fill:url(#linear-gradient-36);}.cls-125{fill:url(#linear-gradient-37);}.cls-126{fill:url(#linear-gradient-38);}</style><linearGradient id="linear-gradient" y1="187.79" x2="399.5" y2="187.79" gradientUnits="userSpaceOnUse"><stop offset="0" stop-color="#f8a03f"/><stop offset="1" stop-color="#ed7a23"/></linearGradient><linearGradient id="linear-gradient-2" x1="66.47" y1="368.48" x2="155.49" y2="200.05" gradientUnits="userSpaceOnUse"><stop offset="0" stop-color="#4d4e4e"/><stop offset="1" stop-color="#221f1f"/></linearGradient><linearGradient id="linear-gradient-3" x1="79.62" y1="377.11" x2="171.66" y2="202.99" xlink:href="#linear-gradient-2"/><linearGradient id="linear-gradient-4" x1="94.49" y1="381" x2="183.68" y2="212.27" xlink:href="#linear-gradient-2"/><linearGradient id="linear-gradient-5" x1="107.47" y1="386.58" x2="196.47" y2="218.2" xlink:href="#linear-gradient-2"/><linearGradient id="linear-gradient-6" x1="118.03" y1="393.51" x2="209.17" y2="221.08" xlink:href="#linear-gradient-2"/><linearGradient id="linear-gradient-7" x1="133.39" y1="398.05" x2="222.42" y2="229.63" xlink:href="#linear-gradient-2"/><linearGradient id="linear-gradient-8" x1="143.42" y1="402.54" x2="232.55" y2="233.9" xlink:href="#linear-gradient-2"/><linearGradient id="linear-gradient-9" x1="153.99" y1="402.15" x2="239.35" y2="240.66" xlink:href="#linear-gradient-2"/><linearGradient id="linear-gradient-10" x1="161.15" y1="410.87" x2="250.52" y2="241.8" xlink:href="#linear-gradient-2"/><linearGradient id="linear-gradient-11" x1="173.91" y1="415.97" x2="262.98" y2="247.45" xlink:href="#linear-gradient-2"/><linearGradient id="linear-gradient-12" x1="191.57" y1="417.92" x2="276.93" y2="256.43" xlink:href="#linear-gradient-2"/><linearGradient id="linear-gradient-13" x1="199.49" y1="427.58" x2="288.68" y2="258.85" xlink:href="#linear-gradient-2"/><linearGradient id="linear-gradient-14" x1="211.36" y1="432.5" x2="300.38" y2="264.08" xlink:href="#linear-gradient-2"/><linearGradient id="linear-gradient-15" x1="223.73" y1="439.98" x2="313.87" y2="269.44" xlink:href="#linear-gradient-2"/><linearGradient id="linear-gradient-16" x1="236.05" y1="441.36" x2="323.96" y2="275.05" xlink:href="#linear-gradient-2"/><linearGradient id="linear-gradient-17" x1="37.22" y1="355.73" x2="126.03" y2="187.72" xlink:href="#linear-gradient-2"/><linearGradient id="linear-gradient-18" x1="55.69" y1="365.03" x2="145.43" y2="195.25" xlink:href="#linear-gradient-2"/><linearGradient id="linear-gradient-19" x1="74.2" y1="370.31" x2="162" y2="204.22" xlink:href="#linear-gradient-2"/><linearGradient id="linear-gradient-20" x1="93.71" y1="379.97" x2="181.98" y2="212.97" xlink:href="#linear-gradient-2"/><linearGradient id="linear-gradient-21" x1="110.95" y1="388.21" x2="199.75" y2="220.19" xlink:href="#linear-gradient-2"/><linearGradient id="linear-gradient-22" x1="126.66" y1="394.14" x2="214.94" y2="227.13" xlink:href="#linear-gradient-2"/><linearGradient id="linear-gradient-23" x1="147.16" y1="403.35" x2="235.44" y2="236.34" xlink:href="#linear-gradient-2"/><linearGradient id="linear-gradient-24" x1="164.33" y1="411.72" x2="253.13" y2="243.71" xlink:href="#linear-gradient-2"/><linearGradient id="linear-gradient-25" x1="182.48" y1="421.62" x2="272.22" y2="251.83" xlink:href="#linear-gradient-2"/><linearGradient id="linear-gradient-26" x1="202.26" y1="428.43" x2="291.06" y2="260.42" xlink:href="#linear-gradient-2"/><linearGradient id="linear-gradient-27" x1="220.32" y1="436.15" x2="309.13" y2="268.15" xlink:href="#linear-gradient-2"/><linearGradient id="linear-gradient-28" x1="241.19" y1="444.47" x2="329.46" y2="277.46" xlink:href="#linear-gradient-2"/><linearGradient id="linear-gradient-29" x1="21.01" y1="347.22" x2="109.45" y2="179.9" xlink:href="#linear-gradient-2"/><linearGradient id="linear-gradient-30" x1="69.66" y1="370.71" x2="158.66" y2="202.34" xlink:href="#linear-gradient-2"/><linearGradient id="linear-gradient-31" x1="115.37" y1="389.96" x2="204.17" y2="221.96" xlink:href="#linear-gradient-2"/><linearGradient id="linear-gradient-32" x1="159.5" y1="412.21" x2="249.24" y2="242.42" xlink:href="#linear-gradient-2"/><linearGradient id="linear-gradient-33" x1="206.85" y1="431.4" x2="295.88" y2="262.97" xlink:href="#linear-gradient-2"/><linearGradient id="linear-gradient-34" x1="133.45" y1="418.58" x2="235.92" y2="224.71" xlink:href="#linear-gradient-2"/><clipPath id="clip-path"><polygon id="SVGID" class="cls-1" points="150.58 201.59 150.58 64.7 292.09 133.15 150.58 201.59"/></clipPath><clipPath id="clip-path-2"><path id="SVGID-2" data-name="SVGID" class="cls-1" d="M150.58,205.73a4.13,4.13,0,0,1-4.14-4.13V64.7A4.14,4.14,0,0,1,152.38,61l141.51,68.45a4.12,4.12,0,0,1,0,7.43L152.38,205.31A4,4,0,0,1,150.58,205.73Zm4.13-134.44V195L282.6,133.15Z"/></clipPath><linearGradient id="linear-gradient-35" x1="128.55" y1="397.33" x2="217.58" y2="228.91" xlink:href="#linear-gradient-2"/><linearGradient id="linear-gradient-36" x1="213.74" y1="94.4" x2="162.63" y2="158.13" xlink:href="#linear-gradient-2"/><linearGradient id="linear-gradient-37" x1="288.35" y1="98.95" x2="220.4" y2="98.95" xlink:href="#linear-gradient-2"/><linearGradient id="linear-gradient-38" x1="228.17" y1="98.97" x2="278.76" y2="98.97" xlink:href="#linear-gradient"/></defs><title>modulos</title><g id="Layer_2" data-name="Layer 2"><g id="Capa_1" data-name="Capa 1"><rect class="cls-2" width="399.5" height="375.59"/><path class="cls-3" d="M94.5,308.69a1,1,0,0,1,0,.27,1.14,1.14,0,0,0,.07.33,3.19,3.19,0,0,0,.54,1,3.44,3.44,0,0,0,.84.77,4.37,4.37,0,0,0,2.38.68,4.26,4.26,0,0,0,.73-.05,3.77,3.77,0,0,0,.62-.13,3.93,3.93,0,0,0,.55-.21,4,4,0,0,0,.5-.27l.15-.09.15-.09.14-.08a.23.23,0,0,1,.11,0,.19.19,0,0,1,.13.07l.18.23a.22.22,0,0,1,.06.12s0,0,0,.05a.09.09,0,0,1,0,.06,1.62,1.62,0,0,1-.19.17,2,2,0,0,1-.28.19,5.67,5.67,0,0,1-1.29.54,5.76,5.76,0,0,1-3.37-.11,5.16,5.16,0,0,1-1.53-.85A4.18,4.18,0,0,1,94,310a3.18,3.18,0,0,1-.39-1.54,3.48,3.48,0,0,1,.65-2,4,4,0,0,1,.74-.81,4.66,4.66,0,0,1,1-.62,5.88,5.88,0,0,1,1.16-.41,6,6,0,0,1,1.3-.14,5.67,5.67,0,0,1,1.24.13,5.88,5.88,0,0,1,1.12.37,4.61,4.61,0,0,1,1,.6,3.74,3.74,0,0,1,.75.79,4,4,0,0,1,.5,1,3.9,3.9,0,0,1,.2,1.14h0v0q0,.21-.24.21Zm2.88-3.42a3.85,3.85,0,0,0-1.9,1,3.42,3.42,0,0,0-.63.79,2.9,2.9,0,0,0-.35.91h7.85a2.63,2.63,0,0,0-.44-1.12,3.71,3.71,0,0,0-.87-.9,4.47,4.47,0,0,0-1.2-.59,4.72,4.72,0,0,0-1.41-.21,3.77,3.77,0,0,0-.48,0A2.86,2.86,0,0,0,97.38,305.27Z"/><path class="cls-4" d="M112.85,305.19a3.17,3.17,0,0,0-1,.15,3,3,0,0,0-.84.41,2.43,2.43,0,0,0-.6.64,1.69,1.69,0,0,0-.26.83v3.09a.08.08,0,0,1,0,0v1.72c0,.13-.08.19-.23.19h-.38c-.16,0-.24-.06-.24-.19v-7.28a.18.18,0,0,1,.08-.15.36.36,0,0,1,.2-.06h.31a.32.32,0,0,1,.2.07.24.24,0,0,1,.07.16v.92a5.29,5.29,0,0,1,.54-.52,3.6,3.6,0,0,1,.62-.39,2.79,2.79,0,0,1,.72-.25,4.15,4.15,0,0,1,2.72.35A3.08,3.08,0,0,1,116,306.1a2.46,2.46,0,0,1,.52-.71,3.05,3.05,0,0,1,.73-.5,3.6,3.6,0,0,1,.87-.31,5.06,5.06,0,0,1,1-.1,4.06,4.06,0,0,1,1.29.2,3.36,3.36,0,0,1,1,.54,2.78,2.78,0,0,1,.73.8,2.87,2.87,0,0,1,.36,1,3,3,0,0,1,0,.42V312a.22.22,0,0,1-.08.2.28.28,0,0,1-.21.07H122a.32.32,0,0,1-.23-.06.34.34,0,0,1-.05-.2v-4.55a2.32,2.32,0,0,0-.73-1.56,2.59,2.59,0,0,0-.82-.51,3,3,0,0,0-1.11-.19,3.26,3.26,0,0,0-1,.13,2.62,2.62,0,0,0-.77.37,2.17,2.17,0,0,0-.57.56,1.86,1.86,0,0,0-.3.71,4.14,4.14,0,0,0-.09.87V312a.25.25,0,0,1-.08.2.3.3,0,0,1-.21.07h-.28a.32.32,0,0,1-.23-.06.28.28,0,0,1-.06-.2v-4.17c0-.12,0-.26,0-.39a2.57,2.57,0,0,0,0-.4,1.82,1.82,0,0,0-.28-.71,2.05,2.05,0,0,0-.55-.59,2.61,2.61,0,0,0-.78-.4A3.12,3.12,0,0,0,112.85,305.19Z"/><path class="cls-5" d="M128.82,304.81c0-.13.08-.2.23-.2h.41c.16,0,.24.07.24.2v1.46c.1-.13.2-.27.31-.4a3.05,3.05,0,0,1,.36-.36,5.44,5.44,0,0,1,1.47-.78,5.56,5.56,0,0,1,1.74-.27,5.88,5.88,0,0,1,1.27.14A5.41,5.41,0,0,1,136,305a4.93,4.93,0,0,1,1,.62,4.35,4.35,0,0,1,.75.8,3.89,3.89,0,0,1,.49.95,3.36,3.36,0,0,1,0,2.11,3.72,3.72,0,0,1-.49.95,4.1,4.1,0,0,1-.75.81,4.93,4.93,0,0,1-1,.62,5.41,5.41,0,0,1-1.15.41,5.88,5.88,0,0,1-1.27.14,5.29,5.29,0,0,1-.9-.08,5.48,5.48,0,0,1-1.63-.56,5.86,5.86,0,0,1-.69-.45A2.83,2.83,0,0,1,130,311l-.34-.4v3.9a.08.08,0,0,1,0,.07.12.12,0,0,1-.09,0H129c-.14,0-.2-.06-.2-.17Zm8.67,3.62a2.78,2.78,0,0,0-.3-1.26,3.39,3.39,0,0,0-.84-1.05,3.93,3.93,0,0,0-1.23-.71,4.27,4.27,0,0,0-1.52-.27,4.61,4.61,0,0,0-1.54.26,4.11,4.11,0,0,0-1.27.7,3.45,3.45,0,0,0-.87,1,2.72,2.72,0,0,0-.31,1.28,2.68,2.68,0,0,0,.31,1.27,3.32,3.32,0,0,0,.84,1.06,4.42,4.42,0,0,0,4.32.73,3.76,3.76,0,0,0,1.25-.72,3.42,3.42,0,0,0,.85-1.05A2.72,2.72,0,0,0,137.49,308.43Z"/><path class="cls-6" d="M144,308.43a3.39,3.39,0,0,1,.17-1.05,3.72,3.72,0,0,1,.49-.95,4.14,4.14,0,0,1,.76-.81,4.59,4.59,0,0,1,1-.62,6,6,0,0,1,1.15-.41,5.88,5.88,0,0,1,1.27-.14,5.3,5.3,0,0,1,2.42.55,4.66,4.66,0,0,1,1,.62,4.14,4.14,0,0,1,.76.81,3.43,3.43,0,0,1,.49.95,3.36,3.36,0,0,1,0,2.11,3.43,3.43,0,0,1-.49.95,3.87,3.87,0,0,1-.76.81,4.66,4.66,0,0,1-1,.62,5.32,5.32,0,0,1-1.14.41,6,6,0,0,1-1.28.14,5.88,5.88,0,0,1-1.27-.14,5.41,5.41,0,0,1-1.15-.41,4.59,4.59,0,0,1-1-.62,3.87,3.87,0,0,1-.76-.81,3.72,3.72,0,0,1-.49-.95A3.41,3.41,0,0,1,144,308.43Zm.88,0a2.77,2.77,0,0,0,.14.86,3.16,3.16,0,0,0,.39.78,3.22,3.22,0,0,0,.61.67,3.9,3.9,0,0,0,.79.53,4.55,4.55,0,0,0,.94.34,4.34,4.34,0,0,0,1,.12,4.57,4.57,0,0,0,1.54-.26,4.46,4.46,0,0,0,1.27-.7,3.61,3.61,0,0,0,.86-1,2.76,2.76,0,0,0,0-2.54,3.18,3.18,0,0,0-.84-1.06,4.14,4.14,0,0,0-1.25-.72,4.24,4.24,0,0,0-1.53-.27,4.55,4.55,0,0,0-1.53.26,4.32,4.32,0,0,0-1.26.72,3.42,3.42,0,0,0-.85,1.05A2.68,2.68,0,0,0,144.84,308.43Z"/><path class="cls-7" d="M165.07,305.26l.31-.57a.26.26,0,0,1,.17-.09l.24,0a1.11,1.11,0,0,1,.33,0,.13.13,0,0,1,.1.14.35.35,0,0,0,0,.06l0,.05h0l-.46.9-.45.91,1.1,2.23c.38.76.75,1.51,1.12,2.24.13-.28.28-.58.45-.92l.53-1.07c.18-.38.37-.76.56-1.15l.57-1.16q.28-.57.54-1.11c.18-.35.34-.68.48-1a.24.24,0,0,1,.11-.08l.17-.05.2,0h.19a.25.25,0,0,1,.17.05.16.16,0,0,1,.06.12.18.18,0,0,1,0,.06l0,0-3.63,7.29a.21.21,0,0,1-.1.08.48.48,0,0,1-.18,0h-.24a.35.35,0,0,1-.18,0,.13.13,0,0,1-.06-.11c-.39-.75-.76-1.51-1.14-2.26l-1.14-2.26-.51,1c-.18.35-.35.71-.53,1.07l-.54,1.07c-.17.35-.34.7-.51,1l-.18.36a.3.3,0,0,1-.28.12H162a.37.37,0,0,1-.18,0,.12.12,0,0,1-.07-.11l-3.65-7.25a.25.25,0,0,1,0-.1.14.14,0,0,1,.12-.15l.33,0a1.09,1.09,0,0,1,.26,0,.21.21,0,0,1,.17.11c.14.3.3.62.48,1l.55,1.1c.18.38.38.77.57,1.16s.38.79.57,1.16l.54,1.08.46.93c.32-.63.69-1.39,1.12-2.28l1.47-3h0A6.36,6.36,0,0,1,165.07,305.26Z"/><path class="cls-8" d="M177.05,308.69a1.56,1.56,0,0,1,0,.27.88.88,0,0,0,.06.33,3.19,3.19,0,0,0,.54,1,3.85,3.85,0,0,0,.84.77,4.37,4.37,0,0,0,2.38.68,4.26,4.26,0,0,0,.73-.05,4.13,4.13,0,0,0,.63-.13,4.33,4.33,0,0,0,.54-.21,4,4,0,0,0,.5-.27l.15-.09.15-.09.14-.08.11,0a.19.19,0,0,1,.13.07,1.67,1.67,0,0,1,.18.23.22.22,0,0,1,.06.12s0,0,0,.05,0,0,0,.06l-.2.17a1.52,1.52,0,0,1-.28.19,5.67,5.67,0,0,1-1.29.54,5.76,5.76,0,0,1-3.37-.11,5.16,5.16,0,0,1-1.53-.85,4.18,4.18,0,0,1-1-1.27,3.18,3.18,0,0,1-.39-1.54,3.48,3.48,0,0,1,.65-2,4,4,0,0,1,.74-.81,4.66,4.66,0,0,1,1-.62,5.47,5.47,0,0,1,2.46-.55,5.61,5.61,0,0,1,1.24.13,5.88,5.88,0,0,1,1.12.37,4.37,4.37,0,0,1,1,.6,3.86,3.86,0,0,1,1.25,1.76,3.9,3.9,0,0,1,.2,1.14h0v0c0,.14-.08.21-.23.21Zm2.88-3.42a3.7,3.7,0,0,0-1,.38,3.64,3.64,0,0,0-.86.62,3.42,3.42,0,0,0-.63.79,3.17,3.17,0,0,0-.35.91h7.85a2.75,2.75,0,0,0-.43-1.12,4,4,0,0,0-.88-.9,4.2,4.2,0,0,0-1.2-.59,4.7,4.7,0,0,0-1.4-.21,3.93,3.93,0,0,0-.49,0A2.86,2.86,0,0,0,179.93,305.27Z"/><path class="cls-9" d="M197.58,305.85a.13.13,0,0,1-.08,0l-.12,0a.5.5,0,0,1-.18-.09l-.37-.18-.44-.18a3.62,3.62,0,0,0-.47-.13,2.4,2.4,0,0,0-.46,0,3.42,3.42,0,0,0-1.07.16,2.8,2.8,0,0,0-.87.47,2,2,0,0,0-.59.73,2.18,2.18,0,0,0-.21,1v4.53c0,.13-.08.19-.24.19h-.39c-.16,0-.24-.06-.24-.19v-7.28c0-.1.07-.16.2-.16h.39a.28.28,0,0,1,.2.06.23.23,0,0,1,.08.16v1a2.09,2.09,0,0,1,.4-.46,2.54,2.54,0,0,1,.58-.42,4,4,0,0,1,.76-.3,3.14,3.14,0,0,1,.89-.12c.25,0,.49,0,.71,0a4.29,4.29,0,0,1,.62.14,2.92,2.92,0,0,1,.56.21,5,5,0,0,1,.54.31.45.45,0,0,1,.13.1.15.15,0,0,1,.06.13s0,.09-.12.16A2,2,0,0,1,197.58,305.85Z"/><path class="cls-10" d="M203.73,302.36a.53.53,0,0,1,0-.19.25.25,0,0,1,.17-.08h.53q.15,0,.18.09a.48.48,0,0,1,0,.18v.23a.31.31,0,0,1-.07.23.58.58,0,0,1-.27,0h-.26a.66.66,0,0,1-.28,0,.16.16,0,0,1-.08-.15Zm.05,2.43c0-.13.08-.19.23-.19h.39c.16,0,.24.06.24.19v7.28c0,.13-.08.19-.23.19H204c-.17,0-.25-.06-.25-.19Z"/><path class="cls-11" d="M211.45,304.82a.23.23,0,0,1,.08-.17.37.37,0,0,1,.2,0H212a.33.33,0,0,1,.21.06.25.25,0,0,1,.06.16v.89a2.91,2.91,0,0,1,.72-.64,3.35,3.35,0,0,1,.81-.39,3.58,3.58,0,0,1,.83-.2,5.05,5.05,0,0,1,.75-.05,4.26,4.26,0,0,1,1.54.26,3.58,3.58,0,0,1,1.19.69,3.32,3.32,0,0,1,.76,1,3,3,0,0,1,.27,1.26V312a.25.25,0,0,1-.08.2.28.28,0,0,1-.21.07h-.27a.33.33,0,0,1-.23-.06.34.34,0,0,1-.05-.2v-4.35a2.54,2.54,0,0,0-.23-.93,2.64,2.64,0,0,0-.58-.8,3.12,3.12,0,0,0-.92-.57,3.39,3.39,0,0,0-1.24-.21,3.78,3.78,0,0,0-1.11.17,3.48,3.48,0,0,0-1,.49,2.6,2.6,0,0,0-.7.74,2.19,2.19,0,0,0-.29,1v4.56c0,.13-.07.19-.21.19h-.39c-.15,0-.23-.06-.23-.19v-1.68s0,0,0-.07Z"/><path class="cls-12" d="M233.9,306.27c0-.06,0-.12,0-.19a1.28,1.28,0,0,1,0-.19v-1.1a.21.21,0,0,1,.08-.17.32.32,0,0,1,.2-.06h.3a.28.28,0,0,1,.21.07.23.23,0,0,1,.08.16v6.31a0,0,0,0,1,0,0v0a4.89,4.89,0,0,1-.21,1.27,3.85,3.85,0,0,1-.51,1,3.75,3.75,0,0,1-.75.74,4.45,4.45,0,0,1-.94.5,5.16,5.16,0,0,1-1.06.28,7.27,7.27,0,0,1-2.56-.05,5.67,5.67,0,0,1-1.2-.42.3.3,0,0,1-.11-.07.14.14,0,0,1,0-.11.19.19,0,0,1,0-.08.11.11,0,0,1,0-.07l.1-.11.17-.22a.11.11,0,0,1,.11,0l.11,0a2,2,0,0,0,.32.15,4.15,4.15,0,0,0,.53.17,6,6,0,0,0,.67.15,4.25,4.25,0,0,0,.71.06,5.42,5.42,0,0,0,1.49-.2,3.75,3.75,0,0,0,1.2-.6,2.89,2.89,0,0,0,.8-1,3,3,0,0,0,.29-1.34v-.66a3.79,3.79,0,0,1-.72.78,4.33,4.33,0,0,1-.94.58,5.83,5.83,0,0,1-1.09.37,5.75,5.75,0,0,1-1.17.13,5.26,5.26,0,0,1-1.27-.15,5.2,5.2,0,0,1-1.15-.4,4.66,4.66,0,0,1-1-.62,4.14,4.14,0,0,1-.76-.81,3.72,3.72,0,0,1-.49-.95,3.36,3.36,0,0,1,0-2.11,3.75,3.75,0,0,1,.5-.95,3.87,3.87,0,0,1,.76-.81,4.66,4.66,0,0,1,1-.62,5.13,5.13,0,0,1,1.14-.41,5.88,5.88,0,0,1,1.27-.14,5.2,5.2,0,0,1,1.18.13,5.5,5.5,0,0,1,1.08.37,4.34,4.34,0,0,1,.92.58A3.78,3.78,0,0,1,233.9,306.27Zm-7.83,2.16a2.7,2.7,0,0,0,.14.85,3.06,3.06,0,0,0,.39.79,4.25,4.25,0,0,0,.61.67,3.86,3.86,0,0,0,.79.52,4.15,4.15,0,0,0,.93.35,4.42,4.42,0,0,0,1,.12,4.51,4.51,0,0,0,1.43-.22,4.07,4.07,0,0,0,1.21-.62,3.66,3.66,0,0,0,.88-.92,2.79,2.79,0,0,0,.43-1.13V308a2.79,2.79,0,0,0-.43-1.13,3.6,3.6,0,0,0-.86-.93,4.2,4.2,0,0,0-1.19-.62,4.4,4.4,0,0,0-1.42-.23,4.6,4.6,0,0,0-2,.45,4.08,4.08,0,0,0-.8.52,3.55,3.55,0,0,0-.62.67,2.94,2.94,0,0,0-.4.79A2.83,2.83,0,0,0,226.07,308.43Z"/><path class="cls-13" d="M249.65,302.36a.38.38,0,0,1,0-.19.23.23,0,0,1,.17-.08h.53a.22.22,0,0,1,.18.09.48.48,0,0,1,0,.18v.23c0,.12,0,.19-.07.23a.51.51,0,0,1-.26,0H250a.58.58,0,0,1-.27,0,.16.16,0,0,1-.08-.15Zm0,2.43c0-.13.08-.19.24-.19h.39c.15,0,.23.06.23.19v7.28c0,.13-.07.19-.23.19h-.38c-.16,0-.25-.06-.25-.19Z"/><path class="cls-14" d="M266.5,312.07c0,.13-.08.19-.24.19h-.38c-.15,0-.23-.06-.23-.19v-1l0-.45c-.1.13-.2.27-.32.41a2.38,2.38,0,0,1-.36.35,4.71,4.71,0,0,1-1.47.78,5.45,5.45,0,0,1-1.73.27,6,6,0,0,1-1.28-.14,5.9,5.9,0,0,1-1.14-.4,5.47,5.47,0,0,1-1-.63,4.35,4.35,0,0,1-.75-.8,3.43,3.43,0,0,1-.49-.95,3.36,3.36,0,0,1,0-2.11,3.43,3.43,0,0,1,.49-.95,4.4,4.4,0,0,1,.75-.81,4.93,4.93,0,0,1,1-.62,5.3,5.3,0,0,1,2.42-.55,5.29,5.29,0,0,1,.9.08,5.88,5.88,0,0,1,.85.22,4.62,4.62,0,0,1,.78.35,4.78,4.78,0,0,1,.69.44,2.72,2.72,0,0,1,.34.34l.35.4v-3.9a.09.09,0,0,1,0-.07.17.17,0,0,1,.1,0h.52c.13,0,.2.06.2.16Zm-8.67-3.64a2.79,2.79,0,0,0,.3,1.27,3.39,3.39,0,0,0,.84,1.05,4.15,4.15,0,0,0,1.23.72,4.45,4.45,0,0,0,1.52.26,4.65,4.65,0,0,0,1.54-.25,4.48,4.48,0,0,0,1.27-.71,3.23,3.23,0,0,0,.86-1,2.69,2.69,0,0,0,.32-1.27,2.8,2.8,0,0,0-.31-1.27,3.46,3.46,0,0,0-.85-1.06,4.14,4.14,0,0,0-1.25-.72,4.32,4.32,0,0,0-1.53-.27,4.57,4.57,0,0,0-1.54.26,4.26,4.26,0,0,0-1.25.72,3.54,3.54,0,0,0-.84,1.05A2.71,2.71,0,0,0,257.83,308.43Z"/><path class="cls-15" d="M273.23,308.69a1.56,1.56,0,0,1,0,.27.88.88,0,0,0,.06.33,3.19,3.19,0,0,0,.54,1,3.68,3.68,0,0,0,.85.77,4.18,4.18,0,0,0,1.09.5,4.5,4.5,0,0,0,1.28.18,4.26,4.26,0,0,0,.73-.05,4.13,4.13,0,0,0,.63-.13,4.33,4.33,0,0,0,.54-.21,4,4,0,0,0,.5-.27.6.6,0,0,0,.15-.09l.15-.09.14-.08.11,0a.19.19,0,0,1,.13.07,1.67,1.67,0,0,1,.18.23.22.22,0,0,1,.06.12s0,0,0,.05,0,0,0,.06l-.2.17a1.52,1.52,0,0,1-.28.19,5.67,5.67,0,0,1-1.29.54,5.44,5.44,0,0,1-1.5.2,5.52,5.52,0,0,1-1.87-.31,5.16,5.16,0,0,1-1.53-.85,4.34,4.34,0,0,1-1-1.27,3.18,3.18,0,0,1-.39-1.54,3.48,3.48,0,0,1,.65-2,4.34,4.34,0,0,1,.74-.81,4.93,4.93,0,0,1,1-.62,5.47,5.47,0,0,1,2.46-.55,5.61,5.61,0,0,1,1.24.13,5.88,5.88,0,0,1,1.12.37,4.37,4.37,0,0,1,1,.6,3.86,3.86,0,0,1,1.25,1.76,3.9,3.9,0,0,1,.2,1.14h0v0c0,.14-.08.21-.23.21Zm2.88-3.42a3.7,3.7,0,0,0-1,.38,3.64,3.64,0,0,0-.86.62,3.42,3.42,0,0,0-.63.79,3.17,3.17,0,0,0-.35.91h7.85a2.75,2.75,0,0,0-.43-1.12,4,4,0,0,0-.88-.9,4.2,4.2,0,0,0-1.2-.59,4.7,4.7,0,0,0-1.4-.21,3.93,3.93,0,0,0-.49,0A2.86,2.86,0,0,0,276.11,305.27Z"/><path class="cls-16" d="M296.44,311.05l0-.46a3.55,3.55,0,0,1-.7.75,4.16,4.16,0,0,1-.92.57,5.28,5.28,0,0,1-1.08.37,5.69,5.69,0,0,1-1.18.13,5.2,5.2,0,0,1-3.4-1.18,3.87,3.87,0,0,1-.76-.81,3.18,3.18,0,0,1-.49-.95,3,3,0,0,1-.18-1.05,3.13,3.13,0,0,1,.18-1.05,3.57,3.57,0,0,1,.49-.95,4.41,4.41,0,0,1,.76-.8,5.39,5.39,0,0,1,1-.63,5.38,5.38,0,0,1,2.43-.55,5.06,5.06,0,0,1,1.17.13,4.83,4.83,0,0,1,1.09.37,5.06,5.06,0,0,1,.92.57,3.68,3.68,0,0,1,.72.76v-1.49c0-.13.08-.2.23-.2h.38c.17,0,.25.07.25.2v7.29a.14.14,0,0,1-.08.14.36.36,0,0,1-.19.05h-.3c-.19,0-.29-.07-.29-.22Zm.05-2.62a2.68,2.68,0,0,0-.32-1.26,3.64,3.64,0,0,0-.87-1.05,4.08,4.08,0,0,0-1.26-.71,4.49,4.49,0,0,0-1.51-.28h0a4.2,4.2,0,0,0-1.5.27,4.34,4.34,0,0,0-1.24.72,3.51,3.51,0,0,0-.85,1,2.64,2.64,0,0,0-.32,1.25,2.74,2.74,0,0,0,.31,1.27,3.51,3.51,0,0,0,.83,1.06,4.08,4.08,0,0,0,1.24.72,4.17,4.17,0,0,0,1.51.27,4.37,4.37,0,0,0,1.54-.26,4.28,4.28,0,0,0,1.28-.71,3.38,3.38,0,0,0,.86-1.06A2.69,2.69,0,0,0,296.49,308.43Z"/><path class="cls-17" d="M303.07,310.66a.14.14,0,0,1,0-.06.07.07,0,0,1,0-.05.13.13,0,0,1,0-.11l.13-.07.29-.1h.11a.11.11,0,0,1,.1.05.57.57,0,0,1,.08.13.77.77,0,0,1,.07.16l.08.16a1.35,1.35,0,0,0,.4.43,2.59,2.59,0,0,0,.57.3,3.73,3.73,0,0,0,.63.18,3.28,3.28,0,0,0,.59.06,4.26,4.26,0,0,0,.74-.08,3.76,3.76,0,0,0,.78-.26,2,2,0,0,0,.61-.46,1,1,0,0,0,.25-.7,1,1,0,0,0-.22-.64,2,2,0,0,0-.57-.46,3.87,3.87,0,0,0-.77-.31c-.29-.08-.58-.15-.86-.2a7.4,7.4,0,0,1-1.05-.29,3.89,3.89,0,0,1-.89-.44,2.39,2.39,0,0,1-.63-.59,1.29,1.29,0,0,1-.23-.76,1.79,1.79,0,0,1,.21-.86,1.86,1.86,0,0,1,.59-.66,2.74,2.74,0,0,1,.91-.43,4.46,4.46,0,0,1,1.19-.15,4.35,4.35,0,0,1,1,.11,3.82,3.82,0,0,1,.8.32,2.57,2.57,0,0,1,.62.5,3.15,3.15,0,0,1,.45.65h0a.12.12,0,0,1,0,.09.14.14,0,0,1-.06.1l-.13.1-.16.07-.13,0-.12,0a.27.27,0,0,1-.08-.07l-.06-.11a.51.51,0,0,0-.09-.13,2.2,2.2,0,0,0-.82-.67,2.68,2.68,0,0,0-1.25-.27,3.08,3.08,0,0,0-.75.09,1.89,1.89,0,0,0-.65.26,1.33,1.33,0,0,0-.45.43,1.15,1.15,0,0,0-.16.62.76.76,0,0,0,.22.54,2.05,2.05,0,0,0,.54.4,4.06,4.06,0,0,0,.71.29c.24.07.47.13.68.17l.07,0h0a6.76,6.76,0,0,1,1.22.33,4.34,4.34,0,0,1,.94.48,2.13,2.13,0,0,1,.6.64,1.59,1.59,0,0,1,.21.82,1.71,1.71,0,0,1-.26.93,2.27,2.27,0,0,1-.72.69,3.61,3.61,0,0,1-1,.43,4.93,4.93,0,0,1-1.23.15,4.51,4.51,0,0,1-1.05-.12,3.23,3.23,0,0,1-.9-.34,2.55,2.55,0,0,1-.7-.55A1.86,1.86,0,0,1,303.07,310.66Z"/><path class="cls-18" d="M78.12,272.57h6.45v3.58H78.12v4.38h8.66v3.62h-13V264.36h13v3.58H78.12Zm0-4.63v0Z"/><path class="cls-19" d="M112.2,264.43v19.65l-3.78-3.26-9-7.62V284H95.13V264.43l3.78,3.27,9,7.61V264.43Zm-4.33,0h0Z"/><path class="cls-20" d="M120.55,264.4h13.5V268h-4.67v16.17h-4.33V268h-4.5Zm0,0v0Z"/><path class="cls-21" d="M157,284.15h-5l-4.84-6.7h-.64v6.7h-4.33V264.4h4.33v0h2a8.49,8.49,0,0,1,5.56,1.9,6.08,6.08,0,0,1,2.33,4.59,5.82,5.82,0,0,1-2.33,4.6,7.69,7.69,0,0,1-2.34,1.33Zm-10.53-10.31h2A3.84,3.84,0,0,0,151,273a2.6,2.6,0,0,0,1-2.07,2.71,2.71,0,0,0-1-2.07,3.83,3.83,0,0,0-2.5-.84h-2Z"/><path class="cls-22" d="M169,272.57h6.45v3.58H169v4.38h8.66v3.62h-13V264.36h13v3.58H169Zm0-4.63v0Z"/><path class="cls-23" d="M190.35,264.4v0h2a8.47,8.47,0,0,1,5.56,1.9,6.06,6.06,0,0,1,2.34,4.59,5.91,5.91,0,0,1-2.34,4.6,8.57,8.57,0,0,1-5.56,1.93h-2v6.7H186V264.4Zm-4.33,0h0Zm4.33,3.61v5.83h2a3.85,3.85,0,0,0,2.51-.85,2.59,2.59,0,0,0,1-2.07,2.7,2.7,0,0,0-1-2.07,3.84,3.84,0,0,0-2.51-.84Z"/><path class="cls-24" d="M222.82,284.15h-5l-4.84-6.7h-.64v6.7H208V264.4h4.33v0h2a8.49,8.49,0,0,1,5.56,1.9,6.08,6.08,0,0,1,2.33,4.59,5.79,5.79,0,0,1-2.33,4.6,7.76,7.76,0,0,1-2.33,1.33Zm-10.53-10.31h2a3.84,3.84,0,0,0,2.5-.85,2.6,2.6,0,0,0,1-2.07,2.71,2.71,0,0,0-1-2.07,3.83,3.83,0,0,0-2.5-.84h-2Z"/><path class="cls-25" d="M234.82,272.57h6.45v3.58h-6.45v4.38h8.66v3.62h-13V264.36h13v3.58h-8.66Zm0-4.63v0Z"/><path class="cls-26" d="M268.9,264.43v19.65l-3.78-3.26-8.95-7.62V284h-4.33V264.43l3.77,3.27,9,7.61V264.43Zm-4.33,0h0Z"/><path class="cls-27" d="M281.58,272.57H288v3.58h-6.46v4.38h8.66v3.62h-13V264.36h13v3.58h-8.66Zm0-4.63v0Z"/><path class="cls-28" d="M303.18,264.4v11.47a6.29,6.29,0,0,0,.43,3.05,3.59,3.59,0,0,0,1.52,1.44,4.54,4.54,0,0,0,4.12.07,3.66,3.66,0,0,0,1.53-1.23,5.1,5.1,0,0,0,.55-3.15V264.4h4.38v11.65a7.83,7.83,0,0,1-1.19,5,8.15,8.15,0,0,1-3.1,2.52,9.41,9.41,0,0,1-4.16.91,9.3,9.3,0,0,1-4.5-1.08,7.5,7.5,0,0,1-3.1-2.92,8.25,8.25,0,0,1-.85-4.63,5.63,5.63,0,0,0,0-.8V264.4Zm0,0h0Z"/><path class="cls-29" d="M338.58,284.15h-5.06l-4.84-6.7h-.63v6.7h-4.33V264.4h4.33v0h2a8.51,8.51,0,0,1,5.56,1.9,6.08,6.08,0,0,1,2.33,4.59,5.82,5.82,0,0,1-2.33,4.6,7.81,7.81,0,0,1-2.34,1.33Zm-10.53-10.31h2a3.84,3.84,0,0,0,2.5-.85,2.6,2.6,0,0,0,1-2.07,2.71,2.71,0,0,0-1-2.07,3.83,3.83,0,0,0-2.5-.84h-2Z"/><path class="cls-30" d="M92.84,241.81v16.45H82.93V242.2L66.67,213.91H77.54l10.2,17.72,10.1-17.72h10.87Zm0,0,15.87-27.9Z"/><path class="cls-31" d="M161.23,219c5.29,4.37,8.37,10.09,8.37,16.69s-3.08,12.32-8.37,16.69a33,33,0,0,1-40.4,0c-5.29-4.37-8.37-10.1-8.37-16.69s3.08-12.32,8.37-16.69a32.94,32.94,0,0,1,40.4,0ZM141,220.19a20.66,20.66,0,0,0-13.18,4.61,14.19,14.19,0,0,0-5.58,10.89c0,4.37,2.12,8.1,5.58,11A20.86,20.86,0,0,0,141,251.19a20.5,20.5,0,0,0,13.28-4.53,14,14,0,0,0,5.48-11,14.28,14.28,0,0,0-5.48-10.89A20.55,20.55,0,0,0,141,220.19Z"/><path class="cls-32" d="M190.67,213.51v26c0,2.55-.1,5.09,1,6.92a8.34,8.34,0,0,0,3.46,3.26,10,10,0,0,0,4.82,1.19,10.1,10.1,0,0,0,4.52-1,8.42,8.42,0,0,0,3.46-2.78c1.44-1.91,1.25-4.53,1.25-7.15V213.51h9.91V239.9c0,3.74,0,7.47-2.7,11.29a18.08,18.08,0,0,1-7,5.72,21.46,21.46,0,0,1-9.42,2.06,20.91,20.91,0,0,1-10.2-2.46,16.82,16.82,0,0,1-7-6.6c-2.12-3.57-1.93-7.07-1.93-10.49a11.67,11.67,0,0,0,.1-1.83V213.51Zm0,0h0Z"/><path class="cls-33" d="M272.05,213.59V258.1l-8.56-7.39-20.3-17.25V258h-9.81V213.59l8.56,7.39,20.3,17.25V213.59Zm-9.81,0h0Z"/><path class="cls-34" d="M309,235.45h29.82v.08a20.88,20.88,0,0,1-7.88,16.69,32.53,32.53,0,0,1-20.78,7.07c-8,0-15-2.46-20.2-6.91s-8.37-10.1-8.37-16.69S284.75,223.37,290,219s12.41-6.92,20.2-6.92a32.6,32.6,0,0,1,13,2.55,26.51,26.51,0,0,1,10.2,7.23l-8,4.77a18.54,18.54,0,0,0-6.64-4.69,21.05,21.05,0,0,0-8.56-1.75A20.44,20.44,0,0,0,297,224.8a13.64,13.64,0,0,0,0,21.86,20.84,20.84,0,0,0,13.18,4.53,21.73,21.73,0,0,0,13.75-4.69,19.53,19.53,0,0,0,2.7-2.78L309,243.56Zm0,0v0Z"/><rect class="cls-35" x="43.43" y="292.36" width="312.65" height="1.55"/><g class="cls-36"><polygon class="cls-37" points="292.09 133.15 197.66 64.7 292.09 64.7 292.09 133.15"/><polygon class="cls-37" points="292.09 137.65 191.45 64.7 197.66 64.7 292.09 133.15 292.09 137.65"/><polygon class="cls-38" points="292.09 142.15 185.24 64.7 191.45 64.7 292.09 137.65 292.09 142.15"/><polygon class="cls-39" points="292.09 146.65 179.03 64.7 185.24 64.7 292.09 142.15 292.09 146.65"/><polygon class="cls-40" points="292.09 151.15 172.82 64.7 179.03 64.7 292.09 146.65 292.09 151.15"/><polygon class="cls-41" points="292.09 155.65 166.61 64.7 172.82 64.7 292.09 151.15 292.09 155.65"/><polygon class="cls-42" points="292.09 157.67 290.91 159.3 160.4 64.7 166.61 64.7 292.09 155.65 292.09 157.67"/><polygon class="cls-43" points="290.91 159.3 288.78 162.25 154.19 64.7 160.4 64.7 290.91 159.3"/><polygon class="cls-44" points="288.78 162.25 286.64 165.2 150.58 66.58 150.58 64.7 154.19 64.7 288.78 162.25"/><polygon class="cls-45" points="286.64 165.2 284.5 168.15 150.58 71.08 150.58 66.58 286.64 165.2"/><polygon class="cls-46" points="284.5 168.15 282.36 171.1 150.58 75.58 150.58 71.08 284.5 168.15"/><polygon class="cls-47" points="282.36 171.1 280.22 174.05 150.58 80.08 150.58 75.58 282.36 171.1"/><polygon class="cls-48" points="280.22 174.05 278.08 177 150.58 84.58 150.58 80.08 280.22 174.05"/><polygon class="cls-49" points="278.08 177 275.94 179.95 150.58 89.08 150.58 84.58 278.08 177"/><polygon class="cls-50" points="275.94 179.95 273.81 182.9 150.58 93.58 150.58 89.08 275.94 179.95"/><polygon class="cls-51" points="273.81 182.9 271.67 185.85 150.58 98.08 150.58 93.58 273.81 182.9"/><polygon class="cls-52" points="271.67 185.85 269.53 188.8 150.58 102.58 150.58 98.08 271.67 185.85"/><polygon class="cls-53" points="269.53 188.8 267.39 191.75 150.58 107.08 150.58 102.58 269.53 188.8"/><polygon class="cls-54" points="267.39 191.75 265.25 194.7 150.58 111.58 150.58 107.08 267.39 191.75"/><polygon class="cls-55" points="265.25 194.7 263.11 197.65 150.58 116.08 150.58 111.58 265.25 194.7"/><polygon class="cls-56" points="263.11 197.65 260.97 200.6 150.58 120.58 150.58 116.08 263.11 197.65"/><polygon class="cls-57" points="260.97 200.6 260.26 201.59 256.13 201.59 150.58 125.09 150.58 120.58 260.97 200.6"/><polygon class="cls-58" points="249.92 201.59 150.58 129.59 150.58 125.09 256.13 201.59 249.92 201.59"/><polygon class="cls-59" points="243.72 201.59 150.58 134.09 150.58 129.59 249.92 201.59 243.72 201.59"/><polygon class="cls-60" points="237.5 201.59 150.58 138.59 150.58 134.09 243.72 201.59 237.5 201.59"/><polygon class="cls-61" points="231.3 201.59 150.58 143.09 150.58 138.59 237.5 201.59 231.3 201.59"/><polygon class="cls-62" points="225.09 201.59 150.58 147.59 150.58 143.09 231.3 201.59 225.09 201.59"/><polygon class="cls-63" points="218.88 201.59 150.58 152.09 150.58 147.59 225.09 201.59 218.88 201.59"/><polygon class="cls-64" points="212.67 201.59 150.58 156.59 150.58 152.09 218.88 201.59 212.67 201.59"/><polygon class="cls-65" points="206.46 201.59 150.58 161.09 150.58 156.59 212.67 201.59 206.46 201.59"/><polygon class="cls-66" points="200.25 201.59 150.58 165.59 150.58 161.09 206.46 201.59 200.25 201.59"/><polygon class="cls-67" points="194.04 201.59 150.58 170.09 150.58 165.59 200.25 201.59 194.04 201.59"/><polygon class="cls-68" points="187.83 201.59 150.58 174.59 150.58 170.09 194.04 201.59 187.83 201.59"/><polygon class="cls-69" points="181.62 201.59 150.58 179.09 150.58 174.59 187.83 201.59 181.62 201.59"/><polygon class="cls-70" points="175.41 201.59 150.58 183.59 150.58 179.09 181.62 201.59 175.41 201.59"/><polygon class="cls-71" points="169.21 201.59 150.58 188.09 150.58 183.59 175.41 201.59 169.21 201.59"/><polygon class="cls-72" points="163 201.59 150.58 192.59 150.58 188.09 169.21 201.59 163 201.59"/><polygon class="cls-73" points="156.79 201.59 150.58 197.09 150.58 192.59 163 201.59 156.79 201.59"/><polygon class="cls-74" points="150.58 197.09 156.79 201.59 150.58 201.59 150.58 197.09"/></g><g class="cls-75"><rect class="cls-76" x="280.29" y="71.29" width="2.31" height="123.71"/><rect class="cls-77" x="277.11" y="71.29" width="3.19" height="123.71"/><rect class="cls-78" x="273.92" y="71.29" width="3.19" height="123.71"/><rect class="cls-79" x="270.73" y="71.29" width="3.19" height="123.71"/><rect class="cls-80" x="267.55" y="71.29" width="3.19" height="123.71"/><rect class="cls-81" x="264.36" y="71.29" width="3.19" height="123.71"/><rect class="cls-82" x="261.17" y="71.29" width="3.19" height="123.71"/><rect class="cls-83" x="257.98" y="71.29" width="3.19" height="123.71"/><rect class="cls-84" x="254.8" y="71.29" width="3.19" height="123.71"/><rect class="cls-85" x="251.61" y="71.29" width="3.19" height="123.71"/><rect class="cls-86" x="248.42" y="71.29" width="3.19" height="123.71"/><rect class="cls-87" x="245.24" y="71.29" width="3.19" height="123.71"/><rect class="cls-88" x="242.05" y="71.29" width="3.19" height="123.71"/><rect class="cls-89" x="238.86" y="71.29" width="3.19" height="123.71"/><rect class="cls-90" x="235.68" y="71.29" width="3.19" height="123.71"/><rect class="cls-91" x="232.49" y="71.29" width="3.19" height="123.71"/><rect class="cls-92" x="229.3" y="71.29" width="3.19" height="123.71"/><rect class="cls-93" x="226.12" y="71.29" width="3.19" height="123.71"/><rect class="cls-94" x="222.93" y="71.29" width="3.19" height="123.71"/><rect class="cls-95" x="219.74" y="71.29" width="3.19" height="123.71"/><rect class="cls-96" x="216.56" y="71.29" width="3.19" height="123.71"/><rect class="cls-97" x="213.37" y="71.29" width="3.19" height="123.71"/><rect class="cls-98" x="210.18" y="71.29" width="3.19" height="123.71"/><rect class="cls-99" x="206.99" y="71.29" width="3.19" height="123.71"/><rect class="cls-100" x="203.81" y="71.29" width="3.19" height="123.71"/><rect class="cls-101" x="200.62" y="71.29" width="3.19" height="123.71"/><rect class="cls-102" x="197.43" y="71.29" width="3.19" height="123.71"/><rect class="cls-103" x="194.25" y="71.29" width="3.19" height="123.71"/><rect class="cls-104" x="191.06" y="71.29" width="3.19" height="123.71"/><rect class="cls-105" x="187.87" y="71.29" width="3.19" height="123.71"/><rect class="cls-106" x="184.69" y="71.29" width="3.19" height="123.71"/><rect class="cls-107" x="181.5" y="71.29" width="3.19" height="123.71"/><rect class="cls-108" x="178.31" y="71.29" width="3.19" height="123.71"/><rect class="cls-109" x="175.13" y="71.29" width="3.19" height="123.71"/><rect class="cls-110" x="171.94" y="71.29" width="3.19" height="123.71"/><rect class="cls-111" x="168.75" y="71.29" width="3.19" height="123.71"/><rect class="cls-112" x="165.57" y="71.29" width="3.19" height="123.71"/><rect class="cls-113" x="162.38" y="71.29" width="3.19" height="123.71"/><rect class="cls-114" x="159.19" y="71.29" width="3.19" height="123.71"/><rect class="cls-115" x="156" y="71.29" width="3.19" height="123.71"/><rect class="cls-116" x="154.71" y="71.29" width="1.3" height="123.71"/><path class="cls-117" d="M296.23,205.73v0Z"/><rect class="cls-117" x="293.04" y="60.35" width="3.19" height="145.38"/><rect class="cls-118" x="289.85" y="60.35" width="3.19" height="145.38"/><rect class="cls-119" x="286.67" y="60.35" width="3.19" height="145.38"/><rect class="cls-120" x="283.48" y="60.35" width="3.19" height="145.38"/><rect class="cls-76" x="280.29" y="60.35" width="3.19" height="145.38"/><rect class="cls-77" x="277.11" y="60.35" width="3.19" height="145.38"/><rect class="cls-78" x="273.92" y="60.35" width="3.19" height="145.38"/><rect class="cls-79" x="270.73" y="60.35" width="3.19" height="145.38"/><rect class="cls-80" x="267.55" y="60.35" width="3.19" height="145.38"/><rect class="cls-81" x="264.36" y="60.35" width="3.19" height="145.38"/><rect class="cls-82" x="261.17" y="60.35" width="3.19" height="145.38"/><rect class="cls-83" x="257.98" y="60.35" width="3.19" height="145.38"/><rect class="cls-84" x="254.8" y="60.35" width="3.19" height="145.38"/><rect class="cls-85" x="251.61" y="60.35" width="3.19" height="145.38"/><rect class="cls-86" x="248.42" y="60.35" width="3.19" height="145.38"/><rect class="cls-87" x="245.24" y="60.35" width="3.19" height="145.38"/><rect class="cls-88" x="242.05" y="60.35" width="3.19" height="145.38"/><rect class="cls-89" x="238.86" y="60.35" width="3.19" height="145.38"/><rect class="cls-90" x="235.68" y="60.35" width="3.19" height="145.38"/><rect class="cls-91" x="232.49" y="60.35" width="3.19" height="145.38"/><rect class="cls-92" x="229.3" y="60.35" width="3.19" height="145.38"/><rect class="cls-93" x="226.12" y="60.35" width="3.19" height="145.38"/><rect class="cls-94" x="222.93" y="60.35" width="3.19" height="145.38"/><rect class="cls-95" x="219.74" y="60.35" width="3.19" height="145.38"/><rect class="cls-96" x="216.56" y="60.35" width="3.19" height="145.38"/><rect class="cls-97" x="213.37" y="60.35" width="3.19" height="145.38"/><rect class="cls-98" x="210.18" y="60.35" width="3.19" height="145.38"/><rect class="cls-99" x="206.99" y="60.35" width="3.19" height="145.38"/><rect class="cls-100" x="203.81" y="60.35" width="3.19" height="145.38"/><rect class="cls-101" x="200.62" y="60.35" width="3.19" height="145.38"/><rect class="cls-102" x="197.43" y="60.35" width="3.19" height="145.38"/><rect class="cls-103" x="194.25" y="60.35" width="3.19" height="145.38"/><rect class="cls-104" x="191.06" y="60.35" width="3.19" height="145.38"/><rect class="cls-105" x="187.87" y="60.35" width="3.19" height="145.38"/><rect class="cls-106" x="184.69" y="60.35" width="3.19" height="145.38"/><rect class="cls-107" x="181.5" y="60.35" width="3.19" height="145.38"/><rect class="cls-108" x="178.31" y="60.35" width="3.19" height="145.38"/><rect class="cls-109" x="175.13" y="60.35" width="3.19" height="145.38"/><rect class="cls-110" x="171.94" y="60.35" width="3.19" height="145.38"/><rect class="cls-111" x="168.75" y="60.35" width="3.19" height="145.38"/><rect class="cls-112" x="165.57" y="60.35" width="3.19" height="145.38"/><rect class="cls-113" x="162.38" y="60.35" width="3.19" height="145.38"/><rect class="cls-114" x="159.19" y="60.35" width="3.19" height="145.38"/><rect class="cls-115" x="156" y="60.35" width="3.19" height="145.38"/><rect class="cls-116" x="152.82" y="60.35" width="3.19" height="145.38"/><rect class="cls-121" x="149.63" y="60.35" width="3.19" height="145.38"/><rect class="cls-122" x="146.44" y="60.35" width="3.19" height="145.38"/><path class="cls-122" d="M146.44,60.35v0Z"/></g><ellipse class="cls-123" cx="238.2" cy="189.9" rx="16.86" ry="13.93"/><path class="cls-124" d="M200.27,144.81v26.68H184.91V144.81l-29.2-38.36H172l20.51,27.75,20.57-27.75h16.25Z"/><ellipse class="cls-125" cx="254.38" cy="98.95" rx="33.96" ry="28.06"/><path class="cls-126" d="M276.85,112.51a25.64,25.64,0,0,1-10.1,6.8A37.74,37.74,0,0,1,254,121.22a31.22,31.22,0,0,1-10.83-1.79,24.76,24.76,0,0,1-8.14-4.77,20.58,20.58,0,0,1-5.12-7.07,21.24,21.24,0,0,1-1.77-8.69,20.61,20.61,0,0,1,2-9,20.89,20.89,0,0,1,5.51-7A25.59,25.59,0,0,1,244,78.31a32.83,32.83,0,0,1,10.52-1.6,31.2,31.2,0,0,1,9.85,1.52,22,22,0,0,1,7.7,4.36,19.08,19.08,0,0,1,5,7,23.72,23.72,0,0,1,1.72,9.37v2.27l-41.39-.11a12.75,12.75,0,0,0,1.57,5.2,15.29,15.29,0,0,0,3.54,4.35,16.64,16.64,0,0,0,5.14,3,18.58,18.58,0,0,0,6.45,1.1,24.05,24.05,0,0,0,9.42-1.6,20.94,20.94,0,0,0,6.92-4.78Zm-7.27-17.3a11.23,11.23,0,0,0-4.24-8.7q-4-3.27-11.16-3.28t-11.51,3.22a13.1,13.1,0,0,0-5.29,8.67Z"/></g></g></svg>