<svg xmlns="http://www.w3.org/2000/svg" width="131.091" height="145.144" viewBox="0 0 131.091 145.144"><g transform="translate(-59.981 0)"><path d="M117.393,429.459h-14.24a1.817,1.817,0,0,1-1.815-1.815v-29.6a1.817,1.817,0,0,1,1.815-1.815h14.24a1.817,1.817,0,0,1,1.815,1.815v29.6A1.817,1.817,0,0,1,117.393,429.459Z" transform="translate(-29.809 -285.595)" fill="#00a1e4"/><path d="M237.673,356.94h-14.24a2.1,2.1,0,0,1-2.094-2.094v-57.52a2.1,2.1,0,0,1,2.094-2.094h14.24a2.1,2.1,0,0,1,2.094,2.094v57.52A2.1,2.1,0,0,1,237.673,356.94Zm-14.24-61.15a1.537,1.537,0,0,0-1.536,1.536v57.52a1.538,1.538,0,0,0,1.536,1.536h14.24a1.538,1.538,0,0,0,1.536-1.536v-57.52a1.537,1.537,0,0,0-1.536-1.536Z" transform="translate(-116.302 -212.797)" fill="#3f3d56" stroke="#707070" stroke-width="2"/><path d="M358.673,262.518h-14.24a2.1,2.1,0,0,1-2.094-2.094v-94.1a2.1,2.1,0,0,1,2.094-2.094h14.24a2.1,2.1,0,0,1,2.094,2.094v94.1A2.1,2.1,0,0,1,358.673,262.518Zm-14.24-97.728a1.537,1.537,0,0,0-1.536,1.536v94.1a1.537,1.537,0,0,0,1.536,1.536h14.24a1.538,1.538,0,0,0,1.536-1.536v-94.1a1.537,1.537,0,0,0-1.536-1.536Z" transform="translate(-203.517 -118.375)" fill="#3f3d56" stroke="#707070" stroke-width="2"/><path d="M481.522,163.993h-14.24a1.817,1.817,0,0,1-1.815-1.815V29.547a1.817,1.817,0,0,1,1.815-1.815h14.24a1.817,1.817,0,0,1,1.815,1.815V162.178A1.817,1.817,0,0,1,481.522,163.993Z" transform="translate(-292.265 -19.989)" fill="#00a1e4"/><path d="M182.528,190.7a2.807,2.807,0,0,0-2.927-3.157l-4.963-9.105-1.117,3.909,3.4,8.345a2.823,2.823,0,0,0,5.607.009Z" transform="translate(-81.837 -128.616)" fill="#a0616a"/><path d="M68.816,323.584l2.765,2.019,9.1-9.7L76.6,312.92Z" transform="translate(-6.368 -225.546)" fill="#a0616a"/><path d="M68.67,356.436l-8.689-6.344h0l2.451-3.357h0l5.332,3.893a4.157,4.157,0,0,1,.906,5.808Z" transform="translate(0 -249.919)" fill="#2f2e41"/><path d="M121.2,355.292h3.423l1.628-13.2H121.2Z" transform="translate(-44.125 -246.569)" fill="#a0616a"/><path d="M129.333,390.029H118.574v-4.157h6.6a4.157,4.157,0,0,1,4.157,4.156Z" transform="translate(-42.232 -278.129)" fill="#2f2e41"/><path d="M126.307,195.387s1.675,16.195-2.513,27.364l-3.071,21.221h-5.305l.558-25.13L114.021,196.5S117.93,186.452,126.307,195.387Z" transform="translate(-38.951 -138.163)" fill="#2f2e41"/><path d="M79.326,203.895l5.584,19.266-10.89,17.312,5.445,4.607,12.425-19.406-3.63-23.734Z" transform="translate(-10.12 -145.554)" fill="#2f2e41"/><circle cx="6.858" cy="6.858" r="6.858" transform="translate(76.59 1.422)" fill="#a0616a"/><path d="M94.951,61.807s4.188-2.792,8.935,3.351l1.257,38.672s-3.63-5.026-11.169-.279-9.214-.558-9.214-.558S79.454,63.063,94.951,61.807Z" transform="translate(-17.228 -44.093)" fill="#ccc"/><path d="M141.01,75.073h0a4.888,4.888,0,0,1,4.618,4.624l.886,16.834,5.864,15.916-3.351,2.792-10.89-18.987-2.23-15.607a4.889,4.889,0,0,1,5.1-5.572Z" transform="translate(-54.69 -54.106)" fill="#ccc"/><path d="M118.567,13.424a1.941,1.941,0,0,0,3.349-1.078,1.97,1.97,0,0,0,0-.381,8.826,8.826,0,0,1-.393-2.142,1.122,1.122,0,0,1,.206-.526c.894-1.2,2.991.535,3.834-.548.517-.664-.09-1.71.306-2.452.524-.98,2.075-.5,3.047-1.033,1.082-.6,1.017-2.257.305-3.267a5.14,5.14,0,0,0-3.9-1.984,10.452,10.452,0,0,0-4.4.859,8.8,8.8,0,0,0-4.16,2.884,7.042,7.042,0,0,0-.712,6A11.3,11.3,0,0,0,118.567,13.424Z" transform="translate(-40.158)" fill="#2f2e41"/></g></svg>