<svg xmlns="http://www.w3.org/2000/svg" width="280.137" height="127.281" viewBox="0 0 280.137 127.281"><g transform="translate(-567 -923.208)"><g transform="translate(743.148 903.119)"><ellipse cx="20.57" cy="20.57" rx="20.57" ry="20.57" transform="translate(23.866 33.802)" fill="#00a1e4"/><path d="M51.883,55.982a22.224,22.224,0,0,0-5.61,0A21.873,21.873,0,0,0,28.224,71.2a21.581,21.581,0,0,0-.948,5.616c-.009.265-.016.533-.016.8A21.839,21.839,0,0,0,49.078,99.438c.464,0,.929-.016,1.387-.044a21.574,21.574,0,0,0,3.2-.443,21.819,21.819,0,0,0-1.78-42.97Zm4.024,41.7h0a20.983,20.983,0,0,1-5.439,1.081c-.458.031-.922.047-1.387.047A21.219,21.219,0,0,1,27.884,77.621c0-.268.006-.536.016-.8A21.193,21.193,0,1,1,55.906,97.687Z" transform="translate(-0.278 -26.054)" fill="#3f3d56" stroke="#707070" stroke-width="1.3"/><rect width="0.623" height="4.363" transform="translate(48.488 31.62)" fill="#3f3d56"/><rect width="0.623" height="4.363" transform="translate(34.475 37.683) rotate(-45)" fill="#3f3d56"/><rect width="4.363" height="0.623" transform="translate(28.853 51.256)" fill="#3f3d56"/><rect width="4.363" height="0.623" transform="translate(34.475 65.451) rotate(-45)" fill="#3f3d56"/><rect width="4.363" height="0.623" transform="translate(59.598 40.328) rotate(-45)" fill="#3f3d56"/><rect width="4.363" height="0.623" transform="translate(64.383 51.256)" fill="#3f3d56"/><rect width="0.623" height="4.363" transform="translate(59.598 62.807) rotate(-45)" fill="#3f3d56"/><rect width="0.623" height="4.363" transform="translate(48.488 67.151)" fill="#3f3d56"/><path d="M107.891,134.254a1.558,1.558,0,0,0-1.87,0,1.606,1.606,0,0,0-.446.524,1.558,1.558,0,1,0,2.316-.524Zm-.935,2.182a.938.938,0,0,1-.935-.935.952.952,0,0,1,.165-.53.934.934,0,1,1,.77,1.465Z" transform="translate(-58.156 -83.934)" fill="#3f3d56"/><rect width="5.61" height="5.61" transform="translate(45.995 24.452)" fill="#3f3d56"/><ellipse cx="7.48" cy="2.649" rx="7.48" ry="2.649" transform="translate(41.319 20.089)" fill="#3f3d56"/><rect width="1.87" height="10.597" transform="translate(47.865 39.724)" fill="#3f3d56"/></g><g transform="translate(567 670.26)"><ellipse cx="140.068" cy="9.948" rx="140.068" ry="9.948" transform="translate(0 360.332)" fill="#f9f9f9"/><path d="M571.553,523c-22.839-4.065-47.815-3.389-74.013,0,11.941-10.081,22.247-20.162,10.306-30.242,23.292,4.805,26.555,4.319,52.465,0C554.3,502.843,565.543,512.923,571.553,523Z" transform="translate(-322.057 -147.153)" fill="#6c63ff"/><path d="M571.553,523c-22.839-4.065-47.815-3.389-74.013,0,11.941-10.081,22.247-20.162,10.306-30.242,23.292,4.805,26.555,4.319,52.465,0C554.3,502.843,565.543,512.923,571.553,523Z" transform="translate(-322.057 -147.153)" fill="#6c63ff" style="isolation:isolate"/><path d="M576.207,522.01c-19.4-3.245-40.617-2.705-62.872,0,10.143-8.047,18.9-16.093,8.754-24.14,19.785,3.836,22.557,3.447,44.567,0C561.552,505.917,571.1,513.963,576.207,522.01Z" transform="translate(-332.281 -150.459)" fill="#00a1e4"/><circle cx="10.337" cy="10.337" r="10.337" transform="translate(226.199 337.911)" fill="#2f2e41"/><path d="M516.413,466.249l7.163,1.194,3.581,10.346-10.346,6.367-11.938-17.907h11.54Z" transform="translate(-326.803 -129.991)" fill="#ffe3b4"/><circle cx="16.713" cy="16.713" r="16.713" transform="translate(193.191 318.75)" fill="#ffe3b4"/><path d="M221.155,291.377s-40.588,4.377-47.751,3.581a88.751,88.751,0,0,1-10.346-1.592s-4.775,6.367-2.387,9.152a17.219,17.219,0,0,0,4.775,3.979s4.377-1.194,7.561,0,35.415,6.367,40.986,1.592S221.155,291.377,221.155,291.377Z" transform="translate(-103.569 -16.797)" fill="#2f2e41"/><path d="M231.74,407.215s-26.661-7.56-31.436-40.986v-3.184s-5.275,9.255-7.163,11.142c-2.189,2.189-9.948,21.886-9.55,23.875a4.768,4.768,0,0,1,0,2.785l-11.54-1.194v-3.581s6.168-18.5,6.566-22.88,15.32-34.818,15.32-34.818,5.571-11.54,15.121,0,10.346,19.5,10.346,19.5l12.335,23.875Z" transform="translate(-111.369 -43.898)" fill="#2f2e41"/><path d="M131.113,278.459l-12.734-4.377s-11.938-8.754-9.152,0,15.519,27.855,19.1,25.865,7.889-6.928,6.929-7.642S127.929,286.418,131.113,278.459Z" transform="translate(-70.43 -3.083)" fill="#2f2e41"/><path d="M143.6,504.717l-10.279,5.02s-12.431,1.912-5.5,5.5,26.056,7.411,27.013,4.064.577-8.9-.429-8.753S146.47,511.41,143.6,504.717Z" transform="translate(-81.379 -154.891)" fill="#2f2e41"/><path d="M323.831,448.788s-5.173,22.283,3.581,27.059,70.034,5.571,74.809-3.184,2.388-8.754,2.388-8.754l-12.734-14.325,10.346-.8a3.714,3.714,0,0,0-3.581-3.581c-3.581-.4-14.723-4.377-24.273-1.592s-15.121-5.571-15.121-5.571Z" transform="translate(-208.633 -111.734)" fill="#d0cde1"/><path d="M295.022,267.418l-6.765,37.007,46.557-5.571,8.356-33.426Z" transform="translate(-186.588)" fill="#3f3d56"/><path d="M301.162,271.367l-5.571,33.027,42.379-4.974,8.157-30.043Z" transform="translate(-191.335 -2.556)" fill="#fff"/><path d="M288.388,376.391l-1.592-.4-.8,1.591L298.735,413l1.2-.458.394-2.327Z" transform="translate(-185.128 -71.569)" fill="#b3b3b3"/><path d="M288.257,365.371l12.734,37.007,48.148-7.163L334.814,360.2Z" transform="translate(-186.588 -61.344)" fill="#f9f9f9"/><path d="M306.309,364.177v1.99l35.415-3.979-.4-1.99Z" transform="translate(-198.273 -61.344)" fill="#3f3d56"/><path d="M308.565,376.189l5.571,15.519,36.211-4.377-6.367-14.723Z" transform="translate(-199.733 -69.377)" fill="#3f3d56"/><path d="M407.681,414.829l-1.194-3.183s-9.152-15.917-13.927-12.734,9.948,18.7,9.948,18.7h4.775Z" transform="translate(-253.486 -86.132)" fill="#ffe3b4"/><path d="M347.584,417.2l-1.194-4.775s-3.183-14.723,2.388-13.927,7.162,14.723,7.162,14.723l-.4,3.183Z" transform="translate(-223.632 -86.117)" fill="#ffe3b4"/><path d="M358.011,444.987s-10.346-1.591-10.744.8-2.387,38.2,7.561,39.394,59.29,6.367,54.118-5.969-13.131-10.744-13.131-10.744l-33.823,3.581Z" transform="translate(-224.508 -115.892)" fill="#d0cde1"/><path d="M434.945,445.406,424.4,438.044l-6.964,5.372,8.754,9.55Z" transform="translate(-270.206 -111.734)" fill="#d0cde1"/><path d="M386.976,479.224l1.591,15.121,27.457-1.592-23.875-.4Z" transform="translate(-250.489 -138.39)" opacity="0.2" style="isolation:isolate"/><circle cx="19.896" cy="19.896" r="19.896" transform="translate(198.257 318.603)" fill="#2f2e41"/><path d="M328.309,289.479l24.671-.859,2.387-9.089L329.9,280.3Z" transform="translate(-212.514 -9.129)" fill="#00a1e4"/><path d="M310.258,317.291l37.4-1.194.4-1.592-37.4,1.317Z" transform="translate(-200.829 -31.767)" fill="#e6e6e6"/><path d="M308,328.573l37.4-1.194.4-1.592L308.4,327.1Z" transform="translate(-199.368 -39.07)" fill="#e6e6e6"/><path d="M306.873,337.6l37.4-1.194.4-1.592-37.4,1.317Z" transform="translate(-198.638 -44.913)" fill="#e6e6e6"/></g></g></svg>