<svg id="Capa_1" xmlns="http://www.w3.org/2000/svg" xmlns:xlink="http://www.w3.org/1999/xlink" viewBox="0 0 154 154" style="enable-background:new 0 0 154 154"><path style="fill:#03c" d="M152.667 56.327c0 31.646-33.877 78.437-75.667 78.437S1.333 109.11 1.333 77.465 35.21 20.165 77 20.165 152.667 24.681 152.667 56.327z"/><path style="fill:#e6e6e6" d="M61.4 35.867h-6.296c-.38.0-.688-.308-.688-.688v-7.391c0-.38.308-.688.688-.688H61.4c.38.0.688.308.688.688v7.391C62.087 35.559 61.78 35.867 61.4 35.867z"/><path style="fill:#00a1e4" d="M48.257 39.574h-6.296c-.38.0-.688-.308-.688-.688v-7.391c0-.38.308-.688.688-.688h6.296c.38.0.688.308.688.688v7.391C48.944 39.266 48.637 39.574 48.257 39.574z"/><path style="fill:#292526" d="M58.913 50.86h-6.296c-.38.0-.688-.308-.688-.688v-7.391c0-.38.308-.688.688-.688h6.296c.38.0.688.308.688.688v7.391C59.6 50.553 59.292 50.86 58.913 50.86z"/><path style="fill:#ccc" d="M115.483 122.693H30.541c-.09.0.0.09.0.0s-.09.0.0.0l84.942-.164c.09.0.0-.09.0.0S115.574 122.693 115.483 122.693z"/><path style="fill:#ccc" d="M118.255 84.074H28.218c-.796.0-1.441.645-1.441 1.441s.645 1.441 1.441 1.441h2.55v34.485c0 .796.645 1.441 1.441 1.441.796.0 1.441-.645 1.441-1.441l.022-34.485H112.6v34.485c0 .796.645 1.441 1.441 1.441.796.0 1.441-.645 1.441-1.441V87.718l.419-.76h2.353c.796.0 1.441-.645 1.441-1.441S119.051 84.074 118.255 84.074z"/><path style="fill:#3f3d56" d="M78.135 84.829H50.862c-1.1-.001-1.991-.892-1.992-1.992V67.821c.001-1.1.892-1.991 1.992-1.992h27.273c1.1.001 1.991.892 1.992 1.992v15.016C80.126 83.937 79.235 84.828 78.135 84.829z"/><path style="fill:#fff" d="M78.135 67.363H50.862c-.253.001-.459.206-.459.459v15.016c.001.253.206.459.459.459h27.273c.253-.001.459-.206.459-.459V67.822C78.594 67.568 78.389 67.363 78.135 67.363z"/><path style="fill:#2f2e41" d="M66.825 77.994c0 0-3.265-.752-5.061.627C59.969 80 64.05 83.135 64.05 83.135L66.825 77.994z"/><circle style="fill:#a0616a" cx="64.659" cy="73.492" r="3.08"/><path style="fill:#2f2e41" d="M62.277 69.169c.419-.711 1.201-1.127 2.024-1.077.422.053.835.168 1.223.342l2.013.785c.521.203 1.092.452 1.318.964.21.475.053 1.023-.105 1.517l-.753 2.349c-.083-.532-.227-1.052-.427-1.552-.203-.503-.571-.922-1.043-1.19-.523-.268-1.139-.263-1.726-.234-.831.04-1.735.146-2.326.732-.314.333-.526.748-.613 1.197-.086.447-.129.901-.129 1.355-.341-.586-.628-1.202-.858-1.84-.189-.475-.297-.978-.319-1.489-.02-.515.151-1.019.48-1.416.341-.396.876-.564 1.382-.435L62.277 69.169z"/><path style="fill:#6c63ff" d="M72.012 80.664c-.059-.213-.24-.369-.459-.397-.007-.005-.015-.009-.022-.013l-4.598-2.577c-.273-.153-.617-.064-.782.201l-1.257 2.036L63 78.021l-.03-.03c-.201-.201-.516-.228-.749-.065l-3.778 2.646c-.007.0-.013.002-.02.002-.373.062-.652.375-.672.752l-.098 1.972h15.089L72.012 80.664z"/><path style="fill:#3f3d56" d="M80.434 82.99h-2.911c0-.169-.137-.306-.306-.306v0h-.919c-.169.0-.306.137-.306.306h-.919c0-.169-.137-.306-.306-.306h-.919c-.169.0-.306.137-.306.306v0H72.62c0-.169-.137-.306-.306-.306v0h-.919c-.169.0-.306.137-.306.306H70.17c0-.169-.137-.306-.306-.306h-.919c-.169.0-.306.137-.306.306v0H67.72c0-.169-.137-.306-.306-.306v0h-.919c-.169.0-.306.137-.306.306v0H65.27c0-.169-.137-.306-.306-.306h-.919c-.169.0-.306.137-.306.306H62.82c0-.169-.137-.306-.306-.306v0h-.919c-.169.0-.306.137-.306.306v0H60.37c0-.169-.137-.306-.306-.306v0h-.919c-.169.0-.306.137-.306.306H57.91c0-.169-.137-.306-.306-.306h-.919c-.169.0-.306.137-.306.306v0H55.46c0-.169-.137-.306-.306-.306v0h-.919c-.169.0-.306.137-.306.306H53.01c0-.169-.137-.306-.306-.306h-.919c-.169.0-.306.137-.306.306v0h-2.911c-.508.001-.918.414-.917.922.001.506.411.916.917.917h31.87c.508-.001.919-.413.918-.92C81.351 83.402 80.941 82.991 80.434 82.99z"/><path style="fill:#f2f2f2" d="M43.825 77.651v6.104H28.531c-1.686.059-3.1-1.26-3.158-2.946-.059-1.686 1.26-3.1 2.946-3.158.071-.002.142-.002.212.0H43.825z"/><path style="fill:#6c63ff" d="M44.2 83.709c0 .13-.105.235-.235.235H28.259c-1.776.0-3.216-1.44-3.216-3.216s1.44-3.216 3.216-3.216h15.707c.13.0.235.105.235.235s-.105.235-.235.235H28.259c-1.517.002-2.745 1.234-2.743 2.751.002 1.514 1.229 2.741 2.743 2.743h15.707C44.095 83.474 44.2 83.579 44.2 83.709z"/><path style="fill:#ccc" d="M43.825 79.06H27.39c-.026.0-.047-.021-.047-.047.0-.026.021-.047.047-.047h.001 16.435c.026.0.047.021.047.047C43.871 79.039 43.85 79.06 43.825 79.06z"/><path style="fill:#ccc" d="M43.825 80.187H27.39c-.026.0-.047-.021-.047-.047.0-.026.021-.047.047-.047h.001 16.435c.026.0.047.021.047.047C43.871 80.166 43.85 80.187 43.825 80.187z"/><path style="fill:#ccc" d="M43.825 81.314H27.39c-.026.0-.047-.021-.047-.047.0-.026.021-.047.047-.047h.001 16.435c.026.0.047.021.047.047C43.871 81.293 43.85 81.314 43.825 81.314z"/><path style="fill:#ccc" d="M43.825 82.441H27.39c-.026.0-.047-.021-.047-.047.0-.026.021-.047.047-.047h.001 16.435c.026.0.047.021.047.047C43.871 82.42 43.85 82.441 43.825 82.441z"/><path style="fill:#f2f2f2" d="M40.942 71.22v6.104H25.648c-1.686.059-3.1-1.26-3.158-2.946-.059-1.686 1.26-3.1 2.946-3.158.071-.002.142-.002.212.0.0.0 15.294.0 15.294.0z"/><path style="fill:#3f3d56" d="M41.318 77.278c0 .13-.105.235-.235.235H25.376c-1.776.0-3.216-1.44-3.216-3.216s1.44-3.216 3.216-3.216h15.707c.13.0.235.105.235.235s-.105.235-.235.235H25.376c-1.517.0-2.747 1.23-2.747 2.747s1.23 2.747 2.747 2.747h15.707C41.212 77.043 41.317 77.148 41.318 77.278z"/><path style="fill:#ccc" d="M40.942 72.629H24.507c-.026.0-.047-.021-.047-.047.0-.026.021-.047.047-.047h.001 16.435c.026.0.047.021.047.047C40.988 72.608 40.967 72.629 40.942 72.629z"/><path style="fill:#ccc" d="M40.942 73.756H24.507c-.026.0-.047-.021-.047-.047.0-.026.021-.047.047-.047h.001 16.435c.026.0.047.021.047.047C40.988 73.735 40.967 73.756 40.942 73.756z"/><path style="fill:#ccc" d="M40.942 74.883H24.507c-.026.0-.047-.021-.047-.047.0-.026.021-.047.047-.047h.001 16.435c.026.0.047.021.047.047C40.988 74.862 40.967 74.883 40.942 74.883z"/><path style="fill:#ccc" d="M40.942 76.01H24.507c-.026.0-.047-.021-.047-.047.0-.026.021-.047.047-.047h.001 16.435c.026.0.047.021.047.047C40.988 75.989 40.967 76.009 40.942 76.01z"/><path style="fill:#ccc" d="M58.733 105.453v-5.322c0-.49-.397-.887-.887-.887H37.665c-.49.0-.887.397-.887.887v5.322H58.733z"/><path style="fill:#ccc" d="M36.778 107.449h21.955v6.875H36.778z"/><path style="fill:#ccc" d="M36.778 116.32v5.322c0 .49.397.887.887.887h20.181c.49.0.887-.397.887-.887v-5.322H36.778z"/><circle style="fill:#fff" cx="47.645" cy="102.57" r=".665"/><circle style="fill:#fff" cx="47.645" cy="111.441" r=".665"/><circle style="fill:#fff" cx="47.68" cy="120.124" r=".665"/><path style="fill:#f2f2f2" d="M56.244 93.175v6.104H40.95c-1.686.059-3.1-1.26-3.158-2.946-.059-1.686 1.26-3.1 2.946-3.158.071-.002.142-.002.213.0.0.0 15.293.0 15.293.0z"/><path style="fill:#3f3d56" d="M56.619 99.232c0 .13-.105.235-.235.235H40.678c-1.776.001-3.217-1.438-3.218-3.215-.001-1.776 1.438-3.217 3.215-3.218.001.0.003.0.004.0h15.707c.13.0.235.105.235.235s-.105.235-.235.235H40.678c-1.517.002-2.745 1.234-2.743 2.751.002 1.514 1.229 2.741 2.743 2.743h15.707C56.514 98.998 56.619 99.103 56.619 99.232z"/><path style="fill:#ccc" d="M56.244 94.584H39.809c-.026.0-.047-.021-.047-.047.0-.026.021-.047.047-.047h.001 16.435c.026.0.047.021.047.047C56.29 94.563 56.269 94.584 56.244 94.584v0z"/><path style="fill:#ccc" d="M56.244 95.711H39.809c-.026.0-.047-.021-.047-.047s.021-.047.047-.047h.001 16.435c.026.0.047.021.047.047C56.29 95.69 56.269 95.711 56.244 95.711v0z"/><path style="fill:#ccc" d="M56.244 96.838H39.809c-.026.0-.047-.021-.047-.047s.021-.047.047-.047h.001 16.435c.026.0.047.021.047.047C56.29 96.817 56.269 96.837 56.244 96.838v0z"/><path style="fill:#ccc" d="M56.244 97.965H39.809c-.026.0-.047-.021-.047-.047s.021-.047.047-.047h.001 16.435c.026.0.047.021.047.047C56.29 97.944 56.269 97.964 56.244 97.965v0z"/><path style="fill:#e6e6e6" d="M35.626 56.807V20.78c.001-.852.747-1.543 1.668-1.544H68.06c.921.001 1.667.692 1.668 1.544v36.027c-.001.852-.747 1.543-1.668 1.544H37.294C36.374 58.35 35.627 57.659 35.626 56.807zM37.294 19.579c-.716.001-1.297.538-1.297 1.201v36.027c.001.663.581 1.2 1.297 1.201H68.06c.716-.001 1.297-.538 1.297-1.201V20.78c-.001-.663-.581-1.2-1.297-1.201H37.294z"
	/><path style="fill:#3f3d56" d="M92.277 82.168h-6.968c-.066.0-.131.015-.191.044l-1.759.88c-.163.069-.239.257-.17.42.032.076.093.137.17.17l1.759.88c.059.029.125.044.191.044h6.968c.2.012.372-.14.386-.339v-1.761C92.649 82.307 92.477 82.156 92.277 82.168z"/><path style="fill:#6c63ff" d="M92.663 82.507v1.761c-.014.2-.186.351-.386.339h-1.388v-2.439h1.388C92.477 82.156 92.649 82.307 92.663 82.507z"/><path style="fill:#ffb8b8" d="M92.225 68.995c1.237-.534 2.673.036 3.207 1.274.037.085.068.172.095.26.031.104.055.211.071.318l9.744 4.832 2.255-1.494 2.806 3.23-3.443 2.796c-.85.685-2.049.731-2.95.114l-9.886-6.837c-.074.031-.149.059-.225.082-1.29.39-2.652-.339-3.042-1.629-.027-.088-.048-.178-.065-.269-.018-.098-.03-.197-.036-.297C90.699 70.352 91.286 69.402 92.225 68.995z"/><path style="fill:#3f3d56" d="M112.52 98.744h-10.647c0 .306-10.973.554-10.973.554-.172.13-.329.278-.468.444-.417.497-.645 1.125-.643 1.774v.444c.001 1.531 1.241 2.772 2.772 2.772h19.959c1.53-.001 2.771-1.242 2.772-2.772v-.444C115.29 99.986 114.05 98.747 112.52 98.744z"/><path style="fill:#3f3d56" d="M100.938 104.622h2.883v18.628H100.938z"/><path style="fill:#3f3d56" d="M92.733 123.149c0 .311 4.369.12 9.758.12s9.758.191 9.758-.12-4.369-2.782-9.758-2.782C97.102 120.367 92.733 122.838 92.733 123.149z"/><path style="fill:#ffb8b8" d="M95.335 120.966H92.617L91.323 113.914H95.336z"/><path style="fill:#2f2e41" d="M96.029 123.601h-8.767v-.111c0-1.884 1.528-3.412 3.412-3.412v0 0h5.354L96.029 123.601z"/><path style="fill:#2f2e41" d="M91.269 116.593l-5.42-12.155c-.938-2.124-.087-4.613 1.956-5.718l11.757-6.304 5.365-.456 4.949-.45.036.06c.046.077 1.11 1.915.39 3.93-.546 1.529-1.965 2.722-4.218 3.549-5.259 1.928-11.334 3.576-13.702 4.195-.212.054-.39.196-.49.39-.1.192-.116.417-.044.621l5.036 11.313c.19.517-.076 1.091-.594 1.28-.081.03-.165.049-.251.057l-3.763.274c-.032.003-.064.005-.095.005C91.786 117.184 91.429 116.953 91.269 116.593z"/><path style="fill:#ffb8b8" d="M96.666 120.966H93.947L92.654 113.914H96.666z"/><path style="fill:#2f2e41" d="M97.359 123.601h-8.767v-.111c0-1.884 1.528-3.412 3.412-3.412v0 0h5.354L97.359 123.601z"/><path style="fill:#2f2e41" d="M92.821 117.258l-5.42-12.155c-.938-2.124-.087-4.613 1.956-5.718l11.757-6.304 5.365-.456 4.949-.45.036.06c.046.077 1.11 1.915.39 3.93-.546 1.529-1.965 2.722-4.218 3.549-5.259 1.928-11.334 3.576-13.702 4.195-.212.054-.39.196-.49.39-.1.192-.116.417-.044.621l5.036 11.313c.19.517-.076 1.091-.594 1.28-.081.03-.165.049-.251.057l-3.763.274c-.032.003-.064.005-.095.005C93.338 117.85 92.982 117.618 92.821 117.258z"/><path style="fill:#ccc" d="M90.12 80.128c-2.278-3.03-4.078-6.39-5.339-9.964-.151-.442.04-.927.451-1.149l7.794-4.176c.255-.138.56-.15.826-.034.271.118.472.354.546.64.907 3.444 2.612 6.627 4.978 9.29.197.22.282.518.23.809-.05.286-.229.533-.486.669l-7.794 4.176C90.914 80.608 90.404 80.498 90.12 80.128z"
	/><path style="fill:#fff" d="M90.652 79.728c.087.108.238.139.36.074l7.794-4.176c.077-.04.13-.114.145-.199.016-.09-.01-.183-.072-.25-2.435-2.742-4.19-6.018-5.124-9.564-.022-.089-.084-.162-.168-.198-.079-.035-.17-.032-.246.01l-7.794 4.176c-.122.066-.18.209-.137.341C86.646 73.452 88.415 76.753 90.652 79.728z"/><path style="fill:#6c63ff" d="M116.013 79.014l-6.104 2.32-1.49-4.14c-.409-1.135.06-2.399 1.109-2.994v0c1.062-.602 2.405-.34 3.163.618L116.013 79.014z"/><path style="fill:#6c63ff" d="M100.487 95.416c-.26-.184-.428-.47-.462-.787-.782-7.298-.237-13.01 1.665-17.461.679-1.555 2.032-2.714 3.674-3.145l4.934-.249.026.012c2.286 1.12 3.568 3.606 3.153 6.118-1.587 4.183-2.916 8.539-1.902 12.052.086.297.047.616-.107.883-.15.259-.4.444-.691.512l-9.398 2.236C101.07 95.661 100.745 95.598 100.487 95.416v0z"/><circle style="fill:#ffb8b8" cx="108.651" cy="66.484" r="5.447"/><path style="fill:#ccc" d="M93.537 70.798l-4.245 1.874c-.336.148-.729-.004-.877-.34l-.105-.238c-.148-.336.004-.729.34-.877l4.245-1.874c.336-.148.729.004.877.34l.105.238C94.025 70.257 93.873 70.65 93.537 70.798z"/><path style="fill:#ccc" d="M95.089 73.681l-4.245 1.874c-.336.148-.729-.004-.877-.34l-.105-.238c-.148-.336.004-.729.34-.877l4.245-1.874c.336-.148.729.004.877.34l.105.238C95.577 73.14 95.425 73.533 95.089 73.681z"/><path style="fill:#ffb8b8" d="M98.363 84.942l-9.464-7.466c-.075.027-.152.049-.23.068-.676.158-1.386.022-1.956-.375-.573-.397-.947-1.022-1.026-1.715-.131-1.127.531-2.196 1.599-2.581 1.269-.455 2.666.204 3.121 1.473.031.087.057.175.078.265.024.106.041.214.051.322l9.421 5.435 2.344-1.35 2.597 3.4-3.64 2.594C100.384 85.631 99.207 85.602 98.363 84.942z"/><path style="fill:#6c63ff" d="M106.054 83.477l-5.4-3.672 2.538-3.594c.696-.985 2-1.326 3.089-.807v0c1.102.525 1.657 1.776 1.307 2.946L106.054 83.477z"/><path style="fill:#2f2e41" d="M106.654 65.673c-1.4.958-3.238 1.943-4.668.923-.939-.67-1.235-1.911-.854-2.999.685-1.958 2.566-2.82 4.364-3.481 2.338-.859 4.885-1.542 7.299-.927 2.414.615 4.547 2.952 4.112 5.405-.35 1.972-2.211 3.614-1.947 5.6.266 1.999 2.513 3.051 4.498 3.408 1.984.357 4.205.472 5.631 1.897 1.819 1.818 1.365 5.068-.347 6.988s-4.295 2.79-6.798 3.381c-3.316.784-6.903 1.196-10.053-.105s-5.601-4.802-4.688-8.086c.385-1.387 1.293-2.559 2.171-3.7.877-1.141 1.766-2.334 2.101-3.734.279-1.167.072-2.521-.701-3.396-.289-.314-.342-.779-.132-1.15L106.654 65.673z"/></svg>