<svg id="Capa_1" xmlns="http://www.w3.org/2000/svg" xmlns:xlink="http://www.w3.org/1999/xlink" viewBox="0 0 200 200" style="enable-background:new 0 0 200 200"><g><path style="fill:#03c" d="M197.358 80.725c0 40.569-43.429 100.554-97.002 100.554S3.354 148.392 3.354 107.823s43.429-73.456 97.002-73.456S197.358 40.156 197.358 80.725z"/><g><path style="fill:#ffb8b8" d="M40.054 166.695 43.62 167.692 49.163 154.41 43.9 152.939z"/><path style="fill:#2f2e41" d="M49.572 172.927l-11.209-3.134v0l1.211-4.331v0l7.312 2.044c2.152.602 3.409 2.834 2.808 4.987v0L49.572 172.927v0z"/><path style="fill:#ffb8b8" d="M82.596 169.488H86.3L88.061 155.204H82.595z"/><path style="fill:#2f2e41" d="M93.442 172.926l-11.639.001v0-4.497.0l7.592-.001c2.235.0 4.047 1.811 4.047 4.046v0V172.926v0z"/><path style="fill:#b3b3b3" d="M55.077 110.186 46.554 131.067 81.359 138.886 81.803 127.204 65.998 110.37z"/><circle style="fill:#ffb8b8" cx="70.145" cy="70.676" r="7.956"/><path style="fill:#6c63ff" d="M75.83 109.031l-15.754-6.449-1.403-9.249c-.858-5.616 2.853-10.914 8.424-12.026l2.084-.418c3.476-.696 7.07.37 9.604 2.849 2.483 2.373 3.612 5.832 3.005 9.213-.235 1.426-.814 2.774-1.685 3.927-4.949 6.472-4.314 11.852-4.307 11.906L75.83 109.031z"/><path style="fill:#2f2e41" d="M82.245 133.151l-7.895-12.557 2.487-22.841L73.401 80.67l.183.005c4.15.102 7.489 3.443 7.59 7.593l3.342 16.74L82.245 133.151z"/><path style="fill:#2f2e41" d="M82.425 166.788c-.686-.001-1.277-.485-1.412-1.157l-3.459-17.2c-.632-3.151-1.822-6.164-3.513-8.897l-9.76-15.789c-.146-.236-.455-.309-.691-.163-.089.055-.159.137-.199.234l-16.047 38.548c-.266.635-.944.995-1.619.858l-4.287-.874c-.764-.152-1.267-.886-1.133-1.653l3.497-20.609c.713-4.201 1.929-8.3 3.62-12.211l11.843-27.371 17.477 5.74 1.153 12.238 8.075 19.554c.558 1.35.892 2.783.988 4.241l1.492 22.599c.048.784-.538 1.464-1.321 1.532l-4.586.375C82.504 166.786 82.465 166.788 82.425 166.788z"/><path style="fill:#2f2e41" d="M50.542 138.75l-5.541-5.259 10.471-40.379c1.347-5.147 5.036-9.361 9.959-11.378l.206-.084-.56 24.576L50.542 138.75z"/><path style="fill:#2f2e41" d="M68.291 78.604c-1.966-1.701-2.563-4.875-1.359-7.215 1.204-2.34 4.084-3.599 6.547-2.863 2.319.693 4.956-1.619 4.673-4.098-.283-2.479-3.367-4.094-5.466-2.863-3.248-1.304-6.959-.581-9.481 1.847-2.467 2.417-3.403 6.368-2.295 9.69C62.017 76.424 65.108 78.939 68.291 78.604z"/><path style="fill:#fff" d="M61.331 143.266c-.097.037-.198.063-.301.078l-12.65 1.766c-.63.09-1.239-.269-1.465-.864l-10.889-28.333c-.271-.705.081-1.496.786-1.767.063-.024.127-.044.193-.058v0l11.896-2.655c.092-.021.181-.053.264-.097l11.571-6.049c.089-.047.184-.084.281-.109l12.734-3.395c.675-.181 1.379.177 1.628.831l9.494 24.705c.17.438.102.932-.18 1.307l-3.283 4.409c-.154.208-.365.367-.606.46l-7.176 2.758c-.051.02-.101.043-.149.071l-11.957 6.853C61.46 143.21 61.397 143.24 61.331 143.266z"/><path style="fill:#e6e6e6" d="M67.217 105.559 65.6 105.99l-4.285 1.143-.008.002-5.867 3.067-2.177 1.139h-.001l-3.27 1.709-.09.02-3.397.757-1.642.367-6.696 1.494 10.512 27.352 6.9-.963 1.692-.237 3.606-.504.042-.005 11.587-6.641 7.05-2.709 3.219-4.322-9.15-23.809L67.217 105.559z"/><path transform="matrix(0.9334 -0.3587 0.3587 0.9334 -37.4806 28.4742)" style="fill:#fff" d="M39.325 114.413h37.342v1.664H39.325z"/><path transform="matrix(0.9334 -0.3587 0.3587 0.9334 -39.2055 29.5326)" style="fill:#fff" d="M41.315 119.591h37.342v1.664H41.315z"/><path transform="matrix(0.9334 -0.3587 0.3587 0.9334 -42.6896 31.6706)" style="fill:#fff" d="M45.334 130.049h37.342v1.664H45.334z"/><path style="fill:#fff" d="M67.217 105.559 77.653 132.715 76.099 133.312 65.6 105.991z"/><path style="fill:#fff" d="M55.441 110.203 53.298 116.165 52.555 118.233 50.821 123.059 50.45 124.091 50.078 125.128 49.589 126.489 46.076 136.265 45.162 133.889 48.027 125.916 48.675 124.111 48.77 123.848 49.536 121.714 50.503 119.022 51.246 116.953 53.262 111.342 53.263 111.341z"/><path style="opacity:.1;enable-background:new" d="M72.76 134.595 72.507 134.692 60.92 141.333 60.878 141.339 49.903 113.071 49.992 113.051 53.262 111.342 53.263 111.341 55.441 110.203 61.307 107.135 61.315 107.133z"/><path style="fill:#e6e6e6" d="M61.383 143.402c-.107.041-.219.07-.333.086l-12.65 1.766c-.698.1-1.371-.297-1.622-.956L35.89 115.964c-.3-.78.09-1.655.87-1.955.069-.027.141-.048.213-.064l11.896-2.655c.079-.018.156-.046.228-.084l11.571-6.049c.099-.052.203-.092.311-.121l12.734-3.395c.747-.201 1.526.196 1.802.919l9.494 24.705c.188.484.112 1.031-.199 1.446l-3.283 4.409c-.171.23-.404.406-.671.509l-7.176 2.758c-.045.017-.088.038-.129.061l-11.957 6.853C61.526 143.341 61.456 143.374 61.383 143.402zM36.968 114.554c-.479.184-.718.722-.534 1.202l10.889 28.333c.154.405.568.649.997.588l12.65-1.766c.118-.016.231-.055.334-.114l11.957-6.853c.067-.039.137-.072.21-.1l7.176-2.758c.164-.063.307-.171.412-.313l3.283-4.409c.191-.255.237-.592.122-.889L74.97 102.77c-.17-.444-.648-.688-1.108-.565L61.128 105.6c-.066.018-.13.043-.191.074l-11.571 6.05c-.117.061-.242.107-.371.136L37.1 114.514C37.055 114.524 37.011 114.537 36.968 114.554z"/><path style="fill:#fff" d="M46.506 113.829 57.272 141.843 55.58 142.079 44.864 114.196z"/><circle style="fill:#3f3d56" cx="49.602" cy="124.36" r=".777"/><circle style="fill:#6c63ff" cx="77.137" cy="125.188" r=".777"/><path style="fill:#6c63ff" d="M77.451 111.161c.881 2.293-.179 9.894-.552 12.333-.037.242-.263.408-.505.372-.079-.012-.153-.045-.214-.095-1.911-1.562-7.788-6.496-8.67-8.789-1.055-2.745.315-5.826 3.06-6.881C73.316 107.046 76.396 108.416 77.451 111.161v0z"/><circle style="fill:#fff" cx="72.481" cy="113.072" r="2.884"/><path style="fill:#ffb8b8" d="M68.776 106.848c.441-1.619 2.111-2.573 3.729-2.132.173.047.341.109.502.186l5.149-4.655 3.592 2.439-7.364 6.471c-.822 1.473-2.682 2.001-4.155 1.18C68.997 109.649 68.396 108.207 68.776 106.848v0z"/><path style="fill:#2f2e41" d="M77.072 108.367l-4.036-5.478L82.238 97l-6.595-9.411c-1.209-1.725-.79-4.103.934-5.312 1.462-1.025 3.44-.898 4.759.306l8.258 7.534c2.822 2.575 3.023 6.95.448 9.772-.418.458-.895.857-1.419 1.188L77.072 108.367z"/><path style="fill:#ffb8b8" d="M45.449 122.74c1.378-.956 1.721-2.849.765-4.227-.102-.147-.217-.285-.343-.411l2.668-6.408-3.499-2.571-3.641 9.102c-1.114 1.266-.991 3.196.275 4.31C42.734 123.467 44.295 123.552 45.449 122.74v0z"/><path style="fill:#2f2e41" d="M47.252 116.233l-6.31-1.47 4.702-13.56c.81-2.34 2.006-4.527 3.537-6.473l7.671-9.755c1.464-1.862 4.161-2.185 6.024-.72 1.853 1.457 2.183 4.136.739 5.999l-8.512 10.987L47.252 116.233z"/><path style="fill:#ccc" d="M108.344 172.234H38.547c-.101.0-.183-.047-.183-.104.0-.058.082-.104.183-.104h69.798c.101.0.183.047.183.104C108.528 172.188 108.446 172.234 108.344 172.234z"/><path style="fill:#e6e6e6" d="M137.841 173.083h-2.624V19.312c0-.724.587-1.312 1.312-1.312s1.312.587 1.312 1.312V173.083z"/><path style="fill:#ccc" d="M156.935 173.229h-40.811c-.161.0-.292-.131-.292-.292.0-.161.131-.292.292-.292h40.811c.161.0.292.131.292.292C157.226 173.098 157.096 173.229 156.935 173.229z"/><path style="fill:#2f2e41" d="M156.045 38.114h-38.173c-.724-.001-1.311-.588-1.312-1.312V25.725c.001-.724.588-1.311 1.312-1.312h38.176c.224.0.444.057.639.166l9.872 5.509c.633.353.859 1.152.506 1.785-.118.211-.291.385-.501.503l-9.875 5.568C156.493 38.056 156.271 38.114 156.045 38.114z"/><path style="fill:#e6e6e6" d="M152.562 62.018h-38.173c-.226.0-.448-.058-.644-.169l-9.875-5.568c-.631-.356-.854-1.156-.498-1.787.119-.21.293-.384.503-.501l9.872-5.509c.195-.109.415-.166.639-.166h38.176c.724.001 1.311.588 1.312 1.312v11.077C153.873 61.43 153.286 62.017 152.562 62.018z"/><path style="fill:#e6e6e6" d="M152.708 85.484h-38.173c-.226.0-.448-.058-.644-.169l-9.875-5.568c-.631-.356-.854-1.156-.498-1.787.119-.21.293-.384.503-.501l9.872-5.509c.195-.109.415-.166.639-.166h38.176c.724.001 1.311.588 1.312 1.312v11.077C154.019 84.897 153.432 85.484 152.708 85.484z"/></g><g transform="translate(94.564 60.96)"><circle style="fill:#00a1e4" cx="41.46" cy="-29.773" r="5.034"/><g transform="translate(2.608 2.37)"><path style="fill:#fff" d="M42.182-29.711c-.387.528-.902.948-1.497 1.221-.598.241-1.239.358-1.884.343-.552.007-1.099-.103-1.605-.321-.457-.199-.867-.491-1.206-.856-.335-.368-.593-.799-.759-1.268-.178-.5-.267-1.028-.262-1.559-.004-.552.097-1.1.297-1.614.184-.472.461-.901.815-1.263.352-.353.772-.631 1.235-.815.496-.197 1.025-.295 1.559-.287.5-.004.995.088 1.46.273.433.173.823.44 1.141.782.33.361.58.788.735 1.252.179.542.265 1.11.254 1.68v.406l-6.134-.02c.02.323.099.64.233.934.128.289.305.553.525.781.218.223.476.403.761.529.301.133.627.2.957.198.482.017.96-.082 1.396-.287.399-.21.748-.502 1.025-.858L42.182-29.711zM41.105-32.814c.008-.583-.218-1.145-.628-1.56-.45-.41-1.046-.623-1.654-.59-1.273-.086-2.381.863-2.49 2.135L41.105-32.814z"/></g></g></g></svg>