<svg id="Capa_1" xmlns="http://www.w3.org/2000/svg" xmlns:xlink="http://www.w3.org/1999/xlink" viewBox="0 0 138.1 104.6" enable-background="new 0 0 138.1 104.6"><linearGradient id="SVGID_2_" gradientUnits="userSpaceOnUse" x1="227.1637" y1="-46.2459" x2="227.1637" y2="721.754"><stop offset="0" style="stop-color:#fff"/><stop offset="1" style="stop-color:#fff"/></linearGradient><path display="none" fill="url(#SVGID_2_)" d="M-455.8-46.2h1366v768h-1366z"/><g><path fill="#03c" d="M138.1 33c0 28.9-30.9 71.6-69.1 71.6S0 81.2.0 52.3 30.9.0 69.1.0s69 4.1 69 33z"/><g transform="translate(-59.981 0)"><path fill="#00a1e4" d="M102.6 91.6h-8.2c-.6.0-1-.5-1-1v-17c0-.6.5-1 1-1h8.2c.6.0 1 .5 1 1v17C103.7 91.1 103.2 91.6 102.6 91.6z"/><path fill="none" stroke="#fff" stroke-miterlimit="10" d="M122.1 91.8h-8.2c-.7.0-1.2-.5-1.2-1.2V57.5c0-.7.5-1.2 1.2-1.2h8.2c.7.0 1.2.5 1.2 1.2v33.1C123.3 91.2 122.7 91.8 122.1 91.8zM113.9 56.6c-.5.0-.9.4-.9.9v33.1c0 .5.4.9.9.9h8.2c.5.0.9-.4.9-.9V57.5c0-.5-.4-.9-.9-.9H113.9z"/><path fill="none" stroke="#fff" stroke-miterlimit="10" d="M141.5 91.8h-8.2c-.7.0-1.2-.5-1.2-1.2V36.4c0-.7.5-1.2 1.2-1.2h8.2c.7.0 1.2.5 1.2 1.2v54.1C142.7 91.2 142.1 91.8 141.5 91.8zM133.3 35.5c-.5.0-.9.4-.9.9v54.1c0 .5.4.9.9.9h8.2c.5.0.9-.4.9-.9V36.4c0-.5-.4-.9-.9-.9H133.3z"/><path fill="#00a1e4" d="M161.1 91.7h-8.2c-.6.0-1-.5-1-1V14.3c0-.6.5-1 1-1h8.2c.6.0 1 .5 1 1v76.3C162.1 91.2 161.7 91.7 161.1 91.7z"/><path fill="#a0616a" d="M110.2 44.6c.1-.9-.5-1.7-1.4-1.8-.1.0-.2.0-.3.0l-2.9-5.2-.6 2.2 2 4.8c.1.9.9 1.5 1.8 1.4C109.5 45.9 110.1 45.3 110.2 44.6v0z"/><path fill="#a0616a" d="M88.2 65.2l1.6 1.2 5.2-5.6-2.3-1.7L88.2 65.2z"/><path fill="#2f2e41" d="M91.7 70.1l-5-3.6v0l1.4-1.9v0l3.1 2.2C92.3 67.6 92.5 69.1 91.7 70.1v0z"/><path fill="#a0616a" d="M96.6 71.4h2l.9-7.6h-2.9V71.4z"/><path fill="#2f2e41" d="M102.3 73.2h-6.2v-2.4h3.8C101.3 70.8 102.3 71.9 102.3 73.2v0z"/><path fill="#2f2e41" d="M102.5 41.8c0 0 1 9.3-1.4 15.7l-1.8 12.2h-3.1l.3-14.5-1.1-12.9C95.4 42.4 97.7 36.6 102.5 41.8z"/><path fill="#2f2e41" d="M92 42.4l3.2 11.1-6.3 10 3.1 2.6 7.1-11.2-2.1-13.7L92 42.4z"/><circle fill="#a0616a" cx="100.2" cy="13.6" r="3.9"/><path fill="#ccc" d="M96.9 19c0 0 2.4-1.6 5.1 1.9l.7 22.2c0 0-2.1-2.9-6.4-.2s-5.3-.3-5.3-.3S88 19.8 96.9 19z"/><path fill="#ccc" d="M101.9 20.9v0c1.4.1 2.6 1.2 2.7 2.7l.5 9.7 3.4 9.2-1.9 1.6-6.3-10.9-1.3-9c-.2-1.5.8-3 2.4-3.2C101.5 20.9 101.7 20.9 101.9 20.9v0z"/><path fill="#2f2e41" d="M97.3 16.6c.4.5 1.1.5 1.6.1.2-.2.3-.4.3-.7.0-.1.0-.1.0-.2-.1-.4-.2-.8-.2-1.2.0-.1.1-.2.1-.3.5-.7 1.7.3 2.2-.3.3-.4-.1-1 .2-1.4.3-.6 1.2-.3 1.8-.6.6-.3.6-1.3.2-1.9-.5-.7-1.4-1.1-2.2-1.1-.9.0-1.7.1-2.5.5-.9.3-1.8.9-2.4 1.7-.6 1-.8 2.3-.4 3.5C96.2 15.3 96.7 16 97.3 16.6z"/></g></g></svg>