<svg id="Capa_1" xmlns="http://www.w3.org/2000/svg" xmlns:xlink="http://www.w3.org/1999/xlink" viewBox="0 0 138.2 104.7" enable-background="new 0 0 138.2 104.7"><linearGradient id="SVGID_2_" gradientUnits="userSpaceOnUse" x1="-201.072" y1="-46.4837" x2="-201.072" y2="721.5163"><stop offset="0" style="stop-color:#fff"/><stop offset="1" style="stop-color:#fff"/></linearGradient><path display="none" fill="url(#SVGID_2_)" d="M-884.1-46.5h1366v768h-1366z"/><g><path fill="#03c" d="M138.2 33c0 28.9-30.9 71.6-69.1 71.6S0 81.2.0 52.3 30.9.0 69.1.0s69.1 4.1 69.1 33z"/><g transform="translate(0)"><path fill="#00a1e4" d="M122.6 39.9c.1 3.5-.8 7-2.6 10-.5.9-1.1 1.8-1.8 2.6-6 7.3-17.1 11.3-27.2 17.8C61.3 89.6 58.1 58.8 59.4 39.9c.5-7.4 3.4-14.4 8.2-20 1-1.1 2.1-2.2 3.2-3.2C76.5 12 83.6 9.4 91 9.4c13.4.0 24.9 8.1 29.5 19.5C121.9 32.5 122.6 36.2 122.6 39.9z"/><path fill="#fff" d="M97.7 16.3l-30.1 3.6c1-1.1 2.1-2.2 3.2-3.2L97.7 16.3z"/><path fill="#fff" d="M120 49.9c-.5.9-1.1 1.8-1.8 2.6l-25.8-3.1L120 49.9z"/><path fill="#fff" d="M121.5 32.1l-43.7-5.7 42.6 2.5C120.9 30 121.2 31.1 121.5 32.1z"/><path fill="#00a1e4" d="M62.4 17.6c0 .1.0.2.0.2-.1 1.7-1.6 3-3.4 2.9-1.7-.1-3-1.6-2.9-3.4.0-.4.2-.9.4-1.2.1-.1.1-.3.2-.4 1-1.4 3-1.7 4.4-.7.7.5 1.2 1.4 1.3 2.3C62.4 17.4 62.4 17.5 62.4 17.6z"/><path fill="#fff" d="M62.4 17.6c0 .1.0.2.0.2l-4.7-.6 4.7.1C62.4 17.4 62.4 17.5 62.4 17.6z"/><path fill="#fff" d="M61.2 19.1l-4.4.5c-.1-.1-.2-.3-.3-.4L61.2 19.1z"/><path fill="#fff" d="M60 15.7l-3.6.4c.1-.1.1-.3.2-.4L60 15.7z"/><path fill="#00a1e4" d="M105.6 74.4c0 .1-.1.1-.1.2-.9 1.5-2.9 1.9-4.4 1-1.5-.9-1.9-2.9-1-4.4.2-.4.5-.7.9-.9.1-.1.2-.2.4-.2 1.6-.8 3.5-.1 4.2 1.4.4.8.4 1.8.1 2.6C105.7 74.2 105.7 74.3 105.6 74.4z"/><path fill="#fff" d="M105.6 74.4c0 .1-.1.1-.1.2l-3.9-2.7 4.1 2.3C105.7 74.2 105.7 74.3 105.6 74.4z"/><path fill="#fff" d="M103.9 75.3l-4.1-1.6c0-.2-.1-.4-.1-.5L103.9 75.3z"/><path fill="#fff" d="M104.4 71.6l-3.4-1.3c.1-.1.2-.2.4-.2l3 1.5z"/><path fill="#00a1e4" d="M128 20c.1.1.1.1.2.2 1.1 1.3 1 3.3-.4 4.4-1.3 1.1-3.3 1-4.4-.4-.3-.3-.5-.7-.6-1.1.0-.1-.1-.3-.1-.4-.3-1.7.9-3.3 2.7-3.6.9-.1 1.8.1 2.5.7C127.9 19.9 127.9 19.9 128 20z"/><path fill="#fff" d="M128 20c.1.1.1.1.2.2l-3.8 2.9 3.4-3.2C127.9 19.9 127.9 19.9 128 20z"/><path fill="#fff" d="M128.3 21.9l-2.8 3.4c-.2.0-.4.0-.5-.1L128.3 21.9z"/><path fill="#fff" d="M125 20.3l-2.3 2.8c0-.1-.1-.3-.1-.4L125 20.3z"/><path fill="#a0616a" d="M68.8 78.2c0 0 6.9.3 6.9 2s-7.8.0-7.8.0L68.8 78.2z"/><path fill="#2f2e41" d="M58.4 104.7l-13-.9-.6-6.9-2.9 6.1-12.7-1.7c.3-11 4.9-21.6 5.2-23.1s1-7.4 1-7.4c1.3-2.7 7.9-2.9 13.1-2.7 2.1.1 4.1.3 5.2.4.8.1 1.2.2 1.2.2 2.1 2.1 3.4 5 4.2 8.3C62.1 88.6 58.4 104.7 58.4 104.7z"/><circle fill="#a0616a" cx="43.9" cy="30.5" r="7.2"/><path fill="#a0616a" d="M39 32.3c0 0-2 8.9-5.2 11.5-3.2 2.6 12.4.0 12.4.0s-3.5-5.8-.9-8.4C48 32.8 39 32.3 39 32.3z"/><path fill="#d0cde1" d="M53.7 69.2 49 69.7l-13.4 1.5c0 0-.1-.2-.2-.5-1-2.7-5.7-15.6-6.2-19.4-.6-4.3 5.5-9.5 5.5-9.5s5.8-1.2 7.5-1.2c1.7.0 8.7 2.6 8.7 2.6l2.6 23.2.2 2L53.7 69.2z"/><path opacity=".15" enable-background="new" d="M59.1 76.9l-9.7-5.7c0 0-.2-.6-.5-1.5-.1-.5-.3-1-.5-1.7-1.1-3.6-3-9.5-4.5-13.9C41.6 47.6 52.9 66 52.9 66l.6.4.2 2c.8.1 1.2.2 1.2.2C57 70.8 58.3 73.7 59.1 76.9z"/><path fill="#d0cde1" d="M46.2 43.8c0 0-2.9 3.8-.6 10.4s5.5 17 5.5 17L67.9 81l2.3-2.9L54.6 66c0 0-.6-21.9-3.5-22.8C49.5 42.7 47.7 42.9 46.2 43.8z"/><path fill="#a0616a" d="M32 69.1c0 0 4 8.4 5.8 7.5 1.7-.9-4.3-9.5-4.3-9.5l-1.5 2z"/><path fill="#d0cde1" d="M31.5 46.1 16.2 58.8c0 0-5.8 4 4.9 6.9 10.7 2.9 11.5 4.6 11.5 4.6s1.2-3.8 2.6-3.2l-12.4-6.1L33 55.1l-1.5-9z"/><path fill="#2f2e41" d="M25.4 36.4c1.4-.6 2.8-1.4 4.1-2.2-.1-3.1.3-6 1.4-7.5.6-1.4 2-2.9 3-4 2.6-2.8 8.3-4.4 9.3-3 7.6.2 8.4 6.1 8.4 6.1.0 2.5-2.6 2.6-4.9 2.5.2 1.7-.3 3.5-1.9 4.3-3 1.5-3.9 3.5-2.4 4.8 1.5 1.4 4.2 5 .6 5.9-3.6.9-4.1 2.7-3 3.5 1.1.8-2.4-1.4-2.4-1.4s-.6 3.6-3.8 2.7c-.3-.1-.6-.3-.8-.6-.9.9-1.6 1.5-2.2 1.5-3.3.0-2.9-3.6-2.9-3.6s-3.9 1.1-2.7.7 1.3-2.3-2-4.1S23.6 37.3 25.4 36.4z"/><path fill="#3f3d56" d="M65.7 45.9v0l.1.5c.1.7.3 1.3.5 2L70 62.6c.2.9 1 1.6 2 1.8l7.6 1.2c1 .2 2-.3 2.5-1.2l7.3-13.6c.2-.4.4-.8.6-1.2l.2-.5v0c2.8-6.5-.3-14.1-6.8-16.8-6.5-2.8-14.1.3-16.8 6.8C65.7 41.2 65.3 43.6 65.7 45.9v0z"/><path fill="#3f3d56" d="M80.1 66.5c-.1.0-.3.0-.4.0l-8-1.2c-1-.2-1.9-.9-2.1-1.9l-3.9-14.9c-.2-.7-.4-1.4-.6-2.1L65 45.6c-1-7.4 4.3-14.2 11.7-15.1 1.3-.2 2.5-.1 3.8.0v.2c-7.3-1.1-14.1 3.9-15.2 11.1-.2 1.3-.2 2.6.0 3.9l.1.5c.1.7.3 1.4.5 2.1l3.9 14.9c.2.9 1 1.6 2 1.8l8 1.2c1 .2 2-.3 2.5-1.2l.2.1C82 65.9 81.1 66.5 80.1 66.5z"/><path transform="matrix(0.3439 -0.939 0.939 0.3439 -2.493464e-02 111.5578)" fill="#00a1e4" d="M72.8 55.7h14.1v.3H72.8z"/><path transform="matrix(0.999 -4.400139e-02 4.400139e-02 0.999 -2.3459 3.3244)" fill="#00a1e4" d="M74.2 47.9h.3V62H74.2z"/><path fill="#3f3d56" d="M79.4 73.2l-10.2-1.6c-.2.0-.3-.2-.2-.3.0-.1.2-.3.3-.2l10.2 1.6c.2.0.3.2.2.3C79.7 73.1 79.6 73.2 79.4 73.2v0z"/><path fill="#3f3d56" d="M79.7 71l-10.2-1.6c-.2.0-.3-.2-.2-.3s.2-.3.3-.2h0l10.2 1.6c.2.0.3.2.3.3C80 71 79.9 71.1 79.7 71c0 0 0 0 0 0v0z"/><path fill="#3f3d56" d="M79.9 68.9l-10.2-1.6c-.2.0-.3-.2-.2-.3.0-.1.2-.3.3-.2L80 68.3c.2.0.3.2.2.3C80.2 68.8 80.1 68.9 79.9 68.9z"/><path fill="#3f3d56" d="M74 74.5c2 .3 3.9-.6 4.1-2l-7.3-1.1C70.5 72.8 71.9 74.2 74 74.5z"/><path fill="#00a1e4" d="M77.7 46.3c-.4-.1-.7-.3-1-.6-.1-.1-.1-.2-.2-.2-.2-.3-.5-.5-.8-.7-.7-.3-1.5.1-2.1.6l-.2-.2c.8-.5 1.6-1 2.4-.6.3.2.6.5.9.8.1.1.1.2.2.2.2.2.6.6 1.1.5.2-.1.4-.1.5-.3.1-.1.2-.2.4-.2.5-.2 1.1-.2 1.6.2.1.1.1.1.2.2.2.4.6.5 1 .3.1.0.1-.1.2-.1.3-.2.6-.3.9-.3v0c.6.1.8.7 1 1.2l-.3.1c-.2-.6-.4-1-.8-1-.3.0-.5.1-.7.2-.4.4-1 .4-1.4.0.0.0-.1-.1-.1-.2-.1-.1-.1-.1-.2-.2-.3-.3-.8-.4-1.2-.2-.1.1-.2.1-.3.2-.2.1-.4.3-.6.3C77.9 46.3 77.8 46.3 77.7 46.3z"/></g></g></svg>