<svg xmlns="http://www.w3.org/2000/svg" width="203.445" height="169.699" viewBox="0 0 203.445 169.699"><g transform="translate(0)"><path d="M507.517,54.286a34.569,34.569,0,0,1-4.575,17.858,35.679,35.679,0,0,1-3.251,4.669C489.022,89.861,469.189,97,451.263,108.57,398.348,142.715,392.617,88,395.007,54.286a60.157,60.157,0,0,1,14.679-35.607,55.88,55.88,0,0,1,5.714-5.617A54.726,54.726,0,0,1,451.263,0c23.957,0,44.415,14.45,52.527,34.812a52.59,52.59,0,0,1,3.727,19.474Z" transform="translate(-315.324)" fill="#00a1e4"/><path d="M523.422,60.92l-53.563,6.445a55.858,55.858,0,0,1,5.714-5.617Z" transform="translate(-375.498 -48.686)" fill="#fff"/><path d="M738.7,355.85a35.68,35.68,0,0,1-3.251,4.669L689.569,355Z" transform="translate(-551.084 -283.706)" fill="#fff"/><path d="M638.328,161.086,560.569,151l75.887,4.486A52.292,52.292,0,0,1,638.328,161.086Z" transform="translate(-447.991 -120.675)" fill="#fff"/><path d="M378.279,49.624c0,.139,0,.275-.016.41A5.623,5.623,0,1,1,367.683,47a5.183,5.183,0,0,1,.414-.665,5.621,5.621,0,0,1,10.162,2.832C378.273,49.317,378.279,49.469,378.279,49.624Z" transform="translate(-293.322 -35.164)" fill="#00a1e4"/><path d="M389.468,69.6c0,.139,0,.275-.016.41L381.033,69l8.415.145C389.462,69.3,389.468,69.45,389.468,69.6Z" transform="translate(-304.511 -55.144)" fill="#fff"/><path d="M379.676,86.112l-7.788.938a5.651,5.651,0,0,1-.594-.793Z" transform="translate(-296.727 -68.818)" fill="#fff"/><path d="M376.651,55.112l-6.378.767a5.176,5.176,0,0,1,.414-.665Z" transform="translate(-295.912 -44.044)" fill="#fff"/><path d="M764.619,543.258c-.065.122-.133.241-.206.354a5.623,5.623,0,1,1-7.923-7.64,5.169,5.169,0,0,1,.677-.393,5.621,5.621,0,0,1,7.649,7.265C764.758,542.984,764.692,543.122,764.619,543.258Z" transform="translate(-602.598 -427.556)" fill="#00a1e4"/><path d="M778.241,558.275c-.065.122-.133.241-.206.354l-6.962-4.841,7.365,4.072C778.38,558,778.314,558.139,778.241,558.275Z" transform="translate(-616.22 -442.573)" fill="#fff"/><path d="M761.583,568.775l-7.319-2.823a5.639,5.639,0,0,1-.153-.979Z" transform="translate(-602.664 -451.51)" fill="#fff"/><path d="M772.283,540.6l-5.994-2.312a5.193,5.193,0,0,1,.677-.393Z" transform="translate(-612.397 -429.868)" fill="#fff"/><path d="M966.684,86.7c.1.1.189.2.275.3a5.623,5.623,0,1,1-9.693,5.214,5.157,5.157,0,0,1-.168-.765,5.621,5.621,0,0,1,9.252-5.068C966.465,86.484,966.576,86.589,966.684,86.7Z" transform="translate(-764.836 -67.932)" fill="#00a1e4"/><path d="M979.375,92.2c.1.1.189.2.275.3l-6.734,5.153,6.125-5.772C979.156,91.988,979.267,92.093,979.375,92.2Z" transform="translate(-777.527 -73.436)" fill="#fff"/><path d="M984.292,110.536l-4.921,6.109a5.626,5.626,0,0,1-.979-.153Z" transform="translate(-781.903 -88.337)" fill="#fff"/><path d="M961.544,96.023l-4.031,5a5.188,5.188,0,0,1-.168-.765Z" transform="translate(-765.084 -76.739)" fill="#fff"/><path d="M473.642,609.453s12.34.514,12.34,3.6-13.882,0-13.882,0Z" transform="translate(-377.289 -487.058)" fill="#a0616a"/><path d="M180.96,584.718l-23.137-1.543-1.028-12.34-5.142,10.8-22.623-3.085c.514-19.538,8.741-38.563,9.255-41.133s1.743-13.193,1.743-13.193c2.247-4.766,14.021-5.214,23.251-4.782,3.825.175,7.219.5,9.311.74,1.383.154,2.2.268,2.2.268,3.687,3.8,6.062,8.977,7.522,14.762C187.577,556.048,180.96,584.718,180.96,584.718Z" transform="translate(-103.117 -415.019)" fill="#2f2e41"/><circle cx="12.854" cy="12.854" r="12.854" transform="translate(39.281 24.704)" fill="#a0616a"/><path d="M176.223,202.376s-3.6,15.939-9.255,20.567,22.109,0,22.109,0-6.17-10.283-1.542-14.911S176.223,202.376,176.223,202.376Z" transform="translate(-132.829 -161.733)" fill="#a0616a"/><path d="M172.458,327.526l-8.53.946-23.862,2.653s-.113-.3-.314-.854c-1.733-4.725-10.078-27.719-11-34.624-1.028-7.713,9.769-16.968,9.769-16.968s10.283-2.057,13.368-2.057,15.425,4.627,15.425,4.627l4.6,41.4.4,3.584Z" transform="translate(-102.842 -221.069)" fill="#d0cde1"/><path d="M284.448,427.218l-17.291-10.134s-.3-.987-.818-2.653c-.257-.833-.571-1.841-.925-2.982-2-6.406-5.342-16.978-8.026-24.7-4.113-11.826,15.939,21.081,15.939,21.081l1,.776.4,3.584c1.383.154,2.2.268,2.2.268C280.612,416.256,282.987,421.434,284.448,427.218Z" transform="translate(-205.252 -307.028)" opacity="0.15" style="isolation:isolate"/><path d="M269.643,298.732s-5.142,6.684-1.028,18.51,9.769,30.336,9.769,30.336l29.822,17.482,4.113-5.142-27.765-21.6s-1.028-39.077-6.17-40.619A10.536,10.536,0,0,0,269.643,298.732Z" transform="translate(-213.395 -237.522)" fill="#d0cde1"/><path d="M153.351,514.483s7.2,14.911,10.283,13.368-7.712-16.968-7.712-16.968Z" transform="translate(-122.554 -408.284)" fill="#a0616a"/><path d="M30.026,325.267,2.775,347.89s-10.283,7.2,8.741,12.34,20.567,8.227,20.567,8.227,2.057-6.684,4.627-5.656L14.6,352l18-10.8Z" transform="translate(0 -259.944)" fill="#d0cde1"/><path d="M70.427,117.67a72.612,72.612,0,0,0,7.279-3.86c-.189-5.6.5-10.689,2.521-13.385,1.133-2.574,3.514-5.151,5.378-7.18,4.578-4.984,14.7-7.765,16.5-5.276,13.581.268,15.011,10.914,15.011,10.914-.071,4.453-4.7,4.594-8.753,4.431.363,3.04-.6,6.2-3.406,7.6-5.357,2.679-6.965,6.161-4.286,8.572s7.5,8.839,1.072,10.447-7.232,4.822-5.357,6.161-4.286-2.411-4.286-2.411-1.071,6.429-6.7,4.822a3.385,3.385,0,0,1-1.5-1.065c-1.519,1.669-2.874,2.656-3.9,2.662-5.85.031-5.149-6.449-5.149-6.449s-6.944,1.95-4.777,1.166,2.26-4.1-3.5-7.377S67.2,119.269,70.427,117.67Z" transform="translate(-51.354 -69.562)" fill="#2f2e41"/><path d="M451.52,219.666l-.093-.012.228.865a22.727,22.727,0,0,0,.934,3.55l6.673,25.366a4.3,4.3,0,0,0,3.5,3.155l13.608,2.105a4.3,4.3,0,0,0,4.448-2.219l12.932-24.155a22.7,22.7,0,0,0,1.106-2.066l.439-.82-.068-.009a22.864,22.864,0,1,0-43.706-5.759Z" transform="translate(-360.669 -154.762)" fill="#fff"/><path d="M472.471,250.106a4.667,4.667,0,0,1-.716-.055l-14.224-2.2a4.693,4.693,0,0,1-3.823-3.445l-6.975-26.515a23.891,23.891,0,0,1-.98-3.727l-.176-1.16a24.1,24.1,0,0,1,27.592-26.883l-.062.4a23.712,23.712,0,0,0-27.1,26.693l.136.868a23.754,23.754,0,0,0,.971,3.7l6.98,26.53a4.292,4.292,0,0,0,3.5,3.151l14.224,2.2a4.3,4.3,0,0,0,4.441-2.216l.354.189A4.7,4.7,0,0,1,472.471,250.106Z" transform="translate(-355.935 -148.516)" fill="#fff"/><rect width="25.167" height="0.519" transform="translate(111.489 94.301) rotate(-69.885)" fill="#00a1e4"/><rect width="0.519" height="25.167" transform="matrix(0.999, -0.044, 0.044, 0.999, 105.494, 68.506)" fill="#00a1e4"/><path d="M500.019,550.381l-18.227-2.82a.52.52,0,0,1,.159-1.027l18.227,2.82a.52.52,0,0,1-.153,1.028Z" transform="translate(-384.685 -436.77)" fill="#fff"/><path d="M502.324,531.1l-18.227-2.82a.519.519,0,1,1,.153-1.028h.006l18.227,2.82a.52.52,0,1,1-.153,1.028Z" transform="translate(-386.523 -421.364)" fill="#fff"/><path d="M504.673,511.835l-18.227-2.82a.52.52,0,0,1,.159-1.027l18.227,2.82a.52.52,0,0,1-.159,1.027Z" transform="translate(-388.405 -405.965)" fill="#fff"/><path d="M502.662,554.987c3.615.559,6.858-1,7.242-3.488l-13.092-2.025C496.427,551.959,499.046,554.428,502.662,554.987Z" transform="translate(-397.008 -439.124)" fill="#fff"/><path d="M528.625,313.1a3.2,3.2,0,0,1-1.774-1.147c-.116-.135-.228-.275-.341-.415a4.058,4.058,0,0,0-1.339-1.246c-1.192-.556-2.6.221-3.814,1.054l-.294-.428c1.337-.917,2.9-1.764,4.327-1.1a4.5,4.5,0,0,1,1.524,1.392c.109.136.219.272.331.4.367.428,1.1,1.122,1.882.962a2.531,2.531,0,0,0,.9-.478,4.832,4.832,0,0,1,.639-.4,2.544,2.544,0,0,1,2.793.395,5.039,5.039,0,0,1,.379.4,1.293,1.293,0,0,0,2.09.246,2.686,2.686,0,0,1,1.573-.471l.056.008c1.023.158,1.495,1.29,1.762,2.135l-.5.156c-.363-1.148-.8-1.719-1.383-1.783a2.286,2.286,0,0,0-1.265.412,1.773,1.773,0,0,1-2.728-.36,4.59,4.59,0,0,0-.339-.36,2.041,2.041,0,0,0-2.212-.312,4.358,4.358,0,0,0-.57.362,2.95,2.95,0,0,1-1.1.563A1.7,1.7,0,0,1,528.625,313.1Z" transform="translate(-416.42 -247.407)" fill="#00a1e4"/></g></svg>