<svg id="Capa_1" xmlns="http://www.w3.org/2000/svg" xmlns:xlink="http://www.w3.org/1999/xlink" viewBox="0 0 138.7 105.1" enable-background="new 0 0 138.7 105.1"><linearGradient id="SVGID_2_" gradientUnits="userSpaceOnUse" x1="-415.1978" y1="-46.2642" x2="-415.1978" y2="721.7358"><stop offset="0" style="stop-color:#fff"/><stop offset="1" style="stop-color:#fff"/></linearGradient><path display="none" fill="url(#SVGID_2_)" d="M-1098.2-46.3h1366v768h-1366z"/><g><path fill="#03c" d="M138.7 33.2c0 29-31.1 71.9-69.4 71.9S0 81.5.0 52.5 31.1.0 69.4.0 138.7 4.1 138.7 33.2z"/><g transform="translate(-21.705)"><path fill="#3f3d56" d="M110.2 87.4c-.5.0-.9.0-1.4.0v-.3c.7.0 1.3.0 2 0v.3C110.6 87.4 110.4 87.4 110.2 87.4zM112.8 87.4v-.3c.7.0 1.3-.1 2-.2v.3C114.1 87.3 113.4 87.3 112.8 87.4v0zM106.8 87.3c-.7-.1-1.3-.1-2-.2v-.3c.7.1 1.3.1 2 .2V87.3zM116.8 86.9v-.3c.7-.1 1.3-.2 2-.3l.1.3C118.1 86.7 117.4 86.8 116.8 86.9v0zM102.8 86.8c-.7-.1-1.3-.2-2-.4l.1-.3c.6.1 1.3.3 2 .4L102.8 86.8zM120.7 86.2l-.1-.3c.6-.2 1.3-.3 1.9-.5l.1.3C122 85.8 121.3 86 120.7 86.2v0zM98.9 86c-.6-.2-1.3-.4-1.9-.6l.1-.3c.6.2 1.3.4 1.9.6L98.9 86zM124.5 85l-.1-.3c.6-.2 1.2-.5 1.9-.7l.1.3C125.8 84.6 125.1 84.8 124.5 85v0zM95.1 84.8c-.6-.2-1.3-.5-1.9-.7l.1-.3c.6.3 1.2.5 1.9.7L95.1 84.8zM128.2 83.5l-.1-.3c.6-.3 1.2-.6 1.8-.9l.2.3C129.4 83 128.8 83.3 128.2 83.5v0zM91.4 83.2c-.6-.3-1.2-.6-1.8-.9l.2-.3c.6.3 1.2.6 1.8.9L91.4 83.2zM131.8 81.7l-.2-.3c.6-.3 1.1-.7 1.7-1l.2.3C132.9 81 132.4 81.4 131.8 81.7v0zM87.8 81.3c-.6-.3-1.1-.7-1.7-1.1l.2-.3c.6.4 1.1.7 1.7 1.1L87.8 81.3zM135.2 79.6l-.2-.3c.5-.4 1.1-.8 1.6-1.2l.2.3C136.2 78.8 135.7 79.2 135.2 79.6v0zM84.5 79.1c-.5-.4-1.1-.8-1.6-1.2l.2-.3c.5.4 1 .8 1.6 1.2L84.5 79.1zM138.3 77.1l-.2-.3c.5-.4 1-.9 1.5-1.3l.2.2C139.3 76.3 138.8 76.7 138.3 77.1v0zM81.4 76.6c-.5-.4-1-.9-1.5-1.4l.2-.2c.5.5 1 .9 1.5 1.3L81.4 76.6zM141.3 74.4l-.2-.2c.5-.5.9-1 1.4-1.4l.2.2C142.2 73.5 141.7 74 141.3 74.4v0zM78.5 73.8c-.5-.5-.9-1-1.3-1.5l.3-.2c.4.5.9 1 1.3 1.5L78.5 73.8zM143.9 71.4l-.3-.2c.4-.5.8-1 1.2-1.6l.3.2C144.8 70.4 144.4 70.9 143.9 71.4zM75.9 70.8c-.4-.5-.8-1.1-1.2-1.6l.3-.2c.4.5.8 1.1 1.2 1.6L75.9 70.8zM146.3 68.2l-.3-.2c.4-.5.7-1.1 1.1-1.7l.3.2C147.1 67.1 146.7 67.7 146.3 68.2v0zM73.5 67.6c-.4-.6-.7-1.1-1.1-1.7l.3-.2c.3.6.7 1.1 1 1.7L73.5 67.6zM148.4 64.8l-.3-.2c.3-.6.6-1.2.9-1.8l.3.1C149.1 63.6 148.8 64.2 148.4 64.8zM71.5 64.1c-.3-.6-.6-1.2-.9-1.8l.3-.1c.3.6.6 1.2.9 1.8L71.5 64.1zM150.2 61.2l-.3-.1c.3-.6.5-1.2.8-1.8l.3.1C150.7 60 150.5 60.6 150.2 61.2v0zM69.8 60.5c-.3-.6-.5-1.2-.7-1.9l.3-.1c.2.6.5 1.2.7 1.8L69.8 60.5zM151.7 57.5l-.3-.1c.2-.6.4-1.3.6-1.9l.3.1C152.1 56.2 151.9 56.9 151.7 57.5v0zM68.4 56.8c-.2-.6-.4-1.3-.6-1.9l.3-.1c.2.6.4 1.3.5 1.9L68.4 56.8zM152.7 53.6l-.3-.1c.1-.6.3-1.3.4-1.9l.3.1C153 52.3 152.9 53 152.7 53.6v0zM67.4 52.9c-.1-.6-.3-1.3-.4-2l.3-.1c.1.7.2 1.3.4 2L67.4 52.9zM153.5 49.7h-.3c.1-.7.2-1.3.2-2h.3C153.6 48.4 153.6 49 153.5 49.7v0zM66.7 48.9c-.1-.7-.1-1.3-.2-2h.3c0 .7.1 1.3.2 2H66.7zM153.8 45.7h-.3c0-.7.0-1.3.0-2h.3C153.9 44.4 153.9 45.1 153.8 45.7zM66.5 45c0-.4.0-.8.0-1.2.0-.3.0-.5.0-.8h.3c0 .3.0.5.0.8.0.4.0.8.0 1.2H66.5zM153.5 43.3c0-.7.0-1.3-.1-2h.3c0 .7.1 1.3.1 2H153.5zM66.9 41h-.3c0-.7.1-1.3.2-2h.3C67 39.6 66.9 40.3 66.9 41zM153.3 39.3c-.1-.7-.1-1.3-.2-2h.3c.1.7.2 1.3.2 2H153.3zM67.3 37H67c.1-.7.2-1.3.4-2l.3.1C67.5 35.7 67.4 36.4 67.3 37v0zM152.7 35.4c-.1-.6-.3-1.3-.4-1.9l.3-.1c.2.6.3 1.3.4 2H152.7zM68.1 33.1 67.7 33c.2-.6.3-1.3.5-1.9l.3.1C68.4 31.8 68.2 32.5 68.1 33.1v0zM151.8 31.5c-.2-.6-.4-1.3-.6-1.9l.3-.1c.2.6.4 1.3.6 1.9L151.8 31.5zM69.2 29.3l-.3-.1c.2-.6.5-1.3.7-1.9l.3.1C69.7 28.1 69.4 28.7 69.2 29.3v0zM150.5 27.7c-.2-.6-.5-1.2-.8-1.8l.3-.1c.3.6.5 1.2.8 1.8L150.5 27.7zM70.7 25.6l-.3-.1c.3-.6.6-1.2.9-1.8l.3.2C71.3 24.4 71 25 70.7 25.6zm78.2-1.5c-.3-.6-.6-1.2-.9-1.7l.3-.2c.3.6.6 1.2.9 1.8L148.9 24.1zm-76.4-2-.3-.2c.3-.6.7-1.1 1-1.7l.3.2C73.2 21 72.9 21.5 72.5 22.1zM146.9 20.7c-.4-.6-.7-1.1-1.1-1.7l.3-.2c.4.5.7 1.1 1.1 1.7L146.9 20.7zm-72.2-2-.3-.2c.4-.5.8-1.1 1.2-1.6l.3.2C75.4 17.7 75.1 18.2 74.7 18.7zM144.7 17.4c-.4-.5-.8-1-1.2-1.6l.3-.2c.4.5.8 1 1.2 1.6L144.7 17.4zM77.1 15.6l-.3-.2c.4-.5.9-1 1.3-1.5l.2.2C78 14.6 77.5 15.1 77.1 15.6zM142.1 14.4c-.4-.5-.9-1-1.4-1.4l.2-.2c.5.5.9 1 1.4 1.4L142.1 14.4zM79.8 12.7l-.2-.2c.5-.5 1-.9 1.5-1.4l.2.2C80.8 11.8 80.3 12.2 79.8 12.7v0zM139.3 11.6c-.5-.4-1-.9-1.5-1.3L138 10c.5.4 1 .9 1.5 1.3L139.3 11.6zM82.8 10.1l-.2-.3c.5-.4 1-.8 1.6-1.2l.2.3C83.8 9.2 83.3 9.6 82.8 10.1zM136.2 9c-.5-.4-1.1-.8-1.6-1.2l.2-.3c.5.4 1.1.8 1.6 1.2L136.2 9zM86 7.7l-.2-.3c.6-.4 1.1-.7 1.7-1.1l.2.3C87.1 7 86.5 7.3 86 7.7v0zM133 6.8c-.6-.3-1.1-.7-1.7-1l.2-.3c.6.3 1.2.7 1.7 1L133 6.8zM89.4 5.6l-.2-.3C89.8 5 90.4 4.7 91 4.4l.1.3C90.5 5 89.9 5.3 89.4 5.6zM129.5 4.9c-.6-.3-1.2-.6-1.8-.8l.1-.3c.6.3 1.2.6 1.8.9L129.5 4.9zM92.9 3.9l-.1-.3c.6-.3 1.2-.5 1.8-.8l.1.3C94.1 3.4 93.5 3.6 92.9 3.9v0zM125.8 3.3c-.6-.2-1.2-.5-1.9-.7l.1-.3c.6.2 1.3.4 1.9.7L125.8 3.3zM96.6 2.5l-.1-.3c.6-.2 1.3-.4 1.9-.6l.1.3C97.9 2.1 97.3 2.3 96.6 2.5v0zM122.1 2c-.6-.2-1.3-.3-1.9-.5l.1-.3c.6.2 1.3.3 1.9.5L122.1 2zM100.5 1.4l-.1-.3c.6-.1 1.3-.3 2-.4l.1.3C101.7 1.1 101.1 1.3 100.5 1.4v0zM118.2 1.1c-.6-.1-1.3-.2-2-.3V.5c.7.1 1.3.2 2 .3V1.1zM104.4.7v-.3c.7-.1 1.3-.2 2-.2v.3C105.7.6 105 .6 104.4.7v0zM114.3.5c-.7-.1-1.3-.1-2-.1v-.3c.7.0 1.3.1 2 .1V.5zM108.3.4v-.3c.6.0 1.2.0 1.8.0h.2v.3h-.1C109.5.3 108.9.3 108.3.4v0z"/><path fill="#2f2e41" d="M152.7 80c-1.1.0-2-.9-2-2 0-1.1.9-2 2-2 1.1.0 2 .9 2 2v0C154.7 79.1 153.8 80 152.7 80zM152.7 76.3c-.9.0-1.7.7-1.7 1.7.0.9.7 1.7 1.7 1.7.9.0 1.7-.7 1.7-1.7C154.4 77.1 153.7 76.3 152.7 76.3v0z"/><path fill="#3f3d56" d="M99.7 28.8v10.9c0 .2-.2.4-.4.4H99V97c0 3.3-2.7 5.9-5.9 5.9v0H57.6c-3.3.0-5.9-2.7-5.9-5.9v0 0V42.1h-.2c-.1.0-.3-.1-.3-.3v-6.2c0-.1.1-.3.3-.3v0h.2V33h-.2c-.2.0-.3-.1-.3-.3v-6.1c0-.2.1-.3.3-.3h.2v-3.2h-.2c-.1.0-.2-.1-.2-.2.0.0.0.0.0.0v0-3.3c0-.1.1-.3.2-.3h.2v-6.8c0-3.3 2.7-5.9 5.9-5.9v0h35.5c3.3.0 5.9 2.7 5.9 5.9v15.9h.3C99.5 28.4 99.7 28.6 99.7 28.8z"/><path fill="#e6e8ec" d="M71.5 9.6h5.3c.4.0.7.3.7.7v0c0 .4-.3.7-.7.7h-5.3c-.4.0-.7-.3-.7-.7v0C70.8 9.9 71.1 9.6 71.5 9.6z"/><circle fill="#e6e8ec" cx="79.2" cy="10.3" r=".8"/><path fill="#00a1e4" d="M96.2 13.7v83.8c0 2.1-1.7 3.8-3.8 3.8h-34c-2.1.0-3.8-1.7-3.8-3.8.0.0.0.0.0.0V13.7c0-2.1 1.7-3.8 3.8-3.8h5.1v.7c0 1.7 1.4 3.1 3.1 3.1h17.3c1.7.0 3.1-1.4 3.1-3.1V9.9h5.4C94.5 9.9 96.2 11.6 96.2 13.7v0 0z"/><path opacity=".2" enable-background="new" d="M56.3 37.4h38.6v18.8H56.3z"/><path fill="#f2f2f2" d="M116.8 16h38.6v18.8H116.8z"/><path fill="#3f3d56" d="M56.3 65.9h38.6v18.8H56.3z"/><circle fill="#fff" cx="90.9" cy="20.2" r="3.3"/><path fill="#3f3d56" d="M92.4 20.1H91v-1.4h-.2v1.4h-1.4v.2h1.4v1.4H91v-1.4h1.4V20.1z"/><path fill="#3f3d56" d="M112.5 13.5h38.6v18.8H112.5z"/><path fill="#3f3d56" d="M121.1 55.9h-3.3v-3.3h3.3V55.9zM118.1 55.7h2.8v-2.8h-2.8V55.7z"/><path fill="#2f2e41" d="M35 76.2l-2.2-2.4 2.4-2.2 2.2 2.4L35 76.2zM33.1 73.8l1.9 2 2-1.9-1.9-2L33.1 73.8z"/><circle fill="#3f3d56" cx="36.7" cy="22.9" r="1.7"/><path fill="#2f2e41" d="M36.7 27.8c-2.7.0-4.8-2.2-4.8-4.8s2.2-4.8 4.8-4.8c2.7.0 4.8 2.2 4.8 4.8v0C41.6 25.6 39.4 27.8 36.7 27.8zm0-9.3c-2.5.0-4.5 2-4.5 4.5s2 4.5 4.5 4.5 4.5-2 4.5-4.5-2-4.5-4.5-4.5v0z"/><path fill="#3f3d56" d="M64.6 34.4h38.6v18.8H64.6z"/><path fill="#f8d0d0" d="M137.4 85.5 116 92.2 89.4 75.4v0l-.1-.1v0l-.2-.1-2.5-1.6c0 0 0-.1.0-.1.0-.2.1-.4.3-.5.0-.1.1-.1.2-.2v0c0 0 0 0 .1-.1.0.0.1.0.1-.1.6-.3 1.3-.5 2-.5 1.7-.1 3.3.3 4.8 1 3 1.5 9.4 4.5 10.4 2.7 1.3-2.4-13.6-29-13.6-29-1.2-3.2-.3-4.2.2-4.5v0c.1.0.1-.1.2-.1.0.0.1.0.1.0v0l2 2.6v0l.1.1v0l12 16c18.4-9.9 24.7 16.6 24.7 16.6L137.4 85.5z"/><path fill="#3f3d56" d="M93.5 45c-.1.2-.3.3-.5.3-.1.0-.1.0-.2.0-.6-.2-1.1-.7-1.3-1.3-.3-.5-.5-1.1-.4-1.7.1.0.1-.1.2-.1.0.0.1.0.1.0-.1.6.0 1.2.4 1.7.3.5.7.9 1.2 1.2.2.1.4.0.4-.2.0.0.0-.1.0-.1v0L93.5 45v0z"/><path fill="#3f3d56" d="M89.4 75.3v0l-.2-.1c-.1-.6-.4-1.1-.8-1.5-.4-.4-.9-.7-1.4-.8.0-.1.1-.1.2-.2v0c0 0 0 0 .1-.1.5.2 1 .4 1.4.8C89 74 89.3 74.7 89.4 75.3z"/><g transform="translate(177.369 29.827)"><circle fill="#fff" cx="-45.2" cy="-5.7" r="6.1"/><g transform="translate(2.936 2.212)"><path fill="#00a1e4" d="M-45.7-10.2c-.3-.3-.6-.6-1-.8-.4-.2-.8-.3-1.2-.3-.4.0-.9.1-1.3.2-.4.2-.7.4-.9.7-.2.3-.4.7-.6 1-.1.4-.2.8-.2 1.3.0.4.1.9.2 1.3.1.4.3.7.6 1 .3.3.6.5.9.7.4.2.8.3 1.2.3.9.0 1.7-.4 2.2-1.1l1.1 1C-45-4.4-45.5-4-46.1-3.8c-1.2.4-2.5.4-3.7.0-.5-.2-1-.5-1.4-1-.4-.4-.7-.9-.9-1.5-.4-1.2-.4-2.5.0-3.7.2-.5.5-1 .9-1.5.4-.4.9-.7 1.4-1 .6-.2 1.2-.4 1.8-.3.6.0 1.3.1 1.8.3.6.2 1.1.6 1.5 1.1L-45.7-10.2z"/></g></g><g transform="translate(84.366 116.195)"><circle fill="#00a1e4" cx="-8.3" cy="-39.6" r="6.3"/><g transform="translate(6.52 2.243)"><path fill="#3f3d56" d="M-17.1-46.5l2.1-.3v7.6l3.8-.5v1.9l-5.9.8v-9.5z"/></g></g><g transform="translate(94.564 60.96)"><circle fill="#00a1e4" cx="-11.7" cy="-17.2" r="6.9"/><g transform="translate(2.608 2.37)"><path fill="#fff" d="M-9.7-16.2c-.5.7-1.2 1.3-2.1 1.7-.8.3-1.7.5-2.6.5-.8.0-1.5-.1-2.2-.4-.6-.3-1.2-.7-1.7-1.2-.5-.5-.8-1.1-1-1.7-.2-.7-.4-1.4-.4-2.1.0-.8.1-1.5.4-2.2.3-.6.6-1.2 1.1-1.7.5-.5 1.1-.9 1.7-1.1.7-.3 1.4-.4 2.1-.4.7.0 1.4.1 2 .4.6.2 1.1.6 1.6 1.1.5.5.8 1.1 1 1.7.2.7.4 1.5.3 2.3v.6h-8.4c0 .4.1.9.3 1.3.2.4.4.8.7 1.1.3.3.7.6 1 .7.4.2.9.3 1.3.3.7.0 1.3-.1 1.9-.4.5-.3 1-.7 1.4-1.2L-9.7-16.2zM-11.2-20.5c0-.8-.3-1.6-.9-2.1-.6-.6-1.4-.9-2.3-.8-1.7-.1-3.3 1.2-3.4 2.9L-11.2-20.5z"/></g></g></g></g></svg>