<svg xmlns="http://www.w3.org/2000/svg" width="204.023" height="170.081" viewBox="0 0 204.023 170.081"><g transform="translate(-21.705)"><path d="M359.057,144.474c-.762,0-1.532-.012-2.287-.036l.017-.549c1.085.034,2.192.043,3.282.028l.008.549Q359.567,144.474,359.057,144.474Zm4.325-.127-.032-.548c1.087-.064,2.187-.154,3.271-.268l.057.546C365.586,144.191,364.477,144.282,363.382,144.347Zm-9.914-.085c-1.1-.084-2.2-.194-3.291-.328l.067-.545c1.08.132,2.178.242,3.266.325Zm16.491-.6-.082-.543c1.08-.164,2.168-.354,3.233-.566l.107.539C372.142,143.3,371.046,143.492,369.958,143.657Zm-23.054-.2c-1.082-.183-2.175-.394-3.247-.627l.116-.537c1.064.231,2.148.44,3.223.622Zm29.54-1.088-.132-.533c1.06-.262,2.125-.552,3.167-.861l.156.527C378.585,141.812,377.511,142.1,376.444,142.368Zm-36-.315c-1.062-.283-2.13-.593-3.176-.924l.165-.524c1.038.328,2.1.636,3.152.916Zm42.342-1.566-.18-.519c1.028-.358,2.063-.744,3.075-1.149l.2.51C384.862,139.737,383.82,140.127,382.783,140.487Zm-48.656-.43c-1.031-.379-2.069-.788-3.084-1.216l.213-.506c1.007.424,2.037.83,3.06,1.207Zm54.789-2.024-.228-.5c.988-.449,1.98-.928,2.951-1.424l.25.489C390.912,137.1,389.912,137.581,388.917,138.033Zm-60.9-.548c-.991-.472-1.986-.975-2.957-1.494l.259-.485c.964.515,1.951,1.014,2.934,1.482Zm66.774-2.457-.272-.477c.947-.541,1.892-1.109,2.81-1.689l.294.464C396.7,133.912,395.749,134.484,394.794,135.029Zm-72.615-.664c-.943-.561-1.887-1.152-2.806-1.758l.3-.459c.912.6,1.849,1.188,2.785,1.744Zm78.2-2.867-.314-.45c.892-.623,1.782-1.276,2.645-1.939l.335.436c-.87.669-1.767,1.326-2.666,1.954Zm-83.725-.774c-.887-.644-1.772-1.318-2.633-2.005l.343-.429c.854.682,1.733,1.351,2.612,1.99Zm88.965-3.253-.354-.42c.831-.7,1.658-1.432,2.459-2.173l.373.4c-.807.746-1.64,1.483-2.478,2.189Zm-94.135-.875c-.826-.723-1.646-1.475-2.438-2.235l.38-.4c.786.755,1.6,1.5,2.42,2.219Zm98.99-3.615-.391-.386c.766-.776,1.524-1.58,2.253-2.388l.408.368c-.734.815-1.5,1.624-2.27,2.407Zm-103.761-.965c-.758-.8-1.506-1.62-2.224-2.447l.415-.36c.713.821,1.455,1.638,2.207,2.428ZM414.9,118.066l-.424-.349c.692-.842,1.374-1.712,2.026-2.584l.44.329C416.282,116.341,415.6,117.217,414.9,118.066Zm-112.522-1.043c-.68-.86-1.35-1.747-1.991-2.638l.446-.321c.636.884,1.3,1.765,1.976,2.618Zm116.486-4.256-.454-.308c.613-.9,1.213-1.83,1.783-2.76l.468.288c-.575.936-1.18,1.872-1.8,2.781ZM298.516,111.66c-.6-.918-1.184-1.862-1.741-2.807l.473-.279c.553.938,1.134,1.875,1.728,2.786Zm123.81-4.535-.481-.266c.527-.954,1.04-1.934,1.523-2.913l.492.244C423.374,105.176,422.857,106.163,422.326,107.125ZM295.164,105.97c-.513-.968-1.009-1.962-1.477-2.953l.5-.234c.464.983.957,1.969,1.465,2.93Zm130.1-4.784-.5-.22c.438-1,.858-2.023,1.249-3.043l.513.2c-.394,1.028-.818,2.059-1.259,3.066ZM292.348,100c-.421-1.011-.825-2.045-1.2-3.073l.516-.188c.371,1.021.771,2.047,1.189,3.05Zm135.286-5-.521-.173c.343-1.033.666-2.089.961-3.138l.529.149c-.3,1.058-.624,2.122-.969,3.163Zm-137.543-1.2c-.327-1.047-.634-2.116-.913-3.179l.532-.14c.277,1.055.581,2.116.906,3.155Zm139.334-5.162-.535-.124c.246-1.059.47-2.14.668-3.213l.54.1c-.2,1.082-.426,2.171-.673,3.238ZM288.414,87.4c-.229-1.073-.436-2.166-.616-3.249l.542-.09c.179,1.075.384,2.16.612,3.225Zm142.209-5.269-.544-.075c.148-1.076.272-2.173.371-3.261l.547.049c-.1,1.1-.225,2.2-.374,3.286ZM287.331,80.874c-.129-1.087-.236-2.195-.316-3.292l.548-.04c.08,1.089.185,2.188.314,3.267ZM431.22,75.543l-.549-.025c.049-1.088.074-2.192.074-3.281h.549c0,1.1-.025,2.209-.074,3.306ZM286.848,74.279c-.019-.674-.028-1.361-.028-2.042q0-.634.011-1.266l.549.01q-.011.627-.011,1.256c0,.676.01,1.358.028,2.027Zm143.892-2.808c-.011-1.089-.048-2.193-.108-3.281l.548-.031c.061,1.1.1,2.209.109,3.306ZM287.51,67.7l-.548-.034c.068-1.1.163-2.206.281-3.3l.546.059C287.672,65.512,287.579,66.612,287.51,67.7Zm142.865-2.784c-.11-1.083-.246-2.179-.406-3.257l.544-.08c.16,1.087.3,2.19.409,3.282Zm-142.158-3.74-.543-.084c.168-1.087.364-2.182.581-3.256l.538.109C288.578,59.012,288.384,60.1,288.217,61.177Zm141.2-2.751c-.21-1.071-.446-2.15-.7-3.206l.534-.13c.259,1.064.5,2.151.708,3.23Zm-139.9-3.681-.533-.133c.267-1.064.562-2.137.878-3.189l.526.158C290.076,52.625,289.783,53.69,289.518,54.745Zm138.345-2.7c-.306-1.046-.641-2.1-.995-3.127l.519-.179c.357,1.037.694,2.1,1,3.152Zm-136.453-3.6-.518-.182c.365-1.039.759-2.082,1.171-3.1l.509.206C292.163,46.386,291.771,47.422,291.409,48.452Zm134.32-2.608c-.4-1.011-.83-2.026-1.276-3.016l.5-.226c.449,1,.882,2.02,1.285,3.039ZM293.875,42.355l-.5-.229c.459-1,.947-2,1.451-2.978l.488.252C294.815,40.369,294.33,41.363,293.875,42.355Zm129.167-2.482c-.492-.97-1.013-1.941-1.548-2.888l.478-.271c.54.954,1.065,1.933,1.56,2.91ZM296.89,36.514l-.476-.274c.548-.951,1.126-1.9,1.718-2.831l.463.3C298.007,34.625,297.434,35.57,296.89,36.514ZM419.814,34.17c-.581-.924-1.188-1.845-1.806-2.736l.451-.313c.623.9,1.236,1.826,1.82,2.757ZM300.426,30.977l-.449-.316c.633-.9,1.3-1.793,1.969-2.661l.434.337C301.711,29.2,301.054,30.086,300.426,30.977Zm115.652-2.2c-.662-.867-1.351-1.729-2.05-2.562l.421-.353c.7.839,1.4,1.708,2.065,2.581ZM304.451,25.789l-.418-.356c.711-.835,1.451-1.666,2.2-2.469l.4.375C305.891,24.136,305.156,24.96,304.451,25.789Zm107.413-2.035c-.738-.8-1.5-1.6-2.275-2.366l.387-.39c.777.773,1.549,1.575,2.292,2.384ZM308.929,20.99l-.384-.393c.786-.769,1.6-1.528,2.416-2.258l.366.41c-.811.724-1.618,1.478-2.4,2.241Zm98.28-1.862c-.809-.733-1.644-1.457-2.482-2.15l.35-.423c.844.7,1.686,1.427,2.5,2.167Zm-93.386-2.508-.347-.426c.85-.692,1.728-1.374,2.61-2.028l.327.441c-.876.649-1.747,1.326-2.59,2.013Zm88.327-1.677c-.873-.657-1.77-1.3-2.668-1.916l.31-.453c.905.619,1.81,1.268,2.689,1.931Zm-83.059-2.228-.307-.456c.909-.612,1.845-1.211,2.782-1.781l.285.469c-.93.566-1.859,1.16-2.761,1.767Zm77.637-1.481c-.928-.575-1.882-1.135-2.833-1.665l.267-.48c.959.534,1.92,1.1,2.855,1.678ZM324.691,9.308l-.264-.482c.962-.527,1.948-1.037,2.932-1.518l.241.494C326.625,8.279,325.646,8.785,324.691,9.308Zm66.3-1.273c-.978-.487-1.979-.957-2.976-1.4l.222-.5c1,.444,2.014.918,3,1.409ZM330.575,6.43l-.218-.5c1.006-.436,2.034-.854,3.056-1.242l.195.514c-1.015.386-2.035.8-3.033,1.233Zm54.4-1.053c-1.017-.394-2.058-.771-3.094-1.118l.175-.521c1.044.35,2.093.73,3.118,1.127ZM336.7,4.1l-.171-.522c1.044-.342,2.109-.664,3.166-.957l.147.529c-1.048.291-2.106.611-3.141.95Zm42.041-.817c-1.048-.3-2.116-.577-3.176-.827l.126-.534c1.068.252,2.145.532,3.2.833Zm-35.718-.938-.122-.535c1.07-.245,2.16-.467,3.24-.662l.1.541C345.17,1.885,344.088,2.106,343.026,2.348Zm29.331-.568c-1.07-.2-2.159-.379-3.239-.531l.076-.544c1.088.153,2.186.333,3.264.535Zm-22.873-.6-.073-.544C350.5.493,351.6.371,352.7.276l.048.547c-1.085.094-2.182.216-3.262.36ZM365.858.868c-1.082-.1-2.183-.181-3.274-.233l.027-.549c1.1.053,2.208.132,3.3.235ZM356.021.613,356,.064C357.008.022,358.037,0,359.057,0h.249l0,.549h-.247c-1.012,0-2.034.022-3.036.063Z" transform="translate(-208.04)" fill="#3f3d56"/><path d="M797.3,463.863a3.3,3.3,0,1,1,3.3-3.3A3.3,3.3,0,0,1,797.3,463.863Zm0-6.043a2.747,2.747,0,1,0,2.747,2.747A2.747,2.747,0,0,0,797.3,457.82Z" transform="translate(-575.916 -331.674)" fill="#2f2e41"/><path d="M275.02,76.388v18.04a.631.631,0,0,1-.629.629h-.448v93.977a9.806,9.806,0,0,1-9.806,9.806H205.417a9.8,9.8,0,0,1-9.8-9.8h0V98.353h-.324a.444.444,0,0,1-.445-.442V87.644a.445.445,0,0,1,.445-.445h.324V83.332h-.327a.466.466,0,0,1-.464-.467V72.738a.465.465,0,0,1,.464-.464h.327V66.995h-.332a.411.411,0,0,1-.412-.411h0V61.056a.414.414,0,0,1,.412-.415h.332V49.452a9.8,9.8,0,0,1,9.8-9.8h58.721a9.806,9.806,0,0,1,9.806,9.8V75.759h.448A.631.631,0,0,1,275.02,76.388Z" transform="translate(-141.312 -28.759)" fill="#3f3d56"/><rect width="10.938" height="2.221" rx="1.111" transform="translate(86.054 15.919)" fill="#e6e8ec"/><circle cx="1.26" cy="1.26" r="1.26" transform="translate(98.646 15.769)" fill="#e6e8ec"/><path d="M284.491,65.97V204.426a6.221,6.221,0,0,1-6.221,6.218h-56.21a6.21,6.21,0,0,1-6.221-6.2V65.97a6.221,6.221,0,0,1,6.221-6.221h8.414v1.079a5.123,5.123,0,0,0,5.122,5.123h28.587a5.123,5.123,0,0,0,5.122-5.123V59.749h8.965a6.219,6.219,0,0,1,6.221,6.217Z" transform="translate(-156.555 -43.338)" fill="#00a1e4"/><rect width="63.722" height="31.037" transform="translate(62.027 61.8)" opacity="0.2" style="isolation:isolate"/><rect width="63.722" height="31.037" transform="translate(162.005 26.368)" fill="#f2f2f2"/><rect width="63.722" height="31.037" transform="translate(62.027 108.844)" fill="#3f3d56"/><circle cx="5.493" cy="5.493" r="5.493" transform="translate(113.664 27.818)" fill="#fff"/><path d="M429.772,114.574h-2.3v-2.3h-.353v2.3h-2.3v.353h2.3v2.3h.353v-2.3h2.3Z" transform="translate(-308.142 -81.44)" fill="#3f3d56"/><rect width="63.722" height="31.037" transform="translate(154.864 22.248)" fill="#3f3d56"/><path d="M601.508,322.242h-5.422V316.82h5.422Zm-5.005-.417h4.588v-4.588H596.5Z" transform="translate(-432.362 -229.801)" fill="#3f3d56"/><path d="M87.7,438.4l-3.7-3.965,3.965-3.7,3.7,3.965ZM84.6,434.459l3.129,3.355,3.355-3.129-3.129-3.355Z" transform="translate(-60.932 -312.431)" fill="#2f2e41"/><circle cx="2.768" cy="2.768" r="2.768" transform="translate(26.933 35.124)" fill="#3f3d56"/><path d="M87.019,124.834a8,8,0,1,1,8-8h0A8.006,8.006,0,0,1,87.019,124.834Zm0-15.379a7.382,7.382,0,1,0,7.382,7.382A7.382,7.382,0,0,0,87.019,109.455Z" transform="translate(-57.317 -78.945)" fill="#2f2e41"/><rect width="63.722" height="31.037" transform="translate(75.76 56.856)" fill="#3f3d56"/><path d="M492.145,325.36,456.8,336.418l-43.971-27.746,0,0-.144-.089-.024-.016-.349-.219-4.186-2.634c.008-.071.018-.14.032-.207a1.9,1.9,0,0,1,.43-.879,2.108,2.108,0,0,1,.249-.249h0c.04-.034.081-.067.124-.1s.089-.065.136-.095a6.823,6.823,0,0,1,3.3-.843,15.716,15.716,0,0,1,7.924,1.718c4.943,2.5,15.567,7.419,17.223,4.406,2.172-3.949-22.512-47.985-22.512-47.985-2.032-5.223-.545-6.929.387-7.466l.081-.046a2.289,2.289,0,0,1,.306-.13,1.385,1.385,0,0,1,.168-.049l.046-.01,3.274,4.352.049.065.175.235.054.071,19.848,26.378c30.41-16.39,40.876,27.448,40.876,27.448Z" transform="translate(-296.025 -184.073)" fill="#f8d0d0"/><path d="M438.957,258.527a.859.859,0,0,1-.8.484,1.276,1.276,0,0,1-.324-.043,4.377,4.377,0,0,1-2.221-2.1,4.528,4.528,0,0,1-.731-2.871,2.33,2.33,0,0,1,.306-.13,1.381,1.381,0,0,1,.168-.049,3.564,3.564,0,0,0,.6,2.854,4.036,4.036,0,0,0,1.979,1.917.538.538,0,0,0,.7-.289.531.531,0,0,0,.037-.14l.049.065.176.235Z" transform="translate(-315.409 -184.099)" fill="#3f3d56"/><path d="M413.9,441.943l-.024-.016-.35-.219a3.939,3.939,0,0,0-1.366-2.411,4.2,4.2,0,0,0-2.358-1.309,2.09,2.09,0,0,1,.249-.249h0c.04-.034.081-.067.124-.1a5.151,5.151,0,0,1,2.259,1.374A3.9,3.9,0,0,1,413.9,441.943Z" transform="translate(-297.245 -317.435)" fill="#3f3d56"/><g transform="translate(177.369 29.827)"><circle cx="10.047" cy="10.047" r="10.047" fill="#fff"/><g transform="translate(2.936 2.212)"><path d="M667.581,120.643a4.912,4.912,0,0,0-1.663-1.348,4.634,4.634,0,0,0-1.974-.423,5.13,5.13,0,0,0-2.132.41,4.1,4.1,0,0,0-1.532,1.153,5.145,5.145,0,0,0-.917,1.711,6.853,6.853,0,0,0-.316,2.083,6.016,6.016,0,0,0,.349,2.086,5.5,5.5,0,0,0,.982,1.716,4.462,4.462,0,0,0,1.525,1.163,4.7,4.7,0,0,0,2.006.424,4.27,4.27,0,0,0,3.679-1.78l1.786,1.7a6.3,6.3,0,0,1-2.476,1.752,8.521,8.521,0,0,1-6.052-.019,6.617,6.617,0,0,1-2.357-1.583,7.235,7.235,0,0,1-1.505-2.413A8.832,8.832,0,0,1,657,121.2a7.114,7.114,0,0,1,1.536-2.4,6.961,6.961,0,0,1,2.367-1.583,7.835,7.835,0,0,1,3.043-.562,8.347,8.347,0,0,1,3.039.566,6.648,6.648,0,0,1,2.511,1.737Z" transform="translate(-656.455 -116.648)" fill="#00a1e4"/></g></g><g transform="translate(84.366 116.195)"><circle cx="10.4" cy="10.4" r="10.4" opacity="0.2" style="isolation:isolate"/><g transform="translate(6.52 2.243)"><path d="M330.9,431.695l3.389-.486.041,12.5,6.281-.9.014,3.192-9.671,1.387Z" transform="translate(-330.897 -431.209)" fill="#00a1e4"/></g></g><g transform="translate(94.564 60.96)"><circle cx="11.414" cy="11.414" r="11.414" fill="#00a1e4"/><g transform="translate(2.608 2.37)"><path d="M370.139,245.131a8.725,8.725,0,0,1-3.394,2.768,10.748,10.748,0,0,1-4.272.777,8.915,8.915,0,0,1-3.64-.728,8.212,8.212,0,0,1-2.735-1.941,8.5,8.5,0,0,1-1.722-2.875,10.218,10.218,0,0,1-.594-3.535,9.9,9.9,0,0,1,.673-3.66,8.5,8.5,0,0,1,1.849-2.864,8.284,8.284,0,0,1,2.8-1.849,9.208,9.208,0,0,1,3.535-.651,8.746,8.746,0,0,1,3.31.619,7.159,7.159,0,0,1,2.587,1.773,7.921,7.921,0,0,1,1.666,2.839,11.476,11.476,0,0,1,.577,3.809l0,.921-13.91-.045a5.981,5.981,0,0,0,.528,2.118,6.116,6.116,0,0,0,1.19,1.77,5.545,5.545,0,0,0,1.725,1.2,5.294,5.294,0,0,0,2.169.448,6.862,6.862,0,0,0,3.166-.651,7.205,7.205,0,0,0,2.325-1.945Zm-2.443-7.037a4.949,4.949,0,0,0-1.423-3.537,5.152,5.152,0,0,0-3.75-1.338,5.306,5.306,0,0,0-5.646,4.841Z" transform="translate(-353.782 -230.572)" fill="#fff"/></g></g></g></svg>