<svg id="Capa_1" xmlns="http://www.w3.org/2000/svg" xmlns:xlink="http://www.w3.org/1999/xlink" viewBox="0 0 200 200" style="enable-background:new 0 0 200 200"><g><path style="fill:#03c" d="M197.049 79.395c0 40.601-43.464 100.634-97.079 100.634S2.891 147.115 2.891 106.514 46.355 33 99.97 33 197.049 38.794 197.049 79.395z"/><g><path style="fill:#e6e6e6" d="M108.64 159.92c-1.171-1.639-2.755-2.839-4.748-3.288-1.737-.391-3.524-.325-5.29-.311l-22.331.172c-1.912.015-3.746 1.672-3.657 3.657.088 1.969 1.607 3.673 3.657 3.657 6.541-.05 13.083-.101 19.624-.151 1.542-.012 3.085-.04 4.627-.035.346.001.691.019 1.037.023.084.001.144.0.187-.002.011.003.02.006.034.01.18.05.366.084.547.131-.064.002.118.115.209.153.013.025.039.068.084.136.062.117.246.471.254.459.277.699.505 1.417.683 2.147.425 1.611.518 1.948.58 3.459.077 1.909 1.627 3.748 3.657 3.657 1.915-.086 3.74-1.61 3.657-3.657C111.312 166.689 110.707 162.814 108.64 159.92z"/><path style="fill:#e6e6e6" d="M77.585 168.173c-.419-2.542-.831-5.085-1.258-7.625-.434-2.577-1.32-4.937-3.325-6.628-.536-.452-1.091-.874-1.649-1.294-.196-.148-.392-.296-.586-.447-.012-.009-.019-.015-.029-.023-.021-.018-.047-.04-.081-.069-.836-.707-1.643-1.446-2.413-2.232-.683-.698-1.337-1.425-1.96-2.182-.156-.189-.31-.38-.461-.572-.026-.033-.167-.215-.259-.333-.086-.119-.244-.333-.27-.37-.177-.251-.352-.504-.523-.759-1.165-1.745-2.174-3.59-3.014-5.512-.083-.191-.165-.382-.244-.575-.021-.059-.049-.134-.085-.235-.169-.466-.339-.931-.493-1.403-.329-1.001-.612-2.017-.849-3.048-.117-.509-.222-1.021-.316-1.535-.048-.264-.094-.529-.136-.795-.007-.044-.048-.331-.072-.492-.018-.163-.051-.451-.056-.495-.027-.268-.051-.536-.071-.804-.047-.603-.078-1.208-.095-1.813-.028-1.076-.009-2.152.058-3.228.038-.605.092-1.207.158-1.809.004-.037.007-.066.01-.093.004-.027.009-.057.014-.095.049-.333.101-.665.159-.996.219-1.257.505-2.502.855-3.729.166-.58.346-1.156.54-1.727.087-.253.176-.506.268-.757-.006.016.27-.689.274-.713 1.096-2.59 2.889-4.95 2.891-7.892.002-1.992-1.683-3.9-3.657-3.808-2.046.077-3.663 1.76-3.657 3.808.0.045.0.083.0.12-.018.062-.034.114-.048.16-.214.464-.476.906-.71 1.359-.642 1.24-1.191 2.52-1.712 3.819-.853 2.116-1.505 4.306-1.95 6.544-.965 4.902-1.04 9.938-.221 14.867 1.418 8.643 6.094 16.917 12.595 22.478.564.483 1.142.949 1.726 1.406.241.189.485.375.729.559.116.087.595.465.384.282.453.387.644.581.76.866.017.066.04.155.071.277.082.321.16.642.225.967.566 2.846.959 5.74 1.432 8.605.325 1.968 2.748 3.249 4.499 2.659C77.069 172.171 77.933 170.282 77.585 168.173z"/><path style="fill:#fff" d="M109.01 175.555c-3.198.008-5.799-2.574-5.815-5.772v-4.172c-4.368.489-19.325.376-23.612-.313v4.318c-.024 3.212-2.647 5.796-5.859 5.771-3.178-.024-5.748-2.594-5.772-5.771v-8.478c-11.824-6.569-19.17-19.021-19.201-32.547.0-11.39 5.162-22.016 14.163-29.152 5.852-4.656 12.962-7.455 20.417-8.04 1.012-.079 2.03-.12 3.026-.12 3.509.0 19.342.542 23.315 1.685l9.058-8.988c.272-.274.683-.356 1.04-.207.36.143.594.492.591.879v1.429l1.764-1.747c.272-.274.683-.356 1.039-.208.36.143.595.492.591.88v15.97c15.261 13.758 16.479 37.282 2.721 52.543-3.275 3.633-7.235 6.585-11.652 8.686v7.582C114.81 172.982 112.208 175.564 109.01 175.555zM103.652 165.093v4.69c.024 2.959 2.442 5.338 5.402 5.314 2.925-.024 5.29-2.389 5.314-5.314v-7.871l.131-.062c6.201-2.942 11.465-7.546 15.208-13.299 9.855-15.17 7.166-35.262-6.331-47.307l-.076-.068V85.003c.003-.201-.119-.383-.307-.456-.186-.08-.403-.037-.544.108l-2.543 2.519v-2.525c.003-.201-.119-.383-.307-.456-.187-.08-.403-.036-.545.109l-9.252 9.181-.131-.041c-3.693-1.156-19.775-1.704-23.311-1.704-.984.0-1.99.04-2.99.118-7.365.577-14.388 3.343-20.169 7.942-8.891 7.049-13.989 17.544-13.989 28.793.031 13.408 7.338 25.743 19.083 32.213l.118.065v8.748c.025 2.959 2.443 5.338 5.403 5.313 2.924-.024 5.289-2.389 5.313-5.313v-4.865l.271.051c3.853.725 20.077.839 23.997.325L103.652 165.093z"/><path style="fill:#6c63ff" d="M78.022 66.388l-25.313 7.607c-1.678.507-2.627 2.277-2.121 3.955.506 1.675 2.271 2.624 3.947 2.123l22.152-6.659.464-.139c.094-2.391.743-4.728 1.895-6.825-.145-.065-.299-.105-.457-.119C78.398 66.312 78.205 66.332 78.022 66.388z"/><path style="fill:#2f2e41" d="M54.097 81.695c-.689-.002-1.3-.444-1.517-1.097l-1.583-4.776c-.278-.839.177-1.744 1.015-2.022v0l20.602-6.828c.839-.278 1.744.177 2.022 1.015v0l1.583 4.776c.274.817-.151 1.703-.958 2.002-.019.007-.038.014-.058.02l-20.602 6.827C54.439 81.667 54.269 81.695 54.097 81.695z"/><path style="fill:#3f3d56" d="M92.681 57.905c-8.644.003-15.725 6.869-15.994 15.509-.005.162-.007.327-.007.491.0 8.837 7.164 16.001 16.001 16.001s16.001-7.164 16.001-16.001S101.517 57.905 92.681 57.905v0 0zM92.681 89.449C84.1 89.44 77.146 82.487 77.137 73.906c0-.213.005-.423.014-.631.349-8.577 7.584-15.247 16.162-14.899 8.577.349 15.247 7.584 14.899 16.162C107.872 82.87 101.019 89.45 92.681 89.449v0z"/><path style="fill:#e6e6e6" d="M106.167 73.906c0 7.448-6.038 13.486-13.486 13.486s-13.486-6.038-13.486-13.486c0-.427.021-.848.059-1.264.698-7.415 7.276-12.861 14.691-12.163C100.872 61.131 106.167 66.947 106.167 73.906z"/><path style="fill:#6c63ff" d="M96.697 74.802c-.327-.43-.757-.77-1.25-.99-.609-.256-1.237-.463-1.879-.617v-3.671c.987.149 1.913.571 2.672 1.218l.745-1.589c-.429-.382-.921-.686-1.454-.898-.591-.239-1.211-.398-1.845-.473v-1.861H91.96V67.8c-.666.075-1.309.291-1.886.633-.521.308-.959.738-1.278 1.253-.304.502-.462 1.079-.455 1.666-.03.636.155 1.264.523 1.783.34.449.788.805 1.303 1.033.618.264 1.257.476 1.911.633v3.518c-1.165-.088-2.274-.531-3.18-1.269l-.745 1.591c.506.418 1.082.745 1.701.965.678.243 1.387.39 2.105.439v1.845h1.726v-1.879c.959-.105 1.857-.517 2.562-1.175.628-.602.974-1.439.956-2.309C97.233 75.912 97.054 75.304 96.697 74.802zM92.079 72.806c-.42-.127-.811-.337-1.15-.617-.272-.242-.421-.592-.407-.955-.012-.407.137-.803.416-1.099.309-.312.708-.519 1.141-.592V72.806zM94.651 77.671c-.292.299-.671.497-1.084.565V75.21c.394.106.763.29 1.084.542.246.211.384.522.373.846C95.039 76.989 94.906 77.372 94.651 77.671v0z"/><path style="fill:#2f2e41" d="M54.832 101.053c-.727-.001-1.362-.49-1.549-1.192l-.862-3.262c-.225-.854.284-1.728 1.137-1.955l27.187-7.184c.854-.223 1.728.286 1.955 1.14l.73 2.763-.137.011c-6.973.542-13.644 3.07-19.225 7.285l-.04.019L55.238 101C55.105 101.035 54.969 101.053 54.832 101.053z"/><path style="fill:#3f3d56" d="M50.329 117.165c-3.189-.471-6.239-1.624-8.943-3.381-1.339-.87-2.579-1.884-3.697-3.024-1.104-1.126-2.159-2.405-2.706-3.904-.526-1.387-.499-2.923.076-4.29.567-1.359 1.649-2.438 3.01-3 1.369-.546 3.023-.604 4.356-.006.635.278 1.184.721 1.592 1.281.189.259.33.55.414.859.078.28.085.576.021.859-.158.573-.556 1.05-1.091 1.308-.582.299-1.213.491-1.863.568-.654.089-1.593.17-2.118-.355-.108-.104-.193-.229-.25-.368-.04-.106-.053-.221-.039-.333-.008.05.032-.108.029-.102-.008.023-.044.08.007-.007.016-.029.034-.056.053-.083-.017.022-.056.06.013-.004.056-.062.129-.106.209-.129.032-.009.064-.017.095-.025.081-.022-.08.001.002-.001.032-.001.064.0.096-.002.081-.004-.08-.022-.002-.003.03.008.06.015.09.024.064.02-.046-.047-.002.003.051.059-.054-.058.004.0.029.028.056.059.082.09.21.207.548.207.758.0.203-.212.203-.546.0-.758-.528-.655-1.572-.493-2.106.06-.682.706-.412 1.825.251 2.441.751.697 1.814.746 2.779.629.816-.078 1.611-.303 2.347-.663.731-.359 1.304-.977 1.606-1.735.276-.817.188-1.713-.241-2.462-.852-1.603-2.618-2.424-4.362-2.567-1.814-.142-3.61.447-4.987 1.637-1.314 1.183-2.123 2.826-2.26 4.589-.152 1.828.557 3.603 1.591 5.078 1.082 1.499 2.374 2.834 3.835 3.967 2.857 2.281 6.209 3.862 9.786 4.615.426.088.853.163 1.283.226.284.069.573-.095.659-.374C50.78 117.539 50.613 117.245 50.329 117.165v0z"/><path style="fill:#ccc" d="M101.391 93.878c-4.673-.066-9.331.053-13.974.356-1.587.104-2.96.665-2.96 1.607.0.788 1.362 1.712 2.96 1.607 4.641-.303 9.299-.422 13.974-.356C105.202 97.146 105.2 93.932 101.391 93.878z"/><path style="fill:#3f3d56" d="M94.484 96.933c-.505.0-12.367-.019-12.367-1.657s11.863-1.657 12.367-1.657c.505.0 12.367.019 12.367 1.657C106.852 96.915 94.989 96.933 94.484 96.933zM82.581 95.276c.325.497 4.685 1.2 11.904 1.2s11.579-.703 11.904-1.2c-.325-.497-4.685-1.2-11.904-1.2C87.266 94.076 82.905 94.779 82.581 95.276v0z"/><path style="fill:#fff" d="M132.121 140.009c2.626-.073 5.894-.164 8.412-2.003 1.518-1.154 2.448-2.92 2.542-4.824.051-1.453-.473-2.72-1.478-3.569-1.315-1.111-3.235-1.372-5.305-.764l2.144-15.669-1.574-.216-2.521 18.421 1.314-.603c1.524-.699 3.616-1.055 4.915.044.647.582.986 1.433.916 2.3-.078 1.417-.768 2.73-1.892 3.597-1.959 1.431-4.564 1.616-7.519 1.698L132.121 140.009z"/><path style="fill:#fff" d="M119.213 114.532h8.556v1.589H119.213z"/><path style="fill:#2f2e41" d="M58.704 108.36c-.787-.003-1.455-.576-1.578-1.353l-.522-3.333c-.136-.873.461-1.691 1.333-1.829l27.78-4.353c.873-.136 1.691.461 1.828 1.333l.522 3.333c.136.873-.46 1.691-1.333 1.829l-27.78 4.353C58.871 108.353 58.788 108.36 58.704 108.36z"/><circle style="fill:#6c63ff" cx="47.207" cy="57.642" r="11.658"/><path style="fill:#2f2e41" d="M53.808 60.658c.373-.13.713-.339.998-.612.382-.394.571-.936.515-1.482-.032-.39-.245-.742-.574-.952-.422-.259-.979-.25-1.542.011l-.065-4.551-.457.007.076 5.35.348-.228c.404-.264.983-.456 1.4-.199.209.138.342.365.36.615.039.406-.101.81-.383 1.105-.496.492-1.229.656-2.066.807l.081.45C52.944 60.911 53.382 60.804 53.808 60.658z"/><path transform="matrix(0.9887 -0.1497 0.1497 0.9887 -7.3205 9.0815)" style="fill:#2f2e41" d="M55.43 52.937h2.462v.457H55.43z"/><path transform="matrix(0.9887 -0.1497 0.1497 0.9887 -7.5812 7.9443)" style="fill:#2f2e41" d="M47.746 54.099h2.462v.457H47.746z"/><path style="fill:#2f2e41" d="M54.911 108.156c-.858-.002-1.626-.535-1.928-1.338l-8.038-21.525c-2.046-5.497.744-11.612 6.237-13.67l6.535-2.44c.51-.192 1.076-.172 1.572.055.495.221.88.632 1.069 1.14L75.247 98.49c.405 1.062-.128 2.251-1.189 2.656-.004.002-.008.003-.012.005l-18.416 6.877C55.4 108.111 55.157 108.156 54.911 108.156z"/><path style="fill:#e6e6e6" d="M55.735 69.923l14.773 19.755L60.511 70.13c-.347-.959-1.406-1.455-2.365-1.108.0.0.0.0-.001.0L55.735 69.923z"/><path style="fill:#6c63ff" d="M79.126 84.926l-26.377-1.699c-1.749-.112-3.075-1.62-2.963-3.369s1.62-3.075 3.369-2.963c.001.0.002.0.003.0l26.377 1.699c.819.053 1.44.759 1.387 1.578v0l-.217 3.367C80.651 84.357 79.945 84.978 79.126 84.926v0z"/><path style="fill:#2f2e41" d="M72.077 86.015c-.035.0-.07-.001-.105-.003v0l-21.659-1.395c-.882-.057-1.551-.817-1.494-1.699v0l.37-5.751c.057-.882.818-1.551 1.7-1.494v0l21.659 1.395c.881.058 1.55.818 1.494 1.7l-.37 5.751c-.042.629-.448 1.176-1.039 1.397C72.455 85.981 72.267 86.015 72.077 86.015z"/><path style="fill:#2f2e41" d="M47.074 49.89c1.534-1.319 3.64-.139 5.398-.346 1.683-.198 3.011-1.707 3.351-3.31.396-1.871-.575-3.745-2.006-4.911-1.567-1.277-3.646-1.644-5.616-1.408-2.258.271-4.323 1.323-6.176 2.596-1.788 1.191-3.433 2.584-4.901 4.153-1.315 1.452-2.428 3.182-2.784 5.136-.323 1.775-.076 3.743.973 5.247.557.771 1.302 1.385 2.166 1.784.9.442 1.86.758 2.732 1.258 1.318.756 2.6 2.322 2.187 3.952-.089.356-.263.685-.509.958-.295.327-.827-.105-.531-.434.52-.577.499-1.346.222-2.034-.329-.776-.912-1.417-1.653-1.818-.913-.522-1.92-.844-2.856-1.319-.895-.434-1.673-1.078-2.266-1.878-1.12-1.556-1.455-3.581-1.201-5.454.275-2.027 1.316-3.869 2.622-5.413 1.421-1.68 3.166-3.102 4.949-4.379 1.913-1.371 4.027-2.53 6.366-2.949 2.028-.363 4.225-.14 5.998.965 1.655 1.031 2.924 2.806 3.05 4.788.092 1.837-.815 3.58-2.372 4.558-.785.47-1.697.681-2.608.604-.974-.062-1.949-.361-2.93-.278-.444.027-.866.198-1.204.487C47.141 50.734 46.741 50.175 47.074 49.89v0z"/></g></g></svg>