<svg id="Capa_1" xmlns="http://www.w3.org/2000/svg" xmlns:xlink="http://www.w3.org/1999/xlink" viewBox="0 0 200 200" style="enable-background:new 0 0 200 200"><g><path style="fill:#03c" d="M198 72.346c0 40.993-43.883 101.605-98.016 101.605S1.968 140.72 1.968 99.728s43.883-74.224 98.016-74.224S198 31.354 198 72.346z"/><g><title>team</title><g style="opacity:.5"><linearGradient id="SVGID_1_" gradientUnits="userSpaceOnUse" x1="-1761.5492" y1="-3038.3367" x2="-1761.5492" y2="-3079.5447" gradientTransform="matrix(1 0 0 1 1812.3622 3107.4836)"><stop offset="0" style="stop-color:gray;stop-opacity:.25"/><stop offset=".54" style="stop-color:gray;stop-opacity:.12"/><stop offset="1" style="stop-color:gray;stop-opacity:.1"/></linearGradient><circle style="fill:url(#SVGID_1_)" cx="50.813" cy="48.543" r="20.604"/></g><circle style="fill:#f5f5f5" cx="50.813" cy="48.431" r="20.169"/><path style="fill:#6c63ff" d="M50.87 68.656c3.941.006 7.797-1.147 11.087-3.318-.743-4.061-3.572-4.294-3.572-4.294H42.791c0 0-2.667.219-3.502 3.956C42.679 67.386 46.724 68.663 50.87 68.656z"/><circle style="fill:#333" cx="50.658" cy="47.986" r="8.941"/><path style="opacity:.1;enable-background:new" d="M47.516 56.095h6.239v0 4.991c0 1.722-1.396 3.118-3.118 3.118v0 0c-1.722.0-3.118-1.396-3.118-3.118v0-4.991H47.516z"/><path style="fill:#be7c5e" d="M48.112 55.864h5.047c.329.0.596.267.596.596v0 4.395c0 1.722-1.396 3.118-3.118 3.118v0c-1.722.0-3.118-1.396-3.118-3.118v0V56.46C47.518 56.132 47.784 55.865 48.112 55.864z"/><path style="opacity:.1;enable-background:new" d="M47.529 58.451c2.011.751 4.224.758 6.239.018v-.766h-6.239V58.451z"/><circle style="fill:#be7c5e" cx="50.658" cy="49.928" r="8.941"/><path style="fill:#333" d="M45.241 46.24c.105-.386.236-.811.583-1.012.274-.16.613-.135.93-.119 2.471.135 4.921-.428 7.325-1.017 1.374-.336 2.845-.745 3.734-1.853s-.27-4.589-1.623-4.999c-.889-.272-1.92.235-2.763-.164-.375-.178-.651-.51-.974-.77-.663-.533-1.515-.749-2.34-.951-.964-.238-2.005-.471-2.921-.089-.711.295-1.23.919-1.904 1.289-1.282.711-2.845.38-4.313.377-.496.0-1.088.1-1.285.555-.133.309-.027.661-.012.997.043 1.067-.837 1.897-1.575 2.667s-1.435 1.869-.969 2.825c.178.364.503.64.688 1.001.318.626.158 1.381.274 2.073.116.525.312 1.029.581 1.493.548 1.067 3.298 6.809 4.562 5.35.612-.711.711-2.766.958-3.691C44.537 48.875 44.885 47.554 45.241 46.24z"/><ellipse style="fill:#be7c5e" cx="44.297" cy="49.602" rx=".832" ry="1.559"/><g style="opacity:.5"><linearGradient id="SVGID_2_" gradientUnits="userSpaceOnUse" x1="-1713.8372" y1="-2993.4927" x2="-1713.8372" y2="-3034.7007" gradientTransform="matrix(1 0 0 1 1812.3622 3107.4836)"><stop offset="0" style="stop-color:gray;stop-opacity:.25"/><stop offset=".54" style="stop-color:gray;stop-opacity:.12"/><stop offset="1" style="stop-color:gray;stop-opacity:.1"/></linearGradient><circle style="fill:url(#SVGID_2_)" cx="98.525" cy="93.387" r="20.604"/></g><circle style="fill:#f5f5f5" cx="98.564" cy="93.256" r="20.169"/><path style="fill:#6c63ff" d="M98.582 113.504c3.939.005 7.792-1.149 11.08-3.318-.743-4.061-3.572-4.294-3.572-4.294H90.501c0 0-2.667.219-3.502 3.956C90.39 112.234 94.436 113.511 98.582 113.504z"/><circle style="fill:#f55f44" cx="98.368" cy="92.831" r="9.736"/><path style="opacity:.1;enable-background:new" d="M95.227 100.94h6.239v0 4.991c0 1.722-1.396 3.118-3.118 3.118v0 0c-1.722.0-3.118-1.396-3.118-3.118v0-4.991H95.227z"/><path style="fill:#fda57d" d="M95.822 100.709h5.048c.329.0.596.267.596.596v0 4.395c0 1.722-1.396 3.118-3.118 3.118v0 0c-1.722.0-3.118-1.396-3.118-3.118v0-4.395c0-.329.267-.596.596-.596v0H95.822z"/><path style="opacity:.1;enable-background:new" d="M95.239 103.295c2.011.751 4.224.758 6.239.018v-.766h-6.239V103.295z"/><circle style="fill:#fda57d" cx="98.368" cy="94.772" r="8.941"/><circle style="fill:#f55f44" cx="98.356" cy="82.928" r="3.598"/><circle style="fill:#f55f44" cx="98.356" cy="79.384" r="2.363"/><path style="fill:#f55f44" d="M96.795 84.901c-1.754-.787-2.58-2.813-1.876-4.601-.025.05-.05.101-.073.153-.814 1.814-.003 3.943 1.811 4.757 1.814.814 3.943.003 4.757-1.811.023-.052.044-.103.066-.156C100.612 84.958 98.549 85.688 96.795 84.901z"/><path style="opacity:.1;enable-background:new" d="M92.002 86.64c0 0 3.767 7.645 14.401 3.2l-2.475-3.881-4.386-1.575L92.002 86.64z"/><path style="fill:#f55f44" d="M92.002 86.526c0 0 3.767 7.645 14.401 3.2l-2.475-3.881-4.386-1.575L92.002 86.526z"/><path style="fill:#333" d="M94.905 83.742c2.318-.182 4.647-.182 6.966.0C101.871 83.742 96.726 84.22 94.905 83.742z"/><path style="fill:#f55f44" d="M98.896 76.877c-.179-.007-.358.007-.533.041H98.5c1.303.042 2.326 1.132 2.284 2.435-.035 1.109-.838 2.043-1.929 2.246 1.304.012 2.371-1.036 2.382-2.34S100.201 76.888 98.896 76.877v0z"/><ellipse style="fill:#fda57d" cx="89.425" cy="94.763" rx=".832" ry="1.559"/><ellipse style="fill:#fda57d" cx="107.309" cy="94.763" rx=".832" ry="1.559"/><path style="fill:#f55f44" d="M91.438 86.752 93.182 85.852 93.575 87.294 92.507 88.021z"/><g style="opacity:.5"><linearGradient id="SVGID_3_" gradientUnits="userSpaceOnUse" x1="-1713.8572" y1="-3039.3486" x2="-1713.8572" y2="-3080.5566" gradientTransform="matrix(1 0 0 1 1812.3622 3107.4836)"><stop offset="0" style="stop-color:gray;stop-opacity:.25"/><stop offset=".54" style="stop-color:gray;stop-opacity:.12"/><stop offset="1" style="stop-color:gray;stop-opacity:.1"/></linearGradient><circle style="fill:url(#SVGID_3_)" cx="98.505" cy="47.531" r="20.604"/></g><circle style="fill:#f5f5f5" cx="98.505" cy="47.419" r="20.169"/><path style="fill:#333" d="M90.638 47.599c0 0-2.286 11.265-3.534 10.641.0.0 12.036 10.397 22.665.0.0.0-1.872-7.938-4.575-10.641H90.638z"/><path style="fill:#6c63ff" d="M98.562 67.648c3.941.006 7.797-1.147 11.087-3.318-.743-4.061-3.572-4.294-3.572-4.294H90.481c0 0-2.667.219-3.502 3.956C90.37 66.378 94.416 67.655 98.562 67.648z"/><circle style="fill:#333" cx="98.349" cy="46.975" r="8.941"/><path style="opacity:.1;enable-background:new" d="M95.207 55.084h6.239v0 4.991c0 1.72-1.393 3.116-3.113 3.118v0c-1.722.0-3.118-1.396-3.118-3.118v-4.991H95.207z"/><path style="fill:#be7c5e" d="M95.803 54.853h5.047c.329.0.596.267.596.596v0 4.395c0 1.72-1.393 3.116-3.113 3.118v0c-1.722.0-3.118-1.396-3.118-3.118v0-4.397C95.215 55.121 95.477 54.857 95.803 54.853z"/><path style="opacity:.1;enable-background:new" d="M95.22 57.439c2.011.751 4.224.758 6.239.018v-.766H95.22V57.439z"/><circle style="fill:#be7c5e" cx="98.349" cy="48.914" r="8.941"/><path style="fill:#333" d="M89.802 45.519h17.05c0 0-1.456-6.884-7.901-6.445C92.507 39.513 89.802 45.519 89.802 45.519z"/><ellipse style="fill:#be7c5e" cx="89.593" cy="48.534" rx=".832" ry="1.559"/><ellipse style="fill:#be7c5e" cx="107.059" cy="48.534" rx=".832" ry="1.559"/><path style="opacity:.1;enable-background:new" d="M89.802 45.75h17.05c0 0-1.456-6.884-7.901-6.445C92.507 39.744 89.802 45.75 89.802 45.75z"/><g style="opacity:.5"><linearGradient id="SVGID_4_" gradientUnits="userSpaceOnUse" x1="-1664.7402" y1="-3039.4387" x2="-1664.7402" y2="-3080.6467" gradientTransform="matrix(1 0 0 1 1812.3622 3107.4836)"><stop offset="0" style="stop-color:gray;stop-opacity:.25"/><stop offset=".54" style="stop-color:gray;stop-opacity:.12"/><stop offset="1" style="stop-color:gray;stop-opacity:.1"/></linearGradient><circle style="fill:url(#SVGID_4_)" cx="147.622" cy="47.441" r="20.604"/></g><circle style="fill:#f5f5f5" cx="147.661" cy="47.307" r="20.169"/><path style="fill:#6c63ff" d="M147.679 67.558c3.941.006 7.797-1.147 11.087-3.318-.745-4.063-3.572-4.295-3.572-4.295H139.6c0 0-2.667.219-3.502 3.956C139.488 66.286 143.533 67.563 147.679 67.558z"/><circle style="fill:#72351c" cx="147.467" cy="46.882" r="9.736"/><path style="opacity:.1;enable-background:new" d="M144.324 54.991h6.239v0 4.991c.003 1.722-1.391 3.121-3.113 3.124-.002.0-.004.0-.005.0v0c-1.722.0-3.118-1.396-3.118-3.118v-4.996h-.003V54.991z"/><path style="fill:#fda57d" d="M144.914 54.76h5.048c.329.0.596.267.596.596v4.395c0 1.722-1.396 3.118-3.118 3.118v0c-1.722.0-3.118-1.396-3.118-3.118v-4.395c0-.329.267-.596.596-.596H144.914z"/><path style="opacity:.1;enable-background:new" d="M144.331 57.347c2.011.751 4.224.758 6.239.018v-.766h-6.239V57.347z"/><circle style="fill:#fda57d" cx="147.467" cy="48.824" r="8.941"/><path style="opacity:.1;enable-background:new" d="M141.099 40.692c0 0 3.767 7.645 14.401 3.2l-2.475-3.881-4.386-1.575L141.099 40.692z"/><path style="fill:#72351c" d="M141.099 40.58c0 0 3.767 7.645 14.401 3.2l-2.475-3.881-4.386-1.575L141.099 40.58z"/><path style="fill:#72351c" d="M141.065 40.062c.254-.786.693-1.5 1.28-2.082 1.758-1.739 4.642-2.105 6.121-4.089.318.555.125 1.262-.43 1.579-.034.019-.068.037-.104.053 1.422-.009 3.06-.133 3.86-1.3.404.941.23 2.03-.446 2.798 1.255.057 2.596.909 2.678 2.164.053.836-.469 1.627-1.157 2.107s-1.517.695-2.334.873C148.146 42.699 139.507 44.905 141.065 40.062z"/><path style="fill:#72351c" d="M156.408 48.902h-.236l-4.612 4.109c-4.445-2.08-7.705.0-7.705.0l-4.836-3.936-.487.06c.139 4.936 4.253 8.825 9.189 8.686 4.83-.136 8.678-4.084 8.69-8.916L156.408 48.902zM147.455 54.582c-1.739.0-3.149-.356-3.149-.788s1.41-.788 3.149-.788 3.149.356 3.149.788S149.194 54.582 147.455 54.582v0z"/><ellipse style="fill:#fda57d" cx="138.522" cy="48.815" rx=".832" ry="1.559"/><ellipse style="fill:#fda57d" cx="156.407" cy="48.815" rx=".832" ry="1.559"/><g style="opacity:.5"><linearGradient id="SVGID_5_" gradientUnits="userSpaceOnUse" x1="-1761.6971" y1="-2994.8416" x2="-1761.6971" y2="-3036.0496" gradientTransform="matrix(1 0 0 1 1812.3622 3107.4836)"><stop offset="0" style="stop-color:gray;stop-opacity:.25"/><stop offset=".54" style="stop-color:gray;stop-opacity:.12"/><stop offset="1" style="stop-color:gray;stop-opacity:.1"/></linearGradient><circle style="fill:url(#SVGID_5_)" cx="50.665" cy="92.038" r="20.604"/></g><circle style="fill:#f5f5f5" cx="50.704" cy="91.906" r="20.169"/><path style="fill:#6c63ff" d="M50.722 112.155c3.941.006 7.796-1.148 11.085-3.318-.743-4.061-3.572-4.294-3.572-4.294H42.634c0 0-2.667.219-3.502 3.956C42.525 110.886 46.574 112.163 50.722 112.155z"/><circle style="fill:#333" cx="50.509" cy="91.481" r="9.736"/><path style="opacity:.1;enable-background:new" d="M47.367 99.59h6.239v0 4.991c0 1.722-1.396 3.118-3.118 3.118v0 0c-1.722.0-3.118-1.396-3.118-3.118v0V99.59H47.367z"/><path style="fill:#fdb797" d="M47.963 99.359h5.047c.329.0.596.267.596.596v0 4.399c0 1.722-1.396 3.118-3.118 3.118v0 0c-1.722.001-3.119-1.394-3.12-3.117.0-.001.0-.001.0-.002v-4.4c0-.329.267-.596.596-.596v0L47.963 99.359z"
			/><path style="opacity:.1;enable-background:new" d="M47.38 101.946c2.011.751 4.224.758 6.239.018v-.772H47.38V101.946z"/><circle style="fill:#fdb797" cx="50.509" cy="93.423" r="8.941"/><path style="opacity:.1;enable-background:new" d="M44.142 85.289c0 0 3.767 7.645 14.401 3.2l-2.475-3.881-4.386-1.575L44.142 85.289z"/><path style="fill:#333" d="M44.142 85.177c0 0 3.767 7.645 14.401 3.2l-2.475-3.881-4.386-1.575L44.142 85.177z"/><path style="fill:#333" d="M44.108 84.658c.254-.786.693-1.5 1.28-2.082 1.758-1.739 4.642-2.105 6.121-4.089.318.555.125 1.262-.43 1.579-.034.019-.068.037-.104.053 1.422-.009 3.06-.133 3.86-1.3.404.941.23 2.03-.446 2.798 1.255.057 2.596.909 2.678 2.164.053.836-.469 1.627-1.157 2.107s-1.518.699-2.336.88C51.188 87.298 42.551 89.504 44.108 84.658z"/><ellipse style="fill:#fdb797" cx="41.564" cy="93.414" rx=".832" ry="1.559"/><ellipse style="fill:#fdb797" cx="59.448" cy="93.414" rx=".832" ry="1.559"/><g style="opacity:.5"><linearGradient id="SVGID_6_" gradientUnits="userSpaceOnUse" x1="-1663.9722" y1="-2992.5576" x2="-1663.9722" y2="-3033.7656" gradientTransform="matrix(1 0 0 1 1812.3622 3107.4836)"><stop offset="0" style="stop-color:gray;stop-opacity:.25"/><stop offset=".54" style="stop-color:gray;stop-opacity:.12"/><stop offset="1" style="stop-color:gray;stop-opacity:.1"/></linearGradient><circle style="fill:url(#SVGID_6_)" cx="148.39" cy="94.322" r="20.604"/></g><circle style="fill:#f5f5f5" cx="148.39" cy="94.21" r="20.169"/><path style="fill:#6c63ff" d="M148.447 114.439c3.941.006 7.797-1.147 11.087-3.318-.743-4.061-3.572-4.294-3.572-4.294h-15.596c0 0-2.667.219-3.502 3.956C140.255 113.169 144.301 114.446 148.447 114.439z"/><path style="opacity:.1;enable-background:new" d="M145.092 101.875h6.239v0 4.991c0 1.722-1.396 3.118-3.118 3.118v0c-1.722.001-3.119-1.394-3.12-3.117.0-.001.0-.001.0-.002v-4.99H145.092z"/><path style="fill:#fdb797" d="M145.687 101.644h5.048c.329.0.596.267.596.596v4.395c0 1.722-1.396 3.118-3.118 3.118v0c-1.722.001-3.119-1.394-3.12-3.117.0-.001.0-.001.0-.002v-4.395C145.092 101.91 145.359 101.644 145.687 101.644v0z"/><path style="opacity:.1;enable-background:new" d="M145.104 104.231c2.011.751 4.224.758 6.239.018v-.766h-6.239V104.231z"/><circle style="fill:#fdb797" cx="148.233" cy="95.707" r="8.941"/><ellipse style="fill:#fdb797" cx="139.477" cy="95.325" rx=".832" ry="1.559"/><ellipse style="fill:#fdb797" cx="156.943" cy="95.325" rx=".832" ry="1.559"/><path style="fill:none;stroke:#333;stroke-width:2;stroke-miterlimit:10" d="M143.559 95.75h2.278c.427.0.773.346.773.773v.366c0 .427-.346.773-.773.773h-2.278c-.427.0-.773-.346-.773-.773v-.366C142.786 96.096 143.132 95.75 143.559 95.75z"/><path style="fill:none;stroke:#333;stroke-width:2;stroke-miterlimit:10" d="M152.909 97.661h-2.278c-.427.0-.773-.346-.773-.773v-.366c0-.427.346-.773.773-.773h2.278c.427.0.773.346.773.773v.366C153.683 97.315 153.337 97.661 152.909 97.661z"/><path style="fill:none;stroke:#333;stroke-width:2;stroke-miterlimit:10" d="M146.464 95.935c0 0 1.213-.658 3.467.0"/><path style="fill:#858585" d="M154.415 89.227l2.194 5.097C156.609 94.324 159.292 90.942 154.415 89.227z"/><path style="fill:none;stroke:#333;stroke-width:2;stroke-linecap:round;stroke-linejoin:round" d="M153.683 96.706 156.958 93.782z"/><path style="fill:#858585" d="M142.055 89.227l-2.194 5.097C139.861 94.324 137.178 90.942 142.055 89.227z"/><path style="fill:none;stroke:#333;stroke-width:2;stroke-linecap:round;stroke-linejoin:round" d="M142.786 96.706 139.467 93.782z"/><g style="opacity:.5"><linearGradient id="SVGID_7_" gradientUnits="userSpaceOnUse" x1="-1663.9722" y1="-2946.1587" x2="-1663.9722" y2="-2987.3667" gradientTransform="matrix(1 0 0 1 1812.3622 3107.4836)"><stop offset="0" style="stop-color:gray;stop-opacity:.25"/><stop offset=".54" style="stop-color:gray;stop-opacity:.12"/><stop offset="1" style="stop-color:gray;stop-opacity:.1"/></linearGradient><circle style="fill:url(#SVGID_7_)" cx="148.39" cy="140.721" r="20.604"/></g><circle style="fill:#f5f5f5" cx="148.39" cy="140.609" r="20.169"/><path style="fill:#6c63ff" d="M148.447 160.838c3.941.006 7.797-1.147 11.087-3.318-.743-4.061-3.572-4.294-3.572-4.294h-15.596c0 0-2.667.219-3.502 3.956C140.255 159.567 144.301 160.844 148.447 160.838z"/><path style="opacity:.1;enable-background:new" d="M145.092 148.273h6.239v0 4.991c0 1.722-1.396 3.118-3.118 3.118v0c-1.722.001-3.119-1.394-3.12-3.117.0-.001.0-.001.0-.002v-4.99H145.092z"/><path style="fill:#be7c5e" d="M145.687 148.042h5.048c.329.0.596.267.596.596v4.395c0 1.722-1.396 3.118-3.118 3.118v0c-1.722.001-3.119-1.394-3.12-3.117.0-.001.0-.001.0-.002v-4.395C145.092 148.309 145.359 148.042 145.687 148.042v0z"/><path style="opacity:.1;enable-background:new" d="M145.104 150.629c2.011.751 4.224.758 6.239.018v-.766h-6.239V150.629z"/><circle style="fill:#be7c5e" cx="148.233" cy="142.106" r="8.941"/><ellipse style="fill:#fdb797" cx="139.477" cy="141.723" rx=".832" ry="1.559"/><ellipse style="fill:#fdb797" cx="156.943" cy="141.723" rx=".832" ry="1.559"/><path style="fill:none;stroke:#333;stroke-width:2;stroke-miterlimit:10" d="M143.559 142.148h2.278c.427.0.773.346.773.773v.366c0 .427-.346.773-.773.773h-2.278c-.427.0-.773-.346-.773-.773v-.366C142.786 142.494 143.132 142.148 143.559 142.148z"/><path style="fill:none;stroke:#333;stroke-width:2;stroke-miterlimit:10" d="M152.909 144.059h-2.278c-.427.0-.773-.346-.773-.773v-.366c0-.427.346-.773.773-.773h2.278c.427.0.773.346.773.773v.366C153.683 143.713 153.337 144.059 152.909 144.059z"/><path style="fill:none;stroke:#333;stroke-width:2;stroke-miterlimit:10" d="M146.464 142.333c0 0 1.213-.658 3.467.0"/><path style="fill:#858585" d="M154.415 135.625l2.194 5.097C156.609 140.722 159.292 137.341 154.415 135.625z"/><path style="fill:none;stroke:#333;stroke-width:2;stroke-linecap:round;stroke-linejoin:round" d="M153.683 143.105 156.958 140.18z"/><path style="fill:#858585" d="M142.055 135.625l-2.194 5.097C139.861 140.722 137.178 137.341 142.055 135.625z"/><path style="fill:none;stroke:#333;stroke-width:2;stroke-linecap:round;stroke-linejoin:round" d="M142.786 143.105 139.467 140.18z"/><g style="opacity:.5"><linearGradient id="SVGID_8_" gradientUnits="userSpaceOnUse" x1="-1761.5492" y1="-2948.5217" x2="-1761.5492" y2="-2989.7297" gradientTransform="matrix(1 0 0 1 1812.3622 3107.4836)"><stop offset="0" style="stop-color:gray;stop-opacity:.25"/><stop offset=".54" style="stop-color:gray;stop-opacity:.12"/><stop offset="1" style="stop-color:gray;stop-opacity:.1"/></linearGradient><circle style="fill:url(#SVGID_8_)" cx="50.813" cy="138.358" r="20.604"/></g><circle style="fill:#f5f5f5" cx="50.813" cy="138.246" r="20.169"/><path style="fill:#fdd835" d="M61.969 140.059c0 7.428-4.847 15.697-10.826 15.697s-10.82-8.269-10.82-15.697c0-7.428 4.847-11.201 10.826-11.201S61.969 132.633 61.969 140.059z"/><path style="fill:#6c63ff" d="M50.87 158.477c3.941.006 7.797-1.147 11.087-3.318-.743-4.061-3.572-4.294-3.572-4.294H42.791c0 0-2.667.219-3.502 3.956C42.679 157.206 46.724 158.483 50.87 158.477z"/><path style="opacity:.1;enable-background:new" d="M47.516 145.91h6.239v0 4.991c0 1.722-1.396 3.118-3.118 3.118v0c-1.722.0-3.118-1.396-3.118-3.118v-4.991H47.516z"/><path style="fill:#fdb797" d="M48.112 145.679h5.047c.329.0.596.267.596.596v4.395c0 1.722-1.396 3.118-3.118 3.118v0c-1.722.0-3.118-1.396-3.118-3.118v-4.395C47.518 145.946 47.784 145.68 48.112 145.679z"/><path style="opacity:.1;enable-background:new" d="M47.529 148.266c2.011.751 4.224.758 6.239.018v-.766h-6.239V148.266z"/><circle style="fill:#fdb797" cx="50.658" cy="139.743" r="8.941"/><ellipse style="fill:#fdb797" cx="41.902" cy="139.36" rx=".832" ry="1.559"/><ellipse style="fill:#fdb797" cx="59.368" cy="139.36" rx=".832" ry="1.559"/><path style="opacity:.1;enable-background:new" d="M42.736 134.893c0 0 5.055 6.918 16.647 4.555.0.0 1.294-1.575-1.856-6.411S45.603 128.988 42.736 134.893z"/><path style="fill:#fdd835" d="M42.736 134.781c0 0 5.055 6.918 16.647 4.555.0.0 1.294-1.575-1.856-6.411C54.376 128.088 45.603 128.876 42.736 134.781z"/><g style="opacity:.5"><linearGradient id="SVGID_9_" gradientUnits="userSpaceOnUse" x1="-1712.6022" y1="-2946.1587" x2="-1712.6022" y2="-2987.3667" gradientTransform="matrix(1 0 0 1 1812.3622 3107.4836)"><stop offset="0" style="stop-color:gray;stop-opacity:.25"/><stop offset=".54" style="stop-color:gray;stop-opacity:.12"/><stop offset="1" style="stop-color:gray;stop-opacity:.1"/></linearGradient><circle style="fill:url(#SVGID_9_)" cx="99.76" cy="140.721" r="20.604"/></g><circle style="fill:#f5f5f5" cx="99.801" cy="140.589" r="20.169"/><path style="fill:#333" d="M110.897 142.577c0 6.71-4.82 10.011-11.08 10.011s-11.585-3.302-11.585-10.011c0-6.71 5.074-12.148 11.332-12.148C105.823 130.428 110.897 135.861 110.897 142.577z"/><path style="fill:#6c63ff" d="M99.817 160.838c3.942.007 7.798-1.147 11.089-3.318-.743-4.061-3.572-4.294-3.572-4.294H91.738c0 0-2.667.219-3.502 3.956C91.626 159.567 95.672 160.844 99.817 160.838z"/><path style="opacity:.1;enable-background:new" d="M96.464 148.268h6.239v0 4.991c.003 1.722-1.391 3.121-3.113 3.124-.004.0-.008.0-.012.0v0c-1.722.0-3.118-1.396-3.118-3.118v-4.996L96.464 148.268v0z"/><path style="fill:#fda57d" d="M97.058 148.042h5.047c.329.0.596.267.596.596v4.395c0 1.722-1.396 3.118-3.118 3.118-.002.0-.004.0-.005.0v0c-1.722.0-3.118-1.396-3.118-3.118v-4.397c0-.329.267-.596.596-.596L97.058 148.042z"/><path style="opacity:.1;enable-background:new" d="M96.477 150.629c2.011.751 4.224.758 6.239.018v-.766h-6.239V150.629z"/><circle style="fill:#fda57d" cx="99.606" cy="142.104" r="8.941"/><path style="opacity:.1;enable-background:new" d="M89.301 142.689c0 0 5.568-.676 9.779-6.073.0.0 5.568 6.13 9.448 5.455.0.0 2.249-2.363.0-4.724-2.249-2.361-3.993-5.343-6.973-4.95s-6.637.562-8.21 1.968C91.77 135.771 89.301 142.689 89.301 142.689z"/><path style="fill:#333" d="M89.301 142.577c0 0 5.568-.676 9.779-6.073.0.0 5.568 6.13 9.448 5.455.0.0 2.249-2.363.0-4.724-2.249-2.361-3.993-5.343-6.973-4.95s-6.63.555-8.203 1.977C91.778 135.684 89.301 142.577 89.301 142.577z"/><ellipse style="fill:#fda57d" cx="90.661" cy="142.097" rx=".832" ry="1.559"/><ellipse style="fill:#fda57d" cx="108.545" cy="142.097" rx=".832" ry="1.559"/></g></g></svg>