<svg id="Capa_1" xmlns="http://www.w3.org/2000/svg" xmlns:xlink="http://www.w3.org/1999/xlink" viewBox="0 0 139.2 105.1" enable-background="new 0 0 139.2 105.1"><linearGradient id="SVGID_2_" gradientUnits="userSpaceOnUse" x1="13.687" y1="-45.5004" x2="13.687" y2="722.4996"><stop offset="0" style="stop-color:#fff"/><stop offset="1" style="stop-color:#fff"/></linearGradient><path display="none" fill="url(#SVGID_2_)" d="M-669.3-45.5h1366v768h-1366z"/><g><path fill="#03c" d="M139.2 33.2c0 29-31.1 71.9-69.4 71.9S.5 81.5.5 52.5 31.6.0 69.9.0 139.2 4.1 139.2 33.2z"/><g transform="translate(-567 -923.208)"><g transform="translate(743.148 903.119)"><ellipse fill="#3f3d56" cx="-64.3" cy="63.1" rx="12.6" ry="12.6"/><path fill="#3f3d56" stroke="#fff" stroke-width="1.3" d="M-59.9 48c-1.1-.1-2.3-.1-3.4.0-5.2.7-9.5 4.3-11.1 9.3-.3 1.1-.5 2.3-.6 3.4.0.2.0.3.0.5.0 7.4 6 13.4 13.4 13.4.3.0.6.0.9.0.7.0 1.3-.1 2-.3 7.2-1.6 11.8-8.7 10.3-15.9C-49.7 53-54.2 48.8-59.9 48v0zM-57.4 73.7v0c-1.1.4-2.2.6-3.3.7-.3.0-.6.0-.9.0-7.2.0-13-5.8-13-13 0-.2.0-.3.0-.5.3-7.2 6.3-12.8 13.5-12.5 7.2.3 12.8 6.3 12.5 13.5C-48.8 67.2-52.3 71.9-57.4 73.7v0z"/><path fill="#fff" d="M-61.8 49.1h.4v2.7H-61.8z"/><path transform="matrix(0.7071 -0.7071 0.7071 0.7071 -58.2141 -33.2935)" fill="#fff" d="M-69.5 52.3h.4V55H-69.5z"/><path fill="#fff" d="M-73.8 61.1h2.7v.4H-73.8z"/><path transform="matrix(0.7071 -0.7071 0.7071 0.7071 -69.1227 -28.775)" fill="#fff" d="M-70.6 68.9h2.7v.4H-70.6z"/><path transform="matrix(0.7071 -0.7071 0.7071 0.7071 -53.6958 -22.385)" fill="#fff" d="M-55.2 53.4h2.7v.4H-55.2z"/><path fill="#fff" d="M-52 61.1h2.7v.4H-52z"/><path transform="matrix(0.7071 -0.7071 0.7071 0.7071 -64.6045 -17.8664)" fill="#fff" d="M-54.1 67.7h.4v2.7H-54.1z"/><path fill="#fff" d="M-61.8 70.9h.4v2.7H-61.8z"/><path fill="#fff" d="M-61 60.6c-.3-.3-.8-.3-1.1.0-.1.1-.2.2-.3.3-.2.5-.1 1 .4 1.3.5.2 1 .1 1.3-.4C-60.5 61.4-60.6 60.9-61 60.6zM-61.6 61.9c-.3.0-.6-.3-.6-.6.0-.1.0-.2.1-.3.2-.3.5-.3.8-.1.3.2.3.5.1.8C-61.2 61.8-61.4 61.9-61.6 61.9z"/><path fill="#fff" d="M-63.3 44.7h3.4v3.4H-63.3z"/><ellipse fill="#fff" cx="-61.6" cy="43.6" rx="4.6" ry="1.6"/><path fill="#fff" d="M-62.2 54.1h1.1v6.5H-62.2z"/></g><g transform="translate(567 670.26)"><path fill="#6c63ff" d="M129.6 350.3c-14-2.5-29.4-2.1-45.4.0 7.3-6.2 13.7-12.4 6.3-18.6 14.3 3 16.3 2.7 32.2.0C119 338 125.9 344.1 129.6 350.3z"/><path fill="#6c63ff" d="M129.6 350.3c-14-2.5-29.4-2.1-45.4.0 7.3-6.2 13.7-12.4 6.3-18.6 14.3 3 16.3 2.7 32.2.0C119 338 125.9 344.1 129.6 350.3z"/><path fill="#00a1e4" d="M126.2 347.7c-11.9-2-24.9-1.7-38.6.0 6.2-4.9 11.6-9.9 5.4-14.8 12.1 2.4 13.9 2.1 27.4.0C117.2 337.8 123.1 342.8 126.2 347.7z"/><circle fill="#2f2e41" cx="121.7" cy="333.4" r="6.3"/><path fill="#ffe3b4" d="M92.9 326l4.4.7 2.2 6.4-6.4 3.9-7.3-11H92.9z"/><circle fill="#ffe3b4" cx="105.3" cy="325.5" r="10.3"/><path fill="#2f2e41" d="M48.6 288.2c0 0-24.9 2.7-29.3 2.2-2.1-.2-4.3-.5-6.4-1 0 0-2.9 3.9-1.5 5.6.8 1 1.8 1.8 2.9 2.4.0.0 2.7-.7 4.6.0s21.7 3.9 25.2 1C47.7 295.5 48.6 288.2 48.6 288.2z"/><path fill="#2f2e41" d="M50.3 342.6c0 0-16.4-4.6-19.3-25.2v-2c0 0-3.2 5.7-4.4 6.8-1.3 1.3-6.1 13.4-5.9 14.7.2.6.2 1.2.0 1.7l-7.1-.7v-2.2c0 0 3.8-11.4 4-14 .2-2.7 9.4-21.4 9.4-21.4s3.4-7.1 9.3.0 6.4 12 6.4 12l7.6 14.7V342.6z"/><path fill="#2f2e41" d="M13.7 288.6 5.9 286c0 0-7.3-5.4-5.6.0 1.7 5.4 9.5 17.1 11.7 15.9s4.8-4.3 4.3-4.7C15.7 296.7 11.7 293.5 13.7 288.6z"/><path fill="#2f2e41" d="M14.6 334.4l-6.3 3.1c0 0-7.6 1.2-3.4 3.4 4.3 2.2 16 4.6 16.6 2.5s.4-5.5-.3-5.4C20.7 338 16.4 338.5 14.6 334.4z"/><path fill="#d0cde1" d="M47.2 326.5c0 0-3.2 13.7 2.2 16.6 5.4 2.9 43 3.4 45.9-2s1.5-5.4 1.5-5.4L89 327l6.4-.5c0-1.2-1-2.2-2.2-2.2-2.2-.2-9-2.7-14.9-1-5.9 1.7-9.3-3.4-9.3-3.4L47.2 326.5z"/><path fill="#3f3d56" d="M43 283.8l-4.2 22.7 28.6-3.4 5.1-20.5L43 283.8z"/><path fill="#fff" d="M43.9 284.6l-3.4 20.3 26-3.1 5-18.4L43.9 284.6z"/><path fill="#b3b3b3" d="M39.8 306.7l-1-.2-.5 1 7.8 21.7.7-.3.2-1.4L39.8 306.7z"/><path fill="#f9f9f9" d="M38.9 306.2l7.8 22.7 29.6-4.4-8.8-21.5L38.9 306.2z"/><path fill="#3f3d56" d="M42.8 305.5v1.2l21.7-2.4-.2-1.2L42.8 305.5z"/><path fill="#3f3d56" d="M43.3 307.9l3.4 9.5 22.2-2.7-3.9-9L43.3 307.9z"/><path fill="#ffe3b4" d="M71.1 321.4l-.7-2c0 0-5.6-9.8-8.6-7.8s6.1 11.5 6.1 11.5h2.9L71.1 321.4z"/><path fill="#ffe3b4" d="M52.5 322.8l-.7-2.9c0 0-2-9 1.5-8.6 3.4.5 4.4 9 4.4 9l-.2 2L52.5 322.8z"/><path fill="#d0cde1" d="M58.4 321.6c0 0-6.4-1-6.6.5-.2 1.5-1.5 23.5 4.6 24.2s36.4 3.9 33.2-3.7c-3.2-7.6-8.1-6.6-8.1-6.6l-20.8 2.2L58.4 321.6z"/><path fill="#d0cde1" d="M77.6 324.4l-6.5-4.5-4.3 3.3 5.4 5.9L77.6 324.4z"/><path opacity=".2" enable-background="new" d="M60.2 328.8l1 9.3 16.9-1-14.7-.2L60.2 328.8z"/><circle fill="#2f2e41" cx="110.4" cy="327.4" r="12.2"/><path fill="#00a1e4" d="M47.5 291.7l15.1-.5 1.5-5.6-15.6.5L47.5 291.7z"/><path fill="#e6e6e6" d="M43.6 294.9l23-.7.2-1-23 .8L43.6 294.9z"/><path fill="#e6e6e6" d="M43.1 297.3l23-.7.2-1-23 .8L43.1 297.3z"/><path fill="#e6e6e6" d="M42.9 299.3l23-.7.2-1-23 .8L42.9 299.3z"/></g></g></g></svg>