<svg xmlns="http://www.w3.org/2000/svg" xmlns:xlink="http://www.w3.org/1999/xlink" viewBox="0 0 120.88 116.12"><defs><style>.cls-1{fill:url(#linear-gradient);}.cls-2{fill:url(#linear-gradient-2);}.cls-3{fill:url(#linear-gradient-3);}.cls-4{fill:url(#linear-gradient-4);}.cls-5{fill:url(#linear-gradient-5);}.cls-6{fill:url(#linear-gradient-6);}</style><linearGradient id="linear-gradient" y1="67.3" x2="97.65" y2="67.3" gradientUnits="userSpaceOnUse"><stop offset="0" stop-color="#333131"/><stop offset="1" stop-color="#030303"/></linearGradient><linearGradient id="linear-gradient-2" x1="62.92" y1="39.1" x2="41.79" y2="81.37" gradientUnits="userSpaceOnUse"><stop offset="0" stop-color="#fcdb62"/><stop offset="0.56" stop-color="#fbd631"/><stop offset="1" stop-color="#fbd108"/></linearGradient><linearGradient id="linear-gradient-3" x1="18.37" y1="76.09" x2="77.13" y2="76.09" xlink:href="#linear-gradient"/><linearGradient id="linear-gradient-4" x1="78.96" y1="47.15" x2="120.88" y2="47.15" xlink:href="#linear-gradient"/><linearGradient id="linear-gradient-5" x1="85.09" y1="46.65" x2="112.3" y2="46.65" xlink:href="#linear-gradient-2"/><linearGradient id="linear-gradient-6" x1="53.57" y1="15.15" x2="101.04" y2="15.15" xlink:href="#linear-gradient"/></defs><title>simbolo_yc</title><g id="Capa_2" data-name="Capa 2"><g id="YES_CAMP" data-name="YES CAMP"><g id="YES_CAMP-2" data-name="YES CAMP"><circle class="cls-1" cx="48.82" cy="67.3" r="48.81"/><circle class="cls-2" cx="48.82" cy="67.3" r="43.39"/><path class="cls-3" d="M42.2,81.05,18.37,39.59H31L47.73,68.76,64.46,39.59H77.13L53.21,81.05v31.54h-11Z"/><circle class="cls-4" cx="99.92" cy="47.15" r="20.96"/><path class="cls-5" d="M108.3,39.14a10.18,10.18,0,0,0-3.47-2.81,9.63,9.63,0,0,0-4.12-.88,10.73,10.73,0,0,0-4.44.85,8.52,8.52,0,0,0-3.2,2.41,10.56,10.56,0,0,0-1.91,3.57,14.24,14.24,0,0,0-.66,4.34A12.42,12.42,0,0,0,91.23,51a11.38,11.38,0,0,0,2,3.58A9.07,9.07,0,0,0,96.46,57a9.77,9.77,0,0,0,4.18.88,8.92,8.92,0,0,0,7.68-3.71L112,57.71a13.23,13.23,0,0,1-5.16,3.65,16.86,16.86,0,0,1-6.25,1.14,17.09,17.09,0,0,1-6.38-1.18A13.72,13.72,0,0,1,89.34,58a15,15,0,0,1-3.14-5,18.38,18.38,0,0,1,0-12.69A14.46,14.46,0,0,1,94.38,32a16.29,16.29,0,0,1,6.35-1.17A17.5,17.5,0,0,1,107.07,32a13.9,13.9,0,0,1,5.23,3.62Z"/><path class="cls-6" d="M64.69,0s6.49,0,12.9,8.17S94.33,15.44,101,13.35c0,0-9.54,12.9-24.37,10.6-13.36-2.07-23.1,6.36-23.1,6.36Z"/></g></g></g></svg>