<svg xmlns="http://www.w3.org/2000/svg" xmlns:xlink="http://www.w3.org/1999/xlink" viewBox="0 0 499 160.65"><defs><style>.cls-1{fill:url(#linear-gradient);}.cls-2{fill:url(#linear-gradient-2);}.cls-3{fill:url(#linear-gradient-3);}.cls-4{fill:url(#linear-gradient-4);}.cls-5{fill:url(#linear-gradient-5);}.cls-6{fill:url(#linear-gradient-6);}.cls-7{fill:url(#linear-gradient-7);}.cls-8{fill:url(#linear-gradient-8);}.cls-9{fill:url(#linear-gradient-9);}.cls-10{fill:url(#linear-gradient-10);}.cls-11{fill:url(#linear-gradient-11);}.cls-12{fill:url(#linear-gradient-12);}.cls-13{fill:url(#linear-gradient-13);}.cls-14{fill:url(#linear-gradient-14);}.cls-15{fill:url(#linear-gradient-15);}.cls-16{fill:url(#linear-gradient-16);}.cls-17{fill:url(#linear-gradient-17);}.cls-18{fill:url(#linear-gradient-18);}.cls-19{fill:url(#linear-gradient-19);}.cls-20{fill:url(#linear-gradient-20);}.cls-21{fill:url(#linear-gradient-21);}.cls-22{fill:url(#linear-gradient-22);}.cls-23{fill:url(#linear-gradient-23);}.cls-24{fill:url(#linear-gradient-24);}.cls-25{fill:url(#linear-gradient-25);}.cls-26{fill:url(#linear-gradient-26);}.cls-27{fill:#1a1a1a;}</style><linearGradient id="linear-gradient" x1="16.25" y1="147.9" x2="31.63" y2="147.9" gradientUnits="userSpaceOnUse"><stop offset="0" stop-color="#333131"/><stop offset="1" stop-color="#030303"/></linearGradient><linearGradient id="linear-gradient-2" x1="45.62" y1="147.78" x2="66.78" y2="147.78" xlink:href="#linear-gradient"/><linearGradient id="linear-gradient-3" x1="81.02" y1="150.02" x2="96.33" y2="150.02" xlink:href="#linear-gradient"/><linearGradient id="linear-gradient-4" x1="109.46" y1="147.9" x2="124.86" y2="147.9" xlink:href="#linear-gradient"/><linearGradient id="linear-gradient-5" x1="136.33" y1="147.89" x2="157.76" y2="147.89" xlink:href="#linear-gradient"/><linearGradient id="linear-gradient-6" x1="169.36" y1="147.9" x2="184.73" y2="147.9" xlink:href="#linear-gradient"/><linearGradient id="linear-gradient-7" x1="198.69" y1="147.84" x2="208.49" y2="147.84" xlink:href="#linear-gradient"/><linearGradient id="linear-gradient-8" x1="221.92" y1="145.46" x2="223.44" y2="145.46" xlink:href="#linear-gradient"/><linearGradient id="linear-gradient-9" x1="238.48" y1="147.73" x2="250.81" y2="147.73" xlink:href="#linear-gradient"/><linearGradient id="linear-gradient-10" x1="264.69" y1="150.41" x2="280.01" y2="150.41" xlink:href="#linear-gradient"/><linearGradient id="linear-gradient-11" x1="312.55" y1="145.79" x2="327.85" y2="145.79" xlink:href="#linear-gradient"/><linearGradient id="linear-gradient-12" x1="341.7" y1="147.94" x2="354.11" y2="147.94" xlink:href="#linear-gradient"/><linearGradient id="linear-gradient-13" x1="367.55" y1="147.89" x2="377.71" y2="147.89" xlink:href="#linear-gradient"/><linearGradient id="linear-gradient-14" x1="391.32" y1="145.46" x2="392.84" y2="145.46" xlink:href="#linear-gradient"/><linearGradient id="linear-gradient-15" x1="407.87" y1="147.73" x2="420.2" y2="147.73" xlink:href="#linear-gradient"/><linearGradient id="linear-gradient-16" x1="433.59" y1="147.9" x2="448.96" y2="147.9" xlink:href="#linear-gradient"/><linearGradient id="linear-gradient-17" x1="461.97" y1="147.89" x2="472.13" y2="147.89" xlink:href="#linear-gradient"/><linearGradient id="linear-gradient-18" x1="485.08" y1="147.89" x2="495.24" y2="147.89" xlink:href="#linear-gradient"/><linearGradient id="linear-gradient-19" x1="0" y1="78.75" x2="44.44" y2="78.75" xlink:href="#linear-gradient"/><linearGradient id="linear-gradient-20" x1="60.61" y1="78.44" x2="91.72" y2="78.44" xlink:href="#linear-gradient"/><linearGradient id="linear-gradient-21" x1="109.72" y1="78.29" x2="145.98" y2="78.29" xlink:href="#linear-gradient"/><linearGradient id="linear-gradient-22" x1="199.72" y1="78.24" x2="255.34" y2="78.24" xlink:href="#linear-gradient"/><linearGradient id="linear-gradient-23" x1="273.75" y1="78.39" x2="329.17" y2="78.39" xlink:href="#linear-gradient"/><linearGradient id="linear-gradient-24" x1="345.54" y1="78.39" x2="421.3" y2="78.39" xlink:href="#linear-gradient"/><linearGradient id="linear-gradient-25" x1="438.08" y1="78.49" x2="472.25" y2="78.49" xlink:href="#linear-gradient"/><linearGradient id="linear-gradient-26" x1="3.12" y1="123.48" x2="499" y2="123.48" xlink:href="#linear-gradient"/></defs><title>titulo_yc</title><g id="Capa_2" data-name="Capa 2"><g id="YES_CAMP" data-name="YES CAMP"><g id="titulo"><path class="cls-1" d="M17.71,148.39c0,.14,0,.32.05.54a3.19,3.19,0,0,0,.1.63,7.34,7.34,0,0,0,.86,1.91A6.26,6.26,0,0,0,20.08,153a6,6,0,0,0,1.75,1,5.85,5.85,0,0,0,2.05.35,7.09,7.09,0,0,0,1.16-.09,5.84,5.84,0,0,0,1-.26,6.43,6.43,0,0,0,.88-.41,7.11,7.11,0,0,0,.79-.51l.25-.17.24-.19.21-.15a.41.41,0,0,1,.18-.07c.06,0,.13,0,.22.16a3.66,3.66,0,0,1,.28.43.52.52,0,0,1,.09.23.14.14,0,0,1-.05.1.17.17,0,0,1,.06.12,3.06,3.06,0,0,1-.31.33,3.34,3.34,0,0,1-.45.35,8.49,8.49,0,0,1-2.05,1.06,7.21,7.21,0,0,1-2.41.39,7.32,7.32,0,0,1-3-.61,7.67,7.67,0,0,1-2.45-1.65,8,8,0,0,1-1.67-2.44,7.37,7.37,0,0,1-.62-3,7.76,7.76,0,0,1,.28-2.06A7.61,7.61,0,0,1,20,141.25a8.22,8.22,0,0,1,1.85-.78A7.91,7.91,0,0,1,24,140.2a8.13,8.13,0,0,1,2,.24,7.45,7.45,0,0,1,1.8.72,7.19,7.19,0,0,1,1.54,1.15,6.71,6.71,0,0,1,1.2,1.54,7.62,7.62,0,0,1,.8,1.89,9,9,0,0,1,.33,2.2h0v0s0,0,0,0c0,.26-.12.39-.37.39Zm4.6-6.62a5.68,5.68,0,0,0-1.67.74,6.52,6.52,0,0,0-1.37,1.19,7.14,7.14,0,0,0-1,1.54,6.52,6.52,0,0,0-.56,1.77H30.26a5.77,5.77,0,0,0-.7-2.17A6.36,6.36,0,0,0,26.24,142a6.06,6.06,0,0,0-2.24-.42c-.27,0-.53,0-.78,0A6.41,6.41,0,0,0,22.31,141.77Z"/><path class="cls-2" d="M51.28,141.63a4.44,4.44,0,0,0-1.57.28,4.29,4.29,0,0,0-1.33.8,4.08,4.08,0,0,0-1,1.24,4,4,0,0,0-.43,1.59v6.06a.13.13,0,0,0,0,.06v3.27c0,.25-.12.38-.36.38H46a.34.34,0,0,1-.39-.38V140.85a.36.36,0,0,1,.14-.3.55.55,0,0,1,.32-.09h.48a.4.4,0,0,1,.43.43v1.78a9.74,9.74,0,0,1,.87-1,5.93,5.93,0,0,1,1-.76,4.58,4.58,0,0,1,1.16-.48,5.15,5.15,0,0,1,1.35-.16,5.23,5.23,0,0,1,3,.83,5.52,5.52,0,0,1,1.94,2.29,4.58,4.58,0,0,1,.84-1.37,4.69,4.69,0,0,1,1.16-1,5.11,5.11,0,0,1,1.4-.58,6,6,0,0,1,1.54-.19,5.28,5.28,0,0,1,4.87,3,6,6,0,0,1,.59,1.93,7.17,7.17,0,0,1,.07.81c0,.27,0,.54,0,.82v8a.54.54,0,0,1-.12.39.46.46,0,0,1-.34.14h-.44a.43.43,0,0,1-.36-.12.67.67,0,0,1-.08-.39V146a5.33,5.33,0,0,0-.34-1.61,4.34,4.34,0,0,0-.82-1.4A4.25,4.25,0,0,0,63,142a4,4,0,0,0-1.78-.37,4.11,4.11,0,0,0-1.5.26,4.27,4.27,0,0,0-1.25.71,4.5,4.5,0,0,0-.91,1.08A3.84,3.84,0,0,0,57,145a9.36,9.36,0,0,0-.14,1.7v8a.53.53,0,0,1-.13.38.48.48,0,0,1-.35.14H56a.47.47,0,0,1-.37-.12.66.66,0,0,1-.09-.39v-8.06c0-.25,0-.5,0-.76a6.82,6.82,0,0,0-.07-.79,4.17,4.17,0,0,0-.45-1.37,4,4,0,0,0-.88-1.13,4.17,4.17,0,0,0-1.25-.77A4,4,0,0,0,51.28,141.63Z"/><path class="cls-3" d="M81,140.88a.34.34,0,0,1,.38-.38h.65a.34.34,0,0,1,.38.38v2.83l.5-.78a3.57,3.57,0,0,1,.58-.68,7.39,7.39,0,0,1,5.13-2,7.59,7.59,0,0,1,2,.27,8.11,8.11,0,0,1,1.84.79A7.61,7.61,0,0,1,95.27,144a7.7,7.7,0,0,1,.79,5.92,8.11,8.11,0,0,1-.79,1.84,8.21,8.21,0,0,1-1.2,1.56,8,8,0,0,1-1.56,1.21,8.55,8.55,0,0,1-1.84.78,7.59,7.59,0,0,1-2,.27,6.93,6.93,0,0,1-1.45-.15,8,8,0,0,1-1.36-.43,7.87,7.87,0,0,1-1.25-.66,8.42,8.42,0,0,1-1.09-.86,5.46,5.46,0,0,1-.56-.66c-.15-.22-.33-.48-.55-.77v7.54a.18.18,0,0,1-.06.14.2.2,0,0,1-.15.06h-.83a.28.28,0,0,1-.32-.31Zm13.86,7a6.36,6.36,0,0,0-.48-2.44,6.5,6.5,0,0,0-1.33-2,6.32,6.32,0,0,0-2-1.39,5.66,5.66,0,0,0-2.42-.52,6.18,6.18,0,0,0-2.46.5,6.75,6.75,0,0,0-2,1.36,6.59,6.59,0,0,0-1.38,2,6.32,6.32,0,0,0-.5,2.48,6.25,6.25,0,0,0,.49,2.46,6.49,6.49,0,0,0,3.36,3.45,6.09,6.09,0,0,0,4.9,0,6.53,6.53,0,0,0,2-1.39,6.72,6.72,0,0,0,1.35-2A6.22,6.22,0,0,0,94.88,147.9Z"/><path class="cls-4" d="M109.46,147.9a7.72,7.72,0,0,1,.27-2,7.81,7.81,0,0,1,3.55-4.61,8.15,8.15,0,0,1,1.84-.78,7.59,7.59,0,0,1,2-.27,7.72,7.72,0,0,1,2,.27,8.27,8.27,0,0,1,1.83.78,8,8,0,0,1,1.57,1.21A7.59,7.59,0,0,1,123.8,144a7.49,7.49,0,0,1,.78,1.84,7.61,7.61,0,0,1,0,4.09,7.66,7.66,0,0,1-.78,1.84,7.87,7.87,0,0,1-1.21,1.56,8,8,0,0,1-1.57,1.21,8.27,8.27,0,0,1-1.83.78,7.72,7.72,0,0,1-2,.27,7.59,7.59,0,0,1-2-.27,8.15,8.15,0,0,1-1.84-.78,8,8,0,0,1-1.56-1.21,8.26,8.26,0,0,1-1.21-1.56,8.08,8.08,0,0,1-.78-1.84A7.74,7.74,0,0,1,109.46,147.9Zm1.4,0a6.16,6.16,0,0,0,.23,1.66,6.26,6.26,0,0,0,.63,1.51,6.39,6.39,0,0,0,2.23,2.31,6.71,6.71,0,0,0,1.5.66,6,6,0,0,0,1.66.23,6.13,6.13,0,0,0,2.45-.49,6.48,6.48,0,0,0,3.4-3.38,6.39,6.39,0,0,0,0-4.93,6.45,6.45,0,0,0-3.34-3.45,5.75,5.75,0,0,0-2.44-.52,6,6,0,0,0-2.46.51,6.29,6.29,0,0,0-2,1.39,6.6,6.6,0,0,0-1.35,2A6,6,0,0,0,110.86,147.9Z"/><path class="cls-5" d="M147.42,141.76l.51-1.12a.41.41,0,0,1,.27-.16l.38,0a1.65,1.65,0,0,1,.53,0,.26.26,0,0,1,.15.27.57.57,0,0,1,0,.12.41.41,0,0,1,0,.1h0c-.24.58-.48,1.16-.73,1.74l-.72,1.75q.85,2.13,1.76,4.33l1.77,4.32c.23-.53.47-1.12.74-1.78s.55-1.34.84-2.07.6-1.46.9-2.22.61-1.51.91-2.24l.87-2.15c.28-.68.53-1.32.77-1.9a.36.36,0,0,1,.17-.15,1.07,1.07,0,0,1,.27-.09,1.64,1.64,0,0,1,.32-.05h.31a.37.37,0,0,1,.27.09.31.31,0,0,1,.09.22.74.74,0,0,1,0,.12.22.22,0,0,1,0,.09l-5.81,14.1a.38.38,0,0,1-.15.16.52.52,0,0,1-.29.07h-.39a.4.4,0,0,1-.27-.09.25.25,0,0,1-.11-.21c-.62-1.46-1.22-2.93-1.82-4.38s-1.21-2.91-1.82-4.38l-.82,2c-.28.69-.57,1.38-.85,2.06l-.85,2.08-.83,2-.29.69a.45.45,0,0,1-.44.23h-.39a.49.49,0,0,1-.28-.09.26.26,0,0,1-.12-.21l-5.83-14a.84.84,0,0,1,0-.21.25.25,0,0,1,.2-.27,2.55,2.55,0,0,1,.52,0,1.82,1.82,0,0,1,.42,0,.34.34,0,0,1,.26.21l.78,1.9.87,2.14.92,2.25.91,2.24.86,2.08c.27.67.52,1.27.74,1.8.5-1.21,1.1-2.68,1.79-4.39s1.47-3.68,2.36-5.87h0Z"/><path class="cls-6" d="M170.81,148.39a3.39,3.39,0,0,1,.06.54,2.59,2.59,0,0,0,.1.63,6.74,6.74,0,0,0,.86,1.91,6.22,6.22,0,0,0,1.35,1.49,6,6,0,0,0,1.76,1,5.76,5.76,0,0,0,2,.35,7.09,7.09,0,0,0,1.16-.09,5.61,5.61,0,0,0,1-.26,5.48,5.48,0,0,0,.88-.41,6.42,6.42,0,0,0,.8-.51l.24-.17.24-.19.22-.15a.34.34,0,0,1,.18-.07c.06,0,.13,0,.21.16a3.66,3.66,0,0,1,.28.43.46.46,0,0,1,.1.23.19.19,0,0,1,0,.1.17.17,0,0,1,.06.12c-.09.1-.2.22-.32.33a2.81,2.81,0,0,1-.45.35,8.31,8.31,0,0,1-2.05,1.06,7.15,7.15,0,0,1-2.4.39,7.37,7.37,0,0,1-3-.61A7.8,7.8,0,0,1,170,150.9a7.2,7.2,0,0,1-.62-3,7.76,7.76,0,0,1,.27-2.06,7.62,7.62,0,0,1,2-3.4,7.67,7.67,0,0,1,1.56-1.21,8.42,8.42,0,0,1,1.85-.78,8.21,8.21,0,0,1,4.06,0,7.45,7.45,0,0,1,1.8.72,7.2,7.2,0,0,1,2.75,2.69,8.46,8.46,0,0,1,.8,1.89,9,9,0,0,1,.32,2.2h0a0,0,0,0,0,0,0v0c0,.26-.12.39-.37.39Zm4.6-6.62a5.63,5.63,0,0,0-1.66.74,6.57,6.57,0,0,0-1.38,1.19,7.14,7.14,0,0,0-1,1.54,6.88,6.88,0,0,0-.56,1.77h12.55a5.94,5.94,0,0,0-.69-2.17,6.42,6.42,0,0,0-1.4-1.74,6.67,6.67,0,0,0-1.92-1.15,6.15,6.15,0,0,0-2.25-.42c-.27,0-.52,0-.78,0A6.41,6.41,0,0,0,175.41,141.77Z"/><path class="cls-7" d="M207.85,142.9a.18.18,0,0,1-.13.06.54.54,0,0,1-.19-.05,1.54,1.54,0,0,1-.29-.18,4.9,4.9,0,0,0-.58-.36c-.22-.12-.45-.23-.7-.34a6.81,6.81,0,0,0-.76-.26,3.21,3.21,0,0,0-.74-.1,4.59,4.59,0,0,0-1.7.32,4.21,4.21,0,0,0-1.4.9,4.29,4.29,0,0,0-.94,1.42,4.87,4.87,0,0,0-.35,1.87v8.76a.33.33,0,0,1-.37.37h-.62c-.26,0-.39-.13-.39-.37V140.85c0-.21.11-.31.33-.31h.62a.4.4,0,0,1,.43.43v1.92a5.28,5.28,0,0,1,.65-.91,4.9,4.9,0,0,1,.94-.8,4.77,4.77,0,0,1,1.2-.58,4.46,4.46,0,0,1,1.43-.23,6.72,6.72,0,0,1,1.13.09,5.3,5.3,0,0,1,1,.24,5.24,5.24,0,0,1,.9.42,7.42,7.42,0,0,1,.87.59,1.34,1.34,0,0,1,.21.2.37.37,0,0,1,.1.25c0,.07-.07.17-.2.32A6,6,0,0,1,207.85,142.9Z"/><path class="cls-8" d="M221.92,136.15a.9.9,0,0,1,.06-.36.3.3,0,0,1,.26-.17h.86a.32.32,0,0,1,.28.17,1,1,0,0,1,.06.36v.45a.6.6,0,0,1-.11.43.66.66,0,0,1-.43.1h-.42A.8.8,0,0,1,222,137a.32.32,0,0,1-.12-.29Zm.07,4.7a.32.32,0,0,1,.37-.37H223a.33.33,0,0,1,.38.37v14.08a.33.33,0,0,1-.37.38h-.61a.34.34,0,0,1-.39-.38Z"/><path class="cls-9" d="M238.48,140.92a.42.42,0,0,1,.12-.33.48.48,0,0,1,.32-.11h.48a.42.42,0,0,1,.32.12.48.48,0,0,1,.11.32v1.72a4.93,4.93,0,0,1,1.14-1.25,6,6,0,0,1,1.3-.77,6.09,6.09,0,0,1,1.32-.37,8.81,8.81,0,0,1,1.2-.1,6.14,6.14,0,0,1,2.46.49,5.57,5.57,0,0,1,1.9,1.35,6.27,6.27,0,0,1,1.23,2,6.92,6.92,0,0,1,.43,2.42v8.38a.49.49,0,0,1-.13.38.44.44,0,0,1-.33.14h-.44a.44.44,0,0,1-.36-.12.66.66,0,0,1-.09-.39v-8.42a5.55,5.55,0,0,0-.37-1.79,4.76,4.76,0,0,0-.92-1.55,4.49,4.49,0,0,0-3.45-1.52,4.68,4.68,0,0,0-1.77.34,4.95,4.95,0,0,0-2.66,2.38,4.49,4.49,0,0,0-.46,1.87v8.82c0,.25-.12.38-.35.38h-.61a.33.33,0,0,1-.38-.38v-3.25a.38.38,0,0,1,0-.13Z"/><path class="cls-10" d="M278.6,143.71c0-.11,0-.23,0-.36s0-.25,0-.37v-2.14a.4.4,0,0,1,.12-.31.48.48,0,0,1,.33-.12h.49a.42.42,0,0,1,.33.13.51.51,0,0,1,.11.31v12.26a.08.08,0,0,0,0,0,10.17,10.17,0,0,1-.33,2.46,7,7,0,0,1-.82,1.92,6,6,0,0,1-1.2,1.43,5.9,5.9,0,0,1-1.5,1,7,7,0,0,1-1.69.56,9.8,9.8,0,0,1-1.8.17,8.7,8.7,0,0,1-2.31-.28,7.45,7.45,0,0,1-1.9-.81.52.52,0,0,1-.18-.13.28.28,0,0,1-.07-.21c0-.07,0-.12,0-.16a.53.53,0,0,1,.06-.14l.15-.21c.07-.1.17-.23.29-.41a.15.15,0,0,1,.16-.08l.19.05a2.59,2.59,0,0,0,.51.28,7,7,0,0,0,.84.34,9.17,9.17,0,0,0,1.07.29,5.54,5.54,0,0,0,1.15.11,7.12,7.12,0,0,0,2.38-.39,5.27,5.27,0,0,0,3.18-3,6.73,6.73,0,0,0,.46-2.59V152a6.74,6.74,0,0,1-1.14,1.51,7.17,7.17,0,0,1-1.51,1.13,7.82,7.82,0,0,1-1.74.7,7,7,0,0,1-1.87.25,7.33,7.33,0,0,1-2-.28,7.42,7.42,0,0,1-1.83-.78,8,8,0,0,1-1.56-1.21,7.64,7.64,0,0,1-1.22-1.56,7.33,7.33,0,0,1-.78-1.84,7.66,7.66,0,0,1-.27-2,7.69,7.69,0,0,1,1.06-3.88,7.64,7.64,0,0,1,1.22-1.56,8,8,0,0,1,1.56-1.21,7.82,7.82,0,0,1,1.83-.78,7.59,7.59,0,0,1,2-.27,7.11,7.11,0,0,1,1.89.25,6.85,6.85,0,0,1,1.72.71,7.3,7.3,0,0,1,1.48,1.12A7.4,7.4,0,0,1,278.6,143.71Zm-12.52,4.18a6.3,6.3,0,0,0,.85,3.17,6.1,6.1,0,0,0,1,1.29,5.95,5.95,0,0,0,2.75,1.69,5.68,5.68,0,0,0,1.65.24,6.09,6.09,0,0,0,2.29-.43,6.47,6.47,0,0,0,3.33-3,5.86,5.86,0,0,0,.7-2.19v-1.54a6,6,0,0,0-.69-2.2,6.71,6.71,0,0,0-1.37-1.79,6.21,6.21,0,0,0-1.9-1.21,6,6,0,0,0-2.28-.44,6.32,6.32,0,0,0-3.18.87,6.55,6.55,0,0,0-1.28,1,6.91,6.91,0,0,0-1,1.29,6.61,6.61,0,0,0-.64,1.52A6.81,6.81,0,0,0,266.08,147.89Z"/><path class="cls-11" d="M312.55,136.29a.29.29,0,0,1,.32-.32h.83a.2.2,0,0,1,.15.06.22.22,0,0,1,.06.15v7.54l.55-.77a5.5,5.5,0,0,1,.55-.66,9.27,9.27,0,0,1,1.1-.86,7.47,7.47,0,0,1,1.25-.66,7.17,7.17,0,0,1,1.36-.43,6.9,6.9,0,0,1,1.44-.15,7.48,7.48,0,0,1,2,.27,8.15,8.15,0,0,1,1.84.78,7.67,7.67,0,0,1,1.56,1.21A7.59,7.59,0,0,1,326.8,144a7.49,7.49,0,0,1,.78,1.84,7.88,7.88,0,0,1,0,4.09,7.42,7.42,0,0,1-.78,1.83,7.27,7.27,0,0,1-1.21,1.55,7.84,7.84,0,0,1-3.4,2,7.48,7.48,0,0,1-2,.27,7.34,7.34,0,0,1-2.77-.53,7.5,7.5,0,0,1-2.35-1.51,3.91,3.91,0,0,1-.58-.68c-.18-.27-.35-.53-.5-.79l0,.87v2a.33.33,0,0,1-.38.38h-.6a.34.34,0,0,1-.38-.38Zm13.86,11.61a6,6,0,0,0-.5-2.46,6.42,6.42,0,0,0-3.34-3.43,6,6,0,0,0-2.46-.51,5.78,5.78,0,0,0-2.44.52,6.49,6.49,0,0,0-3.36,3.45,6.39,6.39,0,0,0,0,4.93,6.4,6.4,0,0,0,3.42,3.39,6.17,6.17,0,0,0,2.46.49,5.84,5.84,0,0,0,2.42-.51,6.44,6.44,0,0,0,2-1.39,6.68,6.68,0,0,0,1.33-2A6.3,6.3,0,0,0,326.41,147.9Z"/><path class="cls-12" d="M352.74,153.64l0-.73a6.19,6.19,0,0,1-.88,1.08,5.11,5.11,0,0,1-1.09.82,5.54,5.54,0,0,1-1.3.53,6.5,6.5,0,0,1-4-.32,5.86,5.86,0,0,1-2-1.33,6.21,6.21,0,0,1-1.29-2,6.43,6.43,0,0,1-.46-2.45v-8.37a.51.51,0,0,1,.13-.39.45.45,0,0,1,.35-.13h.45c.18,0,.3,0,.35.12a.64.64,0,0,1,.09.38v8.45a5.1,5.1,0,0,0,.38,1.81,5,5,0,0,0,1,1.55,4.82,4.82,0,0,0,1.53,1.08,4.9,4.9,0,0,0,2,.4,4.65,4.65,0,0,0,1.77-.34,5,5,0,0,0,1.5-1,4.82,4.82,0,0,0,1.06-1.48,4.94,4.94,0,0,0,.42-1.9v-8.72a.33.33,0,0,1,.37-.38h.61a.34.34,0,0,1,.39.38v14.07c0,.33-.14.5-.44.5h-.47c-.31,0-.46-.15-.46-.43Z"/><path class="cls-13" d="M367.6,152.21a.76.76,0,0,1,0-.11s0-.07,0-.1a.28.28,0,0,1,.08-.22,1.07,1.07,0,0,1,.21-.13l.46-.2.09,0h.09a.18.18,0,0,1,.16.1,1.17,1.17,0,0,1,.13.25,2.39,2.39,0,0,1,.11.32q.06.17.12.3a2.38,2.38,0,0,0,.65.83,3.6,3.6,0,0,0,.92.59,4.54,4.54,0,0,0,1,.34,4.68,4.68,0,0,0,.93.11,5,5,0,0,0,1.19-.16,4.34,4.34,0,0,0,1.24-.49,3.37,3.37,0,0,0,1-.89,2.32,2.32,0,0,0,.39-1.36,2.12,2.12,0,0,0-.35-1.23,3.06,3.06,0,0,0-.9-.89,5.15,5.15,0,0,0-1.25-.59,12.31,12.31,0,0,0-1.37-.39,11,11,0,0,1-1.68-.56,6.6,6.6,0,0,1-1.42-.85,4.17,4.17,0,0,1-1-1.15,2.9,2.9,0,0,1-.38-1.47,3.93,3.93,0,0,1,.34-1.67,3.64,3.64,0,0,1,.94-1.29,4.28,4.28,0,0,1,1.47-.82,6,6,0,0,1,1.9-.28,5.57,5.57,0,0,1,1.57.21,4.67,4.67,0,0,1,1.29.62,4,4,0,0,1,1,1,5.46,5.46,0,0,1,.7,1.26v0a.32.32,0,0,1,.07.18.28.28,0,0,1-.09.2,1.45,1.45,0,0,1-.23.19,2,2,0,0,1-.25.13.58.58,0,0,1-.19,0,.35.35,0,0,1-.2,0,.53.53,0,0,1-.13-.13,2.09,2.09,0,0,1-.1-.21,2.26,2.26,0,0,0-.14-.26,3.88,3.88,0,0,0-1.31-1.3,3.74,3.74,0,0,0-2-.51,4.84,4.84,0,0,0-1.21.16,3.18,3.18,0,0,0-1,.5,2.57,2.57,0,0,0-.72.85,2.64,2.64,0,0,0-.26,1.19,1.67,1.67,0,0,0,.35,1,3.39,3.39,0,0,0,.88.8,5.43,5.43,0,0,0,1.11.54,10.18,10.18,0,0,0,1.1.34l.11,0h0a9.6,9.6,0,0,1,1.94.64,6.32,6.32,0,0,1,1.51.92,4.1,4.1,0,0,1,1,1.25,3.62,3.62,0,0,1,.34,1.57,3.77,3.77,0,0,1-.42,1.8,4.11,4.11,0,0,1-1.15,1.34,5.52,5.52,0,0,1-1.66.84,6.82,6.82,0,0,1-2,.28,6.17,6.17,0,0,1-1.67-.22,5.11,5.11,0,0,1-1.44-.66,4.39,4.39,0,0,1-1.12-1.07A3.79,3.79,0,0,1,367.6,152.21Z"/><path class="cls-14" d="M391.32,136.15a.9.9,0,0,1,.06-.36.3.3,0,0,1,.26-.17h.86a.32.32,0,0,1,.28.17,1,1,0,0,1,.06.36v.45a.6.6,0,0,1-.11.43.66.66,0,0,1-.43.1h-.42a.8.8,0,0,1-.44-.09.32.32,0,0,1-.12-.29Zm.07,4.7a.32.32,0,0,1,.37-.37h.62a.33.33,0,0,1,.38.37v14.08a.33.33,0,0,1-.37.38h-.61a.34.34,0,0,1-.39-.38Z"/><path class="cls-15" d="M407.87,140.92a.39.39,0,0,1,.13-.33.45.45,0,0,1,.31-.11h.48a.41.41,0,0,1,.32.12.48.48,0,0,1,.11.32v1.72a5.13,5.13,0,0,1,1.14-1.25,6,6,0,0,1,1.3-.77,6.25,6.25,0,0,1,1.32-.37,9.08,9.08,0,0,1,1.2-.1,6.22,6.22,0,0,1,2.47.49,5.77,5.77,0,0,1,1.9,1.35,6.25,6.25,0,0,1,1.22,2,6.7,6.7,0,0,1,.43,2.42v8.38a.52.52,0,0,1-.12.38.48.48,0,0,1-.34.14h-.43a.47.47,0,0,1-.37-.12.66.66,0,0,1-.09-.39v-8.42a5.54,5.54,0,0,0-.36-1.79,5,5,0,0,0-.93-1.55,4.49,4.49,0,0,0-3.45-1.52,4.76,4.76,0,0,0-1.77.34,4.87,4.87,0,0,0-1.54.94,4.63,4.63,0,0,0-1.11,1.44,4.35,4.35,0,0,0-.47,1.87v8.82c0,.25-.11.38-.35.38h-.61a.33.33,0,0,1-.37-.38v-3.25a.31.31,0,0,1,0-.13Z"/><path class="cls-16" d="M435,148.39c0,.14,0,.32,0,.54a3.19,3.19,0,0,0,.1.63,7.34,7.34,0,0,0,.86,1.91,6.48,6.48,0,0,0,1.36,1.49,6,6,0,0,0,1.75,1,5.85,5.85,0,0,0,2,.35,7.09,7.09,0,0,0,1.16-.09,5.61,5.61,0,0,0,1-.26,6.43,6.43,0,0,0,.88-.41,8.33,8.33,0,0,0,.8-.51l.24-.17.24-.19.21-.15a.4.4,0,0,1,.19-.07c.06,0,.13,0,.21.16a3.66,3.66,0,0,1,.28.43.52.52,0,0,1,.09.23.14.14,0,0,1-.05.1.17.17,0,0,1,.06.12,3.06,3.06,0,0,1-.31.33,2.81,2.81,0,0,1-.45.35,8.31,8.31,0,0,1-2.05,1.06,7.19,7.19,0,0,1-2.4.39,7.37,7.37,0,0,1-3-.61,7.78,7.78,0,0,1-2.45-1.65,8,8,0,0,1-1.67-2.44,7.36,7.36,0,0,1-.61-3,7.76,7.76,0,0,1,.27-2.06,7.61,7.61,0,0,1,3.51-4.61,8.22,8.22,0,0,1,1.85-.78,7.93,7.93,0,0,1,2.09-.27,8.11,8.11,0,0,1,2,.24,7.45,7.45,0,0,1,1.8.72,7.19,7.19,0,0,1,1.54,1.15,6.71,6.71,0,0,1,1.2,1.54,7.62,7.62,0,0,1,.8,1.89,8.59,8.59,0,0,1,.33,2.2h0a0,0,0,0,0,0,0v0c0,.26-.12.39-.37.39Zm4.6-6.62a5.68,5.68,0,0,0-1.67.74,6.78,6.78,0,0,0-1.37,1.19,7.14,7.14,0,0,0-1,1.54A6.52,6.52,0,0,0,435,147h12.55a5.94,5.94,0,0,0-.69-2.17,6.43,6.43,0,0,0-3.33-2.89,6.06,6.06,0,0,0-2.24-.42c-.27,0-.53,0-.78,0A6.41,6.41,0,0,0,439.64,141.77Z"/><path class="cls-17" d="M462,152.21l0-.11a.38.38,0,0,1,0-.1.25.25,0,0,1,.08-.22.69.69,0,0,1,.21-.13l.46-.2.09,0h.08a.2.2,0,0,1,.17.1,1.91,1.91,0,0,1,.13.25,2.39,2.39,0,0,1,.11.32q.06.17.12.3a2.38,2.38,0,0,0,.65.83,3.55,3.55,0,0,0,.91.59,4.92,4.92,0,0,0,1,.34,4.86,4.86,0,0,0,.94.11,5,5,0,0,0,1.19-.16,4.46,4.46,0,0,0,1.24-.49,3.22,3.22,0,0,0,1-.89,2.26,2.26,0,0,0,.4-1.36,2.19,2.19,0,0,0-.35-1.23,3.18,3.18,0,0,0-.9-.89,5.34,5.34,0,0,0-1.25-.59,12.31,12.31,0,0,0-1.37-.39,10.68,10.68,0,0,1-1.68-.56,6.67,6.67,0,0,1-1.43-.85,4.34,4.34,0,0,1-1-1.15,3,3,0,0,1-.37-1.47,4.08,4.08,0,0,1,.33-1.67,3.8,3.8,0,0,1,1-1.29,4.19,4.19,0,0,1,1.47-.82,5.93,5.93,0,0,1,1.9-.28,5.62,5.62,0,0,1,1.57.21,4.81,4.81,0,0,1,1.29.62,4.18,4.18,0,0,1,1,1,5.46,5.46,0,0,1,.7,1.26l0,0a.32.32,0,0,1,.07.18.28.28,0,0,1-.09.2,1.37,1.37,0,0,1-.22.19,2,2,0,0,1-.25.13.58.58,0,0,1-.19,0,.39.39,0,0,1-.21,0,.5.5,0,0,1-.12-.13,2,2,0,0,1-.11-.21,2.1,2.1,0,0,0-.13-.26A4,4,0,0,0,469,142a3.76,3.76,0,0,0-2-.51,4.84,4.84,0,0,0-1.21.16,3.09,3.09,0,0,0-1,.5,2.57,2.57,0,0,0-.72.85,2.51,2.51,0,0,0-.26,1.19,1.61,1.61,0,0,0,.35,1,3.35,3.35,0,0,0,.87.8,5.51,5.51,0,0,0,1.12.54,9,9,0,0,0,1.1.34l.11,0h0a9.6,9.6,0,0,1,1.94.64,6.06,6.06,0,0,1,1.5.92,3.81,3.81,0,0,1,1,1.25,3.49,3.49,0,0,1,.35,1.57,3.66,3.66,0,0,1-.43,1.8,4.08,4.08,0,0,1-1.14,1.34,5.57,5.57,0,0,1-1.67.84,6.7,6.7,0,0,1-2,.28,6.12,6.12,0,0,1-1.67-.22,5.17,5.17,0,0,1-1.45-.66,4.74,4.74,0,0,1-1.12-1.07A4.11,4.11,0,0,1,462,152.21Z"/><path class="cls-18" d="M485.12,152.21l0-.11a.38.38,0,0,1,0-.1.25.25,0,0,1,.08-.22.84.84,0,0,1,.21-.13l.46-.2.09,0H486a.2.2,0,0,1,.17.1,1.17,1.17,0,0,1,.13.25,2.39,2.39,0,0,1,.11.32q.06.17.12.3a2.38,2.38,0,0,0,.65.83,3.55,3.55,0,0,0,.91.59,4.81,4.81,0,0,0,1,.34,4.68,4.68,0,0,0,.93.11,5,5,0,0,0,1.19-.16,4.46,4.46,0,0,0,1.24-.49,3.22,3.22,0,0,0,1-.89,2.26,2.26,0,0,0,.4-1.36,2.19,2.19,0,0,0-.35-1.23,3.06,3.06,0,0,0-.9-.89,5.34,5.34,0,0,0-1.25-.59,12.31,12.31,0,0,0-1.37-.39,10.68,10.68,0,0,1-1.68-.56,6.67,6.67,0,0,1-1.43-.85,4.34,4.34,0,0,1-1-1.15,3,3,0,0,1-.37-1.47,4.08,4.08,0,0,1,.33-1.67,3.8,3.8,0,0,1,.95-1.29,4.28,4.28,0,0,1,1.47-.82,5.93,5.93,0,0,1,1.9-.28,5.62,5.62,0,0,1,1.57.21A4.81,4.81,0,0,1,493,141a4.18,4.18,0,0,1,1,1,5.46,5.46,0,0,1,.7,1.26l0,0a.32.32,0,0,1,.07.18.28.28,0,0,1-.09.2,1.37,1.37,0,0,1-.22.19,2,2,0,0,1-.25.13.58.58,0,0,1-.19,0,.41.41,0,0,1-.21,0,.5.5,0,0,1-.12-.13,2,2,0,0,1-.11-.21,2.1,2.1,0,0,0-.13-.26,4,4,0,0,0-1.31-1.3,3.76,3.76,0,0,0-2-.51,4.84,4.84,0,0,0-1.21.16,3.18,3.18,0,0,0-1,.5,2.57,2.57,0,0,0-.72.85,2.51,2.51,0,0,0-.26,1.19,1.61,1.61,0,0,0,.35,1,3.24,3.24,0,0,0,.88.8,5.19,5.19,0,0,0,1.11.54,9,9,0,0,0,1.1.34l.11,0h0a9.6,9.6,0,0,1,1.94.64,6.32,6.32,0,0,1,1.51.92,4.1,4.1,0,0,1,1,1.25,3.62,3.62,0,0,1,.34,1.57,3.66,3.66,0,0,1-.43,1.8,4.08,4.08,0,0,1-1.14,1.34,5.64,5.64,0,0,1-1.66.84,6.82,6.82,0,0,1-2,.28,6.12,6.12,0,0,1-1.67-.22,5.17,5.17,0,0,1-1.45-.66,4.74,4.74,0,0,1-1.12-1.07A4.11,4.11,0,0,1,485.12,152.21Z"/><path class="cls-19" d="M27.66,86.07v21.05H17.18V86.58L0,50.37H11.49L22.27,73.05,32.94,50.37h11.5Zm0,0,16.78-35.7Z"/><path class="cls-20" d="M71,73.56H86.43V83.93H71V96.64H91.72v10.48H60.61V49.76H91.72V60.14H71Zm0-13.42v0Z"/><path class="cls-21" d="M135.15,63.8a7.58,7.58,0,0,0-3-2.75,8.72,8.72,0,0,0-4.68-.81A5.94,5.94,0,0,0,124.16,62a5.14,5.14,0,0,0-1.52,3.35,4.13,4.13,0,0,0,.41,2.54,6.9,6.9,0,0,0,1.83,2.35,12.87,12.87,0,0,0,2.23,1.21c1.12.41,2,.72,3.16,1a36.71,36.71,0,0,1,4.27,1.32,15.84,15.84,0,0,1,4.78,2.85,16.7,16.7,0,0,1,5.18,6.51,16.12,16.12,0,0,1,1.43,8,17.31,17.31,0,0,1-4.69,10.37,16.22,16.22,0,0,1-10.17,5.09,19.57,19.57,0,0,1-11.18-1.73,17.26,17.26,0,0,1-8.13-7.63,19,19,0,0,1-1.32-3,21.57,21.57,0,0,1-.72-3.36L120,89.42a8,8,0,0,0,.4,1.53,5.31,5.31,0,0,0,.51,1.32,7.57,7.57,0,0,0,3.46,3.26,9.19,9.19,0,0,0,5.38.81,7.14,7.14,0,0,0,4-2,6.5,6.5,0,0,0,1.83-4,6.9,6.9,0,0,0-.51-3,5.39,5.39,0,0,0-2.23-2.64,5.46,5.46,0,0,0-2.14-1.33c-1.11-.4-2-.71-3.15-1a27.37,27.37,0,0,1-4.27-1.32,18.54,18.54,0,0,1-4.88-2.85,17,17,0,0,1-4.78-6.1,15.59,15.59,0,0,1-1.42-7.63,16.64,16.64,0,0,1,4.46-9.76A16.23,16.23,0,0,1,126.2,50a18.53,18.53,0,0,1,10.47,1.62,17.39,17.39,0,0,1,7.63,7.23Zm0,0,9.15-5Z"/><path class="cls-22" d="M255.34,95.12a30.35,30.35,0,1,1-46.77-38.24A29.63,29.63,0,0,1,229.92,48a30.77,30.77,0,0,1,13.73,3.26,31.44,31.44,0,0,1,10.77,9.25L246,66.65a20.06,20.06,0,0,0-7-6,19,19,0,0,0-9.05-2.23,19.83,19.83,0,0,0,0,39.66,20.69,20.69,0,0,0,16.88-8.75Zm-8.54-5.8,8.54,5.8Z"/><path class="cls-23" d="M311.38,94.1H291.24l-6.1,13H273.75l22.48-47.59,4.67-9.87,4.78,9.77,23.49,47.69H317.78Zm-15.46-9.76h10.57L301.1,73.26Zm5.18-11.08-5.18,11.08Z"/><path class="cls-24" d="M345.54,107.12l16.17-45.66,4.17-11.8,5.38,11.19L383.37,86l12.2-25.12L401,49.66l4.17,11.8,16.17,45.66h-11L399.43,76.61l-16.06,30.51L367.3,76.61l-10.78,30.51Zm0,0h0Z"/><path class="cls-25" d="M448.45,49.87V50h4.88a18.25,18.25,0,0,1,13.32,5.49,19.11,19.11,0,0,1,5.6,13.32A19.12,19.12,0,0,1,453.33,87.7h-4.88v19.42H438.08V49.87Zm-10.37,0h0Zm10.37,10.47V77.22h4.88a8.32,8.32,0,0,0,8.44-8.44,8.57,8.57,0,0,0-2.43-6,8.22,8.22,0,0,0-6-2.44Z"/><polygon class="cls-26" points="499 125.14 3.12 125.14 9.04 121.82 499 121.82 499 125.14"/></g><path class="cls-27" d="M7.75,30V0h9.36c4,0,6.94.58,8.89,1.74s2.93,3.09,2.93,5.8a9.32,9.32,0,0,1-.09,1.29,6.86,6.86,0,0,1-.36,1.44,6.11,6.11,0,0,1-.76,1.46A5.92,5.92,0,0,1,26.41,13a6.38,6.38,0,0,1-2,1,7.31,7.31,0,0,1,4.26,2.59,7.51,7.51,0,0,1,1.48,4.72,7.57,7.57,0,0,1-3,6.47Q24.18,30,18.87,30ZM13.3,12.39h4.75q5.5,0,5.51-4.2A3.35,3.35,0,0,0,22,5a10.82,10.82,0,0,0-5-.88H13.3Zm0,13.6h4.81q6.39,0,6.39-5a4.08,4.08,0,0,0-1.59-3.62A8.76,8.76,0,0,0,18,16.26H13.3Z"/><path class="cls-27" d="M44.2,30.43a10,10,0,0,1-7.86-3.23,12.39,12.39,0,0,1-2.87-8.52c0-3.63,1-6.5,2.87-8.59S41,6.94,44.43,6.94a10,10,0,0,1,7.89,3.21,12.31,12.31,0,0,1,2.86,8.53,12.25,12.25,0,0,1-2.89,8.57Q49.41,30.43,44.2,30.43Zm.15-4.07a4.65,4.65,0,0,0,4.09-2,9.9,9.9,0,0,0,1.37-5.69A9.92,9.92,0,0,0,48.44,13a4.69,4.69,0,0,0-4.13-2,4.7,4.7,0,0,0-4.11,2,10,10,0,0,0-1.38,5.73,9.77,9.77,0,0,0,1.39,5.67A4.74,4.74,0,0,0,44.35,26.36Z"/><path class="cls-27" d="M69.23,30.43a10,10,0,0,1-7.87-3.23,12.39,12.39,0,0,1-2.86-8.52c0-3.63,1-6.5,2.86-8.59S66,6.94,69.45,6.94a10,10,0,0,1,7.9,3.21,12.36,12.36,0,0,1,2.86,8.53,12.29,12.29,0,0,1-2.89,8.57C75.39,29.37,72.7,30.43,69.23,30.43Zm.14-4.07a4.67,4.67,0,0,0,4.1-2,10,10,0,0,0,1.37-5.69A10,10,0,0,0,73.47,13a5.31,5.31,0,0,0-8.25,0,10,10,0,0,0-1.38,5.73,9.77,9.77,0,0,0,1.4,5.67A4.71,4.71,0,0,0,69.37,26.36Z"/><path class="cls-27" d="M93.58,30.31a11.59,11.59,0,0,1-3.82-.54,5,5,0,0,1-2.39-1.71,7.38,7.38,0,0,1-1.22-2.76,18.77,18.77,0,0,1-.35-3.92V10.75H82.11l.2-2.91,3.86-.34,1.72-6.11,3.27,0V7.5h5.59v3.25H91.16V21.48a6.78,6.78,0,0,0,.74,3.65,3.07,3.07,0,0,0,2.72,1.08,16,16,0,0,0,2.5-.2l.14,3.85-.5.09c-.3.06-.6.12-.88.16s-.64.1-1.07.14S94,30.31,93.58,30.31Z"/><path class="cls-27" d="M110.7,30.43q-5.16,0-8-3.07t-2.88-8.78q0-5.53,3-8.59a10.73,10.73,0,0,1,8-3,12.44,12.44,0,0,1,6.68,1.7l-1.27,3.83A11.31,11.31,0,0,0,111,11,5.24,5.24,0,0,0,106.69,13a8.92,8.92,0,0,0-1.56,5.68,9.12,9.12,0,0,0,1.54,5.73,5.26,5.26,0,0,0,4.38,2,10.4,10.4,0,0,0,5.67-1.74l.51,4.07A9.8,9.8,0,0,1,114.3,30,14,14,0,0,1,110.7,30.43Z"/><path class="cls-27" d="M127.43,30.43a7.29,7.29,0,0,1-5.07-1.73,6.33,6.33,0,0,1-1.93-5,6,6,0,0,1,2.29-5.19,14.1,14.1,0,0,1,6.92-2.14l1.37-.16,1.66-.16,1.46-.15V14.72a4,4,0,0,0-.95-3,3.87,3.87,0,0,0-2.86-.94,19.93,19.93,0,0,0-6.78,1.54s-.24-.66-.68-1.86-.66-1.82-.67-1.85a21.67,21.67,0,0,1,8.6-1.7q4.54,0,6.61,2t2.07,6.4V30h-4c0-.05-.17-.51-.45-1.37s-.43-1.32-.43-1.37a12.61,12.61,0,0,1-3.29,2.4A8.87,8.87,0,0,1,127.43,30.43Zm1.45-3.81a5.8,5.8,0,0,0,3.25-.89,5.22,5.22,0,0,0,2-2.16V19.23l-1.08.08c-.68.06-1,.08-1.1.08a11.32,11.32,0,0,0-4.77,1.23,3.3,3.3,0,0,0-1.51,3,2.86,2.86,0,0,0,.84,2.21A3.43,3.43,0,0,0,128.88,26.62Z"/><path class="cls-27" d="M144.88,30V7.5h4.34l.61,2.86c.28-.34.54-.64.79-.91a8.2,8.2,0,0,1,1-.9,7.15,7.15,0,0,1,1.41-.83,9.22,9.22,0,0,1,1.84-.55,11.63,11.63,0,0,1,2.35-.23A7.51,7.51,0,0,1,161.56,8a6.15,6.15,0,0,1,2.26,2.54A8.15,8.15,0,0,1,167,7.88a9.74,9.74,0,0,1,4.28-.94q3.87,0,5.69,2.19c1.2,1.46,1.81,3.63,1.81,6.5V30h-5.39V17.22a11.55,11.55,0,0,0-.72-4.76A2.82,2.82,0,0,0,169.84,11a4.65,4.65,0,0,0-4.5,2.82,9.66,9.66,0,0,0-.78,3V30h-5.37V17a9.68,9.68,0,0,0-.8-4.49A3,3,0,0,0,155.51,11a4.92,4.92,0,0,0-2.93.86,5.48,5.48,0,0,0-1.87,2.25,22.88,22.88,0,0,0-.47,5V30Z"/><path class="cls-27" d="M184,39.36V7.5h4.61l.57,3.15a7.54,7.54,0,0,1,2.94-2.75,8.58,8.58,0,0,1,4.09-1,8,8,0,0,1,4.86,1.54,9.54,9.54,0,0,1,3.19,4.19,15.71,15.71,0,0,1,1.08,6,13.56,13.56,0,0,1-2.53,8.51A8.18,8.18,0,0,1,196,30.43a8.58,8.58,0,0,1-3.86-.85,8.39,8.39,0,0,1-2.9-2.3c.11,2,.17,3.07.17,3.32v8.49Zm10.81-13a4.35,4.35,0,0,0,3.78-2A10.06,10.06,0,0,0,200,18.6a9.62,9.62,0,0,0-1.4-5.7,4.52,4.52,0,0,0-3.87-1.9q-5.33,0-5.38,7.25c0,2.78.46,4.83,1.38,6.13A4.71,4.71,0,0,0,194.82,26.34Z"/></g></g></svg>