<svg xmlns="http://www.w3.org/2000/svg" xmlns:xlink="http://www.w3.org/1999/xlink" viewBox="0 0 227 53"><defs><style>.cls-1{fill:url(#Black_grade);}.cls-2{fill:url(#linear-gradient);}.cls-3{fill:url(#linear-gradient-2);}.cls-4{fill:url(#linear-gradient-3);}.cls-5{fill:url(#linear-gradient-4);}.cls-6{fill:url(#linear-gradient-5);}.cls-7{fill:url(#linear-gradient-6);}.cls-8{fill:url(#linear-gradient-7);}.cls-9{fill:url(#linear-gradient-8);}.cls-10{fill:url(#linear-gradient-9);}</style><linearGradient id="Black_grade" y1="26.5" x2="227" y2="26.5" gradientUnits="userSpaceOnUse"><stop offset="0" stop-color="#4d4e4e"/><stop offset="1" stop-color="#221f1f"/></linearGradient><linearGradient id="linear-gradient" x1="32.38" y1="24.85" x2="48.2" y2="24.85" gradientUnits="userSpaceOnUse"><stop offset="0" stop-color="#6a9dd3"/><stop offset="1" stop-color="#0e7dc1"/></linearGradient><linearGradient id="linear-gradient-2" x1="50.08" y1="27.33" x2="64.71" y2="27.33" xlink:href="#linear-gradient"/><linearGradient id="linear-gradient-3" x1="67.67" y1="27.19" x2="81.42" y2="27.19" xlink:href="#linear-gradient"/><linearGradient id="linear-gradient-4" x1="84.26" y1="27.33" x2="98.89" y2="27.33" xlink:href="#linear-gradient"/><linearGradient id="linear-gradient-5" x1="101.13" y1="27.33" x2="113.03" y2="27.33" xlink:href="#linear-gradient"/><linearGradient id="linear-gradient-6" x1="114.94" y1="27.33" x2="128.69" y2="27.33" xlink:href="#linear-gradient"/><linearGradient id="linear-gradient-7" x1="139.09" y1="27.19" x2="161.91" y2="27.19" xlink:href="#linear-gradient"/><linearGradient id="linear-gradient-8" x1="164.76" y1="23.85" x2="177.6" y2="23.85" xlink:href="#linear-gradient"/><linearGradient id="linear-gradient-9" x1="180.72" y1="27.32" x2="191.98" y2="27.32" xlink:href="#linear-gradient"/></defs><title>boton_fi</title><g id="Capa_2" data-name="Capa 2"><g id="Full_Inclusion" data-name="Full Inclusion"><rect class="cls-1" width="227" height="53" rx="26.5"/><path class="cls-2" d="M42,35.25a9.12,9.12,0,0,1-7-2.79,10.87,10.87,0,0,1-2.6-7.7,10.39,10.39,0,0,1,2.71-7.49,9.39,9.39,0,0,1,7.11-2.83,10.52,10.52,0,0,1,6,1.65L47,18.92a9,9,0,0,0-4.75-1.45,5.36,5.36,0,0,0-4.41,2,8.31,8.31,0,0,0-1.62,5.39,8.39,8.39,0,0,0,1.56,5.42,5.45,5.45,0,0,0,4.47,1.92,11,11,0,0,0,5-1.27l.5,2.93A11.24,11.24,0,0,1,42,35.25Z"/><path class="cls-3" d="M57.31,35.25A6.74,6.74,0,0,1,52,33.07a8.35,8.35,0,0,1-1.93-5.75A8.28,8.28,0,0,1,52,21.53a7,7,0,0,1,5.46-2.12,6.77,6.77,0,0,1,5.32,2.16,8.34,8.34,0,0,1,1.92,5.75,8.31,8.31,0,0,1-1.94,5.78A7,7,0,0,1,57.31,35.25Zm.1-2.75a3.15,3.15,0,0,0,2.76-1.34,6.68,6.68,0,0,0,.93-3.84,6.69,6.69,0,0,0-.93-3.85,3.18,3.18,0,0,0-2.79-1.32,3.14,3.14,0,0,0-2.76,1.33,6.63,6.63,0,0,0-.94,3.86,6.65,6.65,0,0,0,.94,3.82A3.2,3.2,0,0,0,57.41,32.5Z"/><path class="cls-4" d="M67.67,35V19.79h2.91l.4,1.92a7.18,7.18,0,0,1,5.15-2.3,5,5,0,0,1,4,1.53,6.57,6.57,0,0,1,1.32,4.42V35H77.79V25.81a5.24,5.24,0,0,0-.6-2.75,2.26,2.26,0,0,0-2.08-.91,4,4,0,0,0-2.15.6,3.57,3.57,0,0,0-1.41,1.51,14.93,14.93,0,0,0-.26,3.31V35Z"/><path class="cls-5" d="M91.49,35.25a6.74,6.74,0,0,1-5.3-2.18,8.4,8.4,0,0,1-1.93-5.75,8.33,8.33,0,0,1,1.93-5.79,7,7,0,0,1,5.46-2.12A6.77,6.77,0,0,1,97,21.57a8.34,8.34,0,0,1,1.92,5.75A8.27,8.27,0,0,1,97,33.1,7,7,0,0,1,91.49,35.25Zm.1-2.75a3.13,3.13,0,0,0,2.76-1.34,6.68,6.68,0,0,0,.93-3.84,6.69,6.69,0,0,0-.93-3.85,3.57,3.57,0,0,0-5.55,0,6.63,6.63,0,0,0-.94,3.86,6.65,6.65,0,0,0,.94,3.82A3.2,3.2,0,0,0,91.59,32.5Z"/><path class="cls-6" d="M108.49,35.25a7.06,7.06,0,0,1-5.42-2.07,8.37,8.37,0,0,1-1.94-5.93,7.85,7.85,0,0,1,2-5.78,7.2,7.2,0,0,1,5.36-2.06,8.36,8.36,0,0,1,4.5,1.15l-.86,2.58a7.63,7.63,0,0,0-3.49-1,3.52,3.52,0,0,0-2.89,1.31,6,6,0,0,0-1.06,3.83,6.1,6.1,0,0,0,1,3.86,3.53,3.53,0,0,0,2.94,1.33,7,7,0,0,0,3.83-1.18l.34,2.75a6.61,6.61,0,0,1-2,.91A9.12,9.12,0,0,1,108.49,35.25Z"/><path class="cls-7" d="M122.67,35.25a7.55,7.55,0,0,1-5.7-2.11,8,8,0,0,1-2-5.82,8.32,8.32,0,0,1,1.91-5.75,6.72,6.72,0,0,1,5.24-2.16,6.15,6.15,0,0,1,4.86,2,7.58,7.58,0,0,1,1.74,5.21c0,.16,0,.41,0,.76s0,.61,0,.77H118.58a4.77,4.77,0,0,0,1.17,3.29,4,4,0,0,0,3,1.17,9.52,9.52,0,0,0,4.78-1.3l.51,2.57A10.11,10.11,0,0,1,122.67,35.25Zm-4-9.42h6.63a4.28,4.28,0,0,0-.85-2.84,2.9,2.9,0,0,0-2.33-1,3.19,3.19,0,0,0-2.35,1A4.38,4.38,0,0,0,118.65,25.83Z"/><path class="cls-8" d="M139.09,35V19.79H142l.41,1.93c.19-.23.37-.44.54-.62a6,6,0,0,1,.7-.6,4.83,4.83,0,0,1,1-.56,6,6,0,0,1,1.25-.37,7.17,7.17,0,0,1,1.58-.16,5.07,5.07,0,0,1,2.89.74,4,4,0,0,1,1.52,1.71A5.47,5.47,0,0,1,154,20.05a6.48,6.48,0,0,1,2.88-.64,4.7,4.7,0,0,1,3.83,1.48,6.71,6.71,0,0,1,1.22,4.38V35h-3.63V26.34a7.66,7.66,0,0,0-.49-3.21,1.89,1.89,0,0,0-1.87-1,3.14,3.14,0,0,0-3,1.9,6.91,6.91,0,0,0-.52,2V35h-3.62V26.18a6.69,6.69,0,0,0-.53-3,2,2,0,0,0-2-1,3.35,3.35,0,0,0-2,.58A3.64,3.64,0,0,0,143,24.26a15.31,15.31,0,0,0-.32,3.34V35Z"/><path class="cls-9" d="M169.48,35.25a4.93,4.93,0,0,1-3.42-1.17,4.28,4.28,0,0,1-1.3-3.36,4.06,4.06,0,0,1,1.54-3.5A9.43,9.43,0,0,1,171,25.78l.92-.11c.34,0,.71-.08,1.12-.11l1-.1v-.8a2.75,2.75,0,0,0-.63-2,2.66,2.66,0,0,0-1.94-.63,13.34,13.34,0,0,0-4.56,1s-.17-.45-.46-1.26-.45-1.22-.46-1.24a14.68,14.68,0,0,1,5.8-1.15,6.28,6.28,0,0,1,4.46,1.34,5.72,5.72,0,0,1,1.4,4.31V35h-2.68s-.11-.35-.31-.93-.29-.88-.29-.92a8.68,8.68,0,0,1-2.21,1.62A6,6,0,0,1,169.48,35.25Zm1-2.57a4,4,0,0,0,2.19-.6A3.55,3.55,0,0,0,174,30.62V27.7l-.73.05-.73.06a7.47,7.47,0,0,0-3.22.83,2.22,2.22,0,0,0-1,2,1.92,1.92,0,0,0,.56,1.48A2.3,2.3,0,0,0,170.46,32.68Zm-.35-14.95,2.36-5.29h4.13l-4.35,5.29Z"/><path class="cls-10" d="M186.09,35.23a10.87,10.87,0,0,1-5.37-1.14l.37-2.72a11.17,11.17,0,0,0,2.32.89,9.68,9.68,0,0,0,2.57.39,3.34,3.34,0,0,0,1.87-.45,1.5,1.5,0,0,0,.68-1.31,1.47,1.47,0,0,0-.63-1.25,12.07,12.07,0,0,0-2.39-1.13l-.79-.29a8.08,8.08,0,0,1-3-1.81,3.85,3.85,0,0,1-.93-2.72,3.69,3.69,0,0,1,1.5-3.17,6.89,6.89,0,0,1,4.17-1.11,11.4,11.4,0,0,1,5.1,1.09l-.9,2.5a9.79,9.79,0,0,0-4.13-1,3.38,3.38,0,0,0-1.7.36,1.22,1.22,0,0,0-.62,1.11,1.24,1.24,0,0,0,.6,1.1,13.35,13.35,0,0,0,2.32,1l.36.12.47.18A7.69,7.69,0,0,1,191,27.72a3.89,3.89,0,0,1,1,2.75A4.29,4.29,0,0,1,190.43,34,6.72,6.72,0,0,1,186.09,35.23Z"/></g></g></svg>