<svg xmlns="http://www.w3.org/2000/svg" xmlns:xlink="http://www.w3.org/1999/xlink" viewBox="0 0 1370 561"><defs><style>.cls-1{fill:url(#Degradado_sin_nombre_19);filter:url(#luminosity-invert);}.cls-2{fill:none;}.cls-3{fill:#fff;}.cls-4{fill:#e4e5e6;}.cls-5{isolation:isolate;}.cls-6{fill:url(#Azul_Grade);}.cls-7{mask:url(#mask);}.cls-8{opacity:0.48;mix-blend-mode:overlay;fill:url(#New_Pattern_Swatch_2);}.cls-9{opacity:0.43;}.cls-10{fill:#f9fbfc;}.cls-11{fill:#ecf3fa;}.cls-12{fill:#ed2249;}</style><linearGradient id="Degradado_sin_nombre_19" y1="279.6" x2="918.29" y2="279.6" gradientUnits="userSpaceOnUse"><stop offset="0"/><stop offset="1" stop-color="#f2f2f2" stop-opacity="0"/></linearGradient><linearGradient id="Azul_Grade" x1="0.17" y1="280.5" x2="1370" y2="280.5" gradientUnits="userSpaceOnUse"><stop offset="0" stop-color="#6a9dd3"/><stop offset="1" stop-color="#0e7dc1"/></linearGradient><filter id="luminosity-invert" filterUnits="userSpaceOnUse" color-interpolation-filters="sRGB"><feColorMatrix values="-1 0 0 0 1 0 -1 0 0 1 0 0 -1 0 1 0 0 0 1 0"/></filter><mask id="mask" x="0" y="-1.64" width="918.29" height="562.49" maskUnits="userSpaceOnUse"><rect class="cls-1" y="-1.64" width="918.29" height="562.49"/></mask><pattern id="New_Pattern_Swatch_2" data-name="New Pattern Swatch 2" width="157.53" height="157.53" patternTransform="translate(0 1417.77)" patternUnits="userSpaceOnUse" viewBox="0 0 157.53 157.53"><rect class="cls-2" width="157.53" height="157.53"/><path class="cls-3" d="M13.11,95.29c-.12.25-.25.49-.38.74q-.39.77-.81,1.53c-.55,1-1.14,2-1.75,3a62.85,62.85,0,0,1-4,5.63.45.45,0,0,1-.63,0L.2,101.27l-.2-.18v-1.2c.52.48,1,.94,1.55,1.4l.51.47a.31.31,0,0,1,.1-.05,21.75,21.75,0,0,1,3.09-.55c.53,0,1.07-.09,1.6-.11s1,0,1.54,0a.39.39,0,0,1,.29.14,59,59,0,0,0,3.68-6.34l-.09-.49a3.52,3.52,0,0,0-4.34,1.31.41.41,0,0,1-.71,0c-.49-.78-1.08-1.67-2.11-1.65A1.69,1.69,0,0,0,3.49,96a.35.35,0,0,1-.07.25c0,.37-.7.44-.76,0,0,0,0-.08,0-.12a4.52,4.52,0,0,0-2.65-1v-1A5.19,5.19,0,0,1,2.48,95q-.56-4.05-1.15-8.09Q.69,82.44,0,78V72.74q.54,3.41,1.07,6.82c.76,4.91,1.45,9.84,2.1,14.77a2.49,2.49,0,0,1,1.71-1,2.65,2.65,0,0,1,2.36,1.06c-.53-2.89-1-5.78-1.51-8.67Q4.32,77.49,3.1,69.23c-.4-2.75-.8-5.5-1.18-8.26-.35-2.6-.75-5.22-.95-7.85l-1,.17v-1c1.32-.25,2.64-.44,4-.59-.1-.39-.22-.77-.35-1.14a.5.5,0,0,1-.13,0c-1,.08-2,0-3,.08L0,50.7V47.24a5.72,5.72,0,0,1,.59,0,4.11,4.11,0,0,1,2.16.65,4.6,4.6,0,0,1,1.6,2.45c.16.49.3,1,.42,1.49a.52.52,0,0,1,.11.29.24.24,0,0,0,0,.08c.12.52.23,1,.35,1.57.27,1.21.54,2.43.8,3.65q.8,3.64,1.56,7.3c1,4.92,1.91,9.88,2.84,14.82.9,4.76,1.76,9.53,2.62,14.3a.37.37,0,0,1,.08.47l0,.1A1.21,1.21,0,0,1,13.11,95.29ZM2.76,48.92a2.47,2.47,0,0,0-.49-.42l-.18-.09a2.57,2.57,0,0,1,.29.35Zm.57.89,0-.06H3.15v0Zm8.76,43.61Q11,87.68,10,81.93C8.6,74.19,7.23,66.46,5.55,58.78,5.14,56.86,4.71,55,4.28,53c0-.13,0-.26-.08-.38-.83.1-1.66.21-2.49.34.55,2.94.88,5.93,1.29,8.89.77,5.49,1.59,11,2.42,16.45S7.16,89,8,94.37A4.48,4.48,0,0,1,12.09,93.42ZM3.5,103.07c-.15-.2-.3-.39-.44-.6a.32.32,0,0,1-.06-.15l-.29,0Zm1.06-.92-.74.07c.19.21.4.41.6.61,0-.06,0-.12,0-.17a.31.31,0,0,1,.18-.41A.31.31,0,0,1,4.56,102.15Zm1.37,2.91a.3.3,0,0,1-.13-.25.37.37,0,0,1-.23,0,.57.57,0,0,1-.08.13l.33.31Zm.1-3-.78,0a4.94,4.94,0,0,1,.64.88c0-.12,0-.24.05-.35A4.87,4.87,0,0,1,6,102Zm1.6-.1-.36,0a.88.88,0,0,1,.1.36Z"/><path class="cls-3" d="M93.53,157.53a.4.4,0,0,1,.12-.1c1.18-.61,2.39-1.16,3.6-1.72,1-.47,2.09-.92,3.14-1.36.13-1.08.25-2.16.38-3.24a.36.36,0,0,1,.36-.36c1.08,0,1.58,1.28,2.07,2.07.06.11.14.22.2.33,2.3-.89,4.62-1.73,6.94-2.56.26-.1.44.22.33.43-.64,1.29-1.31,2.57-2,3.82-.52.91-1.06,1.8-1.61,2.69h-.76c1.25-2,2.43-4,3.52-6.11l-3,1.11-3.06,1.17L105.2,156l1,1.51h-.81c-.15-.23-.29-.46-.43-.69l-1.8-2.88-2,.83c-.1.91-.21,1.83-.32,2.74H100l.27-2.42h0c-1.73.74-3.42,1.55-5.09,2.41Zm7.64-3.5,1.58-.63-.67-1.06a2.36,2.36,0,0,0-.64-.77Z"/><path class="cls-3" d="M125,138.52c1.73,6.37,3.61,12.71,5.59,19h.91c-.81-2.48-1.6-5-2.39-7.46-1.22-3.88-2.42-7.78-3.61-11.67l2.32-.57c1.67,5.35,3.45,10.67,5.2,16,.41,1.23.8,2.47,1.21,3.7H135l-3.72-11.07q-1.45-4.38-3-8.75,4-1,8.08-1.93c.16.42.32.84.49,1.26l-1.42.52c-.59.22-1.18.43-1.75.66-.2.08-.13.39.09.33.6-.17,1.19-.36,1.78-.55l1.49-.47c.43,1.09.85,2.19,1.27,3.28-1.1.45-2.2.88-3.29,1.35-.2.08-.06.41.14.35l3.35-1.19c.36,1,.73,1.91,1.09,2.86h-.06l-1.47.55c-.49.18-1,.42-1.44.63-.22.09-.07.47.16.39.49-.16,1-.3,1.46-.49l1.43-.56.1-.05c.43,1.15.86,2.3,1.28,3.45a20.49,20.49,0,0,1-3.18,1.07c-.3.07-.17.5.13.45a12.71,12.71,0,0,0,3.25-1l.87,2.39c.09.27.18.53.28.8l-.06,0a13.82,13.82,0,0,1-3.28,1.35c-.19,0-.11.33.09.3a11.84,11.84,0,0,0,3.43-1.14c.48,1.36,1,2.73,1.41,4.1a13.14,13.14,0,0,1-3.19,1.06h1.94a10.25,10.25,0,0,0,1.43-.54l.18.54h.79c-.11-.32-.21-.64-.32-.95a.25.25,0,0,0-.09-.27q-2.1-6.19-4.39-12.31c-1.1-2.93-2.21-5.86-3.41-8.76a.38.38,0,0,0-.45-.26c-3.89,1-7.78,2-11.68,2.86C124.42,137.94,124.59,138.59,125,138.52Z"/><path class="cls-3" d="M93.53,157.53a.4.4,0,0,1,.12-.1c1.18-.61,2.39-1.16,3.6-1.72,1-.47,2.09-.92,3.14-1.36.13-1.08.25-2.16.38-3.24a.36.36,0,0,1,.36-.36c1.08,0,1.58,1.28,2.07,2.07.06.11.14.22.2.33,2.3-.89,4.62-1.73,6.94-2.56.26-.1.44.22.33.43-.64,1.29-1.31,2.57-2,3.82-.52.91-1.06,1.8-1.61,2.69h-.76c1.25-2,2.43-4,3.52-6.11l-3,1.11-3.06,1.17L105.2,156l1,1.51h-.81c-.15-.23-.29-.46-.43-.69l-1.8-2.88-2,.83c-.1.91-.21,1.83-.32,2.74H100l.27-2.42h0c-1.73.74-3.42,1.55-5.09,2.41Zm7.64-3.5,1.58-.63-.67-1.06a2.36,2.36,0,0,0-.64-.77Z"/><path class="cls-3" d="M55.07,157.53c.14-.28.29-.56.43-.85.22-.44.43-1.16,1-1.05a11.33,11.33,0,0,1,1.58.54,28.6,28.6,0,0,1,3.37,1.36h1.75a22.86,22.86,0,0,0-4.37-2,14.66,14.66,0,0,0-2-.68,1.29,1.29,0,0,0-1.4.5.25.25,0,0,0-.32.14l-1,2.08Z"/><path class="cls-3" d="M36.62,157.53c.36-.82.72-1.65,1.07-2.48l1.21.35c-.2.71-.4,1.42-.59,2.13h.81c.2-.77.41-1.53.64-2.29a.41.41,0,0,0-.27-.49l-2.38-.7a.39.39,0,0,0-.21.76l.24.07c-.44.88-.86,1.77-1.29,2.65Z"/><path class="cls-3" d="M30.82,157.53c.19-.36.38-.72.56-1.08a.27.27,0,0,0,.22-.17c.33-.71.66-1.43,1-2.15.56-1.09,1.11-2.19,1.58-3.32.1-.21.21-.42.32-.63.75.27,1.53.49,2.3.73l2.66.81,5,1.5c-.18,1.43-.36,2.87-.53,4.31h.88c.19-1.54.38-3.09.58-4.63a.45.45,0,0,0-.33-.43l-5.3-1.66L37.1,150c-.9-.28-1.81-.59-2.73-.81a.46.46,0,0,0-.55.31c-.63,1.67-1.38,3.31-2.12,5L30,157.53Z"/><path class="cls-3" d="M28.42,52.17c-2.65-1.51-6.43-1.75-8.82.4-2.91,2.62-2.12,7.27-1.27,10.62.5,2,1.11,3.92,1.61,5.89.58,2.26,1.09,4.54,1.55,6.83.94,4.66,1.75,9.35,2.63,14,.42,2.23.82,4.49,1.35,6.7a6.23,6.23,0,0,0,1,2.44,3,3,0,0,0,2.4,1.14,15.05,15.05,0,0,0,3.26-.57c1.11-.27,2.21-.57,3.3-.91a49.74,49.74,0,0,0,6.24-2.43,32.65,32.65,0,0,0,5.62-3.16c1.51-1.11,2.84-2.63,2.8-4.62a10.7,10.7,0,0,0-.79-3.29c-.37-1.06-.76-2.11-1.18-3.15-.84-2.1-1.78-4.15-2.79-6.17a113,113,0,0,0-6.83-11.7q-1.87-2.82-3.79-5.59a26,26,0,0,0-3.91-4.76,13.1,13.1,0,0,0-2.41-1.7c-.43-.23-.81.42-.38.66a15.45,15.45,0,0,1,4.31,3.91c1.29,1.6,2.42,3.33,3.57,5,2.41,3.59,4.72,7.27,6.83,11.05a80.27,80.27,0,0,1,5.47,11.74c.68,1.86,1.68,4,.58,5.93-.92,1.59-2.68,2.57-4.24,3.44a47.1,47.1,0,0,1-12,4.73,26.4,26.4,0,0,1-3.16.64,2.26,2.26,0,0,1-2.3-.91,6.43,6.43,0,0,1-.85-2.32c-.23-1.08-.43-2.17-.64-3.25-.83-4.46-1.51-8.94-2.33-13.4s-1.73-8.83-3-13.15c-.5-1.73-1-3.46-1.38-5.24a11.74,11.74,0,0,1,0-5.37,4.82,4.82,0,0,1,2.79-3.27A7.36,7.36,0,0,1,26,52.09a8.12,8.12,0,0,1,2,.72A.37.37,0,0,0,28.42,52.17Z"/><path class="cls-3" d="M23.57,85c-2.95,2.75-3.89,7.26-3.58,11.13a31.42,31.42,0,0,0,4.1,12.44,39.56,39.56,0,0,0,4,5.93.45.45,0,0,0,.74-.43,24.07,24.07,0,0,1-.78-14.27.44.44,0,0,0-.85-.24A24.5,24.5,0,0,0,28,114.3l.74-.43a38.41,38.41,0,0,1-6.11-10.58c-1.47-3.86-2.41-8.16-1.45-12.27A13.7,13.7,0,0,1,24,85.41a.29.29,0,0,0-.41-.41Z"/><path class="cls-3" d="M45.88,77.75a25.24,25.24,0,0,1,4.49,2.35,20.73,20.73,0,0,1,3.81,3.37A24.81,24.81,0,0,1,59.33,93a34.59,34.59,0,0,1,1.21,6.37l.78-.21a23.71,23.71,0,0,0-8.61-7.55,23.33,23.33,0,0,0-3-1.26c-.55-.18-.79.69-.24.87A21.44,21.44,0,0,1,60.6,99.62c.21.32.81.23.78-.21-.64-7.54-3.61-15.2-9.94-19.73a15.2,15.2,0,0,0-5.29-2.56c-.36-.08-.65.47-.27.63Z"/><path class="cls-3" d="M30.12,99.6a3.23,3.23,0,0,0,.53,1.54c.27.56.54,1.12.8,1.69s.51,1.08.78,1.61a5.57,5.57,0,0,0,.79,1.33,3.18,3.18,0,0,0,2.8.82,18.46,18.46,0,0,0,3.29-.59,42.72,42.72,0,0,0,6.37-2.45,19.3,19.3,0,0,0,2.85-1.4,3,3,0,0,0,.94-1,3.39,3.39,0,0,0,.36-1.51,31.72,31.72,0,0,0-.67-8c-.12-.58-1-.34-.89.24a33.78,33.78,0,0,1,.68,6.64c0,.91.13,2-.63,2.66a9.63,9.63,0,0,1-2.44,1.28,43.74,43.74,0,0,1-5.91,2.29,25.69,25.69,0,0,1-3,.68,4.25,4.25,0,0,1-2.73-.09,2.8,2.8,0,0,1-.9-1.21l-.84-1.58c-.31-.56-.61-1.13-.91-1.69a3.54,3.54,0,0,0-1-1.43.18.18,0,0,0-.27.15Z"/><path class="cls-3" d="M35.92,106.1a14.05,14.05,0,0,0,.8,2.07,4.56,4.56,0,0,0,.84,1.64,2.18,2.18,0,0,0,1.83.31,16,16,0,0,0,2-.3A19.73,19.73,0,0,0,47,107.66a4.79,4.79,0,0,0,1.51-1.06c.46-.61.18-1.38,0-2-.22-.85-.43-1.7-.65-2.55a.44.44,0,0,0-.85.23l.48,1.88.24.94a2.12,2.12,0,0,1,.14.82c0,.24-.3.37-.49.49l-.75.44c-.5.28-1,.54-1.54.77a18,18,0,0,1-3.27,1.1c-.56.14-1.13.25-1.7.34-.28,0-.56.08-.84.11a3.28,3.28,0,0,1-.83.05c-.26-.05-.36-.27-.47-.49s-.3-.62-.46-.93a13.22,13.22,0,0,0-1-1.9.32.32,0,0,0-.59.24Z"/><path class="cls-3" d="M39.58,109.53a6.77,6.77,0,0,0-.18,3.57A7.54,7.54,0,0,0,41,116.33a20.75,20.75,0,0,0,2.9,2.38,5.72,5.72,0,0,1,2,2.59c.69,2,.5,4.12.77,6.18a7.61,7.61,0,0,0,.84,2.87,5.48,5.48,0,0,0,2.39,2.18,15,15,0,0,1,1.62.89,3.63,3.63,0,0,1,1.08,1.28A24.59,24.59,0,0,1,53.67,138a3.63,3.63,0,0,0,2.07,2.55,1.44,1.44,0,0,0,1.48-.31,2.66,2.66,0,0,0,.55-1.8c.14-1.53.31-3.06.44-4.6a6.3,6.3,0,0,0-.65-4A25,25,0,0,0,55,127a9.1,9.1,0,0,1-1.8-3.51,15.06,15.06,0,0,1-.24-4,5.62,5.62,0,0,0-1.09-3.68c-.41-.52-.89-1-1.31-1.5a10,10,0,0,1-1.09-1.65,11.09,11.09,0,0,1-1.22-3.75,10.94,10.94,0,0,1-.08-2c0-.54-.81-.54-.84,0a12,12,0,0,0,2.06,7.19,15.54,15.54,0,0,0,1.19,1.49,6.81,6.81,0,0,1,1.13,1.49,8.44,8.44,0,0,1,.39,3.9,9.91,9.91,0,0,0,2.55,6.93,12.31,12.31,0,0,1,2.36,2.79,7.75,7.75,0,0,1,.2,4L57,137a18.28,18.28,0,0,1-.22,2.09c0,.22-.12.5-.36.58a.85.85,0,0,1-.6-.12,2.34,2.34,0,0,1-1-1.18c-.47-1-.65-2.12-1-3.16a5.15,5.15,0,0,0-2-2.71A16.26,16.26,0,0,1,49,130.71a5,5,0,0,1-1.2-2.4c-.44-2-.27-4-.61-6a7.09,7.09,0,0,0-1-2.78,9.69,9.69,0,0,0-2.61-2.41A8.48,8.48,0,0,1,41,114.72a7.33,7.33,0,0,1-1-3.32,6.54,6.54,0,0,1,.12-1.71.31.31,0,0,0-.6-.16Z"/><path class="cls-3" d="M41.26,109.33a5.19,5.19,0,0,0,3,5A8.62,8.62,0,0,1,47.08,116a4.35,4.35,0,0,1,1.16,2.77.39.39,0,0,0,.78,0c.12-2-1.19-3.63-2.22-5.21-.92-1.41-1.85-3.48-.68-5,.25-.33-.32-.78-.58-.45-1.23,1.57-.68,3.64.23,5.23s2.61,3.31,2.47,5.43H49a5.2,5.2,0,0,0-.86-2.88,5.6,5.6,0,0,0-2.58-1.94,6.42,6.42,0,0,1-2.66-1.74,5.42,5.42,0,0,1-1.13-2.84.27.27,0,0,0-.53,0Z"/><path class="cls-3" d="M41.44,109.42c.37.78.75,1.57,1.07,2.38a.41.41,0,0,0,.38.29.4.4,0,0,0,.38-.29,3.73,3.73,0,0,0-.34-2c-.2-.46-.89-.12-.78.33a7.49,7.49,0,0,0,2,3.47.45.45,0,0,0,.7-.54,4.67,4.67,0,0,1-.4-3.86l-.81-.11a6.72,6.72,0,0,0,1.82,4.76c.38.41,1-.19.61-.61a4.77,4.77,0,0,1-.86-4.52.41.41,0,0,0-.74-.31,1.42,1.42,0,0,1-1.71.45c-.3-.13-.54.22-.49.49A3.69,3.69,0,0,0,44,111.85a.4.4,0,0,0,.4-.69,2.88,2.88,0,0,1-1.41-2l-.49.49a2.25,2.25,0,0,0,2.62-.8l-.74-.32a5.31,5.31,0,0,0,1,5.35c.2-.2.4-.41.61-.61a5.59,5.59,0,0,1-1.6-4.15c0-.49-.66-.52-.82-.11a5.3,5.3,0,0,0,.43,4.53l.7-.54A6.75,6.75,0,0,1,43,110l-.78.33a3.79,3.79,0,0,1,.3,1.41l.74-.2c-.49-.75-.93-1.54-1.37-2.32-.15-.28-.56,0-.42.25Z"/><path class="cls-3" d="M49.2,121.68c.16,2.13.39,4.35,1.64,6.16.63.92,1.46,1.68,2.08,2.6a10.26,10.26,0,0,1,1.32,3c.11.39.79.34.74-.1a7.55,7.55,0,0,0-1.11-3,25.16,25.16,0,0,0-2.13-2.6c-1.4-1.75-1.73-4-2.05-6.16,0-.28-.51-.21-.49.07Z"/><path class="cls-3" d="M29.62,63.87a2.3,2.3,0,0,0-2.41.27,4,4,0,0,0-1.49,2,4.56,4.56,0,0,0,.69,4.4,3.66,3.66,0,0,0,4.55.77,4,4,0,0,0,1.81-4.64A4.26,4.26,0,0,0,28,63.77c-.46.08-.35.87.11.82a3.56,3.56,0,0,1,3.55,1.79,3,3,0,0,1-.73,3.71,2.85,2.85,0,0,1-3.51,0A3.52,3.52,0,0,1,26.38,67c.21-1.5,1.43-3,3.06-2.71a.24.24,0,0,0,.18-.43Z"/><path class="cls-3" d="M25.54,92.24A32.85,32.85,0,0,0,30.09,91c1.49-.48,3-1,4.44-1.57a84.69,84.69,0,0,0,8.58-3.88c1.57-.82,3.16-1.67,4.65-2.64a.46.46,0,0,0-.47-.79c-1.36.78-2.7,1.59-4.09,2.34s-2.75,1.42-4.15,2.07A79.4,79.4,0,0,1,30.39,90q-1.25.41-2.49.78c-.85.26-1.72.48-2.56.78a.37.37,0,0,0,.2.72Z"/><path class="cls-3" d="M26.25,94.83c-.16.07-.33.15-.5.21a.37.37,0,0,0,0,.7,4,4,0,0,0,1.25,0c.41,0,.83-.1,1.25-.17A23.27,23.27,0,0,0,30.73,95a36.91,36.91,0,0,0,4.71-1.63c1.59-.66,3.14-1.39,4.68-2.14s2.94-1.43,4.37-2.21a23.44,23.44,0,0,0,4.58-3.12c.45-.4-.21-1.06-.66-.66a35.67,35.67,0,0,1-8.19,4.89,57,57,0,0,1-9.06,3.79c-.87.25-1.76.48-2.65.65-.46.09-.92.17-1.39.23a6.32,6.32,0,0,0-1.37.22l.36.6a6.08,6.08,0,0,1,.47-.39c.26-.21-.07-.53-.33-.42Z"/><path class="cls-3" d="M28.07,64.31a1.21,1.21,0,0,0-.24.67c0,.26-.07.52-.1.79-.06.52-.1,1-.12,1.58a19.25,19.25,0,0,0,.15,3.22.38.38,0,0,0,.37.38c.19,0,.41-.18.38-.38a20.87,20.87,0,0,1-.19-3.16c0-.51,0-1,.08-1.53,0-.27.06-.54.09-.81a1.22,1.22,0,0,0,0-.71.26.26,0,0,0-.4,0Z"/><path class="cls-3" d="M29.28,64.78c0,2,0,4,.06,6a.37.37,0,0,0,.74,0c0-2-.08-4-.14-6a.33.33,0,0,0-.66,0Z"/><path class="cls-3" d="M30.52,64.6a13.93,13.93,0,0,0,.08,1.58c0,.5.07,1,.09,1.51,0,1,0,2.07,0,3.1a.34.34,0,0,0,.68,0,30.3,30.3,0,0,0-.07-3.16c0-.53-.09-1-.15-1.58a7.58,7.58,0,0,0-.25-1.5.21.21,0,0,0-.42,0Z"/><path class="cls-3" d="M18.91,60.94C23,59.11,27,57.13,31,55c.47-.25.05-.94-.42-.71-4.05,1.9-8,3.93-12,6.09-.35.19,0,.69.32.53Z"/><path class="cls-3" d="M20.89,69.13a2.58,2.58,0,0,1,1.89,2,2.22,2.22,0,0,1-.2,1.34,2.72,2.72,0,0,1-.95,1.07.39.39,0,0,0,.39.67,2.83,2.83,0,0,0,1.24-1.34A3.2,3.2,0,0,0,23.54,71a3,3,0,0,0-2.48-2.47c-.39-.06-.57.51-.17.61Z"/><path class="cls-3" d="M36.39,61.33c-.59.16-1,.91-1.15,1.45a2.71,2.71,0,0,0,3.41,3.4.36.36,0,0,0-.19-.69A2.21,2.21,0,0,1,36,64.38,2.13,2.13,0,0,1,35.84,63a2.41,2.41,0,0,1,.29-.68c.15-.23.36-.4.5-.63a.21.21,0,0,0-.24-.31Z"/><path class="cls-3" d="M21.48,69.6c.23,1,.46,2.05.72,3.07l.68-.29-.71-1.33c-.11-.21-.22-.42-.34-.63s-.09-.22-.15-.34l-.19-.37c-.19-.37-.77-.11-.66.28l.71,2.6a.37.37,0,0,0,.71-.19l-.72-2.6-.66.27.18.35c.05.11.13.2.18.31l.33.68c.23.45.45.9.67,1.35a.38.38,0,0,0,.47.15.39.39,0,0,0,.22-.44c-.23-1-.5-2-.76-3a.35.35,0,0,0-.68.18Z"/><path class="cls-3" d="M35.84,62.67c.32,1.08.63,2.17,1,3.25l.64-.27-1-2.09-.48.49a2.81,2.81,0,0,1,1.47,1.52l.63-.27-1.23-2.2-.6.36,1.29,2c.25.39.89,0,.63-.37l-1.32-2a.35.35,0,0,0-.6.36l1.23,2.19c.19.33.78.11.63-.27a3.46,3.46,0,0,0-1.78-1.94.35.35,0,0,0-.48.48c.32.7.64,1.39,1,2.08.17.36.76.1.64-.27-.37-1.07-.77-2.14-1.17-3.2a.26.26,0,0,0-.49.14Z"/><path class="cls-3" d="M29.28,53.87a1.18,1.18,0,0,0-.71-.6.32.32,0,0,0-.4.3A2.37,2.37,0,0,0,28.63,55c.2.28.74.12.6-.26a4.34,4.34,0,0,0-1.54-2.09.34.34,0,0,0-.5.29,9.56,9.56,0,0,0,.67,3.34.37.37,0,0,0,.71-.2,6.92,6.92,0,0,0-2.37-3.83.4.4,0,0,0-.67.28,8.46,8.46,0,0,0,.73,3.25l.73-.42c-.68-1-1.34-1.9-2.06-2.82-.27-.33-.55-.82-1-.83s-.8.42-1.09.72a3,3,0,0,1-1,.79c-.47.16-1,.06-1.47.22a2.17,2.17,0,0,0-1.26,2c-.15,1.26-.12,2.55-.18,3.81a.43.43,0,0,0,.65.37c1.94-1,3.9-2,5.84-3.08l1.4-.76a8.9,8.9,0,0,1,1.33-.7c.21-.07.44-.05.66-.12a1.38,1.38,0,0,0,.68-.67c.22-.36-.23-.88-.61-.61a18.79,18.79,0,0,1-4,2.16c-1.41.58-2.85,1-4.28,1.56l.42.73c1.87-1.53,3.76-3,5.63-4.57.39-.33-.11-.92-.53-.69-2.23,1.21-4.43,2.46-6.66,3.67l.5.49a23.8,23.8,0,0,1,4.25-4.26c.25-.19,0-.52-.23-.55a4.58,4.58,0,0,0-3.67,1.18c-.31.28.14.72.46.46a4.38,4.38,0,0,1,5.35-.14l.27-.64c-2.71-.72-4.9,1.27-6.63,3.06a.4.4,0,0,0,.48.63c1.72-1,3.43-2.08,5.14-3.13a.41.41,0,0,0,.14-.54,1.78,1.78,0,0,0-2.05-.66A6.33,6.33,0,0,0,20.9,53.5a3.9,3.9,0,0,0-1.34,4.86.4.4,0,0,0,.73-.31,6.33,6.33,0,0,0-.75-1.89A.79.79,0,0,0,18.25,56c-.36.49-.15,1.29-.12,1.84,0,.37.06.74.08,1.11a1.62,1.62,0,0,0,.18.84c.73,1.14,2.11-.14,2.76-.65a18.39,18.39,0,0,1,3.44-2.05c1.37-.66,2.8-1.24,4.23-1.77.48-.18.27-1-.22-.78a39.08,39.08,0,0,0-5.85,2.49,17.21,17.21,0,0,0-2.57,1.81c-.24.21-.66.64-1,.59s-.25-1.12-.26-1.38l-.05-1a2.41,2.41,0,0,1,0-.38s0-.09,0-.1-.07-.06-.07,0a3,3,0,0,0,.19.32,3.25,3.25,0,0,1,.18.43c.13.31.23.64.33,1l.73-.31a3.08,3.08,0,0,1,1.05-3.77,5.68,5.68,0,0,1,1.93-.94c.46-.13,1.3-.34,1.57.21l.14-.54C23.23,54,21.51,55,19.8,56l.49.63c1.49-1.56,3.48-3.56,5.87-3a.35.35,0,0,0,.27-.64,5.08,5.08,0,0,0-6.16.29l.46.46a3.81,3.81,0,0,1,3.12-1l-.08-.6a24.87,24.87,0,0,0-4.42,4.34.36.36,0,0,0,.44.56c2.24-1.19,4.49-2.34,6.73-3.54L26,52.89l-5.62,4.57a.44.44,0,0,0,.42.73c1.46-.54,2.94-1,4.38-1.6a21.64,21.64,0,0,0,4.08-2.19l-.61-.61a.73.73,0,0,1-.22.27H28.3a2.55,2.55,0,0,0-.93.27c-.93.46-1.84,1-2.76,1.46-1.86,1-3.69,2-5.54,3l.64.37c0-1.23,0-2.48.14-3.71a1.69,1.69,0,0,1,.45-1.16c.38-.32,1-.22,1.45-.32a2.53,2.53,0,0,0,1.2-.68c.19-.17.35-.36.53-.54a2.23,2.23,0,0,1,.27-.26c.16-.11.18,0,.28.09.39.51.72,1.07,1.1,1.59l1.13,1.57a.42.42,0,0,0,.73-.42,8.68,8.68,0,0,1-.68-2.83l-.58.33a6.1,6.1,0,0,1,2.13,3.42l.68-.29a8.21,8.21,0,0,1-.68-3.05l-.5.29a3.53,3.53,0,0,1,1.23,1.69l.61-.26a2.09,2.09,0,0,1-.4-1.09l-.4.31a.56.56,0,0,1,.37.28.29.29,0,0,0,.51-.29Z"/><path class="cls-3" d="M30,54.33a18.09,18.09,0,0,0-5.81-2.42l-.11.81a6,6,0,0,1,4.61,1.42c.42.36,1-.25.61-.62A6.85,6.85,0,0,0,24,51.89a.43.43,0,0,0-.41.36.4.4,0,0,0,.3.46,15.26,15.26,0,0,1,5.76,2.09c.29.18.56-.29.27-.47Z"/><path class="cls-3" d="M26.43,92.53c0,.77-.11,1.55-.08,2.32a.26.26,0,0,0,.51,0c.06-.77,0-1.55,0-2.32a.22.22,0,0,0-.44,0Z"/><path class="cls-3" d="M27.65,91.36a9.23,9.23,0,0,0-.09,1.74c0,.59,0,1.18.09,1.76a.34.34,0,0,0,.39.33.33.33,0,0,0,.28-.42,15.27,15.27,0,0,1-.25-1.67c0-.56,0-1.13-.07-1.69,0-.19-.32-.27-.35,0Z"/><path class="cls-3" d="M29.51,92.24a8.19,8.19,0,0,0-.23,1.2c0,.2-.05.4-.07.6s0,.2,0,.3a2.2,2.2,0,0,0,0,.36.35.35,0,0,0,.68-.09,2.23,2.23,0,0,0,0-.36A1.84,1.84,0,0,1,29.8,94a5,5,0,0,1-.06-.54,6.08,6.08,0,0,1,.08-1.13.16.16,0,1,0-.31-.09Z"/><path class="cls-3" d="M24.81,89.26c.39-.06.78-.08,1.16-.17s.77-.16,1.14-.26c.78-.18,1.55-.4,2.31-.63,1.49-.45,3-1,4.42-1.52a55.13,55.13,0,0,0,8.42-4.12c1.51-.92,2.94-1.93,4.38-3,.36-.26,0-.85-.34-.59-1.25.91-2.59,1.73-3.92,2.52s-2.71,1.54-4.1,2.23a60.25,60.25,0,0,1-8.54,3.49c-.82.26-1.65.5-2.48.73s-1.73.51-2.59.75a.27.27,0,0,0,.14.52Z"/><path class="cls-3" d="M136.92,39.71a17.62,17.62,0,0,0-4.5-9.12,17.18,17.18,0,0,0-8.69-5.09,16.26,16.26,0,0,0-10.31,1.07,19.77,19.77,0,0,0-8,6.71,21,21,0,0,0-3.72,9.84,17.37,17.37,0,0,0,.47,6.34,14.86,14.86,0,0,0,2.71,5.29,17.3,17.3,0,0,0,9.62,6,19,19,0,0,0,11.34-.85,18,18,0,0,0,8.46-7.1,19.11,19.11,0,0,0,3-10.41,17.53,17.53,0,0,0-.28-2.71c-.09-.56-.94-.32-.84.23a17.77,17.77,0,0,1-1.43,10.19,17,17,0,0,1-6.94,7.74,18,18,0,0,1-10.47,2.28,16.71,16.71,0,0,1-9.85-4.21,14,14,0,0,1-4.77-10.28,19.31,19.31,0,0,1,2.36-9.78,19.58,19.58,0,0,1,6.68-7.26,15.83,15.83,0,0,1,9.51-2.48,16.15,16.15,0,0,1,8.79,3.53,17.45,17.45,0,0,1,5.62,7.89,16.19,16.19,0,0,1,.63,2.34C136.41,40.26,137,40.09,136.92,39.71Z"/><path class="cls-3" d="M109.87,28.73a28.7,28.7,0,0,0-9.31-1.65,30.82,30.82,0,0,0-4.8.33,6.41,6.41,0,0,0-3.33,1.28c-2.33,2-.22,5.24,1.31,7a23.14,23.14,0,0,0,6.2,4.93,59.6,59.6,0,0,0,7.43,3.45c3,1.22,6.11,2.39,9.22,3.43s6.21,2,9.37,2.73a51.9,51.9,0,0,0,9.67,1.67,17.6,17.6,0,0,0,4.69-.31,3,3,0,0,0,2.57-2.41,5.29,5.29,0,0,0-1.19-3.54,19.53,19.53,0,0,0-3-3.26A17.88,17.88,0,0,0,137,41.1c-.31-.21-.57.27-.29.48a22,22,0,0,1,3.15,2.87,9.59,9.59,0,0,1,2.19,3.34,2.68,2.68,0,0,1,.06,1.7,1.92,1.92,0,0,1-1.3,1.15,11.77,11.77,0,0,1-4.34.43,45.27,45.27,0,0,1-9.1-1.5c-3-.7-5.91-1.55-8.82-2.49s-5.78-2-8.63-3.06c-2.54-1-5.07-2-7.52-3.14a27.74,27.74,0,0,1-6.27-4,16.83,16.83,0,0,1-2.53-2.74c-.71-1-1.53-2.27-1.31-3.56a2.87,2.87,0,0,1,2.29-2.06A17.85,17.85,0,0,1,98.67,28a32.18,32.18,0,0,1,8.91.74c.72.16,1.44.35,2.15.56.33.1.46-.41.14-.52Z"/><path class="cls-3" d="M109.27,29.54a16,16,0,0,0-8.43-1.82c-2.26.09-5,.49-6.47,2.47-1.72,2.4.56,5,2.3,6.56a29.31,29.31,0,0,0,6.86,4.38A121.52,121.52,0,0,0,120,47.67a71.09,71.09,0,0,0,17.55,3.46,6.46,6.46,0,0,0,4-.72,3.05,3.05,0,0,0,1.4-3.22,7.73,7.73,0,0,0-.74-1.9,12,12,0,0,0-1-1.65,13,13,0,0,0-2.63-2.72,14.49,14.49,0,0,0-1.56-1,.43.43,0,0,0-.43.75,12.37,12.37,0,0,1,4.75,5.08c.52,1,1.15,2.42.29,3.44a3.93,3.93,0,0,1-3.34,1.05c-1.37-.06-2.75-.27-4.11-.46s-2.74-.4-4.1-.66a83,83,0,0,1-8.2-2,127.68,127.68,0,0,1-15.62-5.88,43.86,43.86,0,0,1-6.74-3.57,19.2,19.2,0,0,1-2.88-2.37,5.13,5.13,0,0,1-1.85-3.08c-.09-2.13,2.51-3,4.2-3.27a20.41,20.41,0,0,1,8.12.52c.65.17,1.3.36,2,.56a.25.25,0,0,0,.19-.46Z"/><path class="cls-3" d="M109.07,28.53c-2.69-.32-5.39-.63-8.1-.88-2.33-.21-4.82-.24-6.87,1.06A5.13,5.13,0,0,0,92,31.29l1,.13a2.46,2.46,0,0,1,1.23-2l-.55-.72a3.27,3.27,0,0,0-.74,3.22,7.85,7.85,0,0,0,2.19,3.24c.39.39,1.14-.14.79-.61a6.7,6.7,0,0,1-1.35-4.18.46.46,0,0,0-.84-.23,4.21,4.21,0,0,0-.58,3.35,8.61,8.61,0,0,0,1.83,2.54,23,23,0,0,0,4.89,4,66,66,0,0,0,12.1,5.51,100.46,100.46,0,0,0,14,4.13c2.38.5,4.78.9,7.2,1.18,1.19.14,2.39.26,3.58.34a8,8,0,0,0,3.48-.36A4.22,4.22,0,0,0,142.34,49a3.33,3.33,0,0,0,0-3,12,12,0,0,0-1.75-2.69,15.44,15.44,0,0,0-2.27-2.23,11.3,11.3,0,0,0-1.33-.93c-.5-.32-.95.47-.46.79a13.93,13.93,0,0,1,4.25,4.19,4,4,0,0,1,.95,2.76,2.81,2.81,0,0,1-1.61,1.88,6.41,6.41,0,0,1-3.1.41c-1.1-.06-2.21-.17-3.31-.3-2.26-.27-4.5-.65-6.73-1.11A100.08,100.08,0,0,1,113.81,45a83.85,83.85,0,0,1-11.69-4.93,27.52,27.52,0,0,1-4.87-3.28,21.18,21.18,0,0,1-2.08-2.05c-.64-.72-1.43-1.53-1.29-2.57a5.17,5.17,0,0,1,.56-1.57l-.84-.23A7.36,7.36,0,0,0,95,35.07l.79-.6a7.72,7.72,0,0,1-1.91-2.59,2.41,2.41,0,0,1,.39-2.52.45.45,0,0,0-.55-.71,3.48,3.48,0,0,0-1.77,2.77.5.5,0,0,0,1,.13,5.44,5.44,0,0,1,4.48-3,17.13,17.13,0,0,1,3.65,0l3.72.31c1.44.12,2.88.22,4.31.32.44,0,.42-.61,0-.66Z"/><path class="cls-3" d="M119.48,26.06l0-.11-.58-.16a2.53,2.53,0,0,0,.32,1.61,3,3,0,0,0,1.11,1.16,2.34,2.34,0,0,0,3-.49,2,2,0,0,0,.46-1.72.4.4,0,0,0-.67-.17l-1.38,1.31.67.39.33-1.57c.06-.3-.27-.64-.56-.43A3.13,3.13,0,0,0,121,27.49l.74.1a1.74,1.74,0,0,0-.86-1.62.38.38,0,0,0-.55.23,4.8,4.8,0,0,0-.23,1.31.38.38,0,0,0,.74.1,1.58,1.58,0,0,0-.71-1.73.35.35,0,0,0-.51.21,1.33,1.33,0,0,0,1.3,1.54.35.35,0,0,0,.18-.65l-1-.76-.27.64a2.2,2.2,0,0,1,1.33.76.33.33,0,0,0,.33.09l.56-.19a.33.33,0,0,0-.18-.64l-.56.17.33.09a2.74,2.74,0,0,0-1.62-1,.35.35,0,0,0-.27.64l1,.76.17-.65a.64.64,0,0,1-.64-.66l-.5.21a.88.88,0,0,1,.34.93l.73.1a3.81,3.81,0,0,1,.2-1.11l-.55.22a1,1,0,0,1,.49,1c0,.44.62.49.74.1a2.32,2.32,0,0,1,.84-1.16c-.19-.14-.38-.28-.56-.43-.13.52-.26,1-.38,1.56a.4.4,0,0,0,.67.39c.47-.43.93-.87,1.39-1.31l-.69-.28A1.47,1.47,0,0,1,121.33,28a1.88,1.88,0,0,1-1.16-.72,2.83,2.83,0,0,1-.42-.71c-.1-.24-.13-.51-.23-.75a.31.31,0,0,0-.37-.21.3.3,0,0,0-.21.37l0,.11a.26.26,0,0,0,.5,0Z"/><path class="cls-3" d="M126.27,37a2,2,0,0,0-2.34.47,1.94,1.94,0,0,0-.53,1.22,1.91,1.91,0,0,0,.45,1.26,2,2,0,0,0,3.6-1.31A1.91,1.91,0,0,0,126,36.79a1.87,1.87,0,0,0-2.22,1.1,1.79,1.79,0,0,0,1,2.15,1.44,1.44,0,0,0,1.4-.19,1.11,1.11,0,0,0,.35-1.41,1,1,0,0,0-1.34-.48.91.91,0,0,0-.35,1.16.81.81,0,0,0,1.15.41,1.12,1.12,0,0,0,.37-1.23,2.1,2.1,0,0,0-.22-.59.42.42,0,0,0-.46-.19,1.44,1.44,0,0,0-.9.77.39.39,0,0,0,.14.53.38.38,0,0,0,.53-.14.75.75,0,0,1,.21-.26l.09-.06.15-.06-.46-.18s0,.11,0,0l0,.1a.83.83,0,0,1,.06.21.52.52,0,0,1,0,.11c0-.09,0,0,0,0a.17.17,0,0,1,0,.1v.07c0-.06,0-.07,0,0s-.05.1,0,0a.43.43,0,0,0,0,.07s0-.09,0,0l0,0s0,0,0,0-.09,0,0,0c-.1,0,.1,0,0,0,.1,0,0,0,0,0s.06,0,0,0,0,0,0,0l0-.07c.05.09,0,0,0,0s0-.1,0,0v-.08s0,.1,0,0,0-.06,0,0,.07-.07,0,0,0,0,0,0,0,0,0,0h.06s.11.06,0,0,.11.07,0,0l.09.08c-.06-.06,0,0,0,0s0,0,0,0a.24.24,0,0,1,0,.08h0v0s0,0,0,0-.05.12,0,0l-.06.1c0-.07,0,0,0,0s-.1.08,0,0l-.11.06c-.09.06.06,0-.05,0l-.16,0h-.12c-.11,0,.08,0,0,0l-.1,0c-.1,0,.07,0,0,0l-.08,0-.09-.06c.09.06,0,0,0,0l-.07-.08c-.08-.08,0,.07,0,0l-.09-.15a.42.42,0,0,1,0-.1c0,.1,0,0,0,0a.84.84,0,0,1-.06-.24c0,.11,0,0,0,0v-.11s0-.06,0-.1,0,0,0,0l0-.1s0-.07,0,0,0-.07.05-.1.1-.14,0-.06a.71.71,0,0,1,.15-.15c.08-.08-.07,0,0,0l.09-.06.1,0c.1-.06-.08,0,0,0a1.29,1.29,0,0,1,.21-.06s.14,0,0,0h.34s.13,0,0,0l.1,0a1,1,0,0,1,.25.08c-.09,0,0,0,0,0l.08.05.07,0,0,0,.15.15c-.07-.07,0,0,0,0l.07.12a.36.36,0,0,1,0,.09c0-.09,0,0,0,0l.06.19s0,0,0,.07,0-.09,0,0a1.93,1.93,0,0,1,0,.24s0,.07,0,.11,0-.09,0,0,0,.13,0,.2l0,.1s-.05.12,0,0l-.09.18-.06.08s-.08.11,0,0l-.14.15-.07.06c.08-.06,0,0,0,0l-.09.05-.06,0a.49.49,0,0,1-.17.06l-.11,0c.1,0,0,0,0,0h-.22c-.12,0,.09,0,0,0l-.14,0-.22-.07c.09,0-.07,0-.09,0l-.2-.12c-.1-.06.06.06,0,0a.52.52,0,0,0-.11-.1l-.07-.08-.05-.06a1.64,1.64,0,0,1-.14-.22l0-.06c0,.09,0,0,0-.07l0-.11s0,0,0-.07,0,0,0,0a1.13,1.13,0,0,1,0-.26c0,.1,0,0,0,0l0-.14s0-.07,0-.11,0,0,0,0a1.59,1.59,0,0,1,.13-.22l0,0,.1-.11.08-.07.06-.05s0,0,0,0a1.64,1.64,0,0,0,.22-.14l.09,0,.06,0a1.15,1.15,0,0,1,.91,0c.31.12.52-.38.22-.53Z"/><path class="cls-3" d="M111.2,33.92a1.73,1.73,0,0,0-2,1,2,2,0,0,0,.41,1.92,1.78,1.78,0,0,0,1.93.58,2.15,2.15,0,0,0,1.38-1.58A1.75,1.75,0,0,0,112,34a1.81,1.81,0,0,0-1.21-.13,1.6,1.6,0,0,0-.94.71,1.55,1.55,0,0,0,.38,2.12,1.51,1.51,0,0,0,2.1-.35,1.19,1.19,0,0,0,0-1.4,1,1,0,0,0-1.22-.28.88.88,0,0,0-.41,1.06.83.83,0,0,0,.39.47.64.64,0,0,0,.41.07.74.74,0,0,0,.36-.34,1.33,1.33,0,0,0,.18-.68.41.41,0,0,0-.3-.39,1.13,1.13,0,0,0-1.18.38,1.15,1.15,0,0,0-.2,1.28.41.41,0,0,0,.55.15.4.4,0,0,0,.15-.55c0,.06,0,0,0,0s0-.07,0,0v-.11s0,.05,0,0l0-.1s0,0,0,0l.06-.09c0-.06,0,0,0,0l.06-.06,0,0,.07,0h0l.08,0c.07,0,0,0,0,0s.07,0,0,0l.11,0-.3-.39a.4.4,0,0,1-.14.32l.41-.1c-.08,0,0,0,0,0l0,0s0,0,0,0,0-.05,0-.05,0,.07,0,0,0-.09,0,0v0s0,0,0-.06,0,.06,0,0h0s-.08.06,0,0h0c.1,0-.06,0,0,0s.1,0,0,0l.07,0c-.09,0,0,0,0,0h0s0,0,0,0-.06-.09,0,0,0,0,0,0,0,.12,0,.06v.07s0-.08,0,0,0,.06,0,.09,0,0,0,.05-.08.12,0,.06l-.11.1c.09-.07,0,0-.08,0h0l-.08,0-.09,0c-.09,0,.09,0,0,0H111c-.06,0,.11,0,0,0l-.07,0-.16-.05s.08.05,0,0l-.09-.05-.06,0c-.09-.06.06.07,0,0l-.09-.1c.06.07,0,0,0,0l0-.08s0-.07,0,0l0-.11s0-.12,0-.05,0,0,0,0a.75.75,0,0,1,0-.15c0,.1,0,0,0,0s0-.05,0-.08.08-.18,0-.1l.09-.17,0-.06c0,.06,0,0,0,0l.12-.11c-.06,0,0,0,0,0l.1-.06s.1,0,0,0l.08,0,.08,0c.11,0-.07,0,0,0h.23l.1,0,.15,0c.12,0,0,0,0,0l.09.05A.9.9,0,0,1,112,35h0l.06.09a1.09,1.09,0,0,1,.08.15c0-.06,0,0,0,0l0,.09s0,.06,0,.09,0,0,0,0v.16s0,.1,0,0,0,0,0,.07a1.21,1.21,0,0,1,0,.18.19.19,0,0,1,0,.07c0,.11,0-.06,0,0a1.69,1.69,0,0,1-.17.29c-.07.1,0,0,0,0l-.06.07a1.59,1.59,0,0,1-.13.13l0,0-.05,0-.14.08-.09,0s.07,0,0,0l-.19.05s-.1,0,0,0h-.24s-.1,0,0,0l-.07,0-.18-.05c-.07,0,.07,0,0,0l-.06,0-.15-.09s-.06-.05,0,0l-.05,0-.15-.15,0,0c0,.06,0,0,0,0a.86.86,0,0,1-.1-.16l0-.08s0-.1,0,0a.75.75,0,0,1,0-.16,1.05,1.05,0,0,1,0-.19c0-.06,0,.09,0,0v-.1a1,1,0,0,1,0-.17c0,.07,0,0,0,0a.44.44,0,0,1,0-.1l0-.08c0-.1,0,.06,0,0L110,35a1,1,0,0,1,.28-.26,1.37,1.37,0,0,1,.82-.2.3.3,0,0,0,.08-.58Z"/><path class="cls-3" d="M128.15,57.05a2.33,2.33,0,0,0-2.4-1.43,2.19,2.19,0,0,0-1.88,2.16,2.31,2.31,0,0,0,.58,1.6.37.37,0,0,0,.62-.17c.14-.91.33-2,1.24-2.47a1,1,0,0,1,1,0,1,1,0,0,1,.3.37.55.55,0,0,1,0,.47l.17-.22a5.64,5.64,0,0,0-1.63,1.24l.6.46a5.66,5.66,0,0,0,.71-1.41c.16-.43.46-1.27-.22-1.42-.52-.12-.93.42-1.17.8a3.13,3.13,0,0,0-.46,1.48c0,.45.62.5.74.1a6.22,6.22,0,0,0,.3-1.92c0-.18-.17-.4-.37-.37a1.73,1.73,0,0,0-1.07,2.83.41.41,0,0,0,.49.06.42.42,0,0,0,.18-.45,4.76,4.76,0,0,0-.83-2,.39.39,0,0,0-.67,0,2.15,2.15,0,0,0-.2,2.21.39.39,0,0,0,.62.08,3.14,3.14,0,0,0,.71-1.32,5.17,5.17,0,0,1,.25-.63,1.18,1.18,0,0,1,.33-.44.51.51,0,0,1,.22-.11l.1,0h.25c-.07,0,.07,0,.09,0l.15,0s0,0,0,0l.08,0,.13.08s.1.07.05,0l.11.1.06.07.09.13,0,.07s0,0,0,0a.83.83,0,0,1,0,.15c0-.09,0,.06,0,.08a.41.41,0,0,0,.82,0,1.74,1.74,0,0,0-1.68-1.62,1.51,1.51,0,0,0-1.15.43,3.18,3.18,0,0,0-.66,1.16,2.88,2.88,0,0,1-.59,1.17l.63.08a1.4,1.4,0,0,1,.18-1.43h-.67a4.37,4.37,0,0,1,.73,1.8l.67-.39-.06,0s0,0,0,0l-.08-.13c0,.06,0-.06,0-.08a.8.8,0,0,1,0-.15c0,.07,0,0,0-.08a.76.76,0,0,1,0-.15h0s0-.05,0-.07a.84.84,0,0,1,0-.17s0-.05,0-.07v0l.07-.13.07-.1,0,0,0-.06.06,0s.06,0,0,0,0,0,0,0l.06,0,.07,0s0,0,0,0l.07,0h0c-.13-.12-.25-.25-.37-.37a5.31,5.31,0,0,1-.29,1.72l.75.1a2.19,2.19,0,0,1,.25-.93,2.52,2.52,0,0,1,.28-.44.67.67,0,0,1,.14-.15l.07,0s0,0,0,0-.09,0-.11-.09-.09-.11-.06-.08,0,.1,0,.11,0,.19-.08.29a5.17,5.17,0,0,1-.18.51,6,6,0,0,1-.56,1c-.25.37.31.79.6.47a6,6,0,0,1,.7-.64c.25-.19.52-.32.77-.49s.28-.62.22-.91a1.51,1.51,0,0,0-.37-.72,1.64,1.64,0,0,0-1.58-.49A2.47,2.47,0,0,0,125,57a5,5,0,0,0-.66,2.06l.62-.16a1.49,1.49,0,0,1-.34-.92,1.65,1.65,0,0,1,.28-1,1.26,1.26,0,0,1,.32-.33,1.28,1.28,0,0,1,.49-.22,1.65,1.65,0,0,1,1.88.91c.14.3.66.09.54-.23Z"/><path class="cls-3" d="M110.21,49.15A1.06,1.06,0,0,0,109,50a1.43,1.43,0,0,0,.61,1.42,1.23,1.23,0,0,0,.74.23,1.51,1.51,0,0,0,.81-.32,1.35,1.35,0,0,0,.46-1.46,1.43,1.43,0,0,0-1.1-.93,1.32,1.32,0,0,0-.83.11,1.26,1.26,0,0,0-.53.52,1.28,1.28,0,0,0,.11,1.49,1.24,1.24,0,0,0,1.38.27,1.06,1.06,0,0,0,.54-.48.87.87,0,0,0-.11-1,.93.93,0,0,0-1.44.82.4.4,0,0,0,.39.4.41.41,0,0,0,.4-.4v-.07s0,0,0,0,0,0,0,0,0,0,0,0l.05-.09s-.06.07,0,0l0-.05h0s0,0,0,0l0,0c.06,0-.1,0,0,0h0c.07,0-.11,0,0,0s-.08,0,0,0,0,0,0,0,0,0,0,0l0,0s0,0,0,0,0,.06,0,.06,0-.08,0,0,0-.07,0,0v0c0,.05,0,0,0,0s-.06.07-.06.09.07-.07,0,0l0,0,0,0c.05-.06.06,0,0,0l-.11.06,0,0,0,0-.1,0c.09,0,.06,0,0,0h-.1s-.1,0,0,0l-.19,0c.09,0,.05,0,0,0l0,0,0,0s.07.07,0,0l-.07-.08,0,.05,0,0s0,0,0,0v-.08s0-.12,0,0,0-.05,0-.07v-.08s0,0,0,0a.43.43,0,0,0,0-.12l0,0h0s0-.1,0-.11l0-.05c0-.07,0,0,0,0s.07-.08.08-.09l0,0c.06-.06-.06,0,0,0l.1-.06c.07,0-.06,0,0,0l.06,0h.23c.08,0,0,0,0,0l.12,0,.11,0s-.08,0,0,0l.07,0s.09,0,.1.07-.06-.06,0,0l0,0a.6.6,0,0,1,.08.08c0,.06,0-.06,0,0l0,.06a.08.08,0,0,1,0,0v0s0,0,0,0,0,.08,0,.1,0,0,0,.06,0-.05,0,0,0,.12,0,.16,0-.08,0,0,0,0,0,.06a.56.56,0,0,1,0,.12l0,.06,0,.06c-.05.07,0,0,0,0l-.08.09s-.11.08,0,0l-.12.07,0,0h0l-.12,0c-.09,0,.08,0,0,0h-.12s-.12,0-.14,0h0s0,0-.07,0l0,0,0,0s0,0,0,0l-.06-.06,0,0c-.06-.07,0,0,0,0a.41.41,0,0,1-.07-.11.16.16,0,0,1,0-.07c0-.06,0,.07,0,0a.56.56,0,0,1,0-.12s0-.09,0,0a.22.22,0,0,1,0-.08v0s0-.11,0-.06,0,0,0,0,0,0,0-.08,0-.08,0,0,0,0,0-.06l0,0c0-.06,0,0,0,0l.12-.12s.05,0,0,0l.07,0,.07-.05s0,0,0,0l.12,0a.23.23,0,0,0,.23-.2.24.24,0,0,0-.17-.25Z"/><path class="cls-3" d="M135.83,36.79a1.64,1.64,0,0,0-1.33.73,1.94,1.94,0,0,0-.32,1.55,2,2,0,0,0,1,1.29,1.16,1.16,0,0,0,.87.14.79.79,0,0,0,.53-.77,2.92,2.92,0,0,0-.27-1c-.13-.36-.26-.72-.38-1.08a.37.37,0,0,0-.66-.09,1.89,1.89,0,0,0-.11,2.11.37.37,0,0,0,.63-.37,1.69,1.69,0,0,1-.16-.88.36.36,0,0,0-.54-.32,1.45,1.45,0,0,0-.61,1.85.36.36,0,0,0,.41.16,1,1,0,0,0,.64-.71.35.35,0,0,0-.67-.18.34.34,0,0,1-.16.19l.45.26a.72.72,0,0,1,.3-.94l-.55-.31a2.37,2.37,0,0,0,.26,1.25l.63-.37a1.16,1.16,0,0,1,0-1.3l-.6-.16c.17.5.34,1,.5,1.51a1.71,1.71,0,0,1,.09.3v.07h0s0,0,0,0l0,0s0,0,0,0,0,0,0,0h-.15l-.12-.05a1.32,1.32,0,0,1-.54-1.75,1.85,1.85,0,0,1,.93-.79c.18-.09.07-.35-.1-.36Z"/><path class="cls-3" d="M102.86,45.4a1.47,1.47,0,0,1,1.39,1.31,1.43,1.43,0,0,1-.33.95,1.38,1.38,0,0,1-.4.36,2,2,0,0,1-.52.19c.12.17.25.33.37.49a2.57,2.57,0,0,0,.49-1.48,2.36,2.36,0,0,0-.53-1.49.29.29,0,0,0-.49.2c.07.69.12,1.38.18,2.06l.61-.08a8,8,0,0,1-.57-2.15l-.56.15a5.16,5.16,0,0,1,.15,1.25.91.91,0,0,0,1,.84,1.06,1.06,0,0,0,.86-1.21,1.49,1.49,0,0,0-1.14-1.1.32.32,0,0,0-.17.62c.3.08.67.29.7.64s-.24.53-.47.39a.32.32,0,0,1-.14-.23,2.12,2.12,0,0,1-.06-.44A3,3,0,0,0,103,45.6c-.12-.27-.59-.13-.56.16a7.64,7.64,0,0,0,.6,2.39.31.31,0,0,0,.58-.16c-.07-.68-.16-1.37-.22-2.06l-.54.15a1.79,1.79,0,0,1,.37,1.14,1.53,1.53,0,0,1-.4,1.08.34.34,0,0,0,.23.57,2,2,0,0,0,1.37-.72,2.06,2.06,0,0,0,.51-1.46,2.16,2.16,0,0,0-2.1-2,.35.35,0,0,0,0,.69Z"/><path class="cls-3" d="M117.64,35.42a.51.51,0,0,0,0-1,.51.51,0,0,0,0,1Z"/><path class="cls-3" d="M119.42,54.73l0-.36a.54.54,0,0,0,0-.21.42.42,0,0,0-.11-.18l-.12-.08a.48.48,0,0,0-.2-.07h-.15a.48.48,0,0,0-.2.07l-.11.08a.58.58,0,0,0-.15.25c0,.11,0,.23,0,.35a.48.48,0,0,0,0,.29l0,.14a.64.64,0,0,0,.2.2.42.42,0,0,0,.21.06.33.33,0,0,0,.22,0,.32.32,0,0,0,.19-.1.43.43,0,0,0,.15-.15.55.55,0,0,0,.07-.28Z"/><path class="cls-3" d="M130.57,42.94l-.18,0a.55.55,0,0,0-.34.14l-.07.1a.28.28,0,0,0-.06.18.28.28,0,0,0,0,.13.27.27,0,0,0,.06.17l.07.1a.43.43,0,0,0,.22.12l.17,0a.57.57,0,0,0,.26,0l.12,0a.46.46,0,0,0,.17-.17.64.64,0,0,0,.06-.18.45.45,0,0,0,0-.2.42.42,0,0,0-.09-.16.4.4,0,0,0-.13-.13.54.54,0,0,0-.25-.06Z"/><path class="cls-3" d="M119,42.13l.2,0h.09a.33.33,0,0,0,.17,0,.42.42,0,0,0,.14-.09l.06-.09a.31.31,0,0,0,.06-.16.2.2,0,0,0,0-.11.28.28,0,0,0-.06-.16l-.06-.09a.41.41,0,0,0-.19-.11l-.09,0h0l-.12,0h-.07a.29.29,0,0,0-.16,0,.22.22,0,0,0-.14.09l-.07.08a.34.34,0,0,0,0,.17.2.2,0,0,0,0,.11.3.3,0,0,0,0,.16l.07.09a.45.45,0,0,0,.19.11Z"/><path class="cls-3" d="M129.77,32.47a.4.4,0,0,0,0-.8.4.4,0,0,0,0,.8Z"/><path class="cls-3" d="M35.12,6.94,37,7.47a.39.39,0,0,0,.46-.26C38,4.8,38.48,2.38,39.12,0h-.81c-.58,2.19-1.11,4.4-1.53,6.63l-1.2-.33-.78-.24c-.18-.06-.41-.11-.5-.29s.14-.85.27-1.14c.23-.51.45-1,.68-1.52.46-1,.92-2.07,1.37-3.11h-.77c-.57,1.19-1.14,2.39-1.7,3.58-.36.77-1.17,2-.41,2.8A2.81,2.81,0,0,0,35.12,6.94Z"/><path class="cls-3" d="M52,17.78a8.59,8.59,0,0,1,2-4,.38.38,0,0,1,.55-.41A4.23,4.23,0,0,1,56,14.61a1.94,1.94,0,0,1,.14,1.92c-.67,1.44-2.36,1.67-3.77,1.73A.38.38,0,0,1,52,17.78Zm.83-.31a2.87,2.87,0,0,0,2.58-1.21c.5-1-.34-1.61-1.06-2.09a10.53,10.53,0,0,0-1,1.66A8.82,8.82,0,0,0,52.8,17.47Z"/><path class="cls-3" d="M23.15,13.72A36.57,36.57,0,0,0,30,16.19a.44.44,0,0,0,.49-.2c.81-1.33,1.6-2.66,2.4-4a2.73,2.73,0,0,1,1.16-1.28,1.22,1.22,0,0,1,1.36.43c1,1.06.48,2.59.23,3.84a3.26,3.26,0,0,0,0,1.93,2,2,0,0,0,1.48,1l2.36.67,1.08.31a2.27,2.27,0,0,0,1.06.16c.63-.11.85-.68.92-1.24.11-.77.19-1.54.29-2.31.38-3.15.77-6.29,1.15-9.43.25-2,.51-4,.77-6h-.88Q43,7.05,42.13,14.09l-.3,2.36c0,.37-.09.74-.14,1.11s0,.6-.3.62a3,3,0,0,1-1-.27l-1.15-.33c-.74-.22-1.49-.43-2.23-.67a.75.75,0,0,1-.57-.43,2.26,2.26,0,0,1,0-1c.12-.71.3-1.4.37-2.12a3.36,3.36,0,0,0-1.3-3.22,1.92,1.92,0,0,0-1.75-.23,3.14,3.14,0,0,0-1.42,1.3c-.86,1.32-1.64,2.69-2.44,4A32.79,32.79,0,0,1,24,13.12Q27.44,6.58,30.82,0H30l-.37.68q-2.15,4-4.28,7.93c-.81,1.49-1.6,3-2.4,4.49A.45.45,0,0,0,23.15,13.72Z"/><path class="cls-3" d="M58.58,2.62A5.74,5.74,0,0,1,60.4,3.83c.86.94,1.1,2.62-.12,3.39s-2.64,0-3.62-.66a.41.41,0,0,1-.19-.46c.23-.61.51-1.22.76-1.83s.51-1.22.77-1.82C58.13,2.14,58.61,2.33,58.58,2.62Zm-.19.57c-.16.44-.31.88-.47,1.31s-.37,1-.57,1.55a5.41,5.41,0,0,0,1.36.63A1.56,1.56,0,0,0,60,6.55a1.23,1.23,0,0,0,.43-1.21C60.27,4.27,59.28,3.67,58.39,3.19Z"/><path class="cls-3" d="M64,1.63A7.71,7.71,0,0,1,67,6.71a5.27,5.27,0,0,1-2,4.47,5.52,5.52,0,0,1-5.2,1.16c-.28-.08-.6.21-.49.49.87,2.26,1.63,5.27-.06,7.36-1.54,1.9-4.29,2.15-6.51,1.57a17.85,17.85,0,0,1-4-1.72l-.88-.5c-.22-.12-.62-.27-.72-.53s.15-.75.26-1l.45-1.15C49,13.9,50.19,11,51.43,8c.84-2,1.69-3.93,2.55-5.9.36-.71.72-1.42,1.09-2.13h-1c-2.64,5.49-5,11.14-7.21,16.81L46.45,18a2.08,2.08,0,0,0-.21,1.12c.11.72.81,1,1.38,1.35a22.7,22.7,0,0,0,4.29,2c2.46.78,5.42.68,7.43-1.13,2.29-2.07,1.88-5.35,1-8a6.58,6.58,0,0,0,7.52-5.76,8,8,0,0,0-2.61-6,11.74,11.74,0,0,0-2-1.54H61.5A12.34,12.34,0,0,1,64,1.63Z"/><path class="cls-3" d="M84.23,23.84c-.54,2.44-1,4.89-1.51,7.33a.45.45,0,0,1-.42.32A18.07,18.07,0,0,1,69.89,25.9a9.83,9.83,0,0,1-2.45-3.68,7.75,7.75,0,0,1,.32-4.73,15.78,15.78,0,0,1,1.73-3.58,16.93,16.93,0,0,1,5.65-5.39A16.32,16.32,0,0,1,78.79,7c.63-.18,1.28-.29,1.92-.44a2.09,2.09,0,0,1,1.38.08.36.36,0,0,1,.53.35,32.41,32.41,0,0,0,.69,8.45.4.4,0,0,1-.49.49,7.65,7.65,0,0,0-4.39.39,4.23,4.23,0,0,0-2.25,2.41,3,3,0,0,0,.59,2.91c1.75,2,4.6,1.83,7,1.68A.45.45,0,0,1,84.23,23.84Zm-1,.38a10.92,10.92,0,0,1-4.76-.35,5.29,5.29,0,0,1-2.87-2.33,3.85,3.85,0,0,1,0-3.6c1.27-2.52,4.23-3.06,6.81-2.88a25.5,25.5,0,0,1-.59-8,3.81,3.81,0,0,0-1.62.2,17.06,17.06,0,0,0-2,.6,15.48,15.48,0,0,0-3.62,1.91,16.4,16.4,0,0,0-4.89,5.42,14.15,14.15,0,0,0-1.41,3.55,5.64,5.64,0,0,0,.49,4.37,13.41,13.41,0,0,0,2.67,3.1,17.49,17.49,0,0,0,3.25,2.29A17.66,17.66,0,0,0,82,30.6C82.4,28.48,82.84,26.35,83.25,24.22Z"/><path class="cls-3" d="M107,0l-.44.72Q108,2.87,109.29,5a.35.35,0,0,1-.39.51l-4.54-1.48q-2.06,2.9-4.36,5.58c-.19.22-.5,0-.52-.21a32.24,32.24,0,0,1-.15-4.5.31.31,0,0,1,.24-.29c.06-.69.13-1.38.2-2.07l-6-1.94A.41.41,0,0,1,93.53,0h1.65l-.33.16,5,1.66c.07-.61.14-1.21.2-1.82h.72l-.24,2,3.61,1.19c.58-.82,1.13-1.65,1.67-2.49L105.34,0h.81l.06.1a.61.61,0,0,0,.07-.1Zm-3.33,3.84-3.28-1.07c-.15,1.22-.32,2.44-.49,3.65,0,.74,0,1.48.08,2.22.76-.92,1.51-1.85,2.23-2.81C102.75,5.18,103.23,4.51,103.71,3.84Zm2.47-2.49c-.45.71-.92,1.41-1.4,2.1l3.42,1.12C107.52,3.5,106.85,2.43,106.18,1.35Z"/><path class="cls-3" d="M115.19,77.53c3.73-2.33,7.36-4.83,11-7.29l-.44-.06c.3.37,0,1-.11,1.41s-.32,1.07-.49,1.61c-.36,1.13-.72,2.27-1.07,3.4-.71,2.25-1.43,4.5-2.13,6.75h.67c-2-4.9-4-9.84-6-14.75l-.48.48a112.24,112.24,0,0,1,12.53,6.09c1.15.63,2.29,1.27,3.43,1.91l.07-.54a84.24,84.24,0,0,1-14.83,2.19c-1.41.09-2.81.12-4.22.14l.22.53a25.57,25.57,0,0,1,3.28-3,.32.32,0,1,0-.39-.51,32.86,32.86,0,0,0-3.32,3,.31.31,0,0,0,.21.53,78.92,78.92,0,0,0,15-1.44c1.4-.27,2.8-.59,4.18-.94a.3.3,0,0,0,.07-.54c-4.08-2.33-8.17-4.66-12.44-6.64-1.2-.55-2.39-1.11-3.61-1.6a.39.39,0,0,0-.49.48c2,4.91,4.12,9.8,6.12,14.72a.35.35,0,0,0,.67,0q1.16-3.63,2.29-7.28c.37-1.2.74-2.41,1.13-3.6.3-.93.91-2.11.23-3a.35.35,0,0,0-.44,0c-3.66,2.46-7.33,4.9-10.9,7.48-.26.19,0,.62.26.44Z"/><path class="cls-3" d="M110.42,105a33.93,33.93,0,0,0-7.71-4.43,24.69,24.69,0,0,0-4.17-1.5,1.85,1.85,0,0,0-2.5,1.56,3.07,3.07,0,0,0,1.42,2.89,26.82,26.82,0,0,0,3.92,2.27c1.4.72,2.82,1.38,4.25,2q1.08.51,2.19,1a5.59,5.59,0,0,0,2.07.59,2.14,2.14,0,0,0,2.38-2.34c-.2-1.55-1.6-2.34-2.88-3-.43-.2-.81.44-.38.64,1,.47,2.23,1,2.54,2.2s-.8,2-1.92,1.8a6.9,6.9,0,0,1-1.83-.66l-1.89-.88c-1.26-.59-2.52-1.19-3.76-1.81s-2.39-1.23-3.54-1.92c-.86-.52-1.91-1.26-1.94-2.38a1.48,1.48,0,0,1,.45-1.18,1.83,1.83,0,0,1,1.73,0c1.22.38,2.42.81,3.6,1.3a50.2,50.2,0,0,1,7.72,4.13c.2.12.44-.18.25-.32Z"/><path class="cls-3" d="M97.3,103.19a70.94,70.94,0,0,1-6.15,7.88A62.77,62.77,0,0,1,84,117.8c-1.33,1.06-2.72,2-4.1,3a17.59,17.59,0,0,0-3.67,3.27,8.24,8.24,0,0,0-1.83,4.31,6.72,6.72,0,0,0,1.38,4.4,22.77,22.77,0,0,0,3.38,3.56A44.16,44.16,0,0,0,83,139.53a43.38,43.38,0,0,0,4.27,2.72,21.85,21.85,0,0,0,4.74,2.11,6.84,6.84,0,0,0,4.78-.27,7.51,7.51,0,0,0,3-2.86c1.81-2.93,1.74-6.52,2.09-9.84a56.62,56.62,0,0,1,5.87-20c.39-.75.79-1.49,1.21-2.22.24-.41-.41-.79-.64-.37a60.6,60.6,0,0,0-6.76,19.07c-.29,1.67-.49,3.34-.64,5a29.38,29.38,0,0,1-.73,5.12c-.71,2.67-2.58,5.48-5.58,5.71a9.6,9.6,0,0,1-4.83-1.18,43.31,43.31,0,0,1-4.33-2.39A42.32,42.32,0,0,1,77.77,134a9,9,0,0,1-2.51-3.82,6,6,0,0,1,.78-4.56c1.64-2.82,4.72-4.44,7.24-6.35a61.24,61.24,0,0,0,13.27-13.76q.69-1,1.32-2c.23-.36-.33-.68-.57-.33Z"/><path class="cls-3" d="M90.4,116.24a36,36,0,0,1-4.52,4.11c-.82.63-1.66,1.22-2.53,1.77s-1.66,1-2.42,1.63a6.32,6.32,0,0,0-2.76,4.63,6.08,6.08,0,0,0,2.12,4.32A30.3,30.3,0,0,0,85,136.24c.92.61,1.84,1.19,2.78,1.76a28.69,28.69,0,0,0,2.75,1.57,6,6,0,0,0,2.77.72,4.49,4.49,0,0,0,2.3-.72,7,7,0,0,0,2.76-3.86c.69-2.3.42-4.75.54-7.11a19.78,19.78,0,0,1,1.63-7,.33.33,0,0,0-.12-.46c-3.19-1.64-6.4-3.24-9.6-4.84-.41-.2-.77.41-.36.62,3.2,1.6,6.4,3.22,9.62,4.8l-.12-.46a22.78,22.78,0,0,0-1.65,5.84c-.27,2-.14,4-.3,6a8.16,8.16,0,0,1-1.71,4.8,4,4,0,0,1-4.2,1.44,10.76,10.76,0,0,1-2.59-1.22c-.89-.52-1.77-1.05-2.63-1.61-1.7-1.08-3.4-2.2-5-3.44A7.24,7.24,0,0,1,79,129.29a4.8,4.8,0,0,1,1.86-4.54,21,21,0,0,1,2.62-1.86c.89-.57,1.76-1.18,2.6-1.83a27.26,27.26,0,0,0,4.52-4.59c.13-.16-.09-.39-.23-.23Z"/><path class="cls-3" d="M94.34,118a2.23,2.23,0,0,1,2.8-.72,2.11,2.11,0,0,1,.79,2.72c-.2.38.39.73.59.34a2.8,2.8,0,0,0-.36-3,2.61,2.61,0,0,0-2.9-.72,2.33,2.33,0,0,0-1.35,1.17.25.25,0,0,0,.43.25Z"/><path class="cls-3" d="M101.22,110.84a1,1,0,0,1,.5.34l0,0a.21.21,0,0,0,0,.06l.08.16h0v0l0,.08a1,1,0,0,1,0,.17s0,0,0,.08v0a1.28,1.28,0,0,1,0,.19s0,0,0,.07,0,0,0,0a.94.94,0,0,1,0,.16s0,.09,0,0l0,.07,0,.07s0,.07,0,0l-.12.12s-.06,0,0,0l-.08.05-.07,0,0,0s0,0-.05,0l-.09,0H101s0,0,0,0-.12,0-.16,0-.14,0-.16,0,.06,0,0,0h0l-.08-.05-.06,0a.05.05,0,0,1,0,0h0s0,0,0,0l0,0-.06-.06-.06-.06,0,0s0,.06,0,0-.06-.09-.08-.14,0,0,0,0a.24.24,0,0,1,0-.08l0-.09s0,0,0,0a.13.13,0,0,1,0-.06s0-.15,0-.19v0a.08.08,0,0,0,0,0l0-.11s0-.08,0-.1v0l0-.05a.93.93,0,0,1,.11-.19s.06-.08,0,0l.08-.09s.1-.09.15-.14,0,0,0,0l.05,0,.09-.06.08,0c-.07,0,0,0,.05,0l.1,0h.26a.35.35,0,0,0,.09-.68,1.65,1.65,0,0,0-1.73.93,1.61,1.61,0,0,0-.12,1.06,1.46,1.46,0,0,0,.56.8,1.77,1.77,0,0,0,1.71.15,1.4,1.4,0,0,0,.77-1.49,1.47,1.47,0,0,0-1.28-1.28c-.19,0-.22.27,0,.32Z"/><path class="cls-3" d="M96,111.31l-.45-.15a.45.45,0,0,0-.39.14,1.2,1.2,0,0,0-.36.55,1.18,1.18,0,0,0,.31,1.26,1.31,1.31,0,0,0,1.33.21,1.19,1.19,0,0,0,.76-1.21,1.49,1.49,0,0,0-.35-.81,1.31,1.31,0,0,0-.31-.27,1.11,1.11,0,0,0-.47-.14.33.33,0,0,0-.33.29.35.35,0,0,0,.24.37h0a.51.51,0,0,0,.12,0c-.1,0,0,0,0,0l.1.06c.06,0-.06,0,0,0l.06,0a.5.5,0,0,0,.07.08s0-.07,0,0l0,0a.27.27,0,0,1,.06.1s0,.07,0,0l0,.07,0,.12s0,.07,0,0,0,0,0,.06v.1s0,.07,0,0,0,0,0,.07,0,0,0,.06,0,.06,0,0,0,.07,0,.1l0,0,0,0,0,0-.08.08,0,0,0,0,0,0-.1.06-.06,0c-.06,0,.08,0,0,0l-.13,0h-.34l-.06,0h0s0,0,0,0a.25.25,0,0,1-.09,0l-.05,0h0l-.1-.1s0,0,0,0l0,0a.08.08,0,0,1,0,0s0-.07,0,0a1,1,0,0,1-.06-.23c0,.07,0,0,0,0V112c0-.07,0,0,0,0s0-.05,0-.08l0-.11v0l0-.07,0,0s.05-.06,0,0a.55.55,0,0,1,.17-.17l-.14,0,.27,0a1,1,0,0,1,.24,0,.13.13,0,0,0,.07-.25Z"/><path class="cls-3" d="M94,128.06a2.72,2.72,0,0,0-1.49-.18,1.87,1.87,0,0,0-.94.59,2,2,0,0,0-.3,2.17,2.07,2.07,0,0,0,1.86,1,1.86,1.86,0,0,0,1.72-1.3,2.09,2.09,0,0,0-.75-2.34.36.36,0,0,0-.45.09.35.35,0,0,0,0,.46s.11.09.15.14l.08.07,0,0h0a1.18,1.18,0,0,1,.11.19l0,.09c0-.05,0,0,0,.06l.06.2s0,.07,0,.1a.09.09,0,0,0,0,.05s0,0,0,0a1.62,1.62,0,0,1,0,.22v.11s0,.12,0,0a1.18,1.18,0,0,1,0,.2l0,.1,0,.05s0,0,0,0a1.62,1.62,0,0,1-.1.18l-.07.1c0-.05,0,0,0,0l-.07.07s-.07.07-.06.05l-.06,0-.1.06-.09.05c.06,0,0,0,0,0a1,1,0,0,1-.23.06h-.5l-.21,0-.11,0h0l0,0a1.18,1.18,0,0,1-.19-.11,1.41,1.41,0,0,1-.27-.24h0l0,0-.06-.1,0-.09s0-.05,0,0,0,0,0,0a1.46,1.46,0,0,1,0-.2s0,0,0,0a.11.11,0,0,0,0-.05v-.22s0-.1,0-.05a2,2,0,0,1,0-.24,1.08,1.08,0,0,1,.17-.34,1.24,1.24,0,0,1,.62-.54,1.27,1.27,0,0,1,.55-.07,4.57,4.57,0,0,1,.72.14.28.28,0,0,0,.15-.53Z"/><path class="cls-3" d="M108.93,95.28a.73.73,0,0,0-.48-.25,1,1,0,0,0-.51.1,1.27,1.27,0,0,0-.66.76,1.75,1.75,0,0,0,.4,1.77,1.67,1.67,0,0,0,2.8-1.34,1.7,1.7,0,0,0-1.61-1.52.34.34,0,0,0-.34.3.33.33,0,0,0,.25.37,2,2,0,0,1,.35.09c-.08,0,0,0,0,0l.06,0,.08.06c.07,0,0,0,0,0a.93.93,0,0,1,.14.14.1.1,0,0,1,0,0l0,0a.64.64,0,0,1,.08.14l0,.09c0,.07,0,0,0,0a1.05,1.05,0,0,1,0,.19.13.13,0,0,1,0,.06c0-.09,0,0,0,0v.16c0-.09,0,0,0,0a.44.44,0,0,0,0,.1s0,.11,0,0l0,.09-.08.13c0,.07,0,0,0,0l0,.05-.14.13c.07,0,0,0,0,0l-.07,0-.14.07h0l-.07,0-.18,0c.09,0,0,0,0,0h-.24c-.1,0,0,0,0,0l-.08,0-.09,0s-.1,0,0,0l-.16-.1c.06,0,0,0-.06-.06a1.14,1.14,0,0,1-.11-.11c0,.06,0,0,0,0l0-.08,0-.08c0-.09,0,0,0,0l-.06-.16,0-.15c0,.07,0,0,0,0v-.18s0-.1,0,0a1.17,1.17,0,0,1,0-.2s0,0,0-.06,0-.05,0-.06l0,0,0-.06s0,0,0,0l0-.06.06,0,.08,0s.09,0,0,0l.14,0h.21l-.13,0,.08,0a.25.25,0,0,0,.35-.35Z"/><path class="cls-3" d="M105.5,88.27h0l0,0,.06,0,0,0,.09.1s0,.06,0,0h0l0,0,.07.12s0,.08,0,0,0,0,0,0v.05a.5.5,0,0,1,0,.13s0,0,0,.06,0,0,0,0v0a.57.57,0,0,1,0,.13s0,0,0,.08v0s0-.08,0,0l0,.13s0,0,0,.06,0-.05,0,0l-.06.11,0,0,0,0,0,.06-.05.05s0,0,0,0l-.13.07s.07,0,0,0h-.06l-.07,0h0s.09,0,0,0h-.2c-.09,0,.07,0,0,0a1.28,1.28,0,0,1-.28-.07c-.06,0,.07,0,0,0l-.07,0-.13-.08c-.05,0,.06,0,0,0l0,0-.06-.06,0,0,0,0,0-.06,0-.06,0,0,0,0a.7.7,0,0,0,0-.14v0s0,0,0,0V89s0,.08,0,0a.31.31,0,0,1,0-.08.25.25,0,0,1,0-.07v0c0-.06,0,0,0,0s.07-.14.09-.16l0,0s-.05.06,0,0a.46.46,0,0,1,.07-.07l.06-.06,0,0s0,0,0,0l.16-.1.09,0,0,0,.06,0,.17,0h.12c.06,0-.09,0,0,0l.11,0a.39.39,0,0,0,.48-.27.4.4,0,0,0-.27-.49,1.55,1.55,0,0,0-1.7.7,1.32,1.32,0,0,0,.19,1.7,1.55,1.55,0,0,0,1.53.36,1.33,1.33,0,0,0,.68-.51,1.45,1.45,0,0,0,.21-.76,1.39,1.39,0,0,0-1-1.35.25.25,0,0,0-.31.17.27.27,0,0,0,.17.32Z"/><path class="cls-3" d="M116.9,99.5a1.25,1.25,0,0,0-.88-.32,1.69,1.69,0,0,0-.9.29,1.55,1.55,0,0,0-.69,1.73,1.85,1.85,0,0,0,1.54,1.25,1.56,1.56,0,0,0,1.57-.92,1.76,1.76,0,0,0-.36-2,.4.4,0,0,0-.54,0,.39.39,0,0,0,0,.53l.12.12,0,0s0-.06,0,0a.22.22,0,0,1,0,.08.16.16,0,0,1,0,.07s0,.06,0,0a1.21,1.21,0,0,1,0,.18s0,0,0,.08,0,.07,0,0,0,.11,0,.17,0,.12,0,.18h0l0,.09s0,.11,0,.16l0,.08s0-.06,0,0,0,0,0,0a1,1,0,0,1-.08.14s0,.08,0,0l0,0a.23.23,0,0,1-.07.07l0,0,0,0-.09,0s-.07,0,0,0l-.08,0-.1,0h0s0,0,0,0H116s-.09,0,0,0l-.12,0-.17-.06c-.06,0,0,0,0,0l-.1,0-.16-.11s0,0,0,0l-.07-.07-.07-.07,0,0s0,0,0,0l0-.06a.41.41,0,0,1,0-.09.28.28,0,0,1,0-.06s0,0,0,0l0-.09v0s0-.09,0,0,0-.05,0-.06v-.09s0-.09,0-.06,0,0,0-.07a.24.24,0,0,1,0-.08s0-.09,0-.07,0,0,0,0a.35.35,0,0,1,.05-.08l0-.07s0,0,0,0l.14-.14,0,0h0l.08-.05a1.18,1.18,0,0,1,.19-.11h0l.09,0,.2,0h.42l.09,0,.2.06c.19.08.35-.22.2-.35Z"/><path class="cls-3" d="M145.49,3.29c-1,.2-1.88.45-2.83.69-.24.06-.13.41.11.37,1-.15,1.94-.28,2.91-.48l1.14,3.59h0l-.35.1c-.25.07-.49.15-.74.24a10.88,10.88,0,0,0-1.43.66c-.29.17,0,.6.27.45s.9-.39,1.37-.56q.35-.12.69-.21l.42-.1c.13.43.27.86.4,1.29.37,1.21.73,2.41,1.09,3.62-.32.15-.65.28-1,.4a5.1,5.1,0,0,1-.63.2l-.64.16a.15.15,0,0,0,0,.29,4.11,4.11,0,0,0,.7,0l.69-.1a5.61,5.61,0,0,0,1-.3c.44,1.48.88,3,1.31,4.44-1.56.74-3.12,1.47-4.7,2.17l-3.07,1.34c-1.74-5.43-3.56-10.84-5.4-16.24L135,0h-.78q2.06,6.35,4.12,12.69,1.5,4.59,3.06,9.17l-1.23.49c-.31.11-.73.29-1,0a2.47,2.47,0,0,1-.47-1c-.3-.87-.61-1.73-.91-2.6L136,13.56Q133.71,6.8,131.51,0h-.91c.29.92.57,1.84.86,2.75Q133.2,8.2,135,13.62q.91,2.67,1.84,5.34l1,2.73c.26.72.54,1.53,1.37,1.72a2.15,2.15,0,0,0,1.3-.18c.51-.19,1-.41,1.5-.62,1-.41,1.92-.83,2.88-1.26q2.92-1.32,5.81-2.76a.4.4,0,0,0,.18-.46c-1.51-5.36-3.19-10.65-4.93-15.93-.25-.74-.49-1.47-.74-2.2h-.79C144.77,1.09,145.13,2.19,145.49,3.29Z"/><path class="cls-3" d="M140.83.41a12,12,0,0,0,2-.41h-2C140.56.05,140.61.43,140.83.41Z"/><path class="cls-4" d="M135.28,98.93a9.13,9.13,0,0,0-8.63.84,10.58,10.58,0,0,0-4.09,5.92,11,11,0,0,0,.56,7.4,12.41,12.41,0,0,0,5.56,5.67,13.49,13.49,0,0,0,7.86,1.45A15,15,0,0,0,144,117a14,14,0,0,0,4.64-6.86,11.27,11.27,0,0,0-.94-9,9,9,0,0,0-6.51-4.3,7.47,7.47,0,0,0-6.79,3.12,6.27,6.27,0,0,0-.82,1.71c-.16.5.62.71.78.21a6.51,6.51,0,0,1,5.36-4.18,7.56,7.56,0,0,1,6.54,2.73,9.7,9.7,0,0,1,2,7.94,12.84,12.84,0,0,1-3.68,7.07,13.33,13.33,0,0,1-13.9,3.24,12.3,12.3,0,0,1-5.8-4.37,9.89,9.89,0,0,1-1.74-6.59,10.27,10.27,0,0,1,2.65-6A8.76,8.76,0,0,1,132.93,99a10.65,10.65,0,0,1,2.16.39c.27.09.47-.35.19-.47Z"/><path class="cls-4" d="M135,99c-.84-1-1.73-2-2.56-3-.29-.36-.54-.75-.21-1.18a3,3,0,0,1,1.19-.82L133,93.8a17.26,17.26,0,0,1,1.09,2.45c.14.42.27.83.38,1.26s.17.89.32,1.32.63.28.61-.09a6.32,6.32,0,0,0-.28-1.36c-.12-.46-.26-.91-.41-1.35a19.56,19.56,0,0,0-1.14-2.56.31.31,0,0,0-.37-.15,3.74,3.74,0,0,0-1.5.94,1.41,1.41,0,0,0-.19,1.64,5.26,5.26,0,0,0,.64.85c.25.31.51.62.77.92a19.49,19.49,0,0,0,1.67,1.73A.31.31,0,0,0,135,99Z"/><path class="cls-4" d="M135.65,99.33a15.94,15.94,0,0,1,.66-8.13A14.68,14.68,0,0,1,140.57,85a15,15,0,0,1,3.52-2.27l-.52-.3A17.28,17.28,0,0,1,138.4,95.3a16.36,16.36,0,0,1-3.16,2.46.35.35,0,0,0,.36.6A17.23,17.23,0,0,0,144,86.66a16.85,16.85,0,0,0,.3-4.19.36.36,0,0,0-.52-.3,15.68,15.68,0,0,0-6,4.83,14.93,14.93,0,0,0-2.91,7.67,14,14,0,0,0,.39,4.78c.07.28.48.16.43-.12Z"/><path class="cls-4" d="M34.92,132a14.28,14.28,0,0,0-3.41-7.38,13.89,13.89,0,0,0-6.63-4.86,15.05,15.05,0,0,0-5-.36,13.15,13.15,0,0,0-4.36,1,14,14,0,0,0-6,21.32,14.49,14.49,0,0,0,6.55,4.82,13.58,13.58,0,0,0,8.15.34c5.72-1.53,10.5-6.64,10.85-12.68a11.15,11.15,0,0,0-.11-2.31c0-.34-.66-.26-.61.09.77,5.84-3.22,11.4-8.5,13.59a13.11,13.11,0,0,1-7.8.74,13.75,13.75,0,0,1-6.62-3.66,12.74,12.74,0,0,1-3.6-6.77,13.68,13.68,0,0,1,.89-7.71,13.09,13.09,0,0,1,5.3-6.07A13.26,13.26,0,0,1,18,120.53a16,16,0,0,1,4.47-.33,9.67,9.67,0,0,1,4.11,1.12,14.46,14.46,0,0,1,3.13,2.38A17.4,17.4,0,0,1,34,130.38a14.46,14.46,0,0,1,.48,1.71C34.53,132.33,34.94,132.28,34.92,132Z"/><path class="cls-4" d="M7.44,132.46c1.44-.75,3.18-.41,4.73-.24a11.42,11.42,0,0,0,4.76-.33,7.16,7.16,0,0,0,5.2-6.47c.06-1.83-.42-3.7.3-5.46.17-.4-.5-.67-.7-.29-.73,1.43-.53,3-.45,4.59a8.57,8.57,0,0,1-.11,2.32,5.57,5.57,0,0,1-.87,1.94,6.74,6.74,0,0,1-3.47,2.56,11,11,0,0,1-4.66.38,8.21,8.21,0,0,0-5,.59.24.24,0,0,0,.24.41Z"/><path class="cls-4" d="M34.6,130.6a2.44,2.44,0,0,0-1.13.15A11,11,0,0,1,32,131a23.28,23.28,0,0,1-2.77,0,5.91,5.91,0,0,0-2.57.4,8.69,8.69,0,0,0-2.06,1.26,10.25,10.25,0,0,0-3.15,3.62,10.26,10.26,0,0,0-.4,5.19,11.78,11.78,0,0,1,0,2.72,5.2,5.2,0,0,1-1,2.36c-.24.34.3.74.58.45a6,6,0,0,0,1.2-4.25c0-1.71-.43-3.45,0-5.14a7.81,7.81,0,0,1,2.76-4,6.74,6.74,0,0,1,4.45-2,19.77,19.77,0,0,0,3-.06,11.4,11.4,0,0,0,1.54-.33,1.91,1.91,0,0,0,1.08-.58s0,0,0,0Z"/><path class="cls-4" d="M9.05,140.09a10.71,10.71,0,0,0,5-2c1.59-1,3.16-2,4.67-3.12a23.41,23.41,0,0,0,7.14-7.87,12.92,12.92,0,0,0,1.52-5.56c0-.43-.62-.42-.66,0a16,16,0,0,1-4,9,37,37,0,0,1-8.29,6.6A14.42,14.42,0,0,1,9,139.65c-.25,0-.19.45.06.44Z"/><path class="cls-4" d="M11.08,124.33a50,50,0,0,1,4.56,2.59,30.62,30.62,0,0,1,4.16,3.28,31,31,0,0,1,6.26,8.38,26.17,26.17,0,0,1,1.19,2.71c.36.94.62,1.91.93,2.87a.39.39,0,0,0,.76-.21,16,16,0,0,0-.75-2.6c-.3-.85-.64-1.7-1-2.52a29.14,29.14,0,0,0-2.69-4.7,29.6,29.6,0,0,0-7.75-7.55,20.54,20.54,0,0,0-5.48-2.69.24.24,0,0,0-.18.44Z"/><path class="cls-3" d="M76.48,88.68A41.3,41.3,0,0,0,71,94.33c-.82,1-1.61,2.08-2.34,3.17a6.47,6.47,0,0,0-1.4,3.47A4.43,4.43,0,0,0,69,104.1a26.07,26.07,0,0,0,3.09,2.56,1.94,1.94,0,0,0,1.76.28,8.72,8.72,0,0,0,1.74-.84,17.29,17.29,0,0,0,3-2.37,40.56,40.56,0,0,0,5.08-5.94c.37-.53.72-1.07,1.07-1.61a11.27,11.27,0,0,0,.94-1.61c.53-1.26-.47-2.29-1.38-3a9.5,9.5,0,0,0-1.5-1,4.89,4.89,0,0,0-1.71-.69,2.54,2.54,0,0,0-1.68.74c-.5.36-1,.74-1.47,1.13a31.21,31.21,0,0,0-5.21,5.44c-.71,1-1.64,2.11-1.39,3.39a2.29,2.29,0,0,0,2.09,1.71,3.65,3.65,0,0,0,2.87-1.14,29.8,29.8,0,0,0,2.57-3l1.35-1.67c.35-.42-.25-1-.61-.61l-2.46,3a8.6,8.6,0,0,1-2.26,2.28,2.07,2.07,0,0,1-2.3-.06c-.91-.74-.16-2,.36-2.71a29.64,29.64,0,0,1,4.46-5A30.46,30.46,0,0,1,80,91.19a4.54,4.54,0,0,1,.69-.45,1,1,0,0,1,.84.11,8.71,8.71,0,0,1,1.43.8,8.47,8.47,0,0,1,1.27,1A1.69,1.69,0,0,1,84.88,94a3.85,3.85,0,0,1-.72,1.48c-.3.5-.62,1-.94,1.46a39,39,0,0,1-4.45,5.39,22.85,22.85,0,0,1-2.54,2.28,11.75,11.75,0,0,1-1.41.92,4.26,4.26,0,0,1-1.56.64c-.52,0-1.08-.52-1.47-.82s-.94-.74-1.39-1.14a6.42,6.42,0,0,1-2.12-2.51,3.91,3.91,0,0,1,.81-3.12c.61-1,1.3-1.93,2-2.86a55.09,55.09,0,0,1,4.61-5.29c.41-.42.82-.83,1.24-1.24s-.14-.73-.46-.46Z"/><path class="cls-3" d="M84.42,43.1A19.52,19.52,0,0,0,75.87,52a17.38,17.38,0,0,0,5.54,22,15.2,15.2,0,0,0,20.71-3.57,14.3,14.3,0,0,0,.75-1.22.53.53,0,0,0-.45-.79,23.49,23.49,0,0,1-8.3-1,13.48,13.48,0,0,1-5.65-3.84,21.16,21.16,0,0,1-5-12.69c-.16-2.66.21-5.57,2-7.69.28-.34-.19-.84-.49-.5a10.63,10.63,0,0,0-2.39,7,23,23,0,0,0,1.17,7.36C85.23,61.65,88.11,66,92.6,68a22.3,22.3,0,0,0,9.82,1.46l-.45-.78A13.54,13.54,0,0,1,93.66,75a13.88,13.88,0,0,1-10.54-1.19,16.27,16.27,0,0,1-7.18-8.66,16.72,16.72,0,0,1,.15-11.5,20.25,20.25,0,0,1,7.33-9.32c.4-.29.81-.56,1.23-.82a.23.23,0,0,0-.23-.39Z"/><path class="cls-3" d="M84.33,43a18.62,18.62,0,0,0-5.17,7.93,16.74,16.74,0,0,0-.58,9.17,15.87,15.87,0,0,0,4,7.37,13.53,13.53,0,0,0,7.83,4.05,21.47,21.47,0,0,0,11.29-2c.46-.19.07-.87-.39-.67a20.82,20.82,0,0,1-9.7,1.93,12.76,12.76,0,0,1-7.81-3.29,14.79,14.79,0,0,1-4.14-6.77,16,16,0,0,1,0-8.63,22.57,22.57,0,0,1,5-8.81.23.23,0,0,0-.32-.32Z"/><path class="cls-3" d="M42.11,37.7c.32,2.82.82,5.62,1.29,8.41s1,5.62,1.51,8.42a.44.44,0,0,0,.54.31c5.62-1.26,11.21-2.71,16.73-4.34,1.58-.46,3.15-1,4.71-1.45a.44.44,0,0,0,.31-.54c-1.26-4.34-2-8.83-3.48-13.11a9.9,9.9,0,0,0-.56-1.49A1.1,1.1,0,0,0,62,33.37l-.66.1-2.06.28c-2.21.3-4.43.61-6.63,1S48,35.48,45.73,36a23.78,23.78,0,0,0-2.38.63,2.35,2.35,0,0,0-1.29.75.59.59,0,0,0-.09.32c0,.54.86.55.84,0a.32.32,0,0,1-.05.14l.07-.07c-.14.08,0,0,.05,0l.24-.13.1,0,.22-.08a15.93,15.93,0,0,1,2.15-.6c2.14-.5,4.31-.86,6.48-1.21s4.4-.69,6.6-1L61,34.38l.74-.1.25,0h.07c.08,0,.21,0,.29,0s.14.27.18.37c1.74,4.57,2.48,9.45,3.84,14.13l.3-.53Q58.44,50.84,50,52.9c-1.6.39-3.21.73-4.82,1.08l.54.31c-.52-2.77-1.07-5.55-1.58-8.33s-1-5.57-1.52-8.33C42.6,37.33,42.08,37.39,42.11,37.7Z"/><path class="cls-3" d="M42.75,38.25c.73.39,1.51.71,2.26,1.06l2.28,1,4.58,2c.62.27,1.39.77,2.08.48a1.79,1.79,0,0,0,.67-.58l.79-.93c1-1.16,2.06-2.3,3.14-3.39.6-.61,1.21-1.21,1.84-1.79s1.34-1.14,2-1.76c.34-.34-.13-1-.54-.69a34,34,0,0,0-3.25,3q-1.59,1.56-3,3.22c-.48.54-1,1.1-1.42,1.66-.18.22-.37.58-.7.54a4.83,4.83,0,0,1-1.11-.46L48,39.72l-2.43-1c-.84-.36-1.67-.75-2.53-1.06-.36-.13-.6.45-.26.63Z"/><path class="cls-3" d="M50.15,41.34a26,26,0,0,0-1.27,3c-.42,1-.83,2-1.24,3s-.81,2-1.21,3l-.63,1.56c-.2.51-.45,1-.61,1.55a.4.4,0,0,0,.73.31c.5-.95.84-2,1.25-3l1.23-3,1.2-3c.2-.52.41-1,.62-1.56a14.62,14.62,0,0,0,.58-1.56.36.36,0,0,0-.65-.27Z"/><path class="cls-3" d="M55.22,41a42.32,42.32,0,0,0,5.3,3.94c1.86,1.2,3.76,2.37,5.71,3.41a.42.42,0,0,0,.42-.72c-1.9-1.1-3.79-2.2-5.63-3.4s-3.62-2.48-5.47-3.65c-.26-.16-.56.22-.33.42Z"/><path class="cls-3" d="M19.14,31.82A8.27,8.27,0,0,0,12,29.16,5,5,0,0,0,9.1,30.58a3.37,3.37,0,0,0-.73,3.28,6.48,6.48,0,0,0,6.05,4.21c3-.14,4-3.31,4.66-5.72a36.31,36.31,0,0,0,.68-10.3l-.44.34C23.67,23.67,28,25,32.38,26.18l-.29-.49a95.88,95.88,0,0,0-2.15,11.65l.66-.18a8.78,8.78,0,0,0-2.06-2.48,6.59,6.59,0,0,0-3-1.54A4.24,4.24,0,0,0,21,35.83a4.87,4.87,0,0,0,1.24,5.28A5.24,5.24,0,0,0,28,42.42c2.05-1,2.39-3.54,2.63-5.54.05-.44-.66-.45-.7,0-.15,1.53-.41,3.41-1.69,4.45S24.68,42,23.32,41a4.3,4.3,0,0,1-1.83-4.34,3.68,3.68,0,0,1,3.43-2.85,5.32,5.32,0,0,1,3,1.31,8.12,8.12,0,0,1,2,2.4c.19.34.62.14.66-.18A91,91,0,0,1,32.87,25.9a.42.42,0,0,0-.28-.5c-4.34-1.29-8.72-2.47-13.09-3.68a.35.35,0,0,0-.44.33,41.9,41.9,0,0,1-.3,8.15,19.48,19.48,0,0,1-1,4,5.21,5.21,0,0,1-1.92,2.72c-2.07,1.27-5-.35-6.21-2.13a3,3,0,0,1-.38-3.05,3.51,3.51,0,0,1,2.29-1.64,8.09,8.09,0,0,1,7.24,2.1.25.25,0,0,0,.35-.36Z"/><path class="cls-3" d="M31.27,30.74a4.06,4.06,0,0,0-1.2-.68c-.43-.19-.87-.35-1.32-.5-.92-.31-1.86-.54-2.79-.77l-6.19-1.58a.39.39,0,0,0-.21.76l6.06,1.52c.92.24,1.84.46,2.76.72.44.13.88.27,1.31.44s.86.42,1.32.55a.27.27,0,0,0,.26-.46Z"/><path class="cls-3" d="M14.38,4.38a28,28,0,0,0-3.3,4.43,45.08,45.08,0,0,0-2.65,4.88c-.38.84-.75,1.69-1.07,2.55a1.84,1.84,0,0,0-.14,1.22,2.82,2.82,0,0,0,.88,1.09A8.83,8.83,0,0,0,10.31,20,2.45,2.45,0,0,0,12.82,20a9.67,9.67,0,0,0,1.82-1.85c.59-.69,1.14-1.41,1.66-2.14s1-1.51,1.46-2.3A13.68,13.68,0,0,0,19,11.23c.5-1.43.3-3.4-1.32-4-1.78-.67-3.16,1-3.94,2.39-.54.92-1.1,1.84-1.61,2.78-.4.73-.67,1.77.09,2.37s1.59,0,2.09-.56A11.88,11.88,0,0,0,15.07,13c.32-.51.63-1,.95-1.52s-.33-.68-.56-.33c-.48.73-.94,1.47-1.43,2.2-.24.36-.91,1.28-1.43.84s.16-1.54.44-2c.41-.7.82-1.4,1.24-2.1a5.16,5.16,0,0,1,1.39-1.75,1.76,1.76,0,0,1,1.85-.24c1.33.75.84,2.59.31,3.66a25.14,25.14,0,0,1-2.37,3.91q-.68.93-1.44,1.8a11,11,0,0,1-1.54,1.58,1.41,1.41,0,0,1-.83.33A2.54,2.54,0,0,1,10.49,19,7.67,7.67,0,0,1,8.7,17.7c-.21-.21-.54-.45-.47-.77a7.31,7.31,0,0,1,.44-1.09c.3-.71.6-1.42.93-2.12.73-1.56,1.53-3.1,2.41-4.59s1.88-2.94,2.8-4.42a.27.27,0,0,0-.43-.33Z"/><path class="cls-3" d="M61.79,71.45c-2.84-.8-6.19-1.63-7.64-4.51a3.81,3.81,0,0,1,0-3.62,2.79,2.79,0,0,1,3.1-1.48c1.51.39,2.57,1.82,3.43,3a.37.37,0,0,0,.68-.18,8.06,8.06,0,0,1,1.56-4.08,1.71,1.71,0,0,1,3.16.16,4.65,4.65,0,0,1,.39,2.08,11.88,11.88,0,0,1-.19,2.31,12.46,12.46,0,0,1-1.57,4.25A3.48,3.48,0,0,1,63,71a3,3,0,0,1-2.15,0c-.38-.14-.66.5-.28.67A3.68,3.68,0,0,0,65,70.63a11.44,11.44,0,0,0,2.15-4.93A12.5,12.5,0,0,0,67.36,63a5.75,5.75,0,0,0-.53-2.58,2.87,2.87,0,0,0-1.77-1.48,2.32,2.32,0,0,0-2.14.58,6.52,6.52,0,0,0-1.59,2.37,8.85,8.85,0,0,0-.7,2.82l.68-.19a8.57,8.57,0,0,0-3.4-3.2,3.49,3.49,0,0,0-4,.91,4.47,4.47,0,0,0-1,4.14,6.56,6.56,0,0,0,2.85,3.73A15.29,15.29,0,0,0,61.65,72a.27.27,0,0,0,.14-.53Z"/><path class="cls-3" d="M137.4,60.75a8.47,8.47,0,0,0-.51,7.35,10.17,10.17,0,0,0,5,5.42,12.3,12.3,0,0,0,4,1.17c.22,0,.4-.21.4-.4A15.86,15.86,0,0,0,141,62.36a12.08,12.08,0,0,0-3.15-2.09c-.39-.17-.74.36-.34.59a20.17,20.17,0,0,1,2.68,1.79,15.37,15.37,0,0,1,2.21,2.28,14.73,14.73,0,0,1,2.77,5.74,14.22,14.22,0,0,1,.36,3.62l.51-.39a11.38,11.38,0,0,1-6.09-2.85,8.78,8.78,0,0,1-2.82-6.14,8.36,8.36,0,0,1,.85-3.84.32.32,0,0,0-.56-.32Z"/><path class="cls-3" d="M157.53,101.09a14.26,14.26,0,0,1-3.74-4.55,19.61,19.61,0,0,1-1.09-5.93q-.33-3.19-.62-6.39-.6-6.47-1.06-12.94t-.8-13c-.06-1.07-.1-2.14-.15-3.21A26.44,26.44,0,0,1,150,52a3.83,3.83,0,0,1,2.1-3.13.33.33,0,0,1,.19-.23c.32-.16.64-.3,1-.44a12.27,12.27,0,0,1,4.27-1V50.7c-.77.07-1.55.15-2.31.29a18.69,18.69,0,0,0-2.54.59l-.18.06-.43.35a.54.54,0,0,1-.56.1,6.22,6.22,0,0,1-.69.49c0,.33.05.67.07,1,0,.17,0,.35,0,.53A.3.3,0,0,1,151,54a38.15,38.15,0,0,1,6.51-1.76v1l-1,.17-2.28.45c.34,1.46.59,2.93.87,4.4s.56,3.11.83,4.66c.56,3.25,1.08,6.51,1.6,9.77V78q-.6-3.87-1.24-7.74c-.47-2.75-.95-5.49-1.43-8.24s-1-5.31-1.36-8l-2.35.48a.28.28,0,0,1-.22-.06c.1,2,.2,4.05.31,6.07.44,8.39,1.08,16.76,1.87,25.12.19,2.09.4,4.17.62,6.26a19.35,19.35,0,0,0,.52,3.15,5,5,0,0,1,3.12-.92l.16,0v1a5.15,5.15,0,0,0-3,.74,6.78,6.78,0,0,0,.7,1.4,14.71,14.71,0,0,0,2.32,2.61Zm-1.65-51.7.81-.08a.13.13,0,0,1,0-.06c-.23,0-.45,0-.67.07Zm-5,2.43a2.5,2.5,0,0,1,.34-.27.74.74,0,0,1,0-.14.5.5,0,0,1-.29-.16A2.82,2.82,0,0,0,150.83,51.82Z"/><path class="cls-3" d="M117.08,7c.11.74.23,1.47.37,2.2.06.32.13.64.2,1l.06.24s0,.07-.09.06a1.64,1.64,0,0,1-.5.17c-.63.22-1.24.47-1.84.74s-1.22.43-1.28,1a1.86,1.86,0,0,0,.25.88c.13.33.26.65.4,1,.21.51.37,1.16,1,1.11a5.91,5.91,0,0,0,1.77-.57,11.52,11.52,0,0,0,1.76-1l-.56-.23c.53,1.36,1,2.76,1.54,4.1a.43.43,0,0,0,.51.29A11.11,11.11,0,0,0,123.66,17a.39.39,0,0,0,.17-.42c-.51-1.3-1.1-2.58-1.57-3.89l-.26.46c1.23-.44,2.39-1.07,3.63-1.5a.35.35,0,0,0,.23-.43c-.19-.64-.43-1.27-.66-1.9-.15-.42-.26-1.09-.77-1.22a1.64,1.64,0,0,0-.73.07c-.29.07-.59.15-.87.24s-.58.2-.86.31a3.77,3.77,0,0,1-.74.33,2.69,2.69,0,0,0-.13-.31l-.21-.5c-.11-.29-.23-.57-.36-.85l-.38-.87a3.38,3.38,0,0,0-.36-.74c-.37-.44-.93-.21-1.4-.06a14.57,14.57,0,0,0-1.77.77.38.38,0,0,0-.17.42,26.91,26.91,0,0,0,.87,4c.16.53,1,.3.83-.23a26.26,26.26,0,0,1-1-3.93l-.17.42a9.82,9.82,0,0,1,1.6-.67c.17-.06.49-.22.62-.12s.11.27.15.36l.15.38.66,1.6c.18.4.31,1,.78,1.14s.91-.19,1.32-.38a10.66,10.66,0,0,1,1.55-.57.91.91,0,0,1,.36-.09c.12,0,.11.08.16.22s.17.51.26.76c.19.55.37,1.11.59,1.65l.16-.39c-1.19.54-2.46.9-3.65,1.44a.38.38,0,0,0-.13.52c.57,1.27,1,2.6,1.57,3.88l.14-.5a8.37,8.37,0,0,1-2.79.9l.5.28c-.48-1.38-1.08-2.71-1.59-4.08a.39.39,0,0,0-.56-.23,12.37,12.37,0,0,1-1.6.77c-.27.11-.55.22-.83.31l-.36.12c-.06,0-.29.13-.36.11s-.25-.52-.32-.68-.25-.57-.37-.85a1.84,1.84,0,0,1-.17-.38c-.06-.07,0-.11,0-.13l.21-.08.82-.35c.56-.22,1.13-.42,1.7-.59s1-.34,1-1a7.16,7.16,0,0,0-.4-1.75c-.17-.62-.36-1.24-.55-1.86a.32.32,0,0,0-.62.17Z"/><path class="cls-3" d="M117.65,6.67c.34,1.36.75,2.69,1.11,4s.67,2.71,1,4l1-.26c-.48-1.39-.93-2.8-1.39-4.2-.22-.68-.47-1.35-.66-2-.13-.51-.22-1.21.32-1.51l-.59-.24c1,3.3,2,6.65,3.32,9.86l.22-.55a3.13,3.13,0,0,0-1,.7l.8.21c-.5-1.71-1-3.4-1.54-5.1-.24-.79-.51-1.58-.71-2.37a2.06,2.06,0,0,1,.11-1.89l-.6-.08c1.28,3,2.28,6.07,3.36,9.12a.47.47,0,0,0,.9-.24l-.87-3.69a11.26,11.26,0,0,0-1.1-3.22c-.26-.45-.87-.06-.68.4.35.8.69,1.6,1,2.39.19.42.71.14.76-.2a6.43,6.43,0,0,0-.15-2.35l-.73.31c.31.69.61,1.38.92,2.06.18.38.74.16.75-.21a8.57,8.57,0,0,0-.32-2.56l-.7.3c.31.73.63,1.45,1,2.18.16.36.72.16.72-.2A10.07,10.07,0,0,0,123.61,9l-.71.3c.29.64.57,1.28.85,1.93a.4.4,0,0,0,.74-.2c-.07-.73-.16-1.45-.24-2.17l-.7.19c.26.45.5.92.76,1.39.08.15.11.12,0,.21a1.43,1.43,0,0,1-.34.14l-.79.34-3,1.22c-1,.4-2,.82-3,1.18-.4.14-.83.24-1.14-.11a2.61,2.61,0,0,1-.48-1l-.19.49a11.36,11.36,0,0,1,3.6-1.39l-.42-.73a6.27,6.27,0,0,1-3.2,1.46.41.41,0,0,0-.3.3.58.58,0,0,0,.43.7,2.15,2.15,0,0,0,1.06-.14c.89-.21,1.78-.41,2.67-.63l-.34-.8L116,13.14a.44.44,0,0,0,.22.81,11.34,11.34,0,0,0,3.45-.75c.24-.1.44-.39.26-.63a5.85,5.85,0,0,1-1-2.54l-.77.21.63,2.54c.12.49.87.28.75-.21-.21-.84-.41-1.69-.61-2.54-.12-.51-.84-.28-.77.21A6.6,6.6,0,0,0,119.23,13l.26-.63a10.57,10.57,0,0,1-3.23.71l.22.81,2.85-1.44c.46-.23.14-.92-.34-.81l-1.77.43-.82.19-.41.1-.27.07s.09,0,.14.08l0,.34v-.06l-.3.31a7.06,7.06,0,0,0,3.57-1.69c.35-.3,0-.81-.42-.73A13.31,13.31,0,0,0,115,12.17a.44.44,0,0,0-.19.49c.28,1,.81,2,2,1.91a6.38,6.38,0,0,0,1.84-.59l2-.8c1.27-.53,2.53-1.08,3.78-1.64.48-.22,1-.5.85-1.14a4.36,4.36,0,0,0-.45-.82c-.18-.3-.37-.6-.54-.91s-.73-.19-.69.19c.06.72.12,1.45.2,2.17l.74-.2-.87-1.92c-.18-.41-.81-.11-.71.3a8.78,8.78,0,0,1,.27,2.17l.72-.19c-.32-.73-.64-1.45-.95-2.18-.18-.41-.83-.11-.71.3a7.44,7.44,0,0,1,.25,2.35l.76-.2c-.3-.69-.62-1.37-.93-2.05-.19-.43-.84-.12-.73.31a5.65,5.65,0,0,1,.11,2.13l.75-.2c-.35-.8-.7-1.6-1.06-2.39l-.68.4a10,10,0,0,1,1,3.18l.77,3.57.9-.24c-1-3.12-2.33-6.13-3.56-9.18a.39.39,0,0,0-.64-.17c-1.12,1.26-.31,3.14.09,4.52.55,1.89,1.1,3.76,1.67,5.64a.47.47,0,0,0,.79.21,1.83,1.83,0,0,1,.69-.48.49.49,0,0,0,.34-.6c-1.06-3.3-2.34-6.54-3.47-9.81a.42.42,0,0,0-.6-.25c-1.39.84-.66,2.63-.29,3.82.49,1.63,1,3.26,1.48,4.89a.49.49,0,0,0,1-.26c-.31-1.36-.74-2.7-1.16-4s-.84-2.67-1.38-4a.29.29,0,0,0-.57.15Z"/><path class="cls-3" d="M116.07,131.2c-1.75-1.39-3.56-3.54-3.44-5.92a2.49,2.49,0,0,1,1.54-2.28,1.77,1.77,0,0,1,2.18.47,4,4,0,0,1,.48,1.72,5.7,5.7,0,0,0,.42,1.72.37.37,0,0,0,.49.13c1.07-.58,2.34-1.31,3.6-.93a1.57,1.57,0,0,1,1.15,2.26,5.15,5.15,0,0,1-2.81,1.82,15,15,0,0,1-4,.86c-.53,0-.53.87,0,.83a15.56,15.56,0,0,0,3.76-.74,8.36,8.36,0,0,0,3-1.57,2.42,2.42,0,0,0,.86-2.55,2.73,2.73,0,0,0-2.17-1.66,6.1,6.1,0,0,0-3.77,1.07l.48.13c-.52-1.12-.23-2.48-1-3.52a2.46,2.46,0,0,0-2.67-.81,3.13,3.13,0,0,0-2.2,2.12,5.41,5.41,0,0,0,.55,4,8.53,8.53,0,0,0,3.11,3.39c.3.19.69-.28.39-.51Z"/><path class="cls-3" d="M68.28,146.73c1.59-1.71,3.14-3.46,4.72-5.18l-.57-.23c.23,2.49.5,5,.78,7.48l.63-.26a21.32,21.32,0,0,0-6-5.34l-.18.69a25.41,25.41,0,0,1,7.7,1.07l-.09-.71c-2.57,1.08-5.16,2.06-7.8,2.94l.41.7q2.43-2.23,4.89-4.46a.32.32,0,0,0,.08-.31,1.24,1.24,0,0,0-.55-.75.34.34,0,0,0-.5.28c.15,1.61.35,3.22.66,4.81l.68-.28a14.11,14.11,0,0,0-1.69-2.75.38.38,0,0,0-.58.08A3.32,3.32,0,0,1,69,146.22l.27.64,2.56-1.54a.33.33,0,0,0,0-.57,6.9,6.9,0,0,0-3.33-1.07c-.46,0-.44.65,0,.7,1.93.22,3.86.4,5.79.59.43.05.42-.63,0-.67-1.93-.22-3.86-.44-5.79-.62v.7a5.83,5.83,0,0,1,3,.94v-.57l-2.59,1.5c-.33.2-.11.78.27.64a4.05,4.05,0,0,0,2.31-2h-.63a13.72,13.72,0,0,1,1.63,2.67c.18.4.75.1.67-.29-.29-1.52-.55-3.06-.71-4.61l-.49.29a.53.53,0,0,1,.25.35l.09-.32c-1.67,1.46-3.34,2.89-5,4.33a.42.42,0,0,0,.4.7,56.57,56.57,0,0,0,8-3.08.39.39,0,0,0-.1-.71,30.57,30.57,0,0,0-7.9-1.06.37.37,0,0,0-.19.69A20.28,20.28,0,0,1,73.26,149c.19.25.74.22.69-.19-.27-2.5-.54-5-.85-7.48,0-.26-.36-.48-.57-.24-1.55,1.75-3.14,3.46-4.69,5.21-.26.3.17.73.44.44Z"/><path class="cls-3" d="M71.88,142.49l0,.8c0,.13,0,.26,0,.39a1.34,1.34,0,0,1,0,.2V144s0,.11,0,0a.31.31,0,0,0,0,.32.3.3,0,0,0,.27.16.32.32,0,0,0,.28-.16.33.33,0,0,0,0-.32s0,0,0,0,0,0,0-.06,0-.13,0-.19,0-.27,0-.41,0-.53,0-.8a.21.21,0,0,0-.42,0Z"/><path class="cls-3" d="M60.36,106.69a2.7,2.7,0,0,0,.33,3.35c.82.81,2,.87,3,1.4a1.27,1.27,0,0,1,.73,1.14,5.85,5.85,0,0,1-.45,1.71A2.69,2.69,0,0,0,63.9,116a2,2,0,0,0,1.19,1.15,13.74,13.74,0,0,1,1.77.62,1.44,1.44,0,0,1,.54,1.8c-.23.48.49.9.71.42a2.3,2.3,0,0,0-1.2-3.09c-.89-.39-2.44-.45-2.25-1.78.17-1.15,1-2.25.38-3.41-.5-1-1.73-1.26-2.69-1.61A2.5,2.5,0,0,1,60.92,109a2.08,2.08,0,0,1,0-2,.31.31,0,0,0-.53-.31Z"/><path class="cls-3" d="M148.4,26.19c-.54,1.94-1,3.94-1.33,5.92,0,.27.17.59.48.48.9-.3,1.8-.61,2.67-1,.44-.19.87-.39,1.3-.6s.84-.46,1.27-.66c.23-.1.2-.4.07-.56A24.26,24.26,0,0,0,151,27.84c-.63-.63-1.29-1.23-2-1.81-.39-.34-1,.23-.58.57.67.6,1.33,1.2,2,1.82s1.26,1.27,1.91,1.88c0-.19.05-.38.07-.57a14.18,14.18,0,0,1-2.48,1.2,20,20,0,0,1-2.6.9c.16.17.33.33.49.49.48-2,.91-4,1.2-6a.33.33,0,0,0-.63-.17Z"/><path class="cls-3" d="M148.78,123.51c-2-.26-4.08,1.87-3.35,3.85.54,1.47,2.24,1.82,3.46,2.54a2.66,2.66,0,0,1,.8.65c.21.28.43.76.19,1.07a1.61,1.61,0,0,1-.53.36,5.79,5.79,0,0,0-.72.5,5.9,5.9,0,0,0-1.08,1.15c-.57.8-1.29,2.11-.52,3a4.89,4.89,0,0,0,2.55,1.15c1,.26,2.09.67,2.15,1.86a2.47,2.47,0,0,1-2.15,2.35c-.58.14-.33,1,.25.89a3.51,3.51,0,0,0,2.42-1.78,2.74,2.74,0,0,0-.26-2.91,4.15,4.15,0,0,0-2.3-1.2,8.68,8.68,0,0,1-1.31-.42,3.16,3.16,0,0,1-.56-.33.66.66,0,0,1-.24-.78,5,5,0,0,1,1.87-2.53c.4-.28.9-.47,1.16-.91a1.55,1.55,0,0,0,0-1.36c-.57-1.46-2.27-1.81-3.48-2.54a1.77,1.77,0,0,1-.92-2.21,2.9,2.9,0,0,1,2.52-1.86.26.26,0,0,0,0-.52Z"/><path class="cls-3" d="M5.72,117.37a8.84,8.84,0,0,0,1.56-.57l1.55-.62,3-1.24c2-.82,4.07-1.64,6.12-2.44.44-.17.25-.89-.19-.71-2.07.8-4.14,1.6-6.21,2.42-1,.4-2.07.81-3.09,1.23L7,116.05a9.66,9.66,0,0,0-1.54.69.35.35,0,0,0,.26.63Z"/></pattern></defs><title>fondo_escritorio_fi</title><g class="cls-5"><g id="Capa_2" data-name="Capa 2"><g id="Full_Inclusion" data-name="Full Inclusion"><rect class="cls-6" x="0.17" width="1369.83" height="561"/><g class="cls-7"><path class="cls-8" d="M887.94,106.53C888,82.47,891.46,55,869.69,35.29c-5.42-4.9,3.79-12,9.24-7.1A62.83,62.83,0,0,1,891.3,43.33V31.74a4.09,4.09,0,0,1,1.31-3V.36H0V558H892.61V111.23C890.07,110.82,887.93,109.28,887.94,106.53Z"/></g><g class="cls-9"><path class="cls-10" d="M1363.81,145.89a151.4,151.4,0,0,1-34.68,4.05c-83.06,0-150.71-67-151.77-149.86h-.53a151.29,151.29,0,0,0,44.57,105.77,151.36,151.36,0,0,0,107.73,44.62,153.75,153.75,0,0,0,34.68-4Z"/><path class="cls-10" d="M1363.81,112.79a119.3,119.3,0,0,1-34.68,5.13A119.92,119.92,0,0,1,1209.38.08h-.53a120.44,120.44,0,0,0,120.28,118.37,119.73,119.73,0,0,0,34.68-5.11Z"/></g><circle class="cls-11" cx="1272.4" cy="106.54" r="6.65"/><path class="cls-3" d="M1189.35,42.12a7.83,7.83,0,1,1-7.83-7.82A7.83,7.83,0,0,1,1189.35,42.12Z"/><path class="cls-12" d="M1334.64,118.78a4.5,4.5,0,1,1-4.5-4.5A4.49,4.49,0,0,1,1334.64,118.78Z"/><path class="cls-12" d="M1191.17,66.11a2.56,2.56,0,1,1-2.56-2.55A2.56,2.56,0,0,1,1191.17,66.11Z"/><path class="cls-12" d="M1268.08,140.75a2.49,2.49,0,1,1-2.49-2.48A2.48,2.48,0,0,1,1268.08,140.75Z"/><path class="cls-12" d="M1227.64,111.43a1.15,1.15,0,1,1-1.15-1.15A1.14,1.14,0,0,1,1227.64,111.43Z"/></g></g></g></svg>