<svg xmlns="http://www.w3.org/2000/svg" xmlns:xlink="http://www.w3.org/1999/xlink" viewBox="0 0 97.88 113.68"><defs><style>.cls-1{fill:url(#linear-gradient);}.cls-2{fill:url(#linear-gradient-2);}.cls-3{fill:url(#linear-gradient-3);}.cls-4{fill:url(#linear-gradient-4);}.cls-5{fill:url(#linear-gradient-5);}.cls-6{fill:url(#linear-gradient-6);}</style><linearGradient id="linear-gradient" x1="97.88" y1="56.84" x2="0" y2="56.84" gradientUnits="userSpaceOnUse"><stop offset="0" stop-color="#4d4e4e"/><stop offset="1" stop-color="#221f1f"/></linearGradient><linearGradient id="linear-gradient-2" x1="183.76" y1="56.84" x2="-141.98" y2="56.84" gradientUnits="userSpaceOnUse"><stop offset="0" stop-color="#6a9dd3"/><stop offset="1" stop-color="#0e7dc1"/></linearGradient><linearGradient id="linear-gradient-3" x1="59.96" y1="237.5" x2="59.96" y2="150.23" xlink:href="#linear-gradient"/><linearGradient id="linear-gradient-4" x1="30.12" y1="237.5" x2="30.12" y2="150.23" xlink:href="#linear-gradient"/><linearGradient id="linear-gradient-5" x1="87.68" y1="5.17" x2="57.11" y2="49.06" xlink:href="#linear-gradient"/><linearGradient id="linear-gradient-6" x1="53.41" y1="29.8" x2="86.47" y2="29.8" xlink:href="#linear-gradient-2"/></defs><title>fi_logo</title><g id="Capa_2" data-name="Capa 2"><g id="Full_Inclusion" data-name="Full Inclusion"><path class="cls-1" d="M2.7,113.68A2.7,2.7,0,0,1,0,111V2.7A2.7,2.7,0,0,1,4.06.37L96.54,54.5a2.7,2.7,0,0,1,0,4.67L4.06,113.31A2.75,2.75,0,0,1,2.7,113.68Z"/><polygon class="cls-2" points="5.4 7.41 5.4 106.26 89.83 56.84 5.4 7.41"/><circle class="cls-3" cx="59.96" cy="101.73" r="11.02"/><path class="cls-4" d="M35.18,66.06v21.1h-10V66.06L6.06,35.72H16.72l13.4,22,13.44-22H54.18Z"/><circle class="cls-5" cx="70.53" cy="29.79" r="22.19"/><path class="cls-6" d="M85.22,40.51a17,17,0,0,1-6.61,5.38,20.8,20.8,0,0,1-8.3,1.52A17.31,17.31,0,0,1,63.23,46a16,16,0,0,1-5.32-3.78,16.54,16.54,0,0,1-3.35-5.59,20,20,0,0,1-1.15-6.87,19.15,19.15,0,0,1,1.31-7.12,16.54,16.54,0,0,1,3.59-5.57,16.12,16.12,0,0,1,5.45-3.59,18,18,0,0,1,6.88-1.27,17.19,17.19,0,0,1,6.43,1.2,14,14,0,0,1,5,3.45,15.28,15.28,0,0,1,3.24,5.52,22.44,22.44,0,0,1,1.13,7.41v1.79l-27-.08a11.52,11.52,0,0,0,1,4.11,12,12,0,0,0,2.31,3.45,10.6,10.6,0,0,0,3.36,2.33,10.12,10.12,0,0,0,4.22.87A13.33,13.33,0,0,0,76.48,41,14.06,14.06,0,0,0,81,37.21ZM80.46,26.83A9.59,9.59,0,0,0,77.7,20a10,10,0,0,0-7.3-2.6,10.83,10.83,0,0,0-7.52,2.55,10.85,10.85,0,0,0-3.45,6.86Z"/></g></g></svg>