<svg xmlns="http://www.w3.org/2000/svg" viewBox="0 0 457.38 189.56"><defs><style>.cls-1{fill:#ed2249;}.cls-2{fill:#030303;}.cls-3{fill:#fff;}</style></defs><title>titulo_fi</title><g id="Capa_2" data-name="Capa 2"><g id="Full_Inclusion" data-name="Full Inclusion"><path class="cls-1" d="M5.8,176.38a.44.44,0,0,1,.29.09.39.39,0,0,1,.11.3v.35a.47.47,0,0,1-.11.33.4.4,0,0,1-.29.11H3.39v11.3a.37.37,0,0,1-.12.31.39.39,0,0,1-.28.1H2.47c-.24,0-.36-.14-.36-.41v-11.3H.4a.4.4,0,0,1-.29-.11.47.47,0,0,1-.11-.33v-.35a.39.39,0,0,1,.11-.3.44.44,0,0,1,.29-.09H2.11v-2.24a4.32,4.32,0,0,1,.3-1.64,3.64,3.64,0,0,1,.81-1.27,3.32,3.32,0,0,1,1.23-.8A4.11,4.11,0,0,1,6,170.14a.44.44,0,0,1,.32.11.49.49,0,0,1,.11.31V171a.35.35,0,0,1-.11.28.4.4,0,0,1-.28.1,2.75,2.75,0,0,0-1,.19,2.22,2.22,0,0,0-.84.59,2.85,2.85,0,0,0-.57,1,4.57,4.57,0,0,0-.2,1.41v1.78Z"/><path class="cls-1" d="M29.3,187.7l0-.69a6.37,6.37,0,0,1-.83,1,5.94,5.94,0,0,1-1,.78,5.17,5.17,0,0,1-1.24.49,5.92,5.92,0,0,1-1.44.17,6.11,6.11,0,0,1-2.37-.46,5.65,5.65,0,0,1-1.85-1.27,5.7,5.7,0,0,1-1.22-1.88,6.14,6.14,0,0,1-.43-2.32v-7.92a.5.5,0,0,1,.11-.37.45.45,0,0,1,.34-.12h.42c.17,0,.29,0,.34.11a.58.58,0,0,1,.08.36v8a5,5,0,0,0,.36,1.71,4.55,4.55,0,0,0,.93,1.46,4.49,4.49,0,0,0,1.45,1,4.7,4.7,0,0,0,1.92.38,4.33,4.33,0,0,0,1.67-.33,4.5,4.5,0,0,0,2.42-2.31,4.31,4.31,0,0,0,.4-1.8v-8.26a.32.32,0,0,1,.36-.35h.58a.32.32,0,0,1,.36.35v13.33c0,.3-.14.46-.41.46h-.45c-.29,0-.44-.13-.44-.4Z"/><path class="cls-1" d="M44.2,171.32a.32.32,0,0,1,.36-.35h.57c.25,0,.37.12.37.35v17.61a.31.31,0,0,1-.35.34h-.58c-.25,0-.37-.11-.37-.34Z"/><path class="cls-1" d="M59.27,171.32a.32.32,0,0,1,.36-.35h.57c.25,0,.37.12.37.35v17.61a.31.31,0,0,1-.35.34h-.59c-.24,0-.36-.11-.36-.34Z"/><path class="cls-1" d="M91.26,171.14a.8.8,0,0,1,.06-.34.29.29,0,0,1,.25-.16h.81a.27.27,0,0,1,.26.16.86.86,0,0,1,.06.34v.42c0,.22,0,.36-.1.41a.67.67,0,0,1-.41.09h-.4a.82.82,0,0,1-.41-.08.29.29,0,0,1-.12-.27Zm.07,4.45a.31.31,0,0,1,.35-.35h.59a.32.32,0,0,1,.36.35v13.32a.32.32,0,0,1-.35.36H91.7a.32.32,0,0,1-.37-.36Z"/><path class="cls-1" d="M106.93,175.65a.4.4,0,0,1,.12-.31.44.44,0,0,1,.3-.1h.45a.36.36,0,0,1,.31.12.44.44,0,0,1,.1.29v1.63a4.93,4.93,0,0,1,1.08-1.18,5.61,5.61,0,0,1,1.23-.73,5.46,5.46,0,0,1,1.25-.35,7.91,7.91,0,0,1,1.14-.09,5.7,5.7,0,0,1,2.33.46,5.42,5.42,0,0,1,1.8,1.28,5.85,5.85,0,0,1,1.15,1.89,6.26,6.26,0,0,1,.41,2.3v7.92a.46.46,0,0,1-.12.37.43.43,0,0,1-.31.12h-.41a.46.46,0,0,1-.35-.11.66.66,0,0,1-.08-.36v-8a5.54,5.54,0,0,0-.35-1.69,4.73,4.73,0,0,0-.87-1.47,4.49,4.49,0,0,0-1.39-1,4.39,4.39,0,0,0-1.88-.39,4.67,4.67,0,0,0-1.68.31,4.85,4.85,0,0,0-1.46.89,4.59,4.59,0,0,0-1,1.37,4.12,4.12,0,0,0-.44,1.76v8.35q0,.36-.33.36h-.58c-.24,0-.35-.12-.35-.36v-3.07a.29.29,0,0,1,0-.12Z"/><path class="cls-1" d="M142.78,177.79l-.06.06a.12.12,0,0,1-.09,0,.33.33,0,0,1-.21-.12c-.09-.09-.23-.22-.43-.39a4.2,4.2,0,0,0-.78-.52,6.34,6.34,0,0,0-1.18-.45,6.06,6.06,0,0,0-1.63-.2,5.45,5.45,0,0,0-2.25.48,6.23,6.23,0,0,0-1.9,1.3,6.41,6.41,0,0,0-1.31,1.92,5.6,5.6,0,0,0-.49,2.33,6,6,0,0,0,.47,2.34,6.7,6.7,0,0,0,1.28,1.93,6.43,6.43,0,0,0,1.89,1.32,5.48,5.48,0,0,0,2.27.49,6.24,6.24,0,0,0,1.09-.09,6.81,6.81,0,0,0,.94-.25,5.73,5.73,0,0,0,.83-.39,8.93,8.93,0,0,0,.77-.48l.19-.15a1.88,1.88,0,0,1,.24-.18l.21-.15a.25.25,0,0,1,.39.08,3.12,3.12,0,0,1,.27.4.52.52,0,0,1,.09.23.14.14,0,0,1,0,.09.21.21,0,0,1,0,.11,2.91,2.91,0,0,1-.72.65,7.54,7.54,0,0,1-1.93,1,6.65,6.65,0,0,1-2.28.37,7.23,7.23,0,0,1-1.92-.26,7.47,7.47,0,0,1-1.74-.74,7.78,7.78,0,0,1-1.48-1.14,7.45,7.45,0,0,1-1.15-1.48,6.73,6.73,0,0,1-.75-1.74,7,7,0,0,1,0-3.86,6.73,6.73,0,0,1,.75-1.74,7.11,7.11,0,0,1,1.15-1.47,7.3,7.3,0,0,1,3.22-1.89,7.23,7.23,0,0,1,1.92-.26,6.3,6.3,0,0,1,1.3.13,7.23,7.23,0,0,1,1.23.35,8.06,8.06,0,0,1,1.11.52,8.81,8.81,0,0,1,.95.66h0l0,0,.19.17a.23.23,0,0,1,.08.2.5.5,0,0,1-.14.27Z"/><path class="cls-1" d="M156.26,171.32a.32.32,0,0,1,.36-.35h.57c.25,0,.37.12.37.35v17.61c0,.23-.11.34-.35.34h-.58c-.25,0-.37-.11-.37-.34Z"/><path class="cls-1" d="M181.69,187.7l0-.69a6.37,6.37,0,0,1-.83,1,5.65,5.65,0,0,1-1,.78,5.1,5.1,0,0,1-1.23.49,6.28,6.28,0,0,1-3.81-.29,5.65,5.65,0,0,1-3.07-3.15,6.14,6.14,0,0,1-.44-2.32v-7.92a.5.5,0,0,1,.12-.37.43.43,0,0,1,.34-.12h.42c.17,0,.28,0,.34.11a.66.66,0,0,1,.08.36v8a5.27,5.27,0,0,0,.35,1.71,4.75,4.75,0,0,0,.94,1.46,4.49,4.49,0,0,0,1.45,1,4.67,4.67,0,0,0,1.92.38,4.33,4.33,0,0,0,1.67-.33,4.54,4.54,0,0,0,1.42-.91,4.42,4.42,0,0,0,1-1.4,4.47,4.47,0,0,0,.4-1.8v-8.26a.31.31,0,0,1,.35-.35h.58c.25,0,.37.12.37.35v13.33c0,.3-.14.46-.41.46h-.46c-.29,0-.43-.13-.43-.4Z"/><path class="cls-1" d="M195.76,186.34l0-.1s0-.07,0-.1a.27.27,0,0,1,.08-.21.76.76,0,0,1,.2-.12l.43-.19.09,0h.08a.19.19,0,0,1,.16.1,1.78,1.78,0,0,1,.12.24c0,.09.07.19.1.3s.08.2.12.28a2.33,2.33,0,0,0,.61.79,3.8,3.8,0,0,0,.87.56,5,5,0,0,0,.94.32,4.31,4.31,0,0,0,.89.11,5,5,0,0,0,1.13-.16,4,4,0,0,0,1.17-.47,2.87,2.87,0,0,0,.93-.84,2.13,2.13,0,0,0,.38-1.28,2,2,0,0,0-.34-1.17,3,3,0,0,0-.85-.84,4.76,4.76,0,0,0-1.18-.56,13.43,13.43,0,0,0-1.3-.37,10.23,10.23,0,0,1-1.59-.53,6,6,0,0,1-1.35-.81,3.87,3.87,0,0,1-.94-1.09,2.66,2.66,0,0,1-.36-1.38,3.81,3.81,0,0,1,.32-1.58,3.5,3.5,0,0,1,.89-1.22,4,4,0,0,1,1.39-.78,5.67,5.67,0,0,1,1.8-.27,5,5,0,0,1,1.49.21,3.93,3.93,0,0,1,1.22.58,3.87,3.87,0,0,1,.94.91,5.38,5.38,0,0,1,.67,1.2v0a.38.38,0,0,1,.06.17.34.34,0,0,1-.08.2l-.22.17-.24.12a.45.45,0,0,1-.18,0,.36.36,0,0,1-.19,0,.68.68,0,0,1-.12-.12l-.1-.19a2,2,0,0,0-.12-.26,3.65,3.65,0,0,0-1.25-1.22,3.44,3.44,0,0,0-1.88-.48,4.32,4.32,0,0,0-1.15.15,2.88,2.88,0,0,0-1,.47,2.4,2.4,0,0,0-.68.8,2.51,2.51,0,0,0-.24,1.13,1.54,1.54,0,0,0,.33,1,3.17,3.17,0,0,0,.83.75,5.4,5.4,0,0,0,1.05.52c.38.13.73.24,1,.32l.11,0h0a10.18,10.18,0,0,1,1.84.6,6.2,6.2,0,0,1,1.43.88A3.94,3.94,0,0,1,205,184a3.43,3.43,0,0,1,.32,1.49,3.57,3.57,0,0,1-.4,1.71,4,4,0,0,1-1.09,1.26,5,5,0,0,1-1.57.79,6.46,6.46,0,0,1-1.87.27,5.85,5.85,0,0,1-1.58-.21,4.87,4.87,0,0,1-1.37-.62,4.42,4.42,0,0,1-1.06-1A3.63,3.63,0,0,1,195.76,186.34Z"/><path class="cls-1" d="M218.21,171.14a.8.8,0,0,1,.06-.34.27.27,0,0,1,.25-.16h.81a.27.27,0,0,1,.26.16.86.86,0,0,1,.06.34v.42c0,.22,0,.36-.1.41a.69.69,0,0,1-.41.09h-.4a.82.82,0,0,1-.41-.08.29.29,0,0,1-.12-.27Zm.06,4.45a.32.32,0,0,1,.36-.35h.59a.31.31,0,0,1,.35.35v13.32c0,.24-.11.36-.34.36h-.58c-.25,0-.38-.12-.38-.36Z"/><path class="cls-1" d="M233,182.26a7.31,7.31,0,0,1,.26-1.93,7.07,7.07,0,0,1,.74-1.74,6.74,6.74,0,0,1,1.14-1.47,7.17,7.17,0,0,1,1.48-1.15,7.4,7.4,0,0,1,1.73-.74,7.3,7.3,0,0,1,7.08,1.89,6.74,6.74,0,0,1,1.14,1.47,7.5,7.5,0,0,1,.75,1.74,7.61,7.61,0,0,1,0,3.87,7.5,7.5,0,0,1-.75,1.74,7,7,0,0,1-1.14,1.48,7.55,7.55,0,0,1-1.49,1.14,7.23,7.23,0,0,1-5.59.74,7.4,7.4,0,0,1-1.73-.74,7.48,7.48,0,0,1-1.48-1.14,7.41,7.41,0,0,1-1.88-3.22A7.32,7.32,0,0,1,233,182.26Zm1.33,0a5.89,5.89,0,0,0,.21,1.57,6,6,0,0,0,.6,1.43,5.81,5.81,0,0,0,.92,1.23,6,6,0,0,0,1.19,1,5.78,5.78,0,0,0,1.42.62,5.42,5.42,0,0,0,1.57.23,5.83,5.83,0,0,0,2.32-.47,6.1,6.1,0,0,0,3.22-3.2,6,6,0,0,0,0-4.67,6.39,6.39,0,0,0-1.27-1.94,6.3,6.3,0,0,0-1.89-1.32,5.49,5.49,0,0,0-2.32-.5,5.59,5.59,0,0,0-2.32.49,6,6,0,0,0-1.91,1.31,6.7,6.7,0,0,0-1.28,1.93A5.91,5.91,0,0,0,234.32,182.26Z"/><path class="cls-1" d="M260.73,175.65a.4.4,0,0,1,.12-.31.44.44,0,0,1,.3-.1h.45a.36.36,0,0,1,.31.12.39.39,0,0,1,.1.29v1.63a4.93,4.93,0,0,1,1.08-1.18,5.61,5.61,0,0,1,1.23-.73,5.46,5.46,0,0,1,1.25-.35,7.91,7.91,0,0,1,1.14-.09,5.7,5.7,0,0,1,2.33.46,5.42,5.42,0,0,1,1.8,1.28,6.05,6.05,0,0,1,1.16,1.89,6.47,6.47,0,0,1,.4,2.3v7.92a.5.5,0,0,1-.11.37.45.45,0,0,1-.32.12h-.41a.43.43,0,0,1-.34-.11.58.58,0,0,1-.09-.36v-8a5.26,5.26,0,0,0-.35-1.69,4.73,4.73,0,0,0-.87-1.47,4.21,4.21,0,0,0-3.27-1.43,4.67,4.67,0,0,0-1.68.31,4.85,4.85,0,0,0-1.46.89,4.59,4.59,0,0,0-1.05,1.37,4.12,4.12,0,0,0-.44,1.76v8.35q0,.36-.33.36h-.58c-.24,0-.35-.12-.35-.36v-3.07a.29.29,0,0,1,0-.12Z"/><path class="cls-2" d="M17.71,70.39V83.61H11.13V70.71L.34,48H7.55l6.78,14.24L21,48h7.22Zm0,0L28.25,48Z"/><path class="cls-2" d="M70.78,52.06A19,19,0,1,1,44,78.88,19,19,0,1,1,70.78,52.06ZM57.37,53a12.46,12.46,0,0,0,0,24.92A12.43,12.43,0,0,0,69.82,65.47a12.4,12.4,0,0,0-3.64-8.75A12.25,12.25,0,0,0,57.37,53Z"/><path class="cls-2" d="M94.14,47.65V68.54c0,2-.06,4.09.64,5.56a6.21,6.21,0,0,0,2.3,2.62,5.85,5.85,0,0,0,6.2.12,5.93,5.93,0,0,0,2.3-2.23c1-1.54.83-3.64.83-5.75V47.65H113V68.86c0,3,0,6-1.79,9.07a12.91,12.91,0,0,1-4.66,4.6,12.27,12.27,0,0,1-6.26,1.66,12,12,0,0,1-6.77-2,12.51,12.51,0,0,1-4.67-5.31c-1.4-2.87-1.27-5.68-1.27-8.43A12.46,12.46,0,0,0,87.63,67V47.65Zm0,0h0Z"/><path class="cls-2" d="M149.45,47.71V83.49l-5.69-5.95L130.28,63.68V83.42h-6.51V47.71l5.68,5.94,13.48,13.86V47.71Zm-6.52,0h0Z"/><path class="cls-2" d="M179.07,65.28h19.8v.07a18.36,18.36,0,0,1-5.23,13.41,19.37,19.37,0,0,1-13.8,5.69,18.25,18.25,0,0,1-13.42-5.57,19,19,0,0,1,0-26.82,19,19,0,0,1,22-3.51,18.05,18.05,0,0,1,6.77,5.8l-5.3,3.84a12.71,12.71,0,0,0-4.41-3.77A11.86,11.86,0,0,0,179.84,53a12.19,12.19,0,0,0-8.75,3.71,12.43,12.43,0,0,0,8.75,21.21A13,13,0,0,0,189,74.16a14.22,14.22,0,0,0,1.78-2.24l-11.69-.13Zm0,0v0Z"/><path class="cls-2" d="M11.3,116.84H21.69v7H11.3v8.55h14v7H4.32V100.84H25.25v7H11.3Zm0-9v0Z"/><path class="cls-2" d="M64.84,101v38.31l-6.08-6.36L44.33,118.08v21.13h-7V101l6.08,6.37,14.44,14.84V101Zm-7,0h0Z"/><path class="cls-2" d="M76.94,100.91H98.69v7H91.16v31.53h-7V107.89H76.94Zm0,0v0Z"/><path class="cls-2" d="M134.31,139.42h-8.13l-7.8-13.07h-1v13.07h-7V100.91h7V101h3.29a12.25,12.25,0,0,1,9,3.7,12.84,12.84,0,0,1,3.77,9,12.21,12.21,0,0,1-3.77,9,12.07,12.07,0,0,1-3.75,2.6Zm-17-20.11h3.29a5.62,5.62,0,0,0,5.67-5.68,5.78,5.78,0,0,0-1.64-4,5.52,5.52,0,0,0-4-1.64h-3.29Z"/><path class="cls-2" d="M152.29,116.84h10.4v7h-10.4v8.55h14v7H145.31V100.84h20.93v7h-14Zm0-9v0Z"/><path class="cls-2" d="M185.32,100.91V101h3.29a12.25,12.25,0,0,1,8.95,3.7,12.83,12.83,0,0,1,3.76,9,12.84,12.84,0,0,1-12.71,12.72h-3.29v13.07h-7V100.91Zm-7,0h0Zm7,7v11.36h3.29a5.62,5.62,0,0,0,5.67-5.68,5.78,5.78,0,0,0-1.64-4,5.52,5.52,0,0,0-4-1.64Z"/><path class="cls-2" d="M236.26,139.42h-8.13l-7.8-13.07h-1v13.07h-7V100.91h7V101h3.29a12.25,12.25,0,0,1,8.95,3.7,12.84,12.84,0,0,1,3.77,9,12.83,12.83,0,0,1-7.53,11.56Zm-17-20.11h3.29a5.62,5.62,0,0,0,5.67-5.68,5.78,5.78,0,0,0-1.64-4,5.52,5.52,0,0,0-4-1.64H219.3Z"/><path class="cls-2" d="M254.24,116.84h10.4v7h-10.4v8.55h13.95v7H247.26V100.84h20.93v7H254.24Zm0-9v0Z"/><path class="cls-2" d="M307.79,101v38.31l-6.09-6.36-14.43-14.84v21.13h-7V101l6.09,6.37,14.43,14.84V101Zm-7,0h0Z"/><path class="cls-2" d="M326.86,116.84h10.39v7H326.86v8.55h13.95v7H319.88V100.84h20.93v7H326.86Zm0-9v0Z"/><path class="cls-2" d="M360.29,100.91v22.37c0,2.18-.07,4.37.68,5.95a6.5,6.5,0,0,0,2.47,2.8,6.12,6.12,0,0,0,3.42,1,6.22,6.22,0,0,0,3.21-.88,6.44,6.44,0,0,0,2.47-2.39c1-1.65.88-3.9.88-6.16V100.91h7.05v22.71c0,3.21,0,6.43-1.91,9.71a13.78,13.78,0,0,1-5,4.92,13,13,0,0,1-6.7,1.78,12.8,12.8,0,0,1-7.25-2.12,13.35,13.35,0,0,1-5-5.68c-1.5-3.08-1.36-6.08-1.36-9a14.54,14.54,0,0,0,.06-1.58V100.91Zm0,0h0Z"/><path class="cls-2" d="M416,139.42h-8.14L400,126.35h-1v13.07h-7V100.91h7V101h3.28a12.25,12.25,0,0,1,9,3.7,12.88,12.88,0,0,1,3.76,9,12.81,12.81,0,0,1-7.52,11.56Zm-17-20.11h3.28a5.62,5.62,0,0,0,5.68-5.68,5.78,5.78,0,0,0-1.64-4,5.56,5.56,0,0,0-4-1.64H399Z"/><rect class="cls-2" x="1.03" y="150.92" width="456.35" height="2.65"/><path class="cls-3" d="M3.08,24.85V0h7.75c3.29,0,5.75.48,7.36,1.44a5.13,5.13,0,0,1,2.43,4.8,7.49,7.49,0,0,1-.07,1.07,6.17,6.17,0,0,1-.3,1.2,5,5,0,0,1-.63,1.21,4.8,4.8,0,0,1-1.09,1.06,5.29,5.29,0,0,1-1.63.81,6,6,0,0,1,3.53,2.14,6.19,6.19,0,0,1,1.22,3.91A6.26,6.26,0,0,1,19.17,23a11.27,11.27,0,0,1-6.88,1.85Zm4.6-14.59h3.93c3,0,4.57-1.16,4.57-3.47a2.78,2.78,0,0,0-1.32-2.68,9,9,0,0,0-4.18-.73h-3Zm0,11.27h4q5.29,0,5.3-4.14a3.39,3.39,0,0,0-1.33-3,7.17,7.17,0,0,0-4.09-.92H7.68Z"/><path class="cls-3" d="M33.17,25.21a8.23,8.23,0,0,1-6.51-2.68,10.23,10.23,0,0,1-2.38-7.06,10.15,10.15,0,0,1,2.38-7.12,8.61,8.61,0,0,1,6.7-2.6A8.32,8.32,0,0,1,39.9,8.41a10.24,10.24,0,0,1,2.36,7.06,10.14,10.14,0,0,1-2.39,7.1A8.58,8.58,0,0,1,33.17,25.21Zm.12-3.38a3.87,3.87,0,0,0,3.39-1.64,8.25,8.25,0,0,0,1.14-4.72,8.2,8.2,0,0,0-1.14-4.73,3.89,3.89,0,0,0-3.42-1.63,3.9,3.9,0,0,0-3.41,1.64,8.25,8.25,0,0,0-1.14,4.74,8.14,8.14,0,0,0,1.15,4.7A3.93,3.93,0,0,0,33.29,21.83Z"/><path class="cls-3" d="M53.6,25.21a8.27,8.27,0,0,1-6.52-2.68,10.27,10.27,0,0,1-2.37-7.06,10.19,10.19,0,0,1,2.37-7.12,8.65,8.65,0,0,1,6.71-2.6,8.28,8.28,0,0,1,6.53,2.66,10.2,10.2,0,0,1,2.37,7.06,10.18,10.18,0,0,1-2.39,7.1A8.59,8.59,0,0,1,53.6,25.21Zm.12-3.38a3.87,3.87,0,0,0,3.39-1.64,8.25,8.25,0,0,0,1.14-4.72,8.2,8.2,0,0,0-1.14-4.73,4.38,4.38,0,0,0-6.83,0,8.25,8.25,0,0,0-1.14,4.74,8.14,8.14,0,0,0,1.15,4.7A3.93,3.93,0,0,0,53.72,21.83Z"/><path class="cls-3" d="M73.3,25.11a9.53,9.53,0,0,1-3.16-.45,4.09,4.09,0,0,1-2-1.42,6.08,6.08,0,0,1-1-2.28,15.64,15.64,0,0,1-.29-3.25V8.91H63.8L64,6.5l3.19-.29,1.43-5.06H71.3V6.21h4.63v2.7H71.3V17.8a5.57,5.57,0,0,0,.61,3,2.57,2.57,0,0,0,2.26.89,12.91,12.91,0,0,0,2.07-.17l.12,3.19-.42.08-.73.14-.89.11C74,25.09,73.62,25.11,73.3,25.11Z"/><path class="cls-3" d="M86.89,25.21a8.64,8.64,0,0,1-6.65-2.55c-1.59-1.69-2.39-4.12-2.39-7.27a9.69,9.69,0,0,1,2.5-7.11A8.86,8.86,0,0,1,87,5.75a10.26,10.26,0,0,1,5.53,1.41l-1.06,3.17a9.32,9.32,0,0,0-4.29-1.2,4.29,4.29,0,0,0-3.55,1.61,7.31,7.31,0,0,0-1.3,4.7,7.59,7.59,0,0,0,1.28,4.75,4.36,4.36,0,0,0,3.62,1.63,8.53,8.53,0,0,0,4.7-1.45l.43,3.38a8.32,8.32,0,0,1-2.43,1.12A11.39,11.39,0,0,1,86.89,25.21Z"/><path class="cls-3" d="M100.3,25.21a6.09,6.09,0,0,1-4.2-1.43,5.27,5.27,0,0,1-1.6-4.14,5,5,0,0,1,1.9-4.3,11.6,11.6,0,0,1,5.73-1.77l1.14-.13,1.37-.14c.51-.05.91-.08,1.21-.12v-1a3.36,3.36,0,0,0-.78-2.47A3.25,3.25,0,0,0,102.69,9a16.27,16.27,0,0,0-5.61,1.27s-.2-.55-.56-1.54S96,7.18,96,7.16a17.85,17.85,0,0,1,7.12-1.41q3.77,0,5.48,1.64t1.71,5.3V24.85H107s-.13-.42-.37-1.13-.36-1.1-.36-1.14a10.26,10.26,0,0,1-2.72,2A7.38,7.38,0,0,1,100.3,25.21Zm1.2-3.16a4.78,4.78,0,0,0,2.69-.74,4.27,4.27,0,0,0,1.64-1.78v-3.6l-.89.07-.91.07a9.15,9.15,0,0,0-4,1,2.73,2.73,0,0,0-1.26,2.51,2.35,2.35,0,0,0,.7,1.83A2.84,2.84,0,0,0,101.5,22.05Z"/><path class="cls-3" d="M114.47,24.85V6.21h3.6l.51,2.37c.23-.28.44-.53.65-.75a7.38,7.38,0,0,1,.87-.75,6.25,6.25,0,0,1,1.17-.68,6.81,6.81,0,0,1,1.53-.46,9.19,9.19,0,0,1,1.94-.19,6.24,6.24,0,0,1,3.55.9,5.17,5.17,0,0,1,1.88,2.1,6.64,6.64,0,0,1,2.59-2.22,8,8,0,0,1,3.55-.78A5.76,5.76,0,0,1,141,7.57a8.21,8.21,0,0,1,1.51,5.37V24.85h-4.47V14.27a9.53,9.53,0,0,0-.6-3.95,2.32,2.32,0,0,0-2.3-1.21,3.86,3.86,0,0,0-3.73,2.34,8.09,8.09,0,0,0-.64,2.49V24.85h-4.45V14.06a8.06,8.06,0,0,0-.66-3.71,2.47,2.47,0,0,0-2.39-1.22,4.1,4.1,0,0,0-2.43.71,4.47,4.47,0,0,0-1.54,1.87,18.7,18.7,0,0,0-.39,4.1v9Z"/><path class="cls-3" d="M146.68,32.61V6.21h3.81L151,8.82a6.34,6.34,0,0,1,2.43-2.28,7.08,7.08,0,0,1,3.39-.81,6.66,6.66,0,0,1,4,1.28,7.86,7.86,0,0,1,2.63,3.47,12.94,12.94,0,0,1,.9,5,11.3,11.3,0,0,1-2.09,7,6.8,6.8,0,0,1-5.68,2.72,7.12,7.12,0,0,1-3.19-.71,6.91,6.91,0,0,1-2.4-1.9c.09,1.62.13,2.54.13,2.74v7Zm8.95-10.79a3.6,3.6,0,0,0,3.13-1.67,8.27,8.27,0,0,0,1.15-4.75,8,8,0,0,0-1.15-4.71,3.76,3.76,0,0,0-3.21-1.58q-4.41,0-4.46,6a9,9,0,0,0,1.14,5.09A3.9,3.9,0,0,0,155.63,21.82Z"/></g></g></svg>