<svg xmlns="http://www.w3.org/2000/svg" xmlns:xlink="http://www.w3.org/1999/xlink" viewBox="0 0 151.12 125.39"><defs><style>.cls-1{fill:url(#linear-gradient);}.cls-2{fill:url(#linear-gradient-2);}.cls-3{fill:url(#linear-gradient-3);}.cls-4{fill:url(#linear-gradient-4);}.cls-5{fill:url(#linear-gradient-5);}.cls-6{fill:url(#linear-gradient-6);}.cls-7{fill:url(#linear-gradient-7);}.cls-8{fill:url(#linear-gradient-8);}</style><linearGradient id="linear-gradient" x1="28.17" y1="66.71" x2="129.95" y2="66.71" gradientUnits="userSpaceOnUse"><stop offset="0" stop-color="#f8a03f"/><stop offset="1" stop-color="#ed7a23"/></linearGradient><linearGradient id="linear-gradient-2" x1="33.83" y1="66.71" x2="124.3" y2="66.71" gradientUnits="userSpaceOnUse"><stop offset="0" stop-color="#4d4e4e"/><stop offset="1" stop-color="#221f1f"/></linearGradient><linearGradient id="linear-gradient-3" x1="121.19" y1="111.95" x2="148.07" y2="111.95" xlink:href="#linear-gradient"/><linearGradient id="linear-gradient-4" x1="0" y1="84.16" x2="26.88" y2="84.16" xlink:href="#linear-gradient"/><linearGradient id="linear-gradient-5" x1="32.87" y1="9.57" x2="52.01" y2="9.57" xlink:href="#linear-gradient"/><linearGradient id="linear-gradient-6" x1="151.12" y1="38.57" x2="108.78" y2="38.57" xlink:href="#linear-gradient"/><linearGradient id="linear-gradient-7" x1="113.53" y1="38.49" x2="145.06" y2="38.49" xlink:href="#linear-gradient-2"/><linearGradient id="linear-gradient-8" x1="53.65" y1="67.71" x2="102.1" y2="67.71" xlink:href="#linear-gradient"/></defs><title>Asset 41</title><g id="Layer_2" data-name="Layer 2"><g id="Capa_1" data-name="Capa 1"><circle class="cls-1" cx="79.06" cy="66.71" r="50.89"/><circle class="cls-2" cx="79.06" cy="66.71" r="45.24"/><circle class="cls-3" cx="134.63" cy="111.95" r="13.44"/><circle class="cls-4" cx="13.44" cy="84.16" r="13.44"/><circle class="cls-5" cx="42.44" cy="9.57" r="9.57"/><circle class="cls-6" cx="129.95" cy="38.57" r="21.17"/><path class="cls-7" d="M143.87,48.71a16.2,16.2,0,0,1-6.3,5.13,19.92,19.92,0,0,1-7.92,1.44,16.6,16.6,0,0,1-6.75-1.35,15.21,15.21,0,0,1-5.07-3.6A15.56,15.56,0,0,1,114.64,45a18.72,18.72,0,0,1-1.11-6.56,18.22,18.22,0,0,1,1.25-6.78,15.88,15.88,0,0,1,3.43-5.32,15.46,15.46,0,0,1,5.2-3.43,17.12,17.12,0,0,1,6.55-1.2,16.13,16.13,0,0,1,6.14,1.14,13.49,13.49,0,0,1,4.8,3.29A14.64,14.64,0,0,1,144,31.41a21.2,21.2,0,0,1,1.07,7.06v1.71l-25.79-.08a11.13,11.13,0,0,0,1,3.92,11.45,11.45,0,0,0,2.21,3.29,10.64,10.64,0,0,0,3.2,2.23,9.9,9.9,0,0,0,4,.83,12.92,12.92,0,0,0,5.88-1.21,13.48,13.48,0,0,0,4.31-3.61Zm-4.54-13.05a9.15,9.15,0,0,0-2.64-6.56,9.57,9.57,0,0,0-6.95-2.48,9.83,9.83,0,0,0-10.47,9Z"/><path id="world" class="cls-8" d="M77.87,43.48A24.23,24.23,0,1,0,102.1,67.71,24.22,24.22,0,0,0,77.87,43.48ZM98.93,66.93H89.56a31.37,31.37,0,0,0-1.79-9.8,25.67,25.67,0,0,0,5.84-3.43A21,21,0,0,1,98.93,66.93ZM77,88.76a24.79,24.79,0,0,1-6.37-8.23,24,24,0,0,1,6.45-1.06v9.3Zm1.72-42.11a25.15,25.15,0,0,1,7,9.58,24.24,24.24,0,0,1-7.06,1.28V46.65Zm2.61.27a21,21,0,0,1,11.19,5.65,23.78,23.78,0,0,1-5.35,3.12A27.65,27.65,0,0,0,81.34,46.92Zm-4.25-.27V57.51A24.3,24.3,0,0,1,70,56.23a25.26,25.26,0,0,1,7-9.58Zm-8.52,9a24.07,24.07,0,0,1-5.36-3.12,21,21,0,0,1,11.2-5.65A27.32,27.32,0,0,0,68.57,55.69Zm.87,2a25.52,25.52,0,0,0,7.65,1.4v7.86H67.75A29.47,29.47,0,0,1,69.44,57.67Zm7.65,10.82v9.42A25.56,25.56,0,0,0,70,79.11a29,29,0,0,1-2.25-10.62Zm-2.68,20a21,21,0,0,1-10.23-4.77,23.79,23.79,0,0,1,5-2.66A26.94,26.94,0,0,0,74.41,88.5Zm4.24.27v-9.3a24.19,24.19,0,0,1,6.46,1.06,25.2,25.2,0,0,1-6.37,8.24Zm7.93-7.7a24.11,24.11,0,0,1,5,2.66A21.06,21.06,0,0,1,81.34,88.5,26.91,26.91,0,0,0,86.58,81.07Zm-.83-2a25.63,25.63,0,0,0-7.1-1.2V68.49H88A29.44,29.44,0,0,1,85.75,79.11Zm-7.1-12.18V59.07a25.52,25.52,0,0,0,7.65-1.4A29.76,29.76,0,0,1,88,66.93ZM62.14,53.7A25.67,25.67,0,0,0,68,57.13a31.09,31.09,0,0,0-1.8,9.8H56.81A21,21,0,0,1,62.14,53.7ZM56.81,68.49h9.37a30.89,30.89,0,0,0,2.35,11.16,25.73,25.73,0,0,0-5.53,3A21,21,0,0,1,56.81,68.49ZM92.74,82.66a26,26,0,0,0-5.53-3,30.83,30.83,0,0,0,2.35-11.15h9.37A21,21,0,0,1,92.74,82.66Z"/></g></g></svg>