<svg xmlns="http://www.w3.org/2000/svg" xmlns:xlink="http://www.w3.org/1999/xlink" viewBox="0 0 151.12 125.39"><defs><style>.cls-1{fill:url(#linear-gradient);}.cls-2{fill:url(#linear-gradient-2);}.cls-3{fill:url(#linear-gradient-3);}.cls-4{fill:url(#linear-gradient-4);}.cls-5{fill:url(#linear-gradient-5);}.cls-6{fill:url(#linear-gradient-6);}.cls-7{fill:url(#linear-gradient-7);}.cls-8{fill:url(#linear-gradient-8);}.cls-9{fill:url(#linear-gradient-9);}</style><linearGradient id="linear-gradient" x1="28.17" y1="66.71" x2="129.95" y2="66.71" gradientUnits="userSpaceOnUse"><stop offset="0" stop-color="#f8a03f"/><stop offset="1" stop-color="#ed7a23"/></linearGradient><linearGradient id="linear-gradient-2" x1="33.83" y1="66.71" x2="124.3" y2="66.71" gradientUnits="userSpaceOnUse"><stop offset="0" stop-color="#4d4e4e"/><stop offset="1" stop-color="#221f1f"/></linearGradient><linearGradient id="linear-gradient-3" x1="121.19" y1="111.95" x2="148.07" y2="111.95" xlink:href="#linear-gradient"/><linearGradient id="linear-gradient-4" x1="0" y1="84.16" x2="26.88" y2="84.16" xlink:href="#linear-gradient"/><linearGradient id="linear-gradient-5" x1="32.87" y1="9.57" x2="52.01" y2="9.57" xlink:href="#linear-gradient"/><linearGradient id="linear-gradient-6" x1="151.12" y1="38.57" x2="108.78" y2="38.57" xlink:href="#linear-gradient"/><linearGradient id="linear-gradient-7" x1="113.53" y1="38.49" x2="145.06" y2="38.49" xlink:href="#linear-gradient-2"/><linearGradient id="linear-gradient-8" x1="60.03" y1="66.71" x2="98.09" y2="66.71" xlink:href="#linear-gradient"/><linearGradient id="linear-gradient-9" x1="68.68" y1="53.3" x2="79.93" y2="53.3" xlink:href="#linear-gradient"/></defs><title>Asset 42</title><g id="Layer_2" data-name="Layer 2"><g id="Capa_1" data-name="Capa 1"><circle class="cls-1" cx="79.06" cy="66.71" r="50.89"/><circle class="cls-2" cx="79.06" cy="66.71" r="45.24"/><circle class="cls-3" cx="134.63" cy="111.95" r="13.44"/><circle class="cls-4" cx="13.44" cy="84.16" r="13.44"/><circle class="cls-5" cx="42.44" cy="9.57" r="9.57"/><circle class="cls-6" cx="129.95" cy="38.57" r="21.17"/><path class="cls-7" d="M143.87,48.71a16.2,16.2,0,0,1-6.3,5.13,19.92,19.92,0,0,1-7.92,1.44,16.6,16.6,0,0,1-6.75-1.35,15.21,15.21,0,0,1-5.07-3.6A15.56,15.56,0,0,1,114.64,45a18.72,18.72,0,0,1-1.11-6.56,18.22,18.22,0,0,1,1.25-6.78,15.88,15.88,0,0,1,3.43-5.32,15.46,15.46,0,0,1,5.2-3.43,17.12,17.12,0,0,1,6.55-1.2,16.13,16.13,0,0,1,6.14,1.14,13.49,13.49,0,0,1,4.8,3.29A14.64,14.64,0,0,1,144,31.41a21.2,21.2,0,0,1,1.07,7.06v1.71l-25.79-.08a11.13,11.13,0,0,0,1,3.92,11.45,11.45,0,0,0,2.21,3.29,10.64,10.64,0,0,0,3.2,2.23,9.9,9.9,0,0,0,4,.83,12.92,12.92,0,0,0,5.88-1.21,13.48,13.48,0,0,0,4.31-3.61Zm-4.54-13.05a9.15,9.15,0,0,0-2.64-6.56,9.57,9.57,0,0,0-6.95-2.48,9.83,9.83,0,0,0-10.47,9Z"/><g id="bulb"><path class="cls-8" d="M79.06,39a19,19,0,0,0-19,19c0,7,6.38,14.36,8.7,20.86C72.2,88.6,71.81,94.4,79.06,94.4S85.92,88.63,89.39,79c2.33-6.51,8.7-14,8.7-20.9A19,19,0,0,0,79.06,39Zm4.49,47L75,87.12c-.31-.89-.64-1.92-1-3.28a.43.43,0,0,1,0,0l10.7-1.34L84.17,84C83.94,84.76,83.74,85.43,83.55,86.05ZM73.41,82.12c-.31-1-.67-2.14-1.06-3.3H85.79c-.22.62-.43,1.25-.61,1.83Zm5.65,8.81c-1.75,0-2.56-.2-3.45-2.16l7.33-.92C81.88,90.71,81.1,90.93,79.06,90.93Zm8.09-15.57H71c-.87-1.87-1.9-3.74-2.92-5.57-2.26-4-4.59-8.21-4.59-11.73a15.57,15.57,0,1,1,31.14,0c0,3.49-2.33,7.69-4.59,11.76C89,71.64,88,73.5,87.15,75.36Z"/><path class="cls-9" d="M79.06,47.68A10.39,10.39,0,0,0,68.68,58.06a.87.87,0,0,0,1.73,0,8.66,8.66,0,0,1,8.65-8.65.87.87,0,1,0,0-1.73Z"/></g></g></g></svg>