<svg xmlns="http://www.w3.org/2000/svg" xmlns:xlink="http://www.w3.org/1999/xlink" viewBox="0 0 151.12 125.39"><defs><style>.cls-1{fill:url(#linear-gradient);}.cls-2{fill:url(#linear-gradient-2);}.cls-3{fill:url(#linear-gradient-3);}.cls-4{fill:url(#linear-gradient-4);}.cls-5{fill:url(#linear-gradient-5);}.cls-6{fill:url(#linear-gradient-6);}.cls-7{fill:url(#linear-gradient-7);}.cls-8{fill:url(#linear-gradient-8);}.cls-9{fill:url(#linear-gradient-9);}.cls-10{fill:url(#linear-gradient-10);}.cls-11{fill:url(#linear-gradient-11);}</style><linearGradient id="linear-gradient" x1="28.17" y1="66.71" x2="129.95" y2="66.71" gradientUnits="userSpaceOnUse"><stop offset="0" stop-color="#f8a03f"/><stop offset="1" stop-color="#ed7a23"/></linearGradient><linearGradient id="linear-gradient-2" x1="33.83" y1="66.71" x2="124.3" y2="66.71" gradientUnits="userSpaceOnUse"><stop offset="0" stop-color="#4d4e4e"/><stop offset="1" stop-color="#221f1f"/></linearGradient><linearGradient id="linear-gradient-3" x1="121.19" y1="111.95" x2="148.07" y2="111.95" xlink:href="#linear-gradient"/><linearGradient id="linear-gradient-4" x1="0" y1="84.16" x2="26.88" y2="84.16" xlink:href="#linear-gradient"/><linearGradient id="linear-gradient-5" x1="32.87" y1="9.57" x2="52.01" y2="9.57" xlink:href="#linear-gradient"/><linearGradient id="linear-gradient-6" x1="151.12" y1="38.57" x2="108.78" y2="38.57" xlink:href="#linear-gradient"/><linearGradient id="linear-gradient-7" x1="113.53" y1="38.49" x2="145.06" y2="38.49" xlink:href="#linear-gradient-2"/><linearGradient id="linear-gradient-8" x1="53.95" y1="65.54" x2="104.17" y2="65.54" xlink:href="#linear-gradient"/><linearGradient id="linear-gradient-9" x1="72.21" y1="65.25" x2="85.79" y2="65.25" xlink:href="#linear-gradient"/><linearGradient id="linear-gradient-10" x1="70.73" y1="79.04" x2="78.33" y2="79.04" xlink:href="#linear-gradient"/><linearGradient id="linear-gradient-11" x1="79.74" y1="52.25" x2="87.46" y2="52.25" xlink:href="#linear-gradient"/></defs><title>Asset 44</title><g id="Layer_2" data-name="Layer 2"><g id="Capa_1" data-name="Capa 1"><circle class="cls-1" cx="79.06" cy="66.71" r="50.89"/><circle class="cls-2" cx="79.06" cy="66.71" r="45.24"/><circle class="cls-3" cx="134.63" cy="111.95" r="13.44"/><circle class="cls-4" cx="13.44" cy="84.16" r="13.44"/><circle class="cls-5" cx="42.44" cy="9.57" r="9.57"/><circle class="cls-6" cx="129.95" cy="38.57" r="21.17"/><path class="cls-7" d="M143.87,48.71a16.2,16.2,0,0,1-6.3,5.13,19.92,19.92,0,0,1-7.92,1.44,16.6,16.6,0,0,1-6.75-1.35,15.21,15.21,0,0,1-5.07-3.6A15.56,15.56,0,0,1,114.64,45a18.72,18.72,0,0,1-1.11-6.56,18.22,18.22,0,0,1,1.25-6.78,15.88,15.88,0,0,1,3.43-5.32,15.46,15.46,0,0,1,5.2-3.43,17.12,17.12,0,0,1,6.55-1.2,16.13,16.13,0,0,1,6.14,1.14,13.49,13.49,0,0,1,4.8,3.29A14.64,14.64,0,0,1,144,31.41a21.2,21.2,0,0,1,1.07,7.06v1.71l-25.79-.08a11.13,11.13,0,0,0,1,3.92,11.45,11.45,0,0,0,2.21,3.29,10.64,10.64,0,0,0,3.2,2.23,9.9,9.9,0,0,0,4,.83,12.92,12.92,0,0,0,5.88-1.21,13.48,13.48,0,0,0,4.31-3.61Zm-4.54-13.05a9.15,9.15,0,0,0-2.64-6.56,9.57,9.57,0,0,0-6.95-2.48,9.83,9.83,0,0,0-10.47,9Z"/><g id="banknote"><path class="cls-8" d="M103.25,57.05,87.56,41.35a3.15,3.15,0,0,0-3-.82,3.21,3.21,0,0,0-1.46.82,3.11,3.11,0,0,0-.78,1.29,14.56,14.56,0,0,1-3.76,6.13C76.15,51.2,73,53,69.64,55c-3.55,2.06-7.22,4.19-10.23,7.2a20.74,20.74,0,0,0-5.32,8.71A3.16,3.16,0,0,0,54.87,74L70.56,89.73a3.16,3.16,0,0,0,3,.83,3.16,3.16,0,0,0,2.24-2.12,14.66,14.66,0,0,1,3.76-6.13c2.43-2.43,5.59-4.26,8.94-6.2C92,74,95.7,71.91,98.71,68.9A20.62,20.62,0,0,0,104,60.19,3.14,3.14,0,0,0,103.25,57.05ZM72.78,87.51C67.59,82.31,62.29,77,57.09,71.82,61.55,57.38,80.88,58,85.34,43.57L101,59.27C96.57,73.7,77.24,73.07,72.78,87.51Z"/><path class="cls-9" d="M84.65,63.82A4.31,4.31,0,0,0,83.11,63a4.55,4.55,0,0,0-1.55-.16,5.25,5.25,0,0,0-1.57.36c-.53.2-1.06.42-1.59.68-.85-1-1.69-1.92-2.53-2.81a1.78,1.78,0,0,1,1.1-.53,3.4,3.4,0,0,1,1,.1c.33.09.64.16.92.21a.81.81,0,0,0,.74-.19,1,1,0,0,0,.37-.75,1.25,1.25,0,0,0-.36-.91,2,2,0,0,0-1.21-.69,3.79,3.79,0,0,0-1.46,0,4.92,4.92,0,0,0-1.41.57,5.6,5.6,0,0,0-1.08.79l-.3-.29a.6.6,0,0,0-.43-.15.51.51,0,0,0-.42.21.53.53,0,0,0-.15.44.57.57,0,0,0,.2.4l.31.26a7.27,7.27,0,0,0-1,1.58,5.48,5.48,0,0,0-.48,1.68,3.27,3.27,0,0,0,.17,1.51,3,3,0,0,0,.93,1.25,3.62,3.62,0,0,0,2.62.81,8,8,0,0,0,3.26-1c.92,1.07,1.85,2.13,2.78,3.12a2.46,2.46,0,0,1-1,.58,1.61,1.61,0,0,1-.82,0,2.49,2.49,0,0,1-.68-.32,4.05,4.05,0,0,0-.62-.37,1.39,1.39,0,0,0-.62-.16,1.11,1.11,0,0,0-.7.31,1,1,0,0,0-.38.78,1.35,1.35,0,0,0,.4.89,3.12,3.12,0,0,0,1,.75,3.76,3.76,0,0,0,1.41.36A3.8,3.8,0,0,0,81.62,72a4.78,4.78,0,0,0,1.73-1.16c.27.27.55.52.82.77a.54.54,0,0,0,.43.13.54.54,0,0,0,.42-.22.57.57,0,0,0,.15-.46.52.52,0,0,0-.19-.38c-.28-.22-.56-.45-.83-.7a8.37,8.37,0,0,0,1.12-1.78,5.39,5.39,0,0,0,.5-1.73A3.14,3.14,0,0,0,85.59,65,3,3,0,0,0,84.65,63.82Zm-8.77,1.06a1.51,1.51,0,0,1-1.17-.46,1,1,0,0,1-.31-.5,1.59,1.59,0,0,1-.06-.66,2.14,2.14,0,0,1,.21-.73,3,3,0,0,1,.51-.73c.8.79,1.59,1.66,2.39,2.55A3.77,3.77,0,0,1,75.88,64.88ZM83.28,68a3.51,3.51,0,0,1-.49.7c-.88-.89-1.76-1.87-2.64-2.87l.71-.31a3.19,3.19,0,0,1,.77-.22,2,2,0,0,1,.77,0,1.66,1.66,0,0,1,1.14,1.12,2,2,0,0,1,0,.77A2.45,2.45,0,0,1,83.28,68Z"/><path class="cls-10" d="M77.05,75.24h0a28.16,28.16,0,0,0-2.82,2.44,23.42,23.42,0,0,0-2.29,2.66l-1.08,1.47h0a.79.79,0,0,0,.1,1,.8.8,0,0,0,1.11,0,.83.83,0,0,0,.12-.16l1-1.37a21.33,21.33,0,0,1,2.14-2.48A25.88,25.88,0,0,1,78,76.47h0l.08-.07a.8.8,0,0,0,0-1.11A.78.78,0,0,0,77.05,75.24Z"/><path class="cls-11" d="M82.79,52.54a27.1,27.1,0,0,1-2.63,2.27.46.46,0,0,0-.18.13.79.79,0,0,0,0,1.12.77.77,0,0,0,1.09,0h0a28.34,28.34,0,0,0,2.82-2.44A23.42,23.42,0,0,0,86.19,51l1.08-1.47h0a.79.79,0,0,0-1.15-1.07,1.15,1.15,0,0,0-.14.19l-1,1.43A21.33,21.33,0,0,1,82.79,52.54Z"/></g></g></g></svg>